<svg width="54" height="54" viewBox="0 0 54 54" fill="none" xmlns="http://www.w3.org/2000/svg">
    <g id="active">
        <g id="Vector" filter="url(#filter0_d_7647_5804)">
            <path d="M42.1304 24.4077L36.3551 22.1864L30.3576 16.1889C30.1355 16.1889 30.1355 15.9668 29.9134 15.9668C29.6912 15.9668 29.4691 15.7447 29.247 15.7447H28.5806L17.9185 17.966C17.0299 18.1881 16.1414 19.0766 16.1414 20.1872V26.629C16.1414 27.9617 17.2521 29.0724 18.3627 29.0724C19.4733 29.0724 20.584 27.9617 20.584 26.629V22.1864L26.1372 21.0758L24.5823 30.4051C24.3602 31.2936 24.8044 32.1821 25.4708 32.6264L33.0231 38.1796V45.5098C33.0231 46.6205 34.1338 47.7311 35.2444 47.7311C36.3551 47.7311 37.4657 46.8426 37.4657 45.5098V37.069C37.4657 36.4026 37.2436 35.7362 36.5772 35.2919L29.247 29.7387L30.3576 22.8528L33.4674 25.9626C33.6895 26.4068 33.9117 26.4068 34.3559 26.629L40.5755 28.8502C41.6861 29.0724 43.0189 28.6281 43.4632 27.2953C43.9074 26.1847 43.241 24.8519 42.1304 24.4077ZM25.2487 33.9592C24.138 33.5149 22.8053 33.9592 22.1389 35.0698L21.2504 36.6247L12.3653 34.8477C11.0325 34.6256 9.69972 35.5141 9.47759 36.8468C9.25547 37.9575 9.92185 39.2902 11.2546 39.5124L21.9167 41.7336C22.8053 41.9558 23.9159 41.2894 24.3602 40.4009L26.1372 37.069C26.5814 35.9583 26.1372 34.6256 25.2487 33.9592ZM35.2444 9.74724C35.2444 12.1906 33.2453 14.1898 30.8019 14.1898C28.3585 14.1898 26.3593 12.1906 26.3593 9.74724C26.3593 7.30384 28.3585 5.30469 30.8019 5.30469C33.2453 5.30469 35.2444 7.30384 35.2444 9.74724Z" fill="black"/>
        </g>
    </g>
    <defs>
        <filter id="filter0_d_7647_5804" x="7.4355" y="5.30469" width="38.1668" height="46.4258" filterUnits="userSpaceOnUse" color-interpolation-filters="sRGB">
            <feFlood flood-opacity="0" result="BackgroundImageFix"/>
            <feColorMatrix in="SourceAlpha" type="matrix" values="0 0 0 0 0 0 0 0 0 0 0 0 0 0 0 0 0 0 127 0" result="hardAlpha"/>
            <feOffset dy="2"/>
            <feGaussianBlur stdDeviation="1"/>
            <feComposite in2="hardAlpha" operator="out"/>
            <feColorMatrix type="matrix" values="0 0 0 0 1 0 0 0 0 1 0 0 0 0 1 0 0 0 0.2 0"/>
            <feBlend mode="normal" in2="BackgroundImageFix" result="effect1_dropShadow_7647_5804"/>
            <feBlend mode="normal" in="SourceGraphic" in2="effect1_dropShadow_7647_5804" result="shape"/>
        </filter>
    </defs>
</svg>
