<svg width="16" height="16" viewBox="0 0 16 16" fill="none" xmlns="http://www.w3.org/2000/svg">
<path d="M8.0001 14.4001C4.46676 14.4001 1.6001 11.5334 1.6001 8.0001C1.6001 4.46676 4.46676 1.6001 8.0001 1.6001C11.5334 1.6001 14.4001 4.46676 14.4001 8.0001C14.4001 11.5334 11.5334 14.4001 8.0001 14.4001ZM8.0001 3.0001C5.26676 3.0001 3.0001 5.26676 3.0001 8.0001C3.0001 10.7334 5.26676 13.0001 8.0001 13.0001C10.7334 13.0001 13.0001 10.7334 13.0001 8.0001C13.0001 5.26676 10.7334 3.0001 8.0001 3.0001ZM8.66676 8.0001V5.46676C8.66676 5.06676 8.4001 4.8001 8.0001 4.8001C7.6001 4.8001 7.33343 5.06676 7.33343 5.46676V8.0001C7.33343 8.4001 7.6001 8.66676 8.0001 8.66676C8.4001 8.66676 8.66676 8.4001 8.66676 8.0001ZM8.66676 10.5334C8.66676 10.1334 8.4001 9.86676 8.0001 9.86676C7.6001 9.86676 7.33343 10.1334 7.33343 10.5334C7.33343 10.9334 7.66676 11.2001 8.0001 11.2001C8.33343 11.2001 8.66676 10.9334 8.66676 10.5334Z" fill="#86888B"/>
</svg>
