<svg width="24" height="25" viewBox="0 0 24 25" fill="none" xmlns="http://www.w3.org/2000/svg">
    <g clip-path="url(#clip0_1114_56949)">
        <path d="M21.6 1.72656C21.8098 1.73401 22.009 1.82069 22.1574 1.96913C22.3059 2.11758 22.3925 2.31676 22.4 2.52656V21.7266C22.3925 21.9364 22.3059 22.1355 22.1574 22.284C22.009 22.4324 21.8098 22.5191 21.6 22.5266H19.4C19.1902 22.5191 18.991 22.4324 18.8426 22.284C18.6941 22.1355 18.6075 21.9364 18.6 21.7266V2.52656C18.6075 2.31676 18.6941 2.11758 18.8426 1.96913C18.991 1.82069 19.1902 1.73401 19.4 1.72656H21.6ZM21.6 0.126556H19.4C18.7659 0.134338 18.16 0.389692 17.7115 0.838104C17.2631 1.28652 17.0078 1.89245 17 2.52656V21.7266C17.0078 22.3607 17.2631 22.9666 17.7115 23.415C18.16 23.8634 18.7659 24.1188 19.4 24.1266H21.6C22.2341 24.1188 22.84 23.8634 23.2885 23.415C23.7369 22.9666 23.9922 22.3607 24 21.7266V2.52656C23.9922 1.89245 23.7369 1.28652 23.2885 0.838104C22.84 0.389692 22.2341 0.134338 21.6 0.126556ZM13.1 9.02656C13.3098 9.03401 13.509 9.12069 13.6574 9.26913C13.8059 9.41758 13.8925 9.61676 13.9 9.82656V21.7266C13.8925 21.9364 13.8059 22.1355 13.6574 22.284C13.509 22.4324 13.3098 22.5191 13.1 22.5266H10.9C10.6902 22.5191 10.491 22.4324 10.3426 22.284C10.1941 22.1355 10.1075 21.9364 10.1 21.7266V9.82656C10.1075 9.61676 10.1941 9.41758 10.3426 9.26913C10.491 9.12069 10.6902 9.03401 10.9 9.02656H13.1ZM13.1 7.42656H10.9C10.2659 7.43434 9.65996 7.68969 9.21155 8.1381C8.76314 8.58652 8.50778 9.19245 8.5 9.82656V21.7266C8.50778 22.3607 8.76314 22.9666 9.21155 23.415C9.65996 23.8634 10.2659 24.1188 10.9 24.1266H13.1C13.7341 24.1188 14.34 23.8634 14.7885 23.415C15.2369 22.9666 15.4922 22.3607 15.5 21.7266V9.82656C15.4922 9.19245 15.2369 8.58652 14.7885 8.1381C14.34 7.68969 13.7341 7.43434 13.1 7.42656ZM4.6 18.2266C4.70619 18.2223 4.8121 18.2401 4.91107 18.2788C5.01005 18.3176 5.09993 18.3763 5.17508 18.4515C5.25023 18.5266 5.309 18.6165 5.34771 18.7155C5.38642 18.8145 5.40422 18.9204 5.4 19.0266V21.7266C5.38456 21.9512 5.28165 22.1608 5.11338 22.3104C4.9451 22.4599 4.72488 22.5376 4.5 22.5266H2.4C2.1902 22.5191 1.99102 22.4324 1.84258 22.284C1.69413 22.1355 1.60746 21.9364 1.6 21.7266V19.0266C1.60746 18.8168 1.69413 18.6176 1.84258 18.4691C1.99102 18.3207 2.1902 18.234 2.4 18.2266H4.6ZM4.6 16.6266H2.4C1.7659 16.6343 1.15996 16.8897 0.711548 17.3381C0.263136 17.7865 0.00778127 18.3925 0 19.0266V21.7266C0.00778127 22.3607 0.263136 22.9666 0.711548 23.415C1.15996 23.8634 1.7659 24.1188 2.4 24.1266H4.5C5.14906 24.1373 5.77606 23.8911 6.24435 23.4415C6.71264 22.9919 6.98426 22.3755 7 21.7266V19.0266C7.00403 18.7103 6.9447 18.3964 6.82552 18.1034C6.70634 17.8104 6.5297 17.5442 6.30604 17.3205C6.08237 17.0969 5.81619 16.9202 5.52319 16.801C5.23018 16.6819 4.91629 16.6225 4.6 16.6266Z" fill="black"/>
    </g>
    <defs>
        <clipPath id="clip0_1114_56949">
            <rect width="24" height="24" fill="white" transform="translate(0 0.126526)"/>
        </clipPath>
    </defs>
</svg>