<svg width="25" height="25" viewBox="0 0 25 25" fill="none" xmlns="http://www.w3.org/2000/svg">
<path d="M19.9112 4.66207V19.6621H18.5112V4.66207H19.9112ZM20.1112 2.56207H18.3112C17.3112 2.56207 16.4112 3.46207 16.4112 4.46207V19.8621C16.4112 20.8621 17.3112 21.7621 18.3112 21.7621H20.1112C21.1112 21.7621 22.0112 20.8621 22.0112 19.8621V4.46207C22.0112 3.46207 21.1112 2.56207 20.1112 2.56207ZM13.1112 10.4621V19.6621H11.7112V10.4621H13.1112ZM13.3112 8.36207H11.5112C10.5112 8.36207 9.61122 9.26207 9.61122 10.2621V19.7621C9.61122 20.7621 10.5112 21.6621 11.5112 21.6621H13.3112C14.3112 21.6621 15.2112 20.7621 15.2112 19.7621V10.2621C15.2112 9.26207 14.3112 8.36207 13.3112 8.36207ZM6.31122 17.8621V19.6621H4.91122V17.8621H6.31122ZM6.51122 15.7621H4.71122C3.71122 15.7621 2.81122 16.6621 2.81122 17.6621V19.8621C2.81122 20.8621 3.71122 21.7621 4.71122 21.7621H6.41122C7.51122 21.7621 8.41122 20.8621 8.41122 19.8621V17.6621C8.41122 16.5621 7.51122 15.7621 6.51122 15.7621Z" fill="black"/>
</svg>
