<svg width="24" height="25" viewBox="0 0 24 25" fill="none" xmlns="http://www.w3.org/2000/svg">
<g clip-path="url(#clip0_1114_56949)">
<path d="M21.6 1.72646C21.8098 1.73392 22.009 1.8206 22.1574 1.96904C22.3059 2.11749 22.3925 2.31667 22.4 2.52646V21.7265C22.3925 21.9363 22.3059 22.1354 22.1574 22.2839C22.009 22.4323 21.8098 22.519 21.6 22.5265H19.4C19.1902 22.519 18.991 22.4323 18.8426 22.2839C18.6941 22.1354 18.6075 21.9363 18.6 21.7265V2.52646C18.6075 2.31667 18.6941 2.11749 18.8426 1.96904C18.991 1.8206 19.1902 1.73392 19.4 1.72646H21.6ZM21.6 0.126465H19.4C18.7659 0.134246 18.16 0.389601 17.7115 0.838012C17.2631 1.28642 17.0078 1.89236 17 2.52646V21.7265C17.0078 22.3606 17.2631 22.9665 17.7115 23.4149C18.16 23.8633 18.7659 24.1187 19.4 24.1265H21.6C22.2341 24.1187 22.84 23.8633 23.2885 23.4149C23.7369 22.9665 23.9922 22.3606 24 21.7265V2.52646C23.9922 1.89236 23.7369 1.28642 23.2885 0.838012C22.84 0.389601 22.2341 0.134246 21.6 0.126465ZM13.1 9.02646C13.3098 9.03392 13.509 9.1206 13.6574 9.26904C13.8059 9.41749 13.8925 9.61667 13.9 9.82646V21.7265C13.8925 21.9363 13.8059 22.1354 13.6574 22.2839C13.509 22.4323 13.3098 22.519 13.1 22.5265H10.9C10.6902 22.519 10.491 22.4323 10.3426 22.2839C10.1941 22.1354 10.1075 21.9363 10.1 21.7265V9.82646C10.1075 9.61667 10.1941 9.41749 10.3426 9.26904C10.491 9.1206 10.6902 9.03392 10.9 9.02646H13.1ZM13.1 7.42647H10.9C10.2659 7.43425 9.65996 7.6896 9.21155 8.13801C8.76314 8.58642 8.50778 9.19236 8.5 9.82646V21.7265C8.50778 22.3606 8.76314 22.9665 9.21155 23.4149C9.65996 23.8633 10.2659 24.1187 10.9 24.1265H13.1C13.7341 24.1187 14.34 23.8633 14.7885 23.4149C15.2369 22.9665 15.4922 22.3606 15.5 21.7265V9.82646C15.4922 9.19236 15.2369 8.58642 14.7885 8.13801C14.34 7.6896 13.7341 7.43425 13.1 7.42647ZM4.6 18.2265C4.70619 18.2222 4.8121 18.24 4.91107 18.2788C5.01005 18.3175 5.09993 18.3762 5.17508 18.4514C5.25023 18.5265 5.309 18.6164 5.34771 18.7154C5.38642 18.8144 5.40422 18.9203 5.4 19.0265V21.7265C5.38456 21.9511 5.28165 22.1607 5.11338 22.3103C4.9451 22.4598 4.72488 22.5375 4.5 22.5265H2.4C2.1902 22.519 1.99102 22.4323 1.84258 22.2839C1.69413 22.1354 1.60746 21.9363 1.6 21.7265V19.0265C1.60746 18.8167 1.69413 18.6175 1.84258 18.469C1.99102 18.3206 2.1902 18.2339 2.4 18.2265H4.6ZM4.6 16.6265H2.4C1.7659 16.6342 1.15996 16.8896 0.711548 17.338C0.263136 17.7864 0.00778127 18.3924 0 19.0265V21.7265C0.00778127 22.3606 0.263136 22.9665 0.711548 23.4149C1.15996 23.8633 1.7659 24.1187 2.4 24.1265H4.5C5.14906 24.1372 5.77606 23.891 6.24435 23.4414C6.71264 22.9919 6.98426 22.3754 7 21.7265V19.0265C7.00403 18.7102 6.9447 18.3963 6.82552 18.1033C6.70634 17.8103 6.5297 17.5441 6.30604 17.3204C6.08237 17.0968 5.81619 16.9201 5.52319 16.8009C5.23018 16.6818 4.91629 16.6224 4.6 16.6265Z" fill="black"/>
</g>
<defs>
<clipPath id="clip0_1114_56949">
<rect width="24" height="24" fill="white" transform="translate(0 0.126465)"/>
</clipPath>
</defs>
</svg>
