<svg width="20" height="21" viewBox="0 0 20 21" fill="none" xmlns="http://www.w3.org/2000/svg">
<rect y="0.908997" width="20" height="20" rx="10" fill="#F90707"/>
<g clip-path="url(#clip0_512_14265)">
<path d="M14.85 7.70834C14.6713 7.7084 14.4951 7.75012 14.3353 7.83018C14.1756 7.91025 14.0367 8.02645 13.9297 8.16957C13.8227 8.3127 13.7505 8.47879 13.7189 8.65468C13.6873 8.83056 13.6972 9.01139 13.7477 9.1828L11.9641 10.9662C11.7288 10.8878 11.4746 10.8878 11.2393 10.9662L9.91707 9.64389C9.96058 9.4741 9.96469 9.29662 9.92909 9.125C9.89349 8.95338 9.81912 8.79218 9.71166 8.65371C9.6042 8.51524 9.46651 8.40318 9.3091 8.32609C9.15169 8.249 8.97874 8.20892 8.80347 8.20892C8.6282 8.20892 8.45525 8.249 8.29784 8.32609C8.14044 8.40318 8.00274 8.51524 7.89529 8.65371C7.78783 8.79218 7.71346 8.95338 7.67786 9.125C7.64226 9.29662 7.64637 9.4741 7.68988 9.64389L5.47844 11.8538C5.23292 11.7812 4.97018 11.7924 4.73176 11.8857C4.49333 11.9791 4.29281 12.1492 4.1619 12.3693C4.03099 12.5893 3.97714 12.8467 4.00888 13.1008C4.04062 13.3549 4.15614 13.5911 4.33716 13.7722C4.51819 13.9533 4.7544 14.0689 5.00846 14.1007C5.26253 14.1325 5.51995 14.0788 5.74004 13.9479C5.96014 13.8171 6.13035 13.6166 6.22377 13.3782C6.31719 13.1398 6.3285 12.8771 6.2559 12.6315L8.43936 10.4483C8.67457 10.5268 8.92887 10.5268 9.16409 10.4483L10.4866 11.7709C10.4431 11.9406 10.439 12.1181 10.4746 12.2897C10.5102 12.4614 10.5846 12.6226 10.692 12.761C10.7995 12.8995 10.9372 13.0116 11.0946 13.0887C11.252 13.1657 11.4249 13.2058 11.6002 13.2058C11.7755 13.2058 11.9484 13.1657 12.1058 13.0887C12.2632 13.0116 12.4009 12.8995 12.5084 12.761C12.6158 12.6226 12.6902 12.4614 12.7258 12.2897C12.7614 12.1181 12.7573 11.9406 12.7138 11.7709L14.5251 9.96052C14.6833 10.0072 14.8496 10.0193 15.0128 9.99598C15.176 9.97269 15.3323 9.91457 15.4711 9.82555C15.6099 9.73654 15.7279 9.61872 15.8171 9.48008C15.9063 9.34144 15.9647 9.18523 15.9882 9.02205C16.0118 8.85887 15.9999 8.69254 15.9535 8.53434C15.9071 8.37613 15.8272 8.22976 15.7193 8.10516C15.6113 7.98055 15.4778 7.88062 15.3278 7.81216C15.1778 7.74369 15.0149 7.70828 14.85 7.70834Z" fill="white"/>
</g>
<defs>
<clipPath id="clip0_512_14265">
<rect width="12" height="12" fill="white" transform="translate(4 4.909)"/>
</clipPath>
</defs>
</svg>
