<svg width="24" height="25" viewBox="0 0 24 25" fill="none" xmlns="http://www.w3.org/2000/svg">
<g clip-path="url(#clip0_1114_56954)">
<path d="M24 2.52646V21.7265C24 23.0265 22.9 24.1265 21.6 24.1265H19.4C18.1 24.1265 17 23.0265 17 21.7265V2.52646C17 1.22646 18.1 0.126465 19.4 0.126465H21.6C22.9 0.126465 24 1.22646 24 2.52646ZM13.1 7.42647H10.9C9.6 7.42647 8.5 8.52646 8.5 9.82646V21.7265C8.5 23.0265 9.6 24.1265 10.9 24.1265H13.1C14.4 24.1265 15.5 23.0265 15.5 21.7265V9.82646C15.5 8.52646 14.4 7.42647 13.1 7.42647ZM4.6 16.6265H2.4C1.1 16.6265 0 17.7265 0 19.0265V21.7265C0 23.0265 1.1 24.1265 2.4 24.1265H4.5C5.9 24.1265 7 23.0265 7 21.7265V19.0265C7 17.6265 5.9 16.6265 4.6 16.6265Z" fill="black"/>
</g>
<defs>
<clipPath id="clip0_1114_56954">
<rect width="24" height="24" fill="white" transform="translate(0 0.126465)"/>
</clipPath>
</defs>
</svg>
