<svg width="24" height="25" viewBox="0 0 24 25" fill="none" xmlns="http://www.w3.org/2000/svg">
    <g clip-path="url(#clip0_1114_56954)">
        <path d="M24 2.52656V21.7266C24 23.0266 22.9 24.1266 21.6 24.1266H19.4C18.1 24.1266 17 23.0266 17 21.7266V2.52656C17 1.22656 18.1 0.126556 19.4 0.126556H21.6C22.9 0.126556 24 1.22656 24 2.52656ZM13.1 7.42656H10.9C9.6 7.42656 8.5 8.52656 8.5 9.82656V21.7266C8.5 23.0266 9.6 24.1266 10.9 24.1266H13.1C14.4 24.1266 15.5 23.0266 15.5 21.7266V9.82656C15.5 8.52656 14.4 7.42656 13.1 7.42656ZM4.6 16.6266H2.4C1.1 16.6266 0 17.7266 0 19.0266V21.7266C0 23.0266 1.1 24.1266 2.4 24.1266H4.5C5.9 24.1266 7 23.0266 7 21.7266V19.0266C7 17.6266 5.9 16.6266 4.6 16.6266Z" fill="black"/>
    </g>
    <defs>
        <clipPath id="clip0_1114_56954">
            <rect width="24" height="24" fill="white" transform="translate(0 0.126556)"/>
        </clipPath>
    </defs>
</svg>
