<svg width="20" height="20" viewBox="0 0 20 20" fill="none" xmlns="http://www.w3.org/2000/svg">
    <g id="apple-logo">
        <path id="Vector" d="M17.6203 6.818C17.5043 6.908 15.4563 8.062 15.4563 10.628C15.4563 13.596 18.0623 14.646 18.1403 14.672C18.1283 14.736 17.7263 16.11 16.7663 17.51C15.9103 18.742 15.0163 19.972 13.6563 19.972C12.2963 19.972 11.9463 19.182 10.3763 19.182C8.84628 19.182 8.30228 19.998 7.05828 19.998C5.81428 19.998 4.94628 18.858 3.94828 17.458C2.79228 15.814 1.85828 13.26 1.85828 10.836C1.85828 6.948 4.38628 4.886 6.87428 4.886C8.19628 4.886 9.29828 5.754 10.1283 5.754C10.9183 5.754 12.1503 4.834 13.6543 4.834C14.2243 4.834 16.2723 4.886 17.6203 6.818ZM12.9403 3.188C13.5623 2.45 14.0023 1.426 14.0023 0.402C14.0023 0.26 13.9903 0.116 13.9643 0C12.9523 0.038 11.7483 0.674 11.0223 1.516C10.4523 2.164 9.92028 3.188 9.92028 4.226C9.92028 4.382 9.94628 4.538 9.95828 4.588C10.0223 4.6 10.1263 4.614 10.2303 4.614C11.1383 4.614 12.2803 4.006 12.9403 3.188Z" fill="white"/>
    </g>
</svg>
