<svg width="20" height="21" viewBox="0 0 20 21" fill="none" xmlns="http://www.w3.org/2000/svg">
<rect y="0.454498" width="20" height="20" rx="10" fill="#F90707"/>
<path d="M12.0571 14.9722C11.1369 14.9722 10.216 14.6021 9.51521 13.8629C8.64713 12.9469 7.23667 12.9476 6.37064 13.8629C6.10254 14.146 5.66918 14.146 5.40108 13.8629C5.13297 13.5797 5.13297 13.1221 5.40108 12.839C6.80194 11.3597 9.08254 11.3597 10.4848 12.839C11.3522 13.7542 12.7626 13.7535 13.6294 12.839C13.8975 12.5559 14.3308 12.5559 14.5989 12.839C14.867 13.1221 14.867 13.5797 14.5989 13.8629C13.8988 14.6021 12.9779 14.9722 12.0571 14.9722ZM12.0571 12.0758C11.1369 12.0758 10.216 11.7058 9.51521 10.9665C8.64713 10.0506 7.23667 10.0513 6.37064 10.9665C6.10254 11.2496 5.66918 11.2496 5.40108 10.9665C5.13297 10.6834 5.13297 10.2258 5.40108 9.94267C6.80194 8.46337 9.08254 8.46337 10.4848 9.94267C11.3522 10.8579 12.7626 10.8572 13.6294 9.94267C13.8975 9.65955 14.3308 9.65955 14.5989 9.94267C14.867 10.2258 14.867 10.6834 14.5989 10.9665C13.8988 11.7058 12.9779 12.0758 12.0571 12.0758ZM12.0571 9.17949C11.1369 9.17949 10.216 8.80948 9.51521 8.07019C8.64713 7.15422 7.23667 7.15495 6.37064 8.07019C6.10254 8.35331 5.66918 8.35331 5.40108 8.07019C5.13297 7.78707 5.13297 7.32945 5.40108 7.04634C6.80194 5.56776 9.08254 5.56631 10.4848 7.04634C11.3522 7.96158 12.7626 7.96085 13.6294 7.04634C13.8975 6.76322 14.3308 6.76322 14.5989 7.04634C14.867 7.32945 14.867 7.78707 14.5989 8.07019C13.8988 8.80948 12.9779 9.17949 12.0571 9.17949Z" fill="white"/>
</svg>
