<svg width="25" height="25" viewBox="0 0 25 25" fill="none" xmlns="http://www.w3.org/2000/svg">
<path d="M19.2606 12.09V15.7308C19.2606 16.0902 18.9689 16.382 18.6094 16.382H18.4531C18.2091 16.8939 17.6907 17.2503 17.0864 17.2503H13.0626V18.1455H16.8914C17.2509 18.1455 17.5427 18.4373 17.5427 18.7968V20.0541C17.7432 20.2338 17.8722 20.4917 17.8722 20.7817C17.8722 21.3235 17.4324 21.762 16.8914 21.762C16.3509 21.762 15.9111 21.3235 15.9111 20.7817C15.9111 20.4917 16.0401 20.2329 16.2402 20.0541V19.448H13.0626V20.0541C13.2628 20.2329 13.3917 20.4917 13.3917 20.7817C13.3917 21.3235 12.9524 21.762 12.4114 21.762C11.87 21.762 11.4311 21.3235 11.4311 20.7817C11.4311 20.4917 11.5596 20.2329 11.7602 20.0541V19.448H8.58217V20.0541C8.78232 20.2329 8.91126 20.4917 8.91126 20.7817C8.91126 21.3235 8.4719 21.762 7.93094 21.762C7.38999 21.762 6.95062 21.3235 6.95062 20.7817C6.95062 20.4917 7.07913 20.2338 7.27971 20.0541V18.7968C7.27971 18.4373 7.57146 18.1455 7.93094 18.1455H11.7602V17.2503H7.73644C7.13123 17.2503 6.61372 16.8939 6.36929 16.382H6.213C5.85352 16.382 5.56177 16.0902 5.56177 15.7308V12.09C5.56177 11.7305 5.85352 11.4387 6.213 11.4387C6.57248 11.4387 6.86423 11.7305 6.86423 12.09V14.4895C7.11126 14.3159 7.41213 14.2104 7.73774 14.2104H9.77349C8.56003 13.0581 7.76423 11.1335 7.76423 8.9532C7.76379 5.4231 9.84339 2.56203 12.411 2.56203C14.979 2.56203 17.0582 5.4231 17.0582 8.9532C17.0582 11.1335 16.2628 13.0581 15.0493 14.2104H17.0846C17.4102 14.2104 17.7098 14.3146 17.9581 14.4895V12.09C17.9581 11.7305 18.2503 11.4387 18.6094 11.4387C18.9689 11.4387 19.2606 11.7305 19.2606 12.09Z" fill="black"/>
</svg>
