<svg width="24" height="24" viewBox="0 0 24 24" fill="none" xmlns="http://www.w3.org/2000/svg">
<path d="M6.35147 14.7514C6.8201 14.2827 7.5799 14.2827 8.04853 14.7514L10.8 17.5028V3.5999C10.8 2.93716 11.3373 2.3999 12 2.3999C12.6627 2.3999 13.2 2.93716 13.2 3.5999V17.5028L15.9515 14.7514C16.4201 14.2827 17.1799 14.2827 17.6485 14.7514C18.1172 15.22 18.1172 15.9798 17.6485 16.4484L12.8485 21.2484C12.6142 21.4827 12.3071 21.5999 12 21.5999C11.8373 21.5999 11.6821 21.5675 11.5407 21.5088C11.3991 21.4503 11.2665 21.3635 11.1515 21.2484L6.35147 16.4484C5.88284 15.9798 5.88284 15.22 6.35147 14.7514Z" fill="black"/>
</svg>
