<svg width="24" height="24" viewBox="0 0 24 24" fill="none" xmlns="http://www.w3.org/2000/svg">
<path fill-rule="evenodd" clip-rule="evenodd" d="M2.40002 11.9999C2.40002 11.42 2.87013 10.9499 3.45002 10.9499H14.85C15.4299 10.9499 15.9 11.42 15.9 11.9999C15.9 12.5798 15.4299 13.0499 14.85 13.0499H3.45002C2.87013 13.0499 2.40002 12.5798 2.40002 11.9999Z" fill="black"/>
<path fill-rule="evenodd" clip-rule="evenodd" d="M14.1268 5.2387C14.5473 4.8393 15.2119 4.85634 15.6113 5.27677L15.6418 5.30886L15.6664 5.33483M15.6701 5.33869C15.6725 5.34121 15.6762 5.34515 15.6817 5.35093L21.3113 11.2768C21.6963 11.682 21.6963 12.3179 21.3113 12.7231L15.6113 18.7231C15.2119 19.1436 14.5473 19.1606 14.1268 18.7612C13.7064 18.3618 13.6894 17.6972 14.0888 17.2768L19.1017 12L14.123 6.75921C14.0862 6.72039 14.1534 6.79118 14.1166 6.75246L14.0888 6.72314C13.6894 6.30271 13.7064 5.63811 14.1268 5.2387M15.6737 5.34243L15.6701 5.33869L15.6737 5.34243Z" fill="black"/>
</svg>
