<svg width="24" height="24" viewBox="0 0 24 24" fill="none" xmlns="http://www.w3.org/2000/svg">
<path d="M8.69999 7.1V19.4C8.69999 20 8.19999 20.4 7.59999 20.4C6.99999 20.4 6.59999 19.9 6.59999 19.4V7.1L4.19999 9.6C3.79999 10 3.09999 10 2.69999 9.6C2.29999 9.2 2.29999 8.5 2.69999 8.1L6.89999 3.9C6.99999 3.8 7.09999 3.7 7.29999 3.6C7.39999 3.5 7.59999 3.5 7.69999 3.5C7.79999 3.5 7.99999 3.5 8.09999 3.6C8.19999 3.7 8.29999 3.7 8.39999 3.8L12.6 8C13 8.4 13 9.1 12.6 9.5C12.2 9.9 11.5 9.9 11.1 9.5L8.69999 7.1ZM21.3 14.4C20.9 14 20.2 14 19.8 14.4L17.4 16.8V4.6C17.4 4 16.9 3.6 16.4 3.6C15.9 3.6 15.4 4.1 15.4 4.6V16.9L13 14.5C12.6 14.1 11.9 14.1 11.5 14.5C11.1 14.9 11.1 15.6 11.5 16L15.7 20.2C15.8 20.3 15.9 20.4 16 20.4C16.3 20.5 16.5 20.5 16.8 20.4C16.9 20.3 17 20.3 17.1 20.2L21.3 16C21.7 15.5 21.7 14.8 21.3 14.4Z" fill="black"/>
</svg>
