<svg width="24" height="24" viewBox="0 0 24 24" fill="none" xmlns="http://www.w3.org/2000/svg">
<path d="M14.3515 6.35147C13.8829 6.8201 13.8829 7.5799 14.3515 8.04853L17.103 10.8H3.20006C2.53732 10.8 2.00006 11.3373 2.00006 12C2.00006 12.6627 2.53732 13.2 3.20006 13.2H17.103L14.3515 15.9515C13.8829 16.4201 13.8829 17.1799 14.3515 17.6485C14.8202 18.1172 15.58 18.1172 16.0486 17.6485L20.8486 12.8485C21.0829 12.6142 21.2001 12.3071 21.2001 12C21.2001 11.8373 21.1677 11.6821 21.109 11.5407C21.0504 11.3991 20.9636 11.2665 20.8486 11.1515L16.0486 6.35147C15.58 5.88284 14.8202 5.88284 14.3515 6.35147Z" fill="black"/>
</svg>
