<svg width="24" height="24" viewBox="0 0 24 24" fill="none" xmlns="http://www.w3.org/2000/svg">
<path d="M6.35147 9.24843C6.8201 9.71706 7.5799 9.71706 8.04853 9.24843L10.8 6.49696V20.3999C10.8 21.0626 11.3373 21.5999 12 21.5999C12.6627 21.5999 13.2 21.0626 13.2 20.3999V6.49696L15.9515 9.24843C16.4201 9.71706 17.1799 9.71706 17.6485 9.24843C18.1172 8.7798 18.1172 8.02 17.6485 7.55137L12.8485 2.75138C12.6142 2.51706 12.3071 2.3999 12 2.3999C11.8373 2.3999 11.6821 2.43229 11.5407 2.49096C11.3991 2.54952 11.2665 2.63632 11.1515 2.75138L6.35147 7.55137C5.88284 8.02 5.88284 8.7798 6.35147 9.24843Z" fill="black"/>
</svg>
