<svg width="54" height="54" viewBox="0 0 54 54" fill="none" xmlns="http://www.w3.org/2000/svg">
<g id="baby">
<g id="Vector" filter="url(#filter0_d_7647_5798)">
<path d="M20.7713 32.9259C21.4342 31.821 22.76 31.6 23.8649 32.2629C25.1907 33.1468 27.8423 33.1468 29.1682 32.2629C30.273 31.6 31.5988 32.042 32.2617 32.9259C32.9247 34.0307 32.4827 35.3565 31.5988 36.0194C30.273 36.9033 28.5052 37.3453 26.7375 37.3453C24.9697 37.3453 23.2019 36.9033 21.8761 36.0194C20.5503 35.3565 20.1083 34.0307 20.7713 32.9259ZM22.981 26.5177C22.981 25.1919 22.0971 24.308 20.7713 24.308C19.4454 24.308 18.5616 25.1919 18.5616 26.5177C18.5616 27.8435 19.6664 28.7274 20.7713 28.7274C21.8761 28.7274 22.981 27.6226 22.981 26.5177ZM34.4715 26.5177C34.4715 25.1919 33.5876 24.308 32.2617 24.308C30.9359 24.308 30.052 25.1919 30.052 26.5177C30.052 27.8435 31.1569 28.7274 32.2617 28.7274C33.3666 28.7274 34.4715 27.6226 34.4715 26.5177ZM46.8458 23.2031C46.4039 22.5402 45.9619 22.0983 45.299 21.6563C44.6361 19.0047 43.3103 16.353 41.5425 14.1433C40.6586 13.0385 39.3328 13.0385 38.228 13.7014C37.1231 14.5853 37.1231 15.9111 37.786 17.016C39.3328 18.7837 40.2167 20.9934 40.6586 23.4241C40.8796 24.087 41.3216 24.7499 41.9845 24.9709C42.2054 25.1919 42.4264 25.1919 42.6474 25.4128C42.8683 25.6338 42.8683 25.8548 42.8683 26.2967C42.8683 26.7387 42.8683 26.9596 42.6474 27.1806C42.4264 27.4016 42.2054 27.6226 41.9845 27.6226C41.3216 27.8435 40.8796 28.5064 40.6586 29.1694C39.9957 32.4839 38.007 35.3565 35.5763 37.5662C32.9247 39.776 29.6101 40.8808 26.2955 40.8808C22.981 40.8808 19.6664 39.776 17.0148 37.5662C14.3631 35.3565 12.5953 32.4839 11.9324 29.1694C11.7115 28.5064 11.2695 27.8435 10.6066 27.6226C10.3856 27.4016 10.1647 27.4016 9.94369 27.1806C9.72272 26.9596 9.72272 26.7387 9.72272 26.2967C9.72272 25.8548 9.72272 25.6338 9.94369 25.4128C10.1647 25.1919 10.3856 24.9709 10.6066 24.9709C11.2695 24.7499 11.7115 24.087 11.9324 23.4241C12.5953 20.1095 14.3631 17.016 17.0148 15.0272C19.6664 12.8175 22.981 11.7127 26.2955 11.7127C28.9472 11.7127 30.7149 13.0385 30.7149 14.1433C30.7149 15.4692 29.8311 16.574 29.1682 16.574C28.9472 16.574 28.7262 16.574 28.5052 16.574C28.2843 15.4692 27.4004 14.8062 26.2955 14.8062C24.9697 14.8062 24.0858 15.9111 24.0858 17.016C24.0858 19.4466 26.2955 21.2144 29.1682 21.2144C32.7037 21.2144 35.3553 18.1208 35.3553 14.1433C35.3553 10.1659 31.5988 7.07227 26.2955 7.07227C21.8761 7.07227 17.4567 8.61906 13.9212 11.4917C11.0485 14.1433 8.83883 17.6789 7.73398 21.6563C7.07107 22.0983 6.62912 22.5402 6.18718 23.2031C5.52427 24.087 5.3033 25.4128 5.3033 26.5177C5.3033 27.6226 5.52427 28.7274 6.18718 29.8323C6.62912 30.4952 7.07107 30.9371 7.73398 31.3791C8.83883 35.3565 11.0485 38.8921 14.3631 41.5437C17.8986 44.4163 22.0971 45.9631 26.5165 45.9631C30.9359 45.9631 35.3553 44.4163 38.6699 41.5437C41.7635 38.8921 44.1942 35.3565 45.299 31.3791C45.9619 30.9371 46.4039 30.2742 46.8458 29.8323C47.5087 28.9484 47.7297 27.6226 47.7297 26.5177C47.7297 25.4128 47.5087 24.308 46.8458 23.2031Z" fill="black"/>
</g>
</g>
<defs>
<filter id="filter0_d_7647_5798" x="3.3033" y="7.07227" width="46.4264" height="42.8906" filterUnits="userSpaceOnUse" color-interpolation-filters="sRGB">
<feFlood flood-opacity="0" result="BackgroundImageFix"/>
<feColorMatrix in="SourceAlpha" type="matrix" values="0 0 0 0 0 0 0 0 0 0 0 0 0 0 0 0 0 0 127 0" result="hardAlpha"/>
<feOffset dy="2"/>
<feGaussianBlur stdDeviation="1"/>
<feComposite in2="hardAlpha" operator="out"/>
<feColorMatrix type="matrix" values="0 0 0 0 1 0 0 0 0 1 0 0 0 0 1 0 0 0 0.2 0"/>
<feBlend mode="normal" in2="BackgroundImageFix" result="effect1_dropShadow_7647_5798"/>
<feBlend mode="normal" in="SourceGraphic" in2="effect1_dropShadow_7647_5798" result="shape"/>
</filter>
</defs>
</svg>
