<svg width="25" height="24" viewBox="0 0 25 24" fill="none" xmlns="http://www.w3.org/2000/svg">
<path d="M10.2999 14.9C10.5999 14.4 11.1999 14.3 11.6999 14.6C12.2999 15 13.4999 15 14.0999 14.6C14.5999 14.3 15.1999 14.5 15.4999 14.9C15.7999 15.4 15.5999 16 15.1999 16.3C14.5999 16.7 13.7999 16.9 12.9999 16.9C12.1999 16.9 11.3999 16.7 10.7999 16.3C10.1999 16 9.99993 15.4 10.2999 14.9ZM11.2999 12C11.2999 11.4 10.8999 11 10.2999 11C9.69993 11 9.29993 11.4 9.29993 12C9.29993 12.6 9.79993 13 10.2999 13C10.7999 13 11.2999 12.5 11.2999 12ZM16.4999 12C16.4999 11.4 16.0999 11 15.4999 11C14.8999 11 14.4999 11.4 14.4999 12C14.4999 12.6 14.9999 13 15.4999 13C15.9999 13 16.4999 12.5 16.4999 12ZM22.0999 10.5C21.8999 10.2 21.6999 9.99995 21.3999 9.79995C21.0999 8.59995 20.4999 7.39995 19.6999 6.39995C19.2999 5.89995 18.6999 5.89995 18.1999 6.19995C17.6999 6.59995 17.6999 7.19995 17.9999 7.69995C18.6999 8.49995 19.0999 9.49995 19.2999 10.6C19.3999 10.9 19.5999 11.2 19.8999 11.3C19.9999 11.4 20.0999 11.4 20.1999 11.5C20.2999 11.6 20.2999 11.7 20.2999 11.9C20.2999 12.1 20.2999 12.2 20.1999 12.3C20.0999 12.4 19.9999 12.5 19.8999 12.5C19.5999 12.6 19.3999 12.9 19.2999 13.2C18.9999 14.7 18.0999 16 16.9999 17C15.7999 18 14.2999 18.5 12.7999 18.5C11.2999 18.5 9.79993 18 8.59993 17C7.39993 16 6.59993 14.7 6.29993 13.2C6.19993 12.9 5.99993 12.6 5.69993 12.5C5.59993 12.4 5.49993 12.4 5.39993 12.3C5.29993 12.2 5.29993 12.1 5.29993 11.9C5.29993 11.7 5.29993 11.6 5.39993 11.5C5.49993 11.4 5.59993 11.3 5.69993 11.3C5.99993 11.2 6.19993 10.9 6.29993 10.6C6.59993 9.09995 7.39993 7.69995 8.59993 6.79995C9.79993 5.79995 11.2999 5.29995 12.7999 5.29995C13.9999 5.29995 14.7999 5.89995 14.7999 6.39995C14.7999 6.99995 14.3999 7.49995 14.0999 7.49995C13.9999 7.49995 13.8999 7.49995 13.7999 7.49995C13.6999 6.99995 13.2999 6.69995 12.7999 6.69995C12.1999 6.69995 11.7999 7.19995 11.7999 7.69995C11.7999 8.79995 12.7999 9.59995 14.0999 9.59995C15.6999 9.59995 16.8999 8.19995 16.8999 6.39995C16.8999 4.59995 15.1999 3.19995 12.7999 3.19995C10.7999 3.19995 8.79993 3.89995 7.19993 5.19995C5.89993 6.39995 4.89993 7.99995 4.39993 9.79995C4.09993 9.99995 3.89993 10.2 3.69993 10.5C3.39993 10.9 3.29993 11.5 3.29993 12C3.29993 12.5 3.39993 13 3.69993 13.5C3.89993 13.8 4.09993 14 4.39993 14.2C4.89993 16 5.89993 17.6 7.39993 18.8C8.99993 20.1 10.8999 20.7999 12.8999 20.7999C14.8999 20.7999 16.8999 20.1 18.3999 18.8C19.7999 17.6 20.8999 16 21.3999 14.2C21.6999 14 21.8999 13.7 22.0999 13.5C22.3999 13.1 22.4999 12.5 22.4999 12C22.4999 11.5 22.3999 11 22.0999 10.5Z" fill="black"/>
</svg>
