<svg width="25" height="25" viewBox="0 0 25 25" fill="none" xmlns="http://www.w3.org/2000/svg">
<path d="M6.01122 4.64042C5.41122 4.64042 4.91122 5.13527 4.91122 5.72908V6.81774C4.91122 7.41156 4.41122 7.9064 3.81122 7.9064C3.21122 7.9064 2.81122 7.31259 2.81122 6.81774V5.72908C2.81122 3.94764 4.21122 2.56207 6.01122 2.56207H8.11122C8.71122 2.56207 9.21122 3.05692 9.21122 3.65073C9.21122 4.24455 8.71122 4.64042 8.11122 4.64042H6.01122ZM3.91122 16.3188C4.51122 16.3188 5.01122 16.8136 5.01122 17.4074V18.4961C5.01122 19.0899 5.51122 19.5848 6.11122 19.5848H8.21122C8.81122 19.5848 9.31122 20.0796 9.31122 20.6734C9.31122 21.2672 8.81122 21.7621 8.21122 21.7621H6.01122C4.21122 21.7621 2.81122 20.3765 2.81122 18.5951V17.5064C2.81122 16.8136 3.31122 16.3188 3.91122 16.3188ZM15.6112 3.65073C15.6112 3.05692 16.1112 2.56207 16.7112 2.56207H18.8112C20.6112 2.56207 22.0112 3.94764 22.0112 5.72908V6.81774C22.0112 7.41156 21.5112 7.9064 20.9112 7.9064C20.3112 7.9064 19.8112 7.41156 19.8112 6.81774V5.72908C19.8112 5.13527 19.3112 4.64042 18.7112 4.64042H16.6112C16.1112 4.64042 15.6112 4.14558 15.6112 3.65073ZM20.9112 16.3188C21.5112 16.3188 22.0112 16.8136 22.0112 17.4074V18.4961C22.0112 20.2775 20.6112 21.6631 18.8112 21.6631H16.7112C16.1112 21.6631 15.6112 21.1683 15.6112 20.5744C15.6112 19.9806 16.1112 19.4858 16.7112 19.4858H18.8112C19.4112 19.4858 19.9112 18.9909 19.9112 18.3971V17.3085C19.9112 16.8136 20.4112 16.3188 20.9112 16.3188ZM3.91122 10.9744C3.91122 10.3806 4.41122 9.88578 5.01122 9.88578H6.11122C6.71122 9.88578 7.21122 10.3806 7.21122 10.9744V13.0528C7.21122 13.6466 6.71122 14.1415 6.11122 14.1415H4.91122C4.31122 14.1415 3.81122 13.6466 3.81122 13.0528V10.9744H3.91122ZM10.3112 9.98475C10.9112 9.98475 11.4112 10.4796 11.4112 11.0734V13.1518C11.4112 13.7456 10.9112 14.2404 10.3112 14.2404C9.71122 14.2404 9.21122 13.7456 9.21122 13.1518V11.0734C9.21122 10.3806 9.71122 9.98475 10.3112 9.98475ZM13.5112 10.9744C13.5112 10.3806 14.0112 9.88578 14.6112 9.88578H15.7112C16.3112 9.88578 16.8112 10.3806 16.8112 10.9744V13.0528C16.8112 13.6466 16.3112 14.1415 15.7112 14.1415H14.6112C14.0112 14.1415 13.5112 13.6466 13.5112 13.0528V10.9744ZM19.9112 9.98475C20.5112 9.98475 21.0112 10.4796 21.0112 11.0734V13.1518C21.0112 13.7456 20.5112 14.2404 19.9112 14.2404C19.3112 14.2404 18.8112 13.7456 18.8112 13.1518V11.0734C18.8112 10.3806 19.3112 9.98475 19.9112 9.98475Z" fill="black"/>
</svg>
