<svg width="414" height="498" viewBox="0 0 414 498" fill="none" xmlns="http://www.w3.org/2000/svg">
<path d="M414 -198.428C414 -312.783 321.038 -406 207.064 -406C92.8358 -406 0.00126342 -312.783 0.00126342 -198.428L0 286.138C0 287.284 0 288.303 0 289.449C0 404.442 92.3251 497.021 206.936 497.021C321.546 497.021 413.871 403.805 413.871 289.449L413.873 -195.117C414 -196.263 414 -197.281 414 -198.428ZM361.787 233.29C359.622 235.455 356.948 237.62 353.637 239.784C352.491 240.294 351.982 240.931 350.963 241.44C349.307 242.586 347.652 243.605 346.124 244.114C341.794 246.279 336.828 248.444 331.989 250.609C324.985 252.774 316.834 254.429 308.048 254.429C298.751 254.429 291.238 253.283 285.762 252.264C279.777 250.609 275.447 247.425 272.773 242.968C270.099 238.511 268.953 232.653 268.953 224.503V179.296C268.953 120.972 253.799 77.9289 170.133 77.9289V51.9506C164.02 72.5805 114.611 104.799 114.611 104.799C114.611 104.799 164.53 136.89 170.006 157.647V131.541C199.295 131.541 216.741 137.017 216.741 180.569V230.106C216.741 241.567 218.397 251.373 222.217 259.014C226.037 266.654 230.877 272.64 238.008 276.969C244.503 281.299 252.143 284.61 260.803 286.775C269.462 288.94 278.249 290.086 287.927 290.086C297.605 290.086 306.392 288.94 314.033 286.775C315.179 286.265 316.198 286.265 317.344 285.629C323.838 283.464 329.824 280.662 334.79 277.988C340.775 274.168 346.251 270.347 349.944 266.018C353.255 262.707 355.42 259.523 357.585 256.721C358.094 255.575 359.24 254.557 359.75 253.41C360.259 252.264 360.896 251.246 361.405 250.099V290.468C361.405 376.044 291.875 445.701 206.554 445.701C121.105 445.829 51.5747 376.044 51.5747 290.595C51.5747 289.449 51.5747 288.43 51.5747 287.284V286.775V227.941C53.7396 226.795 55.9045 225.777 59.2155 224.63C60.3616 224.121 60.8709 224.121 61.8897 223.484C63.5452 222.975 65.71 222.338 67.8749 221.829C71.6953 220.683 75.5156 220.173 79.336 219.155C85.8306 218.009 92.3252 216.99 99.4565 216.99C111.427 216.99 120.596 218.136 127.218 220.301C133.712 222.466 138.679 225.777 141.353 230.106C144.027 234.436 145.173 239.912 145.173 246.406V286.138C145.173 344.462 160.327 387.505 243.993 387.505V413.61C249.978 392.853 299.388 360.762 299.388 360.762C299.388 360.762 249.469 329.181 243.993 309.06V335.803C214.704 335.803 197.257 330.327 197.257 286.775V224.63C197.257 215.334 195.093 207.694 191.782 201.199C187.961 194.704 183.122 190.247 176.628 186.427C170.642 182.607 163.002 179.932 155.488 178.277C147.338 176.621 139.188 176.112 130.529 176.112C117.539 176.112 106.078 177.767 96.2729 181.078C95.7635 181.206 95.3814 181.333 95.1267 181.46C85.3212 184.771 77.1711 189.229 70.6765 194.195C64.1819 199.161 59.2154 203.491 55.5224 208.33C54.3763 209.986 53.3576 211.641 52.2115 212.66L52.2127 -197.791C52.2127 -207.087 53.3588 -216.256 54.887 -225.043C67.8762 -297.629 130.912 -353.152 207.446 -353.152C283.471 -353.152 345.998 -297.629 358.987 -225.17C360.642 -216.511 361.661 -207.214 361.661 -197.918L361.787 233.29Z" fill="url(#paint0_diamond_6482_39374)"/>
<defs>
<radialGradient id="paint0_diamond_6482_39374" cx="0" cy="0" r="1" gradientUnits="userSpaceOnUse" gradientTransform="translate(40.314 204.457) rotate(38.0579) scale(474.589 602.458)">
<stop stop-color="#E32900"/>
<stop offset="0.601687" stop-color="#C6E216"/>
<stop offset="1" stop-color="#D808FA"/>
</radialGradient>
</defs>
</svg>
