<svg width="320" height="1049" viewBox="0 0 320 1049" fill="none" xmlns="http://www.w3.org/2000/svg">
<path d="M320 168.955C320 80.3506 248.189 0 160 0C71.811 0 0 80.3506 0 168.955L0 885.716C0 886.559 0 887.403 0 888.247C0 977.273 71.3911 1049 160 1049C248.609 1049 320 976.851 320 888.247L320 171.486C320 170.642 320 169.798 320 168.955ZM279.685 844.789C278.005 846.477 275.905 848.164 273.386 849.852C272.546 850.274 272.126 850.696 271.286 851.118C270.026 851.962 268.766 852.806 267.507 853.227C264.147 854.915 260.367 856.603 256.588 858.291C251.129 859.978 244.829 861.244 238.11 861.244C230.971 861.244 225.092 860.4 220.892 859.556C216.273 858.291 212.913 855.759 210.814 852.384C208.714 849.008 207.874 844.367 207.874 838.038V803.019C207.874 757.873 196.115 724.541 131.444 724.541V704.288C126.824 720.322 88.6089 745.215 88.6089 745.215C88.6089 745.215 127.244 770.109 131.444 786.142V765.889C154.121 765.889 167.559 770.109 167.559 803.862V842.258C167.559 851.118 168.819 858.712 171.759 864.619C174.698 870.526 178.478 875.167 183.937 878.543C188.976 881.918 194.856 884.45 201.575 886.138C208.294 887.825 215.013 888.669 222.572 888.669C230.131 888.669 236.85 887.825 242.73 886.138C243.57 885.716 244.409 885.716 245.249 885.294C250.289 883.606 254.908 881.496 258.688 879.387C263.307 876.433 267.507 873.48 270.446 870.104C272.966 867.573 274.646 865.041 276.325 862.932C276.745 862.088 277.585 861.244 278.005 860.4C278.425 859.556 278.845 858.713 279.265 857.869L279.265 889.091C279.265 955.333 225.512 1009.34 159.58 1009.34C93.6483 1009.34 39.895 955.333 39.895 889.091C39.895 888.247 39.895 887.403 39.895 886.56L39.895 840.57C41.5748 839.726 43.2546 838.882 45.7743 838.038C46.6142 837.616 47.0341 837.616 47.874 837.194C49.1339 836.772 50.8136 836.351 52.4934 835.929C55.4331 835.085 58.3727 834.663 61.3123 833.819C66.3517 832.975 71.3911 832.131 76.8504 832.131C86.0892 832.131 93.2283 832.975 98.2677 834.663C103.307 836.351 107.087 838.882 109.186 842.258C111.286 845.633 112.126 849.852 112.126 854.915V885.716C112.126 930.861 123.885 964.193 188.556 964.193L188.556 984.446C193.176 968.413 231.391 943.519 231.391 943.519C231.391 943.519 192.756 919.048 188.556 903.436V924.111C165.879 924.111 152.441 919.891 152.441 886.138V838.038C152.441 830.866 150.761 824.959 148.241 819.896C145.302 814.832 141.522 811.457 136.483 808.504C131.864 805.55 125.984 803.44 120.105 802.175C113.806 800.909 107.507 800.487 100.787 800.487C90.7087 800.487 81.8898 801.753 74.3307 804.284C73.9108 804.284 73.4908 804.284 73.4908 804.706C65.9317 807.238 59.6325 810.613 54.5932 814.411C49.5538 818.208 45.7743 821.583 42.8346 825.381C41.9948 826.646 41.1549 827.912 40.315 828.756L40.315 800.909C40.315 793.736 41.1549 146.829 42.4147 140.079C52.4934 83.9628 101.207 40.9266 160.42 40.9266C219.213 40.9266 268.346 83.9628 278.425 140.079C279.685 146.829 280.525 793.736 280.525 800.909V844.789H279.685Z" fill="url(#paint0_diamond_4203_38802)"/>
<defs>
<radialGradient id="paint0_diamond_4203_38802" cx="0" cy="0" r="1" gradientUnits="userSpaceOnUse" gradientTransform="translate(31.1606 709.141) rotate(49.6394) scale(446.018 575.598)">
<stop stop-color="#E32900"/>
<stop offset="0.601687" stop-color="#C6E216"/>
<stop offset="1" stop-color="#D808FA"/>
</radialGradient>
</defs>
</svg>
