<svg width="304" height="266" viewBox="0 0 304 266" fill="none" xmlns="http://www.w3.org/2000/svg">
<path d="M21.1073 50.3853C28.2345 38.8704 35.849 31.1329 39.3212 27.5383C44.0726 22.6643 49.7987 18.0949 56.6212 13.891C62.4691 10.4183 68.9871 7.49381 76.2361 5.11772C77.4544 4.69123 78.7337 4.26478 80.0129 3.89921C88.7847 1.27943 98.5313 1.25549e-05 109.252 1.34922e-05C119.974 1.44295e-05 130.147 1.15761 139.71 3.41185C149.335 5.54424 157.863 9.0779 165.295 14.1347C172.788 19.1915 178.635 25.8933 182.839 34.3619C187.103 42.9524 189.174 53.6752 189.174 66.5305L189.174 123.069C189.174 171.992 208.728 177.78 241.561 177.902L241.561 148.353C247.653 171.078 304 207.146 304 207.146C304 207.146 248.384 242.605 241.561 266L241.561 236.512C147.995 236.147 130.695 188.503 130.695 123.069L130.695 72.623C130.695 63.667 129.233 56.7824 126.309 51.9084C123.263 47.0344 118.451 43.6226 111.933 41.6729C105.476 39.9061 97.0693 38.9922 86.8354 38.9922C77.2717 38.9922 68.4389 40.3935 60.2762 43.1352C54.3674 45.2066 49.0067 47.5827 44.1944 50.3243C42.2451 51.2991 40.3567 52.4567 38.5902 53.6143C37.5546 54.2845 36.519 54.9547 35.6053 55.6248C31.9503 58.0619 28.0517 61.8392 24.5795 67.5053C15.564 82.0664 8.0714 93.0939 6.24391 141.347C3.31696 218.63 -138 189.27 -138 189.27C-138 189.27 -0.104396 214.436 -0.10439 145.229C-0.104387 105.871 3.5027 78.1063 21.1073 50.3853Z" fill="url(#paint0_diamond_489_11832)"/>
<defs>
<radialGradient id="paint0_diamond_489_11832" cx="0" cy="0" r="1" gradientUnits="userSpaceOnUse" gradientTransform="translate(271.491 222.603) rotate(-151.471) scale(466.085 1130.07)">
<stop stop-color="#E32900"/>
<stop offset="0.472959" stop-color="#C6E216"/>
<stop offset="1" stop-color="#D808FA"/>
</radialGradient>
</defs>
</svg>
