<svg width="320" height="698" viewBox="0 0 320 698" fill="none" xmlns="http://www.w3.org/2000/svg">
<path d="M320.001 160.443C320.001 72.0517 248.146 0 160.05 0C71.7574 0 0.000976562 72.0517 0.000976562 160.443L0 534.988C0 535.873 0 536.661 0 537.547C0 626.43 71.3627 697.99 159.951 697.99C248.539 697.99 319.902 625.938 319.902 537.547L319.903 163.002C320.001 162.116 320.001 161.329 320.001 160.443ZM279.643 494.139C277.97 495.812 275.903 497.485 273.344 499.159C272.458 499.552 272.064 500.045 271.277 500.438C269.997 501.324 268.717 502.112 267.536 502.505C264.189 504.179 260.351 505.852 256.61 507.525C251.197 509.199 244.897 510.478 238.105 510.478C230.92 510.478 225.112 509.592 220.88 508.805C216.253 507.525 212.907 505.064 210.84 501.619C208.773 498.174 207.887 493.646 207.887 487.347V452.404C207.887 407.322 196.173 374.052 131.504 374.052V353.973C126.779 369.918 88.5881 394.821 88.5881 394.821C88.5881 394.821 127.173 419.626 131.406 435.67V415.492C154.045 415.492 167.53 419.725 167.53 453.388V491.678C167.53 500.537 168.81 508.116 171.763 514.022C174.715 519.928 178.456 524.554 183.968 527.901C188.988 531.247 194.894 533.806 201.587 535.48C208.281 537.153 215.072 538.039 222.553 538.039C230.034 538.039 236.826 537.153 242.731 535.48C243.617 535.086 244.405 535.086 245.291 534.594C250.311 532.921 254.937 530.755 258.776 528.688C263.402 525.735 267.635 522.782 270.489 519.435C273.048 516.876 274.722 514.415 276.395 512.25C276.789 511.364 277.675 510.577 278.068 509.691C278.462 508.805 278.954 508.017 279.348 507.132V538.334C279.348 604.48 225.604 658.322 159.655 658.322C93.6081 658.42 39.8647 604.48 39.8647 538.433C39.8647 537.547 39.8647 536.759 39.8647 535.873V535.48V490.005C41.538 489.119 43.2113 488.331 45.7705 487.445C46.6564 487.052 47.0501 487.052 47.8376 486.559C49.1172 486.166 50.7905 485.674 52.4639 485.28C55.4168 484.394 58.3697 484 61.3227 483.213C66.3427 482.327 71.3627 481.539 76.8748 481.539C86.1273 481.539 93.2144 482.425 98.3328 484.099C103.353 485.772 107.192 488.331 109.259 491.678C111.326 495.025 112.212 499.257 112.212 504.277V534.988C112.212 580.069 123.925 613.339 188.594 613.339V633.517C193.221 617.473 231.412 592.668 231.412 592.668C231.412 592.668 192.827 568.257 188.594 552.705V573.376C165.955 573.376 152.47 569.143 152.47 535.48V487.445C152.47 480.26 150.797 474.354 148.237 469.334C145.285 464.314 141.544 460.869 136.524 457.916C131.898 454.963 125.992 452.896 120.185 451.616C113.885 450.337 107.585 449.943 100.892 449.943C90.852 449.943 81.9932 451.223 74.414 453.782C74.0203 453.88 73.725 453.979 73.5281 454.077C65.9489 456.636 59.6493 460.081 54.6293 463.92C49.6093 467.759 45.7705 471.106 42.916 474.846C42.0301 476.126 41.2427 477.405 40.3568 478.193L40.3578 160.935C40.3578 153.75 41.2437 146.663 42.4248 139.871C52.4648 83.765 101.188 40.849 160.345 40.849C219.109 40.849 267.439 83.765 277.479 139.772C278.758 146.466 279.546 153.651 279.546 160.837L279.643 494.139Z" fill="url(#paint0_radial_6904_39193)"/>
<defs>
<radialGradient id="paint0_radial_6904_39193" cx="0" cy="0" r="1" gradientUnits="userSpaceOnUse" gradientTransform="translate(-0.51709 369.733) rotate(45.6909) scale(458.744 739.22)">
<stop stop-color="#E32900"/>
<stop offset="0.6017" stop-color="#C6E216"/>
<stop offset="1" stop-color="#D808FA"/>
</radialGradient>
</defs>
</svg>
