<svg width="24" height="24" viewBox="0 0 24 24" fill="none" xmlns="http://www.w3.org/2000/svg">
<path d="M21.5929 6.70606C21.5434 5.73293 21.1264 4.81472 20.4259 4.13648C19.8826 3.57417 19.1771 3.19534 18.4079 3.05293C18.1449 3.00499 17.3129 3 11.9659 3C7.08185 3.00499 5.77985 3.01598 5.58485 3.05293C4.70176 3.22761 3.90483 3.69808 3.32586 4.38654C2.74688 5.07499 2.42056 5.94018 2.40085 6.83901C2.38114 7.73784 2.66923 8.61647 3.21748 9.32957C3.76572 10.0427 4.54127 10.5475 5.41585 10.7607C5.90745 10.8556 6.40926 10.8868 6.90885 10.8535L8.09985 10.8725V9.19174C8.09985 7.32523 8.11485 7.19441 8.33985 6.72603C8.49948 6.38514 8.73289 6.08388 9.02324 5.844C9.31359 5.60412 9.65364 5.4316 10.0189 5.33888C10.412 5.26797 10.8147 5.26797 11.2079 5.33888C11.5644 5.4322 11.8967 5.60097 12.1823 5.83376C12.4678 6.06654 12.6999 6.35789 12.8629 6.68808C13.1109 7.1974 13.1259 7.3472 13.1259 9.21671V10.8695L15.7069 10.8575C16.6741 10.9372 17.6474 10.9037 18.6069 10.7577C19.4976 10.5326 20.2825 10.0055 20.8271 9.26644C21.3718 8.5274 21.6425 7.62235 21.5929 6.70606ZM17.6879 7.44807C17.0269 8.11518 16.4379 8.68442 16.3819 8.71438C16.3011 8.748 16.2144 8.76531 16.1269 8.76531C16.0393 8.76531 15.9527 8.748 15.8719 8.71438C15.6111 8.49565 15.363 8.26225 15.1289 8.01531C14.4499 7.33322 14.4049 7.26232 14.4539 6.99268C14.472 6.91363 14.5068 6.83934 14.556 6.77477C14.6051 6.7102 14.6675 6.65682 14.7389 6.61818C14.8973 6.54891 15.0765 6.54354 15.2389 6.6032C15.4103 6.73896 15.5732 6.88503 15.7269 7.04061L16.1269 7.44008L17.0949 6.48036C17.6239 5.95206 18.0949 5.49867 18.1339 5.4767C18.2993 5.42189 18.4789 5.42719 18.6409 5.49168C18.7121 5.53047 18.7744 5.5839 18.8235 5.64845C18.8726 5.713 18.9075 5.7872 18.9259 5.86618C18.9779 6.1518 18.9669 6.16678 17.6879 7.44807ZM13.0169 18.2087H8.92685L7.43385 16.9614C5.97485 15.74 5.93385 15.7101 5.80985 15.4554C5.69737 15.2712 5.65083 15.0543 5.67785 14.8402C5.65181 14.646 5.68675 14.4485 5.77785 14.275C5.91529 14.008 6.13273 13.7905 6.39985 13.6528C6.5743 13.5583 6.77383 13.5203 6.97085 13.5439C7.46585 13.5439 7.57785 13.6039 8.45985 14.3429C8.85985 14.6724 9.19185 14.9421 9.20285 14.9421C9.21385 14.9421 9.22585 13.2523 9.22885 11.1841L9.24085 7.43009L9.34085 7.22037C9.42069 7.04505 9.5348 6.88743 9.67647 6.75675C9.81814 6.62607 9.98452 6.52497 10.1659 6.45939C10.3278 6.41099 10.4976 6.39437 10.6659 6.41045C10.8582 6.4012 11.0495 6.44253 11.2209 6.53029C11.5079 6.68262 11.7383 6.92317 11.8779 7.21638L11.9779 7.43009L11.9899 9.74201L11.9999 12.0639L12.0819 12.0789C12.1269 12.0909 12.9409 12.1788 13.8909 12.2706C14.8409 12.3625 15.6909 12.4614 15.7819 12.4804C16.0934 12.5587 16.3773 12.7213 16.6022 12.9504C16.8272 13.1794 16.9845 13.466 17.0569 13.7786C17.0829 13.9095 17.0979 14.6774 17.0979 16.0895V18.2067L13.0169 18.2087ZM13.1629 19.3332H17.1059L17.0949 19.9854C17.0839 20.7114 17.0649 20.7683 16.7949 20.9251C16.6709 21 16.5949 21 13.1589 21C9.72285 21 9.64685 21 9.52385 20.9251C9.25685 20.7683 9.23885 20.7114 9.22385 19.9854L9.21285 19.3332H13.1629Z" fill="black"/>
</svg>
