<svg width="25" height="25" viewBox="0 0 25 25" fill="none" xmlns="http://www.w3.org/2000/svg">
<path d="M8.5111 8.33202C8.5111 7.73513 9.0111 7.23772 9.6111 7.23772H10.5111C11.1111 7.23772 11.6111 7.73513 11.6111 8.33202C11.6111 8.92891 11.1111 9.42632 10.5111 9.42632H9.6111C9.0111 9.42632 8.5111 8.92891 8.5111 8.33202ZM8.5111 12.1123C8.5111 11.5154 9.0111 11.018 9.6111 11.018H10.5111C11.1111 11.018 11.6111 11.5154 11.6111 12.1123C11.6111 12.7092 11.1111 13.2066 10.5111 13.2066H9.6111C9.0111 13.2066 8.5111 12.7092 8.5111 12.1123ZM8.5111 15.8926C8.5111 15.2958 9.0111 14.7983 9.6111 14.7983H10.5111C11.1111 14.7983 11.6111 15.2958 11.6111 15.8926C11.6111 16.4895 11.1111 16.9869 10.5111 16.9869H9.6111C9.0111 16.9869 8.5111 16.4895 8.5111 15.8926ZM13.2111 8.33202C13.2111 7.73513 13.7111 7.23772 14.3111 7.23772H15.2111C15.8111 7.23772 16.3111 7.73513 16.3111 8.33202C16.3111 8.92891 15.8111 9.42632 15.2111 9.42632H14.3111C13.7111 9.42632 13.2111 8.92891 13.2111 8.33202ZM13.2111 12.1123C13.2111 11.5154 13.7111 11.018 14.3111 11.018H15.2111C15.8111 11.018 16.3111 11.5154 16.3111 12.1123C16.3111 12.7092 15.8111 13.2066 15.2111 13.2066H14.3111C13.7111 13.2066 13.2111 12.7092 13.2111 12.1123ZM13.2111 15.8926C13.2111 15.2958 13.7111 14.7983 14.3111 14.7983H15.2111C15.8111 14.7983 16.3111 15.2958 16.3111 15.8926C16.3111 16.4895 15.8111 16.9869 15.2111 16.9869H14.3111C13.7111 16.9869 13.2111 16.4895 13.2111 15.8926ZM20.9111 19.474H20.1111V5.54653C20.1111 3.95482 18.8111 2.56207 17.1111 2.56207H7.7111C6.1111 2.56207 4.7111 3.85534 4.7111 5.54653V19.5735H3.9111C3.3111 19.5735 2.8111 20.0709 2.8111 20.6678C2.8111 21.2647 3.3111 21.7621 3.9111 21.7621H5.8111H19.0111H20.9111C21.5111 21.7621 22.0111 21.2647 22.0111 20.6678C22.0111 20.0709 21.5111 19.474 20.9111 19.474ZM6.9111 5.54653C6.9111 5.1486 7.3111 4.75067 7.7111 4.75067H17.2111C17.6111 4.75067 18.0111 5.1486 18.0111 5.54653V19.5735H6.9111V5.54653Z" fill="black"/>
</svg>
