<svg width="20" height="21" viewBox="0 0 20 21" fill="none" xmlns="http://www.w3.org/2000/svg">
<rect y="0.908997" width="20" height="20" rx="10" fill="#F94C07"/>
<g clip-path="url(#clip0_512_14262)">
<path fill-rule="evenodd" clip-rule="evenodd" d="M10 5.99991C9.09628 5.99991 8.36365 6.73253 8.36365 7.63627C8.36365 8.54001 9.09628 9.27263 10 9.27263C10.9038 9.27263 11.6364 8.54001 11.6364 7.63627C11.6364 6.73253 10.9038 5.99991 10 5.99991ZM7.27274 7.63627C7.27274 6.13004 8.49379 4.909 10 4.909C11.5062 4.909 12.7273 6.13004 12.7273 7.63627C12.7273 9.1425 11.5062 10.3635 10 10.3635C8.49379 10.3635 7.27274 9.1425 7.27274 7.63627ZM4.54547 16.3635C4.54547 13.3511 6.98759 10.909 10 10.909C13.0124 10.909 15.4546 13.3511 15.4546 16.3635C15.4546 16.6648 15.2104 16.909 14.9091 16.909C14.6079 16.909 14.3637 16.6648 14.3637 16.3635C14.3637 14.2124 12.807 12.4248 10.7588 12.0656L11.6123 14.8395C11.6654 15.012 11.6296 15.1997 11.5169 15.3406L10.4259 16.7043C10.3224 16.8337 10.1657 16.909 10 16.909C9.83432 16.909 9.6776 16.8337 9.57409 16.7043L8.48318 15.3406C8.3704 15.1997 8.33468 15.012 8.38777 14.8395L9.24127 12.0656C7.19301 12.4248 5.63638 14.2124 5.63638 16.3635C5.63638 16.6648 5.39217 16.909 5.09093 16.909C4.78968 16.909 4.54547 16.6648 4.54547 16.3635ZM10 13.3092L9.51531 14.8845L10 15.4904L10.4847 14.8845L10 13.3092Z" fill="white"/>
</g>
<defs>
<clipPath id="clip0_512_14262">
<rect width="12" height="12" fill="white" transform="translate(4 4.909)"/>
</clipPath>
</defs>
</svg>
