<svg width="25" height="25" viewBox="0 0 25 25" fill="none" xmlns="http://www.w3.org/2000/svg">
<path d="M18.4112 4.46204H17.3112V3.66204C17.3112 3.06204 16.8112 2.56204 16.2112 2.56204C15.6112 2.56204 15.1112 3.06204 15.1112 3.66204V4.46204H9.71118V3.66204C9.71118 3.06204 9.21118 2.56204 8.61118 2.56204C8.01118 2.56204 7.51118 3.06204 7.51118 3.66204V4.46204H6.41118C5.01118 4.46204 3.71118 5.66204 3.71118 7.16204V19.062C3.71118 20.562 4.91118 21.762 6.41118 21.762H18.4112C19.9112 21.762 21.1112 20.562 21.1112 19.062V7.16204C21.1112 5.66204 19.8112 4.46204 18.4112 4.46204ZM6.41118 6.56204H7.51118V7.36204C7.51118 7.96204 8.01118 8.46204 8.61118 8.46204C9.21118 8.46204 9.71118 7.96204 9.71118 7.36204V6.56204H15.2112V7.36204C15.2112 7.96204 15.7112 8.46204 16.3112 8.46204C16.9112 8.46204 17.4112 7.96204 17.4112 7.36204V6.56204H18.4112C18.7112 6.56204 19.0112 6.86204 19.0112 7.16204V10.162H5.91118V7.16204C5.91118 6.86204 6.11118 6.56204 6.41118 6.56204ZM18.4112 19.662H6.41118C6.11118 19.662 5.81118 19.362 5.81118 19.062V12.262H18.9112V19.062C18.9112 19.362 18.7112 19.662 18.4112 19.662ZM7.51118 14.962C7.51118 14.362 8.01118 13.862 8.61118 13.862H10.5112C11.1112 13.862 11.6112 14.362 11.6112 14.962V16.862C11.6112 17.462 11.1112 17.962 10.5112 17.962H8.61118C8.01118 17.962 7.51118 17.462 7.51118 16.862V14.962Z" fill="black"/>
</svg>
