<svg width="24" height="24" viewBox="0 0 24 24" fill="none" xmlns="http://www.w3.org/2000/svg">
<path d="M20.8 8.60002C19.6 8.60002 18.5 8.90002 17.6 9.50002C17.4 8.20002 16.7 6.90002 15.8 6.00002L15.7 5.90002L15.6 5.80002C15.5 5.80002 15.5 5.80002 15.4 5.80002C15.3 5.80002 15.3 5.80002 15.2 5.80002C15.1 5.80002 15.1 5.80002 15 5.80002C14.9 5.80002 14.9 5.80002 14.8 5.80002L14.7 5.90002C14.7 5.90002 14.6 5.90002 14.6 6.00002C13.6 7.00002 13 8.20002 12.8 9.50002C11.8 8.90002 10.7 8.60002 9.60002 8.60002C9.00002 8.60002 8.60002 9.00002 8.60002 9.50002C8.60002 13.2 11.5 16.2 15.1 16.2C18.7 16.2 21.6 13.2 21.6 9.50002C21.6 9.00002 21.3 8.60002 20.8 8.60002ZM15.1 7.90002C15.7 8.70002 16 9.80002 15.9 10.8C15.6 11.2 15.3 11.6 15.1 12C14.9 11.6 14.6 11.2 14.3 10.8C14.2 9.70002 14.5 8.70002 15.1 7.90002ZM10.4 10.4C11.3 10.6 12.2 11.1 12.9 11.8C13.6 12.5 14 13.4 14.2 14.3C12.3 13.9 10.8 12.4 10.4 10.4ZM16.1 14.3C16.5 12.3 18 10.8 19.9 10.4C19.5 12.4 18 13.9 16.1 14.3ZM17.2 19.2C17.1 19 17 18.7 16.9 18.5C16.9 18.4 16.8 18.2 16.8 18.1C16.6 18.1 16.3 18.2 16.1 18.2C15.9 18.2 15.7 18.2 15.4 18.2C15.2 18.2 14.9 18.2 14.7 18.2C14.8 18.5 14.8 18.8 14.9 19.1C14.9 19.2 15 19.3 15 19.3H11.1C11.1 19.3 11.1 19.2 11 19.2C10.7 18.4 10.3 17.9 9.80002 17.5C9.60002 17.3 9.20002 17.3 8.70002 17.3C7.90002 17.3 6.90002 17.5 6.40002 17.6C6.40002 17.4 6.40002 17.2 6.40002 17V16.8C6.30002 16.6 6.20002 16.4 6.10002 16.2L6.40002 15.7L5.70002 15.2C5.80002 14.9 5.80002 14.6 5.70002 14.3C5.60002 13.9 5.40002 13.5 5.00002 13.3C5.50002 12.7 5.90002 12 6.20002 11.3C6.30002 11.1 6.40002 10.8 6.40002 10.6V10.5V10.4C6.40002 9.80002 6.10002 9.40002 5.80002 9.20002C5.90002 8.90002 6.10002 8.60002 6.20002 8.30002V8.20002C6.30002 7.90002 6.30002 7.60002 6.40002 7.30002C6.60002 6.80002 6.90002 6.30002 7.30002 5.80002C7.70002 5.30002 8.50002 5.00002 9.50002 4.80002C10.3 4.60002 11.2 4.50002 12 4.40002C12.1 4.40002 12.2 4.40002 12.2 4.40002C12.5 4.40002 12.7 4.50002 13 4.60002C13.2 4.40002 13.5 4.10002 13.8 4.00002C14.3 3.70002 14.8 3.60002 15.3 3.60002C15.5 3.60002 15.7 3.60002 15.9 3.70002C14.9 3.00002 13.7 2.60002 12.5 2.40002C12.4 2.40002 12.2 2.40002 12 2.40002H11.9H11.8C11 2.40002 10.1 2.50002 9.10002 2.70002C7.60002 3.00002 6.50002 3.60002 5.80002 4.40002C5.20002 5.00002 4.80002 5.80002 4.50002 6.60002C4.30002 6.90002 4.20002 7.30002 4.10002 7.70002C4.00002 8.00002 3.90002 8.40002 3.70002 8.70002C3.60002 8.90002 3.60002 9.20002 3.60002 9.40002V9.50002C3.60002 9.80002 3.80002 10 3.90002 10.2C4.00002 10.3 4.00002 10.4 4.10002 10.5C3.80002 11.1 3.40002 11.7 3.00002 12.3C2.90002 12.4 2.80002 12.5 2.70002 12.7C2.60002 12.8 2.60002 12.9 2.50002 13.1C2.40002 13.3 2.40002 13.5 2.40002 13.7V13.8C2.50002 14 2.60002 14.3 2.80002 14.5C2.90002 14.6 3.00002 14.7 3.10002 14.7C3.20002 14.8 3.30002 14.8 3.40002 14.9C3.20002 15.2 3.20002 15.3 3.20002 15.6V16.2L3.50002 16.4L3.40002 17.2L4.00002 17.5C4.00002 17.5 4.00002 17.5 4.10002 17.5V17.6C4.10002 18.1 4.00002 19.1 4.90002 19.8L5.30002 20.1L5.90002 19.9C6.10002 19.9 6.30002 19.8 6.50002 19.7C6.80002 19.6 8.10002 19.5 8.70002 19.4C8.80002 19.5 8.90002 19.8 9.10002 20.1C9.20002 20.4 9.30002 20.6 9.30002 20.8L9.50002 21.6H18.4L17.6 20.1C17.5 19.7 17.4 19.5 17.2 19.2Z" fill="black"/>
</svg>
