<svg width="24" height="24" viewBox="0 0 24 24" fill="none" xmlns="http://www.w3.org/2000/svg">
<path d="M10.0601 7.77936H3.39484C2.89743 7.77936 2.40002 8.1766 2.40002 8.77246C2.40002 9.26901 2.79795 9.76557 3.39484 9.76557H10.0601C10.5575 9.76557 11.0549 9.36832 11.0549 8.77246C10.9555 8.1766 10.5575 7.77936 10.0601 7.77936ZM10.0601 15.4263H3.39484C2.89743 15.4263 2.40002 15.8235 2.40002 16.4194C2.40002 16.9159 2.79795 17.4125 3.39484 17.4125H10.0601C10.5575 17.4125 11.0549 17.0152 11.0549 16.4194C10.9555 15.8235 10.5575 15.4263 10.0601 15.4263ZM16.1285 11.6525L12.7461 8.27591L14.1389 6.88557L16.1285 8.87177L20.2073 4.80005L21.6 6.19039L16.1285 11.6525ZM16.1285 19.2L12.7461 15.8235L14.1389 14.4332L16.1285 16.4194L20.2073 12.3476L21.6 13.738L16.1285 19.2Z" fill="black"/>
</svg>
