<svg width="61" height="60" viewBox="0 0 61 60" fill="none" xmlns="http://www.w3.org/2000/svg">
<path fill-rule="evenodd" clip-rule="evenodd" d="M30.5 10.8C25.4078 10.8 20.5242 12.8229 16.9235 16.4236C13.3229 20.0242 11.3 24.9078 11.3 30C11.3 32.5214 11.7966 35.0181 12.7615 37.3475C13.7264 39.677 15.1407 41.7936 16.9236 43.5765C18.7064 45.3593 20.823 46.7736 23.1525 47.7385C25.4819 48.7034 27.9786 49.2 30.5 49.2C33.0214 49.2 35.5181 48.7034 37.8475 47.7385C40.177 46.7736 42.2936 45.3593 44.0765 43.5765C45.8593 41.7936 47.2736 39.677 48.2385 37.3475C49.2034 35.0181 49.7 32.5214 49.7 30C49.7 24.9078 47.6771 20.0242 44.0765 16.4236C40.4758 12.8229 35.5922 10.8 30.5 10.8ZM13.5294 13.0294C18.0303 8.52856 24.1348 6 30.5 6C36.8652 6 42.9697 8.52856 47.4706 13.0294C51.9714 17.5303 54.5 23.6348 54.5 30C54.5 33.1517 53.8792 36.2726 52.6731 39.1844C51.467 42.0962 49.6992 44.742 47.4706 46.9706C45.242 49.1992 42.5962 50.967 39.6844 52.1731C36.7726 53.3792 33.6517 54 30.5 54C27.3483 54 24.2274 53.3792 21.3156 52.1731C18.4038 50.967 15.758 49.1992 13.5294 46.9706C11.3008 44.742 9.533 42.0962 8.32689 39.1844C7.12078 36.2726 6.5 33.1517 6.5 30C6.5 23.6348 9.02856 17.5303 13.5294 13.0294ZM39.3971 23.5029C40.3343 24.4402 40.3343 25.9598 39.3971 26.8971L29.7971 36.4971C28.8598 37.4343 27.3402 37.4343 26.4029 36.4971L21.6029 31.6971C20.6657 30.7598 20.6657 29.2402 21.6029 28.3029C22.5402 27.3657 24.0598 27.3657 24.9971 28.3029L28.1 31.4059L36.0029 23.5029C36.9402 22.5657 38.4598 22.5657 39.3971 23.5029Z" fill="url(#paint0_diamond_3065_28542)"/>
<defs>
<radialGradient id="paint0_diamond_3065_28542" cx="0" cy="0" r="1" gradientUnits="userSpaceOnUse" gradientTransform="translate(10.0304 13.831) rotate(42.0912) scale(59.9257 172.24)">
<stop stop-color="#E32900"/>
<stop offset="0.472959" stop-color="#C6E216"/>
<stop offset="1" stop-color="#D808FA"/>
</radialGradient>
</defs>
</svg>
