<svg width="20" height="20" viewBox="0 0 20 20" fill="none" xmlns="http://www.w3.org/2000/svg">
<path d="M10 2C10.1326 2 10.2598 2.05268 10.3536 2.14645C10.4473 2.24021 10.5 2.36739 10.5 2.5V4L11.5 4.001C11.8978 4.001 12.2794 4.15904 12.5607 4.44034C12.842 4.72164 13 5.10318 13 5.501V8.054C12.4353 8.16927 11.9278 8.47609 11.5633 8.92255C11.1989 9.36901 10.9999 9.92767 11 10.504V18H9V8.004C9 7.47357 8.78929 6.96486 8.41421 6.58979C8.03914 6.21471 7.53043 6.004 7 6.004V5.501C7 5.10318 7.15804 4.72164 7.43934 4.44034C7.72064 4.15904 8.10218 4.001 8.5 4.001H9.5V2.5C9.5 2.36739 9.55268 2.24021 9.64645 2.14645C9.74021 2.05268 9.86739 2 10 2ZM7.644 7.239C7.364 7.042 7.164 7.035 6.996 7.086C6.94903 7.10291 6.90382 7.12434 6.861 7.15L3.728 9.03C3.50597 9.16328 3.32222 9.35177 3.19465 9.57713C3.06707 9.80249 3.00001 10.057 3 10.316V16.5C3 16.8978 3.15804 17.2794 3.43934 17.5607C3.72064 17.842 4.10218 18 4.5 18H8V8.004C8.00013 7.85823 7.96833 7.71419 7.90682 7.58203C7.84532 7.44986 7.75561 7.33278 7.644 7.239ZM14.5 9V9.004H13.5C13.1022 9.004 12.7206 9.16204 12.4393 9.44334C12.158 9.72465 12 10.1062 12 10.504V18H15.5C15.8978 18 16.2794 17.842 16.5607 17.5607C16.842 17.2794 17 16.8978 17 16.5V10.5C17 10.1022 16.842 9.72064 16.5607 9.43934C16.2794 9.15804 15.8978 9 15.5 9H14.5Z" fill="#CBCCCE"/>
</svg>
