<svg width="24" height="24" viewBox="0 0 24 24" fill="none" xmlns="http://www.w3.org/2000/svg">
<path d="M20.8962 16.5222C20.8962 16.3211 20.7957 16.2206 20.5947 16.1201C20.3936 16.0195 20.1926 16.0195 19.891 16.0195H17.78V3.35357C17.78 3.15252 17.6795 2.95147 17.579 2.85095C17.4784 2.6499 17.2774 2.6499 17.0763 2.6499C16.8753 2.6499 16.6742 2.75043 16.5737 2.85095C16.3727 2.95147 16.3727 3.15252 16.3727 3.35357V15.919H13.8596C13.6585 15.919 13.4575 15.919 13.4575 16.0195C13.357 16.1201 13.357 16.2206 13.357 16.4216V17.4269H21.0973V16.5222H20.8962ZM5.51613 8.68132C6.01875 8.1787 6.72242 7.87713 7.42608 7.87713C8.12975 7.87713 8.83341 8.07818 9.33603 8.58079C9.83865 9.08341 10.2407 9.68655 10.3413 10.3902H11.5475C11.447 9.68655 11.246 9.08341 10.8439 8.58079C10.4418 7.97765 10.0397 7.57556 9.43655 7.27399C8.73289 6.87189 8.12975 6.77137 7.42608 6.77137C6.92346 6.77137 6.42085 6.87189 5.91823 7.07294C5.51613 7.27399 5.01351 7.47503 4.71194 7.7766C4.41037 8.07817 4.1088 8.58079 3.80723 8.98289C3.60618 9.4855 3.40514 9.8876 3.40514 10.3902H4.61142C4.71194 9.68655 5.01351 9.08341 5.51613 8.68132ZM12.4523 11.7975C12.4523 11.697 12.4523 11.5965 12.3517 11.496C12.2512 11.3955 12.1507 11.3955 12.0502 11.3955H2.802C2.70147 11.3955 2.60095 11.3955 2.50043 11.496C2.3999 11.5965 2.3999 11.697 2.3999 11.7975V12.4007C2.3999 12.5012 2.3999 12.6017 2.50043 12.7023C2.60095 12.8028 2.70147 12.8028 2.802 12.8028H3.20409L4.30985 20.141C4.30985 20.4426 4.5109 20.7441 4.71194 20.9452C4.91299 21.1462 5.21456 21.2468 5.51613 21.2468H9.2355C9.53708 21.2468 9.83865 21.1462 10.0397 20.9452C10.2407 20.7441 10.4418 20.4426 10.4418 20.141L11.5475 12.8028H12.0502C12.1507 12.8028 12.2512 12.8028 12.3517 12.7023C12.4523 12.6017 12.4523 12.5012 12.4523 12.4007V11.7975ZM20.8962 18.2311H13.1559L12.3517 21.3473H21.5999L20.8962 18.2311Z" fill="black"/>
</svg>
