<svg width="25" height="25" viewBox="0 0 25 25" fill="none" xmlns="http://www.w3.org/2000/svg">
<path d="M12.4112 4.66204C8.31116 4.66204 4.91116 8.06204 4.91116 12.162C4.91116 16.262 8.31116 19.662 12.4112 19.662C16.5112 19.662 19.9112 16.262 19.9112 12.162C19.9112 8.06204 16.5112 4.66204 12.4112 4.66204ZM2.81116 12.162C2.81116 6.86204 7.11116 2.56204 12.4112 2.56204C17.7112 2.56204 22.0112 6.86204 22.0112 12.162C22.0112 17.462 17.7112 21.762 12.4112 21.762C7.11116 21.762 2.81116 17.462 2.81116 12.162ZM12.4112 6.36204C13.0112 6.36204 13.5112 6.86204 13.5112 7.46204V11.762L16.0112 14.262C16.4112 14.662 16.4112 15.362 16.0112 15.762C15.6112 16.162 14.9112 16.162 14.5112 15.762L11.7112 12.962C11.5112 12.762 11.4112 12.462 11.4112 12.262V7.46204C11.3112 6.86204 11.8112 6.36204 12.4112 6.36204Z" fill="black"/>
</svg>
