<svg width="24" height="24" viewBox="0 0 24 24" fill="none" xmlns="http://www.w3.org/2000/svg">
<path d="M11.9999 4.4999C7.8999 4.4999 4.4999 7.8999 4.4999 11.9999C4.4999 16.0999 7.8999 19.4999 11.9999 19.4999C16.0999 19.4999 19.4999 16.0999 19.4999 11.9999C19.4999 7.8999 16.0999 4.4999 11.9999 4.4999ZM2.3999 11.9999C2.3999 6.6999 6.6999 2.3999 11.9999 2.3999C17.2999 2.3999 21.5999 6.6999 21.5999 11.9999C21.5999 17.2999 17.2999 21.5999 11.9999 21.5999C6.6999 21.5999 2.3999 17.2999 2.3999 11.9999ZM11.9999 6.1999C12.5999 6.1999 13.0999 6.6999 13.0999 7.2999V11.5999L15.5999 14.0999C15.9999 14.4999 15.9999 15.1999 15.5999 15.5999C15.1999 15.9999 14.4999 15.9999 14.0999 15.5999L11.2999 12.7999C11.0999 12.5999 10.9999 12.2999 10.9999 12.0999V7.2999C10.8999 6.6999 11.3999 6.1999 11.9999 6.1999Z" fill="black"/>
</svg>
