<svg width="64" height="64" viewBox="0 0 64 64" fill="none" xmlns="http://www.w3.org/2000/svg">
<g filter="url(#filter0_bii_10555_47622)">
<path d="M13.5 31.9984C13.5 31.9984 21.7 22.0984 23.9 20.8984C27.1 19.0984 30.4 21.3984 33.3 21.4984C35.4 21.5984 38.9 19.4984 40.2 20.4984C42 21.8984 50.1 28.4984 50.8 31.6984C51 32.5984 48.4 34.2984 48.4 34.2984C48.4 34.2984 44.7 33.2984 41.4 29.2984C40.4 28.0984 40.6 42.3984 39 42.9984C35.5 44.1984 26.2 44.0984 24.4 42.1984C22.1 39.6984 25.9 28.9984 24.7 29.1984C23.5 29.3984 18 35.2984 15.5 34.6984C14.6 34.3984 13.5 31.9984 13.5 31.9984Z" fill="#CCEBC5"/>
</g>
<path d="M32.4 44.2984C28.8 44.2984 25.1 43.7984 24 42.4984C22.4 40.7984 23.3 36.3984 23.9 32.7984C24.1 31.6984 24.3 30.3984 24.4 29.7984C23.9 30.0984 23.1 30.7984 22.4 31.2984C20.1 33.1984 17.2 35.4984 15.3 35.0984C14.3 34.7984 13.3 32.7984 13.1 32.1984L13 31.8984L13.2 31.6984C13.5 31.2984 21.5 21.7984 23.7 20.4984C26 19.1984 28.3 19.8984 30.3 20.3984C31.4 20.6984 32.4 20.9984 33.4 20.9984C34.2 20.9984 35.3 20.6984 36.4 20.3984C38.1 19.8984 39.7 19.3984 40.6 20.0984C43.6 22.4984 50.7 28.3984 51.4 31.5984C51.6 32.6984 49.6 34.0984 48.8 34.6984L48.6 34.7984L48.4 34.6984C48.3 34.6984 44.8 33.6984 41.6 30.0984C41.4 30.9984 41.3 32.8984 41.2 34.3984C40.7 40.2984 40.4 43.0984 39.3 43.4984C37.6 43.9984 35 44.2984 32.4 44.2984ZM24.6 28.5984C24.8 28.5984 24.9 28.6984 25.1 28.7984C25.5 29.1984 25.4 30.1984 24.9 32.8984C24.3 35.8984 23.5 40.4984 24.7 41.7984C26.3 43.4984 35.3 43.6984 38.8 42.4984C39.4 41.9984 39.8 36.9984 40 34.2984C40.4 29.5984 40.5 28.8984 41.1 28.6984C41.3 28.5984 41.6 28.6984 41.8 28.8984C44.5 32.1984 47.5 33.3984 48.3 33.5984C49.4 32.8984 50.3 31.9984 50.3 31.6984C49.8 29.3984 44.6 24.5984 39.9 20.7984C39.4 20.3984 37.9 20.7984 36.6 21.1984C35.5 21.4984 34.3 21.8984 33.3 21.8984C32.2 21.8984 31.1 21.4984 30 21.1984C28 20.5984 26 20.0984 24.1 21.1984C22.4 22.1984 16.5 29.0984 14.1 31.9984C14.6 33.0984 15.3 33.9984 15.6 34.0984C17 34.4984 19.9 32.0984 21.8 30.4984C23.3 29.2984 24.1 28.6984 24.6 28.5984Z" fill="#62355C"/>
<path d="M37.2 20.5984C34 21.3984 32.3 21.3984 29.4 20.5984C27.9 20.1984 28.4 17.3984 29.7 17.8984C32.5 18.8984 34 18.7984 36.3 18.0984C38.7 17.3984 38.6 20.1984 37.2 20.5984Z" fill="#CCEBC5"/>
<path d="M38.2 17.9986C37.9 17.6986 37.3 17.2986 36.1 17.6986C34 18.2986 32.6 18.3986 29.8 17.4986C29.3 17.2986 28.9 17.3986 28.5 17.6986C28 18.0986 27.8 18.9986 28 19.7986C28.2 20.4986 28.6 20.9986 29.2 21.0986C30.7 21.4986 32 21.6986 33.2 21.6986C34.4 21.6986 35.7 21.4986 37.3 21.0986C37.9 20.8986 38.4 20.3986 38.6 19.7986C38.8 19.0986 38.6 18.3986 38.2 17.9986ZM36.1 20.3986C35.7 20.4986 35.3 20.5986 34.9 20.5986C35 19.9986 34.9 19.3986 34.8 18.9986C35.2 18.8986 35.5 18.7986 35.9 18.6986C36.1 19.2986 36.3 20.0986 36.1 20.3986ZM30.8 18.7986C31.1 18.8986 31.4 18.9986 31.7 18.9986C31.6 19.3986 31.4 19.9986 31.4 20.5986C31.1 20.5986 30.9 20.4986 30.6 20.3986C30.5 19.8986 30.7 19.1986 30.8 18.7986ZM29 19.4986C28.9 18.9986 29 18.4986 29.2 18.3986C29.3 18.2986 29.3 18.2986 29.4 18.2986H29.5C29.6 18.2986 29.7 18.3986 29.9 18.3986C29.7 18.7986 29.6 19.3986 29.6 20.0986H29.5C29.2 19.9986 29 19.7986 29 19.4986ZM32.5 20.6986C32.4 20.1986 32.6 19.4986 32.8 19.0986C33.2 19.0986 33.5 19.0986 33.9 19.0986C34 19.5986 34 20.2986 33.8 20.6986C33.3 20.6986 32.9 20.6986 32.5 20.6986ZM37.6 19.4986C37.5 19.7986 37.3 19.9986 37.1 20.0986C37.1 19.5986 37 18.9986 36.9 18.4986C37.1 18.4986 37.3 18.4986 37.5 18.6986C37.7 18.8986 37.7 19.1986 37.6 19.4986Z" fill="#62355C"/>
<path d="M39.2003 45.4989C33.0003 46.6989 28.2003 45.8989 23.5003 44.4989C22.0003 43.9989 23.0003 41.5989 24.3003 42.0989C29.0003 44.0989 35.2003 43.7989 39.4003 42.7989C41.2003 42.4989 40.5003 45.2989 39.2003 45.4989Z" fill="#CCEBC5"/>
<path d="M40.7001 42.6988C40.5001 42.4988 40.1001 42.1988 39.4001 42.3988C35.2001 43.3988 29.1001 43.6988 24.6001 41.6988C24.1001 41.4988 23.5001 41.5988 23.1001 41.8988C22.5001 42.3988 22.2001 43.1988 22.4001 43.7988C22.5001 44.3988 22.9001 44.7988 23.5001 44.9988C26.4001 45.8988 29.5001 46.5988 33.4001 46.5988C35.2001 46.5988 37.3001 46.3988 39.5001 45.9988C40.3001 45.7988 40.9001 44.9988 41.1001 44.3988C41.1001 43.7988 41.0001 43.0988 40.7001 42.6988ZM38.4001 45.1988C38.0001 45.2988 37.6001 45.2988 37.2001 45.3988C37.3001 44.7988 37.2001 44.2988 37.0001 43.8988C37.4001 43.7988 37.8001 43.7988 38.1001 43.6988C38.4001 44.0988 38.6001 44.7988 38.4001 45.1988ZM36.1001 45.4988C35.8001 45.4988 35.5001 45.5988 35.2001 45.5988C35.3001 45.0988 35.1001 44.4988 35.0001 44.0988C35.3001 44.0988 35.7001 44.0988 36.0001 43.9988C36.1001 44.1988 36.4001 44.7988 36.1001 45.4988ZM25.3001 42.9988C25.5001 43.0988 25.7001 43.1988 26.0001 43.1988C25.8001 43.5988 25.7001 44.0988 25.7001 44.5988C25.4001 44.4988 25.2001 44.4988 24.9001 44.3988C24.8001 43.9988 25.0001 43.4988 25.3001 42.9988ZM26.9001 43.4988C27.2001 43.5988 27.6001 43.6988 27.9001 43.6988C27.7001 44.0988 27.6001 44.4988 27.5001 44.9988C27.2001 44.8988 26.9001 44.8988 26.6001 44.7988C26.6001 44.4988 26.7001 43.8988 26.9001 43.4988ZM29.0001 43.8988C29.2001 43.8988 29.4001 43.9988 29.6001 43.9988C29.5001 44.3988 29.4001 44.8988 29.4001 45.3988C29.1001 45.3988 28.9001 45.2988 28.6001 45.2988C28.5001 44.8988 28.7001 44.2988 29.0001 43.8988ZM30.6001 44.0988C31.0001 44.0988 31.4001 44.1988 31.8001 44.1988C31.9001 44.6988 31.9001 45.2988 31.8001 45.5988C31.3001 45.5988 30.8001 45.4988 30.4001 45.4988C30.4001 45.0988 30.5001 44.5988 30.6001 44.0988ZM23.3001 43.6988C23.2001 43.3988 23.4001 42.8988 23.7001 42.6988C23.8001 42.5988 23.9001 42.5988 24.0001 42.5988C24.1001 42.5988 24.1001 42.5988 24.2001 42.5988C24.3001 42.5988 24.3001 42.5988 24.4001 42.6988C24.2001 43.0988 24.0001 43.5988 24.0001 44.0988C23.9001 44.0988 23.8001 44.0988 23.8001 43.9988C23.4001 43.9988 23.3001 43.8988 23.3001 43.6988ZM32.8001 45.5988C32.9001 45.0988 32.9001 44.4988 32.8001 44.0988C33.2001 44.0988 33.5001 44.0988 33.9001 44.0988C34.1001 44.4988 34.3001 45.1988 34.2001 45.5988C33.7001 45.5988 33.3001 45.5988 32.8001 45.5988ZM39.9001 44.0988C39.8001 44.3988 39.6001 44.6988 39.4001 44.7988C39.4001 44.2988 39.3001 43.7988 39.1001 43.3988C39.2001 43.3988 39.4001 43.2988 39.5001 43.2988C39.7001 43.2988 39.8001 43.2988 39.9001 43.2988C40.0001 43.4988 40.1001 43.6988 39.9001 44.0988Z" fill="#62355C"/>
<path d="M49.1002 36.0987C48.2002 36.4987 47.0002 35.1987 48.0002 34.6987C49.3002 33.9987 50.2002 33.3987 50.9002 31.8987C51.3002 30.9987 52.9002 32.3987 52.2002 33.1987C50.6002 34.9987 50.3002 35.3987 49.1002 36.0987Z" fill="#CCEBC5"/>
<path d="M52.8 32.0985C52.5 31.4985 51.9 30.9985 51.4 30.9985C51 30.9985 50.7 31.1985 50.5 31.4985C49.8 32.8985 49 33.3985 47.8 34.0985C47.2 34.3985 47 34.9985 47.4 35.5985C47.7 36.0985 48.3 36.4985 48.9 36.4985C49.1 36.4985 49.3 36.4985 49.5 36.3985C50.6 35.7985 51 35.3985 52.1 34.0985C52.1 34.0985 52.1 34.0985 52.1 33.9985L52.7 33.2985C52.9 33.0985 53 32.5985 52.8 32.0985ZM51.3 32.0985C51.4 32.0985 51.7 32.2985 51.8 32.4985C51.8 32.5985 51.9 32.6985 51.8 32.7985L51.7 32.9985C51.5 32.7985 51.3 32.5985 51.1 32.4985C51.1 32.3985 51.2 32.1985 51.3 32.0985ZM48.2 35.1985C48.1 35.0985 48.2 34.9985 48.2 34.9985C48.3 34.8985 48.4 34.8985 48.5 34.7985C48.7 34.9985 48.9 35.1985 49.1 35.3985C49 35.4985 48.9 35.4985 48.8 35.5985C48.7 35.6985 48.3 35.4985 48.2 35.1985ZM50.1 34.7985C49.9 34.6985 49.6 34.5985 49.4 34.2985C49.8 33.9985 50.2 33.6985 50.5 33.2985C50.7 33.3985 50.9 33.5985 51 33.6985C50.6 34.1985 50.3 34.4985 50.1 34.7985Z" fill="#62355C"/>
<path d="M14.0997 36.399C14.7997 36.999 16.2997 35.899 15.4997 35.199C14.2997 34.199 13.6997 33.499 13.1997 31.899C12.9997 30.999 11.1997 31.999 11.6997 32.899C12.8997 35.099 13.0997 35.499 14.0997 36.399Z" fill="#CCEBC5"/>
<path d="M15.8999 34.8987C14.7999 33.9987 14.1999 33.3987 13.7999 31.7987C13.6999 31.3987 13.3999 31.1988 13.0999 31.0988C12.5999 30.9988 11.8999 31.2987 11.4999 31.7987C11.1999 32.1987 11.0999 32.6988 11.3999 33.0988L11.7999 33.8987C11.7999 33.8987 11.7999 33.8987 11.7999 33.9987C12.5999 35.4987 12.8999 35.9987 13.8999 36.7987C13.9999 36.9987 14.2999 37.0988 14.5999 37.0988C15.0999 37.0988 15.5999 36.8987 15.8999 36.4987C16.3999 35.8987 16.3999 35.2987 15.8999 34.8987ZM13.3999 34.9987C13.1999 34.6987 12.9999 34.2987 12.6999 33.7987C12.7999 33.6987 12.9999 33.5987 13.2999 33.4987C13.4999 33.9987 13.7999 34.2988 14.1999 34.6988C13.8999 34.7988 13.6999 34.9987 13.3999 34.9987ZM12.1999 32.3987C12.3999 32.0987 12.6999 31.9987 12.7999 31.9987C12.7999 32.1987 12.8999 32.2987 12.8999 32.4987C12.6999 32.5987 12.3999 32.6987 12.1999 32.7987L12.0999 32.5988C12.0999 32.4988 12.1999 32.3987 12.1999 32.3987ZM15.1999 35.7987C14.9999 35.9987 14.5999 36.1987 14.3999 35.9987C14.2999 35.8987 14.1999 35.8987 14.1999 35.7987C14.4999 35.6987 14.6999 35.4987 14.8999 35.3987C14.9999 35.4987 15.0999 35.5988 15.1999 35.6988C15.2999 35.6988 15.2999 35.6987 15.1999 35.7987Z" fill="#62355C"/>
<defs>
<filter id="filter0_bii_10555_47622" x="11.5" y="18.7476" width="40.7759" height="26.5029" filterUnits="userSpaceOnUse" color-interpolation-filters="sRGB">
<feFlood flood-opacity="0" result="BackgroundImageFix"/>
<feGaussianBlur in="BackgroundImageFix" stdDeviation="0.732418"/>
<feComposite in2="SourceAlpha" operator="in" result="effect1_backgroundBlur_10555_47622"/>
<feBlend mode="normal" in="SourceGraphic" in2="effect1_backgroundBlur_10555_47622" result="shape"/>
<feColorMatrix in="SourceAlpha" type="matrix" values="0 0 0 0 0 0 0 0 0 0 0 0 0 0 0 0 0 0 127 0" result="hardAlpha"/>
<feOffset dx="-3.51561" dy="1.17187"/>
<feGaussianBlur stdDeviation="1"/>
<feComposite in2="hardAlpha" operator="arithmetic" k2="-1" k3="1"/>
<feColorMatrix type="matrix" values="0 0 0 0 1 0 0 0 0 1 0 0 0 0 1 0 0 0 0.5 0"/>
<feBlend mode="normal" in2="shape" result="effect2_innerShadow_10555_47622"/>
<feColorMatrix in="SourceAlpha" type="matrix" values="0 0 0 0 0 0 0 0 0 0 0 0 0 0 0 0 0 0 127 0" result="hardAlpha"/>
<feOffset dx="0.878902" dy="-0.878902"/>
<feGaussianBlur stdDeviation="1"/>
<feComposite in2="hardAlpha" operator="arithmetic" k2="-1" k3="1"/>
<feColorMatrix type="matrix" values="0 0 0 0 0 0 0 0 0 0 0 0 0 0 0 0 0 0 0.5 0"/>
<feBlend mode="normal" in2="effect2_innerShadow_10555_47622" result="effect3_innerShadow_10555_47622"/>
</filter>
</defs>
</svg>
