<svg width="24" height="24" viewBox="0 0 24 24" fill="none" xmlns="http://www.w3.org/2000/svg">
<path d="M17.5118 16.2999L4.8057 3.6999C4.40551 3.2999 3.70517 3.2999 3.30497 3.6999C2.90478 4.0999 2.90478 4.7999 3.30497 5.1999L6.60657 8.4999C4.20541 8.8999 2.40454 10.7999 2.40454 13.2999C2.40454 15.9999 4.70565 18.0999 7.40695 18.0999H16.3112L18.5123 20.2999C18.9125 20.6999 19.6128 20.6999 20.013 20.2999C20.4132 19.8999 20.4132 19.1999 20.013 18.7999L17.5118 16.2999ZM7.40695 15.9999C5.70613 15.9999 4.50555 14.6999 4.50555 13.1999C4.50555 11.6999 5.80618 10.3999 7.40695 10.3999C7.7071 10.3999 8.00724 10.1999 8.20734 9.9999L14.1102 15.8999H7.40695V15.9999ZM20.1131 17.1999C19.7129 17.5999 19.0125 17.4999 18.6124 17.0999C18.2122 16.6999 18.3122 15.9999 18.7124 15.5999C19.3127 15.0999 19.6128 14.1999 19.3127 13.4999C19.0125 12.6999 18.3122 12.1999 17.5118 12.1999H16.7114C16.4113 12.1999 16.1111 12.0999 15.911 11.7999C15.711 11.5999 15.6109 11.1999 15.711 10.8999C15.911 9.7999 15.5109 8.6999 14.6104 7.8999C13.6099 7.0999 12.2093 6.7999 10.9086 7.1999C10.7085 7.2999 10.4084 7.3999 10.2083 7.4999C9.70806 7.7999 9.00772 7.5999 8.80763 7.0999C8.50748 6.5999 8.70758 5.9999 9.20782 5.6999C9.50796 5.4999 9.90816 5.3999 10.3083 5.2999C12.2093 4.6999 14.4103 5.0999 15.911 6.2999C17.1116 7.2999 17.812 8.6999 17.912 10.0999C19.5128 10.1999 20.8134 11.1999 21.4137 12.7999C21.9139 14.3999 21.4137 16.0999 20.1131 17.1999Z" fill="black"/>
</svg>
