<svg width="60" height="60" viewBox="0 0 60 60" fill="none" xmlns="http://www.w3.org/2000/svg">
<g clip-path="url(#clip0_1995_23246)">
<g filter="url(#filter0_ii_1995_23246)">
<path d="M12.5634 14.6372V12H29.0762V14.6372C29.0762 14.6372 26.2801 16.9506 27.7483 20.8833C33.5177 36.3365 31.7489 53.8717 31.7489 53.8717C31.7489 53.8717 29.2136 56 20.7427 56C12.2717 56 9.58712 53.8717 9.58712 53.8717C9.58712 53.8717 6.7313 34.8559 13.6165 20.8833C15.3047 17.4133 12.5634 14.6372 12.5634 14.6372Z" fill="url(#paint0_linear_1995_23246)"/>
</g>
<g filter="url(#filter1_ii_1995_23246)">
<path d="M39.3596 8.52258L41.5995 10.1306C41.9891 10.4103 41.7997 11.0247 41.3204 11.0366L38.6248 11.1035C38.3417 11.1105 38.1066 10.8809 38.1251 10.5984C38.1728 9.87299 38.3166 9.34437 38.6463 8.68692C38.7791 8.42204 39.1189 8.34977 39.3596 8.52258Z" fill="#C6E216"/>
<path d="M39.8424 7.84119L42.2891 10.169C42.5923 10.4575 43.0945 10.2681 43.1318 9.85131L43.4492 6.30027C43.4755 6.00544 43.2407 5.75039 42.9452 5.76817C41.6159 5.84815 40.809 6.19062 39.8297 7.14486C39.6331 7.33639 39.6435 7.65201 39.8424 7.84119Z" fill="#C6E216"/>
<path d="M44.4081 6.35442L43.5237 9.87038C43.4213 10.2776 43.8361 10.6221 44.2176 10.4466L47.6128 8.88447C47.8714 8.76551 47.9803 8.45371 47.8378 8.20733C47.1378 6.99704 46.4142 6.42946 45.016 6.00224C44.7506 5.92114 44.4758 6.08529 44.4081 6.35442Z" fill="#C6E216"/>
<path d="M47.945 9.74915L44.7329 10.7368C44.2963 10.871 44.2535 11.4722 44.6667 11.667L47.7365 13.1138C47.9914 13.2339 48.2974 13.1205 48.3966 12.8568C48.7604 11.8899 48.8135 11.1622 48.5613 10.092C48.4971 9.8199 48.2122 9.66699 47.945 9.74915Z" fill="#C6E216"/>
<path d="M47.3071 13.877L44.3905 12.0516C44 11.8072 43.5147 12.1763 43.646 12.6179L44.6163 15.8821C44.6956 16.1488 44.9785 16.3015 45.2401 16.2066C46.2228 15.8503 46.8103 15.4268 47.4475 14.5711C47.6158 14.3452 47.5458 14.0264 47.3071 13.877Z" fill="#C6E216"/>
<path d="M36.9182 11.1164H36.8858C36.6097 11.1164 36.3841 10.8919 36.4027 10.6164C36.672 6.63446 40.139 3.33194 44.875 4.11604C46.9399 4.46606 50.2668 7.03284 50.3815 10.7663C50.4906 13.9815 48.5277 16.986 45.576 17.8776C45.3166 17.956 45.0349 17.7931 45.0047 17.5238C44.9984 17.4679 44.9947 17.4097 44.9926 17.3389C44.9859 17.1103 45.1464 16.9123 45.3643 16.8429C48.2916 15.9105 49.3491 13.2354 49.3491 10.883C49.349 8.43291 47.5135 5.39943 43.6131 5.04941C39.941 4.71987 37.6924 7.90645 37.4418 10.6173C37.4163 10.8922 37.1944 11.1164 36.9182 11.1164Z" fill="#C6E216"/>
</g>
<g filter="url(#filter2_bdii_1995_23246)">
<path d="M26.2157 14.9471C26.0525 14.7408 25.9493 14.4897 25.9493 14.2267V13C25.9493 12.4477 26.397 12 26.9493 12H41.4621C42.0144 12 42.4621 12.4477 42.4621 13V14.1667C42.4621 14.4647 42.3284 14.747 42.1289 14.9684C41.4348 15.7383 39.9903 17.8193 41.1342 20.8833C46.3931 34.9692 45.3887 50.785 45.1698 53.4735C45.1487 53.7332 45.0233 53.9631 44.799 54.0956C43.8739 54.6422 40.8947 56 34.1285 56C27.3118 56 24.2421 54.6218 23.3032 54.0835C23.0833 53.9574 22.9537 53.7435 22.9211 53.4922C22.5659 50.7485 20.6889 33.6957 27.0024 20.8833C28.3566 18.0998 26.8606 15.7629 26.2157 14.9471Z" fill="#DF5E00" fill-opacity="0.5" shape-rendering="crispEdges"/>
</g>
<g filter="url(#filter3_ii_1995_23246)">
<path d="M26.8393 3.46703L31.9297 11.2127L30.6699 11.0537L26.463 4.57147L13.4265 9.83836L13.0493 9.07083L26.8393 3.46703Z" fill="#D808FA"/>
</g>
<g filter="url(#filter4_f_1995_23246)">
<path d="M39.3858 27C41.3859 37 40.8859 42 39.3858 51.283" stroke="url(#paint1_linear_1995_23246)"/>
</g>
</g>
<defs>
<filter id="filter0_ii_1995_23246" x="8.5" y="11.5" width="24.0044" height="45" filterUnits="userSpaceOnUse" color-interpolation-filters="sRGB">
<feFlood flood-opacity="0" result="BackgroundImageFix"/>
<feBlend mode="normal" in="SourceGraphic" in2="BackgroundImageFix" result="shape"/>
<feColorMatrix in="SourceAlpha" type="matrix" values="0 0 0 0 0 0 0 0 0 0 0 0 0 0 0 0 0 0 127 0" result="hardAlpha"/>
<feOffset dx="0.5" dy="-0.5"/>
<feGaussianBlur stdDeviation="0.6"/>
<feComposite in2="hardAlpha" operator="arithmetic" k2="-1" k3="1"/>
<feColorMatrix type="matrix" values="0 0 0 0 0 0 0 0 0 0 0 0 0 0 0 0 0 0 0.4 0"/>
<feBlend mode="normal" in2="shape" result="effect1_innerShadow_1995_23246"/>
<feColorMatrix in="SourceAlpha" type="matrix" values="0 0 0 0 0 0 0 0 0 0 0 0 0 0 0 0 0 0 127 0" result="hardAlpha"/>
<feOffset dx="-0.5" dy="0.5"/>
<feGaussianBlur stdDeviation="0.6"/>
<feComposite in2="hardAlpha" operator="arithmetic" k2="-1" k3="1"/>
<feColorMatrix type="matrix" values="0 0 0 0 1 0 0 0 0 1 0 0 0 0 1 0 0 0 0.6 0"/>
<feBlend mode="normal" in2="effect1_innerShadow_1995_23246" result="effect2_innerShadow_1995_23246"/>
</filter>
<filter id="filter1_ii_1995_23246" x="35.9016" y="3.5" width="14.9843" height="14.8973" filterUnits="userSpaceOnUse" color-interpolation-filters="sRGB">
<feFlood flood-opacity="0" result="BackgroundImageFix"/>
<feBlend mode="normal" in="SourceGraphic" in2="BackgroundImageFix" result="shape"/>
<feColorMatrix in="SourceAlpha" type="matrix" values="0 0 0 0 0 0 0 0 0 0 0 0 0 0 0 0 0 0 127 0" result="hardAlpha"/>
<feOffset dx="0.5" dy="-0.5"/>
<feGaussianBlur stdDeviation="0.6"/>
<feComposite in2="hardAlpha" operator="arithmetic" k2="-1" k3="1"/>
<feColorMatrix type="matrix" values="0 0 0 0 0 0 0 0 0 0 0 0 0 0 0 0 0 0 0.4 0"/>
<feBlend mode="normal" in2="shape" result="effect1_innerShadow_1995_23246"/>
<feColorMatrix in="SourceAlpha" type="matrix" values="0 0 0 0 0 0 0 0 0 0 0 0 0 0 0 0 0 0 127 0" result="hardAlpha"/>
<feOffset dx="-0.5" dy="0.5"/>
<feGaussianBlur stdDeviation="0.6"/>
<feComposite in2="hardAlpha" operator="arithmetic" k2="-1" k3="1"/>
<feColorMatrix type="matrix" values="0 0 0 0 1 0 0 0 0 1 0 0 0 0 1 0 0 0 0.6 0"/>
<feBlend mode="normal" in2="effect1_innerShadow_1995_23246" result="effect2_innerShadow_1995_23246"/>
</filter>
<filter id="filter2_bdii_1995_23246" x="4.38586" y="0" width="51.0044" height="72" filterUnits="userSpaceOnUse" color-interpolation-filters="sRGB">
<feFlood flood-opacity="0" result="BackgroundImageFix"/>
<feGaussianBlur in="BackgroundImageFix" stdDeviation="1.5"/>
<feComposite in2="SourceAlpha" operator="in" result="effect1_backgroundBlur_1995_23246"/>
<feColorMatrix in="SourceAlpha" type="matrix" values="0 0 0 0 0 0 0 0 0 0 0 0 0 0 0 0 0 0 127 0" result="hardAlpha"/>
<feOffset dx="-4" dy="2"/>
<feGaussianBlur stdDeviation="7"/>
<feComposite in2="hardAlpha" operator="out"/>
<feColorMatrix type="matrix" values="0 0 0 0 0 0 0 0 0 0 0 0 0 0 0 0 0 0 0.2 0"/>
<feBlend mode="normal" in2="effect1_backgroundBlur_1995_23246" result="effect2_dropShadow_1995_23246"/>
<feBlend mode="normal" in="SourceGraphic" in2="effect2_dropShadow_1995_23246" result="shape"/>
<feColorMatrix in="SourceAlpha" type="matrix" values="0 0 0 0 0 0 0 0 0 0 0 0 0 0 0 0 0 0 127 0" result="hardAlpha"/>
<feOffset dx="6" dy="-6"/>
<feGaussianBlur stdDeviation="6"/>
<feComposite in2="hardAlpha" operator="arithmetic" k2="-1" k3="1"/>
<feColorMatrix type="matrix" values="0 0 0 0 0 0 0 0 0 0 0 0 0 0 0 0 0 0 0.32 0"/>
<feBlend mode="normal" in2="shape" result="effect3_innerShadow_1995_23246"/>
<feColorMatrix in="SourceAlpha" type="matrix" values="0 0 0 0 0 0 0 0 0 0 0 0 0 0 0 0 0 0 127 0" result="hardAlpha"/>
<feOffset dx="-6" dy="6"/>
<feGaussianBlur stdDeviation="6"/>
<feComposite in2="hardAlpha" operator="arithmetic" k2="-1" k3="1"/>
<feColorMatrix type="matrix" values="0 0 0 0 1 0 0 0 0 1 0 0 0 0 1 0 0 0 0.5 0"/>
<feBlend mode="normal" in2="effect3_innerShadow_1995_23246" result="effect4_innerShadow_1995_23246"/>
</filter>
<filter id="filter3_ii_1995_23246" x="12.5493" y="2.96704" width="19.8804" height="8.74564" filterUnits="userSpaceOnUse" color-interpolation-filters="sRGB">
<feFlood flood-opacity="0" result="BackgroundImageFix"/>
<feBlend mode="normal" in="SourceGraphic" in2="BackgroundImageFix" result="shape"/>
<feColorMatrix in="SourceAlpha" type="matrix" values="0 0 0 0 0 0 0 0 0 0 0 0 0 0 0 0 0 0 127 0" result="hardAlpha"/>
<feOffset dx="0.5" dy="-0.5"/>
<feGaussianBlur stdDeviation="0.6"/>
<feComposite in2="hardAlpha" operator="arithmetic" k2="-1" k3="1"/>
<feColorMatrix type="matrix" values="0 0 0 0 0 0 0 0 0 0 0 0 0 0 0 0 0 0 0.4 0"/>
<feBlend mode="normal" in2="shape" result="effect1_innerShadow_1995_23246"/>
<feColorMatrix in="SourceAlpha" type="matrix" values="0 0 0 0 0 0 0 0 0 0 0 0 0 0 0 0 0 0 127 0" result="hardAlpha"/>
<feOffset dx="-0.5" dy="0.5"/>
<feGaussianBlur stdDeviation="0.6"/>
<feComposite in2="hardAlpha" operator="arithmetic" k2="-1" k3="1"/>
<feColorMatrix type="matrix" values="0 0 0 0 1 0 0 0 0 1 0 0 0 0 1 0 0 0 0.6 0"/>
<feBlend mode="normal" in2="effect1_innerShadow_1995_23246" result="effect2_innerShadow_1995_23246"/>
</filter>
<filter id="filter4_f_1995_23246" x="36.3922" y="24.4019" width="7.31274" height="29.4608" filterUnits="userSpaceOnUse" color-interpolation-filters="sRGB">
<feFlood flood-opacity="0" result="BackgroundImageFix"/>
<feBlend mode="normal" in="SourceGraphic" in2="BackgroundImageFix" result="shape"/>
<feGaussianBlur stdDeviation="1.25" result="effect1_foregroundBlur_1995_23246"/>
</filter>
<linearGradient id="paint0_linear_1995_23246" x1="9" y1="12" x2="45.1322" y2="30.8909" gradientUnits="userSpaceOnUse">
<stop stop-color="#E32900"/>
<stop offset="0.494792" stop-color="#C6E216"/>
<stop offset="1" stop-color="#D808FA"/>
</linearGradient>
<linearGradient id="paint1_linear_1995_23246" x1="38.7233" y1="27" x2="38.7233" y2="52.3867" gradientUnits="userSpaceOnUse">
<stop stop-color="white" stop-opacity="0"/>
<stop offset="0.00720951" stop-color="white"/>
<stop offset="1" stop-color="white" stop-opacity="0"/>
</linearGradient>
<clipPath id="clip0_1995_23246">
<rect width="60" height="60" fill="white"/>
</clipPath>
</defs>
</svg>
