<svg width="24" height="24" viewBox="0 0 24 24" fill="none" xmlns="http://www.w3.org/2000/svg">
<path fill-rule="evenodd" clip-rule="evenodd" d="M11.1381 3.05969C13.2528 2.11671 15.6285 2.07963 17.8566 3.63972C20.0843 5.19989 20.8618 7.44522 20.6988 9.75477C20.54 12.0053 19.4993 14.3211 18.1235 16.2857C16.7477 18.2505 14.9275 20.0207 12.8669 20.9398C10.7523 21.883 8.37651 21.9204 6.14834 20.3603C3.92016 18.8001 3.14273 16.5548 3.3058 14.245C3.4647 11.9944 4.50563 9.67837 5.88141 7.71352C7.25722 5.74863 9.07752 3.97855 11.1381 3.05969ZM12.0295 5.05861C10.4509 5.76255 8.91168 7.20161 7.67426 8.96886C6.43681 10.7362 5.61076 12.6749 5.48902 14.3992C5.37145 16.0644 5.89972 17.5143 7.40369 18.5674C8.90766 19.6205 10.4508 19.621 11.9754 18.941C13.554 18.2368 15.0932 16.7975 16.3307 15.0302C17.568 13.2635 18.3939 11.3249 18.5156 9.60075C18.6331 7.93556 18.1048 6.48557 16.6012 5.4325C15.0971 4.37944 13.554 4.37882 12.0295 5.05861Z" fill="black"/>
<path d="M16.1838 6.02863C14.9145 6.25278 11.3309 8.19265 11.2562 11.4774C11.1806 14.7613 8.71677 17.4857 7.82109 17.9704C9.46393 18.0087 12.674 15.8064 12.7487 12.5216C12.8243 9.23776 15.2872 6.51337 16.1838 6.02863Z" fill="black"/>
</svg>
