<svg width="24" height="25" viewBox="0 0 24 25" fill="none" xmlns="http://www.w3.org/2000/svg">
<path d="M2.40002 6.22343C2.40002 5.08905 3.31877 4.17499 4.44846 4.17499H19.5469C20.6813 4.17499 21.5953 5.09374 21.5953 6.22343V10.0297C21.5953 11.1641 20.6766 12.0781 19.5469 12.0781H4.44846C3.31409 12.0781 2.40002 11.1594 2.40002 10.0297V6.22343ZM4.50002 6.2703V9.97343H19.5V6.2703H4.50002ZM2.40002 15.5281C2.40002 14.9469 2.86877 14.4781 3.45002 14.4781H20.55C21.1313 14.4781 21.6 14.9469 21.6 15.5281C21.6 16.1094 21.1313 16.5781 20.55 16.5781H3.45002C2.86877 16.5781 2.40002 16.1094 2.40002 15.5281ZM2.40002 20.5297C2.40002 19.9484 2.86877 19.4797 3.45002 19.4797H20.55C21.1313 19.4797 21.6 19.9484 21.6 20.5297C21.6 21.1109 21.1313 21.5797 20.55 21.5797H3.45002C2.86877 21.5797 2.40002 21.1062 2.40002 20.5297Z" fill="black"/>
</svg>
