<svg width="65" height="71" viewBox="0 0 65 71" fill="none" xmlns="http://www.w3.org/2000/svg">
<path fill-rule="evenodd" clip-rule="evenodd" d="M8.2661 8.73001H2.56842V67.0505H37.8394V8.73001H31.6669V2.57895H8.2661V8.73001ZM33.4985 6.89843V0.747375H6.43452V6.89843H0.736839V68.8821H39.671V6.89843H33.4985Z" fill="url(#paint0_diamond_5638_38514)"/>
<path d="M17.8812 14.2095V19.2043H12.8863V70.6221H26.4018V59.4571H31.3967V70.6221H44.9122V19.2043H39.9174V14.2095H17.8812ZM20.2317 23.9054H22.5822V26.2559H20.2317V23.9054ZM25.2266 23.9054H27.5771V26.2559H25.2266V23.9054ZM30.2214 23.9054H32.572V26.2559H30.2214V23.9054ZM34.9225 23.9054H37.273V26.2559H34.9225V23.9054ZM47.2628 28.9003V33.8951H49.6133V36.2457H47.2628V38.5962H49.6133V40.9467H47.2628V43.2972H49.6133V45.6478H47.2628V47.9983H49.6133V50.3488H47.2628V52.6993H49.6133V55.0499H47.2628V57.4004H49.6133V59.7509H47.2628V62.1014H49.6133V64.452H47.2628V69.4468H64.3041V28.9003H47.2628ZM20.2317 30.0755H22.5822V35.0704H20.2317V30.0755ZM25.2266 30.0755H27.5771V35.0704H25.2266V30.0755ZM30.2214 30.0755H32.572V35.0704H30.2214V30.0755ZM34.9225 30.0755H37.273V35.0704H34.9225V30.0755ZM52.2576 33.8951H54.6082V36.2457H52.2576V33.8951ZM57.2525 33.8951H59.603V36.2457H57.2525V33.8951ZM20.2317 37.4209H22.5822V42.4158H20.2317V37.4209ZM25.2266 37.4209H27.5771V42.4158H25.2266V37.4209ZM30.2214 37.4209H32.572V42.4158H30.2214V37.4209ZM34.9225 37.4209H37.273V42.4158H34.9225V37.4209ZM52.2576 38.5962H54.6082V40.9467H52.2576V38.5962ZM57.2525 38.5962H59.603V40.9467H57.2525V38.5962ZM52.2576 43.5911H54.6082V45.9416H52.2576V43.5911ZM57.2525 43.5911H59.603V45.9416H57.2525V43.5911ZM20.2317 44.7663H22.5822V49.7612H20.2317V44.7663ZM25.2266 44.7663H27.5771V49.7612H25.2266V44.7663ZM30.2214 44.7663H32.572V49.7612H30.2214V44.7663ZM34.9225 44.7663H37.273V49.7612H34.9225V44.7663ZM52.2576 48.5859H54.6082V50.9364H52.2576V48.5859ZM57.2525 48.5859H59.603V50.9364H57.2525V48.5859ZM20.2317 52.1117H22.5822V57.1066H20.2317V52.1117ZM25.2266 52.1117H27.5771V57.1066H25.2266V52.1117ZM30.2214 52.1117H32.572V57.1066H30.2214V52.1117ZM34.9225 52.1117H37.273V57.1066H34.9225V52.1117ZM52.2576 53.5808H54.6082V55.9313H52.2576V53.5808ZM57.2525 53.5808H59.603V55.9313H57.2525V53.5808ZM52.2576 58.2818H54.6082V60.6324H52.2576V58.2818ZM57.2525 58.2818H59.603V60.6324H57.2525V58.2818ZM20.2317 59.4571H22.5822V65.6272H20.2317V59.4571ZM34.9225 59.4571H37.273V65.6272H34.9225V59.4571ZM52.2576 63.2767H54.6082V65.6272H52.2576V63.2767ZM57.2525 63.2767H59.603V65.6272H57.2525V63.2767Z" fill="url(#paint1_diamond_5638_38514)"/>
<defs>
<radialGradient id="paint0_diamond_5638_38514" cx="0" cy="0" r="1" gradientUnits="userSpaceOnUse" gradientTransform="translate(3.60045 11.8633) rotate(57.6823) scale(67.4702 176.138)">
<stop stop-color="#E32900"/>
<stop offset="0.472959" stop-color="#C6E216"/>
<stop offset="1" stop-color="#D808FA"/>
</radialGradient>
<radialGradient id="paint1_diamond_5638_38514" cx="0" cy="0" r="1" gradientUnits="userSpaceOnUse" gradientTransform="translate(16.6681 23.4129) rotate(44.7422) scale(67.0663 193.754)">
<stop stop-color="#E32900"/>
<stop offset="0.472959" stop-color="#C6E216"/>
<stop offset="1" stop-color="#D808FA"/>
</radialGradient>
</defs>
</svg>
