<svg width="60" height="60" viewBox="0 0 60 60" fill="none" xmlns="http://www.w3.org/2000/svg">
<g clip-path="url(#clip0_1995_23038)">
<g filter="url(#filter0_ii_1995_23038)">
<path fill-rule="evenodd" clip-rule="evenodd" d="M10.083 7C8.93256 7 7.99995 7.93261 7.99995 9.08305V13H34.9999V9.08305C34.9999 7.93261 34.0673 7 32.9169 7H10.083ZM6 15C4.89543 15 4 15.8955 4 17V51C4 52.1045 4.89543 53 6 53H36.9999C38.1045 53 38.9999 52.1045 38.9999 50.9999V17C38.9999 15.8955 38.1045 15 36.9999 15H6Z" fill="url(#paint0_linear_1995_23038)"/>
</g>
<g filter="url(#filter1_ii_1995_23038)">
<path fill-rule="evenodd" clip-rule="evenodd" d="M20.0416 19.9999C19.4663 19.9999 19 20.4662 19 21.0415V23.9584C19 24.5336 19.4663 24.9999 20.0416 24.9999H22.9585C23.5337 24.9999 24 24.5336 24 23.9584V21.0415C24 20.4662 23.5337 19.9999 22.9585 19.9999H20.0416ZM9.04152 20C8.46631 20 8 20.4663 8 21.0415V23.9584C8 24.5337 8.46631 25 9.04152 25H11.9585C12.5337 25 13 24.5337 13 23.9584V21.0415C13 20.4663 12.5337 20 11.9585 20H9.04152ZM9.04151 28.9999C8.46629 28.9999 7.99999 29.4662 7.99999 30.0415V32.9584C7.99999 33.5336 8.46629 33.9999 9.04151 33.9999H11.9585C12.5337 33.9999 13 33.5336 13 32.9584V30.0415C13 29.4662 12.5337 28.9999 11.9585 28.9999H9.04151ZM7.99999 39.0416C7.99999 38.4664 8.46629 38.0001 9.04151 38.0001H11.9585C12.5337 38.0001 13 38.4664 13 39.0416V41.9585C13 42.5338 12.5337 43.0001 11.9585 43.0001H9.04151C8.46629 43.0001 7.99999 42.5338 7.99999 41.9585V39.0416ZM19 30.0415C19 29.4662 19.4663 28.9999 20.0416 28.9999H22.9585C23.5337 28.9999 24 29.4662 24 30.0415V32.9584C24 33.5336 23.5337 33.9999 22.9585 33.9999H20.0416C19.4663 33.9999 19 33.5336 19 32.9584V30.0415ZM19.0416 38.0001C18.4663 38.0001 18 38.4664 18 39.0416V47.9585C18 48.5337 18.4663 49.0001 19.0416 49.0001H23.9585C24.5337 49.0001 25 48.5337 25 47.9585V39.0416C25 38.4664 24.5337 38.0001 23.9585 38.0001H19.0416ZM30 21.0415C30 20.4662 30.4663 19.9999 31.0415 19.9999H33.9585C34.5337 19.9999 35 20.4662 35 21.0415V23.9584C35 24.5336 34.5337 24.9999 33.9585 24.9999H31.0415C30.4663 24.9999 30 24.5336 30 23.9584V21.0415ZM31.0415 28.9999C30.4663 28.9999 30 29.4662 30 30.0415V32.9584C30 33.5336 30.4663 33.9999 31.0415 33.9999H33.9585C34.5337 33.9999 35 33.5336 35 32.9584V30.0415C35 29.4662 34.5337 28.9999 33.9585 28.9999H31.0415Z" fill="white" fill-opacity="0.01"/>
</g>
<g filter="url(#filter2_d_1995_23038)">
<g filter="url(#filter3_bii_1995_23038)">
<mask id="path-3-inside-1_1995_23038" fill="white">
<path fill-rule="evenodd" clip-rule="evenodd" d="M38.5752 35.85C43.5043 35.85 47.5002 31.8541 47.5002 26.925C47.5002 21.9959 43.5043 18 38.5752 18C33.646 18 29.6502 21.9959 29.6502 26.925C29.6502 31.8541 33.646 35.85 38.5752 35.85ZM22 52.8501C22 48.3414 23.7911 44.0174 26.9792 40.8292C30.1673 37.6411 34.4913 35.8501 39 35.8501C43.5087 35.8501 47.8327 37.6411 51.0208 40.8292C54.2089 44.0174 56 48.3414 56 52.8501H22Z"/>
</mask>
<path fill-rule="evenodd" clip-rule="evenodd" d="M38.5752 35.85C43.5043 35.85 47.5002 31.8541 47.5002 26.925C47.5002 21.9959 43.5043 18 38.5752 18C33.646 18 29.6502 21.9959 29.6502 26.925C29.6502 31.8541 33.646 35.85 38.5752 35.85ZM22 52.8501C22 48.3414 23.7911 44.0174 26.9792 40.8292C30.1673 37.6411 34.4913 35.8501 39 35.8501C43.5087 35.8501 47.8327 37.6411 51.0208 40.8292C54.2089 44.0174 56 48.3414 56 52.8501H22Z" fill="#FDDD4B" fill-opacity="0.5"/>
<path d="M26.9792 40.8292L27.1305 40.9805V40.9805L26.9792 40.8292ZM22 52.8501H21.786V53.064H22V52.8501ZM51.0208 40.8292L50.8695 40.9805V40.9805L51.0208 40.8292ZM56 52.8501V53.064H56.214V52.8501H56ZM47.2862 26.925C47.2862 31.736 43.3861 35.636 38.5752 35.636V36.064C43.6225 36.064 47.7141 31.9723 47.7141 26.925H47.2862ZM38.5752 18.214C43.3861 18.214 47.2862 22.114 47.2862 26.925H47.7141C47.7141 21.8777 43.6225 17.786 38.5752 17.786V18.214ZM29.8641 26.925C29.8641 22.114 33.7642 18.214 38.5752 18.214V17.786C33.5279 17.786 29.4362 21.8777 29.4362 26.925H29.8641ZM38.5752 35.636C33.7642 35.636 29.8641 31.736 29.8641 26.925H29.4362C29.4362 31.9723 33.5279 36.064 38.5752 36.064V35.636ZM26.8279 40.678C23.5997 43.9062 21.786 48.2846 21.786 52.8501H22.214C22.214 48.3981 23.9825 44.1285 27.1305 40.9805L26.8279 40.678ZM39 35.6361C34.4346 35.6361 30.0561 37.4497 26.8279 40.678L27.1305 40.9805C30.2785 37.8325 34.5481 36.064 39 36.064V35.6361ZM51.1721 40.678C47.9439 37.4497 43.5654 35.6361 39 35.6361V36.064C43.4519 36.064 47.7215 37.8325 50.8695 40.9805L51.1721 40.678ZM56.214 52.8501C56.214 48.2846 54.4003 43.9062 51.1721 40.678L50.8695 40.9805C54.0175 44.1285 55.786 48.3981 55.786 52.8501H56.214ZM22 53.064H56V52.6361H22V53.064Z" fill="url(#paint1_linear_1995_23038)" fill-opacity="0.5" mask="url(#path-3-inside-1_1995_23038)"/>
<path d="M26.9792 40.8292L27.1305 40.9805V40.9805L26.9792 40.8292ZM22 52.8501H21.786V53.064H22V52.8501ZM51.0208 40.8292L50.8695 40.9805V40.9805L51.0208 40.8292ZM56 52.8501V53.064H56.214V52.8501H56ZM47.2862 26.925C47.2862 31.736 43.3861 35.636 38.5752 35.636V36.064C43.6225 36.064 47.7141 31.9723 47.7141 26.925H47.2862ZM38.5752 18.214C43.3861 18.214 47.2862 22.114 47.2862 26.925H47.7141C47.7141 21.8777 43.6225 17.786 38.5752 17.786V18.214ZM29.8641 26.925C29.8641 22.114 33.7642 18.214 38.5752 18.214V17.786C33.5279 17.786 29.4362 21.8777 29.4362 26.925H29.8641ZM38.5752 35.636C33.7642 35.636 29.8641 31.736 29.8641 26.925H29.4362C29.4362 31.9723 33.5279 36.064 38.5752 36.064V35.636ZM26.8279 40.678C23.5997 43.9062 21.786 48.2846 21.786 52.8501H22.214C22.214 48.3981 23.9825 44.1285 27.1305 40.9805L26.8279 40.678ZM39 35.6361C34.4346 35.6361 30.0561 37.4497 26.8279 40.678L27.1305 40.9805C30.2785 37.8325 34.5481 36.064 39 36.064V35.6361ZM51.1721 40.678C47.9439 37.4497 43.5654 35.6361 39 35.6361V36.064C43.4519 36.064 47.7215 37.8325 50.8695 40.9805L51.1721 40.678ZM56.214 52.8501C56.214 48.2846 54.4003 43.9062 51.1721 40.678L50.8695 40.9805C54.0175 44.1285 55.786 48.3981 55.786 52.8501H56.214ZM22 53.064H56V52.6361H22V53.064Z" fill="url(#paint2_linear_1995_23038)" fill-opacity="0.5" mask="url(#path-3-inside-1_1995_23038)"/>
</g>
<g filter="url(#filter4_f_1995_23038)">
<ellipse cx="43.13" cy="23.5697" rx="1.44837" ry="3.49833" transform="rotate(-33.2662 43.13 23.5697)" fill="white" fill-opacity="0.5"/>
</g>
<g filter="url(#filter5_f_1995_23038)">
<ellipse cx="49.13" cy="43.5697" rx="1.44837" ry="3.49833" transform="rotate(-33.2662 49.13 43.5697)" fill="white" fill-opacity="0.5"/>
</g>
</g>
</g>
<defs>
<filter id="filter0_ii_1995_23038" x="2.95848" y="5.95848" width="37.083" height="48.083" filterUnits="userSpaceOnUse" color-interpolation-filters="sRGB">
<feFlood flood-opacity="0" result="BackgroundImageFix"/>
<feBlend mode="normal" in="SourceGraphic" in2="BackgroundImageFix" result="shape"/>
<feColorMatrix in="SourceAlpha" type="matrix" values="0 0 0 0 0 0 0 0 0 0 0 0 0 0 0 0 0 0 127 0" result="hardAlpha"/>
<feOffset dx="1.04152" dy="-1.04152"/>
<feGaussianBlur stdDeviation="1.04152"/>
<feComposite in2="hardAlpha" operator="arithmetic" k2="-1" k3="1"/>
<feColorMatrix type="matrix" values="0 0 0 0 0 0 0 0 0 0 0 0 0 0 0 0 0 0 0.32 0"/>
<feBlend mode="normal" in2="shape" result="effect1_innerShadow_1995_23038"/>
<feColorMatrix in="SourceAlpha" type="matrix" values="0 0 0 0 0 0 0 0 0 0 0 0 0 0 0 0 0 0 127 0" result="hardAlpha"/>
<feOffset dx="-1.04152" dy="1.04152"/>
<feGaussianBlur stdDeviation="1.04152"/>
<feComposite in2="hardAlpha" operator="arithmetic" k2="-1" k3="1"/>
<feColorMatrix type="matrix" values="0 0 0 0 1 0 0 0 0 1 0 0 0 0 1 0 0 0 0.5 0"/>
<feBlend mode="normal" in2="effect1_innerShadow_1995_23038" result="effect2_innerShadow_1995_23038"/>
</filter>
<filter id="filter1_ii_1995_23038" x="7.47924" y="19.4792" width="28.0415" height="30.0416" filterUnits="userSpaceOnUse" color-interpolation-filters="sRGB">
<feFlood flood-opacity="0" result="BackgroundImageFix"/>
<feBlend mode="normal" in="SourceGraphic" in2="BackgroundImageFix" result="shape"/>
<feColorMatrix in="SourceAlpha" type="matrix" values="0 0 0 0 0 0 0 0 0 0 0 0 0 0 0 0 0 0 127 0" result="hardAlpha"/>
<feOffset dx="-0.520761" dy="0.520761"/>
<feGaussianBlur stdDeviation="0.624914"/>
<feComposite in2="hardAlpha" operator="arithmetic" k2="-1" k3="1"/>
<feColorMatrix type="matrix" values="0 0 0 0 0 0 0 0 0 0 0 0 0 0 0 0 0 0 0.4 0"/>
<feBlend mode="normal" in2="shape" result="effect1_innerShadow_1995_23038"/>
<feColorMatrix in="SourceAlpha" type="matrix" values="0 0 0 0 0 0 0 0 0 0 0 0 0 0 0 0 0 0 127 0" result="hardAlpha"/>
<feOffset dx="0.520761" dy="-0.520761"/>
<feGaussianBlur stdDeviation="0.624914"/>
<feComposite in2="hardAlpha" operator="arithmetic" k2="-1" k3="1"/>
<feColorMatrix type="matrix" values="0 0 0 0 1 0 0 0 0 1 0 0 0 0 1 0 0 0 0.6 0"/>
<feBlend mode="normal" in2="effect1_innerShadow_1995_23038" result="effect2_innerShadow_1995_23038"/>
</filter>
<filter id="filter2_d_1995_23038" x="4" y="2" width="62" height="62.85" filterUnits="userSpaceOnUse" color-interpolation-filters="sRGB">
<feFlood flood-opacity="0" result="BackgroundImageFix"/>
<feColorMatrix in="SourceAlpha" type="matrix" values="0 0 0 0 0 0 0 0 0 0 0 0 0 0 0 0 0 0 127 0" result="hardAlpha"/>
<feOffset dx="-4" dy="-2"/>
<feGaussianBlur stdDeviation="7"/>
<feComposite in2="hardAlpha" operator="out"/>
<feColorMatrix type="matrix" values="0 0 0 0 0 0 0 0 0 0 0 0 0 0 0 0 0 0 0.2 0"/>
<feBlend mode="normal" in2="BackgroundImageFix" result="effect1_dropShadow_1995_23038"/>
<feBlend mode="normal" in="SourceGraphic" in2="effect1_dropShadow_1995_23038" result="shape"/>
</filter>
<filter id="filter3_bii_1995_23038" x="19" y="11.4604" width="40" height="47.9292" filterUnits="userSpaceOnUse" color-interpolation-filters="sRGB">
<feFlood flood-opacity="0" result="BackgroundImageFix"/>
<feGaussianBlur in="BackgroundImageFix" stdDeviation="1.5"/>
<feComposite in2="SourceAlpha" operator="in" result="effect1_backgroundBlur_1995_23038"/>
<feBlend mode="normal" in="SourceGraphic" in2="effect1_backgroundBlur_1995_23038" result="shape"/>
<feColorMatrix in="SourceAlpha" type="matrix" values="0 0 0 0 0 0 0 0 0 0 0 0 0 0 0 0 0 0 127 0" result="hardAlpha"/>
<feOffset dy="6.53959"/>
<feGaussianBlur stdDeviation="6.53959"/>
<feComposite in2="hardAlpha" operator="arithmetic" k2="-1" k3="1"/>
<feColorMatrix type="matrix" values="0 0 0 0 1 0 0 0 0 1 0 0 0 0 1 0 0 0 0.32 0"/>
<feBlend mode="normal" in2="shape" result="effect2_innerShadow_1995_23038"/>
<feColorMatrix in="SourceAlpha" type="matrix" values="0 0 0 0 0 0 0 0 0 0 0 0 0 0 0 0 0 0 127 0" result="hardAlpha"/>
<feOffset dy="-6.53959"/>
<feGaussianBlur stdDeviation="6.53959"/>
<feComposite in2="hardAlpha" operator="arithmetic" k2="-1" k3="1"/>
<feColorMatrix type="matrix" values="0 0 0 0 0 0 0 0 0 0 0 0 0 0 0 0 0 0 0.24 0"/>
<feBlend mode="normal" in2="effect2_innerShadow_1995_23038" result="effect3_innerShadow_1995_23038"/>
</filter>
<filter id="filter4_f_1995_23038" x="38.8606" y="18.5379" width="8.53882" height="10.0636" filterUnits="userSpaceOnUse" color-interpolation-filters="sRGB">
<feFlood flood-opacity="0" result="BackgroundImageFix"/>
<feBlend mode="normal" in="SourceGraphic" in2="BackgroundImageFix" result="shape"/>
<feGaussianBlur stdDeviation="1" result="effect1_foregroundBlur_1995_23038"/>
</filter>
<filter id="filter5_f_1995_23038" x="44.8606" y="38.5379" width="8.53882" height="10.0636" filterUnits="userSpaceOnUse" color-interpolation-filters="sRGB">
<feFlood flood-opacity="0" result="BackgroundImageFix"/>
<feBlend mode="normal" in="SourceGraphic" in2="BackgroundImageFix" result="shape"/>
<feGaussianBlur stdDeviation="1" result="effect1_foregroundBlur_1995_23038"/>
</filter>
<linearGradient id="paint0_linear_1995_23038" x1="4" y1="7" x2="48.334" y2="40.7324" gradientUnits="userSpaceOnUse">
<stop stop-color="#E32900"/>
<stop offset="0.494792" stop-color="#C6E216"/>
<stop offset="1" stop-color="#D808FA"/>
</linearGradient>
<linearGradient id="paint1_linear_1995_23038" x1="44.95" y1="54.5501" x2="26.3426" y2="24.7975" gradientUnits="userSpaceOnUse">
<stop stop-color="white" stop-opacity="0"/>
<stop offset="1" stop-color="white"/>
</linearGradient>
<linearGradient id="paint2_linear_1995_23038" x1="47.925" y1="52.8501" x2="29.8154" y2="37.2402" gradientUnits="userSpaceOnUse">
<stop/>
<stop offset="1" stop-opacity="0"/>
</linearGradient>
<clipPath id="clip0_1995_23038">
<rect width="60" height="60" fill="white"/>
</clipPath>
</defs>
</svg>
