<svg width="20" height="21" viewBox="0 0 20 21" fill="none" xmlns="http://www.w3.org/2000/svg">
<rect y="0.908997" width="20" height="20" rx="10" fill="#965101"/>
<g clip-path="url(#clip0_512_14264)">
<path d="M4.18462 10.9993C4.23311 11.0357 4.28829 11.0621 4.34701 11.0772C4.40572 11.0922 4.46682 11.0955 4.52683 11.087C4.58683 11.0784 4.64456 11.0581 4.69671 11.0272C4.74887 10.9963 4.79443 10.9555 4.8308 10.907C5.11025 10.5344 5.47261 10.232 5.88919 10.0237C6.30577 9.81538 6.76513 9.70694 7.23088 9.70694C7.69663 9.70694 8.15598 9.81538 8.57256 10.0237C8.98914 10.232 9.35151 10.5344 9.63096 10.907C9.70449 11.0048 9.81387 11.0694 9.93505 11.0866C10.0562 11.1039 10.1793 11.0722 10.2771 10.9987C10.312 10.9728 10.3429 10.9419 10.3689 10.907C10.6483 10.5344 11.0107 10.232 11.4273 10.0237C11.8438 9.81538 12.3032 9.70694 12.7689 9.70694C13.2347 9.70694 13.6941 9.81538 14.1106 10.0237C14.5272 10.232 14.8896 10.5344 15.169 10.907C15.2426 11.0049 15.352 11.0696 15.4732 11.0869C15.5944 11.1041 15.7176 11.0725 15.8155 10.999C15.9134 10.9255 15.9781 10.8161 15.9954 10.6948C16.0126 10.5736 15.981 10.4505 15.9075 10.3525C15.499 9.80483 14.9542 9.3736 14.3273 9.10173C14.6709 8.78795 14.9117 8.3776 15.018 7.92453C15.1243 7.47146 15.0911 6.99684 14.9229 6.56296C14.7546 6.12908 14.4591 5.75621 14.0751 5.49328C13.6911 5.23036 13.2366 5.08966 12.7713 5.08966C12.3059 5.08966 11.8514 5.23036 11.4674 5.49328C11.0834 5.75621 10.7879 6.12908 10.6196 6.56296C10.4514 6.99684 10.4182 7.47146 10.5245 7.92453C10.6308 8.3776 10.8716 8.78795 11.2152 9.10173C10.7626 9.29745 10.3514 9.57765 10.0037 9.92733C9.65592 9.57765 9.24473 9.29745 8.79208 9.10173C9.13576 8.78795 9.37655 8.3776 9.48284 7.92453C9.58913 7.47146 9.55596 6.99684 9.38769 6.56296C9.21941 6.12908 8.9239 5.75621 8.53992 5.49328C8.15594 5.23036 7.70144 5.08966 7.23607 5.08966C6.7707 5.08966 6.3162 5.23036 5.93222 5.49328C5.54824 5.75621 5.25273 6.12908 5.08445 6.56296C4.91618 6.99684 4.88301 7.47146 4.9893 7.92453C5.09559 8.3776 5.33638 8.78795 5.68006 9.10173C5.05041 9.37271 4.50292 9.80422 4.09231 10.3531C4.05594 10.4016 4.02948 10.4568 4.01444 10.5155C3.9994 10.5742 3.99607 10.6353 4.00464 10.6953C4.01321 10.7553 4.03352 10.813 4.0644 10.8652C4.09528 10.9174 4.13613 10.9629 4.18462 10.9993ZM12.7695 6.01451C13.0434 6.01451 13.3111 6.09572 13.5388 6.24786C13.7665 6.40001 13.944 6.61627 14.0488 6.86928C14.1536 7.1223 14.181 7.4007 14.1276 7.6693C14.0742 7.9379 13.9423 8.18462 13.7486 8.37827C13.555 8.57192 13.3083 8.7038 13.0397 8.75722C12.7711 8.81065 12.4927 8.78323 12.2396 8.67843C11.9866 8.57363 11.7704 8.39615 11.6182 8.16845C11.4661 7.94074 11.3849 7.67303 11.3849 7.39917C11.3849 7.03193 11.5307 6.67974 11.7904 6.42006C12.0501 6.16039 12.4023 6.01451 12.7695 6.01451ZM7.23088 6.01451C7.50474 6.01451 7.77245 6.09572 8.00015 6.24786C8.22786 6.40001 8.40534 6.61627 8.51014 6.86928C8.61494 7.1223 8.64236 7.4007 8.58893 7.6693C8.53551 7.9379 8.40363 8.18462 8.20998 8.37827C8.01633 8.57192 7.76961 8.7038 7.50101 8.75722C7.23241 8.81065 6.954 8.78323 6.70099 8.67843C6.44798 8.57363 6.23172 8.39615 6.07957 8.16845C5.92742 7.94074 5.84622 7.67303 5.84622 7.39917C5.84622 7.03193 5.9921 6.67974 6.25177 6.42006C6.51145 6.16039 6.86364 6.01451 7.23088 6.01451ZM14.3273 15.1019C14.6709 14.7881 14.9117 14.3778 15.018 13.9247C15.1243 13.4717 15.0911 12.997 14.9229 12.5632C14.7546 12.1293 14.4591 11.7564 14.0751 11.4935C13.6911 11.2306 13.2366 11.0899 12.7713 11.0899C12.3059 11.0899 11.8514 11.2306 11.4674 11.4935C11.0834 11.7564 10.7879 12.1293 10.6196 12.5632C10.4514 12.997 10.4182 13.4717 10.5245 13.9247C10.6308 14.3778 10.8716 14.7881 11.2152 15.1019C10.7626 15.2977 10.3514 15.5779 10.0037 15.9275C9.65592 15.5779 9.24473 15.2977 8.79208 15.1019C9.13576 14.7881 9.37655 14.3778 9.48284 13.9247C9.58913 13.4717 9.55596 12.997 9.38769 12.5632C9.21941 12.1293 8.9239 11.7564 8.53992 11.4935C8.15594 11.2306 7.70144 11.0899 7.23607 11.0899C6.7707 11.0899 6.3162 11.2306 5.93222 11.4935C5.54824 11.7564 5.25273 12.1293 5.08445 12.5632C4.91618 12.997 4.88301 13.4717 4.9893 13.9247C5.09559 14.3778 5.33638 14.7881 5.68006 15.1019C5.05041 15.3729 4.50292 15.8044 4.09231 16.3533C4.05594 16.4018 4.02948 16.457 4.01444 16.5157C3.9994 16.5744 3.99607 16.6355 4.00464 16.6955C4.01321 16.7555 4.03352 16.8132 4.0644 16.8654C4.09528 16.9176 4.13613 16.9631 4.18462 16.9995C4.23311 17.0359 4.28829 17.0623 4.34701 17.0774C4.40572 17.0924 4.46682 17.0957 4.52683 17.0872C4.58683 17.0786 4.64456 17.0583 4.69671 17.0274C4.74887 16.9965 4.79443 16.9557 4.8308 16.9072C5.11025 16.5346 5.47261 16.2322 5.88919 16.0239C6.30577 15.8156 6.76513 15.7071 7.23088 15.7071C7.69663 15.7071 8.15598 15.8156 8.57256 16.0239C8.98914 16.2322 9.35151 16.5346 9.63096 16.9072C9.70449 17.005 9.81387 17.0696 9.93505 17.0868C10.0562 17.1041 10.1793 17.0724 10.2771 16.9989C10.312 16.973 10.3429 16.9421 10.3689 16.9072C10.6483 16.5346 11.0107 16.2322 11.4273 16.0239C11.8438 15.8156 12.3032 15.7071 12.7689 15.7071C13.2347 15.7071 13.6941 15.8156 14.1106 16.0239C14.5272 16.2322 14.8896 16.5346 15.169 16.9072C15.2426 17.0051 15.352 17.0698 15.4732 17.0871C15.5944 17.1043 15.7176 17.0727 15.8155 16.9992C15.9134 16.9257 15.9781 16.8163 15.9954 16.695C16.0126 16.5738 15.981 16.4507 15.9075 16.3527C15.499 15.805 14.9542 15.3738 14.3273 15.1019ZM7.23088 12.0147C7.50474 12.0147 7.77245 12.0959 8.00015 12.2481C8.22786 12.4002 8.40534 12.6165 8.51014 12.8695C8.61494 13.1225 8.64236 13.4009 8.58893 13.6695C8.53551 13.9381 8.40363 14.1848 8.20998 14.3785C8.01633 14.5721 7.76961 14.704 7.50101 14.7574C7.23241 14.8109 6.954 14.7834 6.70099 14.6786C6.44798 14.5738 6.23172 14.3964 6.07957 14.1686C5.92742 13.9409 5.84622 13.6732 5.84622 13.3994C5.84622 13.0321 5.9921 12.6799 6.25177 12.4203C6.51145 12.1606 6.86364 12.0147 7.23088 12.0147ZM12.7695 12.0147C13.0434 12.0147 13.3111 12.0959 13.5388 12.2481C13.7665 12.4002 13.944 12.6165 14.0488 12.8695C14.1536 13.1225 14.181 13.4009 14.1276 13.6695C14.0742 13.9381 13.9423 14.1848 13.7486 14.3785C13.555 14.5721 13.3083 14.704 13.0397 14.7574C12.7711 14.8109 12.4927 14.7834 12.2396 14.6786C11.9866 14.5738 11.7704 14.3964 11.6182 14.1686C11.4661 13.9409 11.3849 13.6732 11.3849 13.3994C11.3849 13.0321 11.5307 12.6799 11.7904 12.4203C12.0501 12.1606 12.4023 12.0147 12.7695 12.0147Z" fill="white"/>
</g>
<defs>
<clipPath id="clip0_512_14264">
<rect width="12" height="12" fill="white" transform="translate(4 5.09073)"/>
</clipPath>
</defs>
</svg>
