<svg width="25" height="25" viewBox="0 0 25 25" fill="none" xmlns="http://www.w3.org/2000/svg">
<g clip-path="url(#clip0_1114_56950)">
<path d="M19.2807 12.1264C19.2833 12.5413 19.1217 12.9404 18.8315 13.2364C18.5352 13.5272 18.1381 13.6921 17.7233 13.6964C17.4147 13.6967 17.1127 13.6063 16.8548 13.4364C16.5972 13.2609 16.396 13.0143 16.2758 12.7264C16.1566 12.4422 16.1253 12.1286 16.1859 11.8264C16.2439 11.5206 16.3919 11.2391 16.6109 11.0183C16.8298 10.7974 17.1098 10.6472 17.4147 10.5869C17.7195 10.5267 18.0354 10.5592 18.3217 10.6803C18.608 10.8014 18.8516 11.0055 19.0211 11.2664C19.1905 11.5211 19.2808 11.8204 19.2807 12.1264ZM13.8099 11.2664C13.6407 11.0079 13.3982 10.806 13.1136 10.6866C12.829 10.5672 12.5152 10.5358 12.2126 10.5964C11.9085 10.6536 11.6295 10.8038 11.414 11.0264C11.1953 11.2449 11.046 11.5232 10.9847 11.8264C10.9241 12.1286 10.9554 12.4422 11.0746 12.7264C11.1945 13.0116 11.3916 13.2575 11.6436 13.4364C11.8799 13.594 12.1545 13.6843 12.438 13.6977C12.7216 13.7112 13.0034 13.6473 13.2535 13.5127C13.5036 13.3782 13.7126 13.1782 13.858 12.9341C14.0035 12.6899 14.08 12.4107 14.0795 12.1264C14.0744 11.829 13.9805 11.5399 13.8099 11.2964V11.2664ZM8.63869 11.2664C8.46633 11.01 8.22224 10.8102 7.93702 10.6922C7.6518 10.5742 7.33814 10.5431 7.03537 10.6029C6.73259 10.6627 6.45418 10.8107 6.23504 11.0284C6.0159 11.246 5.86577 11.5236 5.80349 11.8264C5.74283 12.1286 5.77413 12.4422 5.89334 12.7264C6.01357 13.0143 6.21474 13.2609 6.47236 13.4364C6.7753 13.6442 7.14179 13.738 7.50711 13.7014C7.87243 13.6648 8.2131 13.5001 8.46898 13.2364C8.61094 13.0895 8.72207 12.9156 8.7958 12.7249C8.86953 12.5343 8.90437 12.3308 8.89825 12.1264C8.89259 11.8306 8.80252 11.5426 8.63869 11.2964V11.2664ZM12.5121 1.7264H11.7734C9.28022 1.94133 6.93975 3.01984 5.15459 4.7764C3.39836 6.54945 2.33564 8.89494 2.15965 11.3864C1.94948 13.8934 2.67909 16.389 4.20619 18.3864C5.71927 20.3888 7.90284 21.7772 10.3558 22.2964H10.4057C11.0914 22.4667 11.7957 22.5507 12.5022 22.5464C14.2831 22.5467 16.0361 22.1034 17.6035 21.2564L18.1326 20.9564L18.7316 21.0964L22.2856 21.9064L21.3971 18.2564L21.2573 17.6464L21.5568 17.0964C22.7922 14.9268 23.1959 12.3806 22.6924 9.93443C22.189 7.4882 20.8128 5.30961 18.8215 3.8064C16.9994 2.44564 14.7849 1.71557 12.5121 1.7264ZM12.5121 0.126404C15.1294 0.11196 17.6804 0.950844 19.7798 2.5164C22.0765 4.25241 23.6656 6.76494 24.2514 9.58665C24.8371 12.4084 24.3798 15.3472 22.9645 17.8564L24.4919 24.0264L18.4221 22.6364C16.6077 23.6206 14.5756 24.133 12.5121 24.1264C11.6743 24.1313 10.8391 24.0305 10.0263 23.8264C7.20951 23.2322 4.70045 21.6419 2.9583 19.3464C1.18126 17.0494 0.316981 14.1743 0.532404 11.2764C0.752714 8.38458 1.99927 5.6673 4.04646 3.6164C6.11335 1.59268 8.82248 0.357885 11.7035 0.126404H12.5121Z" fill="black"/>
</g>
<defs>
<clipPath id="clip0_1114_56950">
<rect width="24" height="24" fill="white" transform="translate(0.5 0.126465)"/>
</clipPath>
</defs>
</svg>
