<svg width="20" height="21" viewBox="0 0 20 21" fill="none" xmlns="http://www.w3.org/2000/svg">
<rect y="0.908997" width="20" height="20" rx="10" fill="#55A042"/>
<path d="M13.4247 10.873V12.6934C13.4247 12.8731 13.2788 13.019 13.0991 13.019H13.0209C12.8989 13.2749 12.6398 13.4531 12.3376 13.4531H10.3257V13.9007H12.2401C12.4199 13.9007 12.5657 14.0466 12.5657 14.2264V14.855C12.666 14.9449 12.7305 15.0738 12.7305 15.2188C12.7305 15.4897 12.5106 15.709 12.2401 15.709C11.9699 15.709 11.75 15.4897 11.75 15.2188C11.75 15.0738 11.8144 14.9445 11.9145 14.855V14.552H10.3257V14.855C10.4258 14.9445 10.4903 15.0738 10.4903 15.2188C10.4903 15.4897 10.2706 15.709 10.0001 15.709C9.72941 15.709 9.50995 15.4897 9.50995 15.2188C9.50995 15.0738 9.5742 14.9445 9.67449 14.855V14.552H8.08549V14.855C8.18556 14.9445 8.25003 15.0738 8.25003 15.2188C8.25003 15.4897 8.03035 15.709 7.75987 15.709C7.4894 15.709 7.26972 15.4897 7.26972 15.2188C7.26972 15.0738 7.33397 14.9449 7.43426 14.855V14.2264C7.43426 14.0466 7.58013 13.9007 7.75987 13.9007H9.67449V13.4531H7.66262C7.36002 13.4531 7.10126 13.2749 6.97905 13.019H6.9009C6.72116 13.019 6.57529 12.8731 6.57529 12.6934V10.873C6.57529 10.6932 6.72116 10.5473 6.9009 10.5473C7.08064 10.5473 7.22652 10.6932 7.22652 10.873V12.0727C7.35003 11.9859 7.50047 11.9332 7.66328 11.9332H8.68115C8.07442 11.357 7.67652 10.3947 7.67652 9.30458C7.6763 7.53953 8.7161 6.10899 9.99989 6.10899C11.2839 6.10899 12.3235 7.53953 12.3235 9.30458C12.3235 10.3947 11.9258 11.357 11.3191 11.9332H12.3367C12.4995 11.9332 12.6493 11.9853 12.7735 12.0727V10.873C12.7735 10.6932 12.9196 10.5473 13.0991 10.5473C13.2788 10.5473 13.4247 10.6932 13.4247 10.873Z" fill="white"/>
</svg>
