<svg width="16" height="16" viewBox="0 0 16 16" fill="none" xmlns="http://www.w3.org/2000/svg">
<path d="M14.1653 2.96529C14.4777 2.65288 14.4777 2.14634 14.1653 1.83392C13.8529 1.5215 13.3463 1.5215 13.0339 1.83392L7.99961 6.86824L2.96529 1.83392C2.65288 1.5215 2.14634 1.5215 1.83392 1.83392C1.5215 2.14634 1.5215 2.65288 1.83392 2.96529L6.86824 7.99961L1.83392 13.0339C1.5215 13.3463 1.5215 13.8529 1.83392 14.1653C2.14634 14.4777 2.65288 14.4777 2.96529 14.1653L7.99961 9.13098L13.0339 14.1653C13.3463 14.4777 13.8529 14.4777 14.1653 14.1653C14.4777 13.8529 14.4777 13.3463 14.1653 13.0339L9.13098 7.99961L14.1653 2.96529Z" fill="#7E8083"/>
</svg>
