<svg width="54" height="54" viewBox="0 0 54 54" fill="none" xmlns="http://www.w3.org/2000/svg">
<g id="cup">
<g id="Vector" filter="url(#filter0_d_7647_5786)">
<path d="M14.0752 12.5863C14.0752 10.1556 15.18 7.94591 17.1688 6.39912C18.2736 5.73621 19.5995 5.95718 20.4833 6.84106C21.3672 7.72494 20.9253 9.71368 19.8204 10.3766C19.1575 10.8185 18.7156 11.7024 18.7156 12.5863C18.7156 13.4702 19.1575 14.3541 19.8204 14.796C20.9253 15.4589 21.1463 17.0057 20.2624 18.1106C19.5995 19.2154 18.0527 19.4364 16.9478 18.5525C15.18 17.4477 14.0752 15.017 14.0752 12.5863ZM25.5657 18.7735C26.6705 19.4364 27.9964 19.2154 28.8802 18.3315C29.5431 17.2267 29.3222 15.9009 28.4383 15.017C27.7754 14.575 27.3334 13.6912 27.3334 12.8073C27.3334 11.9234 27.7754 11.0395 28.4383 10.5976C29.5431 9.93465 29.7641 8.38786 28.8802 7.283C28.2173 6.17815 26.6705 5.95718 25.5657 6.84106C23.5769 7.94591 22.4721 10.3766 22.4721 12.5863C22.4721 15.017 23.5769 17.4477 25.5657 18.7735ZM46.116 37.1141C44.1272 39.5448 41.2546 40.4286 38.382 39.9867C35.9513 45.069 30.869 48.6046 24.9028 48.6046H20.7043C12.5284 48.6046 5.6783 41.9754 5.6783 33.5785V22.9719C5.6783 21.6461 6.78315 20.7622 7.88801 20.7622H37.2771C38.382 20.7622 39.4868 21.6461 39.4868 22.9719C42.1385 22.9719 44.7901 24.2978 46.3369 26.7284C48.7676 29.822 48.5466 34.2414 46.116 37.1141ZM10.3187 25.4026V30.264C11.6445 30.9269 13.1913 31.3688 15.401 31.3688C18.0527 31.3688 20.0414 30.7059 21.3672 29.822C23.5769 28.0543 26.6705 27.1704 30.2061 27.1704C31.9738 27.1704 33.7416 27.3914 35.2884 27.8333V25.4026H10.3187ZM35.0674 33.7995V32.9156C33.7416 32.2527 32.1948 31.8108 29.9851 31.8108C27.3334 31.8108 25.3447 32.4737 24.0189 33.3576C21.8092 35.1253 18.7156 36.0092 15.18 36.0092C13.4123 36.0092 11.8655 35.7882 10.3187 35.3463C11.2026 40.2077 15.401 43.9642 20.4833 43.9642H24.6818C30.427 43.9642 35.0674 39.3238 35.0674 33.7995ZM42.8014 29.3801C42.1385 28.2752 41.0336 27.8333 39.7078 27.6123V33.5785C39.7078 34.2414 39.7078 34.9044 39.4868 35.3463C40.5917 35.3463 41.6965 34.9044 42.3595 34.0205C43.6853 32.6947 43.6853 30.7059 42.8014 29.3801Z" fill="black"/>
</g>
</g>
<defs>
<filter id="filter0_d_7647_5786" x="3.6783" y="6.01367" width="46.3749" height="46.5918" filterUnits="userSpaceOnUse" color-interpolation-filters="sRGB">
<feFlood flood-opacity="0" result="BackgroundImageFix"/>
<feColorMatrix in="SourceAlpha" type="matrix" values="0 0 0 0 0 0 0 0 0 0 0 0 0 0 0 0 0 0 127 0" result="hardAlpha"/>
<feOffset dy="2"/>
<feGaussianBlur stdDeviation="1"/>
<feComposite in2="hardAlpha" operator="out"/>
<feColorMatrix type="matrix" values="0 0 0 0 1 0 0 0 0 1 0 0 0 0 1 0 0 0 0.4 0"/>
<feBlend mode="normal" in2="BackgroundImageFix" result="effect1_dropShadow_7647_5786"/>
<feBlend mode="normal" in="SourceGraphic" in2="effect1_dropShadow_7647_5786" result="shape"/>
</filter>
</defs>
</svg>
