<svg width="24" height="24" viewBox="0 0 24 24" fill="none" xmlns="http://www.w3.org/2000/svg">
<path fill-rule="evenodd" clip-rule="evenodd" d="M12 10.4849C11.1633 10.4849 10.485 11.1632 10.485 11.9999C10.485 12.8366 11.1633 13.5149 12 13.5149C12.8367 13.5149 13.515 12.8366 13.515 11.9999C13.515 11.1632 12.8367 10.4849 12 10.4849ZM8.38499 11.9999C8.38499 10.0034 10.0035 8.3849 12 8.3849C13.9965 8.3849 15.615 10.0034 15.615 11.9999C15.615 13.9964 13.9965 15.6149 12 15.6149C10.0035 15.6149 8.38499 13.9964 8.38499 11.9999Z" fill="black"/>
<path fill-rule="evenodd" clip-rule="evenodd" d="M12 6.2099C8.80227 6.2099 6.20999 8.80217 6.20999 11.9999C6.20999 15.1976 8.80227 17.7899 12 17.7899C15.1977 17.7899 17.79 15.1976 17.79 11.9999C17.79 8.80217 15.1977 6.2099 12 6.2099ZM4.10999 11.9999C4.10999 7.64238 7.64247 4.1099 12 4.1099C16.3575 4.1099 19.89 7.64238 19.89 11.9999C19.89 16.3574 16.3575 19.8899 12 19.8899C7.64247 19.8899 4.10999 16.3574 4.10999 11.9999Z" fill="black"/>
<path fill-rule="evenodd" clip-rule="evenodd" d="M12 2.3999C12.5799 2.3999 13.05 2.87 13.05 3.4499V5.1599C13.05 5.7398 12.5799 6.2099 12 6.2099C11.4201 6.2099 10.95 5.7398 10.95 5.1599V3.4499C10.95 2.87 11.4201 2.3999 12 2.3999Z" fill="black"/>
<path fill-rule="evenodd" clip-rule="evenodd" d="M12 17.7899C12.5799 17.7899 13.05 18.26 13.05 18.8399V20.5499C13.05 21.1298 12.5799 21.5999 12 21.5999C11.4201 21.5999 10.95 21.1298 10.95 20.5499V18.8399C10.95 18.26 11.4201 17.7899 12 17.7899Z" fill="black"/>
<path fill-rule="evenodd" clip-rule="evenodd" d="M17.79 11.9999C17.79 11.42 18.2601 10.9499 18.84 10.9499H20.55C21.1299 10.9499 21.6 11.42 21.6 11.9999C21.6 12.5798 21.1299 13.0499 20.55 13.0499H18.84C18.2601 13.0499 17.79 12.5798 17.79 11.9999Z" fill="black"/>
<path fill-rule="evenodd" clip-rule="evenodd" d="M2.39999 11.9999C2.39999 11.42 2.87009 10.9499 3.44999 10.9499H5.15999C5.73989 10.9499 6.20999 11.42 6.20999 11.9999C6.20999 12.5798 5.73989 13.0499 5.15999 13.0499H3.44999C2.87009 13.0499 2.39999 12.5798 2.39999 11.9999Z" fill="black"/>
</svg>
