<svg width="25" height="25" viewBox="0 0 25 25" fill="none" xmlns="http://www.w3.org/2000/svg">
<path d="M8.89473 14.5545C8.81315 14.5614 8.73177 14.5649 8.65019 14.5649C8.42701 14.5649 8.20995 14.5324 7.9974 14.483L3.07917 19.4236C2.83776 19.6658 2.83776 20.0591 3.07917 20.3013L4.35205 21.5802C4.59346 21.8224 4.98458 21.8224 5.22531 21.5802L11.1364 15.6435L10.0409 14.4562L8.89473 14.5545Z" fill="black"/>
<path d="M21.8377 6.63939C21.6069 6.40764 21.2333 6.40764 21.0025 6.63939L17.8153 9.84096C17.5137 10.1436 17.0252 10.1436 16.7237 9.84096C16.4234 9.53857 16.4234 9.04826 16.7237 8.74594L19.8951 5.56079C20.1347 5.31987 20.1347 4.92931 19.8951 4.68784C19.6544 4.44723 19.2657 4.44723 19.0261 4.68784L15.856 7.87267C15.5544 8.17561 15.0664 8.17561 14.7649 7.87267C14.4639 7.57039 14.4639 7.07973 14.7649 6.77769L17.9514 3.57644C18.1829 3.34433 18.1829 2.96838 17.9514 2.73596C17.7206 2.50382 17.3464 2.50382 17.1149 2.73596L13.5296 6.33771C12.6676 7.20417 12.3953 8.4204 12.6744 9.52707L15.0778 11.9416C16.1795 12.2209 17.3908 11.9472 18.2518 11.0815L21.8377 7.47994C22.0691 7.24784 22.0691 6.87149 21.8377 6.63939Z" fill="black"/>
<path d="M4.42219 3.06147C4.29933 2.93802 4.13319 2.87033 3.96258 2.87033C3.92628 2.87033 3.88978 2.87344 3.85415 2.87942C3.64658 2.91471 3.46848 3.04856 3.37698 3.23907C2.32677 5.41962 2.76567 8.02881 4.47048 9.74141L7.52043 12.8048C7.82134 13.1074 8.22822 13.2749 8.65019 13.2749C8.69531 13.2749 8.74055 13.273 8.78567 13.2693L10.5565 13.1175L18.2781 21.4851C18.398 21.6152 18.5659 21.6907 18.7428 21.6942C18.7465 21.6942 18.7503 21.6942 18.7541 21.6942C18.9271 21.6942 19.0927 21.6256 19.2156 21.503L20.538 20.1743C20.6602 20.0519 20.7285 19.8857 20.7285 19.7124C20.7285 19.5392 20.6602 19.3729 20.5385 19.2504L4.42219 3.06147Z" fill="black"/>
</svg>
