<?xml version="1.0" encoding="utf-8"?>
<!-- Generator: Adobe Illustrator 22.0.0, SVG Export Plug-In . SVG Version: 6.00 Build 0)  -->
<svg version="1.1" id="Слой_1" xmlns="http://www.w3.org/2000/svg" xmlns:xlink="http://www.w3.org/1999/xlink" x="0px" y="0px"
	 viewBox="0 0 747 719" style="enable-background:new 0 0 747 719;" xml:space="preserve">
<path d="M717.3,218.4c-3.3-4.9-12.6-21.3-20.8-36.4c-8.1-15.1-16.8-30.7-19.4-34.5c-6.1-9.2-8.9-10.5-23.7-11.5
	c-12.8-0.9-13.9-1.3-12.4-4.1c0.9-1.5,2.2-1.9,6.5-1.9c3,0,5.5-0.4,5.5-0.9c0-0.4-2.7-2.2-5.9-4c-4.3-2.2-7.2-3.1-10.8-3.1
	c-3.8,0-5.4-0.5-7.6-2.6c-2.4-2.2-2.7-3-2.1-6.2c0.4-2,1.9-5.1,3.3-6.7c1.5-1.7,3.5-5.9,4.5-9.3c1.1-3.5,2.5-6.2,3.2-6.2
	c2,0,3.1-2.9,4.3-11.4c1.2-8.8,0.7-12.3-2-13.1c-1.5-0.5-1.7-1-0.8-3.3c4.1-10.4,6.1-29.6,3.8-36.1c-1.6-4.6-3.7-5.3-14.2-4.6
	l-9.2,0.6l-9.9-5.5c-9.5-5.3-10.2-5.6-17-5.6c-6.5,0-7.5,0.3-11.8,3.5c-3.8,2.8-5.6,5.2-9,12.2c-5.4,11.3-5.7,16.3-1,25.3
	c1.8,3.5,3.2,7.6,3.2,9.2c0,1.6,0.7,4.5,1.5,6.5c1.8,4.4,1.8,4.3,0,4.3c-2.2,0-2.8,4.1-1.5,10.7c1.6,8.3,2.7,10.7,5.9,12.6
	c1.8,1.1,3.1,2.8,3.5,4.9c0.4,1.8,1.8,5,3.2,7.1c3.2,4.9,2.6,7.2-1.9,6.2c-1.7-0.3-8.6-0.8-15.2-1.1l-12-0.5l6.5,3.3
	c4.6,2.3,6.6,3.9,6.8,5.5c0.5,3.4-6,4.3-20.6,2.6l-12-1.3l-21.4,6.6c-24.7,7.8-49,14.3-53.3,14.4c-5.3,0-17-3.8-39.7-13.1
	c-12.3-5-26.7-10.6-32-12.5c-9.3-3.3-9.8-3.4-13.3-2c-3.4,1.4-4,1.4-11.7-1.5c-5.6-2-8.5-2.6-9.2-1.9c-1.7,1.7-2.3,1.2-3.1-2.7
	c-0.9-5-4.1-11-6.4-12.3c-1.1-0.5-4-1-6.6-1c-9.2,0-13.1-1.7-19-8.3l-5.4-6.1l-1,2.8c-2.5,6.5-0.5,12.1,5.4,14.7
	c2.6,1.2,3.5,2,2.5,2.3c-0.8,0.3-9.9,3.3-20.1,6.6c-10.3,3.3-19.7,6.8-20.8,7.8c-2.5,2-2,5.2,0.9,5.2c1.7,0,17.6-3.1,23.4-4.6
	c2.3-0.5,2.6-0.3,2.6,2c0,1.9,0.6,2.7,2.5,3.2c1.6,0.4,2.5,1.3,2.5,2.6c0,1,0.5,2.4,1,3.1c0.6,0.7,1.9,2.4,3.1,3.9
	c2.5,3.4,5.4,3.5,15.7,0.8c5.6-1.5,7.8-1.7,9.7-0.8c1.3,0.6,2.1,1.6,1.8,2.3c-0.6,1.7,1.4,2.7,10.8,5.9c4.8,1.7,7.3,3,7,3.8
	c-0.2,0.7-0.6,2.9-0.9,4.9c-0.9,8.2,9.4,14.5,43.8,26.4c34.5,12,38.8,12.9,56.5,12.9c14.2,0,15.7-0.1,28.5-3.7
	c7.4-2,19.6-5.9,27-8.5l13.5-4.9l0.7,20.6c0.7,20.6-0.2,40.7-2.3,48.6c-0.6,2.2-3.7,9-6.9,15.2c-6.2,11.9-6.7,14.8-2.4,15.9
	c1.7,0.4,2.2,1,1.6,1.8c-1.2,1.4-3.2,12.3-3.6,19.8c-0.6,8.5-4.7,16-12.6,22.6c-5.4,4.6-20.9,18.6-39.1,35.3
	c-2.1,1.9-10.4,10.4-18.5,18.9c-25.2,26.3-39.4,43.6-47.1,57.6c-6.2,11.2-5.7,15.3,8.7,77.9c15.8,68.8,17.1,76.7,17,107.7
	c-0.1,17.3,0.2,24.2,1.1,25.6c1.1,1.8,0.8,2.7-2.6,7.7c-7.1,10.2-13.6,15.1-26.1,19.4c-8,2.8-11.4,6.6-11.4,12.8
	c0,2.6,0.7,7.3,1.6,10.4c2.1,7.5,3.6,8.1,22.8,8.7c21.8,0.6,25-0.8,26.3-11.9c0.7-6.8,2.2-9.7,9.1-18.2c5.9-7.3,9.7-10.7,11.8-10.7
	c2,0,1.8,5.5-0.7,20c-1.1,6.7-1.8,12.5-1.4,12.8c0.9,0.9,20.2,0.9,21.1,0c0.4-0.4,1.7-10.1,3-21.5c1.3-11.3,2.7-21,3.1-21.4
	c0.5-0.4,4.7-0.9,9.5-1.1c7.5-0.4,9.7-0.9,16-4.1c4.1-2,8.2-4.5,9.2-5.6c1.8-2,1.8-2.3-0.4-10.3c-10.5-39.5-23.6-77.1-34.5-98.8
	c-8.8-17.6-15.6-35.3-21.9-57.2c-2.1-7.3-2.3-9.3-1.4-11.9c1-2.8,0.8-3.9-1.2-7.5l-2.2-4.3l2-2.9c2.4-3.3,9.4-9.3,20.7-17.9
	c11.7-8.7,27.6-19.5,28.2-19c0.2,0.3,0,3.1-0.6,6.3c-5.1,28.9-9.2,102.8-6.2,110.6c1.5,3.9,12.5,15.1,40.5,41.1
	c34,31.6,46,43.8,48.5,49c1.2,2.6,2.6,9.3,3.5,17.2c0.9,7.1,1.9,14.6,2.2,16.6l0.5,3.7l-7.3,1.2c-14.6,2.4-15.7,3.8-16.1,20.8
	c-0.2,9.9-0.1,10.2,2.6,12.9c2.7,2.8,2.9,2.8,17.1,3.1c11.3,0.3,15,0,17.3-1.1c3.1-1.6,3.5-2.2,8.7-13.9c4.1-9.2,7.8-14.4,11.9-16.4
	c6.4-3.3,7.3,1.3,3.2,16.1c-1.7,6.2-2.1,9.1-1.3,9.6c1.9,1.2,10.2,1.8,14.3,1.1l4-0.7l0.7-6c0.4-3.3,2.1-10.7,3.8-16.5
	c1.6-5.8,3-11.6,3-13c0-3.5,2.2-6.3,7.3-9.3c5.1-3,13.7-11.9,13.7-14.2c0-2.5-5.6-13.2-11.6-22.2c-12.3-18.2-36.1-39.6-85.7-77.2
	L570,514.7v-4.3c0-3.7-0.4-4.5-3-6.1c-2.2-1.2-3-2.5-3-4.5c0-1.8-0.8-3.3-2.5-4.4c-1.3-0.9-2.7-2.4-3-3.4c-0.3-1.1,1.4-10,3.9-19.9
	c8.8-35.1,17.4-73.4,22-98.1c2.5-13.3,4.1-19,6.5-23.8c5.9-11.7,6.9-19,4.5-32.4l-0.6-3.7l8.6-4.1c4.7-2.3,9.1-3.8,9.6-3.5
	s4.5-0.9,8.8-2.8c7.7-3.3,7.8-3.3,10.2-1.5c3.9,2.9,13.7,4.1,19.4,2.4c11.2-3.4,40.8-24.4,68.4-48.5
	C732.5,245,732.2,240.7,717.3,218.4z M581,80.4c-3.7-7.5-1.5-10.2,9.2-11.4c9.4-0.9,33.2-1.2,39.2-0.4c3.7,0.6,5,1.2,6.1,3.3
	c1.2,2.4,1.1,3.2-0.5,6.8c-2.7,6.1-5.8,7.7-13.1,7c-3.2-0.4-7-1.4-8.4-2.3c-2.8-1.8-4.9-7.3-4.3-11.5c0.4-2.4,0.1-2.9-1.6-2.9
	c-1.9,0-2.1,0.5-1.8,5.3c0.5,7.5-2,10.3-10.5,11.9C587.2,87.7,583.8,86.4,581,80.4z M681.4,235.7c-1.6,1.1-1.7,1.7-0.6,3.4
	c0.7,1.1,1,2.4,0.7,2.9s-4.7,4.3-9.7,8.6c-10.9,9.1-17.2,12.2-33.3,16.5c-13.1,3.5-15.5,4.8-15.5,8.9c0,2.4-0.9,3.1-9.2,6.9
	c-5.3,2.4-9.5,3.8-10,3.3c-1.5-1.5,0.8-5.6,4.7-8.6c5.7-4.4,7.4-9.3,7.9-23.2c0.2-6.5,1.1-15,2-18.9c2.8-11.6,12.5-28,23.1-38.9
	c3.3-3.3,4.2-3.7,7.2-3.3c1.8,0.3,4.7,1.6,6.4,2.8c3.9,2.7,16.7,17.4,21.3,24.3c1.9,2.9,4.3,7.2,5.2,9.6
	C683.3,234.1,683.3,234.3,681.4,235.7z M320.9,230.6c1.8-4.6,1.3-4.9-3.5-2.1l-4.6,2.7l-2.9-2.1c-2-1.5-4.3-2.1-7.7-2.1
	c-4.3,0-5.5,0.5-9.3,3.9c-4.2,3.7-4.5,4.2-4.7,9.7c-0.3,7.5-2,10.2-6.1,9.6c-2-0.3-4,0.3-6,1.7c-3.8,2.7-22.6,6-38.6,6.7
	c-6.6,0.3-14,1.2-16.4,2c-2.5,0.8-4.8,1.4-5.2,1.4c-1.4,0-6.9-19.1-8.4-29.2c-1.9-12.8-5.5-47.5-5.5-53.6c0-3.8,0.5-5.3,2.4-7.1
	c2.4-2.3,3.7-6.3,3.6-11.4c0-3.1,0.6-3.4,3.2-1c1.7,1.5,1.9,1.4,2.9-1.5c1.3-3.7,2.5-3.4,3.4,0.8c0.7,3.2,1.9,3.8,3.2,1.6
	c0.4-0.7,1.8-1.8,3.1-2.5c1.4-0.7,2.2-2.1,2.2-3.6c0-1.6,0.6-2.5,1.5-2.5c0.8,0,1.5-0.5,1.5-1.2c0-0.6,1-2.2,2.1-3.4l2.1-2.3
	l-2.8-2.4c-2.9-2.5-2.9-2.5-1-4.6c1.7-1.9,2.1-2,3.6-0.6c2.1,1.9,4.9,1,6-2.1c0.5-1.2,0.6-5.5,0.3-9.5c-0.5-6-0.4-7.3,1-8.1
	c1-0.5,1.7-1.8,1.7-2.8c0-1.3,0.7-2,2-2c2.6,0,4.4-3.4,3-5.9c-1.7-3.3-1.2-6.1,1.5-7.3c3.2-1.4,3.2-2.6,0.1-3.8
	c-2.1-0.8-2.4-1.4-2-4.2c0.3-1.8,0-4-0.5-4.8c-0.8-1.2-1.2-1.2-2.9,0.3c-2.7,2.5-3.5,2.1-2.8-1.5c0.7-3.3-1.4-6.8-4.1-6.8
	c-0.7,0-1.3-0.4-1.3-1c0-0.5-1.2-1.7-2.6-2.7c-2.1-1.3-3-1.4-4.5-0.5c-1.7,1.1-1.9,0.9-1.9-1c0-3.2-1.2-4.7-3.5-4.5
	c-1.7,0.2-2.1-0.6-2.6-5.9c-1.7-17.8-12.5-29.5-30-32.4c-7-1.1-7.1-1.1-14.6,0c-9.9,1.5-17.8,7.2-23.8,17.1c-1.1,1.9-2.9,3.5-4,3.7
	c-9.2,1.3-13.8,2.7-14.3,4.4c-0.5,2.2-2.2,2.4-2.2,0.2c0-1.4-0.7-1.5-3.7-1.1c-2,0.4-4.2,0.2-4.9-0.4c-0.9-0.7-1.6-0.5-2.4,1.1
	c-0.8,1.5-1.7,1.9-3.2,1.4c-2.5-0.7-3.8,0.9-3.8,4.9c0,2.4-0.3,2.7-2,2.2c-1.2-0.4-2.7-0.2-3.4,0.5c-2,1.6-2.9,7.6-1.5,10.1
	c0.8,1.6,0.8,2.3-0.1,2.9c-1.5,0.9-16.2,0-17.6-1.1c-1.5-1.2-2.4,0-2.4,3.4c0,1.6-0.8,4.2-1.7,5.8c-1.7,2.8-1.7,2.9,1.2,5.9
	c2.8,3,2.9,3,0.6,3c-2.1,0-2.3,0.3-1.8,3.5c0.6,3.9,0.2,4.3-2.5,1.8c-1.7-1.5-1.9-1.5-3.3,0.3c-0.8,1-1.3,2.9-1.1,4.2
	c0.2,1.2-0.1,2.5-0.5,2.8c-0.5,0.3-0.7,1.5-0.3,2.8c0.3,1.4-0.1,2.8-1.4,4c-1.1,0.9-1.8,2.5-1.5,3.5c0.4,1.4-0.7,2.4-4.3,4.2
	c-3.9,1.8-7.8,2.5-20.4,3.5c-15,1.2-27.4,3.5-29.5,5.5c-0.5,0.6-0.5,0.9,0.2,0.9c1.2,0,9.3,12.5,9.3,14.4c0,0.7-1.2,2.2-2.6,3.5
	c-3.7,3.2-3,7.2,1.4,8.3c3,0.8,3.9,0.5,8.6-3.1c2.9-2.2,9-5.8,13.7-8c4.6-2.2,12.6-6.7,17.8-10c5.2-3.3,9.8-5.8,10.2-5.5
	c0.5,0.3-2.4,3.4-6.5,6.9c-4,3.5-10.5,10.7-14.5,15.9c-4,5.2-9,11.1-11.1,13c-7.9,7.1-3.5,12.1,9.4,10.9c6.4-0.6,6.6-0.5,10.5,3
	c3.7,3.3,11.9,8.3,12.6,7.5c0.1-0.2,4-8.9,8.5-19.5c4.9-11.2,8.7-19,9.4-18.7c0.6,0.2,1.2,2.1,1.3,4.1c0.1,2.1,0.7,4.7,1.3,5.8
	c1,1.9,0.4,3.2-4.9,10.6c-8,11-15.7,26.7-22.6,46.4c-3.1,8.8-7.4,19.7-9.6,24.4c-8.3,17.5-9.4,23.3-10.9,54
	c-0.9,20.6-1.2,22.5-3,23.8c-2.4,1.7-2.6,5.9-0.5,10.9c1.6,3.9,1.1,6.3-5.2,24.2c-3.4,9.8-5.8,13-12.5,16.6
	c-3.8,2.1-6.4,4.3-7.7,6.7c-1.2,2-2.8,4.2-3.6,4.9c-1.8,1.5-2,4-0.4,4c0.7,0,3.5-2.5,6.3-5.5c2.8-3,6.3-5.7,7.9-6.1
	c1.5-0.3,2.7-0.3,2.7,0c0,0.3-1.5,2.7-3.3,5.3c-3.4,4.9-9.6,20.8-8.4,21.9c1.2,1.3,3-1.1,6.7-9c3.8-7.9,7.9-14.2,8-12
	c0,0.6-1.5,4.6-3.4,9c-3.5,8.2-5.7,20.4-3.7,20.4c1.5,0,3.9-5,4.7-9.6c0.6-4,9-18.4,11-19.1s2.6,2.9,3.1,19.4
	c0.3,9,0.9,16.3,1.3,16.3c3,0,4.6-6.3,5.9-23.2c1.2-14.8,3.7-26.7,5.7-27.5c0.9-0.3,4.1,2,8.3,6.1c6.9,6.6,8.4,7.4,11,5.7
	c1.2-0.8,0.8-1.8-2.3-5.5c-2.9-3.6-4-6.2-5.5-12.9c-2.2-9.9-2.8-11.2-7.5-15.5c-4.3-3.9-4.5-4.9-1.1-6.2c1.4-0.5,2.7-1.5,2.9-2.2
	c0.2-0.7,0.8-2.8,1.4-4.7c0.8-2.5,0.8-4.3-0.1-7.2c-1.3-4.2-2.7-5.2-2.7-1.9c0,1.1-0.4,2-1,2c-0.5,0-1-0.3-1-0.6
	c0-0.5,6.8-25.1,13.1-47.4c1.7-5.8,3.7-15.6,4.5-21.9c0.8-6.3,2.1-13.1,2.8-15.2c1.3-3.7,22.5-34.4,23.2-33.6c0.2,0.2-0.2,1.9-1,3.8
	c-6.4,15.4-11.2,61.4-8.7,83.4c1.4,12.3,3.4,18.5,7.2,22.6c2.8,3,3.3,3.1,7.9,2.6c2.8-0.3,5-0.3,5,0.2c0,0.4,1.1,1.3,2.4,2l2.4,1.3
	l-6.4,12.2c-12.2,23.5-14.7,33-12.5,47.6c1.4,9.1,6.4,20.1,15.1,33c3.4,5.1,7.6,12.2,9.4,15.9l3.1,6.6l0.3,21.5
	c0.2,15.7-0.1,23.3-1.1,28.4l-1.4,6.8l9.6-0.5c5.3-0.3,14.9-1.2,21.4-2.2c6.5-0.9,12.3-1.5,12.9-1.3c0.6,0.2-1.1,1.7-3.8,3.3
	c-5.8,3.4-20.6,17.9-25.4,25c-1.9,2.7-10.3,16.2-18.7,30c-27.8,45.8-34.3,55.1-39.2,56c-1.3,0.2-3.1,1.1-4,1.9
	c-0.9,0.7-2.7,1.7-4.1,2.1s-5.2,2.1-8.4,3.8c-6.1,3.2-9.6,7.4-9.6,11.5c0,2.1-0.3,2.3-3.3,1.7c-1.7-0.4-3.4-0.7-3.7-0.7
	c-2.3-0.1-3,0.5-3,2.2c0,4.1-3.1,17.1-8,33.1c-2.8,9-5,16.9-5,17.6c0,1.6,8.1,4.5,11.6,4.1c2.8-0.3,3-0.7,4.7-8.3
	c2-8.6,3.7-13,5.2-13c0.6,0,1.2,4.7,1.5,10.5s1.1,11.5,1.8,12.8c2.5,4.5,5.7,5.4,31.1,9.5c2.1,0.3,8.7-9.5,8.6-12.7
	c-0.1-1.4-0.5-2.9-0.8-3.3c-0.4-0.3-0.7-1.5-0.7-2.5c0-1.1-1.6-3.9-3.6-6.3l-3.5-4.4l1.1-9.8c1.4-12.4,4.7-27.7,6-28.1
	c0.6-0.2,1-1.3,1-2.4c0-2.5,2.6-6.3,10.4-15.3c19-22,52.6-55.1,70-68.9c3.8-3,16.6-12.2,28.5-20.3c29.4-20.2,37.7-27.1,42.8-35.8
	c2.5-4.1,0.7-12.9-4.6-23.3c-1.2-2.3-1.9-4.2-1.6-4.2c0.2,0,5.2,3.1,11,6.9c5.7,3.8,12.3,8,14.5,9.2c2.2,1.3,4,2.5,4,2.9
	c0,0.3-4.2,3.7-9.2,7.5c-5.1,3.8-9.9,7.7-10.6,8.5s-3.1,5.3-5.4,10c-6.8,14-16.9,46.5-28.3,90.5c-3.2,12.6-5.3,18.7-6.9,20.5
	c-1.2,1.4-4.8,5.3-7.9,8.8c-9.6,10.6-10.7,14.5-12.8,44c-0.9,12.4-0.9,16.6,0,17.5c0.6,0.6,3.7,1.2,6.9,1.2h5.7l0.2-6
	c0.4-9.9,1.3-14.5,2.8-14.5c1.6,0,2.5,2.2,2.5,6.3c0,5.2,1.9,10.6,5,14l2.8,3.2h13.9h13.8l2.1-4.5c2.3-4.6,2.5-11.1,0.5-11.8
	c-0.6-0.2-1.1-1-1.1-1.8c0-1.6-5.2-6.4-8.1-7.6c-2-0.8-4.9-9.4-7.5-22c-2.4-11.7-1.1-17.8,7.4-34.6c13-25.7,28.3-51.7,50.2-85.2
	c19.7-30,25-41,26.6-54.8c1.2-11.2-6-25.2-24.6-47.4c-4.4-5.3-8-9.9-8-10.2c0-0.3,1.1-2.2,2.5-4.2s3.4-6.6,4.5-10.2l2-6.4l-2.9-3.7
	c-5.7-6.9-21.6-21.8-25.7-23.9c-2.3-1.2-8.8-4-14.3-6.2c-5.6-2.2-11.2-4.6-12.4-5.4c-1.2-0.8-6.6-3.3-11.9-5.6
	c-14.9-6.4-17.7-8.6-22.2-16.8c-3.7-6.7-4.2-7.2-7.2-7.2c-2.3,0-3.7-0.6-4.4-2c-0.6-1.1-1.7-2-2.5-2c-1,0-1.5-1.1-1.5-3.4
	c0-2.8-1-4.2-6-8.9c-3.3-3.1-6-6.3-6-7.1s1.5-2.5,3.3-3.7c1.7-1.3,3.5-2.8,3.9-3.4c1.6-2.2,0.6-6.2-3.2-12.5
	c-2.4-4-4.4-8.8-4.9-12.1c-1.3-7.5-2.4-17.5-1.8-16.9c0.2,0.3,4.3,7.6,9.1,16.4c4.7,8.7,10.2,18.1,12.1,21c3.4,5.2,3.4,5.2,11.2,6.6
	c15.2,2.8,23,1,47.9-11c11.5-5.5,15.4-6.9,20.4-7.3c5.9-0.5,10.6-2.9,9.4-4.8c-0.2-0.5,3.5-2.8,8.4-5.3c6.9-3.4,9.2-4.2,10.6-3.4
	c3.7,2.1,13.6-5.4,13.6-10.2c0-1.6,0.8-4.2,1.7-5.8c1.5-2.5,1.5-3.4,0.5-5.4C320.2,234,320.2,232.7,320.9,230.6z M67,335.5
	c-1.3,1.6-5,2.1-5,0.7c0-1.5,1.3-2.2,3.8-2.2C67.9,334,68,334.2,67,335.5z M67.1,330c-1.3,1.1-2.8,2-3.5,2c-0.6,0,0-0.9,1.4-2
	C68.3,327.4,70.2,327.5,67.1,330z M199.6,89.7c-2.6-8.9-5.3-8.7-10.3,0.5c-3.6,6.7-7.9,9.1-16,9.2c-6,0.1-6.7-0.1-9.3-3.1
	c-4.4-4.9-6.3-13.2-3.7-16.6c2.7-3.7,23.1-4.6,31.3-1.4c3.3,1.3,4.9,1.4,8,0.5c4.7-1.2,19-0.6,20.6,1c2.7,2.7-0.5,16.2-4.3,18.2
	c-1,0.6-4,1-6.7,1C203.2,99,201.9,97.7,199.6,89.7z"/>
</svg>
