<?xml version="1.0" encoding="utf-8"?>
<!-- Generator: Adobe Illustrator 22.0.0, SVG Export Plug-In . SVG Version: 6.00 Build 0)  -->
<svg version="1.1" id="Слой_1" xmlns="http://www.w3.org/2000/svg" xmlns:xlink="http://www.w3.org/1999/xlink" x="0px" y="0px"
	 viewBox="0 0 1280 664" style="enable-background:new 0 0 1280 664;" xml:space="preserve">
<path d="M927.8,6.2C922.1,16,917,27.9,917,31.4c0,1.7,0.9,6,2,9.6c1.1,3.6,2,8.3,2,10.5c0,5.2-2.8,19.7-4,20.9
	c-0.6,0.6-2.3,0.4-4.6-0.7l-3.6-1.8L898.5,76c-5.7,3.3-10.6,6-10.9,6c-0.3,0-2.3-2.6-4.5-5.9c-8.3-12.2-23.6-22.8-38.6-26.6
	c-8.2-2.1-23.3-2.1-32,0C794.7,53.8,779,66,771.6,81c-13.6,28.1-2.2,58.7,27.9,74.9c13.2,7.1,15.5,9.2,15.5,14.8
	c0,5.6-1,5.8-18.2,3.5c-7.6-1-13.8-1.6-13.8-1.2c0,0.3,2.5,3,5.5,6s5.5,6,5.5,6.6c0,0.6-1.5,1.4-3.2,1.8c-1.8,0.4-7.1,1.8-11.7,3.2
	c-10.6,3.2-13.7,6.1-14.7,13.3c-0.6,4.5-1.4,5.9-6.1,10.6c-3.5,3.6-6.2,5.5-7.7,5.5c-1.3,0-2.6,0.6-2.9,1.2c-0.2,0.7-4.8,4-10.2,7.3
	c-18.3,11.3-31.7,26.1-40.1,44.1c-11.4,24.6-17.4,36.2-19.1,36.8c-2.7,1-22.3,12.9-22.3,13.5c0,0.3,6,2.8,13.2,5.6
	c16.3,6.1,16.4,6.3,12.5,18.9c-3.4,11.1-2.6,13.5,7.7,23.8c5.2,5.2,7,5.7,11.7,3.3c3.3-1.7,4.9-1.3,4.9,1.3c0,2.5,3.1,6.5,4.1,5.5
	c1.5-1.5,4.9-12.5,4.9-16c0-4.3-1.8-8.6-6.2-14.9c-4.8-6.7-5-7.9-2.7-11.8c2-3.4,6.9-21.1,6.9-25c0-1.1,2.2-5.5,5-9.6
	c2.7-4.1,5.8-9.7,6.7-12.4c1.2-3.3,2.5-5.1,4.2-5.8c1.4-0.5,6.5-4.9,11.5-9.8c20.6-20.2,36.5-35,37.9-35c0.9,0,1.8,2.1,2.6,5.7
	c0.7,3.2,2.8,9.4,4.7,13.8l3.4,8.1v18.2V305l-8.6,16.2c-7.5,14.4-22.4,45.1-22.4,46.4c0,0.2-1.6,3.9-3.6,8.1c-3,6.3-3.5,8-2.5,9.5
	c1,1.6,0.8,2.5-0.8,5.1c-1.1,1.9-1.7,3.8-1.2,4.5c0.7,1.2-2.3,18.6-4.7,27.7c-0.6,2.2-2.2,9.2-3.6,15.6c-2.2,10.5-3.5,13.9-13.4,34
	c-11.7,23.7-20,38.9-21.3,38.9c-0.9,0-1.4-2.8-2.9-16.1c-1.1-10.7-3.7-17.8-23.4-62.7c-5.8-13.4-10.4-24.7-10.1-25.2
	s3.3-2.6,6.5-4.6l6-3.7l-8.2-8.6c-9.9-10.3-17.2-20.5-33.5-46.9c-11.8-19-12.3-19.9-12.3-25.3c0-14.4,4.9-26.6,17.8-43.9
	c10.3-13.8,15.5-22.8,18.6-32.2c4-11.7,3.6-15.3-2.9-28.3c-8.2-16.5-8.5-25.4-1.2-36.2c4.4-6.3,13.5-13.1,33.6-24.9
	c28.1-16.4,43.9-28.3,47.7-35.6c1.8-3.5,0.9-7.2-3.2-12.5c-3.4-4.5-8.3-7.6-34.9-21.8c-26.3-14-37.2-20.9-52.3-33.3
	c-6.3-5.1-12.5-9.5-13.7-9.8c-3-0.8-19.5,3.4-21.9,5.5c-2.4,2.1-1.9,11.1,1,16.7c3.4,6.5,9.8,9.3,26.5,11.9
	c5.3,0.8,10.5,1.8,11.5,2.1c5.5,2,55.4,37.8,55.4,39.8c0,3.5-10.8,10-49.7,29.8c-16.1,8.1-30.2,14.8-31.3,14.8c-2.7,0-4.2-4-3.8-9.9
	c0.3-4.4,0.4-4.6,3.8-5.1c6.1-0.9,7.4-7.9,3.4-19.1c-1.1-3.2-1.3-6.4-0.8-12.8c1.7-22.2-6.2-40.1-20.5-46.5
	c-6.9-3.1-20.2-5-27.8-4.1c-8.5,1-17.2,8.1-24.5,20c-4.1,6.6-5.7,12-9.9,31.4c-3.3,15.8-4.7,20.2-8.9,28.9l-4.9,10.2l-4.8-3
	c-13.8-8.5-47.8-31.6-48.1-32.6c-0.4-1.5,19.4-21.5,28.3-28.6c8.8-7,20.4-14.7,27.5-18.3c11.6-5.9,17.9-7.6,30.5-8.4
	c15.3-1,17.3-2,21.5-10.5c4.4-8.9,3.9-10.8-3-12.2c-3-0.6-9-2.3-13.2-3.7c-12.5-4.4-13.5-4.1-25.3,7.3c-7.8,7.5-8.9,8.2-39,23.3
	c-17,8.6-34.5,17.9-38.8,20.7c-9.1,6-8.4,6.2-15.9-4.6c-5.2-7.6-6.3-8.4-11.4-8.2c-1.9,0.1-4.5-1-7.3-3c-6.3-4.6-18.7-9.4-25.7-10
	c-5.3-0.4-6.7-0.1-10.7,2.3c-4.2,2.4-5.2,2.6-11.1,2c-7.4-0.8-9-0.2-15.8,6.1c-5.1,4.7-8.8,6.7-15.7,8.4c-7.8,2-11.1,7.6-7.5,12.8
	c2.5,3.7,1.4,6.4-4.5,10.3c-7.4,4.9-7.6,5.7-4.6,12.8s3,8.2,0.8,14.3c-1.5,4.4-1.5,4.9,0.1,9.2c1,2.5,3.1,5.7,4.7,7.1
	c2.7,2.2,4,2.5,10.7,2.5h7.6l-3.2,3.3c-6.6,6.9-6.4,16.9,0.5,20.5c3.3,1.8,9.3-1.2,9.3-4.7c-0.1-1.1-0.7-0.7-2.1,1.1
	c-2,2.7-5.2,3.6-7.5,2c-3.5-2.3-4.5-10.2-1.9-15.2c2.3-4.4,4.6-3.8,7.3,1.9c1.4,3.2,3.4,5.6,5.6,6.9c3.9,2.3,5.3,7.1,4,13.8
	c-0.6,3.5-3.3,11.4-3.8,11.4c-0.2,0-4-1.6-8.6-3.6c-13.9-6.1-25.5-5.6-28,1.1c-1.7,4.5-2.9,22.1-3.5,50.1
	c-0.3,15.3-0.8,31.5-1.1,35.9l-0.5,8l-20.7-0.7c-15.9-0.5-22.4-1.1-28.2-2.6c-4.1-1.1-7.7-1.8-7.9-1.6c-0.2,0.2,1.3,4.9,3.3,10.4
	c2,5.6,3.6,11,3.6,12c0,2-4.5,5-7.4,5c-0.8,0-2.4-1.5-3.5-3.4c-1.2-1.9-5-6.1-8.6-9.4c-4.7-4.5-7.4-6.2-10.3-6.7
	c-4.1-0.7-11.7,0.3-10.7,1.4c0.3,0.3,4,2.4,8.3,4.6c8.4,4.4,10.9,7.5,9.8,11.9c-0.9,3.8-3.1,4.2-8.1,1.8c-3.9-1.9-4.5-1.9-5.6-0.6
	c-1.8,2.2-0.2,4.4,5.7,7.6c9.1,5,17.6,7.1,25.9,6.5c7.4-0.5,7.5-0.5,7.5,1.8c0,3.6-1.8,7.7-4.8,10.9l-2.7,2.9l4.3-0.7
	c14.5-2.2,68.9-27.4,76.6-35.5c1.7-1.7,3.3-3.1,3.7-3.1c1.6,0,14.8,12.2,16.8,15.4c2.9,4.7,2.6,7.3-1.6,13.6
	c-12.9,19.3-15.5,21.2-49.4,35.8c-32.9,14.2-45.6,21.3-67.6,37.8c-5,3.8-10,8-11.1,9.4c-3.2,4.2-6.7,18.7-16.8,71
	c-3,15.7-6.4,32.3-7.6,37c-2.3,9.6-4.3,13.2-3.4,6c0.4-2.5,1.8-14.4,3.1-26.6l2.5-22.1l-3.6-12.4c-6.8-23.5-13.7-39.2-32.1-73.4
	c-18.8-34.8-26.2-51.9-24.7-56.9c0.3-1,1.9-3.9,3.5-6.4c1.6-2.5,2.9-5.5,2.9-6.5c0-1.1-2-7.8-4.4-15.1c-7-20.5-10-41.8-10-70.8
	c-0.1-15.8,0.1-19,1.5-20.3c1.5-1.5,1.9-1.4,5.1,0.5c2,1.1,5.3,4.6,7.3,7.8c2.1,3.1,6.6,9.3,9.9,13.8c3.4,4.4,7.5,10.1,9.3,12.7
	c3.8,5.5,7,6.7,11.8,4.4c4-1.9,18.8-14.6,38.5-33l14.5-13.5l3,1.8c6.7,4.1,9.2,5,14.3,5c2.9,0,6.3-0.5,7.5-1.1c3-1.6,7.7-6,7.7-7.4
	c0-0.6-2-3.1-4.5-5.5c-2.5-2.4-4.5-4.9-4.5-5.5c0-0.6,3.5-2.8,7.8-4.9c7.7-3.8,15.4-8.7,20.2-12.7c1.9-1.6,2.5-3.1,2.6-6.3
	c0-2.2,0.4-5.1,0.8-6.4c0.6-1.8,0.1-2.8-2.3-4.9c-1.7-1.5-3.1-3.7-3.1-4.8c0-3.9-2.8-6.5-7.1-6.5c-3.7,0-3.9-0.2-3.9-3
	c0-7.2-11.8-5.2-19.6,3.2c-3.7,4.1-5.5,7-7.8,12.8c-1,2.5-3.4,6.6-5.3,9.2l-3.6,4.7l-4.4-3.9l-4.5-3.9l-6.2,3.1l-6.3,3.1l2.3,6.3
	c1.3,3.5,2.1,7,1.8,7.7c-1.8,4.9-28,21.7-33.7,21.7c-5.5,0-12.2-8.2-17.7-22c-1.3-3-3.3-6.5-4.6-7.7c-1.6-1.4-2-2.4-1.3-2.9
	c0.6-0.3,1.4-0.3,1.8,0.2c1.1,1.7,11.6,1.7,12.9,0.1c1.1-1.2,0.8-1.9-1.5-3.7c-1.5-1.2-4-2.4-5.4-2.7c-4-0.8-12.9-9.2-17.8-16.7
	c-2.6-4-5.3-6.8-6.9-7.4c-3-1.1-12.2-8.8-12.2-10.3c0-0.5,2.9-0.9,6.4-0.9h6.4l3.2-4.9c4.2-6.7,5.6-7.7,7.6-6
	c2.4,2,3.9-0.6,5.9-10.9c3.2-16.2,5.7-20.8,14.3-25.7c10.1-5.9,16.2-14.9,16.2-24.4c0-8.5-6.2-19.3-14.7-25.5
	c-7.8-5.7-28.1-11.6-39.7-11.6c-3,0-9.3,0.7-14.2,1.5c-23,4-37.6,12.5-44.5,26.1c-3.2,6.5-3.4,7.3-3.2,16.4
	c0.2,12,1.6,15.3,9.6,23.3c4.7,4.6,7,7.8,8.9,12.7c3.1,7.7,2.5,9.1-4.9,10.9c-4.1,1.1-4.9,1-8.7-1.3c-2.4-1.4-4.8-3.2-5.6-4
	c-1-1.3-3.6-1.6-13.2-1.6c-11,0-12.4-0.2-19-3c-3.8-1.7-7.1-3-7.3-3c-0.1,0-0.8,1.3-1.5,2.9c-1.2,3.1-0.5,5.6,2.4,8.1
	c2.5,2,2,2.8-3.1,5.4c-6.5,3.3-7.6,4.7-13.2,17.2C37,146.5,26.8,173,27.2,174c0.2,0.4,6.6-2.1,14.3-5.6s14.1-5.9,14.3-5.4
	c0.5,1.4-2.1,13.8-10.9,51.5c-9.7,41.9-10.5,44.7-12.7,44.3c-1.4-0.3-1.7-1.7-1.7-8.2v-7.8l-5.3-3.1l-5.3-3l-4.8,4.7
	c-2.5,2.5-5.4,4.6-6.3,4.6c-2.3,0-4.2,6.7-7,24.6c-1.8,11.7-2,14.7-1,16.6c2.4,4.5,12.4,9.5,16.3,8.3c0.9-0.3,2.4-3,3.5-6
	c1-3,2.4-5.5,3.1-5.5c1.8,0,11,4.7,11.8,6.1c0.4,0.6,0.1,5.5-0.6,11c-0.7,5.4-1,10.2-0.7,10.5c0.3,0.3,4.6,1.2,9.4,1.9
	c4.9,0.8,10.1,1.7,11.6,2l2.6,0.6l-2.1,4.7c-1.7,3.7-2.2,7.2-2.5,16.3c-0.6,18.2,2.2,33.5,13.2,70.9c3,10.2,7.3,26.9,9.5,37.3
	c7.5,34.2,5.8,40.4-15,57c-10.7,8.6-16.9,15.2-34.6,36.3l-10.2,12.1l4,12.9c5.5,18.2,6.8,21.6,19.2,51.7L50.4,642l8-0.7
	c11.3-0.9,13-1.5,13.4-4.4c0.6-4.4,6-24.2,10.8-38.9c6.3-19.8,14.5-41.7,32.2-86.3l15.1-37.8l-1.9-23.2c-3.3-40.5-6.1-80.7-5.8-82.9
	c0.2-1.3,6,7.9,16.9,27.3c9.2,16.2,23.5,41.4,31.8,56.1c8.3,14.6,15.1,27.5,15.1,28.5c0,2.1-6.1,12.4-24.7,41.8
	c-15.7,24.8-20.4,33.1-26.4,46.6c-5.8,12.8-14.4,38-18.9,55.4c-1.7,6.6-3.3,12.7-3.6,13.6c-0.3,1.2,0.4,1.8,2.8,2.3
	c8.8,1.6,105.5,6.1,109.5,5.2c1.8-0.5,2.3-1.1,1.8-2.6c-0.5-1.6,0.1-1.9,5.2-2.5c3.2-0.3,6.5-0.7,7.3-0.8c1.1-0.2,1.7-2,2.1-6.2
	c0.9-9.7,5.2-15.9,10.5-15.3c4.6,0.5,7.9,6.6,9.9,18l0.6,3.8h7.9c4.3,0,8.5-0.3,9.4-0.6c2.3-0.9,2.1-10.2-0.9-36.1l-0.4-4.2l14,0.6
	l14.1,0.6l-0.6-3.9c-0.3-2.1-3.7-23.3-7.6-47l-7-43.1v-32.9l0.1-32.9l28.2-17.3c15.5-9.5,36-22.2,45.6-28.2
	c9.6-6.1,17.6-10.8,17.9-10.5c0.3,0.2-5.5,10.9-12.9,23.7c-16.8,29.4-27,49.2-30.2,58.8c-2.9,8.4-3.9,20.4-5.7,68.5
	c-0.6,14.8-1.5,37.5-2,50.4c-0.6,12.9-0.8,23.6-0.6,23.9c0.2,0.2,6.7,0.6,14.3,0.9l13.8,0.6l-8.2,2.8c-11.2,3.7-14.1,5.6-15.3,9.9
	c-1.2,4.1-1.3,18-0.2,19.6c0.5,0.7,8.1,0.9,24.3,0.6l23.6-0.4l0.5-6.8c0.6-7.9,3.3-13.1,7.8-15c2.5-1,3.4-1,5.5,0.4
	c3,2,4.3,4.9,5.7,13.1c0.6,3.3,1.5,6.6,2,7.2c0.7,0.9,3.9,1.3,9.4,1.3h8.4v-5.3c0-2.8-0.5-10.6-1-17.1c-0.8-10-0.8-12.2,0.5-13.5
	c1.2-1.5,1.2-2.2-0.3-6.4c-2.2-6.2-1.3-7.5,7.4-10.7c6.9-2.6,6.9-2.6,6.8-6.3c-0.1-2.6-4.8-13.2-15.7-35.4
	c-8.6-17.5-17-35.9-18.8-40.8c-3.2-8.7-3.3-9.5-3.3-24c0-13.7,0.3-15.7,2.8-23.5c6.1-18.5,12.9-29.7,33.4-55.5
	c20.5-25.8,25.8-34.6,28.3-47.9c4-21.2-4.2-37.4-27.2-53.7c-5.4-3.8-10-7.8-10.4-8.8c-0.9-2.8,2-13.9,6.1-23.9
	c2.6-6.2,3.4-9.6,3.1-11.9c-1.4-8.1,2.6-4.8,24.2,20.1c21.5,24.9,24.7,28.8,41.1,51.1c8.3,11.2,15,21.3,15,22.4s-0.9,7.6-1.9,14.3
	c-2.2,14-3.6,40.8-2.3,45.3c0.7,2.5,1.8,3.3,6.3,4.9l5.5,1.9l1.3,27.6c0.7,15.2,1.7,30.7,2.1,34.6c0.5,3.8,0.9,12.5,0.9,19.1
	l0.1,12.2l-3.2-0.2l-3.3-0.1l0.3,5.5c0.1,3,0.7,12.9,1.2,22s1,37.9,1,64.1v47.7l3.6,0.7c2,0.3,3.4,0.9,3,1.2c-0.3,0.3-2.6,0-5.2-0.6
	c-2.5-0.7-4.8-1-5-0.9c-0.8,0.9,4.7,10.8,6.6,11.8c1.1,0.6,4.1,1,6.7,0.8c4.5-0.3,4.7-0.4,7.9-6.3c1.8-3.2,3.2-6.1,3-6.2
	c-0.2-0.2-2.2,0.4-4.6,1.2c-5.9,2.1-6.2,1.9-4-1.8c1-1.7,2.8-6.6,4-10.7c2.3-8.5,7-33,7-36.8c0-1.4,0.7-3,1.5-3.6
	c1-0.8,2.4-9,4.9-29.1c3.7-29.9,5-49,6.6-100.5c0.5-17.9,1.3-35.6,1.6-39.4l0.6-6.9l10.2,0.8c5.5,0.4,20.4,0.9,32.9,1.1l22.8,0.4
	l17.1,22.3c18,23.6,22.6,30.8,26.4,41.5c2.9,8.2,3.1,12.9,0.7,13.4c-1.7,0.3-1.8,2.3-1.8,24.3c0,23.3-0.1,24.5-3.3,39.5
	c-6.5,30.7-7,32.3-11.7,39l-4.4,6.3l2.8,3.3c2.1,2.3,3.1,4.7,3.5,8.6c1.2,9.6,1.7,10.7,4.4,12c2.5,1.2,2.7,1.8,2.7,7.3
	c0,5.3,0.3,6,2.5,7.2c1.4,0.7,5.1,1.3,8.2,1.3h5.7l2.7-4.6l2.7-4.5l2.6,2.4c2.8,2.6,10,6.5,17.9,9.6c11.2,4.4,31.3,6.7,36.1,4.1
	c3.8-2,2.6-5.5-3.4-10.1c-3.4-2.5-5.8-5.2-6.1-6.8c-0.4-1.4-1.8-3.9-3.3-5.4l-2.6-2.9l5.5,0.4c5.3,0.3,5.5,0.2,6.1-2.7
	c0.4-1.7,0.7-11,0.8-20.7l0.1-17.7l8-28.6c4.4-15.8,8.9-33.5,10-39.4c4.5-23.6,5.2-26.8,7.6-31.9c1.3-3,4.6-9.1,7.3-13.6
	c8.2-13.5,12.9-23.5,16.7-35.1c5.6-17.3,13.5-29.8,22.7-36c2.8-1.9,5.5-3.5,6-3.5s13.1,11.9,28,26.4c28.5,27.6,36.7,35.1,44.2,40.7
	c3.3,2.5,4.4,3.9,4.1,5.4c-4.7,21.8-4.7,22.1-5.6,52.5c-1,32.2-1,32.7-7.9,62.9c-1.7,7.3-3.1,14.4-3.1,15.8v2.5l9.4-0.7
	c10.9-0.8,10-1.6,11.1,11c0.4,4.4,1.1,8.7,1.6,9.6c0.5,1,2.8,1.9,5.6,2.4c2.6,0.3,5.8,0.9,6.9,1.1c1.7,0.5,2.7-0.5,5.2-4.9
	c5-8.9,6.7-8.6,13.8,2.5c2.4,3.7,5.6,7.4,7.2,8.2c3.6,1.9,16.9,4.6,22.4,4.6c8.3,0,16.8-3.9,16.8-7.6c0-2.8-5-6.8-14-11.3
	c-8.1-3.9-10-5.3-12.7-9.5c-1.8-2.6-3.1-5.2-2.8-5.6c0.3-0.5,2.7-1.1,5.4-1.5s5.8-1.3,6.8-2c1.7-1.3,1.7-1.6,0.1-7.7
	c-0.9-3.4-4-17.1-6.8-30.3s-6.9-31.9-9-41.5c-2.1-9.6-5.3-25.6-7-35.5c-4.1-23.9-5.1-27.1-12.5-40.5c-11.6-21-26.3-50-25.5-50.5
	c0.4-0.3,6-2.4,12.4-4.9l11.6-4.3l2.9,3.2c3.9,4.5,8.1,10.7,12.6,18.8l3.8,6.9l3.8-3.9c2-2.1,6.5-9.2,10-15.8
	c6.9-13.4,10.3-18.7,14.6-22.7l2.9-2.7l-1.3,10.7c-0.7,5.9-1.3,15.7-1.5,21.9c-0.3,10.1-0.1,11.4,1.7,13.2
	c1.8,1.9,15.4,6.1,19.5,6.1c1.6,0,11.7,23.1,22.2,50.8l3.9,10.3l-2.2,8.7c-2.3,9.2-12.1,39.3-26.3,80.7c-4.7,13.7-8.6,26.1-8.6,27.4
	c-0.1,7.6,15.1,27,24.6,31.2c7,3.2,19.9,3.2,26.8,0.1c10-4.6,25.6-16.5,30.7-23.5c3.6-4.9,3.6-7.7,0.4-11.5
	c-3.9-4.7-7.1-12.6-10.4-25.7c-8.3-33.1-8.1-45.3,0.8-72.2c2.3-6.6,4.1-13.9,4.1-16.2c0-2.2-2-14.3-4.4-26.8
	c-4.8-24.7-7.2-41-6.3-41.9c0.6-0.6,18.7-3.3,22.4-3.4c1.8,0,5.1,4.7,17.9,25.2c20,32.2,22.3,36.5,23,42.4c1,7.8-1.3,22.4-6.7,43.8
	c-5.9,23.4-8.2,34.1-10.4,48.9c-1.6,11.2-4.5,48.5-4.5,59.4c0,6.1,0.1,6.3,2.6,6.3c2.6,0,2.6-0.1,2-5.3l-0.6-5.2l1.6,3
	c2.5,4.6,4.5,6.5,6.9,6.5c3.1,0,4.5-1.9,4.5-6c0-5.6,1.9-7.4,8.7-8c5.4-0.5,5.9-0.3,7.8,2.2c4.9,6.4,8.2,11,10.7,14.8
	c2.5,3.6,3.2,4,6.8,4c2.3,0,5.3-0.8,6.7-1.7c2.5-1.6,2.6-1.7,2.1-0.1c-1.4,3.5,18.5,3.6,22.5,0c2.6-2.3,2.3-8.7-0.8-11.7
	c-1.3-1.4-3.1-2.5-3.9-2.5c-0.9,0-2-0.9-2.6-2c-1.3-2.5-0.8-2.7,7.2-3.3c3.2-0.2,6.1-0.7,6.5-1.1c0.7-0.7,0.5-1.5-4.7-18.1
	c-9.3-29.7-11.3-41.4-15-89c-2.2-28.4-4.6-50.5-6.1-57.3c-1.8-8.1-15.8-36.9-32.4-66.7c-7.8-14.1-8.6-16-13-33.9
	c-2-8.2-7.4-26.2-12-40c-9.3-27.8-12.6-40.1-15.4-56.8c-2.4-14.2-3.6-28.7-2.4-27.3c0.6,0.5,4.8,6.2,9.5,12.5
	c10.7,14.6,21,25.5,40.5,42.7c18.8,16.7,24.2,22.9,39,45c6.4,9.5,11.9,17.3,12.4,17.3s1.3-1,2-2.2c0.9-1.7,1.3-1.8,1.9-0.7
	c0.4,0.8,1.1,14.4,1.4,30.4l0.7,29l4.9,19.5c7.8,31.1,7.3,24.5,7.1,106.6l-0.3,74.2l10.5,4.1c5.8,2.3,11,4.1,11.6,4.1
	c1.7,0,1.3,1.6-1.4,7c-3.3,6.5-5.4,12.8-6.1,18.1c-1.2,10.1,6.7,16.3,21,16.3c9.1,0,14.3-1.4,17.5-4.8c2.1-2.2,2.1-2.9,1.9-22.5
	c-0.3-20-0.3-20.3,2-22.1c1.2-1,2.6-2,3.1-2.2c2.1-0.8-4.8-68.1-10.5-101.5c-2.8-17.1-2.9-19.7-0.8-27.1c1.2-4,1.5-7.8,1.1-13.6
	c-0.4-5.5,0-10.8,1.1-16.2c1.5-8,1.5-8.3-0.6-13.9c-1.5-3.9-2.2-7.9-2.2-12.8c0-6.4,3.4-47,4.6-55.5l0.5-3.3l3.4,4.3
	c5.3,6.6,11.8,20.6,18,38.7c3.1,9.1,6.5,18.1,7.5,20c1.9,3.5,1.9,0.4,2-188.7c0-182.4-0.1-192.2-1.7-192.2
	c-2.8,0-17.6,13.3-23.1,20.7c-6.1,8.1-8,13.8-6.1,17.9c1.3,2.6,10.6,8.2,16.3,9.9c1.8,0.5,1.9,1.3,1.3,12l-0.6,11.5h3
	c1.8,0,2.8,0.4,2.4,1c-0.3,0.5-2,1-3.7,1c-5.2,0-9.7,2.9-12.7,8.2c-2.7,4.7-3.9,8.2-11.1,34.2c-5.6,19.9-8.5,25.3-45.8,86.5
	c-5.4,8.8-8.2,14.4-8.2,16.3v3l5.6-0.4l5.6-0.3l-0.5,5.4c-0.3,3-1,5.8-1.6,6.4c-0.5,0.5-5.5,1.2-10.9,1.5
	c-15.5,0.7-25.3-3-38.4-14.7c-3.7-3.3-8.9-8.3-11.5-11.3c-5.6-6.3-18.3-25.6-27.7-42.2c-8.6-15.1-12.6-21.2-16.7-25.9
	c-3.9-4.3-6.9-5.1-24.6-6.2c-6.2-0.4-11.3-1.1-11.3-1.7c0-0.5,2.3-3.9,5-7.5c2.8-3.6,4.8-6.8,4.5-7.1c-0.3-0.3-7.7,2.3-16.5,5.8
	c-8.8,3.5-16.3,6-16.7,5.6c-0.5-0.4-0.7-3-0.6-5.8c0.1-3.6,0.7-5.6,2.4-7.4c2.6-2.8,4.3-3,9-1c7,3,12.3-3.3,12.3-14.4
	c0-4.8-0.6-7.6-2.3-10.8l-2.2-4.4l2.6-6.6c3.6-9,7.3-21.4,8.1-27.1c1.4-11.1-5.8-27.3-17.2-38c-9.7-9.3-15-11.8-31.8-15.2
	c-20.9-4.3-27.8-4.7-36.7-1.9c-4.1,1.2-9,3-11,4c-6.3,3.3-15.5,14.5-24.9,30.3c-3.5,5.7-3.5,5.8-4.1,2.9c-0.8-4,0.7-16.2,3.2-25.2
	c1.4-5,1.8-8.9,1.4-11.6c-0.5-3.7-0.3-4.3,2.1-5.8c2.3-1.6,2.5-2.2,1.9-5.4c-1.9-10.2-8.9-15.7-15.6-12.2c-2.5,1.4-2.5-0.8,0-8.3
	c2.5-7.1,3-12.7,1.3-12.7C931.8,0,929.8,2.8,927.8,6.2z M898.4,89.1c4.8,1.7,8.6,3.3,8.6,3.5c0,0.3-0.9,2.2-2,4.4
	c-1.1,2.2-3.6,8.3-5.5,13.6c-1.9,5.4-5.6,13.6-8.4,18.3c-2.7,4.7-7,13.3-9.6,19.1c-2.9,6.4-6,11.6-7.9,13.3
	c-4.4,3.9-10.4,6.9-12.9,6.5c-2.1-0.4-2.1-0.5,0.4-1.7c3.1-1.5,5.9-6,5.9-9.5c0-1.6,1.9-4.7,5.3-8.7c15-17.6,18.8-26.3,18.8-42.8
	c0-5.3-0.5-11.2-1.1-13.1c-1.1-3.7-1.3-6-0.6-6C889.7,86,893.7,87.4,898.4,89.1z M936.6,112.7c1.7,7.6,2.5,9.7,6.7,16.2
	c4.2,6.4,10.7,12.4,22.1,20.4c2.5,1.7,2.6,1.9,1.9,10.6c-0.7,11.1,0,15.2,3.6,19c6.4,6.8,13,2.5,15.1-9.9c0.7-3.9,0.9-7.7,0.6-8.5
	c-0.8-2.1,0-1.9,5.2,1.7c2.6,1.8,7.4,4.2,10.7,5.4l6,2.2l-0.4,6.8c-0.2,3.8-0.4,7-0.6,7.2c-0.3,0.3-29,2-38.7,2.3
	c-3.8,0.1-6.8,0.6-6.8,1c0,0.4,3.6,2.8,8,5.4c8.1,4.8,10.2,6.5,7.8,6.5c-0.8,0-4.6,1.6-8.6,3.5c-12.6,6-19.9,14.8-21.6,26
	c-0.3,2.2-2.9,28.7-5.6,59c-6.3,69.3-6,67.5-11.6,73.5c-5.4,5.8-13.2,10-24.1,13c-4.6,1.2-8.3,2.6-8.3,2.9c0,0.4,1.5,1.2,3.3,1.9
	c4.2,1.6,2.8,2.5-8.1,4.8l-8.4,1.8l-11.4-11.6c-7.7-7.7-11.4-12.2-11.4-13.7c0-1.2,3.6-8.2,7.9-15.5c19.5-32.7,30.4-61.6,33-87.5
	c1.2-11.5,0.5-20.9-3.4-44.9c-1.4-8.4-2.5-16.7-2.5-18.5c0-3.1,5.4-12.3,12.9-22c1.6-2.1,4.2-7.5,5.7-12s3.8-10.7,5.2-13.7
	c3.3-7.3,7-19.2,8.2-25.9c0.9-4.9,4-10.1,6.2-10.1C935.6,110,936.2,111.2,936.6,112.7z M632.4,128.5c0.3,0.8,0.8,3.7,1.2,6.3
	c0.8,6-0.7,9.5-3.9,9c-2.5-0.3-2.6-2.2-0.7-11.4C630.1,127,631.3,125.7,632.4,128.5z M470.2,140.2c8.3,7.1,16.9,12.9,36.8,24.8
	c8.5,5.2,15.7,9.5,15.9,9.7c1.1,0.8-8.2,12.5-16,20.3c-10.1,10-23,19.4-36.5,26.6c-11.5,6.2-11.7,6,7.6,9.9c17,3.3,22,4.8,51.5,15
	c38.3,13.2,38.9,13.5,39.3,17.2c0.7,7.3-4.8,21.6-12.4,32.1l-3.9,5.4l-6.5-0.6c-10.9-0.9-32.4-8.8-47.5-17.5
	c-7.7-4.4-27.4-24.2-33.9-34c-2.9-4.2-7-12.7-9.7-19.7c-2.5-6.8-5.4-13.5-6.3-14.9c-3.5-5.3-13.4-11.1-29.3-17c-4-1.5-7.3-3-7.3-3.4
	c0-2.4,18.5-17.1,21.7-17.1c7.8,0,11.9-10.4,7.7-19.3c-1.5-3.2-1.5-3.8,0-8.4c1.9-5.8,5.3-9.4,13.3-13.8c4.5-2.6,6.1-3,7.3-2.1
	C462.8,134,466.5,137.1,470.2,140.2z M1053.6,138.1c3.7,7.3,2.4,20.1-2.4,22.5c-2.8,1.4-7.2,0.6-7.9-1.3c-0.3-0.8,0.3-4.3,1.5-7.7
	c1.1-3.3,2.4-7.7,2.8-9.6c0.8-4.2,2.1-7,3.4-7C1051.5,135,1052.7,136.4,1053.6,138.1z M980,156.4l4.5,2.1l0.3,5.8
	c0.4,6.9-2.6,14.2-6.4,15.9c-2.1,1-2.9,0.7-5.4-1.7c-5-4.8-6.4-13.9-3.4-21.5C971.4,152.5,971.7,152.5,980,156.4z M441.6,161.6
	c0.9,4.8-1.1,11-4.1,13c-3.7,2.4-4.6,1-2.8-4.9c2.4-8.1,4.4-12.7,5.4-12.2C440.5,157.8,441.2,159.7,441.6,161.6z M989.3,264.2
	c16.7,21.4,24.7,34.6,24.7,41.1c0,14.4-30.7,64.7-39.5,64.7c-1.8,0-2.7-0.9-3.7-3.8c-1.9-5.4-1.6-49.1,0.6-69.7
	c3.4-32.7,5.3-45.5,7-45.5C978.7,251,983.6,257,989.3,264.2z M901,393.8c0,1-3.3,4.2-4.3,4.2c-1.3,0-4.7-3-4.7-4.1
	c0-0.4,1-0.9,2.3-1.1C896.9,392.4,901,393,901,393.8z M278.7,593.2c-0.3,0.8-0.6,0.5-0.6-0.6c-0.1-1.1,0.2-1.7,0.5-1.3
	C278.9,591.6,279,592.5,278.7,593.2z M228.5,598.1c0.9,1.3-3,5.6-6.8,7.5c-2.6,1.4-2.8,1.3-3.7-1.1c-0.6-1.5-1-3.7-1-5.1
	c0-2.2,0.3-2.4,5.4-2.4C225.4,597,228.2,597.5,228.5,598.1z"/>
</svg>
