<svg width="25" height="25" viewBox="0 0 25 25" fill="none" xmlns="http://www.w3.org/2000/svg">
<path fill-rule="evenodd" clip-rule="evenodd" d="M8.02855 4.12726C7.78783 4.12726 7.55883 4.23117 7.40031 4.41233L3.02042 9.41792C2.89179 9.56336 2.81309 9.75401 2.81119 9.96299C2.81117 9.96557 2.81116 9.96816 2.81116 9.97074C2.81116 10.1342 2.85816 10.2868 2.93939 10.4155C2.9583 10.4455 2.9793 10.4746 3.00237 10.5024C3.01357 10.516 3.02519 10.5292 3.0372 10.542L11.7958 19.9262C11.951 20.0955 12.1728 20.1968 12.4112 20.1968C12.4356 20.1968 12.4598 20.1958 12.4839 20.1936C12.6027 20.1833 12.7172 20.1476 12.82 20.0899C12.8737 20.0597 12.9242 20.0235 12.9704 19.9818C12.9899 19.9642 13.0086 19.9457 13.0264 19.9263L21.7854 10.5417C21.8002 10.5259 21.8144 10.5095 21.8279 10.4927C21.9412 10.3514 22.0095 10.1725 22.0111 9.97779C22.0112 9.97117 22.0112 9.96456 22.0111 9.95795C22.008 9.75098 21.9295 9.56227 21.802 9.418L17.422 4.41233C17.2635 4.23117 17.0345 4.12726 16.7938 4.12726H8.02855ZM10.7186 5.79682H8.40735L5.48561 9.13595H8.15683L10.7186 5.79682ZM14.1037 5.79682H16.415L19.3367 9.13595H16.6655L14.1037 5.79682ZM19.2554 10.8055H16.8142L14.9085 15.4628L19.2554 10.8055ZM9.91376 15.4628L8.00816 10.8055H5.56696L9.91376 15.4628ZM12.4112 6.33348L14.5612 9.13595H10.2611L12.4112 6.33348ZM12.4112 17.1577L9.81207 10.8055H15.0102L12.4112 17.1577Z" fill="black"/>
</svg>
