<svg width="18" height="18" viewBox="0 0 18 18" fill="none" xmlns="http://www.w3.org/2000/svg">
<path d="M9.03749 3.47851L14.5412 8.92515L9.03749 14.3718L3.53383 8.92515L9.03749 3.47851ZM9.03749 1.76245C8.73592 1.76245 8.43435 1.91167 8.20817 2.13551L2.17676 8.10442C1.7244 8.55209 1.7244 9.2982 2.17676 9.82048L8.20817 15.7894C8.43435 16.0132 8.73592 16.1625 9.03749 16.1625C9.33906 16.1625 9.64063 16.0132 9.86681 15.7894L15.8982 9.82048C16.3506 9.37281 16.3506 8.55209 15.8982 8.10442L9.86681 2.13551C9.64063 1.91167 9.33906 1.76245 9.03749 1.76245ZM9.64063 9.52204C10.0176 9.14898 10.0176 8.6267 9.64063 8.25364C9.26367 7.88059 8.73592 7.88059 8.35896 8.25364C7.98199 8.6267 7.98199 9.14898 8.35896 9.52204C8.73592 9.89509 9.33906 9.89509 9.64063 9.52204ZM9.64063 6.61219C10.0176 6.23913 10.0176 5.71685 9.64063 5.3438C9.26367 4.97074 8.73592 4.97074 8.35896 5.3438C7.98199 5.71685 7.98199 6.23913 8.35896 6.61219C8.73592 6.91064 9.33906 6.91064 9.64063 6.61219ZM12.6563 9.52204C13.0333 9.14898 13.0333 8.6267 12.6563 8.25364C12.2794 7.88059 11.7516 7.88059 11.3747 8.25364C10.9977 8.6267 10.9977 9.14898 11.3747 9.52204C11.7516 9.89509 12.3548 9.89509 12.6563 9.52204ZM6.70032 9.52204C7.07728 9.14898 7.07728 8.6267 6.70032 8.25364C6.32335 7.88059 5.79561 7.88059 5.41864 8.25364C5.04168 8.6267 5.04168 9.14898 5.41864 9.52204C5.72021 9.89509 6.32335 9.89509 6.70032 9.52204ZM9.64063 12.5065C10.0176 12.1334 10.0176 11.6112 9.64063 11.2381C9.26367 10.865 8.73592 10.865 8.35896 11.2381C7.98199 11.6112 7.98199 12.1334 8.35896 12.5065C8.73592 12.8795 9.33906 12.8795 9.64063 12.5065Z" fill="black"/>
</svg>
