<svg width="60" height="60" viewBox="0 0 60 60" fill="none" xmlns="http://www.w3.org/2000/svg">
<g clip-path="url(#clip0_1995_23243)">
<g filter="url(#filter0_ii_1995_23243)">
<path d="M25.2037 9.66909L19.5529 7.49995C18.0061 6.90619 16.2708 7.67878 15.6771 9.22559L13.5079 14.8764C13.2228 15.6192 12.6543 16.2183 11.9274 16.5419L5.64002 19.3413C4.0186 20.0632 3.37495 22.0272 4.25461 23.5687L7.08721 28.5327C7.53317 29.3142 7.60479 30.2546 7.28233 31.0946L4.73613 37.7277C4.10987 39.3592 5.00506 41.1785 6.67974 41.6778L11.2637 43.0444C12.2036 43.3247 12.9472 44.0467 13.255 44.9779L15.1023 50.5671C15.6223 52.1402 17.3191 52.994 18.8922 52.4741L25.0443 50.4408C25.6445 50.2424 26.292 50.2387 26.8945 50.4302L34.9915 53.0039C36.5906 53.5122 38.2958 52.61 38.7752 51.002L40.2477 46.0629C40.498 45.2236 41.1024 44.5356 41.9025 44.1793L48.3523 41.3077C49.8659 40.6338 50.5466 38.8605 49.8727 37.3469L47.4166 31.8302C47.0647 31.0399 47.0711 30.1362 47.4342 29.351L50.2435 23.275C50.9388 21.7711 50.2834 19.9883 48.7795 19.2929L42.3524 16.3213C41.7775 16.0555 41.3015 15.6145 40.9925 15.0616L37.201 8.27598C36.4442 6.92147 34.7794 6.36757 33.3619 6.99867L27.499 9.60899C26.7722 9.93261 25.9465 9.95423 25.2037 9.66909Z" fill="url(#paint0_linear_1995_23243)"/>
</g>
<g filter="url(#filter1_ii_1995_23243)">
<path fill-rule="evenodd" clip-rule="evenodd" d="M23.1111 26.7778C25.2588 26.7778 26.9999 25.0367 26.9999 22.8889C26.9999 20.7411 25.2588 19 23.1111 19C20.9633 19 19.2222 20.7411 19.2222 22.8889C19.2222 25.0367 20.9633 26.7778 23.1111 26.7778ZM23.1111 24.4444C23.9702 24.4444 24.6667 23.748 24.6667 22.8889C24.6667 22.0298 23.9702 21.3333 23.1111 21.3333C22.252 21.3333 21.5556 22.0298 21.5556 22.8889C21.5556 23.748 22.252 24.4444 23.1111 24.4444Z" fill="#D9D9D9" fill-opacity="0.01"/>
</g>
<g filter="url(#filter2_ii_1995_23243)">
<path fill-rule="evenodd" clip-rule="evenodd" d="M30.8889 40C33.0367 40 34.7778 38.2589 34.7778 36.1111C34.7778 33.9633 33.0367 32.2222 30.8889 32.2222C28.7411 32.2222 27 33.9633 27 36.1111C27 38.2589 28.7411 40 30.8889 40ZM30.8889 37.6667C31.748 37.6667 32.4444 36.9702 32.4444 36.1111C32.4444 35.252 31.748 34.5556 30.8889 34.5556C30.0298 34.5556 29.3333 35.252 29.3333 36.1111C29.3333 36.9702 30.0298 37.6667 30.8889 37.6667Z" fill="#D9D9D9" fill-opacity="0.01"/>
</g>
<g filter="url(#filter3_ii_1995_23243)">
<path d="M34.7777 19.7778H32.4444L19.2222 39.2222H21.5555L34.7777 19.7778Z" fill="#D9D9D9" fill-opacity="0.01"/>
</g>
<g filter="url(#filter4_bdii_1995_23243)">
<path fill-rule="evenodd" clip-rule="evenodd" d="M35.7684 29.9871C39.5065 29.9871 42.5369 26.9567 42.5369 23.2186C42.5369 19.4805 39.5065 16.4501 35.7684 16.4501C32.0302 16.4501 28.9999 19.4805 28.9999 23.2186C28.9999 26.9567 32.0302 29.9871 35.7684 29.9871ZM35.9999 24.5C36.8283 24.5 37.4999 23.8284 37.4999 23C37.4999 22.1716 36.8283 21.5 35.9999 21.5C35.1715 21.5 34.4999 22.1716 34.4999 23C34.4999 23.8284 35.1715 24.5 35.9999 24.5Z" fill="white" fill-opacity="0.5"/>
<path fill-rule="evenodd" clip-rule="evenodd" d="M49.3056 53C53.0438 53 56.0741 49.9696 56.0741 46.2315C56.0741 42.4933 53.0438 39.463 49.3056 39.463C45.5675 39.463 42.5371 42.4933 42.5371 46.2315C42.5371 49.9696 45.5675 53 49.3056 53ZM49.5 47.5C50.3284 47.5 51 46.8284 51 46C51 45.1716 50.3284 44.5 49.5 44.5C48.6716 44.5 48 45.1716 48 46C48 46.8284 48.6716 47.5 49.5 47.5Z" fill="white" fill-opacity="0.5"/>
<path d="M54.5053 17.6875L52.5073 16.7221C51.6487 16.3072 50.6158 16.5839 50.0796 17.3724L29.2538 47.9988C28.5932 48.9701 28.9499 50.3015 30.0076 50.8125L32.0056 51.7779C32.8641 52.1928 33.897 51.9161 34.4332 51.1276L55.2591 20.5012C55.9196 19.5299 55.563 18.1985 54.5053 17.6875Z" fill="white" fill-opacity="0.5"/>
</g>
</g>
<defs>
<filter id="filter0_ii_1995_23243" x="2.85938" y="5.73883" width="48.6619" height="48.4069" filterUnits="userSpaceOnUse" color-interpolation-filters="sRGB">
<feFlood flood-opacity="0" result="BackgroundImageFix"/>
<feBlend mode="normal" in="SourceGraphic" in2="BackgroundImageFix" result="shape"/>
<feColorMatrix in="SourceAlpha" type="matrix" values="0 0 0 0 0 0 0 0 0 0 0 0 0 0 0 0 0 0 127 0" result="hardAlpha"/>
<feOffset dx="1" dy="-1"/>
<feGaussianBlur stdDeviation="1"/>
<feComposite in2="hardAlpha" operator="arithmetic" k2="-1" k3="1"/>
<feColorMatrix type="matrix" values="0 0 0 0 0 0 0 0 0 0 0 0 0 0 0 0 0 0 0.32 0"/>
<feBlend mode="normal" in2="shape" result="effect1_innerShadow_1995_23243"/>
<feColorMatrix in="SourceAlpha" type="matrix" values="0 0 0 0 0 0 0 0 0 0 0 0 0 0 0 0 0 0 127 0" result="hardAlpha"/>
<feOffset dx="-1" dy="1"/>
<feGaussianBlur stdDeviation="1"/>
<feComposite in2="hardAlpha" operator="arithmetic" k2="-1" k3="1"/>
<feColorMatrix type="matrix" values="0 0 0 0 1 0 0 0 0 1 0 0 0 0 1 0 0 0 0.5 0"/>
<feBlend mode="normal" in2="effect1_innerShadow_1995_23243" result="effect2_innerShadow_1995_23243"/>
</filter>
<filter id="filter1_ii_1995_23243" x="18.4444" y="18.2222" width="9.33339" height="9.33333" filterUnits="userSpaceOnUse" color-interpolation-filters="sRGB">
<feFlood flood-opacity="0" result="BackgroundImageFix"/>
<feBlend mode="normal" in="SourceGraphic" in2="BackgroundImageFix" result="shape"/>
<feColorMatrix in="SourceAlpha" type="matrix" values="0 0 0 0 0 0 0 0 0 0 0 0 0 0 0 0 0 0 127 0" result="hardAlpha"/>
<feOffset dx="-0.777778" dy="0.777778"/>
<feGaussianBlur stdDeviation="0.777778"/>
<feComposite in2="hardAlpha" operator="arithmetic" k2="-1" k3="1"/>
<feColorMatrix type="matrix" values="0 0 0 0 0 0 0 0 0 0 0 0 0 0 0 0 0 0 0.32 0"/>
<feBlend mode="normal" in2="shape" result="effect1_innerShadow_1995_23243"/>
<feColorMatrix in="SourceAlpha" type="matrix" values="0 0 0 0 0 0 0 0 0 0 0 0 0 0 0 0 0 0 127 0" result="hardAlpha"/>
<feOffset dx="0.777778" dy="-0.777778"/>
<feGaussianBlur stdDeviation="0.777778"/>
<feComposite in2="hardAlpha" operator="arithmetic" k2="-1" k3="1"/>
<feColorMatrix type="matrix" values="0 0 0 0 1 0 0 0 0 1 0 0 0 0 1 0 0 0 0.5 0"/>
<feBlend mode="normal" in2="effect1_innerShadow_1995_23243" result="effect2_innerShadow_1995_23243"/>
</filter>
<filter id="filter2_ii_1995_23243" x="26.2222" y="31.4445" width="9.33339" height="9.33333" filterUnits="userSpaceOnUse" color-interpolation-filters="sRGB">
<feFlood flood-opacity="0" result="BackgroundImageFix"/>
<feBlend mode="normal" in="SourceGraphic" in2="BackgroundImageFix" result="shape"/>
<feColorMatrix in="SourceAlpha" type="matrix" values="0 0 0 0 0 0 0 0 0 0 0 0 0 0 0 0 0 0 127 0" result="hardAlpha"/>
<feOffset dx="-0.777778" dy="0.777778"/>
<feGaussianBlur stdDeviation="0.777778"/>
<feComposite in2="hardAlpha" operator="arithmetic" k2="-1" k3="1"/>
<feColorMatrix type="matrix" values="0 0 0 0 0 0 0 0 0 0 0 0 0 0 0 0 0 0 0.32 0"/>
<feBlend mode="normal" in2="shape" result="effect1_innerShadow_1995_23243"/>
<feColorMatrix in="SourceAlpha" type="matrix" values="0 0 0 0 0 0 0 0 0 0 0 0 0 0 0 0 0 0 127 0" result="hardAlpha"/>
<feOffset dx="0.777778" dy="-0.777778"/>
<feGaussianBlur stdDeviation="0.777778"/>
<feComposite in2="hardAlpha" operator="arithmetic" k2="-1" k3="1"/>
<feColorMatrix type="matrix" values="0 0 0 0 1 0 0 0 0 1 0 0 0 0 1 0 0 0 0.5 0"/>
<feBlend mode="normal" in2="effect1_innerShadow_1995_23243" result="effect2_innerShadow_1995_23243"/>
</filter>
<filter id="filter3_ii_1995_23243" x="18.4444" y="19" width="17.1111" height="21" filterUnits="userSpaceOnUse" color-interpolation-filters="sRGB">
<feFlood flood-opacity="0" result="BackgroundImageFix"/>
<feBlend mode="normal" in="SourceGraphic" in2="BackgroundImageFix" result="shape"/>
<feColorMatrix in="SourceAlpha" type="matrix" values="0 0 0 0 0 0 0 0 0 0 0 0 0 0 0 0 0 0 127 0" result="hardAlpha"/>
<feOffset dx="-0.777778" dy="0.777778"/>
<feGaussianBlur stdDeviation="0.777778"/>
<feComposite in2="hardAlpha" operator="arithmetic" k2="-1" k3="1"/>
<feColorMatrix type="matrix" values="0 0 0 0 0 0 0 0 0 0 0 0 0 0 0 0 0 0 0.32 0"/>
<feBlend mode="normal" in2="shape" result="effect1_innerShadow_1995_23243"/>
<feColorMatrix in="SourceAlpha" type="matrix" values="0 0 0 0 0 0 0 0 0 0 0 0 0 0 0 0 0 0 127 0" result="hardAlpha"/>
<feOffset dx="0.777778" dy="-0.777778"/>
<feGaussianBlur stdDeviation="0.777778"/>
<feComposite in2="hardAlpha" operator="arithmetic" k2="-1" k3="1"/>
<feColorMatrix type="matrix" values="0 0 0 0 1 0 0 0 0 1 0 0 0 0 1 0 0 0 0.5 0"/>
<feBlend mode="normal" in2="effect1_innerShadow_1995_23243" result="effect2_innerShadow_1995_23243"/>
</filter>
<filter id="filter4_bdii_1995_23243" x="13.1154" y="5.91352" width="51.7392" height="61.1353" filterUnits="userSpaceOnUse" color-interpolation-filters="sRGB">
<feFlood flood-opacity="0" result="BackgroundImageFix"/>
<feGaussianBlur in="BackgroundImageFix" stdDeviation="1.31707"/>
<feComposite in2="SourceAlpha" operator="in" result="effect1_backgroundBlur_1995_23243"/>
<feColorMatrix in="SourceAlpha" type="matrix" values="0 0 0 0 0 0 0 0 0 0 0 0 0 0 0 0 0 0 127 0" result="hardAlpha"/>
<feOffset dx="-3.5122" dy="1.7561"/>
<feGaussianBlur stdDeviation="6.14634"/>
<feComposite in2="hardAlpha" operator="out"/>
<feColorMatrix type="matrix" values="0 0 0 0 0 0 0 0 0 0 0 0 0 0 0 0 0 0 0.2 0"/>
<feBlend mode="normal" in2="effect1_backgroundBlur_1995_23243" result="effect2_dropShadow_1995_23243"/>
<feBlend mode="normal" in="SourceGraphic" in2="effect2_dropShadow_1995_23243" result="shape"/>
<feColorMatrix in="SourceAlpha" type="matrix" values="0 0 0 0 0 0 0 0 0 0 0 0 0 0 0 0 0 0 127 0" result="hardAlpha"/>
<feOffset dx="0.878049" dy="-0.878049"/>
<feGaussianBlur stdDeviation="0.878049"/>
<feComposite in2="hardAlpha" operator="arithmetic" k2="-1" k3="1"/>
<feColorMatrix type="matrix" values="0 0 0 0 0 0 0 0 0 0 0 0 0 0 0 0 0 0 0.32 0"/>
<feBlend mode="normal" in2="shape" result="effect3_innerShadow_1995_23243"/>
<feColorMatrix in="SourceAlpha" type="matrix" values="0 0 0 0 0 0 0 0 0 0 0 0 0 0 0 0 0 0 127 0" result="hardAlpha"/>
<feOffset dx="-0.878049" dy="0.878049"/>
<feGaussianBlur stdDeviation="0.878049"/>
<feComposite in2="hardAlpha" operator="arithmetic" k2="-1" k3="1"/>
<feColorMatrix type="matrix" values="0 0 0 0 1 0 0 0 0 1 0 0 0 0 1 0 0 0 0.5 0"/>
<feBlend mode="normal" in2="effect3_innerShadow_1995_23243" result="effect4_innerShadow_1995_23243"/>
</filter>
<linearGradient id="paint0_linear_1995_23243" x1="-7" y1="17" x2="61.6547" y2="43.3541" gradientUnits="userSpaceOnUse">
<stop stop-color="#E32900"/>
<stop offset="0.494792" stop-color="#C6E216"/>
<stop offset="1" stop-color="#D808FA"/>
</linearGradient>
<clipPath id="clip0_1995_23243">
<rect width="60" height="60" fill="white"/>
</clipPath>
</defs>
</svg>
