<svg width="24" height="24" viewBox="0 0 24 24" fill="none" xmlns="http://www.w3.org/2000/svg">
<path d="M21.2999 6.9999L16.9999 2.6999C16.7999 2.4999 16.4999 2.3999 16.2999 2.3999H5.5999C3.7999 2.3999 2.3999 3.7999 2.3999 5.5999V18.3999C2.3999 20.1999 3.7999 21.5999 5.5999 21.5999H18.3999C20.1999 21.5999 21.5999 20.1999 21.5999 18.3999V7.6999C21.5999 7.3999 21.4999 7.1999 21.2999 6.9999ZM8.7999 4.4999H13.0999V6.6999H8.7999V4.4999ZM19.4999 18.3999C19.4999 18.9999 18.9999 19.4999 18.3999 19.4999H5.5999C4.9999 19.4999 4.4999 18.9999 4.4999 18.3999V5.5999C4.4999 4.9999 4.9999 4.4999 5.5999 4.4999H6.6999V7.6999C6.6999 8.2999 7.1999 8.6999 7.6999 8.6999H14.0999C14.6999 8.6999 15.0999 8.1999 15.0999 7.6999V4.4999H15.7999L19.4999 8.1999V18.3999ZM11.9999 10.8999C10.1999 10.8999 8.7999 12.2999 8.7999 14.0999C8.7999 15.8999 10.1999 17.2999 11.9999 17.2999C13.7999 17.2999 15.1999 15.8999 15.1999 14.0999C15.1999 12.3999 13.7999 10.8999 11.9999 10.8999ZM11.9999 15.1999C11.3999 15.1999 10.8999 14.6999 10.8999 14.0999C10.8999 13.4999 11.3999 12.9999 11.9999 12.9999C12.5999 12.9999 13.0999 13.4999 13.0999 14.0999C13.0999 14.6999 12.5999 15.1999 11.9999 15.1999Z" fill="black"/>
</svg>
