<svg width="25" height="25" viewBox="0 0 25 25" fill="none" xmlns="http://www.w3.org/2000/svg">
<g clip-path="url(#clip0_1114_56955)">
<path d="M22.5248 5.46652C22.4912 5.38318 22.4399 5.30812 22.3744 5.24651L17.362 0.386515C17.3045 0.327817 17.2365 0.280338 17.1615 0.246515C17.0458 0.176968 16.9153 0.135838 16.7806 0.126515H9.76322C9.39986 0.121224 9.03902 0.187385 8.7013 0.321222C8.36358 0.455058 8.05559 0.653947 7.79494 0.90653C7.53428 1.15911 7.32606 1.46044 7.18216 1.79331C7.03826 2.12617 6.96151 2.48406 6.95628 2.84651V5.46652H5.21197C4.48681 5.45037 3.78469 5.72099 3.25882 6.21933C2.73295 6.71768 2.42603 7.40327 2.40503 8.12651V21.4565C2.42342 22.1815 2.72921 22.8697 3.25536 23.3701C3.78152 23.8706 4.48512 24.1426 5.21197 24.1265H15.2367C15.9636 24.1426 16.6672 23.8706 17.1934 23.3701C17.7195 22.8697 18.0253 22.1815 18.0437 21.4565V19.1865H19.788C20.5211 19.1946 21.2276 18.9131 21.7534 18.4035C22.2792 17.894 22.5817 17.1977 22.5949 16.4665V5.76651C22.5968 5.66226 22.5727 5.55918 22.5248 5.46652ZM17.5825 2.77651L19.8582 4.98652H17.783C17.7316 4.98658 17.682 4.96689 17.6447 4.93151C17.6074 4.89614 17.5851 4.84781 17.5825 4.79651V2.77651ZM20.991 16.4665C20.9857 16.7804 20.8563 17.0795 20.631 17.2986C20.4057 17.5177 20.1027 17.6392 19.788 17.6365H9.76322C9.60703 17.6392 9.45187 17.6109 9.30669 17.5534C9.1615 17.4959 9.02917 17.4103 8.91733 17.3016C8.80548 17.1928 8.71635 17.063 8.65506 16.9197C8.59377 16.7763 8.56154 16.6223 8.56024 16.4665V2.84651C8.56154 2.6907 8.59377 2.53669 8.65506 2.39336C8.71635 2.25004 8.80548 2.12024 8.91733 2.01146C9.02917 1.90269 9.1615 1.81708 9.30669 1.75959C9.45187 1.7021 9.60703 1.67387 9.76322 1.67651H15.9786V4.79651C15.9865 5.26686 16.1807 5.71496 16.5189 6.04288C16.857 6.3708 17.3115 6.55187 17.783 6.54651H20.991V16.4665Z" fill="black"/>
</g>
<defs>
<clipPath id="clip0_1114_56955">
<rect width="24" height="24" fill="white" transform="translate(0.5 0.126465)"/>
</clipPath>
</defs>
</svg>
