<svg width="25" height="25" viewBox="0 0 25 25" fill="none" xmlns="http://www.w3.org/2000/svg">
<g clip-path="url(#clip0_1114_56948)">
<path d="M23.0494 5.47959C23.0123 5.398 22.9614 5.3234 22.899 5.25905L17.8867 0.387067C17.8273 0.325889 17.7555 0.278049 17.6762 0.246722C17.581 0.206759 17.4787 0.186306 17.3755 0.186574H10.3582C9.99485 0.18127 9.63401 0.247595 9.2963 0.381761C8.95858 0.515927 8.6506 0.715307 8.38995 0.968512C8.12929 1.22172 7.92107 1.52379 7.77718 1.85748C7.63328 2.19116 7.55653 2.54993 7.5513 2.91328V5.47959H5.73684C5.01169 5.46341 4.30957 5.7347 3.78371 6.23427C3.25785 6.73384 2.95093 7.42113 2.92993 8.14615V21.509C2.94833 22.2358 3.25411 22.9257 3.78025 23.4274C4.3064 23.9291 5.01 24.2018 5.73684 24.1856H15.7615C16.4883 24.2018 17.1919 23.9291 17.7181 23.4274C18.2442 22.9257 18.55 22.2358 18.5684 21.509V19.2334H20.3127C21.0457 19.2415 21.7522 18.9593 22.2781 18.4485C22.8039 17.9377 23.1064 17.2397 23.1196 16.5067V5.78033C23.1154 5.67655 23.0916 5.57451 23.0494 5.47959ZM18.1073 2.79298L20.3728 4.99841H18.3078C18.2819 4.99977 18.2561 4.99585 18.2318 4.98689C18.2075 4.97793 18.1853 4.96412 18.1665 4.94629C18.1478 4.92847 18.1328 4.90701 18.1227 4.88322C18.1125 4.85943 18.1072 4.83382 18.1073 4.80794V2.79298ZM16.9644 21.509C16.9619 21.6639 16.9286 21.8168 16.8666 21.9587C16.8046 22.1007 16.7151 22.229 16.6033 22.3362C16.4914 22.4434 16.3594 22.5273 16.215 22.5832C16.0705 22.6391 15.9164 22.6658 15.7615 22.6619H5.73684C5.58197 22.6658 5.42785 22.6391 5.28337 22.5832C5.13889 22.5273 5.00692 22.4434 4.89507 22.3362C4.78322 22.229 4.69372 22.1007 4.63172 21.9587C4.56973 21.8168 4.53647 21.6639 4.53388 21.509V8.14615C4.53778 7.99211 4.57199 7.84035 4.63456 7.69953C4.69714 7.55872 4.78685 7.43162 4.89856 7.32549C5.01028 7.21936 5.14181 7.13628 5.28565 7.08101C5.42948 7.02573 5.5828 6.99934 5.73684 7.00334H7.48113V16.4967C7.48635 16.86 7.56311 17.2188 7.707 17.5525C7.8509 17.8862 8.05912 18.1883 8.31977 18.4415C8.58043 18.6947 8.88841 18.894 9.22612 19.0282C9.56384 19.1624 9.92468 19.2287 10.288 19.2234H16.9644V21.509ZM21.5156 16.4967C21.5104 16.8113 21.381 17.1111 21.1557 17.3308C20.9303 17.5505 20.6274 17.6723 20.3127 17.6696H10.288C10.1318 17.6722 9.97669 17.6439 9.83151 17.5863C9.68632 17.5287 9.55399 17.4428 9.44215 17.3338C9.33031 17.2248 9.24117 17.0946 9.17988 16.951C9.1186 16.8073 9.08637 16.6529 9.08507 16.4967V2.85313C9.08768 2.69778 9.12087 2.54447 9.18274 2.40195C9.24461 2.25943 9.33396 2.1305 9.44566 2.02251C9.55737 1.91453 9.68926 1.8296 9.8338 1.7726C9.97833 1.71559 10.1327 1.68762 10.288 1.69027H16.5033V4.80794C16.5112 5.27945 16.7055 5.72865 17.0436 6.05738C17.3817 6.38611 17.8362 6.56762 18.3078 6.56226H21.5156V16.4967Z" fill="black"/>
</g>
<defs>
<clipPath id="clip0_1114_56948">
<rect width="24" height="24" fill="white" transform="translate(0.5 0.126465)"/>
</clipPath>
</defs>
</svg>
