<svg width="25" height="25" viewBox="0 0 25 25" fill="none" xmlns="http://www.w3.org/2000/svg">
<path d="M13.4688 3.61964C13.4688 3.03553 12.9953 2.56201 12.4112 2.56201C11.8271 2.56201 11.3536 3.03553 11.3536 3.61964V5.40947H10.5129C8.35618 5.40947 6.60782 7.15784 6.60782 9.31456C6.60782 11.4713 8.35618 13.2196 10.5129 13.2196H14.3095C15.298 13.2196 16.0993 14.021 16.0993 15.0095C16.0993 15.998 15.298 16.7993 14.3095 16.7993H10.5383C9.81659 16.76 9.18839 16.29 8.94768 15.6071C8.75352 15.0562 8.14953 14.767 7.59863 14.9611C7.04774 15.1553 6.75854 15.7593 6.9527 16.3102C7.48278 17.8142 8.87409 18.8448 10.4673 18.9136C10.4825 18.9142 10.4977 18.9146 10.5129 18.9146H11.3536V20.7044C11.3536 21.2885 11.8271 21.762 12.4112 21.762C12.9953 21.762 13.4688 21.2885 13.4688 20.7044V18.9146H14.3095C16.4662 18.9146 18.2146 17.1662 18.2146 15.0095C18.2146 12.8528 16.4662 11.1044 14.3095 11.1044H10.5129C9.52441 11.1044 8.72307 10.3031 8.72307 9.31456C8.72307 8.32606 9.52441 7.52472 10.5129 7.52472H14.2841C15.0058 7.564 15.634 8.03398 15.8747 8.71696C16.0689 9.26786 16.6729 9.55705 17.2238 9.36289C17.7747 9.16873 18.0639 8.56474 17.8697 8.01384C17.3396 6.50984 15.9483 5.47924 14.3551 5.41045C14.3399 5.4098 14.3247 5.40947 14.3095 5.40947H13.4688V3.61964Z" fill="black"/>
</svg>
