<svg width="54" height="54" viewBox="0 0 54 54" fill="none" xmlns="http://www.w3.org/2000/svg">
<g id="coin">
<g id="Vector" filter="url(#filter0_d_7247_40881)">
<path d="M26.5165 47.7291C14.805 47.7291 5.30328 38.2274 5.30328 26.5159C5.30328 14.8045 14.805 5.30273 26.5165 5.30273C38.2279 5.30273 47.7297 14.8045 47.7297 26.5159C47.7297 38.2274 38.2279 47.7291 26.5165 47.7291ZM26.5165 9.94312C17.4567 9.94312 9.94367 17.4561 9.94367 26.5159C9.94367 35.5757 17.4567 43.0888 26.5165 43.0888C35.5763 43.0888 43.0893 35.5757 43.0893 26.5159C43.0893 17.4561 35.5763 9.94312 26.5165 9.94312ZM35.1344 30.7144C35.1344 27.1789 32.2617 24.3062 28.7262 24.3062H24.5278C23.4229 24.3062 22.539 23.4223 22.539 22.3175C22.539 21.2126 23.4229 20.3288 24.5278 20.3288H26.5165H28.7262C29.3891 20.3288 30.052 20.7707 30.494 21.4336C31.1569 22.5385 32.4827 22.7594 33.5876 22.3175C34.6924 21.6546 34.9134 20.3288 34.4714 19.2239C33.1456 17.0142 30.9359 15.9093 28.7262 15.9093V13.9206C28.7262 12.5948 27.8423 11.7109 26.5165 11.7109C25.1907 11.7109 24.3068 12.5948 24.3068 13.9206V15.9093C20.7712 15.9093 17.8986 18.782 17.8986 22.3175C17.8986 25.853 20.7712 28.7256 24.3068 28.7256H28.7262C29.8311 28.7256 30.7149 29.6095 30.7149 30.7144C30.7149 31.8192 29.8311 32.7031 28.7262 32.7031H26.7375H24.5278C23.8648 32.7031 23.2019 32.2612 22.76 31.5983C22.0971 30.4934 20.7712 30.2724 19.6664 30.7144C18.5615 31.3773 18.3406 32.7031 18.7825 33.808C19.8874 36.0177 22.0971 37.1225 24.3068 37.1225V39.1113C24.3068 40.4371 25.1907 41.321 26.5165 41.321C27.8423 41.321 28.7262 40.4371 28.7262 39.1113V37.1225C32.2617 37.1225 35.1344 34.2499 35.1344 30.7144Z" fill="black"/>
</g>
</g>
<defs>
<filter id="filter0_d_7247_40881" x="3.30328" y="5.30273" width="46.4264" height="46.4258" filterUnits="userSpaceOnUse" color-interpolation-filters="sRGB">
<feFlood flood-opacity="0" result="BackgroundImageFix"/>
<feColorMatrix in="SourceAlpha" type="matrix" values="0 0 0 0 0 0 0 0 0 0 0 0 0 0 0 0 0 0 127 0" result="hardAlpha"/>
<feOffset dy="2"/>
<feGaussianBlur stdDeviation="1"/>
<feComposite in2="hardAlpha" operator="out"/>
<feColorMatrix type="matrix" values="0 0 0 0 1 0 0 0 0 1 0 0 0 0 1 0 0 0 0.4 0"/>
<feBlend mode="normal" in2="BackgroundImageFix" result="effect1_dropShadow_7247_40881"/>
<feBlend mode="normal" in="SourceGraphic" in2="effect1_dropShadow_7247_40881" result="shape"/>
</filter>
</defs>
</svg>
