<svg width="20" height="20" viewBox="0 0 20 20" fill="none" xmlns="http://www.w3.org/2000/svg">
<g id="coin">
<path id="Vector" d="M10 18C5.58333 18 2 14.4167 2 10C2 5.58333 5.58333 2 10 2C14.4167 2 18 5.58333 18 10C18 14.4167 14.4167 18 10 18ZM10 3.75C6.58333 3.75 3.75 6.58333 3.75 10C3.75 13.4167 6.58333 16.25 10 16.25C13.4167 16.25 16.25 13.4167 16.25 10C16.25 6.58333 13.4167 3.75 10 3.75ZM13.25 11.5833C13.25 10.25 12.1667 9.16667 10.8333 9.16667H9.25C8.83333 9.16667 8.5 8.83333 8.5 8.41667C8.5 8 8.83333 7.66667 9.25 7.66667H10H10.8333C11.0833 7.66667 11.3333 7.83333 11.5 8.08333C11.75 8.5 12.25 8.58333 12.6667 8.41667C13.0833 8.16667 13.1667 7.66667 13 7.25C12.5 6.41667 11.6667 6 10.8333 6V5.25C10.8333 4.75 10.5 4.41667 10 4.41667C9.5 4.41667 9.16667 4.75 9.16667 5.25V6C7.83333 6 6.75 7.08333 6.75 8.41667C6.75 9.75 7.83333 10.8333 9.16667 10.8333H10.8333C11.25 10.8333 11.5833 11.1667 11.5833 11.5833C11.5833 12 11.25 12.3333 10.8333 12.3333H10.0833H9.25C9 12.3333 8.75 12.1667 8.58333 11.9167C8.33333 11.5 7.83333 11.4167 7.41667 11.5833C7 11.8333 6.91667 12.3333 7.08333 12.75C7.5 13.5833 8.33333 14 9.16667 14V14.75C9.16667 15.25 9.5 15.5833 10 15.5833C10.5 15.5833 10.8333 15.25 10.8333 14.75V14C12.1667 14 13.25 12.9167 13.25 11.5833Z" fill="url(#paint0_diamond_7329_25769)"/>
</g>
<defs>
<radialGradient id="paint0_diamond_7329_25769" cx="0" cy="0" r="1" gradientUnits="userSpaceOnUse" gradientTransform="translate(3.1768 4.61033) rotate(42.0912) scale(19.9752 57.4133)">
<stop stop-color="#E32900"/>
<stop offset="0.472959" stop-color="#C6E216"/>
<stop offset="1" stop-color="#D808FA"/>
</radialGradient>
</defs>
</svg>
