<svg width="74" height="74" viewBox="0 0 74 74" fill="none" xmlns="http://www.w3.org/2000/svg">
<g filter="url(#filter0_bd_9102_8856)">
<ellipse cx="36.9998" cy="51.7991" rx="13.5667" ry="13.5667" fill="url(#paint0_linear_9102_8856)"/>
<g filter="url(#filter1_ii_9102_8856)">
<path fill-rule="evenodd" clip-rule="evenodd" d="M36.9998 65.3658C44.4924 65.3658 50.5664 59.2918 50.5664 51.7991C50.5664 44.3064 44.4924 38.2324 36.9998 38.2324C29.5071 38.2324 23.4331 44.3064 23.4331 51.7991C23.4331 59.2918 29.5071 65.3658 36.9998 65.3658ZM36.9998 59.9391C41.4954 59.9391 45.1398 56.2947 45.1398 51.7991C45.1398 47.3035 41.4954 43.6591 36.9998 43.6591C32.5042 43.6591 28.8598 47.3035 28.8598 51.7991C28.8598 56.2947 32.5042 59.9391 36.9998 59.9391Z" fill="white" fill-opacity="0.01"/>
</g>
<g filter="url(#filter2_bdii_9102_8856)">
<path d="M38.1008 45.8351C38.1008 45.4893 37.8205 45.209 37.4746 45.209H36.3449C35.9996 45.209 35.7196 45.489 35.7196 45.8343C35.7196 46.1803 35.4353 46.4538 35.0975 46.5288C34.5547 46.6493 34.0502 46.9282 33.6451 47.3396C33.0884 47.9048 32.7628 48.6759 32.7374 49.4893C32.7121 50.3027 32.9888 51.0946 33.509 51.697C34.0293 52.2995 34.7521 52.6652 35.5243 52.7166L35.7196 52.7228H38.1008L38.208 52.7328C38.3452 52.759 38.4694 52.835 38.5588 52.9476C38.6482 53.0602 38.6972 53.2023 38.6972 53.349C38.6972 53.4957 38.6482 53.6378 38.5588 53.7504C38.4694 53.863 38.3452 53.939 38.208 53.9651L38.1008 53.9751H34.3384C33.7861 53.9751 33.3384 54.4229 33.3384 54.9751V55.4798C33.3384 56.032 33.7861 56.4798 34.3384 56.4798H35.0934C35.4393 56.4798 35.7196 56.7601 35.7196 57.1059C35.7196 57.4517 35.9999 57.7321 36.3457 57.7321H37.4755C37.8208 57.7321 38.1008 57.4521 38.1008 57.1067C38.1008 56.7607 38.3851 56.4873 38.7229 56.4123C39.2657 56.2917 39.7702 56.0129 40.1753 55.6015C40.732 55.0362 41.0576 54.2652 41.083 53.4517C41.1083 52.6383 40.8316 51.8465 40.3113 51.244C39.7911 50.6416 39.0683 50.2759 38.2961 50.2245L38.1008 50.2182H35.7196L35.6124 50.2082C35.4752 50.1821 35.351 50.1061 35.2616 49.9934C35.1722 49.8808 35.1232 49.7388 35.1232 49.5921C35.1232 49.4453 35.1722 49.3033 35.2616 49.1907C35.351 49.0781 35.4752 49.0021 35.6124 48.9759L35.7196 48.9659H39.482C40.0343 48.9659 40.482 48.5182 40.482 47.9659V47.4613C40.482 46.909 40.0343 46.4613 39.482 46.4613H38.727C38.3811 46.4613 38.1008 46.181 38.1008 45.8351Z" fill="#D808FA"/>
</g>
</g>
<g filter="url(#filter3_bdii_9102_8856)">
<path fill-rule="evenodd" clip-rule="evenodd" d="M44.0166 8.63281C44.5688 8.63281 45.0166 9.08053 45.0166 9.63281V17.6342C45.0166 18.1865 45.4643 18.6342 46.0166 18.6342H50.6045C51.4975 18.6342 51.9427 19.7155 51.3086 20.3443L37.704 33.8346C37.3142 34.2212 36.6856 34.2212 36.2958 33.8346L22.6911 20.3443C22.0571 19.7155 22.5023 18.6342 23.3952 18.6342H27.9832C28.5355 18.6342 28.9832 18.1865 28.9832 17.6342V9.63281C28.9832 9.08053 29.4309 8.63281 29.9832 8.63281H44.0166Z" fill="#D808FA"/>
</g>
<defs>
<filter id="filter0_bd_9102_8856" x="19.4331" y="36.2324" width="35.1333" height="37.1328" filterUnits="userSpaceOnUse" color-interpolation-filters="sRGB">
<feFlood flood-opacity="0" result="BackgroundImageFix"/>
<feGaussianBlur in="BackgroundImageFix" stdDeviation="1"/>
<feComposite in2="SourceAlpha" operator="in" result="effect1_backgroundBlur_9102_8856"/>
<feColorMatrix in="SourceAlpha" type="matrix" values="0 0 0 0 0 0 0 0 0 0 0 0 0 0 0 0 0 0 127 0" result="hardAlpha"/>
<feOffset dy="4"/>
<feGaussianBlur stdDeviation="2"/>
<feComposite in2="hardAlpha" operator="out"/>
<feColorMatrix type="matrix" values="0 0 0 0 0 0 0 0 0 0 0 0 0 0 0 0 0 0 0.25 0"/>
<feBlend mode="normal" in2="effect1_backgroundBlur_9102_8856" result="effect2_dropShadow_9102_8856"/>
<feBlend mode="normal" in="SourceGraphic" in2="effect2_dropShadow_9102_8856" result="shape"/>
</filter>
<filter id="filter1_ii_9102_8856" x="22.9331" y="37.7324" width="28.1333" height="28.1328" filterUnits="userSpaceOnUse" color-interpolation-filters="sRGB">
<feFlood flood-opacity="0" result="BackgroundImageFix"/>
<feBlend mode="normal" in="SourceGraphic" in2="BackgroundImageFix" result="shape"/>
<feColorMatrix in="SourceAlpha" type="matrix" values="0 0 0 0 0 0 0 0 0 0 0 0 0 0 0 0 0 0 127 0" result="hardAlpha"/>
<feOffset dx="0.5" dy="-0.5"/>
<feGaussianBlur stdDeviation="0.6"/>
<feComposite in2="hardAlpha" operator="arithmetic" k2="-1" k3="1"/>
<feColorMatrix type="matrix" values="0 0 0 0 0 0 0 0 0 0 0 0 0 0 0 0 0 0 0.4 0"/>
<feBlend mode="normal" in2="shape" result="effect1_innerShadow_9102_8856"/>
<feColorMatrix in="SourceAlpha" type="matrix" values="0 0 0 0 0 0 0 0 0 0 0 0 0 0 0 0 0 0 127 0" result="hardAlpha"/>
<feOffset dx="-0.5" dy="0.5"/>
<feGaussianBlur stdDeviation="0.6"/>
<feComposite in2="hardAlpha" operator="arithmetic" k2="-1" k3="1"/>
<feColorMatrix type="matrix" values="0 0 0 0 1 0 0 0 0 1 0 0 0 0 1 0 0 0 0.6 0"/>
<feBlend mode="normal" in2="effect1_innerShadow_9102_8856" result="effect2_innerShadow_9102_8856"/>
</filter>
<filter id="filter2_bdii_9102_8856" x="26.7358" y="39.209" width="20.3486" height="24.5234" filterUnits="userSpaceOnUse" color-interpolation-filters="sRGB">
<feFlood flood-opacity="0" result="BackgroundImageFix"/>
<feGaussianBlur in="BackgroundImageFix" stdDeviation="1"/>
<feComposite in2="SourceAlpha" operator="in" result="effect1_backgroundBlur_9102_8856"/>
<feColorMatrix in="SourceAlpha" type="matrix" values="0 0 0 0 0 0 0 0 0 0 0 0 0 0 0 0 0 0 127 0" result="hardAlpha"/>
<feOffset/>
<feGaussianBlur stdDeviation="3"/>
<feComposite in2="hardAlpha" operator="out"/>
<feColorMatrix type="matrix" values="0 0 0 0 0 0 0 0 0 0 0 0 0 0 0 0 0 0 0.25 0"/>
<feBlend mode="normal" in2="effect1_backgroundBlur_9102_8856" result="effect2_dropShadow_9102_8856"/>
<feBlend mode="normal" in="SourceGraphic" in2="effect2_dropShadow_9102_8856" result="shape"/>
<feColorMatrix in="SourceAlpha" type="matrix" values="0 0 0 0 0 0 0 0 0 0 0 0 0 0 0 0 0 0 127 0" result="hardAlpha"/>
<feOffset dx="1" dy="-1"/>
<feGaussianBlur stdDeviation="1"/>
<feComposite in2="hardAlpha" operator="arithmetic" k2="-1" k3="1"/>
<feColorMatrix type="matrix" values="0 0 0 0 0 0 0 0 0 0 0 0 0 0 0 0 0 0 0.32 0"/>
<feBlend mode="normal" in2="shape" result="effect3_innerShadow_9102_8856"/>
<feColorMatrix in="SourceAlpha" type="matrix" values="0 0 0 0 0 0 0 0 0 0 0 0 0 0 0 0 0 0 127 0" result="hardAlpha"/>
<feOffset dx="-1" dy="1"/>
<feGaussianBlur stdDeviation="1"/>
<feComposite in2="hardAlpha" operator="arithmetic" k2="-1" k3="1"/>
<feColorMatrix type="matrix" values="0 0 0 0 1 0 0 0 0 1 0 0 0 0 1 0 0 0 0.5 0"/>
<feBlend mode="normal" in2="effect3_innerShadow_9102_8856" result="effect4_innerShadow_9102_8856"/>
</filter>
<filter id="filter3_bdii_9102_8856" x="16.3933" y="2.63281" width="41.2131" height="37.4922" filterUnits="userSpaceOnUse" color-interpolation-filters="sRGB">
<feFlood flood-opacity="0" result="BackgroundImageFix"/>
<feGaussianBlur in="BackgroundImageFix" stdDeviation="1"/>
<feComposite in2="SourceAlpha" operator="in" result="effect1_backgroundBlur_9102_8856"/>
<feColorMatrix in="SourceAlpha" type="matrix" values="0 0 0 0 0 0 0 0 0 0 0 0 0 0 0 0 0 0 127 0" result="hardAlpha"/>
<feOffset/>
<feGaussianBlur stdDeviation="3"/>
<feComposite in2="hardAlpha" operator="out"/>
<feColorMatrix type="matrix" values="0 0 0 0 0 0 0 0 0 0 0 0 0 0 0 0 0 0 0.25 0"/>
<feBlend mode="normal" in2="effect1_backgroundBlur_9102_8856" result="effect2_dropShadow_9102_8856"/>
<feBlend mode="normal" in="SourceGraphic" in2="effect2_dropShadow_9102_8856" result="shape"/>
<feColorMatrix in="SourceAlpha" type="matrix" values="0 0 0 0 0 0 0 0 0 0 0 0 0 0 0 0 0 0 127 0" result="hardAlpha"/>
<feOffset dx="1" dy="-1"/>
<feGaussianBlur stdDeviation="1"/>
<feComposite in2="hardAlpha" operator="arithmetic" k2="-1" k3="1"/>
<feColorMatrix type="matrix" values="0 0 0 0 0 0 0 0 0 0 0 0 0 0 0 0 0 0 0.32 0"/>
<feBlend mode="normal" in2="shape" result="effect3_innerShadow_9102_8856"/>
<feColorMatrix in="SourceAlpha" type="matrix" values="0 0 0 0 0 0 0 0 0 0 0 0 0 0 0 0 0 0 127 0" result="hardAlpha"/>
<feOffset dx="-1" dy="1"/>
<feGaussianBlur stdDeviation="1"/>
<feComposite in2="hardAlpha" operator="arithmetic" k2="-1" k3="1"/>
<feColorMatrix type="matrix" values="0 0 0 0 1 0 0 0 0 1 0 0 0 0 1 0 0 0 0.5 0"/>
<feBlend mode="normal" in2="effect3_innerShadow_9102_8856" result="effect4_innerShadow_9102_8856"/>
</filter>
<linearGradient id="paint0_linear_9102_8856" x1="23.4331" y1="38.2324" x2="50.5664" y2="65.3658" gradientUnits="userSpaceOnUse">
<stop stop-color="#E32900"/>
<stop offset="0.494792" stop-color="#C6E216"/>
<stop offset="1" stop-color="#D808FA"/>
</linearGradient>
</defs>
</svg>
