<svg width="24" height="24" viewBox="0 0 24 24" fill="none" xmlns="http://www.w3.org/2000/svg">
<path d="M21.0999 16.4998V18.4998C21.0999 20.1998 19.6999 21.5998 17.9999 21.5998H5.9999C4.2999 21.5998 2.8999 20.1998 2.8999 18.4998V16.4998C2.8999 15.8998 3.3999 15.4998 3.8999 15.4998C4.3999 15.4998 4.8999 15.9998 4.8999 16.4998V18.4998C4.8999 18.9998 5.2999 19.4998 5.8999 19.4998H17.9999C18.4999 19.4998 18.9999 19.0998 18.9999 18.4998V16.4998C18.9999 15.8998 19.4999 15.4998 19.9999 15.4998C20.4999 15.4998 21.0999 15.8998 21.0999 16.4998ZM11.2999 16.2998C11.3999 16.3998 11.4999 16.4998 11.5999 16.4998C11.8999 16.5998 12.0999 16.5998 12.3999 16.4998C12.4999 16.3998 12.5999 16.3998 12.6999 16.2998L17.6999 11.2998C18.0999 10.8998 18.0999 10.1998 17.6999 9.79978C17.2999 9.39978 16.5999 9.39978 16.1999 9.79978L13.0999 12.9998V3.39978C13.0999 2.79978 12.5999 2.39978 12.0999 2.39978C11.5999 2.39978 11.0999 2.89978 11.0999 3.39978V12.9998L7.6999 9.69978C7.2999 9.29978 6.5999 9.29978 6.1999 9.69978C5.7999 10.0998 5.7999 10.7998 6.1999 11.1998L11.2999 16.2998Z" fill="black"/>
</svg>
