<svg width="289" height="121" viewBox="0 0 289 121" fill="none" xmlns="http://www.w3.org/2000/svg">
<path d="M284.33 82.2735V81.422H275.96V79.6535H274.79V78.9985H271.46V75.5926H271.01V78.9985H269.03V75.5926H268.58V78.9985H266.6V75.5926H266.15V78.9985H257.96V79.6535H256.79V95.963H254.9V82.2735H253.91V78.6055H249.59V71.2695H245.9V66.4226H241.13V63.0165H240.5V66.4226H235.64V71.2695H231.86V78.6055H227.63V82.2735H226.73V95.963H223.76V54.043H202.79V56.794H199.64V95.963H188.75C191.9 90.7885 196.04 82.077 195.5 71.073C194.87 57.2525 187.4 47.2965 183.71 43.039C182.72 40.943 180.92 38.192 177.95 35.31C175.52 33.0175 172.91 31.3145 170.48 30.0045C168.95 29.153 167.51 28.498 166.25 27.974V24.044C165.89 20.0485 165.62 15.9875 165.26 11.992H165.17C164.81 16.053 164.45 20.0485 164.09 24.1095V27.188V29.7425V42.9735V43.6285V44.8075C160.67 45.0695 158.06 45.8555 158.06 46.838C158.06 47.8205 160.58 48.6065 164.09 48.8685V96.0285H161.3V89.5441H158.06V86.8585H152.03V77.0335C151.31 76.837 150.41 76.575 149.33 76.3785V59.414C148.43 59.152 147.26 58.8245 145.82 58.628V40.8775C144.83 40.55 143.48 40.2225 141.77 40.0915V25.878C141.14 25.5505 140.24 25.1575 139.16 25.0265V16.3805C138.89 16.184 138.53 15.9875 137.99 15.9875V9.96155C137.72 9.83055 137.36 9.63405 137 9.56855C136.55 6.42455 136.19 3.28055 135.74 0.136545C135.38 0.136545 135.11 0.136545 134.75 0.0710449C134.57 2.29805 134.3 4.52505 134.12 6.75205C133.67 6.75205 133.22 6.94854 133.04 7.14504C133.04 9.24104 133.04 11.337 133.04 13.433C132.68 13.4985 132.32 13.6295 132.14 13.7605C132.14 15.791 132.14 17.8215 132.14 19.852C131.51 20.0485 131.06 20.245 130.61 20.4415C130.61 25.6815 130.61 30.9215 130.61 36.1615C129.17 36.2925 128 36.62 127.1 36.9475C127.1 41.5325 127.1 46.183 127.1 50.768C125.3 50.899 123.86 51.292 122.87 51.6195C122.87 57.842 122.87 63.999 122.87 70.2215C121.7 70.418 120.62 70.7456 119.9 71.0076C119.9 76.2476 119.9 81.422 119.9 86.662H112.61V89.3476H109.37V95.832H106.4C107.39 78.147 108.38 60.462 109.37 42.777C105.5 43.8905 101.18 45.266 96.6796 47.0345V33.2795H94.9696V47.8205C93.7996 48.279 92.6296 48.803 91.4596 49.2615C86.8696 51.292 82.9096 53.3225 79.5796 55.222C79.5796 68.7805 79.5796 82.3391 79.5796 95.8976H75.9796V69.0426H72.1096V66.1605H63.7397V62.165H62.9296V66.1605H54.5597V69.0426H50.6897V69.8285H50.5996C49.7896 69.8285 49.1597 70.287 49.1597 70.8765C49.1597 71.466 49.7896 71.9245 50.5996 71.9245H50.6897V72.3176H50.5996C49.7896 72.3176 49.1597 72.776 49.1597 73.3655C49.1597 73.955 49.7896 74.4135 50.5996 74.4135H50.6897V74.8065H50.5996C49.7896 74.8065 49.1597 75.265 49.1597 75.8545C49.1597 76.444 49.7896 76.9026 50.5996 76.9026H50.6897V77.2955H50.5996C49.7896 77.2955 49.1597 77.754 49.1597 78.3435C49.1597 78.933 49.7896 79.3916 50.5996 79.3916H50.6897V79.7845H50.5996C49.7896 79.7845 49.1597 80.2431 49.1597 80.8326C49.1597 81.4221 49.7896 81.8805 50.5996 81.8805H50.6897V82.2735H50.5996C49.7896 82.2735 49.1597 82.7321 49.1597 83.3216C49.1597 83.9111 49.7896 84.3695 50.5996 84.3695H50.6897V84.7626H50.5996C49.7896 84.7626 49.1597 85.221 49.1597 85.8105C49.1597 86.4 49.7896 86.8585 50.5996 86.8585H50.6897V87.2516H50.5996C49.7896 87.2516 49.1597 87.71 49.1597 88.2995C49.1597 88.889 49.7896 89.3476 50.5996 89.3476H50.6897V89.7405H50.5996C49.7896 89.7405 49.1597 90.199 49.1597 90.7885C49.1597 91.378 49.7896 91.8366 50.5996 91.8366H50.6897V92.2295H50.5996C49.7896 92.2295 49.1597 92.6881 49.1597 93.2776C49.1597 93.8671 49.7896 94.3255 50.5996 94.3255H50.6897V94.7185H50.5996C49.7896 94.7185 49.1597 95.1771 49.1597 95.7666C49.1597 95.9631 49.2497 96.0941 49.3397 96.2251H46.2796V86.531H45.2897V82.863H40.9696V75.527H37.2796V70.6801H32.5097V67.274H31.8797V70.6801H26.9297V75.527H23.1496V79.326H20.8097V74.348H20.4496V79.326H18.7397V74.348H18.3797V79.326H16.6697V74.348H16.3097V79.326H13.4297V80.3085H12.4397V82.9285H4.96965V84.1076H1.00965V96.2251H0.829651V120.198H288.83V97.142V96.2905V82.2735H284.33ZM170.39 32.8865C172.01 33.9345 173.72 35.2445 175.34 36.751C177.68 38.978 179.12 41.205 180.11 42.908H170.39V32.8865Z" fill="black"/>
</svg>
