<svg width="81" height="82" viewBox="0 0 81 82" fill="none" xmlns="http://www.w3.org/2000/svg">
<g clip-path="url(#clip0_24512_93800)">
<path d="M77.2664 38.397C76.6178 38.3812 75.9533 38.3495 75.3047 38.2862C74.7826 38.223 74.3871 38.4286 73.8967 38.5868C72.8684 38.9349 71.8875 39.1722 70.7959 39.1722C68.5494 39.1564 66.3188 38.8716 64.1198 38.3653C63.5344 38.223 62.949 38.0806 62.3637 37.9224C61.984 37.5901 61.5569 37.3212 61.0981 37.1155C60.0856 36.6567 59.3262 35.9132 58.4086 35.2487C57.4594 34.5685 56.9215 33.7933 56.1463 32.9548C55.8141 32.5909 55.5451 32.2587 55.0705 32.4644C54.6434 32.6542 54.2162 32.7966 53.7574 32.9232C52.6184 33.2079 51.3369 33.0023 50.3719 33.6983C49.5334 34.2995 48.7266 34.964 47.809 35.4228C46.8282 35.9132 45.8631 36.546 44.9139 37.0997C44.5026 37.337 44.0912 37.606 43.7274 37.9224C43.6799 38.5235 43.6324 39.1247 43.585 39.7259C43.3635 42.178 43.0629 44.6144 42.6358 47.0507C42.003 50.5944 40.9272 54.0274 40.0887 57.5237C39.6932 59.169 38.7282 61.3523 39.1078 62.9976C39.4243 64.3581 39.4717 65.8769 40.1678 67.1267C40.1836 68.946 40.5158 70.4648 41.9239 71.6671C42.7623 72.379 44.028 73.1384 44.6449 74.0718C44.9614 74.5464 45.2778 75.4956 44.6766 75.8595C44.2336 76.1284 43.6641 76.1126 43.1895 76.3341C42.0504 76.8562 40.769 77.1884 39.535 77.5839C38.0479 78.0585 36.5924 78.5015 35.0104 78.4857C34.3617 78.4857 33.8397 78.0427 33.4283 77.5523C33.2385 77.3149 33.0803 77.046 32.9696 76.7612C32.7955 76.3183 32.7006 76.4607 32.3051 76.2708C30.9129 75.5905 31.3875 73.8028 31.5774 72.5689C31.7039 71.7937 31.8621 71.0343 32.0045 70.2591C32.0836 69.8636 32.1469 69.4839 32.1944 69.0884C32.2576 68.6296 32.1153 68.6454 32.0836 68.2341C31.7989 65.1017 30.5174 61.906 29.5207 58.9317C28.9828 57.3339 28.2709 55.7993 27.5907 54.2489C26.6098 53.0466 25.4707 51.955 24.7905 50.5153C24.0469 51.0216 22.3067 51.0058 21.9744 51.6544C21.4524 52.7144 20.7721 53.6794 20.0918 54.6286C19.4116 55.5937 18.7471 56.5745 18.2567 57.6503C17.877 58.9001 17.5922 60.1657 17.3233 61.4314C17.0701 62.6337 16.643 63.931 16.8012 65.1491C16.9278 66.1142 17.086 67.1741 16.9119 68.1392C16.8487 68.5189 17.3233 68.9618 17.4024 69.4048C17.4973 69.8952 17.5131 70.4015 17.4973 70.9077C17.4657 71.9993 16.1368 71.8411 15.4565 72.4107C14.2225 72.1575 12.9885 71.9202 11.7229 71.7937C10.8686 71.2716 10.0776 70.6388 9.53968 69.7845C8.08421 67.4589 10.2991 65.3548 10.5205 63.1083C10.7104 61.1308 11.976 59.5013 12.245 57.5554C12.419 56.3689 12.7196 55.214 12.9094 54.0275C13.0676 53.015 12.7196 52.0657 12.3399 51.1323C11.7229 51.9075 11.4223 52.8884 10.9635 53.7585C10.5522 54.5179 10.0618 55.1507 9.52386 55.8151C7.83109 57.9192 7.07171 61.1941 6.92933 63.8202C6.85023 65.339 6.99261 67.3007 7.78363 68.5663C8.35316 69.4997 9.34984 70.6704 9.42894 71.7937C9.49222 72.6163 9.3182 72.553 8.57464 72.6163C8.1475 72.648 7.72035 72.6638 7.2932 72.6796C6.4389 72.7112 5.56878 72.7271 4.71448 72.7271C3.86019 72.7271 3.02172 72.7271 2.16742 72.7112C1.36058 72.7112 0.553747 72.9802 0.18988 72.1101C-0.411292 70.6388 0.490464 68.9144 0.553745 67.4114C0.617026 65.7661 0.458823 64.1366 0.632846 62.5071C1.02835 58.9317 1.72445 55.3722 2.00922 51.7968C2.26234 48.6802 1.07582 45.5636 0.553745 42.4944C0.268979 40.8017 0.0949549 39.0773 0.0633143 37.3528C0.0474939 35.6126 0.474644 33.9198 0.727769 32.1954C0.870152 31.1987 0.885971 30.2337 1.34476 29.3478C1.69281 28.6675 1.97757 27.9556 2.10413 27.1962C2.59456 26.6899 2.89515 26.0571 3.25902 25.456C3.63871 24.839 4.14496 24.3327 4.60375 23.779C5.75863 22.4026 6.86605 21.0421 8.05257 19.6974C9.19163 18.4001 10.2516 17.0237 11.6596 16.0429C14.0959 14.3501 16.5006 12.6573 19.1268 11.2651C19.8229 10.9013 20.7405 10.3792 21.5473 10.4108C22.0694 10.4267 22.4174 10.8538 22.9237 10.9013C23.2084 10.4267 24.0944 10.4583 24.569 10.3159C25.4075 10.0786 26.2459 9.87296 27.116 9.80967C30.5332 9.57237 33.9188 10.395 37.2727 10.9487C38.1428 11.0911 38.4118 10.838 39.092 10.3476C39.6774 9.93624 40.2944 9.95206 40.9905 9.99952C42.2561 10.0944 43.933 10.9804 45.1037 10.5216C46.4326 9.99952 48.1254 10.1103 49.5492 9.85714C50.9889 9.60401 52.7449 9.76221 54.1688 10.1577C55.7508 10.5849 57.0481 12.3884 58.1397 13.5433C59.2629 14.7456 60.4178 15.8689 61.367 17.2136C62.3795 18.669 63.5977 19.9663 64.6893 21.3585C65.2588 22.0862 65.6069 22.5925 66.3821 23.0987C67.0623 23.5259 67.6635 24.0638 68.2963 24.5542C68.85 23.8739 69.3246 23.162 69.8625 22.4817C70.6061 21.5483 70.6377 21.1054 70.3371 19.9663C70.1948 19.4442 70.1631 18.9696 69.736 18.6532C69.4037 18.4001 69.1506 18.0679 68.85 17.7831C68.2172 17.1819 66.8092 16.9605 65.9865 16.6599C64.0407 15.9638 61.9682 15.6315 60.228 14.4767C59.4686 13.9546 58.7567 13.3534 58.0606 12.7681C57.6809 12.0562 57.3645 11.2968 57.143 10.5058C56.5893 8.48077 56.7158 6.59815 57.586 4.68389C57.9024 4.27257 57.6651 3.60811 57.8074 3.14932C57.9815 2.62725 58.8199 2.72217 59.0573 3.14932C59.2471 3.51319 59.3737 4.44659 59.9115 4.08272C60.3862 3.76632 61.6676 3.75049 61.6676 4.43077C61.6676 5.17432 61.0664 5.68057 61.019 6.40831C60.9082 7.45245 60.8133 8.48077 61.019 9.50909C62.3321 10.6482 64.1672 10.9804 65.8442 11.1702C67.8217 11.3917 69.6569 11.3917 71.5711 11.9771C72.5045 12.2618 73.7227 12.5149 74.4821 13.1478C75.1149 13.654 75.716 14.1919 76.2856 14.7614C77.5037 16.0112 78.3739 17.4509 78.7535 19.1595C79.5129 22.4976 78.627 26.1046 76.602 28.8415C75.7477 29.9964 74.7035 30.9931 73.5487 31.8315C72.8209 32.3536 72.2198 32.3536 71.3655 32.5118C70.6377 32.6542 69.8309 32.9073 69.0873 32.7808C69.4037 33.5718 70.8908 34.0939 71.6186 34.4419C72.5994 34.9007 73.6119 35.2962 74.6561 35.6284C76.7444 36.3087 78.8485 36.7833 81.0475 36.3403C80.9367 38.0015 78.4846 38.4128 77.2664 38.397ZM67.3787 35.755C66.2239 35.0431 65.1481 34.2679 64.0723 33.4136C63.5502 33.5243 62.8699 33.5876 62.5219 34.0306C64.2305 35.7075 66.8883 36.0081 69.0399 36.8308C69.2614 36.6093 67.6002 35.8974 67.3787 35.755Z" fill="#191919"/>
</g>
<defs>
<clipPath id="clip0_24512_93800">
<rect width="81" height="81" fill="white" transform="matrix(-1 0 0 1 81 0.127441)"/>
</clipPath>
</defs>
</svg>
