<svg width="149" height="128" viewBox="0 0 149 128" fill="none" xmlns="http://www.w3.org/2000/svg">
<g clip-path="url(#clip0_24512_93798)">
<path d="M2.91022 90.5349C3.52136 90.2148 3.60866 90.564 4.04518 89.9238C4.3362 89.5164 4.65632 89.109 5.00554 88.7597C5.79128 87.8867 6.63522 87.0136 7.12995 85.9078C7.94479 84.0453 9.28347 82.3283 10.0983 80.3785C11.1751 77.7884 12.5137 75.3439 13.5323 72.7248C14.4344 70.3966 15.162 68.0103 15.9477 65.6531C16.8208 63.034 18.0721 61.0842 19.7309 58.9306C21.2442 56.9517 22.7575 54.9728 24.5618 53.2267C26.337 51.4806 28.4905 48.9488 30.7313 47.8429C33.0594 46.708 35.2712 45.282 37.6575 44.2052C40.1893 43.0412 43.1577 42.4591 45.8932 42.0226C50.8696 41.266 55.5258 44.2634 60.3858 45.0201C61.2589 45.1656 63.0632 45.6894 63.7325 44.9037C64.4018 44.147 65.2458 43.5359 65.8569 42.7211C66.9919 42.1681 68.0977 41.557 69.2327 40.975C70.746 40.8004 72.2592 40.8295 73.7725 41.0623C76.1298 41.4115 78.3997 42.2263 80.5823 43.2449C81.6008 43.7105 82.5903 44.2343 83.5798 44.7582C85.0639 45.5439 86.2571 45.573 87.9159 45.6603C88.9635 45.7185 89.6038 45.7476 90.535 45.2238C91.4663 44.6709 92.0483 44.2343 93.096 43.8851C94.6092 43.3904 95.9188 42.4592 97.403 41.9353C101.07 40.6549 105.115 42.983 108.345 44.4963C111.605 46.0095 114.136 48.3377 117.221 50.1129C117.92 50.5203 118.618 50.9277 119.258 51.4515C120.044 52.1209 121.179 52.1791 122.168 52.5865C123.507 53.1103 125.37 54.8273 126.563 53.4013C127.319 52.4701 128.076 50.9568 129.036 50.2584C128.774 48.3377 128.774 46.3588 128.396 44.4381C128.396 42.5756 128.745 40.7422 128.891 38.8797C129.531 37.0172 130.346 35.2129 131.219 33.4377C132.761 30.1783 135.41 27.5592 138.524 25.5802C140.095 24.5908 141.87 24.0088 143.558 23.2521C144.344 22.9029 145.042 22.932 145.886 22.8447C146.643 22.7574 147.312 22.0299 148.011 22.059C149.582 22.7283 145.799 24.5908 147.923 25.2019C148.331 25.3183 149.611 25.8422 148.709 26.4242C147.923 26.9189 146.294 26.9189 145.362 27.2681C142.54 28.2867 140.852 29.4799 139.164 31.9826C138.436 33.0593 137.359 34.2525 136.952 35.5039C136.486 36.9008 136.341 38.3849 136.108 39.8109C135.672 42.43 136.981 44.9328 137.476 47.4937C137.941 50.0256 137.825 53.314 136.719 55.6713C135.526 58.2031 133.78 59.8037 131.597 61.4916C130.375 62.4228 129.415 62.9175 127.901 63.0631C126.679 63.1795 125.486 63.4996 124.438 64.1107C129.269 64.9256 135.177 65.2748 139.717 63.034C140.182 63.5869 139.542 64.1107 139.251 64.5472C139.891 64.6345 140.153 63.9361 140.823 64.0525C140.532 65.9441 138.756 66.4097 137.447 67.4283C136.603 68.0976 134.973 68.1849 133.896 68.3886C132.325 68.7088 130.724 68.9416 129.124 69.0871C126.563 69.3199 123.682 68.7961 121.266 67.9521C120.859 67.8066 118.851 66.759 118.764 67.1373C118.647 67.7193 119.986 68.2722 119.375 68.8543C118.473 68.9998 117.541 68.3886 116.697 68.1849C116.086 68.0394 115.708 68.1267 115.155 67.8066C114.515 67.4283 113.816 67.1955 113.118 66.9918C112.099 66.7299 110.615 66.206 109.597 66.5552C108.549 66.9045 107.734 67.6611 106.861 68.3013C106.046 68.8834 105.173 69.2908 104.155 69.3781C103.369 70.4548 102.379 71.3279 101.244 72.0263C100.255 72.6666 99.2073 73.1613 98.1014 73.5687C97.3739 73.8597 96.9083 73.6851 96.9665 74.5873C97.0247 75.3439 97.2284 76.1006 97.1702 76.8863C96.0934 77.0318 95.0749 76.1297 94.2309 75.6058C93.3579 75.0529 91.3499 76.4207 90.4186 76.8281C89.0508 77.4101 87.7122 77.9631 86.3444 78.5451C85.6751 78.8361 84.9766 79.098 84.3073 79.389C83.0268 79.9129 82.9686 79.8547 83.085 81.2224C83.6089 86.8099 83.2305 92.4265 82.7649 98.014C82.2993 103.776 81.6882 109.509 81.9501 115.271C82.0083 116.464 81.921 117.541 82.7358 118.472C83.2596 119.084 83.8126 119.695 84.1618 120.393C84.5401 121.092 85.2094 121.295 85.2676 122.168C85.2967 122.576 85.4423 122.983 85.5005 123.42C85.6751 124.496 85.2967 124.467 84.3655 124.671C81.921 125.195 79.7966 125.166 77.3229 124.904C76.9737 124.875 74.6165 124.322 74.5292 124.526C74.18 125.108 74.8784 125.922 73.7434 125.806C73.4815 125.777 73.4233 126.301 72.8704 126.388C72.2883 126.475 71.6772 126.534 71.0952 126.592C69.9311 126.708 68.738 126.795 67.6321 127.116C65.5077 126.504 61.6081 126.33 60.735 124.002C60.2403 122.721 60.5604 121.819 61.3171 120.684C62.0155 119.695 62.0737 118.327 62.2774 117.134C62.7139 114.369 62.9176 111.517 63.6161 108.782C63.878 106.046 63.8489 103.281 63.8489 100.517C63.8489 97.723 64.2563 95.1912 62.8885 92.6593C62.5684 92.0773 62.3356 90.564 62.7139 89.8947C59.3382 91.2043 55.2639 94.0562 51.568 93.9107C47.3774 93.7652 43.2159 93.5615 39.0253 93.2123C38.094 93.125 37.1628 93.0377 36.2315 92.9504C35.7659 92.8922 35.3003 92.8631 34.8346 92.8048C34.5727 93.4451 34.3399 94.0853 34.078 94.7256C33.3796 96.559 32.2155 97.5484 30.8768 98.9744C28.3159 101.652 26.0751 104.649 24.7073 108.112C23.7469 110.557 23.2231 115.446 25.2602 117.599C25.5803 117.949 25.9587 118.24 26.2206 118.647C26.628 119.258 26.3661 120.073 26.8317 120.568C27.7048 121.47 28.7524 122.197 29.1016 123.449C29.2762 124.147 29.48 124.933 28.7233 125.224C27.8212 125.573 26.8608 125.661 25.9296 125.777C23.9507 126.039 22.2046 126.213 20.1674 126.155C18.9743 126.126 15.3948 126.272 14.7255 125.137C14.1143 124.147 13.9397 122.168 14.9292 121.353C14.5217 120.859 13.7942 120.83 13.2995 120.48C12.5719 119.986 12.6592 118.647 12.8048 117.89C13.0376 116.755 13.5905 115.97 13.5614 114.806C13.5323 113.671 13.2995 112.536 13.3286 111.401C13.3577 109.131 14.2598 106.686 15.2493 104.649C15.6858 103.776 16.1805 102.961 16.7626 102.176C16.9081 101.07 17.3737 100.109 17.752 99.0617C18.5669 96.8791 17.8393 94.3472 17.5192 92.0773C17.17 89.6037 16.8208 87.1009 16.879 84.5982C17.0245 79.942 18.0721 75.3439 17.8975 70.6586C15.9477 71.0951 15.3075 74.8201 14.4635 76.3334C13.1831 78.6324 12.1936 81.0769 10.9423 83.405C9.80729 85.5004 8.14851 87.5666 6.43151 89.1381C5.47116 90.0402 4.53991 90.9714 3.60866 91.9027C2.4737 93.0377 1.51335 93.5033 0.02917 94.1435C-0.611064 93.0959 2.24089 90.8841 2.91022 90.5349ZM71.9682 119.84C72.5503 121.004 73.1032 118.327 73.1032 118.036C73.1614 117.134 73.5106 115.475 73.045 114.689C72.4921 113.787 73.5688 112.274 72.8704 111.459C72.5794 113.758 71.4735 115.824 70.9788 118.094C71.037 118.793 71.6772 119.287 71.9682 119.84Z" fill="#191919"/>
</g>
<defs>
<clipPath id="clip0_24512_93798">
<rect width="149" height="149" fill="white" transform="matrix(-1 0 0 1 149 0)"/>
</clipPath>
</defs>
</svg>
