<svg width="25" height="25" viewBox="0 0 25 25" fill="none" xmlns="http://www.w3.org/2000/svg">
<path d="M12.4122 14.5601C13.7382 14.5601 14.8131 15.6351 14.8131 16.961C14.8131 18.287 13.7382 19.3619 12.4122 19.3619C11.0862 19.3619 10.0113 18.287 10.0113 16.961C10.0113 15.6351 11.0862 14.5601 12.4122 14.5601ZM12.4113 0.161942C14.4658 0.161942 16.1314 1.82749 16.1314 3.88206C16.1314 6.60202 15.1811 10.1735 14.6575 11.9434C14.3603 12.9479 13.4352 13.6025 12.4128 13.6025C11.3882 13.6025 10.4621 12.9451 10.1659 11.9388L9.95236 11.1927C9.41979 9.27851 8.69116 6.23707 8.69116 3.88206C8.69116 1.82749 10.3567 0.161942 12.4113 0.161942Z" fill="black"/>
</svg>
