<svg width="24" height="24" viewBox="0 0 24 24" fill="none" xmlns="http://www.w3.org/2000/svg">
<g id="eye-off">
<path id="Vector" d="M21.525 12.45C20.8259 13.65 20.027 14.75 19.228 15.65C18.8285 16.05 18.1294 16.15 17.7299 15.75C17.3305 15.35 17.2306 14.65 17.6301 14.25C18.2293 13.65 18.7286 12.85 19.3279 11.95C17.2306 8.55 14.8337 7.05 12.0374 7.05C11.3383 7.05 10.739 7.15 10.04 7.35C9.5406 7.45 8.94138 7.15 8.74164 6.55C8.64177 6.05 8.94138 5.45 9.5406 5.25C10.3396 5.05 11.1385 4.95 12.0374 4.95C15.9323 4.95 19.1281 7.25 21.525 11.45C21.6249 11.75 21.6249 12.15 21.525 12.45ZM20.4264 18.95C20.8259 19.35 20.8259 20.05 20.4264 20.45C20.2267 20.65 19.9271 20.75 19.7273 20.75C19.5276 20.75 19.228 20.65 19.0282 20.45L16.4316 17.85C15.0335 18.55 13.6353 18.95 12.0374 18.95C8.14242 18.95 4.94659 16.65 2.54971 12.45C2.34997 12.15 2.34997 11.75 2.54971 11.45C3.54841 9.75 4.64698 8.35 5.84542 7.35L3.64828 4.95C3.2488 4.55 3.2488 3.95 3.64828 3.55C4.04776 3.15 4.74685 3.15 5.14633 3.55L20.4264 18.95ZM14.8337 16.25L13.0361 14.45C12.7364 14.55 12.337 14.65 11.9375 14.65C11.2384 14.65 10.5393 14.35 9.94008 13.85C9.44073 13.35 9.14113 12.65 9.14113 11.85C9.14113 11.45 9.24099 11.15 9.34086 10.75L7.34347 8.75C6.44464 9.55 5.54581 10.65 4.74685 11.95C6.84412 15.35 9.24099 16.85 12.0374 16.85C13.0361 16.85 13.9349 16.65 14.8337 16.25Z" fill="black"/>
</g>
</svg>
