<svg width="20" height="20" viewBox="0 0 20 20" fill="none" xmlns="http://www.w3.org/2000/svg">
<rect width="20" height="20" rx="10" fill="#F5B800"/>
<path fill-rule="evenodd" clip-rule="evenodd" d="M7.80385 10.0238C7.80385 9.7206 8.04966 9.47478 8.35289 9.47478H8.35838C8.6616 9.47478 8.90742 9.7206 8.90742 10.0238C8.90742 10.327 8.6616 10.5729 8.35838 10.5729H8.35289C8.04966 10.5729 7.80385 10.327 7.80385 10.0238ZM11.0981 10.0238C11.0981 9.7206 11.3439 9.47478 11.6471 9.47478H11.6526C11.9558 9.47478 12.2016 9.7206 12.2016 10.0238C12.2016 10.327 11.9558 10.5729 11.6526 10.5729H11.6471C11.3439 10.5729 11.0981 10.327 11.0981 10.0238ZM8.43113 11.9375C8.58714 11.6775 8.92439 11.5932 9.1844 11.7492C9.36314 11.8564 9.64734 11.9455 10 11.9455C10.3527 11.9455 10.6369 11.8564 10.8156 11.7492C11.0756 11.5932 11.4129 11.6775 11.5689 11.9375C11.7249 12.1975 11.6406 12.5348 11.3806 12.6908C11.0103 12.9129 10.5258 13.0435 10 13.0435C9.4742 13.0435 8.98974 12.9129 8.61945 12.6908C8.35943 12.5348 8.27512 12.1975 8.43113 11.9375Z" fill="white"/>
<path fill-rule="evenodd" clip-rule="evenodd" d="M9.99889 4.53345L10 4.53345C10.6451 4.53345 11.2424 4.71027 11.6934 5.03498C12.1471 5.36167 12.4707 5.85739 12.4707 6.45508C12.4707 7.41015 11.8356 8.37671 10.8236 8.37671C10.5203 8.37671 10.2074 8.30221 9.9523 8.13989C9.69379 7.97538 9.45096 7.68429 9.45096 7.27863C9.45096 6.97541 9.69677 6.7296 10 6.7296C10.282 6.7296 10.5143 6.94214 10.5455 7.21575C10.5937 7.24508 10.691 7.27863 10.8236 7.27863C11.0194 7.27863 11.3726 7.03731 11.3726 6.45508C11.3726 6.28411 11.2843 6.09354 11.0518 5.9261C10.8166 5.75674 10.4533 5.63162 10.0005 5.63152C8.98986 5.63369 8.01084 5.98435 7.2286 6.62436C6.44622 7.26449 5.90859 8.1549 5.70642 9.14536C5.6722 9.313 5.56178 9.45511 5.40779 9.52969C5.31497 9.57464 5.23668 9.64484 5.1819 9.73223C5.12713 9.81963 5.09807 9.92068 5.09807 10.0238C5.09807 10.127 5.12713 10.228 5.1819 10.3154C5.23668 10.4028 5.31497 10.473 5.40779 10.518C5.56007 10.5917 5.66984 10.7315 5.70531 10.897C5.916 11.8796 6.45729 12.7603 7.23886 13.3921C8.02044 14.0238 8.99502 14.3685 10 14.3685C11.005 14.3685 11.9796 14.0238 12.7611 13.3921C13.5427 12.7603 14.084 11.8796 14.2947 10.897C14.3302 10.7315 14.4399 10.5917 14.5922 10.518C14.685 10.473 14.7633 10.4028 14.8181 10.3154C14.8729 10.228 14.9019 10.127 14.9019 10.0238C14.9019 9.92068 14.8729 9.81963 14.8181 9.73223C14.7633 9.64484 14.685 9.57464 14.5922 9.52969C14.4365 9.45427 14.3254 9.30988 14.2925 9.14003C14.1576 8.44398 13.8562 7.79094 13.4141 7.2367C13.225 6.99966 13.2638 6.65421 13.5009 6.46511C13.7379 6.27601 14.0834 6.31488 14.2725 6.55192C14.7736 7.18009 15.1301 7.90979 15.3179 8.68902C15.489 8.81271 15.6354 8.96867 15.7485 9.14906C15.9128 9.41124 16 9.7144 16 10.0238C16 10.3332 15.9128 10.6364 15.7485 10.8986C15.6342 11.0809 15.4859 11.2383 15.3124 11.3626C15.0167 12.4958 14.3656 13.5071 13.4514 14.246C12.4745 15.0357 11.2562 15.4665 10 15.4665C8.74378 15.4665 7.52555 15.0357 6.54858 14.246C5.63444 13.5071 4.98327 12.4958 4.68755 11.3626C4.51412 11.2383 4.36575 11.0809 4.25149 10.8986C4.08716 10.6364 4 10.3332 4 10.0238C4 9.7144 4.08716 9.41124 4.25149 9.14906C4.36516 8.96771 4.51257 8.81104 4.68482 8.68704C4.97149 7.54495 5.61856 6.52289 6.53326 5.7745C7.51124 4.97433 8.73529 4.536 9.99889 4.53345Z" fill="white"/>
</svg>
