<svg width="60" height="60" viewBox="0 0 60 60" fill="none" xmlns="http://www.w3.org/2000/svg">
<g filter="url(#filter0_ii_1995_23338)">
<path d="M7.00007 27.5673C7.00007 31.626 9.50863 35.2575 13.4569 37.6825C15.84 39.0962 9.2724 44.1104 10.2204 44.5064C13.7951 45.859 18.0138 39.7886 20.0587 40.2627C21.6682 40.6039 23.3702 40.7869 25.1308 40.7869C35.1441 40.7869 43.2615 34.8683 43.2615 27.5673C43.2615 20.2663 35.1441 14.3477 25.1308 14.3477C15.1175 14.3477 7.00007 20.2663 7.00007 27.5673Z" fill="url(#paint0_linear_1995_23338)"/>
</g>
<g filter="url(#filter1_bii_1995_23338)">
<path d="M52.9999 27.5673C52.9999 31.626 50.4914 35.2575 46.5431 37.6825C44.16 39.0962 50.7276 44.1104 49.7796 44.5064C46.2049 45.859 41.9862 39.7886 39.9413 40.2627C38.3318 40.6039 36.6298 40.7869 34.8692 40.7869C24.8559 40.7869 16.7385 34.8683 16.7385 27.5673C16.7385 20.2663 24.8559 14.3477 34.8692 14.3477C44.8825 14.3477 52.9999 20.2663 52.9999 27.5673Z" fill="#FFB47E" fill-opacity="0.5"/>
</g>
<g filter="url(#filter2_ii_1995_23338)">
<path d="M39.4371 30.7286L35.8319 32.8689C35.6726 32.9688 35.5061 33.0116 35.3324 32.9973C35.1586 32.9831 35.0066 32.926 34.8763 32.8261C34.746 32.7262 34.6446 32.6012 34.5722 32.4511C34.4998 32.301 34.4853 32.1335 34.5288 31.9486L35.4844 27.9035L32.2918 25.1854C32.147 25.0569 32.0566 24.9106 32.0207 24.7462C31.9848 24.5818 31.9955 24.4214 32.0529 24.265C32.1108 24.1081 32.1977 23.9797 32.3135 23.8798C32.4293 23.7799 32.5886 23.7157 32.7913 23.6872L37.0047 23.3233L38.6335 19.5137C38.7059 19.3424 38.8183 19.214 38.9706 19.1284C39.1229 19.0428 39.2784 19 39.4371 19C39.5964 19 39.7519 19.0428 39.9036 19.1284C40.0554 19.214 40.1677 19.3424 40.2407 19.5137L41.8696 23.3233L46.0829 23.6872C46.2857 23.7157 46.4449 23.7799 46.5608 23.8798C46.6766 23.9797 46.7635 24.1081 46.8214 24.265C46.8793 24.422 46.8903 24.5827 46.8544 24.747C46.8185 24.9114 46.7278 25.0575 46.5825 25.1854L43.3899 27.9035L44.3455 31.9486C44.3889 32.1341 44.3744 32.3019 44.302 32.452C44.2296 32.6021 44.1283 32.7268 43.998 32.8261C43.8677 32.926 43.7156 32.9831 43.5419 32.9973C43.3682 33.0116 43.2016 32.9688 43.0424 32.8689L39.4371 30.7286Z" fill="#D808FA"/>
</g>
<g filter="url(#filter3_ii_1995_23338)">
<path d="M27.7186 31.8643L25.9159 32.9345C25.8363 32.9844 25.7531 33.0058 25.6662 32.9987C25.5793 32.9915 25.5033 32.963 25.4381 32.9131C25.373 32.8631 25.3223 32.8006 25.2861 32.7256C25.2499 32.6505 25.2427 32.5668 25.2644 32.4743L25.7422 30.4517L24.1459 29.0927C24.0735 29.0285 24.0283 28.9553 24.0104 28.8731C23.9924 28.7909 23.9978 28.7107 24.0264 28.6325C24.0554 28.554 24.0988 28.4898 24.1568 28.4399C24.2147 28.39 24.2943 28.3579 24.3957 28.3436L26.5023 28.1617L27.3168 26.2568C27.353 26.1712 27.4092 26.107 27.4853 26.0642C27.5615 26.0214 27.6392 26 27.7186 26C27.7982 26 27.876 26.0214 27.9518 26.0642C28.0277 26.107 28.0839 26.1712 28.1204 26.2568L28.9348 28.1617L31.0415 28.3436C31.1428 28.3579 31.2225 28.39 31.2804 28.4399C31.3383 28.4898 31.3817 28.554 31.4107 28.6325C31.4396 28.711 31.4451 28.7913 31.4272 28.8735C31.4092 28.9557 31.3639 29.0288 31.2912 29.0927L29.6949 30.4517L30.1727 32.4743C30.1945 32.567 30.1872 32.6509 30.151 32.726C30.1148 32.801 30.0641 32.8634 29.999 32.9131C29.9338 32.963 29.8578 32.9915 29.771 32.9987C29.6841 33.0058 29.6008 32.9844 29.5212 32.9345L27.7186 31.8643Z" fill="#E32900"/>
</g>
<g filter="url(#filter4_ii_1995_23338)">
<path d="M30.7186 12.8643L28.9159 13.9345C28.8363 13.9844 28.7531 14.0058 28.6662 13.9987C28.5793 13.9915 28.5033 13.963 28.4381 13.9131C28.373 13.8631 28.3223 13.8006 28.2861 13.7256C28.2499 13.6505 28.2427 13.5668 28.2644 13.4743L28.7422 11.4517L27.1459 10.0927C27.0735 10.0285 27.0283 9.95528 27.0104 9.87309C26.9924 9.7909 26.9978 9.71072 27.0264 9.63252C27.0554 9.55405 27.0988 9.48984 27.1568 9.4399C27.2147 9.38996 27.2943 9.35786 27.3957 9.34359L29.5023 9.16167L30.3168 7.25683C30.353 7.17122 30.4092 7.10701 30.4853 7.06421C30.5615 7.0214 30.6392 7 30.7186 7C30.7982 7 30.876 7.0214 30.9518 7.06421C31.0277 7.10701 31.0839 7.17122 31.1204 7.25683L31.9348 9.16167L34.0415 9.34359C34.1428 9.35786 34.2225 9.38996 34.2804 9.4399C34.3383 9.48984 34.3817 9.55405 34.4107 9.63252C34.4396 9.711 34.4451 9.79133 34.4272 9.87352C34.4092 9.9557 34.3639 10.0288 34.2912 10.0927L32.6949 11.4517L33.1727 13.4743C33.1945 13.567 33.1872 13.6509 33.151 13.726C33.1148 13.801 33.0641 13.8634 32.999 13.9131C32.9338 13.963 32.8578 13.9915 32.771 13.9987C32.6841 14.0058 32.6008 13.9844 32.5212 13.9345L30.7186 12.8643Z" fill="url(#paint1_linear_1995_23338)"/>
</g>
<g filter="url(#filter5_ii_1995_23338)">
<path d="M19.7186 47.8643L17.9159 48.9345C17.8363 48.9844 17.7531 49.0058 17.6662 48.9987C17.5793 48.9915 17.5033 48.963 17.4381 48.9131C17.373 48.8631 17.3223 48.8006 17.2861 48.7256C17.2499 48.6505 17.2427 48.5668 17.2644 48.4743L17.7422 46.4517L16.1459 45.0927C16.0735 45.0285 16.0283 44.9553 16.0104 44.8731C15.9924 44.7909 15.9978 44.7107 16.0264 44.6325C16.0554 44.554 16.0988 44.4898 16.1568 44.4399C16.2147 44.39 16.2943 44.3579 16.3957 44.3436L18.5023 44.1617L19.3168 42.2568C19.353 42.1712 19.4092 42.107 19.4853 42.0642C19.5615 42.0214 19.6392 42 19.7186 42C19.7982 42 19.876 42.0214 19.9518 42.0642C20.0277 42.107 20.0839 42.1712 20.1204 42.2568L20.9348 44.1617L23.0415 44.3436C23.1428 44.3579 23.2225 44.39 23.2804 44.4399C23.3383 44.4898 23.3817 44.554 23.4107 44.6325C23.4396 44.711 23.4451 44.7913 23.4272 44.8735C23.4092 44.9557 23.3639 45.0288 23.2912 45.0927L21.6949 46.4517L22.1727 48.4743C22.1945 48.567 22.1872 48.6509 22.151 48.726C22.1148 48.801 22.0641 48.8634 21.999 48.9131C21.9338 48.963 21.8578 48.9915 21.771 48.9987C21.6841 49.0058 21.6008 48.9844 21.5212 48.9345L19.7186 47.8643Z" fill="url(#paint2_linear_1995_23338)"/>
</g>
<g filter="url(#filter6_f_1995_23338)">
<ellipse cx="45.0854" cy="20.8504" rx="1.53206" ry="4.40974" transform="rotate(-59.6835 45.0854 20.8504)" fill="white"/>
</g>
<defs>
<filter id="filter0_ii_1995_23338" x="6.00012" y="13.3477" width="38.2614" height="32.3558" filterUnits="userSpaceOnUse" color-interpolation-filters="sRGB">
<feFlood flood-opacity="0" result="BackgroundImageFix"/>
<feBlend mode="normal" in="SourceGraphic" in2="BackgroundImageFix" result="shape"/>
<feColorMatrix in="SourceAlpha" type="matrix" values="0 0 0 0 0 0 0 0 0 0 0 0 0 0 0 0 0 0 127 0" result="hardAlpha"/>
<feOffset dx="1" dy="-1"/>
<feGaussianBlur stdDeviation="1"/>
<feComposite in2="hardAlpha" operator="arithmetic" k2="-1" k3="1"/>
<feColorMatrix type="matrix" values="0 0 0 0 0 0 0 0 0 0 0 0 0 0 0 0 0 0 0.32 0"/>
<feBlend mode="normal" in2="shape" result="effect1_innerShadow_1995_23338"/>
<feColorMatrix in="SourceAlpha" type="matrix" values="0 0 0 0 0 0 0 0 0 0 0 0 0 0 0 0 0 0 127 0" result="hardAlpha"/>
<feOffset dx="-1" dy="1"/>
<feGaussianBlur stdDeviation="1"/>
<feComposite in2="hardAlpha" operator="arithmetic" k2="-1" k3="1"/>
<feColorMatrix type="matrix" values="0 0 0 0 1 0 0 0 0 1 0 0 0 0 1 0 0 0 0.5 0"/>
<feBlend mode="normal" in2="effect1_innerShadow_1995_23338" result="effect2_innerShadow_1995_23338"/>
</filter>
<filter id="filter1_bii_1995_23338" x="10.7385" y="8.34766" width="48.2614" height="42.3558" filterUnits="userSpaceOnUse" color-interpolation-filters="sRGB">
<feFlood flood-opacity="0" result="BackgroundImageFix"/>
<feGaussianBlur in="BackgroundImageFix" stdDeviation="2"/>
<feComposite in2="SourceAlpha" operator="in" result="effect1_backgroundBlur_1995_23338"/>
<feBlend mode="normal" in="SourceGraphic" in2="effect1_backgroundBlur_1995_23338" result="shape"/>
<feColorMatrix in="SourceAlpha" type="matrix" values="0 0 0 0 0 0 0 0 0 0 0 0 0 0 0 0 0 0 127 0" result="hardAlpha"/>
<feOffset dx="6" dy="-6"/>
<feGaussianBlur stdDeviation="6"/>
<feComposite in2="hardAlpha" operator="arithmetic" k2="-1" k3="1"/>
<feColorMatrix type="matrix" values="0 0 0 0 0 0 0 0 0 0 0 0 0 0 0 0 0 0 0.32 0"/>
<feBlend mode="normal" in2="shape" result="effect2_innerShadow_1995_23338"/>
<feColorMatrix in="SourceAlpha" type="matrix" values="0 0 0 0 0 0 0 0 0 0 0 0 0 0 0 0 0 0 127 0" result="hardAlpha"/>
<feOffset dx="-6" dy="6"/>
<feGaussianBlur stdDeviation="6"/>
<feComposite in2="hardAlpha" operator="arithmetic" k2="-1" k3="1"/>
<feColorMatrix type="matrix" values="0 0 0 0 1 0 0 0 0 1 0 0 0 0 1 0 0 0 0.5 0"/>
<feBlend mode="normal" in2="effect2_innerShadow_1995_23338" result="effect3_innerShadow_1995_23338"/>
</filter>
<filter id="filter2_ii_1995_23338" x="30" y="17" width="18.875" height="18" filterUnits="userSpaceOnUse" color-interpolation-filters="sRGB">
<feFlood flood-opacity="0" result="BackgroundImageFix"/>
<feBlend mode="normal" in="SourceGraphic" in2="BackgroundImageFix" result="shape"/>
<feColorMatrix in="SourceAlpha" type="matrix" values="0 0 0 0 0 0 0 0 0 0 0 0 0 0 0 0 0 0 127 0" result="hardAlpha"/>
<feOffset dx="2" dy="-2"/>
<feGaussianBlur stdDeviation="1.5"/>
<feComposite in2="hardAlpha" operator="arithmetic" k2="-1" k3="1"/>
<feColorMatrix type="matrix" values="0 0 0 0 0 0 0 0 0 0 0 0 0 0 0 0 0 0 0.4 0"/>
<feBlend mode="normal" in2="shape" result="effect1_innerShadow_1995_23338"/>
<feColorMatrix in="SourceAlpha" type="matrix" values="0 0 0 0 0 0 0 0 0 0 0 0 0 0 0 0 0 0 127 0" result="hardAlpha"/>
<feOffset dx="-2" dy="2"/>
<feGaussianBlur stdDeviation="1.5"/>
<feComposite in2="hardAlpha" operator="arithmetic" k2="-1" k3="1"/>
<feColorMatrix type="matrix" values="0 0 0 0 1 0 0 0 0 1 0 0 0 0 1 0 0 0 0.6 0"/>
<feBlend mode="normal" in2="effect1_innerShadow_1995_23338" result="effect2_innerShadow_1995_23338"/>
</filter>
<filter id="filter3_ii_1995_23338" x="23" y="25" width="9.4375" height="9" filterUnits="userSpaceOnUse" color-interpolation-filters="sRGB">
<feFlood flood-opacity="0" result="BackgroundImageFix"/>
<feBlend mode="normal" in="SourceGraphic" in2="BackgroundImageFix" result="shape"/>
<feColorMatrix in="SourceAlpha" type="matrix" values="0 0 0 0 0 0 0 0 0 0 0 0 0 0 0 0 0 0 127 0" result="hardAlpha"/>
<feOffset dx="1" dy="-1"/>
<feGaussianBlur stdDeviation="0.75"/>
<feComposite in2="hardAlpha" operator="arithmetic" k2="-1" k3="1"/>
<feColorMatrix type="matrix" values="0 0 0 0 0 0 0 0 0 0 0 0 0 0 0 0 0 0 0.4 0"/>
<feBlend mode="normal" in2="shape" result="effect1_innerShadow_1995_23338"/>
<feColorMatrix in="SourceAlpha" type="matrix" values="0 0 0 0 0 0 0 0 0 0 0 0 0 0 0 0 0 0 127 0" result="hardAlpha"/>
<feOffset dx="-1" dy="1"/>
<feGaussianBlur stdDeviation="0.75"/>
<feComposite in2="hardAlpha" operator="arithmetic" k2="-1" k3="1"/>
<feColorMatrix type="matrix" values="0 0 0 0 1 0 0 0 0 1 0 0 0 0 1 0 0 0 0.6 0"/>
<feBlend mode="normal" in2="effect1_innerShadow_1995_23338" result="effect2_innerShadow_1995_23338"/>
</filter>
<filter id="filter4_ii_1995_23338" x="26.5" y="6.5" width="8.4375" height="8" filterUnits="userSpaceOnUse" color-interpolation-filters="sRGB">
<feFlood flood-opacity="0" result="BackgroundImageFix"/>
<feBlend mode="normal" in="SourceGraphic" in2="BackgroundImageFix" result="shape"/>
<feColorMatrix in="SourceAlpha" type="matrix" values="0 0 0 0 0 0 0 0 0 0 0 0 0 0 0 0 0 0 127 0" result="hardAlpha"/>
<feOffset dx="0.5" dy="-0.5"/>
<feGaussianBlur stdDeviation="0.6"/>
<feComposite in2="hardAlpha" operator="arithmetic" k2="-1" k3="1"/>
<feColorMatrix type="matrix" values="0 0 0 0 0 0 0 0 0 0 0 0 0 0 0 0 0 0 0.4 0"/>
<feBlend mode="normal" in2="shape" result="effect1_innerShadow_1995_23338"/>
<feColorMatrix in="SourceAlpha" type="matrix" values="0 0 0 0 0 0 0 0 0 0 0 0 0 0 0 0 0 0 127 0" result="hardAlpha"/>
<feOffset dx="-0.5" dy="0.5"/>
<feGaussianBlur stdDeviation="0.6"/>
<feComposite in2="hardAlpha" operator="arithmetic" k2="-1" k3="1"/>
<feColorMatrix type="matrix" values="0 0 0 0 1 0 0 0 0 1 0 0 0 0 1 0 0 0 0.6 0"/>
<feBlend mode="normal" in2="effect1_innerShadow_1995_23338" result="effect2_innerShadow_1995_23338"/>
</filter>
<filter id="filter5_ii_1995_23338" x="15.5" y="41.5" width="8.4375" height="8" filterUnits="userSpaceOnUse" color-interpolation-filters="sRGB">
<feFlood flood-opacity="0" result="BackgroundImageFix"/>
<feBlend mode="normal" in="SourceGraphic" in2="BackgroundImageFix" result="shape"/>
<feColorMatrix in="SourceAlpha" type="matrix" values="0 0 0 0 0 0 0 0 0 0 0 0 0 0 0 0 0 0 127 0" result="hardAlpha"/>
<feOffset dx="0.5" dy="-0.5"/>
<feGaussianBlur stdDeviation="0.6"/>
<feComposite in2="hardAlpha" operator="arithmetic" k2="-1" k3="1"/>
<feColorMatrix type="matrix" values="0 0 0 0 0 0 0 0 0 0 0 0 0 0 0 0 0 0 0.4 0"/>
<feBlend mode="normal" in2="shape" result="effect1_innerShadow_1995_23338"/>
<feColorMatrix in="SourceAlpha" type="matrix" values="0 0 0 0 0 0 0 0 0 0 0 0 0 0 0 0 0 0 127 0" result="hardAlpha"/>
<feOffset dx="-0.5" dy="0.5"/>
<feGaussianBlur stdDeviation="0.6"/>
<feComposite in2="hardAlpha" operator="arithmetic" k2="-1" k3="1"/>
<feColorMatrix type="matrix" values="0 0 0 0 1 0 0 0 0 1 0 0 0 0 1 0 0 0 0.6 0"/>
<feBlend mode="normal" in2="effect1_innerShadow_1995_23338" result="effect2_innerShadow_1995_23338"/>
</filter>
<filter id="filter6_f_1995_23338" x="38.2002" y="15.2608" width="13.7705" height="11.1792" filterUnits="userSpaceOnUse" color-interpolation-filters="sRGB">
<feFlood flood-opacity="0" result="BackgroundImageFix"/>
<feBlend mode="normal" in="SourceGraphic" in2="BackgroundImageFix" result="shape"/>
<feGaussianBlur stdDeviation="1.5" result="effect1_foregroundBlur_1995_23338"/>
</filter>
<linearGradient id="paint0_linear_1995_23338" x1="43.2615" y1="14.3477" x2="13.379" y2="50.0436" gradientUnits="userSpaceOnUse">
<stop stop-color="#E32900"/>
<stop offset="0.494792" stop-color="#C6E216"/>
<stop offset="1" stop-color="#D808FA"/>
</linearGradient>
<linearGradient id="paint1_linear_1995_23338" x1="29" y1="8.5" x2="32.6831" y2="13.7234" gradientUnits="userSpaceOnUse">
<stop stop-color="#E32900"/>
<stop offset="0.494792" stop-color="#C6E216"/>
<stop offset="1" stop-color="#D808FA"/>
</linearGradient>
<linearGradient id="paint2_linear_1995_23338" x1="18" y1="43.5" x2="21.6831" y2="48.7234" gradientUnits="userSpaceOnUse">
<stop stop-color="#E32900"/>
<stop offset="0.494792" stop-color="#C6E216"/>
<stop offset="1" stop-color="#D808FA"/>
</linearGradient>
</defs>
</svg>
