<svg width="25" height="25" viewBox="0 0 25 25" fill="none" xmlns="http://www.w3.org/2000/svg">
<path fill-rule="evenodd" clip-rule="evenodd" d="M14.7841 2.56207H10.9875C9.35497 2.56207 8.03155 3.88549 8.03155 5.51801V6.35868H7.19086C5.55834 6.35868 4.23492 7.68209 4.23492 9.31461V18.8061C4.23492 20.4387 5.55834 21.7621 7.19086 21.7621H13.8349C15.4674 21.7621 16.7909 20.4387 16.7909 18.8061V17.9655H17.6316C19.2641 17.9655 20.5875 16.6421 20.5875 15.0095V8.36547C20.5875 8.07315 20.4689 7.80854 20.2772 7.6171L15.5326 2.87253C15.3412 2.68073 15.0765 2.56207 14.7841 2.56207ZM10.9875 4.67733C10.5232 4.67733 10.1468 5.05371 10.1468 5.51801V15.0095C10.1468 15.4738 10.5232 15.8502 10.9875 15.8502H15.7291L15.7332 15.8502L15.7373 15.8502H17.6316C18.0958 15.8502 18.4722 15.4738 18.4722 15.0095V9.42309H15.7333C14.6249 9.42309 13.7265 8.52463 13.7265 7.41631V4.67733H10.9875ZM15.8417 6.17304V7.30784H16.9765L15.8417 6.17304ZM10.9875 17.9655H14.6756V18.8061C14.6756 19.2704 14.2992 19.6468 13.8349 19.6468H7.19086C6.72656 19.6468 6.35018 19.2704 6.35018 18.8061V9.31461C6.35018 8.85032 6.72656 8.47393 7.19086 8.47393H8.03155V15.0095C8.03155 16.6421 9.35497 17.9655 10.9875 17.9655Z" fill="black"/>
</svg>
