<svg width="24" height="24" viewBox="0 0 24 24" fill="none" xmlns="http://www.w3.org/2000/svg">
<path d="M17.7202 4.09998C17.7202 4.29998 17.5213 4.39998 17.3223 4.59998C17.2228 4.69998 17.0239 4.79998 16.8249 4.89998C16.6259 4.99998 16.5264 4.99998 16.3275 4.99998C15.8301 4.99998 15.3327 4.99998 14.8353 4.99998C12.7461 4.99998 10.7565 4.99998 8.66738 4.99998C8.16997 4.99998 7.67256 4.99998 7.17515 4.99998C6.77723 4.99998 6.47878 4.79998 6.18034 4.39998C6.18034 4.29998 6.08085 4.29998 6.08085 4.19998C4.88707 4.19998 3.59381 4.19998 2.40002 4.19998C2.40002 9.39998 2.40002 14.6 2.40002 19.9C3.69329 19.9 4.88707 19.9 6.18034 19.9C6.3793 19.6 6.77723 19.5 7.07567 19.4C7.27464 19.3 7.4736 19.3 7.77204 19.3C9.76168 19.3 11.8508 19.3 13.8404 19.3C14.5368 19.3 15.2332 19.3 16.029 19.2C16.5264 19.2 17.0239 19.3 17.4218 19.7C17.5213 19.8 17.5213 19.8 17.6207 19.9C18.0187 19.9 18.4166 19.9 18.8145 19.9C18.8145 19.8 18.914 19.7 19.0135 19.7C19.113 19.7 19.2125 19.7 19.3119 19.7C19.5109 19.7 19.8094 19.7 20.0083 19.7C20.2073 19.7 20.4062 19.7 20.6052 19.7C20.8042 19.7 20.9037 19.8 20.9037 19.9C21.1026 19.9 21.3016 19.9 21.6 19.9C21.6 14.7 21.6 9.49998 21.6 4.19998C20.3068 4.09998 19.0135 4.09998 17.7202 4.09998ZM19.2125 13.5C19.7099 13.5 20.2073 13.4 20.8042 13.5C21.0031 13.5 21.0031 13.6 21.0031 13.8C21.0031 14.2 21.0031 14.5 21.0031 14.9C21.0031 15.1 20.9037 15.2 20.7047 15.2C20.5057 15.2 20.2073 15.2 20.0083 15.2C19.8094 15.2 19.5109 15.2 19.3119 15.2C19.0135 15.2 18.914 15.1 18.914 14.8C18.914 14.5 18.914 14.2 18.914 13.9C18.8145 13.7 18.914 13.5 19.2125 13.5ZM18.8145 10.8L18.914 10.7C19.0135 10.7 19.0135 10.7 19.113 10.6C19.4114 10.6 19.8094 10.5 20.1078 10.5C20.3068 10.5 20.5057 10.5 20.7047 10.6C20.8042 10.6 20.9037 10.7 20.9037 10.8C20.9037 11.2 20.9037 11.6 20.9037 12C20.9037 12.3 20.0083 12.2 19.6104 12.2C19.4114 12.2 19.2125 12.2 19.0135 12.1L18.914 12C18.8145 11.7 18.8145 11.2 18.8145 10.8ZM3.39484 4.79998C3.99173 4.69998 4.48914 4.69998 5.08603 4.79998C5.18552 4.79998 5.285 4.89998 5.285 4.99998C5.285 5.39998 5.285 5.79998 5.285 6.19998C5.285 6.39998 5.18552 6.49998 4.98655 6.49998C4.68811 6.49998 4.48914 6.49998 4.1907 6.49998C3.99173 6.49998 3.69329 6.49998 3.49433 6.49998C3.19588 6.39998 3.0964 6.29998 3.0964 6.09998C3.0964 5.79998 3.0964 5.39998 3.0964 5.09998C3.0964 4.79998 3.0964 4.79998 3.39484 4.79998ZM3.0964 8.19998C3.0964 7.89998 3.0964 7.89998 3.39484 7.89998C3.89225 7.79998 4.48914 7.79998 5.08603 7.89998C5.18552 7.89998 5.18552 7.89998 5.18552 7.99998C5.18552 8.09998 5.18552 8.19998 5.18552 8.39998C5.18552 8.69998 5.18552 8.89998 5.18552 9.19998C5.18552 9.39998 5.08603 9.49998 4.88707 9.49998C4.58863 9.49998 3.69329 9.49998 3.49433 9.49998C3.19588 9.59998 3.0964 9.39998 3.0964 9.19998C3.0964 8.79998 3.0964 8.49998 3.0964 8.19998ZM5.18552 18.1C5.18552 18.2 5.08603 18.4 4.98655 18.4C4.68811 18.4 3.69329 18.4 3.49433 18.4C3.29536 18.4 3.0964 18.3 3.0964 18C3.0964 17.7 3.0964 17.3 3.0964 17C3.0964 16.8 3.0964 16.8 3.29536 16.7C3.89225 16.6 4.38966 16.6 4.98655 16.7C5.08603 16.7 5.18552 16.8 5.18552 16.9C5.18552 17.4 5.18552 17.8 5.18552 18.1ZM4.98655 15.5C4.68811 15.5 3.69329 15.5 3.49433 15.5C3.19588 15.5 3.0964 15.4 3.0964 15.1C3.0964 14.8 3.0964 14.4 3.0964 14.1C3.0964 13.9 3.0964 13.9 3.29536 13.8C3.89225 13.7 4.38966 13.7 4.98655 13.8C5.08603 13.8 5.18552 13.9 5.18552 14C5.18552 14.4 5.18552 14.8 5.18552 15.2C5.18552 15.3 5.08603 15.5 4.98655 15.5ZM5.18552 12.2C5.18552 12.4 5.08603 12.5 4.88707 12.6C4.58863 12.6 4.29018 12.6 3.89225 12.6C3.69329 12.6 3.39484 12.5 3.19588 12.5C3.0964 12.5 3.0964 12.4 3.0964 12.3C3.0964 11.9 3.0964 11.5 3.0964 11.1C3.0964 11 3.0964 10.8 3.29536 10.8C3.79277 10.8 4.29018 10.7 4.78759 10.8C5.08603 10.8 5.18552 10.9 5.18552 11.2C5.18552 11.4 5.18552 11.5 5.18552 11.7C5.18552 11.8 5.18552 12 5.18552 12.2ZM16.9244 16.8C16.6259 16.9 16.427 16.9 16.1285 16.9C14.7358 16.9 13.343 16.9 11.8508 16.9C10.3586 16.9 8.86635 16.9 7.27464 16.9C6.67774 16.9 6.18034 16.5 5.98137 16C5.88189 15.6 5.88189 15.2 5.88189 14.7C5.88189 13 5.88189 11.3 5.88189 9.59998C5.88189 9.29998 5.88189 8.99998 5.88189 8.59998C6.08085 7.89998 6.47878 7.49998 7.07567 7.29998C7.27464 7.19998 7.57308 7.19998 7.87153 7.19998C9.46324 7.19998 10.9555 7.19998 12.5472 7.19998C13.343 7.19998 14.0394 7.19998 14.8353 7.19998C15.3327 7.19998 15.8301 7.19998 16.228 7.19998C16.6259 7.19998 17.0239 7.29998 17.3223 7.49998C17.7202 7.69998 17.9192 8.09998 17.9192 8.59998C17.9192 10.8 17.9192 13.1 17.9192 15.3C17.9192 16 17.5213 16.6 16.9244 16.8ZM20.9037 17.9C20.9037 18.1 20.9037 18.2 20.6052 18.2C20.3068 18.2 19.3119 18.2 19.113 18.2C18.8145 18.2 18.7151 18.1 18.7151 17.8C18.7151 17.5 18.7151 17.1 18.7151 16.8C18.7151 16.6 18.8145 16.5 18.914 16.5C19.3119 16.5 19.6104 16.5 20.0083 16.5C20.1078 16.5 20.3068 16.5 20.4062 16.5C20.6052 16.5 20.8042 16.6 20.8042 16.9C20.9037 17.2 20.9037 17.5 20.9037 17.9ZM20.9037 8.99998C20.9037 9.19998 20.8042 9.29998 20.6052 9.29998C20.2073 9.29998 19.8094 9.29998 19.4114 9.29998C19.3119 9.29998 19.2125 9.29998 19.113 9.29998C18.914 9.29998 18.8145 9.19998 18.8145 8.99998C18.8145 8.59998 18.8145 8.19998 18.8145 7.79998C18.8145 7.69998 18.914 7.59998 19.0135 7.59998C19.113 7.59998 19.2125 7.59998 19.3119 7.59998C19.7099 7.59998 20.1078 7.59998 20.5057 7.59998C20.8042 7.59998 20.9037 7.69998 20.9037 7.99998C20.9037 8.19998 20.9037 8.29998 20.9037 8.49998C20.9037 8.69998 20.9037 8.79998 20.9037 8.99998ZM20.9037 5.79998C20.9037 6.09998 20.8042 6.19998 20.5057 6.19998C20.1078 6.19998 19.8094 6.19998 19.4114 6.19998C19.3119 6.19998 19.2125 6.19998 19.113 6.19998C18.914 6.19998 18.7151 6.09998 18.7151 5.89998C18.7151 5.49998 18.7151 5.19998 18.7151 4.79998C18.7151 4.59998 18.8145 4.59998 18.914 4.59998C19.2125 4.59998 20.1078 4.59998 20.4062 4.59998C20.6052 4.59998 20.8042 4.69998 20.8042 4.99998C20.9037 5.19998 20.9037 5.49998 20.9037 5.79998Z" fill="black"/>
</svg>
