<?xml version="1.0" encoding="utf-8"?>
<!-- Generator: Adobe Illustrator 22.0.0, SVG Export Plug-In . SVG Version: 6.00 Build 0)  -->
<svg version="1.1" id="Слой_1" xmlns="http://www.w3.org/2000/svg" xmlns:xlink="http://www.w3.org/1999/xlink" x="0px" y="0px"
	 viewBox="0 0 24 24" style="enable-background:new 0 0 24 24;" xml:space="preserve">
<path d="M21.5,4.1c-0.2-0.7-0.7-1.2-1.4-1.4c-0.1,0-0.2-0.1-0.3-0.1H4.3c-0.1,0-0.1,0-0.2,0c-0.1,0-0.1,0-0.2,0.1
	C3.2,2.9,2.7,3.4,2.5,4.1C2.3,4.7,2.4,5.4,2.8,6c0,0,0.1,0.1,0.1,0.1l5.7,6.3v4.4c0,0.3,0.2,0.6,0.4,0.8l4.8,3.6
	c0.3,0.2,0.7,0.3,1.1,0.1c0.4-0.2,0.6-0.5,0.6-0.9v-7.9l5.7-6.3c0,0,0.1-0.1,0.1-0.1C21.6,5.4,21.7,4.7,21.5,4.1z M13.6,11.3
	c-0.2,0.2-0.3,0.4-0.3,0.7v6.2l-2.7-2V12c0-0.3-0.1-0.5-0.3-0.7L4.5,4.8c0,0,0-0.1,0-0.1c0,0,0,0,0,0h15c0,0,0,0,0,0
	c0,0,0,0.1,0,0.1L13.6,11.3z"/>
</svg>
