<svg width="28" height="28" viewBox="0 0 28 28" fill="none" xmlns="http://www.w3.org/2000/svg">
<path d="M25.0634 4.74398C24.8173 3.97289 24.2103 3.36586 23.4556 3.09789C23.3298 3.06508 23.1876 3.03773 23.0454 3.03773H4.98216C4.91107 3.0268 4.82904 3.03773 4.747 3.04867C4.66497 3.05961 4.58294 3.08148 4.51185 3.11976C3.76263 3.38773 3.18294 3.98383 2.93685 4.74398C2.67982 5.51508 2.78372 6.3518 3.23763 7.02992C3.27044 7.07914 3.30872 7.12289 3.34154 7.17211L9.9806 14.4784V19.5643C9.9806 19.9471 10.1665 20.3245 10.4728 20.5432L16.0509 24.7213C16.4118 25.0002 16.915 25.0495 17.3251 24.8362C17.7462 24.6284 18.0142 24.2073 18.0142 23.737V14.4784L24.6533 7.17211C24.6861 7.12289 24.7244 7.07914 24.7572 7.02992C25.2165 6.3518 25.3204 5.51508 25.0634 4.74398ZM22.7392 5.61898L15.8814 13.1823C15.6736 13.4065 15.5642 13.6963 15.5642 13.9971V21.2924L12.4361 18.9573V13.9971C12.4361 13.6963 12.3322 13.401 12.1189 13.1823L5.26107 5.61898C5.25013 5.59711 5.25013 5.54789 5.26107 5.52601C5.26107 5.51508 5.272 5.4932 5.272 5.4932H22.7283C22.7283 5.4932 22.7392 5.51508 22.7392 5.52601C22.7501 5.54789 22.7501 5.59711 22.7392 5.61898Z" fill="black"/>
</svg>
