<svg width="24" height="24" viewBox="0 0 24 24" fill="none" xmlns="http://www.w3.org/2000/svg">
<path fill-rule="evenodd" clip-rule="evenodd" d="M3.86907 2.67083C3.2296 2.90581 2.73094 3.41916 2.51512 4.06662C2.29578 4.72465 2.39326 5.44713 2.77916 6.02349C2.80796 6.0665 2.8399 6.10733 2.87472 6.14563L8.56478 12.4047V16.7693C8.56478 17.0998 8.72038 17.411 8.98478 17.6093L13.7553 21.1871C14.0734 21.4258 14.4991 21.4641 14.8549 21.2863C15.2106 21.1084 15.4353 20.7448 15.4353 20.3471V12.4047L21.1253 6.14563C21.1602 6.10733 21.1921 6.0665 21.2209 6.02349C21.6068 5.44713 21.7043 4.72465 21.4849 4.06662C21.2656 3.4086 20.7541 2.8891 20.0996 2.65955C19.9879 2.62039 19.8704 2.60038 19.7521 2.60038H4.2724C4.20598 2.59883 4.13879 2.60361 4.07168 2.61512C4.00153 2.62698 3.93375 2.64579 3.86907 2.67083ZM4.52161 4.70038C4.51574 4.7098 4.51094 4.71996 4.50735 4.7307C4.49771 4.75964 4.4977 4.79053 4.50672 4.81896L10.3917 11.2925C10.5674 11.4857 10.6648 11.7376 10.6648 11.9988V16.2443L13.3353 18.2471V11.9988C13.3353 11.7376 13.4326 11.4857 13.6083 11.2925L19.4933 4.81896C19.5024 4.79053 19.5023 4.75964 19.4927 4.7307C19.4891 4.71996 19.4843 4.7098 19.4785 4.70038H4.52161Z" fill="black"/>
</svg>
