<svg width="20" height="21" viewBox="0 0 20 21" fill="none" xmlns="http://www.w3.org/2000/svg">
<rect y="0.908997" width="20" height="20" rx="10" fill="#0785F9"/>
<g clip-path="url(#clip0_512_14266)">
<path d="M4 16.0518H16V16.9089H4V16.0518ZM14.7143 8.76605C14.828 8.76605 14.937 8.7209 15.0173 8.64052C15.0977 8.56015 15.1429 8.45114 15.1429 8.33748V7.05176C15.1428 6.96369 15.1156 6.87776 15.065 6.80568C15.0144 6.73359 14.9428 6.67885 14.86 6.64891L10.1457 4.93462C10.0516 4.90058 9.94845 4.90058 9.85429 4.93462L5.14 6.64891C5.05717 6.67885 4.98558 6.73359 4.93497 6.80568C4.88435 6.87776 4.85718 6.96369 4.85714 7.05176V8.33748C4.85714 8.45114 4.9023 8.56015 4.98267 8.64052C5.06304 8.7209 5.17205 8.76605 5.28571 8.76605H5.71429V14.3375H4.85714V15.1946H15.1429V14.3375H14.2857V8.76605H14.7143ZM5.71429 7.35176L10 5.79176L14.2857 7.35176V7.90891H5.71429V7.35176ZM10.8571 14.3375H9.14286V8.76605H10.8571V14.3375ZM6.57143 8.76605H8.28571V14.3375H6.57143V8.76605ZM13.4286 14.3375H11.7143V8.76605H13.4286V14.3375Z" fill="white"/>
</g>
<defs>
<clipPath id="clip0_512_14266">
<rect width="12" height="12" fill="white" transform="translate(4 4.909)"/>
</clipPath>
</defs>
</svg>
