<svg width="48" height="48" viewBox="0 0 48 48" fill="none" xmlns="http://www.w3.org/2000/svg">
<g clip-path="url(#clip0_4016_38300)">
<path d="M12.5765 41.3501C12.8498 40.9198 13.4357 40.8024 13.8653 41.0763C14.2949 41.3501 14.4121 41.9369 14.1387 42.3672L12.264 45.3795C11.9906 45.8098 11.4048 45.9272 10.9752 45.6533C10.5455 45.3795 10.4284 44.7927 10.7018 44.3624L12.5765 41.3501Z" fill="#A8AAAE" fill-opacity="0.48"/>
<path d="M2.57771 29.4576C2.69487 29.9662 2.42148 30.4747 1.91375 30.5921C1.40602 30.7095 0.898291 30.4356 0.781123 29.9271C0.624898 29.3402 0.50773 28.7534 0.390561 28.1666C0.273393 27.5798 0.195281 26.993 0.117168 26.4062C0.0781123 26.015 0.0390561 25.6238 0.0390561 25.2326C0 24.8023 0 24.4111 0 24.0199C0 17.3694 2.69487 11.384 7.03011 7.04166C11.3653 2.6993 17.38 0 23.9805 0C30.581 0 36.5956 2.66018 40.9699 7.00254C45.3051 11.3449 48 17.3303 48 23.9416C48 24.4502 47.5704 24.8805 47.0627 24.8805C46.5549 24.8805 46.1253 24.4502 46.1253 23.9416C46.1253 17.8389 43.6648 12.3229 39.642 8.33263C35.6583 4.34236 30.1123 1.87778 23.9805 1.87778C17.8877 1.87778 12.3417 4.34236 8.31896 8.37175C4.33523 12.362 1.87469 17.9171 1.87469 24.0199C1.87469 24.4111 1.87469 24.8023 1.91375 25.1153C1.91375 25.4673 1.95281 25.8194 1.99186 26.1715C2.06998 26.7192 2.10903 27.2669 2.2262 27.8146C2.30431 28.3622 2.42148 28.9099 2.57771 29.4576Z" fill="#A8AAAE" fill-opacity="0.48"/>
<path d="M5.07772 37.9077C4.68716 38.2597 4.10131 38.2206 3.78886 37.8294C3.47642 37.4382 3.47642 36.8514 3.86698 36.5384C4.10131 36.3428 4.29659 36.1081 4.49188 35.7952C4.68716 35.5213 4.84338 35.1692 4.96055 34.778C5.58545 32.7829 5.19489 30.7486 4.84338 28.6361C4.56999 27.2278 4.33565 25.7803 4.33565 24.2938C4.37471 16.6262 9.17861 10.3669 15.4276 7.15907C18.0444 5.82898 20.9736 5.00745 23.8637 4.85097C26.7929 4.69449 29.7612 5.20306 32.4951 6.53315C38.5488 9.38893 43.509 16.1959 44.5244 28.2058C44.5635 28.7144 44.1729 29.1838 43.6652 29.2229C43.1575 29.2621 42.6888 28.8709 42.6497 28.3623C41.6733 17.0956 37.1819 10.7973 31.6359 8.1762C29.1754 7.00259 26.5195 6.57227 23.9028 6.68963C21.247 6.84611 18.6302 7.55028 16.2087 8.80213C10.5456 11.697 6.17129 17.3304 6.13223 24.2547C6.13223 25.5847 6.36657 26.954 6.60091 28.2841C7.03052 30.5922 7.42109 32.9003 6.67902 35.3257C6.52279 35.8734 6.28846 36.3428 6.01506 36.7732C5.78073 37.2035 5.42922 37.5556 5.07772 37.9077Z" fill="#A8AAAE" fill-opacity="0.48"/>
<path d="M42.6494 32.0788C42.6494 31.5702 43.079 31.1399 43.5868 31.1399C44.0945 31.1399 44.5241 31.5702 44.5241 32.0788V35.9908C44.5241 36.4994 44.0945 36.9297 43.5868 36.9297C43.079 36.9297 42.6494 36.4994 42.6494 35.9908V32.0788Z" fill="#A8AAAE" fill-opacity="0.48"/>
<path d="M7.81105 41.7023C7.42049 42.0544 6.83464 42.0152 6.48314 41.624C6.13163 41.2328 6.17069 40.646 6.56125 40.3331C7.73293 39.3159 8.55311 37.9858 9.02179 36.3428C9.52952 34.6606 9.64669 32.5872 9.37329 30.1227C8.82651 27.4625 8.74839 25.037 9.06084 22.8072C9.37329 20.4991 10.1544 18.4257 11.3652 16.7044C11.6385 16.2741 12.2244 16.1567 12.654 16.4697C13.0836 16.7826 13.2008 17.3303 12.8883 17.7606C11.8729 19.2863 11.1699 21.0467 10.8965 23.081C10.6231 25.037 10.7012 27.2669 11.2089 29.7315C11.2089 29.7706 11.248 29.8097 11.248 29.8879C11.5604 32.6264 11.4433 34.9345 10.8574 36.8514C10.2716 38.8465 9.21707 40.4504 7.81105 41.7023Z" fill="#A8AAAE" fill-opacity="0.48"/>
<path d="M17.2632 13.6921C16.8336 13.9659 16.2478 13.8094 15.9744 13.34C15.701 12.8705 15.8572 12.3229 16.3259 12.049C17.3804 11.4622 18.474 10.9537 19.6066 10.6407C22.7311 9.7018 26.168 9.7018 29.2535 10.7972C32.378 11.8925 35.19 14.0442 37.0647 17.3694C37.6896 18.4648 38.2364 19.7166 38.666 21.0858C39.2518 23.0418 39.6424 25.1935 39.8767 27.5798C40.072 29.927 40.1111 32.509 39.9158 35.3256C39.9158 35.3647 39.9158 35.3647 39.9158 35.4039L39.2518 41.8196C39.2128 42.3282 38.7441 42.7194 38.2364 42.6411C37.7286 42.602 37.3381 42.1326 37.4162 41.624L38.0411 35.2083C38.1973 32.509 38.1973 30.0053 38.002 27.7363C37.8068 25.4673 37.4162 23.433 36.8694 21.5944C36.5179 20.3817 36.0102 19.2863 35.4634 18.2692C33.784 15.3743 31.3625 13.4965 28.6286 12.5185C25.8946 11.5405 22.8873 11.5405 20.1143 12.362C19.1379 12.7141 18.1615 13.1444 17.2632 13.6921Z" fill="#A8AAAE" fill-opacity="0.48"/>
<path d="M15.2323 38.4162C15.1542 38.9247 14.6464 39.2768 14.1387 39.1595C13.631 39.0421 13.2795 38.5727 13.3966 38.0641C13.5919 36.8514 13.7481 35.5213 13.7872 34.0347C13.8263 32.5481 13.7872 30.9051 13.7091 29.1838C13.7091 28.7926 13.67 28.3231 13.631 27.8928C13.4357 24.9197 13.2404 22.5333 14.9979 19.4428C15.3885 18.7778 15.8572 18.1127 16.3649 17.565C16.9117 16.9782 17.5366 16.4697 18.2396 16.0002C18.2787 15.9611 18.3177 15.9611 18.3958 15.922C19.4503 15.4134 20.5049 15.0222 21.5594 14.7484C22.653 14.4745 23.7075 14.3572 24.762 14.4354C25.2697 14.4745 25.6603 14.9049 25.6603 15.4134C25.6603 15.922 25.1916 16.3132 24.6839 16.3132C23.7856 16.2741 22.9263 16.3523 21.989 16.587C21.0907 16.8218 20.1534 17.1738 19.216 17.6042C18.6302 17.9954 18.1224 18.3866 17.7319 18.856C17.3023 19.3255 16.9117 19.834 16.5992 20.3817C15.1542 23.0028 15.2713 25.1153 15.4666 27.7754C15.5057 28.1667 15.5057 28.5579 15.5447 29.1055C15.6619 30.866 15.6619 32.5481 15.6228 34.1129C15.5447 35.6778 15.4276 37.1252 15.2323 38.4162Z" fill="#A8AAAE" fill-opacity="0.48"/>
<path d="M28.2766 17.4085C27.847 17.1347 27.6907 16.5479 27.9641 16.1175C28.2375 15.6872 28.7843 15.5307 29.253 15.8046C29.5264 16.0002 29.7998 16.1567 30.0732 16.3914C30.3466 16.587 30.5809 16.8217 30.8543 17.0564C34.4084 20.2643 35.5801 25.4673 35.6582 30.8659C35.7363 36.1471 34.7599 41.624 33.8226 45.6925C33.7054 46.2011 33.1977 46.514 32.729 46.3967C32.2213 46.2793 31.9088 45.7707 32.026 45.3013C32.9243 41.3501 33.8616 35.9907 33.8226 30.905C33.7444 25.9367 32.6899 21.2423 29.6045 18.4648C29.3702 18.2691 29.1749 18.0735 28.9405 17.9171C28.7453 17.7215 28.5109 17.565 28.2766 17.4085Z" fill="#A8AAAE" fill-opacity="0.48"/>
<path d="M16.8721 46.8271C16.5597 47.2574 16.0129 47.3357 15.5833 47.0618C15.1537 46.788 15.0755 46.2012 15.3489 45.7708C16.0129 44.8319 16.5597 43.8148 17.0283 42.7194C17.497 41.6241 17.8485 40.4114 18.0829 39.0813C18.5515 36.6558 18.3172 33.5262 18.1219 30.5921C18.0438 29.6141 18.0048 28.6361 17.9266 27.6581C17.8485 26.2107 17.8485 24.8023 18.1219 23.4722C18.4344 22.0639 19.0593 20.8512 20.3091 19.9514C20.5825 19.7558 20.8949 19.5602 21.2464 19.4037C21.5979 19.2472 21.9494 19.1299 22.34 19.0125C22.6134 18.9343 22.9258 18.856 23.1992 18.8169C25.113 18.504 26.5971 18.9734 27.7688 19.9905C28.8624 20.9685 29.6435 22.3769 30.0731 23.9808C30.1903 24.4503 30.3074 24.9588 30.4246 25.4674C30.4637 25.7412 30.5027 26.0151 30.5418 26.328C30.5808 26.6019 30.6199 26.9148 30.6199 27.1887C30.8152 30.1227 30.698 33.8 30.3074 37.4382C29.9169 40.8808 29.292 44.2843 28.4327 46.9444C28.2765 47.453 27.7688 47.6877 27.2611 47.5704C26.7533 47.4139 26.519 46.9053 26.6362 46.3968C27.4173 43.8931 28.0422 40.607 28.3937 37.2426C28.7842 33.7609 28.9014 30.1618 28.7061 27.3452C28.7061 27.1104 28.6671 26.8366 28.628 26.5628C28.589 26.328 28.5499 26.0542 28.5109 25.8195C28.4327 25.3891 28.3546 24.9197 28.1984 24.5285C27.8469 23.2375 27.2611 22.103 26.4409 21.3989C25.6988 20.7338 24.6834 20.4209 23.3945 20.6556C23.1992 20.6947 22.9649 20.7338 22.7305 20.8121C22.4181 20.8903 22.1447 21.0077 21.9104 21.125C21.676 21.2424 21.4417 21.3597 21.2855 21.4771C20.4653 22.0639 20.0357 22.8854 19.8404 23.8634C19.6061 24.9588 19.6451 26.2498 19.6842 27.5799C19.7232 28.4796 19.8013 29.4577 19.8794 30.4748C20.0747 33.5262 20.3091 36.734 19.8013 39.3942C19.5279 40.8417 19.1374 42.1326 18.6296 43.3845C18.2 44.6363 17.5751 45.7708 16.8721 46.8271Z" fill="#A8AAAE" fill-opacity="0.48"/>
<path d="M23.1994 24.3329C23.1213 23.8243 23.4338 23.3549 23.9415 23.2375C24.4492 23.1593 24.9179 23.4722 25.0351 23.9808C25.5037 26.5236 25.7381 29.1056 25.7381 31.6875C25.7381 34.2695 25.5428 36.8514 25.1522 39.4333C25.0741 39.9419 24.6054 40.294 24.0977 40.2157C23.59 40.1375 23.2385 39.6681 23.3166 39.1595C23.7071 36.6558 23.9024 34.1521 23.9024 31.6875C23.9024 29.2229 23.6681 26.7584 23.1994 24.3329Z" fill="#A8AAAE" fill-opacity="0.48"/>
<path d="M22.1446 42.3672C22.2617 41.8587 22.7304 41.5457 23.2382 41.6631C23.7459 41.7804 24.0583 42.289 23.9412 42.7584L23.121 46.4357C23.0038 46.9443 22.5351 47.2573 22.0274 47.1399C21.5197 47.0226 21.2072 46.514 21.3244 46.0445L22.1446 42.3672Z" fill="#A8AAAE" fill-opacity="0.48"/>
</g>
<defs>
<clipPath id="clip0_4016_38300">
<rect width="48" height="47.6094" fill="white"/>
</clipPath>
</defs>
</svg>
