<svg width="12" height="18" viewBox="0 0 12 18" fill="none" xmlns="http://www.w3.org/2000/svg">
<path fill-rule="evenodd" clip-rule="evenodd" d="M4.76417 0.228549C4.91454 0.0433551 5.14808 -0.038042 5.37153 0.0168634C8.35812 0.750686 9.86772 4.25335 9.51269 7.38711C9.37473 8.60532 9.03377 9.5603 8.53175 10.3202C8.52869 10.3249 8.52555 10.3295 8.52248 10.3341C8.63653 10.2741 8.74171 10.2094 8.84019 10.141C9.33004 9.80068 9.68963 9.35163 10.1577 8.76688C10.2143 8.6962 10.2725 8.62357 10.3327 8.54891C10.4679 8.38106 10.6725 8.29639 10.878 8.32331C11.0835 8.35015 11.263 8.48505 11.3566 8.68274C11.7683 9.55357 12 10.5381 12 11.5786C12 15.1251 9.31374 18 6 18C2.6863 18 0 15.1251 0 11.5786C0 9.33152 1.07893 7.35452 2.70977 6.20802L2.76569 6.14772C2.79441 6.11675 2.82591 6.08887 2.85974 6.06451C3.57631 5.54846 4.09086 5.12638 4.43727 4.63C4.7645 4.16109 4.96552 3.58909 4.96552 2.72148C4.96552 2.07909 4.8547 1.46596 4.65294 0.901735C4.57101 0.672575 4.61371 0.413743 4.76417 0.228549ZM6.14168 1.77214C6.18463 2.08213 6.2069 2.39915 6.2069 2.72148C6.2069 3.84493 5.9357 4.70309 5.43186 5.42504C4.95865 6.10304 4.30368 6.62378 3.60386 7.1299L3.54402 7.19443C3.51196 7.22901 3.47645 7.2597 3.43812 7.28597C2.11571 8.19205 1.24138 9.77624 1.24138 11.5786C1.24138 14.3913 3.37188 16.6714 6 16.6714C8.62808 16.6714 10.7586 14.3913 10.7586 11.5786C10.7586 11.1182 10.7017 10.6726 10.595 10.2492C10.2804 10.6139 9.93302 10.9658 9.516 11.2554C8.75197 11.7861 7.79578 12.0891 6.41379 12.0891C6.13051 12.0891 5.88323 11.8839 5.81263 11.5903C5.74212 11.2967 5.86618 10.9892 6.11429 10.843C6.67605 10.5117 7.15225 10.1069 7.51821 9.55304C7.88334 9.00044 8.16306 8.26255 8.28041 7.2272C8.53432 4.98568 7.6675 2.77323 6.14168 1.77214Z" fill="white"/>
</svg>
