<svg width="15" height="17" viewBox="0 0 15 17" fill="none" xmlns="http://www.w3.org/2000/svg">
<path d="M14.465 6.8674C14.465 6.8674 13.665 7.61406 12.305 8.49406C11.9317 6.33406 10.8917 3.6674 8.86499 0.414062C8.86499 0.414062 8.19832 3.9074 5.98499 7.1874C5.02499 5.69406 4.59832 4.52073 4.59832 4.52073C-2.33501 11.4807 3.42499 16.4141 7.05165 16.4141C11.6917 16.4141 15.7717 14.1741 14.465 6.8674Z" fill="#FF9D33"/>
<path d="M11.718 13.053C12.118 12.173 12.4113 11.0263 12.4647 9.5863C12.4647 9.5863 11.9047 10.0663 10.9447 10.6796C10.678 9.23964 9.95801 7.47964 8.54468 5.29297C8.54468 5.29297 8.09135 7.61297 6.54468 9.8263C5.87801 8.83964 5.58468 8.03964 5.58468 8.03964C4.43801 9.85297 3.98468 11.293 3.95801 12.4396C3.31801 12.1996 2.91801 12.013 2.91801 12.013C4.01135 15.2663 6.27801 15.9863 7.29135 15.9863C9.10468 15.9863 10.9447 15.453 12.758 12.8663C12.758 12.8396 12.358 12.9463 11.718 13.053Z" fill="#FFCE31"/>
<path d="M5.10533 11.5861C5.10533 11.5861 5.85199 12.5994 6.41199 12.3594C6.41199 12.3594 7.47866 10.6794 9.02533 9.74609C9.02533 9.74609 8.70533 12.3061 9.07866 12.7594C9.55866 13.3728 10.8653 12.0928 10.8653 12.0928C10.8653 13.6128 9.21199 15.5061 7.71866 15.5061C6.27866 15.5061 4.19866 13.8528 5.10533 11.5861Z" fill="#FFDF85"/>
<path d="M12.545 4.7087C13.105 3.9087 13.4783 3.05536 13.4783 3.05536C14.4117 4.60203 13.8517 5.53536 13.4517 5.8287C12.8917 6.25536 11.905 5.64203 12.545 4.7087ZM2.35834 4.44203C1.79834 3.5087 1.74501 2.33536 1.74501 2.33536C0.411675 4.33536 0.918342 5.45536 1.37167 5.77536C1.95834 6.2287 2.97167 5.53536 2.35834 4.44203ZM5.45167 2.36203C5.53168 1.72203 5.26501 1.08203 5.26501 1.08203C6.51834 1.9087 6.51834 2.60203 6.35834 2.89536C6.11834 3.24203 5.37168 3.08203 5.45167 2.36203Z" fill="#FF9D33"/>
</svg>
