<svg width="20" height="20" viewBox="0 0 20 20" fill="none" xmlns="http://www.w3.org/2000/svg">
<g id="Group">
<path id="Vector" d="M10.1998 8.18182V12.0546H15.5817C15.3453 13.3 14.6362 14.3546 13.5725 15.0637L16.818 17.5819C18.7089 15.8365 19.7998 13.2728 19.7998 10.2274C19.7998 9.51831 19.7362 8.83642 19.618 8.18193L10.1998 8.18182Z" fill="#4285F4"/>
<path id="Vector_2" d="M4.59552 11.9034L3.86355 12.4637L1.27258 14.4819C2.91804 17.7455 6.29054 20.0001 10.1996 20.0001C12.8996 20.0001 15.1632 19.1092 16.8178 17.5819L13.5723 15.0637C12.6814 15.6637 11.545 16.0274 10.1996 16.0274C7.59962 16.0274 5.39058 14.2729 4.59961 11.9092L4.59552 11.9034Z" fill="#34A853"/>
<path id="Vector_3" d="M1.27261 5.51822C0.590822 6.86363 0.199951 8.38184 0.199951 10C0.199951 11.6182 0.590822 13.1364 1.27261 14.4818C1.27261 14.4908 4.59995 11.9 4.59995 11.9C4.39995 11.3 4.28174 10.6636 4.28174 9.9999C4.28174 9.33617 4.39995 8.69984 4.59995 8.09984L1.27261 5.51822Z" fill="#FBBC05"/>
<path id="Vector_4" d="M10.1998 3.98184C11.6726 3.98184 12.9817 4.49092 14.0271 5.47275L16.8907 2.60914C15.1544 0.990976 12.8999 0 10.1998 0C6.29074 0 2.91804 2.24546 1.27258 5.51822L4.59983 8.10005C5.3907 5.73638 7.59983 3.98184 10.1998 3.98184Z" fill="#EA4335"/>
</g>
</svg>
