<svg width="64" height="64" viewBox="0 0 64 64" fill="none" xmlns="http://www.w3.org/2000/svg">
<g filter="url(#filter0_bii_10555_47621)">
<path d="M38.3003 21.9C38.2003 21.8 38.0003 21.8 37.9003 21.6C37.8003 21.6 37.8003 21.8 37.7003 21.8C37.3003 22.1 36.8003 22.4 36.3003 22.5L35.9003 22.6L35.5003 22.3C35.2003 22.1 34.9003 21.9 34.6003 21.6C34.4003 21.5 34.3003 21.3 34.2003 21C33.9003 21.1 33.7003 21.1 33.5003 21.2C33.0003 22.6 32.1003 23.7 30.9003 25C29.4003 26.5 28.0003 28.1 27.5003 30.1C27.2003 31.2 27.3003 32.5 28.0003 33.7C28.5003 34.9 29.5003 35.9 30.5003 36.3C31.5003 36.8 32.6003 36.8 33.6003 36.5C34.6003 36.2 35.6003 35.6 36.3003 34.9C38.0003 33.1 38.5003 30.5 38.8003 28.1C39.0003 26.3 39.0003 24.4 38.9003 22.2C38.8003 22.2 38.8003 22.1 38.7003 22.2C38.6003 22 38.5003 21.9 38.3003 21.9Z" fill="#713E7A"/>
</g>
<g filter="url(#filter1_bii_10555_47621)">
<path d="M39.8004 21.0002C39.8004 21.0002 39.3004 21.0002 38.9004 20.7002C38.6004 20.6002 38.4004 20.4002 38.2004 20.0002C38.1004 19.8002 38.1004 19.7002 38.0004 19.5002L37.8004 19.8002C37.4004 20.7002 36.3004 21.2002 36.2004 21.2002C35.3004 20.7002 34.9004 19.1002 34.9004 19.1002C34.8004 19.1002 34.8004 19.2002 34.8004 19.3002H34.7004H34.6004C34.5004 19.3002 34.5004 19.5002 34.4004 19.5002H34.3004C34.2004 19.5002 34.2004 19.5002 34.1004 19.6002C33.4004 19.9002 32.9004 19.7002 32.9004 19.7002C32.9004 19.5002 33.0004 19.2002 33.0004 19.0002C33.2004 18.1002 34.0004 17.1002 34.2004 16.9002H34.3004C34.4004 16.9002 34.4004 16.9002 34.4004 16.7002H34.5004C35.1004 16.2002 36.3004 16.0002 36.3004 16.0002H36.5004C36.6004 15.9002 36.6004 15.6002 36.6004 15.4002C36.6004 15.2002 36.6004 14.9002 36.5004 14.7002C36.4004 14.2002 36.2004 13.7002 36.2004 13.7002L37.3004 13.2002C37.3004 13.3002 37.7004 14.0002 37.7004 14.9002C37.7004 15.1002 37.7004 15.4002 37.7004 15.6002C37.7004 15.8002 37.6004 16.0002 37.6004 16.2002C38.8004 16.7002 40.3004 18.0002 39.8004 21.0002Z" fill="#2BB673"/>
</g>
<g filter="url(#filter2_bii_10555_47621)">
<path d="M47.8 16.6004C47.4 16.5004 47 16.6004 46.7 16.8004C46.5 16.4004 46.1 16.3004 45.8 16.1004C44.9 15.9004 44.1 16.4004 43.9 17.3004C43.7 18.0004 43.9 18.6004 44.5 19.0004L43.5 22.5004C43.7 22.5004 44 22.6004 44.3 22.6004L45.8 23.0004C46.1 23.1004 46.3 23.2004 46.6 23.3004L47.6 19.7004C48.3 19.6004 48.8 19.2004 49 18.5004C49.2 17.7004 48.7 16.9004 47.8 16.6004Z" fill="#CCCCCC"/>
</g>
<g filter="url(#filter3_bii_10555_47621)">
<path d="M48.1003 37.7C47.0003 40 45.1003 36.8 42.6003 36.7C38.2003 36.6 34.7003 37.3 35.7003 33.2C36.0003 32 36.5003 31.1 37.3003 30.3C37.3003 30.3 40.2003 27.8 40.6003 25.9C41.0003 24.3 42.6003 23.3 44.2003 23.7L45.7003 24.1C47.3003 24.5 48.0003 26.1 47.8003 27.8C47.5003 29.7 48.7003 32.7 48.7003 33.1C49.0003 34.5 48.9003 36.1 48.1003 37.7Z" fill="#C67C31"/>
</g>
<g filter="url(#filter4_bii_10555_47621)">
<path d="M11.7002 17.1003C11.7002 17.1003 15.8002 16.5003 17.5002 17.6003C19.2002 18.7003 20.5002 22.0003 20.5002 22.0003C20.5002 22.0003 16.9002 22.8003 14.7002 21.5003C12.4002 20.3003 11.7002 17.1003 11.7002 17.1003Z" fill="#00A651"/>
</g>
<g filter="url(#filter5_bii_10555_47621)">
<path d="M22.7004 21.5003C22.0004 22.2003 22.1004 22.3003 21.3004 22.8003C20.6004 23.2003 19.0004 23.5003 17.8004 23.6003C16.3004 23.8003 13.8004 25.3003 14.8004 28.9003C15.1004 30.1003 16.1004 32.1003 17.8004 34.2003C18.8004 35.3003 21.3004 37.5003 22.8004 36.6003C24.7004 35.5003 25.0004 35.4003 25.3004 35.3003L25.7004 35.2003C26.1004 35.1003 26.4004 35.0003 28.6004 34.6003C29.2004 34.5003 30.3004 31.8003 30.5004 30.5003C30.8004 28.7003 31.2004 27.5003 30.2004 24.2003C29.3004 21.2003 27.4004 20.5003 27.1004 20.4003C25.6004 19.6003 23.9004 20.2003 22.7004 21.5003Z" fill="#E74424"/>
</g>
<g filter="url(#filter6_bii_10555_47621)">
<path d="M16.1001 34.4004L19.6001 47.7004C20.1001 49.4004 21.6001 50.7004 23.4001 50.7004H42.0001C43.8001 50.7004 45.4001 49.5004 45.9001 47.7004L49.3001 34.4004H16.1001ZM23.9001 48.8004C23.8001 48.8004 23.7001 48.8004 23.6001 48.8004C23.2001 48.8004 22.7001 48.5004 22.6001 48.1004L20.3001 39.0004C20.2001 38.5004 20.5001 37.9004 21.0001 37.8004C21.5001 37.7004 22.1001 38.0004 22.2001 38.5004L24.6001 47.6004C24.7001 48.1004 24.4001 48.7004 23.9001 48.8004ZM28.4001 48.8004H28.3001C27.8001 48.8004 27.4001 48.4004 27.3001 47.9004L26.0001 38.8004C25.9001 38.3004 26.3001 37.7004 26.8001 37.7004C27.3001 37.6004 27.9001 38.0004 27.9001 38.5004L29.2001 47.6004C29.3001 48.2004 28.9001 48.7004 28.4001 48.8004ZM33.7001 47.8004C33.7001 48.4004 33.3001 48.8004 32.7001 48.8004C32.1001 48.8004 31.7001 48.4004 31.7001 47.8004V38.7004C31.7001 38.1004 32.1001 37.7004 32.7001 37.7004C33.3001 37.7004 33.7001 38.1004 33.7001 38.7004V47.8004ZM38.1001 48.0004C38.0001 48.5004 37.6001 48.9004 37.1001 48.9004H37.0001C36.5001 48.8004 36.1001 48.3004 36.2001 47.8004L37.5001 38.7004C37.6001 38.2004 38.1001 37.8004 38.6001 37.9004C39.1001 38.0004 39.5001 38.5004 39.4001 39.0004L38.1001 48.0004ZM45.1001 39.0004L42.7001 48.1004C42.6001 48.6004 42.2001 48.8004 41.7001 48.8004C41.6001 48.8004 41.5001 48.8004 41.4001 48.8004C40.9001 48.7004 40.5001 48.1004 40.7001 47.6004L43.1001 38.5004C43.2001 38.0004 43.8001 37.6004 44.3001 37.8004C44.9001 37.9004 45.2001 38.4004 45.1001 39.0004Z" fill="#FDC74F"/>
</g>
<g filter="url(#filter7_bii_10555_47621)">
<path d="M14.8002 29.3003H50.6002C51.2002 29.3003 51.7002 29.8003 51.7002 30.4003V34.2003C51.7002 34.8003 51.2002 35.3003 50.6002 35.3003H14.8002C14.2002 35.3003 13.7002 34.8003 13.7002 34.2003V30.4003C13.7002 29.8003 14.2002 29.3003 14.8002 29.3003Z" fill="#FDC74F"/>
</g>
<g filter="url(#filter8_bii_10555_47621)">
<path d="M29.0004 32.5001C29.0004 31.4001 28.1004 30.6001 27.1004 30.6001C26.3004 30.6001 25.6004 31.1001 25.3004 31.8001L13.7004 41.2001C12.9004 41.8001 12.8004 42.9001 13.4004 43.7001C13.7004 44.1001 14.3004 44.3001 14.8004 44.3001C15.2004 44.3001 15.6004 44.2001 15.9004 43.9001L27.5004 34.5001L27.6004 34.4001C28.4004 34.1001 29.0004 33.4001 29.0004 32.5001Z" fill="#ADB4C4"/>
</g>
<g filter="url(#filter9_bii_10555_47621)">
<path d="M51.7004 41.2001L40.1004 31.8001C39.8004 31.1001 39.1004 30.6001 38.3004 30.6001C37.2004 30.6001 36.4004 31.5001 36.4004 32.5001C36.4004 33.4001 37.0004 34.1001 37.8004 34.4001L37.9004 34.5001L49.5004 43.9001C49.8004 44.2001 50.2004 44.3001 50.6004 44.3001C51.1004 44.3001 51.6004 44.1001 52.0004 43.7001C52.5004 42.9001 52.4004 41.8001 51.7004 41.2001Z" fill="#ADB4C4"/>
</g>
<defs>
<filter id="filter0_bii_10555_47621" x="23.8252" y="19.5352" width="16.6054" height="18.6343" filterUnits="userSpaceOnUse" color-interpolation-filters="sRGB">
<feFlood flood-opacity="0" result="BackgroundImageFix"/>
<feGaussianBlur in="BackgroundImageFix" stdDeviation="0.732418"/>
<feComposite in2="SourceAlpha" operator="in" result="effect1_backgroundBlur_10555_47621"/>
<feBlend mode="normal" in="SourceGraphic" in2="effect1_backgroundBlur_10555_47621" result="shape"/>
<feColorMatrix in="SourceAlpha" type="matrix" values="0 0 0 0 0 0 0 0 0 0 0 0 0 0 0 0 0 0 127 0" result="hardAlpha"/>
<feOffset dx="-3.51561" dy="1.17187"/>
<feGaussianBlur stdDeviation="2.34374"/>
<feComposite in2="hardAlpha" operator="arithmetic" k2="-1" k3="1"/>
<feColorMatrix type="matrix" values="0 0 0 0 1 0 0 0 0 1 0 0 0 0 1 0 0 0 0.5 0"/>
<feBlend mode="normal" in2="shape" result="effect2_innerShadow_10555_47621"/>
<feColorMatrix in="SourceAlpha" type="matrix" values="0 0 0 0 0 0 0 0 0 0 0 0 0 0 0 0 0 0 127 0" result="hardAlpha"/>
<feOffset dx="0.878902" dy="-0.878902"/>
<feGaussianBlur stdDeviation="1.7578"/>
<feComposite in2="hardAlpha" operator="arithmetic" k2="-1" k3="1"/>
<feColorMatrix type="matrix" values="0 0 0 0 0 0 0 0 0 0 0 0 0 0 0 0 0 0 0.5 0"/>
<feBlend mode="normal" in2="effect2_innerShadow_10555_47621" result="effect3_innerShadow_10555_47621"/>
</filter>
<filter id="filter1_bii_10555_47621" x="31.3804" y="11.7354" width="9.98386" height="10.9297" filterUnits="userSpaceOnUse" color-interpolation-filters="sRGB">
<feFlood flood-opacity="0" result="BackgroundImageFix"/>
<feGaussianBlur in="BackgroundImageFix" stdDeviation="0.732418"/>
<feComposite in2="SourceAlpha" operator="in" result="effect1_backgroundBlur_10555_47621"/>
<feBlend mode="normal" in="SourceGraphic" in2="effect1_backgroundBlur_10555_47621" result="shape"/>
<feColorMatrix in="SourceAlpha" type="matrix" values="0 0 0 0 0 0 0 0 0 0 0 0 0 0 0 0 0 0 127 0" result="hardAlpha"/>
<feOffset dx="-1.52" dy="0.17"/>
<feGaussianBlur stdDeviation="1"/>
<feComposite in2="hardAlpha" operator="arithmetic" k2="-1" k3="1"/>
<feColorMatrix type="matrix" values="0 0 0 0 1 0 0 0 0 1 0 0 0 0 1 0 0 0 0.5 0"/>
<feBlend mode="normal" in2="shape" result="effect2_innerShadow_10555_47621"/>
<feColorMatrix in="SourceAlpha" type="matrix" values="0 0 0 0 0 0 0 0 0 0 0 0 0 0 0 0 0 0 127 0" result="hardAlpha"/>
<feOffset dx="0.4" dy="-0.4"/>
<feGaussianBlur stdDeviation="1"/>
<feComposite in2="hardAlpha" operator="arithmetic" k2="-1" k3="1"/>
<feColorMatrix type="matrix" values="0 0 0 0 0 0 0 0 0 0 0 0 0 0 0 0 0 0 0.5 0"/>
<feBlend mode="normal" in2="effect2_innerShadow_10555_47621" result="effect3_innerShadow_10555_47621"/>
</filter>
<filter id="filter2_bii_10555_47621" x="39.9844" y="14.5918" width="10.5244" height="10.1733" filterUnits="userSpaceOnUse" color-interpolation-filters="sRGB">
<feFlood flood-opacity="0" result="BackgroundImageFix"/>
<feGaussianBlur in="BackgroundImageFix" stdDeviation="0.732418"/>
<feComposite in2="SourceAlpha" operator="in" result="effect1_backgroundBlur_10555_47621"/>
<feBlend mode="normal" in="SourceGraphic" in2="effect1_backgroundBlur_10555_47621" result="shape"/>
<feColorMatrix in="SourceAlpha" type="matrix" values="0 0 0 0 0 0 0 0 0 0 0 0 0 0 0 0 0 0 127 0" result="hardAlpha"/>
<feOffset dx="-3.51561" dy="1.17187"/>
<feGaussianBlur stdDeviation="2.34374"/>
<feComposite in2="hardAlpha" operator="arithmetic" k2="-1" k3="1"/>
<feColorMatrix type="matrix" values="0 0 0 0 1 0 0 0 0 1 0 0 0 0 1 0 0 0 0.5 0"/>
<feBlend mode="normal" in2="shape" result="effect2_innerShadow_10555_47621"/>
<feColorMatrix in="SourceAlpha" type="matrix" values="0 0 0 0 0 0 0 0 0 0 0 0 0 0 0 0 0 0 127 0" result="hardAlpha"/>
<feOffset dx="0.878902" dy="-0.878902"/>
<feGaussianBlur stdDeviation="1.7578"/>
<feComposite in2="hardAlpha" operator="arithmetic" k2="-1" k3="1"/>
<feColorMatrix type="matrix" values="0 0 0 0 0 0 0 0 0 0 0 0 0 0 0 0 0 0 0.5 0"/>
<feBlend mode="normal" in2="effect2_innerShadow_10555_47621" result="effect3_innerShadow_10555_47621"/>
</filter>
<filter id="filter3_bii_10555_47621" x="32.0127" y="22.147" width="18.3081" height="17.8476" filterUnits="userSpaceOnUse" color-interpolation-filters="sRGB">
<feFlood flood-opacity="0" result="BackgroundImageFix"/>
<feGaussianBlur in="BackgroundImageFix" stdDeviation="0.732418"/>
<feComposite in2="SourceAlpha" operator="in" result="effect1_backgroundBlur_10555_47621"/>
<feBlend mode="normal" in="SourceGraphic" in2="effect1_backgroundBlur_10555_47621" result="shape"/>
<feColorMatrix in="SourceAlpha" type="matrix" values="0 0 0 0 0 0 0 0 0 0 0 0 0 0 0 0 0 0 127 0" result="hardAlpha"/>
<feOffset dx="-3.51561" dy="1.17187"/>
<feGaussianBlur stdDeviation="2.34374"/>
<feComposite in2="hardAlpha" operator="arithmetic" k2="-1" k3="1"/>
<feColorMatrix type="matrix" values="0 0 0 0 1 0 0 0 0 1 0 0 0 0 1 0 0 0 0.5 0"/>
<feBlend mode="normal" in2="shape" result="effect2_innerShadow_10555_47621"/>
<feColorMatrix in="SourceAlpha" type="matrix" values="0 0 0 0 0 0 0 0 0 0 0 0 0 0 0 0 0 0 127 0" result="hardAlpha"/>
<feOffset dx="0.878902" dy="-0.878902"/>
<feGaussianBlur stdDeviation="1.7578"/>
<feComposite in2="hardAlpha" operator="arithmetic" k2="-1" k3="1"/>
<feColorMatrix type="matrix" values="0 0 0 0 0 0 0 0 0 0 0 0 0 0 0 0 0 0 0.5 0"/>
<feBlend mode="normal" in2="effect2_innerShadow_10555_47621" result="effect3_innerShadow_10555_47621"/>
</filter>
<filter id="filter4_bii_10555_47621" x="10.1802" y="15.4722" width="11.7846" height="8.23631" filterUnits="userSpaceOnUse" color-interpolation-filters="sRGB">
<feFlood flood-opacity="0" result="BackgroundImageFix"/>
<feGaussianBlur in="BackgroundImageFix" stdDeviation="0.732418"/>
<feComposite in2="SourceAlpha" operator="in" result="effect1_backgroundBlur_10555_47621"/>
<feBlend mode="normal" in="SourceGraphic" in2="effect1_backgroundBlur_10555_47621" result="shape"/>
<feColorMatrix in="SourceAlpha" type="matrix" values="0 0 0 0 0 0 0 0 0 0 0 0 0 0 0 0 0 0 127 0" result="hardAlpha"/>
<feOffset dx="-1.52" dy="0.17"/>
<feGaussianBlur stdDeviation="1"/>
<feComposite in2="hardAlpha" operator="arithmetic" k2="-1" k3="1"/>
<feColorMatrix type="matrix" values="0 0 0 0 1 0 0 0 0 1 0 0 0 0 1 0 0 0 0.5 0"/>
<feBlend mode="normal" in2="shape" result="effect2_innerShadow_10555_47621"/>
<feColorMatrix in="SourceAlpha" type="matrix" values="0 0 0 0 0 0 0 0 0 0 0 0 0 0 0 0 0 0 127 0" result="hardAlpha"/>
<feOffset dx="0.4" dy="-0.4"/>
<feGaussianBlur stdDeviation="1"/>
<feComposite in2="hardAlpha" operator="arithmetic" k2="-1" k3="1"/>
<feColorMatrix type="matrix" values="0 0 0 0 0 0 0 0 0 0 0 0 0 0 0 0 0 0 0.5 0"/>
<feBlend mode="normal" in2="effect2_innerShadow_10555_47621" result="effect3_innerShadow_10555_47621"/>
</filter>
<filter id="filter5_bii_10555_47621" x="11.0552" y="18.5742" width="21.2485" height="19.7021" filterUnits="userSpaceOnUse" color-interpolation-filters="sRGB">
<feFlood flood-opacity="0" result="BackgroundImageFix"/>
<feGaussianBlur in="BackgroundImageFix" stdDeviation="0.732418"/>
<feComposite in2="SourceAlpha" operator="in" result="effect1_backgroundBlur_10555_47621"/>
<feBlend mode="normal" in="SourceGraphic" in2="effect1_backgroundBlur_10555_47621" result="shape"/>
<feColorMatrix in="SourceAlpha" type="matrix" values="0 0 0 0 0 0 0 0 0 0 0 0 0 0 0 0 0 0 127 0" result="hardAlpha"/>
<feOffset dx="-3.51561" dy="1.17187"/>
<feGaussianBlur stdDeviation="2.34374"/>
<feComposite in2="hardAlpha" operator="arithmetic" k2="-1" k3="1"/>
<feColorMatrix type="matrix" values="0 0 0 0 1 0 0 0 0 1 0 0 0 0 1 0 0 0 0.5 0"/>
<feBlend mode="normal" in2="shape" result="effect2_innerShadow_10555_47621"/>
<feColorMatrix in="SourceAlpha" type="matrix" values="0 0 0 0 0 0 0 0 0 0 0 0 0 0 0 0 0 0 127 0" result="hardAlpha"/>
<feOffset dx="0.878902" dy="-0.878902"/>
<feGaussianBlur stdDeviation="1.7578"/>
<feComposite in2="hardAlpha" operator="arithmetic" k2="-1" k3="1"/>
<feColorMatrix type="matrix" values="0 0 0 0 0 0 0 0 0 0 0 0 0 0 0 0 0 0 0.5 0"/>
<feBlend mode="normal" in2="effect2_innerShadow_10555_47621" result="effect3_innerShadow_10555_47621"/>
</filter>
<filter id="filter6_bii_10555_47621" x="14.1001" y="32.9356" width="36.665" height="19.2295" filterUnits="userSpaceOnUse" color-interpolation-filters="sRGB">
<feFlood flood-opacity="0" result="BackgroundImageFix"/>
<feGaussianBlur in="BackgroundImageFix" stdDeviation="0.732418"/>
<feComposite in2="SourceAlpha" operator="in" result="effect1_backgroundBlur_10555_47621"/>
<feBlend mode="normal" in="SourceGraphic" in2="effect1_backgroundBlur_10555_47621" result="shape"/>
<feColorMatrix in="SourceAlpha" type="matrix" values="0 0 0 0 0 0 0 0 0 0 0 0 0 0 0 0 0 0 127 0" result="hardAlpha"/>
<feOffset dx="-3.51561" dy="1.17187"/>
<feGaussianBlur stdDeviation="1"/>
<feComposite in2="hardAlpha" operator="arithmetic" k2="-1" k3="1"/>
<feColorMatrix type="matrix" values="0 0 0 0 1 0 0 0 0 1 0 0 0 0 1 0 0 0 0.5 0"/>
<feBlend mode="normal" in2="shape" result="effect2_innerShadow_10555_47621"/>
<feColorMatrix in="SourceAlpha" type="matrix" values="0 0 0 0 0 0 0 0 0 0 0 0 0 0 0 0 0 0 127 0" result="hardAlpha"/>
<feOffset dx="0.878902" dy="-0.878902"/>
<feGaussianBlur stdDeviation="1"/>
<feComposite in2="hardAlpha" operator="arithmetic" k2="-1" k3="1"/>
<feColorMatrix type="matrix" values="0 0 0 0 0 0 0 0 0 0 0 0 0 0 0 0 0 0 0.5 0"/>
<feBlend mode="normal" in2="effect2_innerShadow_10555_47621" result="effect3_innerShadow_10555_47621"/>
</filter>
<filter id="filter7_bii_10555_47621" x="11.7002" y="27.8355" width="41.4648" height="8.92967" filterUnits="userSpaceOnUse" color-interpolation-filters="sRGB">
<feFlood flood-opacity="0" result="BackgroundImageFix"/>
<feGaussianBlur in="BackgroundImageFix" stdDeviation="0.732418"/>
<feComposite in2="SourceAlpha" operator="in" result="effect1_backgroundBlur_10555_47621"/>
<feBlend mode="normal" in="SourceGraphic" in2="effect1_backgroundBlur_10555_47621" result="shape"/>
<feColorMatrix in="SourceAlpha" type="matrix" values="0 0 0 0 0 0 0 0 0 0 0 0 0 0 0 0 0 0 127 0" result="hardAlpha"/>
<feOffset dx="-3.51561" dy="1.17187"/>
<feGaussianBlur stdDeviation="1"/>
<feComposite in2="hardAlpha" operator="arithmetic" k2="-1" k3="1"/>
<feColorMatrix type="matrix" values="0 0 0 0 1 0 0 0 0 1 0 0 0 0 1 0 0 0 0.5 0"/>
<feBlend mode="normal" in2="shape" result="effect2_innerShadow_10555_47621"/>
<feColorMatrix in="SourceAlpha" type="matrix" values="0 0 0 0 0 0 0 0 0 0 0 0 0 0 0 0 0 0 127 0" result="hardAlpha"/>
<feOffset dx="0.878902" dy="-0.878902"/>
<feGaussianBlur stdDeviation="1"/>
<feComposite in2="hardAlpha" operator="arithmetic" k2="-1" k3="1"/>
<feColorMatrix type="matrix" values="0 0 0 0 0 0 0 0 0 0 0 0 0 0 0 0 0 0 0.5 0"/>
<feBlend mode="normal" in2="effect2_innerShadow_10555_47621" result="effect3_innerShadow_10555_47621"/>
</filter>
<filter id="filter8_bii_10555_47621" x="9.49904" y="29.1353" width="20.9663" height="16.6299" filterUnits="userSpaceOnUse" color-interpolation-filters="sRGB">
<feFlood flood-opacity="0" result="BackgroundImageFix"/>
<feGaussianBlur in="BackgroundImageFix" stdDeviation="0.732418"/>
<feComposite in2="SourceAlpha" operator="in" result="effect1_backgroundBlur_10555_47621"/>
<feBlend mode="normal" in="SourceGraphic" in2="effect1_backgroundBlur_10555_47621" result="shape"/>
<feColorMatrix in="SourceAlpha" type="matrix" values="0 0 0 0 0 0 0 0 0 0 0 0 0 0 0 0 0 0 127 0" result="hardAlpha"/>
<feOffset dx="-3.51561" dy="1.17187"/>
<feGaussianBlur stdDeviation="2.34374"/>
<feComposite in2="hardAlpha" operator="arithmetic" k2="-1" k3="1"/>
<feColorMatrix type="matrix" values="0 0 0 0 1 0 0 0 0 1 0 0 0 0 1 0 0 0 0.5 0"/>
<feBlend mode="normal" in2="shape" result="effect2_innerShadow_10555_47621"/>
<feColorMatrix in="SourceAlpha" type="matrix" values="0 0 0 0 0 0 0 0 0 0 0 0 0 0 0 0 0 0 127 0" result="hardAlpha"/>
<feOffset dx="0.878902" dy="-0.878902"/>
<feGaussianBlur stdDeviation="1.7578"/>
<feComposite in2="hardAlpha" operator="arithmetic" k2="-1" k3="1"/>
<feColorMatrix type="matrix" values="0 0 0 0 0 0 0 0 0 0 0 0 0 0 0 0 0 0 0.5 0"/>
<feBlend mode="normal" in2="effect2_innerShadow_10555_47621" result="effect3_innerShadow_10555_47621"/>
</filter>
<filter id="filter9_bii_10555_47621" x="32.8848" y="29.1353" width="20.893" height="16.6299" filterUnits="userSpaceOnUse" color-interpolation-filters="sRGB">
<feFlood flood-opacity="0" result="BackgroundImageFix"/>
<feGaussianBlur in="BackgroundImageFix" stdDeviation="0.732418"/>
<feComposite in2="SourceAlpha" operator="in" result="effect1_backgroundBlur_10555_47621"/>
<feBlend mode="normal" in="SourceGraphic" in2="effect1_backgroundBlur_10555_47621" result="shape"/>
<feColorMatrix in="SourceAlpha" type="matrix" values="0 0 0 0 0 0 0 0 0 0 0 0 0 0 0 0 0 0 127 0" result="hardAlpha"/>
<feOffset dx="-3.51561" dy="1.17187"/>
<feGaussianBlur stdDeviation="2.34374"/>
<feComposite in2="hardAlpha" operator="arithmetic" k2="-1" k3="1"/>
<feColorMatrix type="matrix" values="0 0 0 0 1 0 0 0 0 1 0 0 0 0 1 0 0 0 0.5 0"/>
<feBlend mode="normal" in2="shape" result="effect2_innerShadow_10555_47621"/>
<feColorMatrix in="SourceAlpha" type="matrix" values="0 0 0 0 0 0 0 0 0 0 0 0 0 0 0 0 0 0 127 0" result="hardAlpha"/>
<feOffset dx="0.878902" dy="-0.878902"/>
<feGaussianBlur stdDeviation="1.7578"/>
<feComposite in2="hardAlpha" operator="arithmetic" k2="-1" k3="1"/>
<feColorMatrix type="matrix" values="0 0 0 0 0 0 0 0 0 0 0 0 0 0 0 0 0 0 0.5 0"/>
<feBlend mode="normal" in2="effect2_innerShadow_10555_47621" result="effect3_innerShadow_10555_47621"/>
</filter>
</defs>
</svg>
