<svg width="20" height="21" viewBox="0 0 20 21" fill="none" xmlns="http://www.w3.org/2000/svg">
<rect y="0.454498" width="20" height="20" rx="10" fill="#965101"/>
<path fill-rule="evenodd" clip-rule="evenodd" d="M7.24138 6.66139C6.67005 6.66139 6.2069 7.12455 6.2069 7.69587V7.76484H5.58621C5.01488 7.76484 4.55172 8.22799 4.55172 8.79932V9.97174H4.48276C4.21614 9.97174 4 10.1879 4 10.4545C4 10.7211 4.21614 10.9373 4.48276 10.9373H4.55172V12.1097C4.55172 12.681 5.01488 13.1442 5.58621 13.1442H6.2069V13.2131C6.2069 13.7844 6.67005 14.2476 7.24138 14.2476H7.7931C8.36443 14.2476 8.82759 13.7844 8.82759 13.2131V10.9373H11.1724V13.2131C11.1724 13.7844 11.6356 14.2476 12.2069 14.2476H12.7586C13.3299 14.2476 13.7931 13.7844 13.7931 13.2131V13.1442H14.4138C14.9851 13.1442 15.4483 12.681 15.4483 12.1097V10.9373H15.5172C15.7839 10.9373 16 10.7211 16 10.4545C16 10.1879 15.7839 9.97174 15.5172 9.97174H15.4483V8.79932C15.4483 8.22799 14.9851 7.76484 14.4138 7.76484H13.7931V7.69587C13.7931 7.12455 13.3299 6.66139 12.7586 6.66139H12.2069C11.6356 6.66139 11.1724 7.12455 11.1724 7.69587V9.97174H8.82759V7.69587C8.82759 7.12455 8.36443 6.66139 7.7931 6.66139H7.24138ZM14.4828 8.79932C14.4828 8.76123 14.4519 8.73036 14.4138 8.73036H13.7931V12.1786H14.4138C14.4519 12.1786 14.4828 12.1478 14.4828 12.1097V8.79932ZM12.8276 7.69587V13.2131C12.8276 13.2512 12.7967 13.2821 12.7586 13.2821H12.2069C12.1688 13.2821 12.1379 13.2512 12.1379 13.2131V7.69587C12.1379 7.65779 12.1688 7.62691 12.2069 7.62691H12.7586C12.7967 7.62691 12.8276 7.65779 12.8276 7.69587ZM7.86207 7.69587V13.2131C7.86207 13.2512 7.83119 13.2821 7.7931 13.2821H7.24138C7.20329 13.2821 7.17241 13.2512 7.17241 13.2131V7.69587C7.17241 7.65779 7.20329 7.62691 7.24138 7.62691H7.7931C7.83119 7.62691 7.86207 7.65779 7.86207 7.69587ZM6.2069 12.1786H5.58621C5.54812 12.1786 5.51724 12.1478 5.51724 12.1097V8.79932C5.51724 8.76123 5.54812 8.73036 5.58621 8.73036H6.2069V12.1786Z" fill="white"/>
</svg>
