<svg width="12" height="12" viewBox="0 0 12 12" fill="none" xmlns="http://www.w3.org/2000/svg">
<g id="hand-shake">
<path id="Shape" fill-rule="evenodd" clip-rule="evenodd" d="M2.24535 2.5824C3.32054 1.50702 5.04321 1.4431 6.19514 2.43584C7.34593 1.44484 9.06592 1.50779 10.1412 2.58026C11.2165 3.65272 11.2839 5.37254 10.2959 6.52592L6.82648 10.0066C6.49584 10.3373 5.9661 10.3572 5.61161 10.0521L5.56246 10.007L2.09344 6.52592C1.10603 5.3736 1.17222 3.65534 2.24535 2.5824ZM2.87713 3.21418C2.11816 3.97336 2.08944 5.19485 2.81189 5.98886L2.87713 6.05767L6.19467 9.37522L8.5641 7.00535L6.98463 5.42588L6.51101 5.8995C6.17244 6.23823 5.67887 6.37061 5.21624 6.24676C4.7536 6.12291 4.39218 5.76166 4.26811 5.29908C4.14405 4.8365 4.27619 4.34287 4.61476 4.00414L5.55395 3.0645C4.78186 2.4483 3.67655 2.48409 2.94594 3.14895L2.87713 3.21418ZM6.66876 4.47775C6.84324 4.30333 7.12607 4.30333 7.30054 4.47775L9.1959 6.37311L9.51224 6.05767C10.2849 5.28556 10.2998 4.03781 9.54577 3.24749C8.79175 2.45717 7.54467 2.41342 6.73712 3.14895L6.66876 3.21418L5.24702 4.63592C5.08671 4.79612 5.07173 5.05096 5.21216 5.22884L5.24702 5.26771C5.40721 5.42801 5.66205 5.44299 5.83993 5.30256L5.8788 5.26771L6.66876 4.47775Z" fill="url(#paint0_diamond_7590_17150)"/>
</g>
<defs>
<radialGradient id="paint0_diamond_7590_17150" cx="0" cy="0" r="1" gradientUnits="userSpaceOnUse" gradientTransform="translate(2.10061 3.12431) rotate(38.7734) scale(11.4079 32.1831)">
<stop stop-color="#E32900"/>
<stop offset="0.472959" stop-color="#C6E216"/>
<stop offset="1" stop-color="#D808FA"/>
</radialGradient>
</defs>
</svg>
