<svg width="74" height="74" viewBox="0 0 74 74" fill="none" xmlns="http://www.w3.org/2000/svg">
<g filter="url(#filter0_bii_9102_8874)">
<path fill-rule="evenodd" clip-rule="evenodd" d="M33.5128 42.1256C33.0364 41.8848 32.4408 41.644 31.7261 41.7644L26.6043 42.4868L25.2941 40.44L27.319 35.5037L30.535 32.4938L32.7981 33.8181C33.9892 34.5405 35.6568 34.1793 36.3715 32.9753C37.0861 31.7714 36.7288 30.0858 35.5377 29.3634L31.8452 27.1962C31.7261 27.0758 31.4879 27.0758 31.3688 26.9554C30.4159 26.4738 29.2248 26.5942 28.391 27.3166L24.2221 31.1694L25.0559 26.7146L29.463 21.6579C31.607 19.2499 27.9145 15.9992 25.8897 18.4071L21.7207 23.2231C21.6016 23.2231 21.6016 23.3435 21.4825 23.3435L22.3163 20.2131C23.1501 17.2032 18.743 15.9992 17.9092 19.0091L15.0505 29.6042V23.8251C15.0505 22.7415 14.2167 21.8987 13.1447 21.7783C12.0727 21.7783 11.2389 22.6211 11.1198 23.7047V36.7077L7.90379 44.4132L4.80688 45.858L10.8816 54.5267L14.3358 52.3595H14.4549H14.574C14.6932 52.3595 14.6932 52.3595 14.8123 52.3595H14.9314C15.0505 52.3595 15.0505 52.3595 15.1696 52.3595H15.2887C15.4078 52.3595 15.4078 52.3595 15.5269 52.3595H15.646C15.7652 52.3595 15.8843 52.3595 16.0034 52.3595H16.1225C16.2416 52.3595 16.2416 52.3595 16.3607 52.3595C16.4798 52.3595 16.5989 52.3595 16.7181 52.3595H16.8372H16.9563H17.0754H17.1945H17.3136H17.4327H17.5518H17.6709H17.7901H17.9092C17.9092 52.3595 18.0283 52.3595 18.0283 52.2391C18.0283 52.2391 18.1474 52.2391 18.1474 52.1187C18.1474 52.1187 18.2665 52.1187 18.2665 51.9983C18.2665 51.9983 18.3856 51.9983 18.3856 51.8779C18.3856 51.8779 18.5047 51.8779 18.5047 51.7575H18.6238C18.743 51.7575 18.743 51.6371 18.8621 51.6371L19.5767 51.1555L23.8648 48.5067L32.0835 47.4232H32.2026L34.9421 48.1455C35.2995 48.2659 35.6568 48.1455 36.0141 47.9047C36.3715 47.664 36.4906 47.3028 36.4906 46.9416C37.0861 44.654 35.6568 42.6072 33.5128 42.1256Z" fill="url(#paint0_linear_9102_8874)"/>
</g>
<g filter="url(#filter1_bii_9102_8874)">
<path fill-rule="evenodd" clip-rule="evenodd" d="M36.9673 46.8203C36.9673 47.1815 37.2055 47.5427 37.4437 47.7835C37.801 48.0243 38.1584 48.1447 38.5157 48.0243L41.2553 47.3019H41.3744L49.5931 48.3855L53.8811 51.0342L54.5958 51.5158C54.7149 51.5158 54.7149 51.6362 54.834 51.6362H54.9531C54.9531 51.6362 55.0722 51.6362 55.0722 51.7566C55.0722 51.7566 55.1913 51.7566 55.1913 51.877C55.1913 51.877 55.3105 51.877 55.3105 51.9974C55.3105 51.9974 55.4296 51.9974 55.4296 52.1178C55.4296 52.1178 55.5487 52.1178 55.5487 52.2382H55.6678H55.7869H55.906H56.0251H56.1442H56.2634H56.3825H56.5016H56.6207H56.7398C56.8589 52.2382 56.978 52.2382 57.0971 52.2382C57.2162 52.2382 57.2162 52.2382 57.3354 52.2382H57.4545C57.5736 52.2382 57.6927 52.2382 57.8118 52.2382H57.9309C58.05 52.2382 58.05 52.2382 58.1691 52.2382H58.2883C58.4074 52.2382 58.4074 52.2382 58.5265 52.2382H58.6456C58.7647 52.2382 58.7647 52.2382 58.8838 52.2382H59.0029H59.122L62.5763 54.4054L68.4127 45.9775L65.4349 44.4123L62.2189 36.7068L62.0998 23.8242C62.0998 22.7406 61.1469 21.8978 60.0749 21.8978C59.0029 21.8978 58.1691 22.861 58.1691 23.9446V29.7237L55.3105 19.1287C54.4767 16.1187 50.0695 17.4431 50.9033 20.3326L51.7371 23.463C51.618 23.463 51.618 23.3426 51.4989 23.3426L47.33 18.5267C45.3051 16.1187 41.6126 19.3695 43.7566 21.7774L48.1638 26.8342L48.9975 31.2889L45.3051 27.3158C44.4713 26.5934 43.2802 26.473 42.3273 26.9546C42.2082 26.9546 41.97 27.075 41.8508 27.1954L38.1584 29.3625C36.9673 30.0849 36.4908 31.7705 37.3246 32.9745C38.1584 34.1785 39.7068 34.6601 40.8979 33.8173L43.1611 32.4929L46.3771 35.5028L48.402 40.4392L47.0918 42.486L41.97 41.7636C41.2553 41.6432 40.6597 41.7636 40.1833 42.1248C38.2775 42.6064 36.8482 44.6531 36.9673 46.8203Z" fill="url(#paint1_linear_9102_8874)"/>
</g>
<g filter="url(#filter2_bii_9102_8874)">
<path d="M67.0107 44.8755C66.8872 44.7971 66.7364 44.9128 66.6764 44.9804C67.5259 45.5195 62.2979 54.197 61.294 53.5599C61.1057 53.8632 61.0332 54.2399 61.2262 54.3624L65.5039 57.0769C66.0306 57.4111 66.6513 57.469 67.0829 57.0202C68.3937 55.6572 70.6773 52.1823 71.697 49.7254C72.0795 48.8039 71.6396 47.8129 70.7985 47.2792L67.0107 44.8755Z" fill="#D808FA"/>
</g>
<g filter="url(#filter3_bii_9102_8874)">
<path d="M6.99026 44.44C7.11381 44.3616 7.26461 44.4772 7.32456 44.5449C6.47512 45.0839 11.7031 53.7614 12.707 53.1244C12.8953 53.4276 12.9678 53.8043 12.7748 53.9268L8.49713 56.6413C7.97042 56.9756 7.34966 57.0334 6.9181 56.5847C5.60727 55.2217 3.32369 51.7468 2.30396 49.2898C1.92151 48.3684 2.36137 47.3774 3.20247 46.8436L6.99026 44.44Z" fill="#D808FA"/>
</g>
<defs>
<filter id="filter0_bii_9102_8874" x="1.29128" y="15.8008" width="36.9118" height="40.1914" filterUnits="userSpaceOnUse" color-interpolation-filters="sRGB">
<feFlood flood-opacity="0" result="BackgroundImageFix"/>
<feGaussianBlur in="BackgroundImageFix" stdDeviation="0.732418"/>
<feComposite in2="SourceAlpha" operator="in" result="effect1_backgroundBlur_9102_8874"/>
<feBlend mode="normal" in="SourceGraphic" in2="effect1_backgroundBlur_9102_8874" result="shape"/>
<feColorMatrix in="SourceAlpha" type="matrix" values="0 0 0 0 0 0 0 0 0 0 0 0 0 0 0 0 0 0 127 0" result="hardAlpha"/>
<feOffset dx="-3.51561" dy="1.17187"/>
<feGaussianBlur stdDeviation="2.34374"/>
<feComposite in2="hardAlpha" operator="arithmetic" k2="-1" k3="1"/>
<feColorMatrix type="matrix" values="0 0 0 0 1 0 0 0 0 1 0 0 0 0 1 0 0 0 0.5 0"/>
<feBlend mode="normal" in2="shape" result="effect2_innerShadow_9102_8874"/>
<feColorMatrix in="SourceAlpha" type="matrix" values="0 0 0 0 0 0 0 0 0 0 0 0 0 0 0 0 0 0 127 0" result="hardAlpha"/>
<feOffset dx="0.878902" dy="-0.878902"/>
<feGaussianBlur stdDeviation="1.7578"/>
<feComposite in2="hardAlpha" operator="arithmetic" k2="-1" k3="1"/>
<feColorMatrix type="matrix" values="0 0 0 0 0 0 0 0 0 0 0 0 0 0 0 0 0 0 0.5 0"/>
<feBlend mode="normal" in2="effect2_innerShadow_9102_8874" result="effect3_innerShadow_9102_8874"/>
</filter>
<filter id="filter1_bii_9102_8874" x="33.3894" y="15.9551" width="36.4883" height="39.916" filterUnits="userSpaceOnUse" color-interpolation-filters="sRGB">
<feFlood flood-opacity="0" result="BackgroundImageFix"/>
<feGaussianBlur in="BackgroundImageFix" stdDeviation="0.732418"/>
<feComposite in2="SourceAlpha" operator="in" result="effect1_backgroundBlur_9102_8874"/>
<feBlend mode="normal" in="SourceGraphic" in2="effect1_backgroundBlur_9102_8874" result="shape"/>
<feColorMatrix in="SourceAlpha" type="matrix" values="0 0 0 0 0 0 0 0 0 0 0 0 0 0 0 0 0 0 127 0" result="hardAlpha"/>
<feOffset dx="-3.51561" dy="1.17187"/>
<feGaussianBlur stdDeviation="2.34374"/>
<feComposite in2="hardAlpha" operator="arithmetic" k2="-1" k3="1"/>
<feColorMatrix type="matrix" values="0 0 0 0 1 0 0 0 0 1 0 0 0 0 1 0 0 0 0.5 0"/>
<feBlend mode="normal" in2="shape" result="effect2_innerShadow_9102_8874"/>
<feColorMatrix in="SourceAlpha" type="matrix" values="0 0 0 0 0 0 0 0 0 0 0 0 0 0 0 0 0 0 127 0" result="hardAlpha"/>
<feOffset dx="0.878902" dy="-0.878902"/>
<feGaussianBlur stdDeviation="1.7578"/>
<feComposite in2="hardAlpha" operator="arithmetic" k2="-1" k3="1"/>
<feColorMatrix type="matrix" values="0 0 0 0 0 0 0 0 0 0 0 0 0 0 0 0 0 0 0.5 0"/>
<feBlend mode="normal" in2="effect2_innerShadow_9102_8874" result="effect3_innerShadow_9102_8874"/>
</filter>
<filter id="filter2_bii_9102_8874" x="57.5967" y="43.3848" width="15.7043" height="15.4219" filterUnits="userSpaceOnUse" color-interpolation-filters="sRGB">
<feFlood flood-opacity="0" result="BackgroundImageFix"/>
<feGaussianBlur in="BackgroundImageFix" stdDeviation="0.732418"/>
<feComposite in2="SourceAlpha" operator="in" result="effect1_backgroundBlur_9102_8874"/>
<feBlend mode="normal" in="SourceGraphic" in2="effect1_backgroundBlur_9102_8874" result="shape"/>
<feColorMatrix in="SourceAlpha" type="matrix" values="0 0 0 0 0 0 0 0 0 0 0 0 0 0 0 0 0 0 127 0" result="hardAlpha"/>
<feOffset dx="-3.51561" dy="1.17187"/>
<feGaussianBlur stdDeviation="2.34374"/>
<feComposite in2="hardAlpha" operator="arithmetic" k2="-1" k3="1"/>
<feColorMatrix type="matrix" values="0 0 0 0 1 0 0 0 0 1 0 0 0 0 1 0 0 0 0.5 0"/>
<feBlend mode="normal" in2="shape" result="effect2_innerShadow_9102_8874"/>
<feColorMatrix in="SourceAlpha" type="matrix" values="0 0 0 0 0 0 0 0 0 0 0 0 0 0 0 0 0 0 127 0" result="hardAlpha"/>
<feOffset dx="0.878902" dy="-0.878902"/>
<feGaussianBlur stdDeviation="1.7578"/>
<feComposite in2="hardAlpha" operator="arithmetic" k2="-1" k3="1"/>
<feColorMatrix type="matrix" values="0 0 0 0 0 0 0 0 0 0 0 0 0 0 0 0 0 0 0.5 0"/>
<feBlend mode="normal" in2="effect2_innerShadow_9102_8874" result="effect3_innerShadow_9102_8874"/>
</filter>
<filter id="filter3_bii_9102_8874" x="-1.35081" y="42.9492" width="15.7043" height="15.4219" filterUnits="userSpaceOnUse" color-interpolation-filters="sRGB">
<feFlood flood-opacity="0" result="BackgroundImageFix"/>
<feGaussianBlur in="BackgroundImageFix" stdDeviation="0.732418"/>
<feComposite in2="SourceAlpha" operator="in" result="effect1_backgroundBlur_9102_8874"/>
<feBlend mode="normal" in="SourceGraphic" in2="effect1_backgroundBlur_9102_8874" result="shape"/>
<feColorMatrix in="SourceAlpha" type="matrix" values="0 0 0 0 0 0 0 0 0 0 0 0 0 0 0 0 0 0 127 0" result="hardAlpha"/>
<feOffset dx="-3.51561" dy="1.17187"/>
<feGaussianBlur stdDeviation="2.34374"/>
<feComposite in2="hardAlpha" operator="arithmetic" k2="-1" k3="1"/>
<feColorMatrix type="matrix" values="0 0 0 0 1 0 0 0 0 1 0 0 0 0 1 0 0 0 0.5 0"/>
<feBlend mode="normal" in2="shape" result="effect2_innerShadow_9102_8874"/>
<feColorMatrix in="SourceAlpha" type="matrix" values="0 0 0 0 0 0 0 0 0 0 0 0 0 0 0 0 0 0 127 0" result="hardAlpha"/>
<feOffset dx="0.878902" dy="-0.878902"/>
<feGaussianBlur stdDeviation="1.7578"/>
<feComposite in2="hardAlpha" operator="arithmetic" k2="-1" k3="1"/>
<feColorMatrix type="matrix" values="0 0 0 0 0 0 0 0 0 0 0 0 0 0 0 0 0 0 0.5 0"/>
<feBlend mode="normal" in2="effect2_innerShadow_9102_8874" result="effect3_innerShadow_9102_8874"/>
</filter>
<linearGradient id="paint0_linear_9102_8874" x1="4.88603" y1="28.1852" x2="52.4342" y2="44.3537" gradientUnits="userSpaceOnUse">
<stop stop-color="#E32900"/>
<stop offset="0.494792" stop-color="#C6E216"/>
<stop offset="1" stop-color="#D808FA"/>
</linearGradient>
<linearGradient id="paint1_linear_9102_8874" x1="36.9831" y1="28.2587" x2="83.958" y2="44.1379" gradientUnits="userSpaceOnUse">
<stop stop-color="#E32900"/>
<stop offset="0.494792" stop-color="#C6E216"/>
<stop offset="1" stop-color="#D808FA"/>
</linearGradient>
</defs>
</svg>
