<svg width="60" height="49" viewBox="0 0 60 49" fill="none" xmlns="http://www.w3.org/2000/svg">
<g filter="url(#filter0_bii_9102_8883)">
<path d="M30.1742 11.3423C29.2973 11.7641 28.4355 12.3516 27.6342 13.15C23.6049 17.1647 19.9461 20.8103 19.9461 20.8103C19.9234 20.8329 19.9007 20.848 19.8781 20.8706C18.8349 21.91 18.7971 23.5671 19.7571 24.6517C19.7949 24.6969 19.8327 24.7346 19.8781 24.7798C20.9591 25.8569 22.7205 25.8644 23.8015 24.7798L28.0273 20.5693C28.753 20.8329 29.4711 20.9911 30.1591 21.0664C31.0964 21.1719 31.9734 21.1342 32.7595 21.0212C34.6721 20.75 34.468 20.8329 35.5793 20.4638C36.683 20.1023 37.9227 19.3641 37.9227 19.3641L38.6711 20.1098C38.7543 20.1927 40.6668 22.0983 41.6496 23.0775C41.8235 23.2507 41.9671 23.3939 42.0654 23.4918C42.1787 23.6123 42.3073 23.6951 42.3829 23.8081L47.2588 28.6664C48.6648 27.0922 50.1014 24.5463 49.9048 21.8573L52.4247 19.3465L39.9487 7.73438L37.9 9.94131C37.9 9.94131 33.6818 9.64003 30.1742 11.3423Z" fill="url(#paint0_linear_9102_8883)"/>
</g>
<g filter="url(#filter1_bii_9102_8883)">
<path d="M30.8557 41.1548C29.7747 40.0777 28.0284 40.0777 26.9474 41.1548L26.1461 41.9532C27.2195 40.8761 27.2195 39.1361 26.1461 38.059C25.0651 36.9819 23.3188 36.9819 22.2378 38.059C23.3188 36.9819 23.3188 35.242 22.2378 34.1649C21.1568 33.0878 19.4105 33.0878 18.3295 34.1649C19.4105 33.0878 19.4105 31.3478 18.3295 30.2707C17.2485 29.1936 15.5022 29.1936 14.4212 30.2707L12.0022 32.681C10.9212 33.7581 10.9212 35.4981 12.0022 36.5752C13.0832 37.6523 14.8294 37.6523 15.9105 36.5752C14.8294 37.6523 14.8294 39.3922 15.9105 40.4693C16.9915 41.5464 18.7377 41.5464 19.8187 40.4693C18.7377 41.5464 18.7377 43.2864 19.8187 44.3635C20.8998 45.4406 22.646 45.4406 23.727 44.3635L24.5283 43.5651C23.4549 44.6422 23.4549 46.3821 24.5283 47.4592C25.6094 48.5363 27.3556 48.5363 28.4366 47.4592L30.8557 45.0489C31.9367 43.9718 31.9367 42.2319 30.8557 41.1548Z" fill="url(#paint1_linear_9102_8883)"/>
</g>
<g filter="url(#filter2_bii_9102_8883)">
<path d="M46.9646 31.559L46.0801 30.6777L37.5227 22.1437L36.9482 22.3998L36.3207 22.6258L36.2754 22.6408C36.162 22.6785 35.1339 22.9873 33.0928 23.2811C32.0118 23.4317 30.9459 23.4468 29.9178 23.3338C29.5096 23.2886 29.1013 23.2208 28.7007 23.1379L25.4198 26.4069C23.4468 28.3728 20.2415 28.3728 18.2685 26.4069C18.2005 26.3391 18.1324 26.2638 18.0719 26.196L18.0493 26.1734C16.8019 24.7649 16.492 22.8442 17.0741 21.1796L18.3365 19.2212L26.0246 11.5609C26.3345 11.2521 26.6672 10.9583 27.0073 10.6872C24.611 10.2202 22.4993 10.2553 22.4993 10.2553L20.1708 8.70117L7.57153 19.8489L10.5954 22.3596C10.429 24.5967 11.79 27.1601 12.8861 28.5913C14.8591 26.7157 17.9964 26.7383 19.9316 28.6666C20.6498 29.3822 21.1033 30.271 21.2999 31.1974C22.2297 31.3933 23.1217 31.8452 23.8399 32.5607C24.558 33.2838 25.0116 34.1651 25.2082 35.0916C26.138 35.2799 27.03 35.7318 27.7482 36.4549C28.232 36.937 28.5948 37.4868 28.8368 38.0819C30.1446 38.0668 31.4675 38.5564 32.4653 39.5507C34.4308 41.509 34.4308 44.6952 32.4653 46.6535L31.664 47.4595L32.0647 47.8587C33.1457 48.9358 34.892 48.9358 35.973 47.8587C37.054 46.7816 37.054 45.0416 35.973 43.9645L36.7743 44.7705C37.8553 45.8476 39.6016 45.8476 40.6826 44.7705C41.7636 43.6934 41.7636 41.9534 40.6826 40.8763C41.7636 41.9534 43.5098 41.9534 44.5909 40.8763C45.6719 39.7992 45.6719 38.0593 44.5909 36.9822C45.6719 38.0593 47.4181 38.0593 48.4991 36.9822C49.5802 35.9051 49.5802 34.1651 48.4991 33.088L46.9646 31.559Z" fill="url(#paint2_linear_9102_8883)"/>
</g>
<g filter="url(#filter3_bii_9102_8883)">
<path d="M38.5116 8.65679C38.3522 8.83046 38.4985 9.11008 38.5916 9.22817C39.6879 8.0342 52.2898 19.2223 50.9942 20.6333C51.4331 21.0334 52.0214 21.2706 52.2706 20.9992L58.1767 14.5667C58.6078 14.0971 58.8038 13.4745 58.4659 12.9346C56.8718 10.3881 50.6539 4.41349 46.6805 2.10802C45.8092 1.6025 44.7455 1.86728 44.0648 2.60869L38.5116 8.65679Z" fill="#D808FA"/>
</g>
<g filter="url(#filter4_bii_9102_8883)">
<path d="M21.9551 9.2954C22.1232 9.47848 21.9798 9.76334 21.887 9.88289C20.7314 8.62424 8.06293 19.8568 9.4287 21.3443C8.98779 21.7462 8.38928 21.9764 8.12664 21.6904L1.84097 14.8445C1.42372 14.3901 1.22151 13.7903 1.5375 13.2612C3.07363 10.6889 9.39596 4.59288 13.4413 2.31668C14.3055 1.8304 15.3485 2.09999 16.0186 2.82985L21.9551 9.2954Z" fill="#D808FA"/>
</g>
<defs>
<filter id="filter0_bii_9102_8883" x="15.5496" y="6.26954" width="38.3398" height="23.8613" filterUnits="userSpaceOnUse" color-interpolation-filters="sRGB">
<feFlood flood-opacity="0" result="BackgroundImageFix"/>
<feGaussianBlur in="BackgroundImageFix" stdDeviation="0.732418"/>
<feComposite in2="SourceAlpha" operator="in" result="effect1_backgroundBlur_9102_8883"/>
<feBlend mode="normal" in="SourceGraphic" in2="effect1_backgroundBlur_9102_8883" result="shape"/>
<feColorMatrix in="SourceAlpha" type="matrix" values="0 0 0 0 0 0 0 0 0 0 0 0 0 0 0 0 0 0 127 0" result="hardAlpha"/>
<feOffset dx="-3.51561" dy="1.17187"/>
<feGaussianBlur stdDeviation="2.34374"/>
<feComposite in2="hardAlpha" operator="arithmetic" k2="-1" k3="1"/>
<feColorMatrix type="matrix" values="0 0 0 0 1 0 0 0 0 1 0 0 0 0 1 0 0 0 0.5 0"/>
<feBlend mode="normal" in2="shape" result="effect2_innerShadow_9102_8883"/>
<feColorMatrix in="SourceAlpha" type="matrix" values="0 0 0 0 0 0 0 0 0 0 0 0 0 0 0 0 0 0 127 0" result="hardAlpha"/>
<feOffset dx="0.878902" dy="-0.878902"/>
<feGaussianBlur stdDeviation="1.7578"/>
<feComposite in2="hardAlpha" operator="arithmetic" k2="-1" k3="1"/>
<feColorMatrix type="matrix" values="0 0 0 0 0 0 0 0 0 0 0 0 0 0 0 0 0 0 0.5 0"/>
<feBlend mode="normal" in2="effect2_innerShadow_9102_8883" result="effect3_innerShadow_9102_8883"/>
</filter>
<filter id="filter1_bii_9102_8883" x="7.6758" y="27.9981" width="25.4555" height="21.7344" filterUnits="userSpaceOnUse" color-interpolation-filters="sRGB">
<feFlood flood-opacity="0" result="BackgroundImageFix"/>
<feGaussianBlur in="BackgroundImageFix" stdDeviation="0.732418"/>
<feComposite in2="SourceAlpha" operator="in" result="effect1_backgroundBlur_9102_8883"/>
<feBlend mode="normal" in="SourceGraphic" in2="effect1_backgroundBlur_9102_8883" result="shape"/>
<feColorMatrix in="SourceAlpha" type="matrix" values="0 0 0 0 0 0 0 0 0 0 0 0 0 0 0 0 0 0 127 0" result="hardAlpha"/>
<feOffset dx="-3.51561" dy="1.17187"/>
<feGaussianBlur stdDeviation="2.34374"/>
<feComposite in2="hardAlpha" operator="arithmetic" k2="-1" k3="1"/>
<feColorMatrix type="matrix" values="0 0 0 0 1 0 0 0 0 1 0 0 0 0 1 0 0 0 0.5 0"/>
<feBlend mode="normal" in2="shape" result="effect2_innerShadow_9102_8883"/>
<feColorMatrix in="SourceAlpha" type="matrix" values="0 0 0 0 0 0 0 0 0 0 0 0 0 0 0 0 0 0 127 0" result="hardAlpha"/>
<feOffset dx="0.878902" dy="-0.878902"/>
<feGaussianBlur stdDeviation="1.7578"/>
<feComposite in2="hardAlpha" operator="arithmetic" k2="-1" k3="1"/>
<feColorMatrix type="matrix" values="0 0 0 0 0 0 0 0 0 0 0 0 0 0 0 0 0 0 0.5 0"/>
<feBlend mode="normal" in2="effect2_innerShadow_9102_8883" result="effect3_innerShadow_9102_8883"/>
</filter>
<filter id="filter2_bii_9102_8883" x="4.05593" y="7.23634" width="46.7187" height="42.8945" filterUnits="userSpaceOnUse" color-interpolation-filters="sRGB">
<feFlood flood-opacity="0" result="BackgroundImageFix"/>
<feGaussianBlur in="BackgroundImageFix" stdDeviation="0.732418"/>
<feComposite in2="SourceAlpha" operator="in" result="effect1_backgroundBlur_9102_8883"/>
<feBlend mode="normal" in="SourceGraphic" in2="effect1_backgroundBlur_9102_8883" result="shape"/>
<feColorMatrix in="SourceAlpha" type="matrix" values="0 0 0 0 0 0 0 0 0 0 0 0 0 0 0 0 0 0 127 0" result="hardAlpha"/>
<feOffset dx="-3.51561" dy="1.17187"/>
<feGaussianBlur stdDeviation="2.34374"/>
<feComposite in2="hardAlpha" operator="arithmetic" k2="-1" k3="1"/>
<feColorMatrix type="matrix" values="0 0 0 0 1 0 0 0 0 1 0 0 0 0 1 0 0 0 0.5 0"/>
<feBlend mode="normal" in2="shape" result="effect2_innerShadow_9102_8883"/>
<feColorMatrix in="SourceAlpha" type="matrix" values="0 0 0 0 0 0 0 0 0 0 0 0 0 0 0 0 0 0 127 0" result="hardAlpha"/>
<feOffset dx="0.878902" dy="-0.878902"/>
<feGaussianBlur stdDeviation="1.7578"/>
<feComposite in2="hardAlpha" operator="arithmetic" k2="-1" k3="1"/>
<feColorMatrix type="matrix" values="0 0 0 0 0 0 0 0 0 0 0 0 0 0 0 0 0 0 0.5 0"/>
<feBlend mode="normal" in2="effect2_innerShadow_9102_8883" result="effect3_innerShadow_9102_8883"/>
</filter>
<filter id="filter3_bii_9102_8883" x="34.9251" y="0.38282" width="25.177" height="22.1973" filterUnits="userSpaceOnUse" color-interpolation-filters="sRGB">
<feFlood flood-opacity="0" result="BackgroundImageFix"/>
<feGaussianBlur in="BackgroundImageFix" stdDeviation="0.732418"/>
<feComposite in2="SourceAlpha" operator="in" result="effect1_backgroundBlur_9102_8883"/>
<feBlend mode="normal" in="SourceGraphic" in2="effect1_backgroundBlur_9102_8883" result="shape"/>
<feColorMatrix in="SourceAlpha" type="matrix" values="0 0 0 0 0 0 0 0 0 0 0 0 0 0 0 0 0 0 127 0" result="hardAlpha"/>
<feOffset dx="-3.51561" dy="1.17187"/>
<feGaussianBlur stdDeviation="2.34374"/>
<feComposite in2="hardAlpha" operator="arithmetic" k2="-1" k3="1"/>
<feColorMatrix type="matrix" values="0 0 0 0 1 0 0 0 0 1 0 0 0 0 1 0 0 0 0.5 0"/>
<feBlend mode="normal" in2="shape" result="effect2_innerShadow_9102_8883"/>
<feColorMatrix in="SourceAlpha" type="matrix" values="0 0 0 0 0 0 0 0 0 0 0 0 0 0 0 0 0 0 127 0" result="hardAlpha"/>
<feOffset dx="0.878902" dy="-0.878902"/>
<feGaussianBlur stdDeviation="1.7578"/>
<feComposite in2="hardAlpha" operator="arithmetic" k2="-1" k3="1"/>
<feColorMatrix type="matrix" values="0 0 0 0 0 0 0 0 0 0 0 0 0 0 0 0 0 0 0.5 0"/>
<feBlend mode="normal" in2="effect2_innerShadow_9102_8883" result="effect3_innerShadow_9102_8883"/>
</filter>
<filter id="filter4_bii_9102_8883" x="-2.13255" y="0.605476" width="25.6301" height="22.6777" filterUnits="userSpaceOnUse" color-interpolation-filters="sRGB">
<feFlood flood-opacity="0" result="BackgroundImageFix"/>
<feGaussianBlur in="BackgroundImageFix" stdDeviation="0.732418"/>
<feComposite in2="SourceAlpha" operator="in" result="effect1_backgroundBlur_9102_8883"/>
<feBlend mode="normal" in="SourceGraphic" in2="effect1_backgroundBlur_9102_8883" result="shape"/>
<feColorMatrix in="SourceAlpha" type="matrix" values="0 0 0 0 0 0 0 0 0 0 0 0 0 0 0 0 0 0 127 0" result="hardAlpha"/>
<feOffset dx="-3.51561" dy="1.17187"/>
<feGaussianBlur stdDeviation="2.34374"/>
<feComposite in2="hardAlpha" operator="arithmetic" k2="-1" k3="1"/>
<feColorMatrix type="matrix" values="0 0 0 0 1 0 0 0 0 1 0 0 0 0 1 0 0 0 0.5 0"/>
<feBlend mode="normal" in2="shape" result="effect2_innerShadow_9102_8883"/>
<feColorMatrix in="SourceAlpha" type="matrix" values="0 0 0 0 0 0 0 0 0 0 0 0 0 0 0 0 0 0 127 0" result="hardAlpha"/>
<feOffset dx="0.878902" dy="-0.878902"/>
<feGaussianBlur stdDeviation="1.7578"/>
<feComposite in2="hardAlpha" operator="arithmetic" k2="-1" k3="1"/>
<feColorMatrix type="matrix" values="0 0 0 0 0 0 0 0 0 0 0 0 0 0 0 0 0 0 0.5 0"/>
<feBlend mode="normal" in2="effect2_innerShadow_9102_8883" result="effect3_innerShadow_9102_8883"/>
</filter>
<linearGradient id="paint0_linear_9102_8883" x1="19.1471" y1="13.8686" x2="58.5774" y2="38.5758" gradientUnits="userSpaceOnUse">
<stop stop-color="#E32900"/>
<stop offset="0.494792" stop-color="#C6E216"/>
<stop offset="1" stop-color="#D808FA"/>
</linearGradient>
<linearGradient id="paint1_linear_9102_8883" x1="11.2422" y1="34.9736" x2="39.9057" y2="47.358" gradientUnits="userSpaceOnUse">
<stop stop-color="#E32900"/>
<stop offset="0.494792" stop-color="#C6E216"/>
<stop offset="1" stop-color="#D808FA"/>
</linearGradient>
<linearGradient id="paint2_linear_9102_8883" x1="7.7506" y1="20.4542" x2="66.8254" y2="44.9262" gradientUnits="userSpaceOnUse">
<stop stop-color="#E32900"/>
<stop offset="0.494792" stop-color="#C6E216"/>
<stop offset="1" stop-color="#D808FA"/>
</linearGradient>
</defs>
</svg>
