<svg width="74" height="75" viewBox="0 0 74 75" fill="none" xmlns="http://www.w3.org/2000/svg">
<g filter="url(#filter0_bii_9119_40140)">
<path d="M37.156 25.8747C36.3704 26.2526 35.5984 26.7789 34.8806 27.4942C31.271 31.0907 27.9933 34.3565 27.9933 34.3565C27.973 34.3768 27.9526 34.3903 27.9323 34.4105C26.9978 35.3417 26.9639 36.8262 27.824 37.7979C27.8578 37.8383 27.8917 37.8721 27.9323 37.9126C28.9007 38.8775 30.4787 38.8842 31.4471 37.9126L35.2327 34.1406C35.8828 34.3768 36.5262 34.5185 37.1425 34.586C37.9822 34.6804 38.7678 34.6467 39.4721 34.5455C41.1854 34.3026 41.0026 34.3768 41.9981 34.0462C42.9868 33.7223 44.0975 33.061 44.0975 33.061L44.7679 33.729C44.8424 33.8032 46.5558 35.5104 47.4362 36.3876C47.5919 36.5428 47.7206 36.671 47.8086 36.7587C47.9102 36.8667 48.0253 36.9409 48.093 37.0421L52.4611 41.3944C53.7207 39.9841 55.0076 37.7034 54.8315 35.2945L57.0889 33.0452L45.9124 22.6426L44.0772 24.6196C44.0772 24.6196 40.2983 24.3497 37.156 25.8747Z" fill="url(#paint0_linear_9119_40140)"/>
</g>
<g filter="url(#filter1_bii_9119_40140)">
<path d="M37.766 52.5815C36.7976 51.6166 35.2332 51.6166 34.2648 52.5815L33.5469 53.2968C34.5086 52.3318 34.5086 50.7731 33.5469 49.8082C32.5785 48.8433 31.0141 48.8433 30.0457 49.8082C31.0141 48.8433 31.0141 47.2846 30.0457 46.3197C29.0773 45.3547 27.5129 45.3547 26.5445 46.3197C27.5129 45.3547 27.5129 43.796 26.5445 42.8311C25.5761 41.8662 24.0117 41.8662 23.0433 42.8311L20.8762 44.9904C19.9078 45.9553 19.9078 47.514 20.8762 48.4789C21.8446 49.4438 23.409 49.4438 24.3774 48.4789C23.409 49.4438 23.409 51.0025 24.3774 51.9675C25.3458 52.9324 26.9102 52.9324 27.8786 51.9675C26.9102 52.9324 26.9102 54.4911 27.8786 55.456C28.8471 56.4209 30.4114 56.4209 31.3798 55.456L32.0977 54.7408C31.136 55.7057 31.136 57.2644 32.0977 58.2293C33.0661 59.1942 34.6305 59.1942 35.5989 58.2293L37.766 56.0701C38.7344 55.1051 38.7344 53.5464 37.766 52.5815Z" fill="url(#paint1_linear_9119_40140)"/>
</g>
<g filter="url(#filter2_bii_9119_40140)">
<path d="M52.1972 43.9848L51.4048 43.1953L43.7387 35.5502L43.224 35.7796L42.6619 35.982L42.6213 35.9955C42.5197 36.0293 41.5987 36.3059 39.7702 36.5691C38.8018 36.704 37.8469 36.7175 36.9259 36.6163C36.5602 36.5758 36.1945 36.5151 35.8356 36.4409L32.8965 39.3694C31.1289 41.1305 28.2576 41.1305 26.49 39.3694C26.4291 39.3086 26.3681 39.2412 26.3139 39.1804L26.2936 39.1602C25.1762 37.8984 24.8986 36.1777 25.42 34.6865L26.551 32.9321L33.4383 26.0697C33.7159 25.793 34.0139 25.5299 34.3186 25.287C32.1719 24.8686 30.2802 24.9001 30.2802 24.9001L28.1942 23.5078L16.9072 33.4944L19.6161 35.7436C19.4671 37.7477 20.6863 40.0441 21.6682 41.3262C23.4358 39.646 26.2462 39.6663 27.9799 41.3937C28.6232 42.0347 29.0296 42.8309 29.2057 43.6609C30.0386 43.8363 30.8377 44.2412 31.4811 44.8822C32.1245 45.53 32.5308 46.3195 32.7069 47.1494C33.5398 47.3181 34.339 47.723 34.9823 48.3708C35.4157 48.8026 35.7408 49.2952 35.9575 49.8283C37.1291 49.8148 38.3142 50.2534 39.2081 51.1441C40.9689 52.8985 40.9689 55.7527 39.2081 57.5071L38.4903 58.2291L38.8492 58.5868C39.8176 59.5517 41.382 59.5517 42.3504 58.5868C43.3188 57.6218 43.3188 56.0631 42.3504 55.0982L43.0683 55.8202C44.0367 56.7851 45.6011 56.7851 46.5695 55.8202C47.5379 54.8553 47.5379 53.2966 46.5695 52.3317C47.5379 53.2966 49.1023 53.2966 50.0707 52.3317C51.0391 51.3667 51.0391 49.808 50.0707 48.8431C51.0391 49.808 52.6035 49.808 53.5719 48.8431C54.5403 47.8782 54.5403 46.3195 53.5719 45.3546L52.1972 43.9848Z" fill="url(#paint2_linear_9119_40140)"/>
</g>
<g filter="url(#filter3_bii_9119_40140)">
<path d="M44.6248 23.4681C44.4819 23.6236 44.613 23.8741 44.6964 23.9799C45.6785 22.9103 56.9679 32.9331 55.8072 34.1971C56.2004 34.5555 56.7274 34.768 56.9506 34.5249L62.1716 28.8386C62.6028 28.369 62.7911 27.7456 62.444 27.2115C60.9523 24.916 55.6109 19.788 52.0929 17.6897C51.2279 17.1738 50.1636 17.4356 49.4828 18.177L44.6248 23.4681Z" fill="#D808FA"/>
</g>
<g filter="url(#filter4_bii_9119_40140)">
<path d="M29.7928 24.0421C29.9434 24.2061 29.815 24.4613 29.7319 24.5684C28.6966 23.4408 17.3477 33.5034 18.5712 34.836C18.1762 35.196 17.64 35.4023 17.4047 35.146L11.8413 29.0868C11.4241 28.6323 11.2305 28.029 11.5563 27.5057C13.0012 25.1848 18.4365 19.9491 22.0182 17.8746C22.8762 17.3776 23.9202 17.646 24.5903 18.3759L29.7928 24.0421Z" fill="#D808FA"/>
</g>
<defs>
<filter id="filter0_bii_9119_40140" x="23.6885" y="21.1777" width="34.8652" height="21.6816" filterUnits="userSpaceOnUse" color-interpolation-filters="sRGB">
<feFlood flood-opacity="0" result="BackgroundImageFix"/>
<feGaussianBlur in="BackgroundImageFix" stdDeviation="0.732418"/>
<feComposite in2="SourceAlpha" operator="in" result="effect1_backgroundBlur_9119_40140"/>
<feBlend mode="normal" in="SourceGraphic" in2="effect1_backgroundBlur_9119_40140" result="shape"/>
<feColorMatrix in="SourceAlpha" type="matrix" values="0 0 0 0 0 0 0 0 0 0 0 0 0 0 0 0 0 0 127 0" result="hardAlpha"/>
<feOffset dx="-3.51561" dy="1.17187"/>
<feGaussianBlur stdDeviation="2.34374"/>
<feComposite in2="hardAlpha" operator="arithmetic" k2="-1" k3="1"/>
<feColorMatrix type="matrix" values="0 0 0 0 1 0 0 0 0 1 0 0 0 0 1 0 0 0 0.5 0"/>
<feBlend mode="normal" in2="shape" result="effect2_innerShadow_9119_40140"/>
<feColorMatrix in="SourceAlpha" type="matrix" values="0 0 0 0 0 0 0 0 0 0 0 0 0 0 0 0 0 0 127 0" result="hardAlpha"/>
<feOffset dx="0.878902" dy="-0.878902"/>
<feGaussianBlur stdDeviation="1.7578"/>
<feComposite in2="hardAlpha" operator="arithmetic" k2="-1" k3="1"/>
<feColorMatrix type="matrix" values="0 0 0 0 0 0 0 0 0 0 0 0 0 0 0 0 0 0 0.5 0"/>
<feBlend mode="normal" in2="effect2_innerShadow_9119_40140" result="effect3_innerShadow_9119_40140"/>
</filter>
<filter id="filter1_bii_9119_40140" x="16.6343" y="40.6426" width="23.3227" height="19.7754" filterUnits="userSpaceOnUse" color-interpolation-filters="sRGB">
<feFlood flood-opacity="0" result="BackgroundImageFix"/>
<feGaussianBlur in="BackgroundImageFix" stdDeviation="0.732418"/>
<feComposite in2="SourceAlpha" operator="in" result="effect1_backgroundBlur_9119_40140"/>
<feBlend mode="normal" in="SourceGraphic" in2="effect1_backgroundBlur_9119_40140" result="shape"/>
<feColorMatrix in="SourceAlpha" type="matrix" values="0 0 0 0 0 0 0 0 0 0 0 0 0 0 0 0 0 0 127 0" result="hardAlpha"/>
<feOffset dx="-3.51561" dy="1.17187"/>
<feGaussianBlur stdDeviation="2.34374"/>
<feComposite in2="hardAlpha" operator="arithmetic" k2="-1" k3="1"/>
<feColorMatrix type="matrix" values="0 0 0 0 1 0 0 0 0 1 0 0 0 0 1 0 0 0 0.5 0"/>
<feBlend mode="normal" in2="shape" result="effect2_innerShadow_9119_40140"/>
<feColorMatrix in="SourceAlpha" type="matrix" values="0 0 0 0 0 0 0 0 0 0 0 0 0 0 0 0 0 0 127 0" result="hardAlpha"/>
<feOffset dx="0.878902" dy="-0.878902"/>
<feGaussianBlur stdDeviation="1.7578"/>
<feComposite in2="hardAlpha" operator="arithmetic" k2="-1" k3="1"/>
<feColorMatrix type="matrix" values="0 0 0 0 0 0 0 0 0 0 0 0 0 0 0 0 0 0 0.5 0"/>
<feBlend mode="normal" in2="effect2_innerShadow_9119_40140" result="effect3_innerShadow_9119_40140"/>
</filter>
<filter id="filter2_bii_9119_40140" x="13.3916" y="22.043" width="42.3716" height="38.7324" filterUnits="userSpaceOnUse" color-interpolation-filters="sRGB">
<feFlood flood-opacity="0" result="BackgroundImageFix"/>
<feGaussianBlur in="BackgroundImageFix" stdDeviation="0.732418"/>
<feComposite in2="SourceAlpha" operator="in" result="effect1_backgroundBlur_9119_40140"/>
<feBlend mode="normal" in="SourceGraphic" in2="effect1_backgroundBlur_9119_40140" result="shape"/>
<feColorMatrix in="SourceAlpha" type="matrix" values="0 0 0 0 0 0 0 0 0 0 0 0 0 0 0 0 0 0 127 0" result="hardAlpha"/>
<feOffset dx="-3.51561" dy="1.17187"/>
<feGaussianBlur stdDeviation="2.34374"/>
<feComposite in2="hardAlpha" operator="arithmetic" k2="-1" k3="1"/>
<feColorMatrix type="matrix" values="0 0 0 0 1 0 0 0 0 1 0 0 0 0 1 0 0 0 0.5 0"/>
<feBlend mode="normal" in2="shape" result="effect2_innerShadow_9119_40140"/>
<feColorMatrix in="SourceAlpha" type="matrix" values="0 0 0 0 0 0 0 0 0 0 0 0 0 0 0 0 0 0 127 0" result="hardAlpha"/>
<feOffset dx="0.878902" dy="-0.878902"/>
<feGaussianBlur stdDeviation="1.7578"/>
<feComposite in2="hardAlpha" operator="arithmetic" k2="-1" k3="1"/>
<feColorMatrix type="matrix" values="0 0 0 0 0 0 0 0 0 0 0 0 0 0 0 0 0 0 0.5 0"/>
<feBlend mode="normal" in2="effect2_innerShadow_9119_40140" result="effect3_innerShadow_9119_40140"/>
</filter>
<filter id="filter3_bii_9119_40140" x="41.0454" y="15.957" width="23.0439" height="20.1367" filterUnits="userSpaceOnUse" color-interpolation-filters="sRGB">
<feFlood flood-opacity="0" result="BackgroundImageFix"/>
<feGaussianBlur in="BackgroundImageFix" stdDeviation="0.732418"/>
<feComposite in2="SourceAlpha" operator="in" result="effect1_backgroundBlur_9119_40140"/>
<feBlend mode="normal" in="SourceGraphic" in2="effect1_backgroundBlur_9119_40140" result="shape"/>
<feColorMatrix in="SourceAlpha" type="matrix" values="0 0 0 0 0 0 0 0 0 0 0 0 0 0 0 0 0 0 127 0" result="hardAlpha"/>
<feOffset dx="-3.51561" dy="1.17187"/>
<feGaussianBlur stdDeviation="2.34374"/>
<feComposite in2="hardAlpha" operator="arithmetic" k2="-1" k3="1"/>
<feColorMatrix type="matrix" values="0 0 0 0 1 0 0 0 0 1 0 0 0 0 1 0 0 0 0.5 0"/>
<feBlend mode="normal" in2="shape" result="effect2_innerShadow_9119_40140"/>
<feColorMatrix in="SourceAlpha" type="matrix" values="0 0 0 0 0 0 0 0 0 0 0 0 0 0 0 0 0 0 127 0" result="hardAlpha"/>
<feOffset dx="0.878902" dy="-0.878902"/>
<feGaussianBlur stdDeviation="1.7578"/>
<feComposite in2="hardAlpha" operator="arithmetic" k2="-1" k3="1"/>
<feColorMatrix type="matrix" values="0 0 0 0 0 0 0 0 0 0 0 0 0 0 0 0 0 0 0.5 0"/>
<feBlend mode="normal" in2="effect2_innerShadow_9119_40140" result="effect3_innerShadow_9119_40140"/>
</filter>
<filter id="filter4_bii_9119_40140" x="7.87697" y="16.1563" width="23.4502" height="20.5683" filterUnits="userSpaceOnUse" color-interpolation-filters="sRGB">
<feFlood flood-opacity="0" result="BackgroundImageFix"/>
<feGaussianBlur in="BackgroundImageFix" stdDeviation="0.732418"/>
<feComposite in2="SourceAlpha" operator="in" result="effect1_backgroundBlur_9119_40140"/>
<feBlend mode="normal" in="SourceGraphic" in2="effect1_backgroundBlur_9119_40140" result="shape"/>
<feColorMatrix in="SourceAlpha" type="matrix" values="0 0 0 0 0 0 0 0 0 0 0 0 0 0 0 0 0 0 127 0" result="hardAlpha"/>
<feOffset dx="-3.51561" dy="1.17187"/>
<feGaussianBlur stdDeviation="2.34374"/>
<feComposite in2="hardAlpha" operator="arithmetic" k2="-1" k3="1"/>
<feColorMatrix type="matrix" values="0 0 0 0 1 0 0 0 0 1 0 0 0 0 1 0 0 0 0.5 0"/>
<feBlend mode="normal" in2="shape" result="effect2_innerShadow_9119_40140"/>
<feColorMatrix in="SourceAlpha" type="matrix" values="0 0 0 0 0 0 0 0 0 0 0 0 0 0 0 0 0 0 127 0" result="hardAlpha"/>
<feOffset dx="0.878902" dy="-0.878902"/>
<feGaussianBlur stdDeviation="1.7578"/>
<feComposite in2="hardAlpha" operator="arithmetic" k2="-1" k3="1"/>
<feColorMatrix type="matrix" values="0 0 0 0 0 0 0 0 0 0 0 0 0 0 0 0 0 0 0.5 0"/>
<feBlend mode="normal" in2="effect2_innerShadow_9119_40140" result="effect3_innerShadow_9119_40140"/>
</filter>
<linearGradient id="paint0_linear_9119_40140" x1="27.2775" y1="28.1379" x2="62.6008" y2="50.2717" gradientUnits="userSpaceOnUse">
<stop stop-color="#E32900"/>
<stop offset="0.494792" stop-color="#C6E216"/>
<stop offset="1" stop-color="#D808FA"/>
</linearGradient>
<linearGradient id="paint1_linear_9119_40140" x1="20.1954" y1="47.0441" x2="45.8734" y2="58.1386" gradientUnits="userSpaceOnUse">
<stop stop-color="#E32900"/>
<stop offset="0.494792" stop-color="#C6E216"/>
<stop offset="1" stop-color="#D808FA"/>
</linearGradient>
<linearGradient id="paint2_linear_9119_40140" x1="17.0676" y1="34.0366" x2="69.9893" y2="55.9597" gradientUnits="userSpaceOnUse">
<stop stop-color="#E32900"/>
<stop offset="0.494792" stop-color="#C6E216"/>
<stop offset="1" stop-color="#D808FA"/>
</linearGradient>
</defs>
</svg>
