<svg width="17" height="17" viewBox="0 0 17 17" fill="none" xmlns="http://www.w3.org/2000/svg">
<path d="M16.1989 8.41739C16.1989 12.8394 12.6293 16.409 8.20729 16.409C3.78527 16.409 0.215683 12.8394 0.215683 8.41739C0.215683 3.99537 3.78527 0.425781 8.20729 0.425781C12.6293 0.425781 16.1989 3.99537 16.1989 8.41739Z" fill="#FFDD67"/>
<path d="M16.1457 3.41133C16.0125 2.69209 15.6129 2.10603 14.9469 1.91956C14.2277 1.73309 13.5884 1.99948 12.9757 2.63881C12.6294 1.67982 12.0966 0.960571 11.2442 0.587629C10.3917 0.214687 9.53928 0.481074 9.0065 1.14704C8.44709 1.83965 8.23398 2.93183 8.82003 4.34369C9.37944 5.67562 11.8568 8.33949 11.9368 8.41941C12.0433 8.36613 14.8137 6.63461 15.4797 5.78218C16.1457 4.95638 16.2789 4.13058 16.1457 3.41133ZM7.40818 1.14704C6.87541 0.481074 6.02297 0.214687 5.17053 0.587629C4.31809 0.960571 3.78532 1.67982 3.43901 2.63881C2.79969 2.02612 2.16036 1.73309 1.44111 1.9462C0.801783 2.13267 0.375563 2.71872 0.24237 3.43797C0.109176 4.13058 0.269009 4.98301 0.908338 5.80881C1.60094 6.63461 4.37137 8.36613 4.47792 8.41941C4.55784 8.33949 7.03524 5.67562 7.59465 4.34369C8.1807 2.93183 7.96759 1.86629 7.40818 1.14704Z" fill="#F46767"/>
<path d="M12.7359 10.0424C12.7359 9.82932 12.6027 9.56294 12.2564 9.48302C11.324 9.29655 9.96546 9.13672 8.20731 9.13672C6.44915 9.13672 5.09058 9.32319 4.15822 9.48302C3.78528 9.56294 3.67873 9.82932 3.67873 10.0424C3.67873 11.9871 5.17049 13.9317 8.20731 13.9317C11.2441 13.905 12.7359 11.9604 12.7359 10.0424Z" fill="#664E27"/>
<path d="M11.5905 10.0984C11.0045 9.99186 9.77909 9.83203 8.2074 9.83203C6.63572 9.83203 5.41034 9.99186 4.82429 10.0984C4.47798 10.1517 4.45135 10.2849 4.47798 10.498C4.50462 10.6046 4.50462 10.7644 4.5579 10.9242C4.58454 11.0841 4.63782 11.164 4.9042 11.1373C5.41034 11.0841 11.0311 11.0841 11.5372 11.1373C11.8036 11.164 11.8303 11.0841 11.8835 10.9242C11.9102 10.7644 11.9368 10.6312 11.9635 10.498C11.9635 10.2849 11.9368 10.1517 11.5905 10.0984Z" fill="white"/>
</svg>
