<svg width="25" height="25" viewBox="0 0 25 25" fill="none" xmlns="http://www.w3.org/2000/svg">
<path d="M22.0031 9.26429C22.08 10.7525 21.5999 11.8759 20.9278 12.8937C19.5644 14.958 13.6882 19.8452 12.4208 19.8452C11.1726 19.8452 5.24848 14.9388 3.89466 12.8937C3.22255 11.8759 2.74248 10.7525 2.81929 9.26429C2.96331 6.64307 5.12366 4.48273 7.76408 4.48273C9.07949 4.48273 10.2029 5.18364 11.019 5.88455L10.7021 8.14091L12.056 11.0214L10.779 13.4794L12.056 14.1227L12.4112 16.7823L13.0833 14.2955L12.1232 13.1913L13.765 11.0982L13.1217 9.63875L14.3603 5.42368C15.1188 4.90519 16.0406 4.48273 17.0584 4.48273C19.6988 4.48273 21.8591 6.64307 22.0031 9.26429Z" fill="black"/>
</svg>
