<svg width="60" height="60" viewBox="0 0 60 60" fill="none" xmlns="http://www.w3.org/2000/svg">
<g filter="url(#filter0_ii_1997_32717)">
<path d="M27.3257 8.12467L9.27917 26.1177L30.4317 38.0059L50.5667 26.1177L33.2699 8.12467C31.3956 6.62527 29.0929 6.62527 27.3257 8.12467Z" fill="url(#paint0_linear_1997_32717)"/>
</g>
<path d="M27.3257 8.12467L9.27917 26.1177L30.4317 38.0059L50.5667 26.1177L33.2699 8.12467C31.3956 6.62527 29.0929 6.62527 27.3257 8.12467Z" stroke="white" stroke-width="0.107101"/>
<g filter="url(#filter1_bii_1997_32717)">
<path d="M14 17C14 14.7909 15.7909 13 18 13H42C44.2091 13 46 14.7909 46 17V46C46 48.2091 44.2091 50 42 50H18C15.7909 50 14 48.2091 14 46V17Z" fill="white" fill-opacity="0.5"/>
</g>
<g filter="url(#filter2_dii_1997_32717)">
<path d="M25.184 36.5599L8.79749 27.0814V52.9999L25.184 36.5599Z" fill="url(#paint1_linear_1997_32717)"/>
<path d="M26.0408 37.0418L10.3505 52.9999H50.5134L34.5018 37.0418L30.2713 39.5587L26.0408 37.0418Z" fill="url(#paint2_linear_1997_32717)"/>
<path d="M51.6916 27.0814V52.9999C51.3488 52.9999 40.6958 42.0399 35.4122 36.5599L51.6916 27.0814Z" fill="url(#paint3_linear_1997_32717)"/>
<path d="M25.184 36.5599L8.79749 27.0814V52.9999L25.184 36.5599Z" stroke="white" stroke-width="0.107101"/>
<path d="M26.0408 37.0418L10.3505 52.9999H50.5134L34.5018 37.0418L30.2713 39.5587L26.0408 37.0418Z" stroke="white" stroke-width="0.107101"/>
<path d="M51.6916 27.0814V52.9999C51.3488 52.9999 40.6958 42.0399 35.4122 36.5599L51.6916 27.0814Z" stroke="white" stroke-width="0.107101"/>
</g>
<g filter="url(#filter3_bii_1997_32717)">
<path d="M22.3168 19.807C21.9992 18.8208 19.9121 18.9494 20.0029 21.6509C20.0936 24.3525 20.4566 26.1535 20.7742 27.3542C21.2733 29.3696 23.2696 29.4553 23.2696 28.0403V25.8104C23.2696 25.8104 23.0427 24.91 23.9955 24.7813C24.9483 24.6526 25.9011 24.524 26.8539 24.4382C27.8067 24.3524 27.8975 25.1243 27.8975 25.1243C27.8975 25.1243 27.9428 25.8105 28.2604 27.4399C28.578 29.0694 30.2568 27.9116 30.3475 27.2684C30.4382 26.6252 30.529 21.1363 29.4401 19.2067C28.3512 17.2771 27.4437 18.8636 27.4437 19.3782V21.3936C27.4437 21.3936 27.4891 22.1655 26.7178 22.2942C25.9465 22.4228 24.4039 22.5514 23.7233 22.5943C23.0427 22.6372 22.9974 21.994 22.9974 21.994C22.9974 21.994 22.6344 20.7933 22.3168 19.807Z" fill="#D808FA"/>
<path d="M33.2059 17.7058C32.734 17.7744 32.2228 18.1632 32.0262 18.349C31.3003 18.9922 31.7994 19.6783 32.4346 19.8499C33.0698 20.0214 34.2494 19.6783 34.7939 19.2924C35.3383 18.9065 35.0207 17.9631 34.6124 17.7916C34.204 17.62 33.7957 17.62 33.2059 17.7058Z" fill="#D808FA"/>
<path d="M33.705 21.0077C32.4346 20.9047 32.0565 22.0225 32.0262 22.5943C32.117 23.9665 31.9563 24.4615 32.2985 26.7538C32.5619 28.5192 34.8846 27.6972 34.8846 26.7538C34.8846 25.8104 34.9209 25.1157 34.8846 24.5668C34.8392 23.8807 35.293 21.1363 33.705 21.0077Z" fill="#D808FA"/>
<path d="M38.3782 18.006C38.1513 16.2478 36.3365 17.1055 36.3819 18.2204C36.4272 19.3353 36.8809 21.9081 37.2439 23.7949C37.6069 25.6818 39.0134 24.5668 38.968 23.5377C38.9227 22.5085 38.6051 19.7641 38.3782 18.006Z" fill="#D808FA"/>
<path d="M38.8773 25.7675C37.9336 25.6645 37.4254 26.1534 37.2893 26.3678C37.1532 26.5822 37.1532 27.1397 37.5161 27.3112C37.8791 27.4827 39.1041 27.2683 39.4217 27.0968C39.7393 26.9253 40.0569 25.8961 38.8773 25.7675Z" fill="#D808FA"/>
</g>
<defs>
<filter id="filter0_ii_1997_32717" x="8.69128" y="6.44653" width="42.4609" height="32.1212" filterUnits="userSpaceOnUse" color-interpolation-filters="sRGB">
<feFlood flood-opacity="0" result="BackgroundImageFix"/>
<feBlend mode="normal" in="SourceGraphic" in2="BackgroundImageFix" result="shape"/>
<feColorMatrix in="SourceAlpha" type="matrix" values="0 0 0 0 0 0 0 0 0 0 0 0 0 0 0 0 0 0 127 0" result="hardAlpha"/>
<feOffset dx="-0.5" dy="0.5"/>
<feGaussianBlur stdDeviation="0.6"/>
<feComposite in2="hardAlpha" operator="arithmetic" k2="-1" k3="1"/>
<feColorMatrix type="matrix" values="0 0 0 0 0 0 0 0 0 0 0 0 0 0 0 0 0 0 0.4 0"/>
<feBlend mode="normal" in2="shape" result="effect1_innerShadow_1997_32717"/>
<feColorMatrix in="SourceAlpha" type="matrix" values="0 0 0 0 0 0 0 0 0 0 0 0 0 0 0 0 0 0 127 0" result="hardAlpha"/>
<feOffset dx="0.5" dy="-0.5"/>
<feGaussianBlur stdDeviation="0.6"/>
<feComposite in2="hardAlpha" operator="arithmetic" k2="-1" k3="1"/>
<feColorMatrix type="matrix" values="0 0 0 0 1 0 0 0 0 1 0 0 0 0 1 0 0 0 0.6 0"/>
<feBlend mode="normal" in2="effect1_innerShadow_1997_32717" result="effect2_innerShadow_1997_32717"/>
</filter>
<filter id="filter1_bii_1997_32717" x="10" y="9" width="40" height="45" filterUnits="userSpaceOnUse" color-interpolation-filters="sRGB">
<feFlood flood-opacity="0" result="BackgroundImageFix"/>
<feGaussianBlur in="BackgroundImageFix" stdDeviation="2"/>
<feComposite in2="SourceAlpha" operator="in" result="effect1_backgroundBlur_1997_32717"/>
<feBlend mode="normal" in="SourceGraphic" in2="effect1_backgroundBlur_1997_32717" result="shape"/>
<feColorMatrix in="SourceAlpha" type="matrix" values="0 0 0 0 0 0 0 0 0 0 0 0 0 0 0 0 0 0 127 0" result="hardAlpha"/>
<feOffset dx="-0.5" dy="0.5"/>
<feGaussianBlur stdDeviation="0.6"/>
<feComposite in2="hardAlpha" operator="arithmetic" k2="-1" k3="1"/>
<feColorMatrix type="matrix" values="0 0 0 0 0 0 0 0 0 0 0 0 0 0 0 0 0 0 0.4 0"/>
<feBlend mode="normal" in2="shape" result="effect2_innerShadow_1997_32717"/>
<feColorMatrix in="SourceAlpha" type="matrix" values="0 0 0 0 0 0 0 0 0 0 0 0 0 0 0 0 0 0 127 0" result="hardAlpha"/>
<feOffset dx="0.5" dy="-0.5"/>
<feGaussianBlur stdDeviation="0.6"/>
<feComposite in2="hardAlpha" operator="arithmetic" k2="-1" k3="1"/>
<feColorMatrix type="matrix" values="0 0 0 0 1 0 0 0 0 1 0 0 0 0 1 0 0 0 0.6 0"/>
<feBlend mode="normal" in2="effect2_innerShadow_1997_32717" result="effect3_innerShadow_1997_32717"/>
</filter>
<filter id="filter2_dii_1997_32717" x="4.7439" y="18.9883" width="51.0012" height="35.1412" filterUnits="userSpaceOnUse" color-interpolation-filters="sRGB">
<feFlood flood-opacity="0" result="BackgroundImageFix"/>
<feColorMatrix in="SourceAlpha" type="matrix" values="0 0 0 0 0 0 0 0 0 0 0 0 0 0 0 0 0 0 127 0" result="hardAlpha"/>
<feOffset dy="-4"/>
<feGaussianBlur stdDeviation="2"/>
<feComposite in2="hardAlpha" operator="out"/>
<feColorMatrix type="matrix" values="0 0 0 0 0 0 0 0 0 0 0 0 0 0 0 0 0 0 0.25 0"/>
<feBlend mode="normal" in2="BackgroundImageFix" result="effect1_dropShadow_1997_32717"/>
<feBlend mode="normal" in="SourceGraphic" in2="effect1_dropShadow_1997_32717" result="shape"/>
<feColorMatrix in="SourceAlpha" type="matrix" values="0 0 0 0 0 0 0 0 0 0 0 0 0 0 0 0 0 0 127 0" result="hardAlpha"/>
<feOffset dx="1" dy="-1"/>
<feGaussianBlur stdDeviation="1"/>
<feComposite in2="hardAlpha" operator="arithmetic" k2="-1" k3="1"/>
<feColorMatrix type="matrix" values="0 0 0 0 0 0 0 0 0 0 0 0 0 0 0 0 0 0 0.32 0"/>
<feBlend mode="normal" in2="shape" result="effect2_innerShadow_1997_32717"/>
<feColorMatrix in="SourceAlpha" type="matrix" values="0 0 0 0 0 0 0 0 0 0 0 0 0 0 0 0 0 0 127 0" result="hardAlpha"/>
<feOffset dx="-1" dy="1"/>
<feGaussianBlur stdDeviation="1"/>
<feComposite in2="hardAlpha" operator="arithmetic" k2="-1" k3="1"/>
<feColorMatrix type="matrix" values="0 0 0 0 1 0 0 0 0 1 0 0 0 0 1 0 0 0 0.5 0"/>
<feBlend mode="normal" in2="effect2_innerShadow_1997_32717" result="effect3_innerShadow_1997_32717"/>
</filter>
<filter id="filter3_bii_1997_32717" x="16.5714" y="13.5714" width="26.5714" height="18.8571" filterUnits="userSpaceOnUse" color-interpolation-filters="sRGB">
<feFlood flood-opacity="0" result="BackgroundImageFix"/>
<feGaussianBlur in="BackgroundImageFix" stdDeviation="1.71429"/>
<feComposite in2="SourceAlpha" operator="in" result="effect1_backgroundBlur_1997_32717"/>
<feBlend mode="normal" in="SourceGraphic" in2="effect1_backgroundBlur_1997_32717" result="shape"/>
<feColorMatrix in="SourceAlpha" type="matrix" values="0 0 0 0 0 0 0 0 0 0 0 0 0 0 0 0 0 0 127 0" result="hardAlpha"/>
<feOffset dx="0.428571" dy="-0.428571"/>
<feGaussianBlur stdDeviation="0.514286"/>
<feComposite in2="hardAlpha" operator="arithmetic" k2="-1" k3="1"/>
<feColorMatrix type="matrix" values="0 0 0 0 0 0 0 0 0 0 0 0 0 0 0 0 0 0 0.4 0"/>
<feBlend mode="normal" in2="shape" result="effect2_innerShadow_1997_32717"/>
<feColorMatrix in="SourceAlpha" type="matrix" values="0 0 0 0 0 0 0 0 0 0 0 0 0 0 0 0 0 0 127 0" result="hardAlpha"/>
<feOffset dx="-0.428571" dy="0.428571"/>
<feGaussianBlur stdDeviation="0.514286"/>
<feComposite in2="hardAlpha" operator="arithmetic" k2="-1" k3="1"/>
<feColorMatrix type="matrix" values="0 0 0 0 1 0 0 0 0 1 0 0 0 0 1 0 0 0 0.6 0"/>
<feBlend mode="normal" in2="effect2_innerShadow_1997_32717" result="effect3_innerShadow_1997_32717"/>
</filter>
<linearGradient id="paint0_linear_1997_32717" x1="9.27917" y1="7.00012" x2="39.0555" y2="46.6505" gradientUnits="userSpaceOnUse">
<stop stop-color="#E32900"/>
<stop offset="0.494792" stop-color="#C6E216"/>
<stop offset="1" stop-color="#D808FA"/>
</linearGradient>
<linearGradient id="paint1_linear_1997_32717" x1="8.79749" y1="27.0814" x2="31.7423" y2="65.0542" gradientUnits="userSpaceOnUse">
<stop stop-color="#E32900"/>
<stop offset="0.494792" stop-color="#C6E216"/>
<stop offset="1" stop-color="#D808FA"/>
</linearGradient>
<linearGradient id="paint2_linear_1997_32717" x1="8.79749" y1="27.0814" x2="31.7423" y2="65.0542" gradientUnits="userSpaceOnUse">
<stop stop-color="#E32900"/>
<stop offset="0.494792" stop-color="#C6E216"/>
<stop offset="1" stop-color="#D808FA"/>
</linearGradient>
<linearGradient id="paint3_linear_1997_32717" x1="8.79749" y1="27.0814" x2="31.7423" y2="65.0542" gradientUnits="userSpaceOnUse">
<stop stop-color="#E32900"/>
<stop offset="0.494792" stop-color="#C6E216"/>
<stop offset="1" stop-color="#D808FA"/>
</linearGradient>
</defs>
</svg>
