<svg width="25" height="25" viewBox="0 0 25 25" fill="none" xmlns="http://www.w3.org/2000/svg">
<path d="M12.3818 7.47086C12.9826 7.47086 13.4833 7.97155 13.4833 8.57239V11.877L15.0856 13.4792C15.4861 13.8798 15.4861 14.5808 15.0856 14.9813C14.685 15.3819 13.984 15.3819 13.5835 14.9813L11.6808 13.0787C11.4805 12.8784 11.3804 12.578 11.3804 12.2775V8.47225C11.3804 7.87141 11.781 7.47086 12.3818 7.47086ZM19.8922 11.2762C19.3915 7.47086 16.1871 4.66695 12.3818 4.66695C8.57649 4.66695 5.37203 7.571 4.97147 11.3763C4.87133 11.9771 4.37064 12.3777 3.7698 12.2775C3.16896 12.1774 2.76841 11.6767 2.86855 11.0759C3.36924 6.36932 7.37482 2.66416 12.2816 2.56402C17.1885 2.46389 21.2942 6.16904 21.895 10.9757C22.4959 15.7824 19.3915 20.3888 14.5849 21.4904C10.8797 22.3916 7.17454 20.9897 4.87133 18.1858V19.8881C4.87133 20.489 4.37064 20.9897 3.7698 20.9897C3.16896 20.9897 2.86855 20.489 2.86855 19.8881V15.1816C2.86855 14.5808 3.36924 14.0801 3.97008 14.0801H4.37064C4.37064 14.0801 4.37064 14.0801 4.47078 14.0801H8.67663C9.27747 14.0801 9.77816 14.5808 9.77816 15.1816C9.77816 15.7824 9.27747 16.2831 8.67663 16.2831H6.07301C7.77538 18.9869 10.9798 20.3888 14.1843 19.5877C17.8895 18.5863 20.2928 15.0815 19.8922 11.2762Z" fill="black"/>
</svg>
