<svg width="24" height="25" viewBox="0 0 24 25" fill="none" xmlns="http://www.w3.org/2000/svg">
<path d="M22.0703 10.126L13.6803 0.786046C13.2235 0.362224 12.6234 0.126709 12.0003 0.126709C11.3772 0.126709 10.7771 0.362224 10.3203 0.786046L1.93031 10.126C1.69585 10.3373 1.51005 10.5969 1.38574 10.8869C1.26143 11.177 1.20157 11.4906 1.21031 11.806V22.526C1.21031 22.9504 1.37888 23.3574 1.67894 23.6574C1.979 23.9575 2.38596 24.126 2.81031 24.126H7.68031C8.10465 24.126 8.51162 23.9575 8.81168 23.6574C9.11174 23.3574 9.28031 22.9504 9.28031 22.526V17.176C9.27742 17.1228 9.28579 17.0695 9.30487 17.0196C9.32395 16.9698 9.35332 16.9245 9.39105 16.8868C9.42879 16.8491 9.47405 16.8197 9.52388 16.8006C9.57372 16.7815 9.62702 16.7732 9.68031 16.776H14.3203C14.3736 16.7732 14.4269 16.7815 14.4767 16.8006C14.5266 16.8197 14.5718 16.8491 14.6096 16.8868C14.6473 16.9245 14.6767 16.9698 14.6957 17.0196C14.7148 17.0695 14.7232 17.1228 14.7203 17.176V22.526C14.7203 22.9504 14.8889 23.3574 15.1889 23.6574C15.489 23.9575 15.896 24.126 16.3203 24.126H21.1903C21.4004 24.126 21.6085 24.0847 21.8026 24.0043C21.9967 23.9238 22.1731 23.806 22.3217 23.6574C22.4703 23.5088 22.5881 23.3325 22.6685 23.1383C22.7489 22.9442 22.7903 22.7362 22.7903 22.526V11.816C22.7929 11.5 22.7302 11.1868 22.6064 10.896C22.4825 10.6053 22.3 10.3432 22.0703 10.126Z" fill="black"/>
</svg>
