<svg width="24" height="24" viewBox="0 0 24 24" fill="none" xmlns="http://www.w3.org/2000/svg">
<path d="M21.2592 11.246L12.7775 2.70147C12.3784 2.29938 11.6799 2.29938 11.2808 2.70147L2.69933 11.246C2.39998 11.5475 2.30019 12.0502 2.49976 12.3517C2.59955 12.7538 2.99868 12.9549 3.4976 12.9549H4.29588V18.5842C4.29588 20.1926 5.59307 21.5999 7.2894 21.5999H16.7689C18.3654 21.5999 19.6626 20.2931 19.6626 18.5842V12.9549H20.5607C20.9598 12.9549 21.3589 12.6533 21.5585 12.3517C21.6583 11.9496 21.5585 11.5475 21.2592 11.246ZM13.7754 19.4889H10.1831V14.8648C10.1831 14.3622 10.5823 13.9601 11.0812 13.9601H12.9771C13.476 13.9601 13.8751 14.3622 13.8751 14.8648V19.4889H13.7754ZM17.5672 18.5842C17.5672 19.0868 17.168 19.3884 16.7689 19.3884H15.8708V14.7643C15.8708 13.1559 14.5736 11.7486 12.8773 11.7486H10.9814C9.38486 11.7486 7.98788 13.0554 7.98788 14.7643V19.3884H7.2894C6.79048 19.3884 6.49112 18.9863 6.49112 18.5842V11.8491C6.49112 11.7486 6.49112 11.5475 6.39134 11.447V11.3465C6.39134 11.246 6.29156 11.1455 6.19177 11.0449C6.09199 10.9444 6.09199 10.9444 5.9922 10.8439L11.9792 4.81247L18.0661 10.9444C17.9663 10.9444 17.8665 11.0449 17.8665 11.1455C17.7667 11.246 17.7667 11.3465 17.6669 11.447V11.5475C17.6669 11.6481 17.5672 11.7486 17.5672 11.9496V18.5842Z" fill="black"/>
</svg>
