<svg width="24" height="24" viewBox="0 0 24 24" fill="none" xmlns="http://www.w3.org/2000/svg">
<path d="M12.0003 1.60025C12.1819 1.59533 12.3593 1.65564 12.5003 1.77025L20.8503 11.0802C20.9304 11.1474 20.9944 11.2317 21.0377 11.3269C21.081 11.4221 21.1024 11.5257 21.1003 11.6302V22.4002H16.3203V17.0502C16.3203 16.5198 16.1096 16.0111 15.7345 15.636C15.3594 15.261 14.8507 15.0503 14.3203 15.0503H9.68031C9.14988 15.0503 8.64117 15.261 8.26609 15.636C7.89102 16.0111 7.68031 16.5198 7.68031 17.0502V22.4002H2.81031V11.6902C2.81166 11.521 2.87997 11.3592 3.00031 11.2402V11.1702L3.08031 11.0802L11.4503 1.80025C11.6073 1.67613 11.8002 1.60599 12.0003 1.60025ZM12.0003 0.000249543C11.3678 -0.00122032 10.7578 0.234247 10.2903 0.66025L1.93031 10.0002C1.69585 10.2115 1.51005 10.4711 1.38574 10.7611C1.26143 11.0512 1.20157 11.3648 1.21031 11.6803V22.4002C1.21031 22.8246 1.37888 23.2316 1.67894 23.5316C1.979 23.8317 2.38596 24.0002 2.81031 24.0002H7.68031C8.10465 24.0002 8.51162 23.8317 8.81168 23.5316C9.11174 23.2316 9.28031 22.8246 9.28031 22.4002V17.0502C9.27742 16.997 9.28579 16.9437 9.30487 16.8938C9.32395 16.844 9.35332 16.7987 9.39105 16.761C9.42879 16.7233 9.47405 16.6939 9.52388 16.6748C9.57372 16.6557 9.62702 16.6474 9.68031 16.6502H14.3203C14.3736 16.6474 14.4269 16.6557 14.4767 16.6748C14.5266 16.6939 14.5718 16.7233 14.6096 16.761C14.6473 16.7987 14.6767 16.844 14.6957 16.8938C14.7148 16.9437 14.7232 16.997 14.7203 17.0502V22.4002C14.7203 22.8246 14.8889 23.2316 15.1889 23.5316C15.489 23.8317 15.896 24.0002 16.3203 24.0002H21.1903C21.4004 24.0002 21.6085 23.9589 21.8026 23.8785C21.9967 23.798 22.1731 23.6802 22.3217 23.5316C22.4703 23.383 22.5881 23.2067 22.6685 23.0125C22.7489 22.8184 22.7903 22.6104 22.7903 22.4002V11.6902C22.7929 11.3742 22.7302 11.061 22.6064 10.7702C22.4825 10.4795 22.3 10.2174 22.0703 10.0002L13.6803 0.66025C13.4586 0.44357 13.1957 0.273528 12.9071 0.160168C12.6186 0.0468088 12.3102 -0.00756832 12.0003 0.000249543Z" fill="black"/>
</svg>
