<svg width="25" height="24" viewBox="0 0 25 24" fill="none" xmlns="http://www.w3.org/2000/svg">
<path d="M12.6004 1.60037C12.782 1.59545 12.9594 1.65576 13.1004 1.77037L21.4504 11.0804C21.5305 11.1476 21.5945 11.2318 21.6378 11.327C21.6811 11.4222 21.7025 11.5258 21.7004 11.6304V22.4004H16.9204V17.0504C16.9204 16.5199 16.7097 16.0112 16.3346 15.6362C15.9595 15.2611 15.4508 15.0504 14.9204 15.0504H10.2804C9.74997 15.0504 9.24127 15.2611 8.86619 15.6362C8.49112 16.0112 8.28041 16.5199 8.28041 17.0504V22.4004H3.41041V11.6904C3.41176 11.5212 3.48007 11.3594 3.60041 11.2404V11.1704L3.68041 11.0804L12.0504 1.80037C12.2074 1.67625 12.4003 1.60611 12.6004 1.60037ZM12.6004 0.000371613C11.9679 -0.00109825 11.3579 0.234369 10.8904 0.660372L2.53041 10.0004C2.29595 10.2116 2.11015 10.4712 1.98583 10.7613C1.86152 11.0513 1.80167 11.3649 1.81041 11.6804V22.4004C1.81041 22.8247 1.97898 23.2317 2.27904 23.5317C2.57909 23.8318 2.98606 24.0004 3.41041 24.0004H8.28041C8.70475 24.0004 9.11172 23.8318 9.41178 23.5317C9.71184 23.2317 9.88041 22.8247 9.88041 22.4004V17.0504C9.87752 16.9971 9.88589 16.9438 9.90497 16.8939C9.92405 16.8441 9.95341 16.7988 9.99115 16.7611C10.0289 16.7234 10.0741 16.694 10.124 16.6749C10.1738 16.6559 10.2271 16.6475 10.2804 16.6504H14.9204C14.9737 16.6475 15.027 16.6559 15.0768 16.6749C15.1267 16.694 15.1719 16.7234 15.2097 16.7611C15.2474 16.7988 15.2768 16.8441 15.2958 16.8939C15.3149 16.9438 15.3233 16.9971 15.3204 17.0504V22.4004C15.3204 22.8247 15.489 23.2317 15.789 23.5317C16.0891 23.8318 16.4961 24.0004 16.9204 24.0004H21.7904C22.0005 24.0004 22.2086 23.959 22.4027 23.8786C22.5968 23.7982 22.7732 23.6803 22.9218 23.5317C23.0704 23.3832 23.1882 23.2068 23.2686 23.0127C23.349 22.8185 23.3904 22.6105 23.3904 22.4004V11.6904C23.393 11.3743 23.3303 11.0611 23.2065 10.7704C23.0826 10.4796 22.9001 10.2175 22.6704 10.0004L14.2804 0.660372C14.0587 0.443692 13.7958 0.27365 13.5072 0.16029C13.2187 0.0469309 12.9103 -0.00744625 12.6004 0.000371613Z" fill="white"/>
</svg>
