<svg width="60" height="60" viewBox="0 0 60 60" fill="none" xmlns="http://www.w3.org/2000/svg">
<path fill-rule="evenodd" clip-rule="evenodd" d="M14.638 4.72972C14.9436 6.1745 16.0548 9.28763 18.0552 10.1819C19.3992 10.7826 19.8003 10.7207 20.2132 10.6569C20.5686 10.602 20.9327 10.5458 21.914 10.9095C23.6114 11.5385 23.456 12.8475 23.1661 13.4233L13.7093 15.4234C12.507 10.4663 12.5826 8.06124 14.638 4.72972ZM14.001 16.8025L23.2191 14.6471C24.3355 14.411 26.7214 14.565 27.3336 17.0702C27.9457 19.5753 26.0389 20.843 25.009 21.1638L15.1014 23.465C14.0835 23.6803 11.8552 23.4929 11.0854 21.0211C10.3157 18.5493 12.7084 17.1788 14.001 16.8025ZM15.2528 24.6679C13.8177 24.8891 12.7845 24.6754 12.4473 24.5409C11.8443 24.7714 10.8711 25.9446 11.803 28.7937C12.7349 31.6429 15.5329 32.1557 16.8154 32.056C20.5947 30.948 28.4363 28.6103 29.5684 28.1239C30.9835 27.5159 31.9004 26.4986 31.9442 23.299C31.9791 20.7394 29.8094 19.5311 28.7201 19.2468C27.8428 20.9324 27.3277 21.9084 25.85 22.2209C22.9156 22.9444 16.688 24.4467 15.2528 24.6679ZM15.7071 33.6283C17.3931 34.3009 30.1878 30.5657 31.3529 28.7756L31.7478 52.0536C31.6151 54.3458 28.8985 55.1261 27.5745 53.245L15.7071 33.6283Z" fill="url(#paint0_linear_1996_23495)"/>
<g filter="url(#filter0_bii_1996_23495)">
<path fill-rule="evenodd" clip-rule="evenodd" d="M44.5712 5.90343C43.8328 7.18233 42.5786 10.2407 43.4689 12.2428C44.067 13.5879 44.4068 13.8099 44.7566 14.0385C45.0576 14.2352 45.366 14.4367 45.8529 15.3632C46.695 16.9655 45.7045 17.8353 45.104 18.0699L36.733 13.2369C39.1518 8.74609 40.8156 7.00772 44.5712 5.90343ZM36.0282 14.4577L44.3255 19.0156C45.3137 19.5861 46.9854 21.2954 45.7664 23.5679C44.5474 25.8404 42.2817 25.509 41.3013 25.0592L32.3936 20.1489C31.4926 19.6287 29.9604 18 31.0399 15.6469C32.1194 13.2938 34.8153 13.8736 36.0282 14.4577ZM31.7023 21.1449C30.4869 20.3502 29.8613 19.5007 29.7004 19.1752C29.0978 18.9436 27.5898 19.1658 26.3787 21.908C25.1675 24.6501 26.9059 26.9017 27.9265 27.6847C31.4783 29.3865 38.8735 32.8888 40.0407 33.2837C41.4997 33.7772 42.8616 33.6334 45.0327 31.2827C46.7695 29.4021 45.9632 27.0532 45.3429 26.1137C43.5638 26.7811 42.5283 27.1627 41.2203 26.4076C38.554 24.9845 32.9177 21.9396 31.7023 21.1449ZM26.0513 28.1135C26.8558 29.7406 38.8693 35.5139 40.9324 34.9611L25.6678 52.5398C24.0371 54.1561 21.4948 52.9209 21.7673 50.6367L26.0513 28.1135Z" fill="#EBA759" fill-opacity="0.5"/>
</g>
<g filter="url(#filter1_f_1996_23495)">
<ellipse cx="0.357769" cy="2.92582" rx="0.357769" ry="2.92582" transform="matrix(0.498076 -0.867133 0.872488 0.488636 37 16.6205)" fill="white"/>
</g>
<g filter="url(#filter2_f_1996_23495)">
<ellipse cx="0.357769" cy="2.92582" rx="0.357769" ry="2.92582" transform="matrix(0.498076 -0.867133 0.872488 0.488636 33 23.6205)" fill="white"/>
</g>
<g filter="url(#filter3_f_1996_23495)">
<ellipse cx="0.597334" cy="1.03387" rx="0.597334" ry="1.03387" transform="matrix(0.752523 -0.658566 0.666695 0.745331 41 12.7867)" fill="white"/>
</g>
<g filter="url(#filter4_ii_1996_23495)">
<path d="M34.4823 17.9656L33.1438 17.8811C33.084 17.8787 33.0295 17.8616 32.9802 17.83C32.931 17.7983 32.8937 17.7602 32.8684 17.7155C32.8431 17.6708 32.8295 17.6249 32.8277 17.5779C32.826 17.5309 32.8435 17.4892 32.8803 17.4528L33.6874 16.6584L33.1021 15.5002C33.0763 15.4464 33.0687 15.3973 33.0796 15.3529C33.0904 15.3084 33.1144 15.2725 33.1516 15.2451C33.189 15.2177 33.2313 15.2017 33.2783 15.1971C33.3254 15.1925 33.3806 15.2033 33.4439 15.2297L34.7302 15.8303L35.7046 15.2009C35.7482 15.1724 35.7979 15.1606 35.8538 15.1653C35.9098 15.17 35.9611 15.1852 36.0077 15.2111C36.0546 15.237 36.0947 15.2724 36.1282 15.3172C36.1617 15.362 36.178 15.4105 36.1772 15.4626L36.1607 16.6225L37.3524 17.3941C37.4083 17.4338 37.4467 17.4748 37.4678 17.5172C37.4889 17.5595 37.4977 17.6038 37.4943 17.6501C37.491 17.6964 37.4733 17.7359 37.4414 17.7686C37.4094 17.8014 37.3638 17.821 37.3044 17.8273L36.0121 17.9458L35.767 19.0514C35.7556 19.102 35.7296 19.1391 35.6887 19.1625C35.6479 19.186 35.6019 19.1988 35.5507 19.2009C35.4994 19.2031 35.4472 19.1918 35.3943 19.1668C35.3413 19.1419 35.2979 19.1047 35.2641 19.0553L34.4823 17.9656Z" fill="url(#paint1_linear_1996_23495)"/>
</g>
<g filter="url(#filter5_ii_1996_23495)">
<path d="M29.3684 36.7783L28.4008 37.7071C28.3585 37.7495 28.3091 37.7781 28.2525 37.793C28.1959 37.8078 28.1426 37.8095 28.0925 37.7979C28.0425 37.7863 27.9995 37.7653 27.9637 37.7348C27.9279 37.7043 27.909 37.6632 27.9071 37.6115L27.8679 36.4797L26.6189 36.1274C26.5618 36.1101 26.5206 36.0824 26.4951 36.0444C26.4697 36.0064 26.4595 35.9644 26.4645 35.9184C26.4696 35.8723 26.4864 35.8304 26.5148 35.7926C26.5433 35.7548 26.5886 35.7215 26.6508 35.6927L27.9632 35.1515L28.1587 34.008C28.1672 33.9567 28.1921 33.9121 28.2334 33.8741C28.2747 33.836 28.3206 33.8086 28.3712 33.7917C28.422 33.7747 28.4752 33.7691 28.5309 33.7747C28.5865 33.7804 28.6333 33.8011 28.6711 33.837L29.5143 34.6337L30.8886 34.2778C30.9557 34.2635 31.0119 34.2629 31.0573 34.276C31.1028 34.2891 31.1414 34.3126 31.1732 34.3464C31.205 34.3802 31.2222 34.4199 31.2247 34.4656C31.2272 34.5113 31.2107 34.5581 31.1752 34.6061L30.3884 35.6381L31.037 36.5665C31.0666 36.6091 31.0763 36.6533 31.066 36.6993C31.0556 36.7452 31.0339 36.7878 31.0008 36.8269C30.9678 36.8662 30.9242 36.8969 30.87 36.9191C30.8158 36.9412 30.7591 36.948 30.6998 36.9395L29.3684 36.7783Z" fill="url(#paint2_linear_1996_23495)"/>
</g>
<g filter="url(#filter6_ii_1996_23495)">
<ellipse cx="40.8016" cy="28.6388" rx="1.5" ry="1" transform="rotate(31.6805 40.8016 28.6388)" fill="url(#paint3_linear_1996_23495)"/>
</g>
<g filter="url(#filter7_ii_1996_23495)">
<ellipse cx="29.773" cy="43.762" rx="1.5" ry="1" transform="rotate(135.904 29.773 43.762)" fill="url(#paint4_linear_1996_23495)"/>
</g>
<defs>
<filter id="filter0_bii_1996_23495" x="15.7471" y="-0.0964966" width="36.4474" height="59.3713" filterUnits="userSpaceOnUse" color-interpolation-filters="sRGB">
<feFlood flood-opacity="0" result="BackgroundImageFix"/>
<feGaussianBlur in="BackgroundImageFix" stdDeviation="1.71429"/>
<feComposite in2="SourceAlpha" operator="in" result="effect1_backgroundBlur_1996_23495"/>
<feBlend mode="normal" in="SourceGraphic" in2="effect1_backgroundBlur_1996_23495" result="shape"/>
<feColorMatrix in="SourceAlpha" type="matrix" values="0 0 0 0 0 0 0 0 0 0 0 0 0 0 0 0 0 0 127 0" result="hardAlpha"/>
<feOffset dx="6" dy="-6"/>
<feGaussianBlur stdDeviation="6"/>
<feComposite in2="hardAlpha" operator="arithmetic" k2="-1" k3="1"/>
<feColorMatrix type="matrix" values="0 0 0 0 0 0 0 0 0 0 0 0 0 0 0 0 0 0 0.32 0"/>
<feBlend mode="normal" in2="shape" result="effect2_innerShadow_1996_23495"/>
<feColorMatrix in="SourceAlpha" type="matrix" values="0 0 0 0 0 0 0 0 0 0 0 0 0 0 0 0 0 0 127 0" result="hardAlpha"/>
<feOffset dx="-6" dy="6"/>
<feGaussianBlur stdDeviation="6"/>
<feComposite in2="hardAlpha" operator="arithmetic" k2="-1" k3="1"/>
<feColorMatrix type="matrix" values="0 0 0 0 1 0 0 0 0 1 0 0 0 0 1 0 0 0 0.5 0"/>
<feBlend mode="normal" in2="effect2_innerShadow_1996_23495" result="effect3_innerShadow_1996_23495"/>
</filter>
<filter id="filter1_f_1996_23495" x="36.1719" y="15.2767" width="7.11816" height="4.92645" filterUnits="userSpaceOnUse" color-interpolation-filters="sRGB">
<feFlood flood-opacity="0" result="BackgroundImageFix"/>
<feBlend mode="normal" in="SourceGraphic" in2="BackgroundImageFix" result="shape"/>
<feGaussianBlur stdDeviation="0.5" result="effect1_foregroundBlur_1996_23495"/>
</filter>
<filter id="filter2_f_1996_23495" x="32.1719" y="22.2767" width="7.11816" height="4.92645" filterUnits="userSpaceOnUse" color-interpolation-filters="sRGB">
<feFlood flood-opacity="0" result="BackgroundImageFix"/>
<feBlend mode="normal" in="SourceGraphic" in2="BackgroundImageFix" result="shape"/>
<feGaussianBlur stdDeviation="0.5" result="effect1_foregroundBlur_1996_23495"/>
</filter>
<filter id="filter3_f_1996_23495" x="40.3158" y="11.2986" width="3.646" height="3.73071" filterUnits="userSpaceOnUse" color-interpolation-filters="sRGB">
<feFlood flood-opacity="0" result="BackgroundImageFix"/>
<feBlend mode="normal" in="SourceGraphic" in2="BackgroundImageFix" result="shape"/>
<feGaussianBlur stdDeviation="0.5" result="effect1_foregroundBlur_1996_23495"/>
</filter>
<filter id="filter4_ii_1996_23495" x="32.3276" y="14.6643" width="5.66736" height="5.03687" filterUnits="userSpaceOnUse" color-interpolation-filters="sRGB">
<feFlood flood-opacity="0" result="BackgroundImageFix"/>
<feBlend mode="normal" in="SourceGraphic" in2="BackgroundImageFix" result="shape"/>
<feColorMatrix in="SourceAlpha" type="matrix" values="0 0 0 0 0 0 0 0 0 0 0 0 0 0 0 0 0 0 127 0" result="hardAlpha"/>
<feOffset dx="0.5" dy="-0.5"/>
<feGaussianBlur stdDeviation="0.6"/>
<feComposite in2="hardAlpha" operator="arithmetic" k2="-1" k3="1"/>
<feColorMatrix type="matrix" values="0 0 0 0 0 0 0 0 0 0 0 0 0 0 0 0 0 0 0.4 0"/>
<feBlend mode="normal" in2="shape" result="effect1_innerShadow_1996_23495"/>
<feColorMatrix in="SourceAlpha" type="matrix" values="0 0 0 0 0 0 0 0 0 0 0 0 0 0 0 0 0 0 127 0" result="hardAlpha"/>
<feOffset dx="-0.5" dy="0.5"/>
<feGaussianBlur stdDeviation="0.6"/>
<feComposite in2="hardAlpha" operator="arithmetic" k2="-1" k3="1"/>
<feColorMatrix type="matrix" values="0 0 0 0 1 0 0 0 0 1 0 0 0 0 1 0 0 0 0.6 0"/>
<feBlend mode="normal" in2="effect1_innerShadow_1996_23495" result="effect2_innerShadow_1996_23495"/>
</filter>
<filter id="filter5_ii_1996_23495" x="25.9633" y="33.2726" width="5.76172" height="5.03284" filterUnits="userSpaceOnUse" color-interpolation-filters="sRGB">
<feFlood flood-opacity="0" result="BackgroundImageFix"/>
<feBlend mode="normal" in="SourceGraphic" in2="BackgroundImageFix" result="shape"/>
<feColorMatrix in="SourceAlpha" type="matrix" values="0 0 0 0 0 0 0 0 0 0 0 0 0 0 0 0 0 0 127 0" result="hardAlpha"/>
<feOffset dx="0.5" dy="-0.5"/>
<feGaussianBlur stdDeviation="0.6"/>
<feComposite in2="hardAlpha" operator="arithmetic" k2="-1" k3="1"/>
<feColorMatrix type="matrix" values="0 0 0 0 0 0 0 0 0 0 0 0 0 0 0 0 0 0 0.4 0"/>
<feBlend mode="normal" in2="shape" result="effect1_innerShadow_1996_23495"/>
<feColorMatrix in="SourceAlpha" type="matrix" values="0 0 0 0 0 0 0 0 0 0 0 0 0 0 0 0 0 0 127 0" result="hardAlpha"/>
<feOffset dx="-0.5" dy="0.5"/>
<feGaussianBlur stdDeviation="0.6"/>
<feComposite in2="hardAlpha" operator="arithmetic" k2="-1" k3="1"/>
<feColorMatrix type="matrix" values="0 0 0 0 1 0 0 0 0 1 0 0 0 0 1 0 0 0 0.6 0"/>
<feBlend mode="normal" in2="effect1_innerShadow_1996_23495" result="effect2_innerShadow_1996_23495"/>
</filter>
<filter id="filter6_ii_1996_23495" x="38.9209" y="26.9791" width="3.76135" height="3.31927" filterUnits="userSpaceOnUse" color-interpolation-filters="sRGB">
<feFlood flood-opacity="0" result="BackgroundImageFix"/>
<feBlend mode="normal" in="SourceGraphic" in2="BackgroundImageFix" result="shape"/>
<feColorMatrix in="SourceAlpha" type="matrix" values="0 0 0 0 0 0 0 0 0 0 0 0 0 0 0 0 0 0 127 0" result="hardAlpha"/>
<feOffset dx="0.5" dy="-0.5"/>
<feGaussianBlur stdDeviation="0.6"/>
<feComposite in2="hardAlpha" operator="arithmetic" k2="-1" k3="1"/>
<feColorMatrix type="matrix" values="0 0 0 0 0 0 0 0 0 0 0 0 0 0 0 0 0 0 0.4 0"/>
<feBlend mode="normal" in2="shape" result="effect1_innerShadow_1996_23495"/>
<feColorMatrix in="SourceAlpha" type="matrix" values="0 0 0 0 0 0 0 0 0 0 0 0 0 0 0 0 0 0 127 0" result="hardAlpha"/>
<feOffset dx="-0.5" dy="0.5"/>
<feGaussianBlur stdDeviation="0.6"/>
<feComposite in2="hardAlpha" operator="arithmetic" k2="-1" k3="1"/>
<feColorMatrix type="matrix" values="0 0 0 0 1 0 0 0 0 1 0 0 0 0 1 0 0 0 0.6 0"/>
<feBlend mode="normal" in2="effect1_innerShadow_1996_23495" result="effect2_innerShadow_1996_23495"/>
</filter>
<filter id="filter7_ii_1996_23495" x="27.9904" y="41.9949" width="3.56531" height="3.53424" filterUnits="userSpaceOnUse" color-interpolation-filters="sRGB">
<feFlood flood-opacity="0" result="BackgroundImageFix"/>
<feBlend mode="normal" in="SourceGraphic" in2="BackgroundImageFix" result="shape"/>
<feColorMatrix in="SourceAlpha" type="matrix" values="0 0 0 0 0 0 0 0 0 0 0 0 0 0 0 0 0 0 127 0" result="hardAlpha"/>
<feOffset dx="0.5" dy="-0.5"/>
<feGaussianBlur stdDeviation="0.6"/>
<feComposite in2="hardAlpha" operator="arithmetic" k2="-1" k3="1"/>
<feColorMatrix type="matrix" values="0 0 0 0 0 0 0 0 0 0 0 0 0 0 0 0 0 0 0.4 0"/>
<feBlend mode="normal" in2="shape" result="effect1_innerShadow_1996_23495"/>
<feColorMatrix in="SourceAlpha" type="matrix" values="0 0 0 0 0 0 0 0 0 0 0 0 0 0 0 0 0 0 127 0" result="hardAlpha"/>
<feOffset dx="-0.5" dy="0.5"/>
<feGaussianBlur stdDeviation="0.6"/>
<feComposite in2="hardAlpha" operator="arithmetic" k2="-1" k3="1"/>
<feColorMatrix type="matrix" values="0 0 0 0 1 0 0 0 0 1 0 0 0 0 1 0 0 0 0.6 0"/>
<feBlend mode="normal" in2="effect1_innerShadow_1996_23495" result="effect2_innerShadow_1996_23495"/>
</filter>
<linearGradient id="paint0_linear_1996_23495" x1="11.7755" y1="11.4072" x2="40.2808" y2="19.468" gradientUnits="userSpaceOnUse">
<stop stop-color="#E32900"/>
<stop offset="0.494792" stop-color="#C6E216"/>
<stop offset="1" stop-color="#D808FA"/>
</linearGradient>
<linearGradient id="paint1_linear_1996_23495" x1="34.6068" y1="15.3559" x2="34.633" y2="19.0145" gradientUnits="userSpaceOnUse">
<stop stop-color="#E32900"/>
<stop offset="0.494792" stop-color="#C6E216"/>
<stop offset="1" stop-color="#D808FA"/>
</linearGradient>
<linearGradient id="paint2_linear_1996_23495" x1="27.5304" y1="34.9215" x2="30.2429" y2="37.3768" gradientUnits="userSpaceOnUse">
<stop stop-color="#E32900"/>
<stop offset="0.494792" stop-color="#C6E216"/>
<stop offset="1" stop-color="#D808FA"/>
</linearGradient>
<linearGradient id="paint3_linear_1996_23495" x1="39.3016" y1="27.6388" x2="41.1478" y2="30.408" gradientUnits="userSpaceOnUse">
<stop stop-color="#E32900"/>
<stop offset="0.494792" stop-color="#C6E216"/>
<stop offset="1" stop-color="#D808FA"/>
</linearGradient>
<linearGradient id="paint4_linear_1996_23495" x1="28.273" y1="42.762" x2="30.1192" y2="45.5312" gradientUnits="userSpaceOnUse">
<stop stop-color="#E32900"/>
<stop offset="0.494792" stop-color="#C6E216"/>
<stop offset="1" stop-color="#D808FA"/>
</linearGradient>
</defs>
</svg>
