<svg width="20" height="21" viewBox="0 0 20 21" fill="none" xmlns="http://www.w3.org/2000/svg">
<rect y="0.908997" width="20" height="20" rx="10" fill="#7A6760"/>
<g clip-path="url(#clip0_512_14267)">
<path d="M7.6 7.609V6.409C7.6 6.079 7.7176 5.7964 7.9528 5.5612C8.188 5.326 8.4704 5.2086 8.8 5.209H11.2C11.53 5.209 11.8126 5.3266 12.0478 5.5618C12.283 5.797 12.4004 6.0794 12.4 6.409V7.609H14.8C15.13 7.609 15.4126 7.7266 15.6478 7.9618C15.883 8.197 16.0004 8.4794 16 8.809V11.809H11.8V10.609H8.2V11.809H4V8.809C4 8.479 4.1176 8.1964 4.3528 7.9612C4.588 7.726 4.8704 7.6086 5.2 7.609H7.6ZM8.8 7.609H11.2V6.409H8.8V7.609ZM9.4 13.009V11.809H10.6V13.009H9.4ZM4 13.009H8.2V14.209H11.8V13.009H16V15.409C16 15.739 15.8824 16.0216 15.6472 16.2568C15.412 16.492 15.1296 16.6094 14.8 16.609H5.2C4.87 16.609 4.5874 16.4914 4.3522 16.2562C4.117 16.021 3.9996 15.7386 4 15.409V13.009Z" fill="white"/>
</g>
<defs>
<clipPath id="clip0_512_14267">
<rect width="12" height="12" fill="white" transform="translate(4 4.909)"/>
</clipPath>
</defs>
</svg>
