<svg width="20" height="21" viewBox="0 0 20 21" fill="none" xmlns="http://www.w3.org/2000/svg">
<rect y="0.454498" width="20" height="20" rx="10" fill="#55A042"/>
<g clip-path="url(#clip0_489_12115)">
<path d="M15.0106 5.44794C14.5538 4.98578 13.9722 4.6668 13.3369 4.53004C12.7016 4.39327 12.0402 4.44465 11.4337 4.67789C10.8272 4.91112 10.3018 5.3161 9.92182 5.84327C9.54186 6.37043 9.3238 6.99693 9.29432 7.64609L12.8091 11.1609C13.4579 11.1314 14.084 10.9136 14.611 10.5341C15.1379 10.1545 15.5429 9.62969 15.7764 9.0237C16.01 8.41772 16.0619 7.75683 15.9259 7.12181C15.7899 6.48679 15.4718 5.90514 15.0106 5.44794ZM6.7013 11.3768L4.32752 13.7539C4.11781 13.9637 4 14.2482 4 14.5448C4 14.8414 4.11781 15.1259 4.32752 15.3357L5.11841 16.1266C5.32819 16.3363 5.61267 16.4541 5.90929 16.4541C6.20592 16.4541 6.4904 16.3363 6.70018 16.1266L9.07283 13.7539L11.4466 11.3801L9.07395 9.00748L6.7013 11.3768ZM7.53021 13.7114L6.73933 12.9205L9.07395 10.5893L9.86483 11.3801L7.53021 13.7114Z" fill="white"/>
</g>
<defs>
<clipPath id="clip0_489_12115">
<rect width="12" height="12" fill="white" transform="translate(4 4.4545)"/>
</clipPath>
</defs>
</svg>
