<svg width="25" height="25" viewBox="0 0 25 25" fill="none" xmlns="http://www.w3.org/2000/svg">
<path d="M19.1263 19.1257H5.59674C4.10451 19.1257 2.81125 17.9319 2.81125 16.3402V7.88425C2.81125 6.39202 4.00503 5.19824 5.59674 5.19824H19.2258C20.718 5.19824 22.0112 6.39202 22.0112 7.98373V16.4397C21.9118 17.9319 20.718 19.1257 19.1263 19.1257ZM5.59674 7.28736C5.19881 7.28736 4.99985 7.58581 4.99985 7.98373V16.4397C4.99985 16.8376 5.2983 17.0366 5.69622 17.0366H19.3252C19.7232 17.0366 20.0216 16.7381 20.0216 16.3402V7.88425C20.0216 7.48632 19.7232 7.18788 19.3252 7.18788H5.59674V7.28736ZM8.97912 13.8532V15.5444H15.7439V13.8532H8.97912ZM16.6392 11.2666V12.9578H18.3304V11.2666H16.6392ZM14.0527 11.2666V12.9578H15.7439V11.2666H14.0527ZM11.4662 11.2666V12.9578H13.1574V11.2666H11.4662ZM8.97912 11.2666V12.9578H10.6703V11.2666H8.97912ZM6.3926 11.2666V12.9578H8.08379V11.2666H6.3926ZM16.6392 8.77959V10.4708H18.3304V8.77959H16.6392ZM14.0527 8.77959V10.4708H15.7439V8.77959H14.0527ZM11.4662 8.77959V10.4708H13.1574V8.77959H11.4662ZM8.97912 8.77959V10.4708H10.6703V8.77959H8.97912ZM6.3926 8.77959V10.4708H8.08379V8.77959H6.3926Z" fill="black"/>
</svg>
