<svg width="25" height="25" viewBox="0 0 25 25" fill="none" xmlns="http://www.w3.org/2000/svg">
<path d="M21.9173 2.6557C21.7922 2.53058 21.59 2.53058 21.4648 2.6557L20.2786 3.84194H12.8271L7.93108 8.83106V10.8819H9.533L9.54516 13.1219H11.4511V15.3619H13.3711V16.9629L15.9954 16.9552L20.7311 12.0611V4.29442L21.9173 3.10818C22.0424 2.98306 22.0424 2.78082 21.9173 2.6557ZM17.2111 8.96194C16.3288 8.96194 15.6111 8.24418 15.6111 7.36194C15.6111 6.4797 16.3288 5.76194 17.2111 5.76194C18.0933 5.76194 18.8111 6.4797 18.8111 7.36194C18.8111 8.24418 18.0933 8.96194 17.2111 8.96194Z" fill="black"/>
<path d="M11.7701 16.6419H9.85012V14.4019H7.93012V12.1619H6.01012V10.433L3.14068 13.3363C2.70036 13.7767 2.70036 14.4928 3.14644 14.9386L9.95892 21.4314C10.1717 21.6445 10.4556 21.7619 10.7573 21.7619C11.0584 21.7619 11.3423 21.6448 11.557 21.4301L14.6882 18.2631H11.7701V16.6419Z" fill="black"/>
</svg>
