<svg width="25" height="24" viewBox="0 0 25 24" fill="none" xmlns="http://www.w3.org/2000/svg">
<path d="M21.5326 19.6001L17.6326 10.3001C17.4326 9.8001 16.8326 9.6001 16.4326 9.8001C16.2326 9.9001 16.0326 10.1001 15.9326 10.3001L12.0326 19.6001C11.8326 20.1001 12.0326 20.6001 12.5326 20.8001C13.0326 21.0001 13.5326 20.8001 13.7326 20.3001L14.5326 18.4001H19.0326L19.8326 20.3001C19.9326 20.7001 20.3326 20.9001 20.7326 20.9001C21.2326 20.9001 21.6326 20.5001 21.6326 20.0001C21.6326 19.8001 21.6326 19.7001 21.5326 19.6001ZM15.4326 16.5001L16.8326 13.1001L18.2326 16.5001H15.4326ZM12.5326 15.7001C12.2326 16.1001 11.6326 16.2001 11.2326 15.9001C11.2326 15.9001 10.5326 15.4001 9.53262 14.4001C7.23262 16.9001 5.23262 18.0001 5.13262 18.1001C4.63262 18.3001 4.13262 18.2001 3.83262 17.7001C3.63262 17.2001 3.73262 16.7001 4.23262 16.4001C4.93262 16.0001 6.53262 14.8001 8.23262 12.9001C8.23262 12.9001 8.13262 12.8001 8.13262 12.7001C6.53262 10.6001 5.93262 9.2001 5.83262 9.1001C5.63262 8.6001 5.83262 8.1001 6.33262 7.9001C6.83262 7.7001 7.33262 7.9001 7.53262 8.4001C7.53262 8.4001 8.03262 9.6001 9.43262 11.4001C10.5326 9.7001 11.3326 7.9001 11.7326 6.8001H3.33262C2.83262 6.8001 2.43262 6.4001 2.43262 5.9001C2.43262 5.4001 2.83262 5.0001 3.33262 5.0001H8.33262V4.0001C8.33262 3.5001 8.73262 3.1001 9.23262 3.1001C9.73262 3.1001 10.1326 3.5001 10.1326 4.0001V4.9001H15.1326C15.6326 4.9001 16.0326 5.3001 16.0326 5.8001C16.0326 6.3001 15.6326 6.7001 15.1326 6.7001H13.7326C13.3326 7.9001 12.3326 10.5001 10.6326 12.8001C11.5326 13.8001 12.2326 14.3001 12.2326 14.3001C12.7326 14.7001 12.8326 15.3001 12.5326 15.7001Z" fill="black"/>
</svg>
