<svg width="54" height="54" viewBox="0 0 54 54" fill="none" xmlns="http://www.w3.org/2000/svg">
<g id="device-laptop">
<g id="Vector" filter="url(#filter0_d_7247_40886)">
<path fill-rule="evenodd" clip-rule="evenodd" d="M5.3031 40.1628C5.3031 38.8814 6.34189 37.8426 7.62329 37.8426H45.4093C46.6907 37.8426 47.7295 38.8814 47.7295 40.1628C47.7295 41.4442 46.6907 42.483 45.4093 42.483H7.62329C6.34189 42.483 5.3031 41.4442 5.3031 40.1628Z" fill="black"/>
<path fill-rule="evenodd" clip-rule="evenodd" d="M9.50155 15.0826C9.50155 12.5808 11.5297 10.5527 14.0315 10.5527H39.0012C41.503 10.5527 43.5311 12.5808 43.5311 15.0826V31.6555C43.5311 34.1572 41.503 36.1854 39.0012 36.1854H14.0315C11.5297 36.1854 9.50155 34.1573 9.50155 31.6555V15.0826ZM14.1419 15.1931V31.545H38.8907V15.1931H14.1419Z" fill="black"/>
</g>
</g>
<defs>
<filter id="filter0_d_7247_40886" x="3.3031" y="10.5527" width="46.4264" height="35.9297" filterUnits="userSpaceOnUse" color-interpolation-filters="sRGB">
<feFlood flood-opacity="0" result="BackgroundImageFix"/>
<feColorMatrix in="SourceAlpha" type="matrix" values="0 0 0 0 0 0 0 0 0 0 0 0 0 0 0 0 0 0 127 0" result="hardAlpha"/>
<feOffset dy="2"/>
<feGaussianBlur stdDeviation="1"/>
<feComposite in2="hardAlpha" operator="out"/>
<feColorMatrix type="matrix" values="0 0 0 0 1 0 0 0 0 1 0 0 0 0 1 0 0 0 0.2 0"/>
<feBlend mode="normal" in2="BackgroundImageFix" result="effect1_dropShadow_7247_40886"/>
<feBlend mode="normal" in="SourceGraphic" in2="effect1_dropShadow_7247_40886" result="shape"/>
</filter>
</defs>
</svg>
