<svg width="24" height="24" viewBox="0 0 24 24" fill="none" xmlns="http://www.w3.org/2000/svg">
<path fill-rule="evenodd" clip-rule="evenodd" d="M2.40002 4.4499C2.40002 3.31772 3.31784 2.3999 4.45002 2.3999H8.86253C9.99471 2.3999 10.9125 3.31772 10.9125 4.4499V8.8624C10.9125 9.99459 9.99471 10.9124 8.86252 10.9124H4.45002C3.31784 10.9124 2.40002 9.99459 2.40002 8.8624V4.4499ZM4.50002 4.4999V8.8124H8.81252V4.4999H4.50002Z" fill="black"/>
<path fill-rule="evenodd" clip-rule="evenodd" d="M13.0875 4.4499C13.0875 3.31772 14.0053 2.3999 15.1375 2.3999H19.55C20.6822 2.3999 21.6 3.31772 21.6 4.4499V8.8624C21.6 9.99459 20.6822 10.9124 19.55 10.9124H15.1375C14.0053 10.9124 13.0875 9.99459 13.0875 8.8624V4.4499ZM15.1875 4.4999V8.8124H19.5V4.4999H15.1875Z" fill="black"/>
<path fill-rule="evenodd" clip-rule="evenodd" d="M2.40002 15.1374C2.40002 14.0052 3.31784 13.0874 4.45002 13.0874H8.86253C9.99471 13.0874 10.9125 14.0052 10.9125 15.1374V19.5499C10.9125 20.6821 9.99471 21.5999 8.86252 21.5999H4.45002C3.31784 21.5999 2.40002 20.6821 2.40002 19.5499V15.1374ZM4.50002 15.1874V19.4999H8.81252V15.1874H4.50002Z" fill="black"/>
<path fill-rule="evenodd" clip-rule="evenodd" d="M13.0875 15.1374C13.0875 14.0052 14.0053 13.0874 15.1375 13.0874H19.55C20.6822 13.0874 21.6 14.0052 21.6 15.1374V19.5499C21.6 20.6821 20.6822 21.5999 19.55 21.5999H15.1375C14.0053 21.5999 13.0875 20.6821 13.0875 19.5499V15.1374ZM15.1875 15.1874V19.4999H19.5V15.1874H15.1875Z" fill="black"/>
</svg>
