<svg width="24" height="24" viewBox="0 0 24 24" fill="none" xmlns="http://www.w3.org/2000/svg">
    <path fill-rule="evenodd" clip-rule="evenodd" d="M11.9999 2.3999C6.69797 2.3999 2.3999 6.69797 2.3999 11.9999C2.3999 17.3018 6.69797 21.5999 11.9999 21.5999C17.3018 21.5999 21.5999 17.3018 21.5999 11.9999C21.5999 6.69797 17.3018 2.3999 11.9999 2.3999ZM4.51516 11.9999C4.51516 10.3145 5.07223 8.7592 6.01228 7.50809L7.90154 9.39735C7.42291 10.1495 7.14565 11.0423 7.14565 11.9999C7.14565 12.9575 7.42292 13.8503 7.90156 14.6024L6.01228 16.4917C5.07223 15.2406 4.51516 13.6853 4.51516 11.9999ZM9.39723 7.90162L7.50798 6.01237C8.7591 5.07226 10.3144 4.51516 11.9999 4.51516C13.6853 4.51516 15.2407 5.07224 16.4918 6.01233L14.6025 7.9016C13.8503 7.42294 12.9575 7.14565 11.9999 7.14565C11.0423 7.14565 10.1494 7.42295 9.39723 7.90162ZM16.0982 9.39732C16.5769 10.1495 16.8541 11.0423 16.8541 11.9999C16.8541 12.9575 16.5768 13.8503 16.0982 14.6025L17.9875 16.4918C18.9276 15.2407 19.4846 13.6853 19.4846 11.9999C19.4846 10.3145 18.9276 8.75915 17.9875 7.50804L16.0982 9.39732ZM7.50798 17.9874C8.75911 18.9275 10.3144 19.4846 11.9999 19.4846C13.6853 19.4846 15.2407 18.9276 16.4918 17.9875L14.6025 16.0982C13.8503 16.5768 12.9575 16.8541 11.9999 16.8541C11.0423 16.8541 10.1494 16.5768 9.39726 16.0982L7.50798 17.9874ZM9.2609 11.9999C9.2609 10.4872 10.4872 9.2609 11.9999 9.2609C13.5126 9.2609 14.7389 10.4872 14.7389 11.9999C14.7389 13.5126 13.5126 14.7389 11.9999 14.7389C10.4872 14.7389 9.2609 13.5126 9.2609 11.9999Z" fill="black"/>
</svg>
