<?xml version="1.0" encoding="utf-8"?>
<!-- Generator: Adobe Illustrator 22.0.0, SVG Export Plug-In . SVG Version: 6.00 Build 0)  -->
<svg version="1.1" id="Слой_1" xmlns="http://www.w3.org/2000/svg" xmlns:xlink="http://www.w3.org/1999/xlink" x="0px" y="0px"
	 viewBox="0 0 24 24" style="enable-background:new 0 0 24 24;" xml:space="preserve">
<path d="M21.5,4.6L21,4c-0.3-0.3-0.7-0.7-1-1l-0.6-0.5c-4.3-3.3-10.5-3.3-14.8,0L4,3L3,4L2.5,4.6C-0.8,9-0.8,15,2.5,19.4L3,20l1,1
	l0.6,0.5c4.3,3.3,10.5,3.3,14.8,0L20,21l1-1l0.5-0.6C24.8,15,24.8,9,21.5,4.6z M9.6,12.7c-0.5-1.9,1.3-3.6,3.2-3
	c0.9,0.2,1.5,0.8,1.7,1.7c0.1,1.4-0.2,2.7-1.7,3.1c-0.9,0.2-1.9,0.1-2.6-0.6C9.9,13.5,9.7,13.1,9.6,12.7z M12,2
	c2.2,0,4.3,0.7,6.1,2.1l-3.6,3.6c-1.4-1-3.6-1-5,0L5.9,4.1C7.7,2.7,9.8,2,12,2z M4.1,5.9l3.6,3.6c-0.9,1.6-0.9,3.5,0,5.1l-3.6,3.6
	C1.3,14.5,1.3,9.5,4.1,5.9z M12,22c-2.2,0-4.3-0.7-6.1-2.1l3.6-3.6c1.4,0.9,3.6,1,5,0l3.6,3.6C16.3,21.3,14.2,22,12,22z M19.9,18.1
	l-3.6-3.6c0.9-1.6,0.9-3.5,0-5.1l3.6-3.6C22.7,9.5,22.7,14.5,19.9,18.1z"/>
</svg>
