<svg width="60" height="60" viewBox="0 0 60 60" fill="none" xmlns="http://www.w3.org/2000/svg">
<g clip-path="url(#clip0_1995_23248)">
<g filter="url(#filter0_ii_1995_23248)">
<path fill-rule="evenodd" clip-rule="evenodd" d="M25 49C36.598 49 46 39.598 46 28C46 16.402 36.598 7 25 7C13.402 7 4 16.402 4 28C4 39.598 13.402 49 25 49ZM25 40C31.6274 40 37 34.6274 37 28C37 21.3726 31.6274 16 25 16C18.3726 16 13 21.3726 13 28C13 34.6274 18.3726 40 25 40Z" fill="url(#paint0_linear_1995_23248)"/>
</g>
<g filter="url(#filter1_bd_1995_23248)">
<g filter="url(#filter2_ii_1995_23248)">
<path fill-rule="evenodd" clip-rule="evenodd" d="M46.9358 33.4015C46.9358 33.4015 52.3615 41.9871 42.7079 49.7922C35.7894 55.3858 13.6885 54.3451 12.4714 41.2066C11.2543 28.068 31.4333 26.5721 35.0206 28.068C35.4409 29.5168 36.0161 30.6567 36.575 31.7641C37.4397 33.4777 38.2651 35.1133 38.4158 37.6943C36.1097 33.8569 22.5288 35.0276 22.5288 38.2146C22.5288 41.4016 32.7145 44.1985 38.4158 39.1903C39.2486 38.1496 37.4549 33.0763 36.8784 32.1007C36.8686 32.0841 36.8577 32.0657 36.8457 32.0456C36.1544 30.8805 31.9665 23.8225 36.8784 19.0272C41.6493 14.3694 48.9316 18.6063 49.2453 23.0186C49.8437 23.5602 51.9504 25.2769 54.0571 24.7127C56.5469 24.0459 55.991 25.824 55.6478 26.5649C54.4029 29.158 51.826 31.1229 47.6943 31.2325C47.6943 31.2325 47.2332 31.212 46.6475 31.1094C46.5516 32.6862 46.9358 33.4015 46.9358 33.4015Z" fill="#F3EA6B" fill-opacity="0.5"/>
</g>
<g filter="url(#filter3_ii_1995_23248)">
<path d="M47.6943 27.6022C47.6943 24.1941 49.0775 22.8605 49.0775 22.8605C49.0775 22.8605 51.5673 25.3795 54.0571 24.7127C56.5469 24.0459 55.991 25.824 55.6478 26.5649C54.4029 29.1581 51.826 31.1229 47.6943 31.2326C47.6943 31.2326 44.3745 31.0844 44.2362 29.6026C44.0979 28.1208 47.6943 29.3062 47.6943 27.6022Z" fill="#D808FA"/>
</g>
<g filter="url(#filter4_ii_1995_23248)">
<circle cx="1.67442" cy="1.67442" r="1.67442" transform="matrix(-1 0 0 1 45.0696 22.0233)" fill="white" fill-opacity="0.01"/>
</g>
<g filter="url(#filter5_f_1995_23248)">
<path d="M17.2215 34.0797C21.982 31.1424 25.0343 29.4687 34.4354 29.674" stroke="url(#paint1_linear_1995_23248)"/>
</g>
<g filter="url(#filter6_f_1995_23248)">
<path d="M37.771 44.3161C32.623 46.5044 29.3538 47.7001 20.0904 46.0837" stroke="url(#paint2_linear_1995_23248)"/>
</g>
</g>
<g filter="url(#filter7_f_1995_23248)">
<ellipse cx="1.11756" cy="2.57944" rx="1.11756" ry="2.57944" transform="matrix(0.368041 -0.92981 0.912791 0.408428 40.8958 19.4291)" fill="white"/>
</g>
<g filter="url(#filter8_f_1995_23248)">
<ellipse cx="0.840292" cy="2.02276" rx="0.840292" ry="2.02276" transform="matrix(0.368041 -0.92981 0.912791 0.408428 47.9529 25.1974)" fill="white"/>
</g>
</g>
<defs>
<filter id="filter0_ii_1995_23248" x="2" y="5" width="46" height="46" filterUnits="userSpaceOnUse" color-interpolation-filters="sRGB">
<feFlood flood-opacity="0" result="BackgroundImageFix"/>
<feBlend mode="normal" in="SourceGraphic" in2="BackgroundImageFix" result="shape"/>
<feColorMatrix in="SourceAlpha" type="matrix" values="0 0 0 0 0 0 0 0 0 0 0 0 0 0 0 0 0 0 127 0" result="hardAlpha"/>
<feOffset dx="2" dy="-2"/>
<feGaussianBlur stdDeviation="1.5"/>
<feComposite in2="hardAlpha" operator="arithmetic" k2="-1" k3="1"/>
<feColorMatrix type="matrix" values="0 0 0 0 0 0 0 0 0 0 0 0 0 0 0 0 0 0 0.4 0"/>
<feBlend mode="normal" in2="shape" result="effect1_innerShadow_1995_23248"/>
<feColorMatrix in="SourceAlpha" type="matrix" values="0 0 0 0 0 0 0 0 0 0 0 0 0 0 0 0 0 0 127 0" result="hardAlpha"/>
<feOffset dx="-2" dy="2"/>
<feGaussianBlur stdDeviation="1.5"/>
<feComposite in2="hardAlpha" operator="arithmetic" k2="-1" k3="1"/>
<feColorMatrix type="matrix" values="0 0 0 0 1 0 0 0 0 1 0 0 0 0 1 0 0 0 0.6 0"/>
<feBlend mode="normal" in2="effect1_innerShadow_1995_23248" result="effect2_innerShadow_1995_23248"/>
</filter>
<filter id="filter1_bd_1995_23248" x="-4.63405" y="5.63161" width="70.061" height="62.5263" filterUnits="userSpaceOnUse" color-interpolation-filters="sRGB">
<feFlood flood-opacity="0" result="BackgroundImageFix"/>
<feGaussianBlur in="BackgroundImageFix" stdDeviation="1.42105"/>
<feComposite in2="SourceAlpha" operator="in" result="effect1_backgroundBlur_1995_23248"/>
<feColorMatrix in="SourceAlpha" type="matrix" values="0 0 0 0 0 0 0 0 0 0 0 0 0 0 0 0 0 0 127 0" result="hardAlpha"/>
<feOffset dx="-3.78947" dy="1.89474"/>
<feGaussianBlur stdDeviation="6.63158"/>
<feComposite in2="hardAlpha" operator="out"/>
<feColorMatrix type="matrix" values="0 0 0 0 0 0 0 0 0 0 0 0 0 0 0 0 0 0 0.2 0"/>
<feBlend mode="normal" in2="effect1_backgroundBlur_1995_23248" result="effect2_dropShadow_1995_23248"/>
<feBlend mode="normal" in="SourceGraphic" in2="effect2_dropShadow_1995_23248" result="shape"/>
</filter>
<filter id="filter2_ii_1995_23248" x="10.5238" y="15.1053" width="47.3241" height="39.7895" filterUnits="userSpaceOnUse" color-interpolation-filters="sRGB">
<feFlood flood-opacity="0" result="BackgroundImageFix"/>
<feBlend mode="normal" in="SourceGraphic" in2="BackgroundImageFix" result="shape"/>
<feColorMatrix in="SourceAlpha" type="matrix" values="0 0 0 0 0 0 0 0 0 0 0 0 0 0 0 0 0 0 127 0" result="hardAlpha"/>
<feOffset dx="1.89474" dy="-1.89474"/>
<feGaussianBlur stdDeviation="1.42105"/>
<feComposite in2="hardAlpha" operator="arithmetic" k2="-1" k3="1"/>
<feColorMatrix type="matrix" values="0 0 0 0 0 0 0 0 0 0 0 0 0 0 0 0 0 0 0.4 0"/>
<feBlend mode="normal" in2="shape" result="effect1_innerShadow_1995_23248"/>
<feColorMatrix in="SourceAlpha" type="matrix" values="0 0 0 0 0 0 0 0 0 0 0 0 0 0 0 0 0 0 127 0" result="hardAlpha"/>
<feOffset dx="-1.89474" dy="1.89474"/>
<feGaussianBlur stdDeviation="1.42105"/>
<feComposite in2="hardAlpha" operator="arithmetic" k2="-1" k3="1"/>
<feColorMatrix type="matrix" values="0 0 0 0 1 0 0 0 0 1 0 0 0 0 1 0 0 0 0.6 0"/>
<feBlend mode="normal" in2="effect1_innerShadow_1995_23248" result="effect2_innerShadow_1995_23248"/>
</filter>
<filter id="filter3_ii_1995_23248" x="43.3951" y="22.0233" width="13.3954" height="10.0465" filterUnits="userSpaceOnUse" color-interpolation-filters="sRGB">
<feFlood flood-opacity="0" result="BackgroundImageFix"/>
<feBlend mode="normal" in="SourceGraphic" in2="BackgroundImageFix" result="shape"/>
<feColorMatrix in="SourceAlpha" type="matrix" values="0 0 0 0 0 0 0 0 0 0 0 0 0 0 0 0 0 0 127 0" result="hardAlpha"/>
<feOffset dx="0.837209" dy="-0.837209"/>
<feGaussianBlur stdDeviation="0.837209"/>
<feComposite in2="hardAlpha" operator="arithmetic" k2="-1" k3="1"/>
<feColorMatrix type="matrix" values="0 0 0 0 0 0 0 0 0 0 0 0 0 0 0 0 0 0 0.32 0"/>
<feBlend mode="normal" in2="shape" result="effect1_innerShadow_1995_23248"/>
<feColorMatrix in="SourceAlpha" type="matrix" values="0 0 0 0 0 0 0 0 0 0 0 0 0 0 0 0 0 0 127 0" result="hardAlpha"/>
<feOffset dx="-0.837209" dy="0.837209"/>
<feGaussianBlur stdDeviation="0.837209"/>
<feComposite in2="hardAlpha" operator="arithmetic" k2="-1" k3="1"/>
<feColorMatrix type="matrix" values="0 0 0 0 1 0 0 0 0 1 0 0 0 0 1 0 0 0 0.5 0"/>
<feBlend mode="normal" in2="effect1_innerShadow_1995_23248" result="effect2_innerShadow_1995_23248"/>
</filter>
<filter id="filter4_ii_1995_23248" x="41.3021" y="21.6046" width="4.18609" height="4.18606" filterUnits="userSpaceOnUse" color-interpolation-filters="sRGB">
<feFlood flood-opacity="0" result="BackgroundImageFix"/>
<feBlend mode="normal" in="SourceGraphic" in2="BackgroundImageFix" result="shape"/>
<feColorMatrix in="SourceAlpha" type="matrix" values="0 0 0 0 0 0 0 0 0 0 0 0 0 0 0 0 0 0 127 0" result="hardAlpha"/>
<feOffset dx="0.418605" dy="-0.418605"/>
<feGaussianBlur stdDeviation="0.502326"/>
<feComposite in2="hardAlpha" operator="arithmetic" k2="-1" k3="1"/>
<feColorMatrix type="matrix" values="0 0 0 0 0 0 0 0 0 0 0 0 0 0 0 0 0 0 0.4 0"/>
<feBlend mode="normal" in2="shape" result="effect1_innerShadow_1995_23248"/>
<feColorMatrix in="SourceAlpha" type="matrix" values="0 0 0 0 0 0 0 0 0 0 0 0 0 0 0 0 0 0 127 0" result="hardAlpha"/>
<feOffset dx="-0.418605" dy="0.418605"/>
<feGaussianBlur stdDeviation="0.502326"/>
<feComposite in2="hardAlpha" operator="arithmetic" k2="-1" k3="1"/>
<feColorMatrix type="matrix" values="0 0 0 0 1 0 0 0 0 1 0 0 0 0 1 0 0 0 0.6 0"/>
<feBlend mode="normal" in2="effect1_innerShadow_1995_23248" result="effect2_innerShadow_1995_23248"/>
</filter>
<filter id="filter5_f_1995_23248" x="14.459" y="26.6571" width="22.4873" height="10.3482" filterUnits="userSpaceOnUse" color-interpolation-filters="sRGB">
<feFlood flood-opacity="0" result="BackgroundImageFix"/>
<feBlend mode="normal" in="SourceGraphic" in2="BackgroundImageFix" result="shape"/>
<feGaussianBlur stdDeviation="1.25" result="effect1_foregroundBlur_1995_23248"/>
</filter>
<filter id="filter6_f_1995_23248" x="17.5045" y="41.3559" width="22.962" height="8.47528" filterUnits="userSpaceOnUse" color-interpolation-filters="sRGB">
<feFlood flood-opacity="0" result="BackgroundImageFix"/>
<feBlend mode="normal" in="SourceGraphic" in2="BackgroundImageFix" result="shape"/>
<feGaussianBlur stdDeviation="1.25" result="effect1_foregroundBlur_1995_23248"/>
</filter>
<filter id="filter7_f_1995_23248" x="39.271" y="15.9638" width="8.78113" height="6.9595" filterUnits="userSpaceOnUse" color-interpolation-filters="sRGB">
<feFlood flood-opacity="0" result="BackgroundImageFix"/>
<feBlend mode="normal" in="SourceGraphic" in2="BackgroundImageFix" result="shape"/>
<feGaussianBlur stdDeviation="1" result="effect1_foregroundBlur_1995_23248"/>
</filter>
<filter id="filter8_f_1995_23248" x="46.2361" y="22.1051" width="7.74475" height="6.2742" filterUnits="userSpaceOnUse" color-interpolation-filters="sRGB">
<feFlood flood-opacity="0" result="BackgroundImageFix"/>
<feBlend mode="normal" in="SourceGraphic" in2="BackgroundImageFix" result="shape"/>
<feGaussianBlur stdDeviation="1" result="effect1_foregroundBlur_1995_23248"/>
</filter>
<linearGradient id="paint0_linear_1995_23248" x1="4" y1="7" x2="46" y2="49" gradientUnits="userSpaceOnUse">
<stop stop-color="#E32900"/>
<stop offset="0.494792" stop-color="#C6E216"/>
<stop offset="1" stop-color="#D808FA"/>
</linearGradient>
<linearGradient id="paint1_linear_1995_23248" x1="17.313" y1="34.7358" x2="36.453" y2="30.0985" gradientUnits="userSpaceOnUse">
<stop offset="0.00720951" stop-color="white"/>
<stop offset="1" stop-color="white" stop-opacity="0"/>
</linearGradient>
<linearGradient id="paint2_linear_1995_23248" x1="37.7792" y1="43.6537" x2="18.1596" y2="45.3608" gradientUnits="userSpaceOnUse">
<stop offset="0.00720951" stop-color="white"/>
<stop offset="1" stop-color="white" stop-opacity="0"/>
</linearGradient>
<clipPath id="clip0_1995_23248">
<rect width="60" height="60" fill="white"/>
</clipPath>
</defs>
</svg>
