<svg width="25" height="25" viewBox="0 0 25 25" fill="none" xmlns="http://www.w3.org/2000/svg">
<path fill-rule="evenodd" clip-rule="evenodd" d="M12.4112 2.56201C7.10922 2.56201 2.81116 6.86008 2.81116 12.162C2.81116 17.4639 7.10922 21.762 12.4112 21.762C17.7131 21.762 22.0112 17.4639 22.0112 12.162C22.0112 6.86008 17.7131 2.56201 12.4112 2.56201ZM4.92641 12.162C4.92641 10.4766 5.48348 8.92131 6.42354 7.6702L8.3128 9.55946C7.83417 10.3116 7.5569 11.2044 7.5569 12.162C7.5569 13.1196 7.83418 14.0124 8.31281 14.7646L6.42354 16.6538C5.48348 15.4027 4.92641 13.8474 4.92641 12.162ZM9.80849 8.06373L7.91923 6.17448C9.17036 5.23437 10.7257 4.67727 12.4112 4.67727C14.0966 4.67727 15.6519 5.23435 16.903 6.17444L15.0138 8.06371C14.2616 7.58505 13.3687 7.30776 12.4111 7.30776C11.4535 7.30776 10.5607 7.58505 9.80849 8.06373ZM16.5095 9.55943C16.9881 10.3116 17.2654 11.2044 17.2654 12.162C17.2654 13.1196 16.9881 14.0124 16.5094 14.7646L18.3987 16.6539C19.3388 15.4028 19.8959 13.8474 19.8959 12.162C19.8959 10.4766 19.3388 8.92126 18.3987 7.67015L16.5095 9.55943ZM7.91924 18.1496C9.17036 19.0897 10.7257 19.6468 12.4112 19.6468C14.0966 19.6468 15.6519 19.0897 16.903 18.1496L15.0137 16.2603C14.2616 16.739 13.3687 17.0162 12.4111 17.0162C11.4535 17.0162 10.5607 16.7389 9.80851 16.2603L7.91924 18.1496ZM9.67216 12.162C9.67216 10.6493 10.8984 9.42301 12.4111 9.42301C13.9238 9.42301 15.1501 10.6493 15.1501 12.162C15.1501 13.6747 13.9238 14.901 12.4111 14.901C10.8984 14.901 9.67216 13.6747 9.67216 12.162Z" fill="black"/>
</svg>
