<svg width="24" height="24" viewBox="0 0 24 24" fill="none" xmlns="http://www.w3.org/2000/svg">
<path d="M11.9999 2.40002C6.6999 2.40002 2.3999 6.70002 2.3999 12C2.3999 17.3 6.6999 21.6 11.9999 21.6C17.2999 21.6 21.5999 17.3 21.5999 12C21.5999 6.70002 17.2999 2.40002 11.9999 2.40002ZM11.9999 4.50002C13.6999 4.50002 15.1999 5.00002 16.4999 6.00002L14.5999 7.90002C13.7999 7.40002 12.9999 7.20002 11.9999 7.20002C10.9999 7.20002 10.1999 7.50002 9.3999 8.00002L7.4999 6.00002C8.7999 5.10002 10.2999 4.50002 11.9999 4.50002ZM14.6999 12C14.6999 13.5 13.4999 14.7 11.9999 14.7C10.4999 14.7 9.2999 13.5 9.2999 12C9.2999 10.5 10.4999 9.30002 11.9999 9.30002C13.4999 9.30002 14.6999 10.5 14.6999 12ZM4.4999 12C4.4999 10.3 4.9999 8.80002 5.9999 7.50002L7.8999 9.40002C7.3999 10.2 7.1999 11 7.1999 12C7.1999 13 7.4999 13.8 7.9999 14.6L5.9999 16.5C5.0999 15.2 4.4999 13.7 4.4999 12ZM11.9999 19.5C10.2999 19.5 8.7999 19 7.4999 18L9.3999 16.1C10.1999 16.6 10.9999 16.9 11.9999 16.9C12.9999 16.9 13.7999 16.6 14.5999 16.1L16.4999 18C15.1999 18.9 13.6999 19.5 11.9999 19.5ZM17.9999 16.5L16.0999 14.6C16.5999 13.8 16.8999 13 16.8999 12C16.8999 11 16.5999 10.2 16.0999 9.40002L17.9999 7.50002C18.8999 8.80002 19.4999 10.3 19.4999 12C19.4999 13.7 18.8999 15.2 17.9999 16.5Z" fill="black"/>
</svg>
