<svg width="24" height="24" viewBox="0 0 24 24" fill="none" xmlns="http://www.w3.org/2000/svg">
<path fill-rule="evenodd" clip-rule="evenodd" d="M6.9692 5.14688C6.9692 4.57647 7.43161 4.11406 8.00202 4.11406H20.5672C21.1376 4.11406 21.6 4.57647 21.6 5.14688C21.6 5.71729 21.1376 6.1797 20.5672 6.1797H8.00202C7.43161 6.1797 6.9692 5.71729 6.9692 5.14688Z" fill="black"/>
<path fill-rule="evenodd" clip-rule="evenodd" d="M6.9692 12.0007C6.9692 11.4303 7.43161 10.9679 8.00202 10.9679H20.5672C21.1376 10.9679 21.6 11.4303 21.6 12.0007C21.6 12.5712 21.1376 13.0336 20.5672 13.0336H8.00202C7.43161 13.0336 6.9692 12.5712 6.9692 12.0007Z" fill="black"/>
<path fill-rule="evenodd" clip-rule="evenodd" d="M6.9692 18.8545C6.9692 18.2841 7.43161 17.8217 8.00202 17.8217H20.5672C21.1376 17.8217 21.6 18.2841 21.6 18.8545C21.6 19.4249 21.1376 19.8873 20.5672 19.8873H8.00202C7.43161 19.8873 6.9692 19.4249 6.9692 18.8545Z" fill="black"/>
<path fill-rule="evenodd" clip-rule="evenodd" d="M3.43284 4.11401C4.00325 4.11401 4.46566 4.57642 4.46566 5.14683V5.15826C4.46566 5.72867 4.00325 6.19108 3.43284 6.19108C2.86243 6.19108 2.40002 5.72867 2.40002 5.15826V5.14683C2.40002 4.57642 2.86243 4.11401 3.43284 4.11401Z" fill="black"/>
<path fill-rule="evenodd" clip-rule="evenodd" d="M3.43284 10.9678C4.00325 10.9678 4.46566 11.4302 4.46566 12.0006V12.012C4.46566 12.5824 4.00325 13.0448 3.43284 13.0448C2.86243 13.0448 2.40002 12.5824 2.40002 12.012V12.0006C2.40002 11.4302 2.86243 10.9678 3.43284 10.9678Z" fill="black"/>
<path fill-rule="evenodd" clip-rule="evenodd" d="M3.43284 17.8215C4.00325 17.8215 4.46566 18.284 4.46566 18.8544V18.8658C4.46566 19.4362 4.00325 19.8986 3.43284 19.8986C2.86243 19.8986 2.40002 19.4362 2.40002 18.8658V18.8544C2.40002 18.284 2.86243 17.8215 3.43284 17.8215Z" fill="black"/>
</svg>
