<svg width="24" height="24" viewBox="0 0 24 24" fill="none" xmlns="http://www.w3.org/2000/svg">
<path fill-rule="evenodd" clip-rule="evenodd" d="M19.9844 2.47442L3.48655 8.432C3.45525 8.4433 3.42445 8.45589 3.3942 8.46975C2.78835 8.74739 2.3999 9.35269 2.3999 10.0191C2.3999 10.6768 2.77818 11.2749 3.37036 11.5574L9.4185 14.5814L12.4426 20.6296C12.725 21.2217 13.3231 21.6 13.9808 21.6C14.6472 21.6 15.2525 21.2116 15.5302 20.6057C15.544 20.5755 15.5566 20.5447 15.5679 20.5134L21.5255 4.01538C21.5479 3.95477 21.5654 3.89229 21.5779 3.82855C21.6046 3.69148 21.6065 3.55373 21.5863 3.42073C21.5723 3.32867 21.5476 3.23888 21.5132 3.15314C21.451 2.99822 21.3599 2.863 21.2482 2.75152C21.1368 2.63996 21.0016 2.54884 20.8468 2.48677C20.7756 2.45817 20.7017 2.43634 20.626 2.42172C20.4895 2.39534 20.3524 2.39348 20.22 2.41364C20.1393 2.42592 20.0604 2.44637 19.9844 2.47442ZM18.4027 5.59727L5.86885 10.1234L10.8496 12.6137C11.0818 12.7298 11.2701 12.9181 11.3862 13.1504L13.8766 18.1311L18.4027 5.59727Z" fill="black"/>
</svg>
