<svg width="18" height="19" viewBox="0 0 18 19" fill="none" xmlns="http://www.w3.org/2000/svg">
<path d="M12.2083 16.2574C12.2083 16.7074 11.8313 17.0836 11.3803 17.0836H5.81976C4.0896 17.0836 2.73647 15.7336 2.66248 14.0848V3.50977C2.66248 3.05977 3.03952 2.68359 3.49056 2.68359H11.3838C11.8348 2.68359 12.2119 3.13359 12.2119 3.50977C12.2119 3.88594 11.8313 4.25859 11.3803 4.25859H4.31512V14.0074C4.31512 14.7562 4.91768 15.4312 5.74224 15.4312H11.3803C11.8313 15.4348 12.2083 15.8074 12.2083 16.2574ZM14.6644 9.13477H8.80086L9.77694 8.16094C10.0765 7.86211 10.0765 7.33477 9.77694 7.03594C9.47742 6.65977 8.94886 6.65977 8.64934 7.03594L6.32014 9.35977C6.32014 9.35977 6.01005 9.74297 6.00652 9.89414C5.99947 10.2633 6.24614 10.4109 6.32014 10.4848C6.90156 11.0648 8.64934 12.8086 8.64934 12.8086C8.80086 12.9598 9.02638 13.0336 9.17438 13.0336C9.32238 13.0336 9.55142 12.9598 9.69942 12.8086C9.99894 12.5098 9.99894 11.9824 9.69942 11.6836L8.72334 10.7098H14.6609C15.1119 10.7098 15.341 10.4074 15.3374 9.88359C15.3374 9.42656 15.0379 9.13477 14.6644 9.13477Z" fill="white"/>
</svg>
