<?xml version="1.0" encoding="utf-8"?>
<!-- Generator: Adobe Illustrator 22.0.0, SVG Export Plug-In . SVG Version: 6.00 Build 0)  -->
<svg version="1.1" id="Слой_1" xmlns="http://www.w3.org/2000/svg" xmlns:xlink="http://www.w3.org/1999/xlink" x="0px" y="0px"
	 viewBox="0 0 24 24" style="enable-background:new 0 0 24 24;" xml:space="preserve">
<path d="M21.6,7.3c0-0.1,0-0.1,0-0.2c-0.1-1.6-1.4-2.8-3-2.8H5.4c-1.6,0-2.9,1.2-3,2.8c0,0.1,0,0.1,0,0.2c0,0,0,0,0,0.1v9.3
	c0,1.7,1.4,3,3,3h13.1c1.7,0,3-1.4,3-3L21.6,7.3C21.6,7.3,21.6,7.3,21.6,7.3z M5.4,6.4h13.1c0.3,0,0.6,0.2,0.8,0.4L12,11.7L4.7,6.8
	C4.8,6.6,5.1,6.4,5.4,6.4z M19.5,16.7c0,0.5-0.4,0.9-0.9,0.9H5.4c-0.5,0-0.9-0.4-0.9-0.9V9.2l6.9,4.6c0.4,0.2,0.8,0.2,1.2,0l6.9-4.6
	V16.7z"/>
</svg>
