<svg width="25" height="24" viewBox="0 0 25 24" fill="none" xmlns="http://www.w3.org/2000/svg">
<path d="M15.1326 10.7672C15.5326 10.8668 15.8326 10.9664 16.2326 11.1657C16.3326 11.2653 16.4326 11.2653 16.5326 11.3649C16.6326 11.4645 16.6326 11.4645 16.6326 11.6637C16.6326 14.7517 16.6326 17.74 16.6326 20.7283C16.6326 20.8279 16.6326 20.9275 16.5326 20.9275C16.5326 20.9275 16.4326 20.9275 16.4326 21.0271C16.2326 21.1268 16.0326 21.1267 15.8326 21.2264C15.0326 21.4256 14.2326 21.5252 13.4326 21.5252C12.5326 21.6248 11.5326 21.6248 10.6326 21.5252C9.83262 21.4256 9.03262 21.326 8.23262 21.2264C8.03262 21.2264 7.83262 21.1267 7.63262 21.1267C7.53262 21.1267 7.53262 21.0271 7.43262 20.9275C7.43262 20.9275 7.43262 20.8279 7.43262 20.7283C7.43262 17.6404 7.43262 14.652 7.43262 11.7633C7.43262 11.6637 7.43262 11.5641 7.53262 11.4645C7.53262 11.4645 7.63262 11.4645 7.73262 11.3649C8.13262 11.1657 8.63262 10.9664 9.03262 10.8668C9.03262 8.27695 9.03262 5.78667 9.03262 3.19679C9.03262 2.59912 10.8326 2.49951 11.2326 2.3999C11.7326 2.3999 12.3326 2.3999 12.8326 2.3999C13.1326 2.3999 13.4326 2.3999 13.7326 2.49951C14.0326 2.49951 14.2326 2.59912 14.5326 2.69873C14.7326 2.69873 14.9326 2.79835 15.0326 2.89796C15.0326 2.89796 15.1326 2.99757 15.1326 3.09718C15.1326 5.68706 15.0326 8.17733 15.1326 10.7672ZM10.0326 3.09718C9.73262 3.09718 9.73262 3.2964 9.83262 3.39601C9.93262 3.49562 10.0326 3.49562 10.1326 3.49562C10.8326 3.59523 11.4326 3.69484 12.1326 3.69484C12.5326 3.69484 12.9326 3.69484 13.3326 3.59523C13.6326 3.59523 13.9326 3.49562 14.1326 3.39601C14.2326 3.39601 14.3326 3.19679 14.2326 3.09718C14.2326 2.99757 14.1326 2.99757 13.9326 2.99757C13.6326 3.09718 13.4326 3.09718 13.1326 3.19679C12.8326 3.2964 12.4326 3.2964 12.1326 3.2964C12.0326 3.2964 12.0326 3.2964 11.9326 3.2964C11.4326 3.2964 10.7326 3.2964 10.0326 3.09718ZM15.4326 14.2536V19.9314C15.0326 20.031 14.7326 20.031 14.3326 20.1306C13.3326 20.2303 12.3326 20.3299 11.3326 20.2303C10.4326 20.2303 9.53262 20.1306 8.63262 19.9314V14.2536C8.83262 14.154 9.13262 14.154 9.33262 14.154C9.63262 14.154 9.93262 14.154 10.1326 14.154C10.6326 14.154 11.1326 14.154 11.5326 14.154V12.361C11.1326 12.361 10.7326 12.361 10.3326 12.2614C10.0326 12.2614 9.73262 12.1618 9.53262 12.0622C9.43262 12.0622 9.33262 11.9625 9.23262 11.9625C9.13262 11.6637 9.03262 11.5641 9.03262 11.3649C8.73262 11.4645 8.33262 11.5641 8.03262 11.7633V20.3299C9.23262 20.6287 10.4326 20.7283 11.6326 20.7283C12.5326 20.7283 13.3326 20.7283 14.1326 20.6287C14.6326 20.5291 15.1326 20.5291 15.6326 20.4295C15.8326 20.4295 15.9326 20.3299 16.1326 20.3299V11.7633C15.8326 11.6637 15.5326 11.4645 15.1326 11.3649C15.1326 11.5641 14.9326 11.7633 14.7326 11.8629C14.5326 11.9625 14.3326 11.9625 14.1326 12.0622C13.6326 12.1618 13.1326 12.1618 12.5326 12.2614V14.0544C13.3326 14.0544 13.8326 14.0544 14.1326 14.0544C14.3326 14.0544 14.5326 14.0544 14.8326 14.0544C14.9326 14.0544 15.2326 14.154 15.4326 14.2536Z" fill="black"/>
</svg>
