<svg width="24" height="24" viewBox="0 0 24 24" fill="none" xmlns="http://www.w3.org/2000/svg">
<path d="M21.0035 3.1002C20.7051 2.9002 20.3071 2.9002 20.0087 3.1002L14.8356 5.8002L9.56309 3.1002C9.56309 3.1002 9.56308 3.1002 9.4636 3.1002C9.4636 3.1002 9.4636 3.1002 9.36412 3.1002C9.36412 3.0002 9.26464 3.0002 9.16516 3.0002C8.96619 3.0002 8.86671 3.0002 8.76723 3.0002C8.76723 3.0002 8.76723 3.0002 8.66775 3.0002C8.66775 3.0002 8.66775 3.0002 8.56827 3.0002L2.99728 6.1002C2.79832 6.1002 2.69884 6.3002 2.59935 6.5002C2.40039 6.6002 2.40039 6.8002 2.40039 7.0002V20.0002C2.40039 20.4002 2.59935 20.7002 2.8978 20.9002C3.19625 21.1002 3.59417 21.1002 3.89262 20.9002L9.06568 18.2002L14.2387 20.9002C14.2387 20.9002 14.2387 20.9002 14.3382 20.9002C14.3382 20.9002 14.3382 20.9002 14.4377 20.9002C14.6367 21.0002 14.9351 21.0002 15.1341 20.9002C15.1341 20.9002 15.1341 20.9002 15.2336 20.9002C15.2336 20.9002 15.2336 20.9002 15.333 20.9002L21.0035 17.9002C21.3019 17.7002 21.6004 17.4002 21.6004 17.0002V4.0002C21.5009 3.6002 21.3019 3.3002 21.0035 3.1002ZM10.16 5.7002L13.7413 7.6002V18.2002L10.16 16.3002V5.7002ZM4.48951 7.6002L8.07086 5.7002V16.3002L4.48951 18.2002V7.6002ZM19.4118 16.4002L15.8304 18.3002V7.6002L19.4118 5.7002V16.4002Z" fill="#1E293B"/>
</svg>
