<svg width="24" height="24" viewBox="0 0 24 24" fill="none" xmlns="http://www.w3.org/2000/svg">
<path fill-rule="evenodd" clip-rule="evenodd" d="M6.0375 5.1C5.51973 5.1 5.1 5.51973 5.1 6.0375V8.025C5.1 8.6049 4.6299 9.075 4.05 9.075C3.4701 9.075 3 8.6049 3 8.025V6.0375C3 4.35994 4.35994 3 6.0375 3H8.025C8.6049 3 9.075 3.4701 9.075 4.05C9.075 4.6299 8.6049 5.1 8.025 5.1H6.0375Z" fill="url(#paint0_diamond_4223_20071)"/>
<path fill-rule="evenodd" clip-rule="evenodd" d="M4.05 14.925C4.6299 14.925 5.1 15.3951 5.1 15.975V17.9625C5.1 18.4803 5.51973 18.9 6.0375 18.9H8.025C8.6049 18.9 9.075 19.3701 9.075 19.95C9.075 20.5299 8.6049 21 8.025 21H6.0375C4.35994 21 3 19.6401 3 17.9625V15.975C3 15.3951 3.4701 14.925 4.05 14.925Z" fill="url(#paint1_diamond_4223_20071)"/>
<path fill-rule="evenodd" clip-rule="evenodd" d="M14.925 4.05C14.925 3.4701 15.3951 3 15.975 3H17.9625C19.6401 3 21 4.35994 21 6.0375V8.025C21 8.6049 20.5299 9.075 19.95 9.075C19.3701 9.075 18.9 8.6049 18.9 8.025V6.0375C18.9 5.51973 18.4803 5.1 17.9625 5.1H15.975C15.3951 5.1 14.925 4.6299 14.925 4.05Z" fill="url(#paint2_diamond_4223_20071)"/>
<path fill-rule="evenodd" clip-rule="evenodd" d="M19.95 14.925C20.5299 14.925 21 15.3951 21 15.975V17.9625C21 19.6401 19.6401 21 17.9625 21H15.975C15.3951 21 14.925 20.5299 14.925 19.95C14.925 19.3701 15.3951 18.9 15.975 18.9H17.9625C18.4803 18.9 18.9 18.4803 18.9 17.9625V15.975C18.9 15.3951 19.3701 14.925 19.95 14.925Z" fill="url(#paint3_diamond_4223_20071)"/>
<defs>
<radialGradient id="paint0_diamond_4223_20071" cx="0" cy="0" r="1" gradientUnits="userSpaceOnUse" gradientTransform="translate(4.3239 5.93662) rotate(42.0912) scale(22.4722 64.59)">
<stop stop-color="#E32900"/>
<stop offset="0.472959" stop-color="#C6E216"/>
<stop offset="1" stop-color="#D808FA"/>
</radialGradient>
<radialGradient id="paint1_diamond_4223_20071" cx="0" cy="0" r="1" gradientUnits="userSpaceOnUse" gradientTransform="translate(4.3239 5.93662) rotate(42.0912) scale(22.4722 64.59)">
<stop stop-color="#E32900"/>
<stop offset="0.472959" stop-color="#C6E216"/>
<stop offset="1" stop-color="#D808FA"/>
</radialGradient>
<radialGradient id="paint2_diamond_4223_20071" cx="0" cy="0" r="1" gradientUnits="userSpaceOnUse" gradientTransform="translate(4.3239 5.93662) rotate(42.0912) scale(22.4722 64.59)">
<stop stop-color="#E32900"/>
<stop offset="0.472959" stop-color="#C6E216"/>
<stop offset="1" stop-color="#D808FA"/>
</radialGradient>
<radialGradient id="paint3_diamond_4223_20071" cx="0" cy="0" r="1" gradientUnits="userSpaceOnUse" gradientTransform="translate(4.3239 5.93662) rotate(42.0912) scale(22.4722 64.59)">
<stop stop-color="#E32900"/>
<stop offset="0.472959" stop-color="#C6E216"/>
<stop offset="1" stop-color="#D808FA"/>
</radialGradient>
</defs>
</svg>
