<svg width="24" height="24" viewBox="0 0 24 24" fill="none" xmlns="http://www.w3.org/2000/svg">
<path fill-rule="evenodd" clip-rule="evenodd" d="M17.6786 16.4572C17.0041 16.4572 16.4572 17.0041 16.4572 17.6786V19.9501C16.4572 20.53 15.9871 21.0001 15.4072 21.0001C14.8273 21.0001 14.3572 20.53 14.3572 19.9501V17.6786C14.3572 15.8443 15.8443 14.3572 17.6786 14.3572H19.9501C20.53 14.3572 21.0001 14.8273 21.0001 15.4072C21.0001 15.9871 20.53 16.4572 19.9501 16.4572H17.6786Z" fill="url(#paint0_diamond_3809_32423)"/>
<path fill-rule="evenodd" clip-rule="evenodd" d="M15.4072 3C15.9871 3 16.4572 3.4701 16.4572 4.05V6.32143C16.4572 6.99601 17.0041 7.54286 17.6786 7.54286H19.9501C20.53 7.54286 21.0001 8.01296 21.0001 8.59286C21.0001 9.17276 20.53 9.64286 19.9501 9.64286H17.6786C15.8443 9.64286 14.3572 8.1558 14.3572 6.32143V4.05C14.3572 3.4701 14.8273 3 15.4072 3Z" fill="url(#paint1_diamond_3809_32423)"/>
<path fill-rule="evenodd" clip-rule="evenodd" d="M3 15.4072C3 14.8273 3.4701 14.3572 4.05 14.3572H6.32143C8.1558 14.3572 9.64286 15.8443 9.64286 17.6786V19.9501C9.64286 20.53 9.17276 21.0001 8.59286 21.0001C8.01296 21.0001 7.54286 20.53 7.54286 19.9501V17.6786C7.54286 17.0041 6.99601 16.4572 6.32143 16.4572H4.05C3.4701 16.4572 3 15.9871 3 15.4072Z" fill="url(#paint2_diamond_3809_32423)"/>
<path fill-rule="evenodd" clip-rule="evenodd" d="M8.59286 3C9.17276 3 9.64286 3.4701 9.64286 4.05V6.32143C9.64286 8.1558 8.1558 9.64286 6.32143 9.64286H4.05C3.4701 9.64286 3 9.17276 3 8.59286C3 8.01296 3.4701 7.54286 4.05 7.54286H6.32143C6.99601 7.54286 7.54286 6.99601 7.54286 6.32143V4.05C7.54286 3.4701 8.01296 3 8.59286 3Z" fill="url(#paint3_diamond_3809_32423)"/>
<defs>
<radialGradient id="paint0_diamond_3809_32423" cx="0" cy="0" r="1" gradientUnits="userSpaceOnUse" gradientTransform="translate(4.32391 5.93663) rotate(42.0912) scale(22.4722 64.5902)">
<stop stop-color="#E32900"/>
<stop offset="0.472959" stop-color="#C6E216"/>
<stop offset="1" stop-color="#D808FA"/>
</radialGradient>
<radialGradient id="paint1_diamond_3809_32423" cx="0" cy="0" r="1" gradientUnits="userSpaceOnUse" gradientTransform="translate(4.32391 5.93663) rotate(42.0912) scale(22.4722 64.5902)">
<stop stop-color="#E32900"/>
<stop offset="0.472959" stop-color="#C6E216"/>
<stop offset="1" stop-color="#D808FA"/>
</radialGradient>
<radialGradient id="paint2_diamond_3809_32423" cx="0" cy="0" r="1" gradientUnits="userSpaceOnUse" gradientTransform="translate(4.32391 5.93663) rotate(42.0912) scale(22.4722 64.5902)">
<stop stop-color="#E32900"/>
<stop offset="0.472959" stop-color="#C6E216"/>
<stop offset="1" stop-color="#D808FA"/>
</radialGradient>
<radialGradient id="paint3_diamond_3809_32423" cx="0" cy="0" r="1" gradientUnits="userSpaceOnUse" gradientTransform="translate(4.32391 5.93663) rotate(42.0912) scale(22.4722 64.5902)">
<stop stop-color="#E32900"/>
<stop offset="0.472959" stop-color="#C6E216"/>
<stop offset="1" stop-color="#D808FA"/>
</radialGradient>
</defs>
</svg>
