<svg width="24" height="24" viewBox="0 0 24 24" fill="none" xmlns="http://www.w3.org/2000/svg">
<path d="M11.3881 2.41915C8.29991 2.61711 5.49305 4.29456 3.84894 6.92847C2.61951 8.89556 2.14649 11.2752 2.52991 13.5591C2.80497 15.1949 3.46136 16.6639 4.50742 17.985L4.6908 18.2184L18.2208 4.6884L18.1583 4.6363C18.125 4.60713 17.9687 4.48627 17.8124 4.36541C15.9933 2.97136 13.6865 2.27329 11.3881 2.41915ZM9.1251 4.26955C9.28763 4.33207 9.40432 4.43834 9.48351 4.60088L9.55227 4.73841L9.55852 5.33437C9.56894 6.15538 9.5356 6.34501 9.3564 6.50754C9.28346 6.57422 9.26471 6.57839 9.05216 6.60131C8.86254 6.62007 8.80211 6.63465 8.68958 6.693C8.60415 6.73676 8.53538 6.78885 8.50413 6.8347C8.4562 6.90555 8.45412 6.91596 8.46453 7.22228C8.47495 7.58694 8.4687 7.61403 8.32284 7.75156C8.17697 7.88909 8.12488 8.01412 8.12488 8.2225C8.12488 8.33502 8.13946 8.43921 8.16655 8.52882C8.21656 8.68718 8.20823 8.71844 8.08529 8.88306C7.95817 9.05601 7.93734 9.10811 7.93734 9.2769C7.93942 9.46444 7.96234 9.57696 8.02069 9.64573C8.2249 9.89995 8.23323 9.92495 8.15613 10.0708C8.08112 10.2104 8.05611 10.5167 8.11237 10.623C8.13113 10.6584 8.15197 10.7293 8.15822 10.7793C8.16864 10.8543 8.16239 10.8772 8.11863 10.9314C8.04986 11.0127 7.94359 11.0439 7.72687 11.0439C7.52266 11.0439 7.35804 11.0189 7.07882 10.9502C6.78709 10.8772 6.62247 10.796 6.49327 10.6626C6.21613 10.3792 6.15778 9.94579 6.17028 8.26209L6.17654 7.28271L6.23697 7.16185C6.30156 7.02849 6.3224 7.01182 6.76208 6.75551C7.58934 6.27207 7.94984 5.77613 8.2374 4.73007C8.29783 4.51336 8.4562 4.33624 8.66249 4.26122C8.77919 4.21954 9.00215 4.22371 9.1251 4.26955ZM10.8567 6.76802C10.9213 6.79302 10.9984 6.83678 11.0297 6.86595C11.0818 6.91388 11.0839 6.92638 11.0839 7.13268C11.0839 7.37857 11.0714 7.40149 10.8963 7.47859C10.7192 7.55569 10.5671 7.56819 9.76899 7.55985C9.05841 7.55152 9.00215 7.54944 8.89171 7.50776C8.65624 7.42024 8.62499 7.3744 8.62499 7.13059C8.62499 6.93472 8.64999 6.88054 8.77085 6.81386C8.94381 6.72009 9.03549 6.71175 9.91693 6.71592C10.7171 6.72009 10.7442 6.72217 10.8567 6.76802ZM10.988 7.77032C11.0672 7.79949 11.161 7.85158 11.2005 7.88701L11.2714 7.95369V8.45588L11.2089 8.52048C11.1359 8.59341 10.9713 8.65801 10.788 8.68927C10.715 8.69969 10.2941 8.71011 9.83358 8.71011C9.37307 8.71011 8.95214 8.69969 8.87921 8.68927C8.7 8.66009 8.53538 8.5955 8.45828 8.52256L8.39577 8.46422V8.21416C8.39577 7.9266 8.41036 7.89118 8.57498 7.81616C8.78544 7.71614 8.84378 7.71197 9.87526 7.71614C10.8421 7.72031 10.8442 7.72031 10.988 7.77032ZM10.6817 8.88931C10.8651 8.92682 11.0234 8.99975 11.0714 9.06852C11.0964 9.10394 11.1047 9.16854 11.1047 9.33733C11.1047 9.5457 11.1005 9.56654 11.0526 9.6228C10.9922 9.69574 10.8505 9.76033 10.6775 9.79367C10.59 9.81035 10.2628 9.81451 9.60437 9.81034C8.68542 9.80409 8.65208 9.80201 8.51663 9.75617C8.43328 9.72699 8.34784 9.68115 8.302 9.63947L8.22907 9.57071V9.35816C8.22907 9.09561 8.25199 9.0456 8.40202 8.97266C8.61248 8.86847 8.71042 8.86014 9.65229 8.85805C10.3691 8.85597 10.5504 8.86222 10.6817 8.88931ZM10.4691 10.0604C10.6525 10.1458 10.6671 10.1688 10.6671 10.3876C10.6671 10.6105 10.6504 10.6439 10.5046 10.7064C10.3379 10.7772 10.1649 10.7939 9.53143 10.7939C8.89796 10.7939 8.72501 10.7772 8.55831 10.7064C8.41244 10.6439 8.39577 10.6105 8.39577 10.3876C8.39577 10.1771 8.41036 10.1521 8.55622 10.0771C8.68542 10.0125 8.78752 10.0041 9.57311 10.0083C10.3504 10.0125 10.367 10.0125 10.4691 10.0604Z" fill="black"/>
<path d="M5.78062 19.3166L5.84313 19.3687C6.01608 19.5145 6.55787 19.9125 6.77042 20.0501C9.50851 21.8275 12.9989 22.0984 15.9349 20.7606C17.0414 20.2585 17.927 19.6437 18.7834 18.7852C19.642 17.9288 20.2567 17.0432 20.7589 15.9367C22.0717 13.0527 21.8362 9.64364 20.1337 6.91596C19.9608 6.63882 19.5274 6.04077 19.3752 5.8699L19.3044 5.79072L5.78062 19.3166ZM16.6497 12.9944C17.0997 13.0777 17.3477 13.1777 17.5082 13.3424C17.7853 13.6258 17.8437 14.0592 17.8312 15.7429L17.8249 16.7223L17.7645 16.8431C17.6999 16.9765 17.679 16.9932 17.2394 17.2495C16.4142 17.7329 16.0412 18.2413 15.764 19.2749C15.6807 19.5812 15.4286 19.775 15.1139 19.775C14.8076 19.775 14.5596 19.5896 14.4721 19.2957C14.445 19.2041 14.4388 19.0749 14.4388 18.6018C14.4388 17.8225 14.47 17.6558 14.6471 17.4954C14.7159 17.4328 14.743 17.4245 14.8784 17.412C15.1222 17.3891 15.2327 17.362 15.3515 17.2932C15.5348 17.189 15.5473 17.1515 15.5369 16.7848C15.5327 16.6118 15.5369 16.4493 15.5473 16.4201C15.5577 16.393 15.6182 16.3159 15.6807 16.2492C15.7432 16.1846 15.812 16.0909 15.8349 16.0409C15.8912 15.9179 15.8912 15.6595 15.8349 15.4762C15.7849 15.3178 15.7932 15.2865 15.9162 15.1219C16.0433 14.949 16.0641 14.8969 16.0641 14.7281C16.062 14.5405 16.0391 14.428 15.9808 14.3593C15.7765 14.105 15.7682 14.08 15.8453 13.9342C15.9266 13.7779 15.9432 13.507 15.8786 13.359C15.8557 13.3028 15.8349 13.2278 15.8349 13.1923C15.8349 13.1152 15.9099 13.0235 16.0037 12.9902C16.1037 12.9527 16.4454 12.9548 16.6497 12.9944ZM15.2535 13.2403C15.416 13.2757 15.5536 13.3403 15.5848 13.3965C15.5953 13.4195 15.6057 13.5216 15.6057 13.6237C15.6057 13.8362 15.5911 13.8591 15.4077 13.9446C15.3035 13.9925 15.2952 13.9925 14.47 13.9925C13.6448 13.9925 13.6365 13.9925 13.5323 13.9446C13.3489 13.8591 13.3343 13.8362 13.3343 13.6174C13.3343 13.4861 13.3427 13.4153 13.3656 13.3861C13.4031 13.3299 13.5698 13.259 13.7136 13.234C13.9053 13.2028 15.0951 13.2069 15.2535 13.2403ZM15.4973 14.2509C15.5702 14.278 15.6599 14.3301 15.6994 14.3676L15.7724 14.4343V14.8823L15.6932 14.9615C15.639 15.0156 15.5702 15.0552 15.4702 15.0886C15.3285 15.1365 15.3014 15.1365 14.4096 15.1448C13.4114 15.1511 13.2739 15.1407 13.0614 15.0344C12.9113 14.9573 12.8968 14.926 12.8968 14.6677C12.8968 14.4155 12.9176 14.3697 13.0655 14.2926C13.2531 14.1988 13.326 14.1925 14.3762 14.1967C15.3535 14.203 15.3681 14.203 15.4973 14.2509ZM15.1222 15.3157C15.3014 15.3449 15.4661 15.4095 15.5432 15.4824L15.6057 15.5408V15.7887C15.6057 16.0763 15.5953 16.1013 15.4369 16.1805C15.2202 16.2909 15.141 16.2972 14.1074 16.2909C13.1614 16.2847 13.1572 16.2847 13.0134 16.2347C12.9343 16.2055 12.8405 16.1534 12.8009 16.118L12.73 16.0513V15.5491L12.7926 15.4845C12.8634 15.4157 13.0322 15.3449 13.1947 15.3178C13.351 15.2928 14.9639 15.2907 15.1222 15.3157ZM15.1097 16.4972C15.341 16.5847 15.3765 16.6347 15.3765 16.8827C15.3765 17.0682 15.341 17.1349 15.2118 17.1995C15.0389 17.287 14.9034 17.2995 14.0533 17.2911C13.2885 17.2849 13.2572 17.2828 13.1447 17.237C13.0801 17.212 13.003 17.1682 12.9718 17.139C12.9197 17.0911 12.9176 17.0786 12.9176 16.8723C12.9176 16.6327 12.928 16.6139 13.0822 16.5347C13.2447 16.4535 13.3739 16.443 14.1991 16.4472C14.9472 16.4535 14.9972 16.4555 15.1097 16.4972Z" fill="black"/>
</svg>
