<svg width="24" height="24" viewBox="0 0 24 24" fill="none" xmlns="http://www.w3.org/2000/svg">
<path d="M12 2.3999C6.70002 2.3999 2.40002 6.6999 2.40002 11.9999C2.40002 17.2999 6.70002 21.5999 12 21.5999C17.3 21.5999 21.6 17.2999 21.6 11.9999C21.6 6.6999 17.3 2.3999 12 2.3999ZM12 19.4999C7.90002 19.4999 4.50002 16.0999 4.50002 11.9999C4.50002 7.8999 7.90002 4.4999 12 4.4999C16.1 4.4999 19.5 7.8999 19.5 11.9999C19.5 16.0999 16.1 19.4999 12 19.4999ZM8.10002 9.1999C8.10002 8.5999 8.60002 8.1999 9.10002 8.1999C9.70002 8.1999 10.1 8.6999 10.1 9.1999C10.1 9.6999 9.60002 10.1999 9.10002 10.1999C8.60002 10.1999 8.10002 9.6999 8.10002 9.1999ZM13.8 9.1999C13.8 8.5999 14.3 8.1999 14.8 8.1999C15.4 8.1999 15.8 8.6999 15.8 9.1999C15.8 9.6999 15.3 10.1999 14.8 10.1999C14.3 10.1999 13.8 9.6999 13.8 9.1999ZM15.8 11.8999H8.20002C7.60002 11.8999 7.20002 12.3999 7.20002 12.8999C7.20002 15.5999 9.40002 17.6999 12 17.6999C14.6 17.6999 16.9 15.4999 16.9 12.8999C16.9 12.3999 16.4 11.8999 15.8 11.8999ZM12 15.6999C10.9 15.6999 9.90002 14.9999 9.50002 13.9999H14.6C14.1 14.9999 13.1 15.6999 12 15.6999Z" fill="black"/>
</svg>
