<svg width="24" height="24" viewBox="0 0 24 24" fill="none" xmlns="http://www.w3.org/2000/svg">
<path fill-rule="evenodd" clip-rule="evenodd" d="M10.4694 4.64152C7.52489 5.38779 5.23484 7.86773 4.82173 11.0069C4.32505 14.7811 6.69537 18.3401 10.3637 19.328C13.3039 20.1198 16.3485 19.0635 18.192 16.803C15.2565 17.0298 12.3411 15.6437 10.6903 13.0437C9.03965 10.444 9.02146 7.21045 10.4694 4.64152ZM12.4501 2.40754H12.701C13.1134 2.40754 13.4838 2.66051 13.6346 3.04518C13.7854 3.42986 13.6859 3.86783 13.3838 4.14916C11.2126 6.17108 10.7915 9.45837 12.3827 11.9644C13.9738 14.4704 17.1234 15.4804 19.8706 14.3656C20.2454 14.2135 20.6748 14.3019 20.9594 14.5898C21.2441 14.8777 21.3284 15.3088 21.1732 15.6831C19.3292 20.1299 14.4833 22.5192 9.84315 21.2696C5.20298 20.0199 2.2047 15.5181 2.83297 10.744C3.46123 5.96985 7.52158 2.40106 12.3264 2.3999C12.3679 2.39989 12.4093 2.40247 12.4501 2.40754Z" fill="black"/>
</svg>
