<svg width="24" height="24" viewBox="0 0 24 24" fill="none" xmlns="http://www.w3.org/2000/svg">
<path d="M20.052 16.6036C19.9523 16.9033 19.7528 17.2031 19.4537 17.4029C16.8613 19.9009 13.8701 20.0009 11.5768 20.0009C10.0812 20.0009 7.78795 19.2015 6.99029 18.2023C6.79088 21.6995 3.69995 21.5996 3.69995 21.5996V11.2078V10.8081C4.2982 10.5084 5.09585 10.3085 5.89351 10.3085C7.48883 10.3085 8.98444 11.1079 9.68239 12.3069C10.2806 11.9073 10.9786 11.6075 11.7762 11.6075C12.7733 11.6075 13.6707 12.0072 14.2689 12.5068C15.4654 11.4077 15.5651 7.11104 15.3657 6.61144C14.5681 7.91041 12.4742 7.41081 11.7762 7.11104C11.178 6.71136 9.18386 5.31246 11.0783 3.31404C12.9727 1.31562 16.5622 3.1142 17.1604 3.81364C17.7587 4.51309 21.2484 14.1055 20.052 16.6036Z" fill="black"/>
</svg>
