<svg width="60" height="60" viewBox="0 0 60 60" fill="none" xmlns="http://www.w3.org/2000/svg">
<g filter="url(#filter0_ii_1996_23463)">
<path d="M20.0935 9.20511L18.3566 9.59807C17.9068 9.69983 17.6766 10.2011 17.8926 10.6086L19.4394 13.5277C19.7711 14.1537 20.7162 13.9473 20.7568 13.24L20.9468 9.92793C20.9734 9.46319 20.5475 9.10238 20.0935 9.20511Z" fill="url(#paint0_linear_1996_23463)"/>
<path d="M14.5079 10.6515L17.1506 14.9418C17.5126 15.5293 16.8959 16.2307 16.2668 15.947L11.8177 13.9403C11.4025 13.753 11.2739 13.2252 11.5566 12.8679L13.3629 10.5844C13.6645 10.2032 14.2531 10.2377 14.5079 10.6515Z" fill="url(#paint1_linear_1996_23463)"/>
<path d="M11.9637 17.2776L15.4121 18.6798C16.0456 18.9375 15.9717 19.8573 15.3052 20.0105L11.8568 20.8031C11.4183 20.9039 11 20.5708 11 20.1209V17.926C11 17.4291 11.5034 17.0904 11.9637 17.2776Z" fill="url(#paint2_linear_1996_23463)"/>
</g>
<g filter="url(#filter1_bii_1996_23463)">
<path d="M42.1288 46.701C42.1288 46.4943 41.939 46.3995 41.8441 46.378C41.8441 47.7992 31.0718 47.993 31.0718 46.3134C30.6922 46.3134 30.3125 46.5072 30.3125 46.8302L30.3125 54.6759C30.3125 55.1195 30.4658 55.5555 30.8801 55.7143C32.6953 56.4102 38.0392 56.615 40.9496 55.8161C41.7064 55.6084 42.1288 54.8736 42.1288 54.0888L42.1288 46.701Z" fill="#D808FA"/>
</g>
<g filter="url(#filter2_bii_1996_23463)">
<path d="M42.3858 44.4511C41.8721 45.7354 41.8293 46.6559 41.8721 46.9556C42.1931 48.4698 30.8289 49.1973 31.0833 46.9556C31.1255 46.584 31.0405 45.9495 30.9549 45.6712C30.0986 45.0932 28.1421 43.6804 27.166 42.6529C25.9458 41.3685 21.9 39.1851 20.5514 38.0934C19.2029 37.0017 18.5607 35.8457 19.3313 33.7265C19.9478 32.0311 21.6004 32.2067 22.3496 32.5063C24.2333 33.4268 28.5017 34.6898 30.5054 32.3779C32.509 30.066 31.5543 28.1181 30.8265 27.4331C30.698 27.3046 29.9916 26.9964 28.1935 26.7909C26.3954 26.5854 25.3464 27.9468 25.0468 28.6532C24.8541 29.1884 24.4046 30.3743 24.1477 30.8367C23.8266 31.4146 22.8633 32.5063 21.2579 32.2495C19.9735 32.044 19.5239 31.2648 19.4597 30.9009C19.2457 29.167 19.7294 25.0698 23.3771 22.5524C27.0247 20.0351 30.7622 20.8613 32.175 21.5892C31.8968 19.0418 31.3017 13.5361 31.1475 11.8921C30.9549 9.83712 30.7622 7.65368 33.2668 7.07571C35.2704 6.61334 36.285 8.3815 36.5419 9.32337L37.5052 15.4884L37.8263 13.626C38.019 12.5985 38.9309 10.6463 41.0372 11.0573C43.1436 11.4683 43.1993 13.7545 42.9638 14.8462L41.9363 20.6901C42.3644 20.0265 43.3234 18.5324 43.7344 17.8645C44.2482 17.0296 46.0463 15.6168 47.6518 16.6443C49.2572 17.6718 48.6793 19.8553 47.8444 20.8828C47.0096 21.9103 43.4133 28.5248 42.9638 29.4881C42.6042 30.2587 42.6427 30.9223 42.7069 31.1578C42.7283 31.2648 42.8996 32.0568 43.4133 34.3687C44.0555 37.2586 43.028 42.8456 42.3858 44.4511Z" fill="url(#paint3_linear_1996_23463)"/>
</g>
<g filter="url(#filter3_f_1996_23463)">
<path d="M41.3582 26.2771L42.0003 20.6259C42.4499 19.9195 42.5141 19.8553 43.2205 18.6993C44.0425 17.0553 45.2327 16.4731 45.725 16.3875C44.826 21.2467 42.8352 30.7082 42.0646 29.6807C41.2939 28.6532 41.2725 26.9836 41.3582 26.2771Z" fill="url(#paint4_linear_1996_23463)" fill-opacity="0.14"/>
</g>
<g filter="url(#filter4_f_1996_23463)">
<path d="M38.4042 22.424L37.5051 15.36L37.8904 13.4334C38.1987 11.8922 39.3461 11.2072 39.8812 11.0573C39.924 16.4517 39.9198 27.1377 39.5601 26.7267C39.2005 26.3157 38.6397 23.687 38.4042 22.424Z" fill="url(#paint5_linear_1996_23463)" fill-opacity="0.14"/>
</g>
<g filter="url(#filter5_f_1996_23463)">
<path d="M37.3124 25.8918C35.6684 23.3744 33.2024 21.9745 32.1749 21.5891L31.2759 12.9838C33.9731 18.3354 38.9564 28.4092 37.3124 25.8918Z" fill="url(#paint6_linear_1996_23463)" fill-opacity="0.14"/>
</g>
<g filter="url(#filter6_bii_1996_23463)">
<path d="M55.0947 25.2023L47.3534 26.9321C46.9011 27.0332 46.6701 27.5379 46.8892 27.9462L53.7839 40.7967C54.1178 41.419 55.0586 41.2114 55.0995 40.5063L55.9462 25.926C55.9732 25.4619 55.5485 25.1009 55.0947 25.2023Z" fill="white" fill-opacity="0.5"/>
<path d="M37.578 27.9715L47.6296 44.0881C47.9949 44.6739 47.3814 45.3789 46.7508 45.098L29.8285 37.5596C29.4096 37.3729 29.2803 36.8405 29.567 36.4825L36.4377 27.9044C36.7394 27.5277 37.3227 27.5621 37.578 27.9715Z" fill="white" fill-opacity="0.5"/>
<path d="M29.9609 46.4145L44.3721 52.2023C45.009 52.4581 44.9355 53.3826 44.2661 53.5345L29.855 56.8059C29.417 56.9053 29 56.5724 29 56.1233V47.0641C29 46.5684 29.5009 46.2298 29.9609 46.4145Z" fill="white" fill-opacity="0.5"/>
</g>
<defs>
<filter id="filter0_ii_1996_23463" x="10.5" y="8.6875" width="10.948" height="12.6337" filterUnits="userSpaceOnUse" color-interpolation-filters="sRGB">
<feFlood flood-opacity="0" result="BackgroundImageFix"/>
<feBlend mode="normal" in="SourceGraphic" in2="BackgroundImageFix" result="shape"/>
<feColorMatrix in="SourceAlpha" type="matrix" values="0 0 0 0 0 0 0 0 0 0 0 0 0 0 0 0 0 0 127 0" result="hardAlpha"/>
<feOffset dx="-0.5" dy="0.5"/>
<feGaussianBlur stdDeviation="0.6"/>
<feComposite in2="hardAlpha" operator="arithmetic" k2="-1" k3="1"/>
<feColorMatrix type="matrix" values="0 0 0 0 0 0 0 0 0 0 0 0 0 0 0 0 0 0 0.4 0"/>
<feBlend mode="normal" in2="shape" result="effect1_innerShadow_1996_23463"/>
<feColorMatrix in="SourceAlpha" type="matrix" values="0 0 0 0 0 0 0 0 0 0 0 0 0 0 0 0 0 0 127 0" result="hardAlpha"/>
<feOffset dx="0.5" dy="-0.5"/>
<feGaussianBlur stdDeviation="0.6"/>
<feComposite in2="hardAlpha" operator="arithmetic" k2="-1" k3="1"/>
<feColorMatrix type="matrix" values="0 0 0 0 1 0 0 0 0 1 0 0 0 0 1 0 0 0 0.6 0"/>
<feBlend mode="normal" in2="effect1_innerShadow_1996_23463" result="effect2_innerShadow_1996_23463"/>
</filter>
<filter id="filter1_bii_1996_23463" x="27.23" y="43.3134" width="17.8988" height="16.0181" filterUnits="userSpaceOnUse" color-interpolation-filters="sRGB">
<feFlood flood-opacity="0" result="BackgroundImageFix"/>
<feGaussianBlur in="BackgroundImageFix" stdDeviation="1.5"/>
<feComposite in2="SourceAlpha" operator="in" result="effect1_backgroundBlur_1996_23463"/>
<feBlend mode="normal" in="SourceGraphic" in2="effect1_backgroundBlur_1996_23463" result="shape"/>
<feColorMatrix in="SourceAlpha" type="matrix" values="0 0 0 0 0 0 0 0 0 0 0 0 0 0 0 0 0 0 127 0" result="hardAlpha"/>
<feOffset dx="-3.0825" dy="1.0275"/>
<feGaussianBlur stdDeviation="2.055"/>
<feComposite in2="hardAlpha" operator="arithmetic" k2="-1" k3="1"/>
<feColorMatrix type="matrix" values="0 0 0 0 1 0 0 0 0 1 0 0 0 0 1 0 0 0 0.5 0"/>
<feBlend mode="normal" in2="shape" result="effect2_innerShadow_1996_23463"/>
<feColorMatrix in="SourceAlpha" type="matrix" values="0 0 0 0 0 0 0 0 0 0 0 0 0 0 0 0 0 0 127 0" result="hardAlpha"/>
<feOffset dx="0.770625" dy="-0.770625"/>
<feGaussianBlur stdDeviation="1.54125"/>
<feComposite in2="hardAlpha" operator="arithmetic" k2="-1" k3="1"/>
<feColorMatrix type="matrix" values="0 0 0 0 0 0 0 0 0 0 0 0 0 0 0 0 0 0 0.5 0"/>
<feBlend mode="normal" in2="effect2_innerShadow_1996_23463" result="effect3_innerShadow_1996_23463"/>
</filter>
<filter id="filter2_bii_1996_23463" x="15.9175" y="4" width="35.7513" height="47.3771" filterUnits="userSpaceOnUse" color-interpolation-filters="sRGB">
<feFlood flood-opacity="0" result="BackgroundImageFix"/>
<feGaussianBlur in="BackgroundImageFix" stdDeviation="1.5"/>
<feComposite in2="SourceAlpha" operator="in" result="effect1_backgroundBlur_1996_23463"/>
<feBlend mode="normal" in="SourceGraphic" in2="effect1_backgroundBlur_1996_23463" result="shape"/>
<feColorMatrix in="SourceAlpha" type="matrix" values="0 0 0 0 0 0 0 0 0 0 0 0 0 0 0 0 0 0 127 0" result="hardAlpha"/>
<feOffset dx="-3.0825" dy="1.0275"/>
<feGaussianBlur stdDeviation="2.055"/>
<feComposite in2="hardAlpha" operator="arithmetic" k2="-1" k3="1"/>
<feColorMatrix type="matrix" values="0 0 0 0 1 0 0 0 0 1 0 0 0 0 1 0 0 0 0.5 0"/>
<feBlend mode="normal" in2="shape" result="effect2_innerShadow_1996_23463"/>
<feColorMatrix in="SourceAlpha" type="matrix" values="0 0 0 0 0 0 0 0 0 0 0 0 0 0 0 0 0 0 127 0" result="hardAlpha"/>
<feOffset dx="1.54125" dy="-1.54125"/>
<feGaussianBlur stdDeviation="2.055"/>
<feComposite in2="hardAlpha" operator="arithmetic" k2="-1" k3="1"/>
<feColorMatrix type="matrix" values="0 0 0 0 0 0 0 0 0 0 0 0 0 0 0 0 0 0 0.5 0"/>
<feBlend mode="normal" in2="effect2_innerShadow_1996_23463" result="effect3_innerShadow_1996_23463"/>
</filter>
<filter id="filter3_f_1996_23463" x="41.067" y="16.1306" width="4.91487" height="13.8844" filterUnits="userSpaceOnUse" color-interpolation-filters="sRGB">
<feFlood flood-opacity="0" result="BackgroundImageFix"/>
<feBlend mode="normal" in="SourceGraphic" in2="BackgroundImageFix" result="shape"/>
<feGaussianBlur stdDeviation="0.128438" result="effect1_foregroundBlur_1996_23463"/>
</filter>
<filter id="filter4_f_1996_23463" x="37.2483" y="10.8004" width="2.90828" height="16.1947" filterUnits="userSpaceOnUse" color-interpolation-filters="sRGB">
<feFlood flood-opacity="0" result="BackgroundImageFix"/>
<feBlend mode="normal" in="SourceGraphic" in2="BackgroundImageFix" result="shape"/>
<feGaussianBlur stdDeviation="0.128438" result="effect1_foregroundBlur_1996_23463"/>
</filter>
<filter id="filter5_f_1996_23463" x="31.019" y="12.727" width="6.87581" height="13.8186" filterUnits="userSpaceOnUse" color-interpolation-filters="sRGB">
<feFlood flood-opacity="0" result="BackgroundImageFix"/>
<feBlend mode="normal" in="SourceGraphic" in2="BackgroundImageFix" result="shape"/>
<feGaussianBlur stdDeviation="0.128438" result="effect1_foregroundBlur_1996_23463"/>
</filter>
<filter id="filter6_bii_1996_23463" x="26" y="22.1851" width="32.9474" height="37.6385" filterUnits="userSpaceOnUse" color-interpolation-filters="sRGB">
<feFlood flood-opacity="0" result="BackgroundImageFix"/>
<feGaussianBlur in="BackgroundImageFix" stdDeviation="1.5"/>
<feComposite in2="SourceAlpha" operator="in" result="effect1_backgroundBlur_1996_23463"/>
<feBlend mode="normal" in="SourceGraphic" in2="effect1_backgroundBlur_1996_23463" result="shape"/>
<feColorMatrix in="SourceAlpha" type="matrix" values="0 0 0 0 0 0 0 0 0 0 0 0 0 0 0 0 0 0 127 0" result="hardAlpha"/>
<feOffset dx="-0.5" dy="0.5"/>
<feGaussianBlur stdDeviation="0.6"/>
<feComposite in2="hardAlpha" operator="arithmetic" k2="-1" k3="1"/>
<feColorMatrix type="matrix" values="0 0 0 0 0 0 0 0 0 0 0 0 0 0 0 0 0 0 0.4 0"/>
<feBlend mode="normal" in2="shape" result="effect2_innerShadow_1996_23463"/>
<feColorMatrix in="SourceAlpha" type="matrix" values="0 0 0 0 0 0 0 0 0 0 0 0 0 0 0 0 0 0 127 0" result="hardAlpha"/>
<feOffset dx="0.5" dy="-0.5"/>
<feGaussianBlur stdDeviation="0.6"/>
<feComposite in2="hardAlpha" operator="arithmetic" k2="-1" k3="1"/>
<feColorMatrix type="matrix" values="0 0 0 0 1 0 0 0 0 1 0 0 0 0 1 0 0 0 0.6 0"/>
<feBlend mode="normal" in2="effect2_innerShadow_1996_23463" result="effect3_innerShadow_1996_23463"/>
</filter>
<linearGradient id="paint0_linear_1996_23463" x1="12.5" y1="12" x2="18.313" y2="16.4343" gradientUnits="userSpaceOnUse">
<stop stop-color="#E32900"/>
<stop offset="0.494792" stop-color="#C6E216"/>
<stop offset="1" stop-color="#D808FA"/>
</linearGradient>
<linearGradient id="paint1_linear_1996_23463" x1="12.5" y1="12" x2="18.313" y2="16.4343" gradientUnits="userSpaceOnUse">
<stop stop-color="#E32900"/>
<stop offset="0.494792" stop-color="#C6E216"/>
<stop offset="1" stop-color="#D808FA"/>
</linearGradient>
<linearGradient id="paint2_linear_1996_23463" x1="12.5" y1="12" x2="18.313" y2="16.4343" gradientUnits="userSpaceOnUse">
<stop stop-color="#E32900"/>
<stop offset="0.494792" stop-color="#C6E216"/>
<stop offset="1" stop-color="#D808FA"/>
</linearGradient>
<linearGradient id="paint3_linear_1996_23463" x1="19" y1="17.5" x2="33.626" y2="51.5951" gradientUnits="userSpaceOnUse">
<stop stop-color="#E32900"/>
<stop offset="0.494792" stop-color="#C6E216"/>
<stop offset="1" stop-color="#D808FA"/>
</linearGradient>
<linearGradient id="paint4_linear_1996_23463" x1="42.0003" y1="20.8185" x2="43.8627" y2="21.2039" gradientUnits="userSpaceOnUse">
<stop/>
<stop offset="1" stop-opacity="0"/>
</linearGradient>
<linearGradient id="paint5_linear_1996_23463" x1="36.8629" y1="20.7543" x2="40.1165" y2="20.6899" gradientUnits="userSpaceOnUse">
<stop/>
<stop offset="1" stop-opacity="0"/>
</linearGradient>
<linearGradient id="paint6_linear_1996_23463" x1="31.7254" y1="23.1304" x2="35.6597" y2="20.9013" gradientUnits="userSpaceOnUse">
<stop/>
<stop offset="1" stop-opacity="0"/>
</linearGradient>
</defs>
</svg>
