<svg width="25" height="25" viewBox="0 0 25 25" fill="none" xmlns="http://www.w3.org/2000/svg">
<path fill-rule="evenodd" clip-rule="evenodd" d="M4.53625 5.03702C4.53625 4.00148 5.37572 3.16202 6.41125 3.16202H9.41125C10.4468 3.16202 11.2863 4.00148 11.2863 5.03702V19.287C11.2863 20.3226 10.4468 21.162 9.41125 21.162H6.41125C5.37572 21.162 4.53625 20.3226 4.53625 19.287V5.03702ZM6.78625 5.41202V18.912H9.03625V5.41202H6.78625Z" fill="black"/>
<path fill-rule="evenodd" clip-rule="evenodd" d="M13.5363 5.03702C13.5363 4.00148 14.3757 3.16202 15.4113 3.16202H18.4113C19.4468 3.16202 20.2863 4.00148 20.2863 5.03702V19.287C20.2863 20.3226 19.4468 21.162 18.4113 21.162H15.4113C14.3757 21.162 13.5363 20.3226 13.5363 19.287V5.03702ZM15.7863 5.41202V18.912H18.0363V5.41202H15.7863Z" fill="black"/>
</svg>
