<svg width="24" height="24" viewBox="0 0 24 24" fill="none" xmlns="http://www.w3.org/2000/svg">
<path fill-rule="evenodd" clip-rule="evenodd" d="M4.125 4.875C4.125 3.83947 4.96447 3 6 3H9C10.0355 3 10.875 3.83947 10.875 4.875V19.125C10.875 20.1605 10.0355 21 9 21H6C4.96447 21 4.125 20.1605 4.125 19.125V4.875ZM6.375 5.25V18.75H8.625V5.25H6.375Z" fill="black"/>
<path fill-rule="evenodd" clip-rule="evenodd" d="M13.125 4.875C13.125 3.83947 13.9645 3 15 3H18C19.0355 3 19.875 3.83947 19.875 4.875V19.125C19.875 20.1605 19.0355 21 18 21H15C13.9645 21 13.125 20.1605 13.125 19.125V4.875ZM15.375 5.25V18.75H17.625V5.25H15.375Z" fill="black"/>
</svg>
