<svg width="104" height="125" viewBox="0 0 104 125" fill="none" xmlns="http://www.w3.org/2000/svg">
<g clip-path="url(#clip0_24512_93808)">
<path d="M48.9469 9.13669C49.9823 8.00869 50.1117 7.74838 49.6372 7.01084C49.3352 6.49022 49.292 6.14314 49.5509 6.14314C49.7666 6.14314 49.9823 5.83944 49.9823 5.49236C49.9823 5.14529 49.8097 4.84159 49.594 4.84159C49.3352 4.84159 49.4646 4.32097 49.8097 3.62681C50.1117 2.97604 50.4137 1.97819 50.4137 1.41418C50.4137 -0.49475 50.802 0.720027 50.9746 3.19297C51.104 4.5379 51.2765 5.79606 51.4491 6.05637C51.5785 6.31668 51.5354 6.62037 51.2765 6.79391C50.5863 7.22776 50.7588 7.74838 51.9237 9.00654C53.2611 10.4382 53.1748 11.3059 51.6217 12.1736C50.6294 12.7376 50.3274 12.7376 49.3352 12.217C47.6526 11.3059 47.5663 10.6118 48.9469 9.13669ZM103.521 50.9163C103.219 51.3502 102.658 51.6973 102.356 51.6973C102.011 51.6973 101.752 52.0443 101.752 52.5216C101.752 53.129 101.321 53.3893 100.027 53.6062C99.0344 53.7364 98.1716 54.1702 98.0422 54.5173C97.9127 54.821 97.5245 54.9945 97.2225 54.9077C96.5322 54.6474 91.4846 56.7299 90.3198 57.7278C89.8452 58.1616 89.155 58.6388 88.7667 58.769C87.8176 59.0727 87.5587 60.6779 87.645 65.537C87.6881 68.3137 87.9039 69.702 88.249 69.7888C88.6804 69.9623 88.6804 70.1792 88.249 70.9168C87.947 71.4374 87.645 71.958 87.5156 72.0882C87.1704 72.3919 87.2136 71.8279 87.1273 90.0929L87.0842 106.362H86.135H85.1428L85.0996 90.3966C85.0565 81.6328 84.9271 74.0839 84.8408 73.6066C84.5388 72.2183 83.7191 70.4395 83.2445 70.1358C82.9426 69.9623 82.8563 69.1814 83.0288 68.2269C83.3308 66.4481 82.5111 64.3223 81.1306 63.3244C80.7423 63.0207 80.1815 62.2398 79.8795 61.6324C79.5775 60.8515 78.9304 60.4176 78.0244 60.2007C75.3928 59.6801 74.6162 59.8536 74.3142 61.025C74.1417 61.7192 73.7534 62.1096 73.2357 62.1096C72.8043 62.1096 71.9846 62.5435 71.51 63.0207C70.7766 63.7583 70.6472 64.2789 70.8197 65.6672C71.0354 67.1423 70.906 67.446 70.2158 67.6195C69.7843 67.7497 69.0941 68.4438 68.6627 69.2248C67.9724 70.4395 67.8861 72.3919 67.7567 87.3596C67.6272 101.026 67.7135 104.193 68.1881 104.193C68.5332 104.193 68.4469 104.41 67.9724 104.67C67.1958 105.104 67.1958 105.191 67.9292 105.972C68.3175 106.406 69.0078 106.796 69.4823 106.796C69.9138 106.796 70.2589 106.97 70.2589 107.23C70.2589 107.447 70 107.664 69.698 107.664C69.3098 107.664 69.0941 108.531 69.0509 110.484L68.9215 113.304H76.5144H84.0642L83.978 111.568C83.9348 110.614 83.7191 109.833 83.5034 109.833C83.2877 109.833 83.5897 109.443 84.1937 108.965C84.7977 108.488 85.6173 108.098 86.0056 108.098C87.0842 108.098 89.4138 109.443 88.8961 109.79C88.5941 109.963 88.4647 112.219 88.5078 116.124L88.5941 122.198L93.8143 122.718C96.7048 123.022 100.286 123.543 101.795 123.89C104.211 124.41 97.999 124.497 51.104 124.54C21.6813 124.584 -2.26233 124.497 -2.17605 124.41C-2.00348 124.237 6.84057 122.718 10.8528 122.198L12.8804 121.937V116.514C12.8804 113.347 12.7078 111.135 12.449 111.135C12.2333 111.135 12.147 110.831 12.2764 110.484C12.449 110.137 12.3196 109.833 12.0607 109.833C11.8019 109.833 11.5862 109.616 11.5862 109.399C11.5862 109.139 11.9313 108.965 12.3627 108.965C13.8295 108.965 14.8218 107.273 13.4413 107.187C12.9667 107.187 12.8804 107.056 13.2255 106.926C13.6138 106.753 13.7432 102.891 13.7432 89.4855C13.7432 74.9082 13.657 72.1315 13.0961 71.3506C12.6216 70.6998 12.5784 70.3961 12.9667 70.266C13.2687 70.1358 13.4413 68.4004 13.4844 64.9297C13.5275 60.5478 13.3981 59.6367 12.751 58.769C12.3196 58.205 11.7156 57.7712 11.4136 57.7712C11.1116 57.7712 10.5076 57.3807 10.0762 56.9035C9.25651 55.9924 3.99322 54.1268 3.34609 54.5607C3.13038 54.6908 2.95782 54.604 2.95782 54.4305C2.95782 54.2136 2.35383 53.8231 1.57728 53.5194C0.498737 53.129 0.110462 53.129 -0.148389 53.5628C-0.364097 53.8665 -0.49352 53.6496 -0.49352 52.912C-0.49352 52.1745 -0.795513 51.6539 -1.31321 51.4803C-1.78777 51.3502 -2.39176 50.9597 -2.65061 50.6126C-3.12517 50.0486 -2.99574 50.0486 -1.65835 50.6126C-0.493522 51.0899 0.412455 51.1333 2.56954 50.7862C9.08394 49.7449 16.4612 46.8815 26.3838 41.415C31.8628 38.3781 32.3373 38.0744 32.2079 36.9898C32.1216 36.1221 31.5608 35.6449 29.7057 34.6904C28.4114 34.0396 27.1172 33.519 26.8152 33.519C26.5132 33.4756 25.7798 32.9984 25.0895 32.3476L23.9247 31.263L25.0895 31.6968C27.9369 32.7815 37.6006 27.9223 44.7621 21.8051C46.0564 20.7205 47.7389 19.5925 48.4292 19.3755C50.1117 18.8115 50.3274 17.6401 49.0763 16.2952C48.2998 15.4709 48.2566 15.254 48.8175 15.254C49.8529 15.254 50.1549 14.3863 49.3783 13.8223C48.7743 13.3884 48.9469 13.3016 50.4137 13.3016C51.9237 13.3016 52.0531 13.3884 51.406 13.8223C50.6294 14.4296 50.6294 14.473 51.8805 15.1238C52.7002 15.5577 52.6571 15.601 51.7942 16.0783C50.7588 16.6423 50.5431 18.2475 51.3628 19.0718C51.6648 19.3755 52.3551 19.6358 53.0022 19.6358C53.6062 19.6792 53.7788 19.766 53.3905 19.8961C52.1394 20.1998 54.5984 24.2346 58.4812 28.2694C61.3717 31.2196 62.1482 31.827 62.5797 31.3931C63.0542 30.9159 62.9679 30.7424 62.2777 30.3519C60.5951 29.3974 55.2456 23.0632 54.5984 21.2411C54.4259 20.8072 55.2887 21.2411 56.6261 22.3691C62.7522 27.4017 71.208 31.8704 74.6162 31.9138C76.2987 31.9571 76.6007 32.0439 76.083 32.4344C75.7379 32.6947 75.4359 33.1285 75.4359 33.4322C75.4359 33.6925 75.0045 33.9095 74.4868 33.9095C73.9259 33.9095 72.5454 34.2565 71.3374 34.6904C69.4392 35.3845 69.1803 35.6449 69.0509 36.8162C68.9215 37.9876 69.1372 38.2913 71.1217 39.5061C84.0211 47.4889 100.674 53.2591 103.478 50.6994C103.996 50.2656 103.996 50.3089 103.521 50.9163ZM68.9646 120.983L73.1062 121.026C75.3496 121.07 77.3773 121.2 77.593 121.33C77.8087 121.46 78.0675 120.462 78.1538 119.074L78.2832 116.558L78.3695 119.031C78.4558 121.373 78.5421 121.547 79.5344 121.547C80.4835 121.547 80.5698 121.373 80.7423 119.031L80.8718 116.558L80.958 119.031C81.0443 121.417 81.0875 121.547 82.1229 121.547C83.2445 121.547 83.2446 121.547 83.1151 117.946C82.9857 114.649 82.8994 114.388 82.0366 114.258C81.3032 114.128 81.0875 114.388 80.9149 115.343L80.7423 116.558L80.656 115.43L80.6129 114.258H74.7888H68.9646V117.642V120.983ZM61.7168 34.8205C61.8031 35.6015 62.4071 35.9052 64.8662 36.5559C66.5487 36.9898 67.9292 37.3803 68.0155 37.3803C68.1018 37.3803 68.1018 36.9464 68.0155 36.4692C67.9292 35.775 67.3684 35.3845 65.9447 34.9507C64.8662 34.6036 63.7876 34.4301 63.4856 34.5602C63.1837 34.647 62.8385 34.5602 62.7091 34.3433C62.2345 33.5624 61.5874 33.9095 61.7168 34.8205ZM45.021 33.6492C42.9933 33.6058 41.2677 33.6925 41.1814 33.8661C41.0951 33.9962 41.0088 34.647 41.0088 35.2978L41.052 36.5126H44.5464C50.5 36.5559 55.7201 36.5559 58.2224 36.5559L60.6383 36.5126L60.3794 35.1242L60.0774 33.6925L55.7201 33.6058C51.9237 33.519 51.3197 33.6058 51.1471 34.2565C50.9745 34.9507 50.9314 34.9073 50.8883 34.2132C50.8883 33.8227 50.5431 33.4756 50.198 33.4756C49.8529 33.4756 49.5509 33.8227 49.5509 34.2132C49.5509 34.8639 49.4646 34.9073 49.1195 34.3433C48.8175 33.8661 47.7821 33.6925 45.021 33.6492ZM49.1195 55.6019C48.5155 55.6019 45.323 55.4717 41.9579 55.2982C37.9889 55.1247 35.7887 55.2114 35.6161 55.4717C35.4435 55.7321 35.3572 58.205 35.4435 60.9816L35.5298 66.0143H36.7378C37.6869 66.0143 37.9026 65.7974 37.9026 64.973C37.9026 63.5847 39.5851 61.1552 41.1382 60.3742C41.8716 59.9838 42.9933 59.1595 43.6405 58.5521C44.417 57.8145 45.625 57.2505 46.7898 57.077C47.7821 56.9468 48.99 56.5564 49.4214 56.2093C50.1549 55.6887 50.1117 55.6453 49.1195 55.6019ZM37.8595 31.9571C39.0243 32.6513 46.4447 24.6685 47.6958 21.3712C48.5155 19.1586 47.2212 19.6792 46.0995 21.9786C45.021 24.1912 39.0243 30.8725 38.0752 30.8725C37.3849 30.8725 37.2555 31.5667 37.8595 31.9571ZM33.2433 36.7729C33.3296 37.8141 33.459 37.8575 35.0984 37.6406C36.0475 37.467 37.5575 37.1633 38.4635 36.903C39.844 36.5559 40.0597 36.2956 40.0597 35.211C40.0597 33.9095 39.4557 33.4322 39.0674 34.4301C38.8949 34.8639 38.8086 34.8639 38.8086 34.4301C38.7654 34.1698 38.636 33.9528 38.4635 33.9528C37.1692 34.1698 36.6084 34.5168 36.6084 35.1242C36.6084 35.775 36.5221 35.775 36.1769 35.211C35.9181 34.8205 35.6161 34.7338 35.4435 34.9941C35.2278 35.211 34.8395 35.4279 34.5807 35.4713C33.2864 35.5581 33.157 35.6882 33.2433 36.7729ZM35.7455 38.9855C35.7887 37.9009 31.9922 39.94 17.8417 48.7037C12.8373 51.8274 13.0961 51.6105 13.3981 51.9576C13.8727 52.3914 35.7024 39.723 35.7455 38.9855ZM31.6471 55.7321C30.4391 55.6887 24.5287 56.7733 24.1404 57.1638C23.7521 57.5542 25.1327 58.6389 26.0386 58.6389C26.5995 58.6389 27.3329 59.1161 27.7212 59.7235C28.1094 60.3309 28.6703 60.8081 29.0154 60.8081C29.9645 60.8081 31.1294 62.4567 31.3882 64.1921C31.5608 65.19 31.9059 65.7974 32.2942 65.7974C32.8119 65.7974 32.9413 64.9297 32.9413 60.8081V55.8188L31.6471 55.7321ZM15.1238 64.1487C15.2532 69.4417 15.9003 70.8734 16.3749 66.9687C16.72 64.409 17.2377 63.3244 18.7045 62.3699C19.3085 61.9795 19.7831 61.4589 19.7831 61.1986C19.7831 60.9382 20.3871 60.2441 21.0773 59.6367C21.8107 59.0727 22.3716 58.2918 22.3716 57.9447C22.3716 57.5976 22.2422 57.3373 22.0696 57.3807C21.3362 57.4675 16.0729 58.6389 15.5552 58.8558C15.1669 58.9859 15.0375 60.3309 15.1238 64.1487ZM31.9491 116.861L31.7765 114.258H24.9169C21.1205 114.258 17.9711 114.388 17.8848 114.562C17.7986 114.692 17.7554 116.167 17.7986 117.859L17.8417 120.896L23.7953 120.983L29.7057 121.026L29.792 117.946L29.8782 114.822L30.094 117.859C30.2665 120.072 30.5254 120.896 30.9568 120.896C31.8196 120.896 32.0785 119.768 31.9491 116.861ZM49.8097 117.208C48.99 117.208 48.688 117.469 48.5586 118.38L48.386 119.595L48.2998 118.38L48.2566 117.208L42.8639 117.252L37.4712 117.339V118.9C37.4712 120.419 37.5575 120.506 38.9812 120.592C39.8008 120.679 40.4911 120.549 40.4911 120.332C40.4911 120.115 41.052 120.028 41.7422 120.159C42.6913 120.289 43.0365 120.159 43.209 119.508C43.3816 118.857 43.4247 118.857 43.4679 119.464C43.511 120.115 43.9856 120.202 47.0918 120.115L50.6294 120.028L50.7588 118.597C50.8883 117.382 50.7588 117.208 49.8097 117.208ZM53.4336 118.727C53.4336 117.382 53.3042 117.208 52.3551 117.208C51.406 117.208 51.2765 117.382 51.2765 118.727C51.2765 120.072 51.406 120.245 52.3551 120.245C53.3042 120.245 53.4336 120.072 53.4336 118.727ZM61.1991 118.944C61.1991 117.382 61.0697 117.208 60.1637 117.208C59.3009 117.208 59.0852 117.469 58.9126 118.597L58.7401 120.028L58.6969 118.597C58.6106 117.425 58.4381 117.208 57.5752 117.208C56.7555 117.208 56.4535 117.469 56.3241 118.38L56.1516 119.595L56.0653 118.38C56.0221 117.425 55.8064 117.208 54.9436 117.208C53.9945 117.208 53.865 117.382 53.865 118.684V120.159L56.3673 120.202C57.7047 120.202 59.344 120.332 60.0343 120.462C61.156 120.679 61.1991 120.636 61.1991 118.944ZM63.3562 118.944C63.3562 117.512 63.2268 117.208 62.4934 117.208C61.76 117.208 61.6305 117.512 61.6305 118.944C61.6305 120.376 61.76 120.679 62.4934 120.679C63.2268 120.679 63.3562 120.376 63.3562 118.944ZM64.5642 104.193C64.9525 104.193 65.0819 100.722 65.0819 88.3575C65.0819 77.5113 64.9525 72.522 64.6073 72.522C64.3916 72.522 64.3053 72.3051 64.4348 72.0882C64.6073 71.8279 64.3916 71.0469 64.0465 70.266C63.6582 69.5285 63.3562 68.7041 63.3562 68.4438C63.3562 68.1835 62.9248 67.7497 62.4071 67.5328C61.7168 67.2291 61.458 66.7952 61.5443 66.0577C61.8894 63.8016 59.646 61.2419 57.3595 61.2419C56.8418 61.2419 56.4535 60.9816 56.4535 60.6346C56.4535 59.7235 55.3319 58.9859 53.3042 58.5955C52.3119 58.4219 51.1903 58.1616 50.8451 58.0748C50.5 57.9881 49.1195 58.1616 47.8252 58.5087C45.5387 59.1161 44.1582 60.1139 44.6327 60.8515C44.7621 61.0684 44.4601 61.2419 43.9424 61.2419C42.6482 61.2419 40.5774 62.4133 40.0597 63.4546C39.8008 63.9318 39.6283 64.973 39.7146 65.7106C39.8008 66.7952 39.6283 67.1857 38.8949 67.5328C38.334 67.7497 37.9026 68.1835 37.9026 68.4872C37.9026 68.7475 37.5575 69.2681 37.1261 69.5718C36.0907 70.3094 36.0907 70.3528 36.0044 88.0104L35.9612 103.325H34.5807H33.157L33.1139 87.7935C33.0707 79.2901 33.0707 71.7845 33.0707 71.0903C33.0707 70.4395 32.8982 69.9189 32.6825 69.9189C32.4667 69.9189 32.2942 69.702 32.2942 69.4417C32.2942 68.8777 31.4314 68.01 30.4822 67.6629C29.9214 67.446 29.8351 67.0121 30.0077 65.5804C30.3097 63.5413 29.3605 62.1096 27.7212 62.1096C27.1172 62.1096 26.6426 61.7626 26.4701 61.2419C26.2975 60.7647 25.6072 60.2007 24.8307 60.0272C23.2344 59.5499 22.3284 60.1573 21.5088 62.153C21.2068 62.8472 20.7322 63.4112 20.4733 63.4112C20.1714 63.4112 19.4811 63.9318 18.8771 64.5392C18.0574 65.4069 17.8417 66.101 17.8417 67.8798C17.8417 69.3115 17.5397 70.6998 16.9789 71.6543C16.2023 73.086 16.116 74.3008 15.9003 89.9627C15.7278 104.67 15.7709 106.796 16.3317 106.97C16.7632 107.056 16.72 107.143 16.1592 107.187C15.3826 107.23 15.3826 107.273 16.116 108.098C16.5475 108.575 17.1514 108.965 17.4966 108.965C18.1868 108.965 18.23 109.486 17.5397 110.18C17.2377 110.484 17.1946 110.701 17.3671 110.701C17.5829 110.701 17.4966 111.004 17.1946 111.351C16.8926 111.699 16.7632 112.306 16.9357 112.653C17.1514 113.217 18.23 113.304 24.615 113.217L32.0785 113.087L32.2079 111.655C32.2942 110.831 32.2079 109.876 32.0353 109.486C31.8628 109.052 31.7765 108.488 31.8196 108.184C31.8628 107.924 31.6039 107.664 31.2156 107.664C30.8274 107.664 30.6548 107.447 30.7842 107.23C30.9137 106.97 31.3882 106.796 31.8196 106.796C32.251 106.796 32.855 106.492 33.157 106.145C33.8473 105.321 35.4867 105.321 36.1769 106.145C36.4789 106.492 37.1692 106.796 37.73 106.796C38.2477 106.796 38.8517 106.97 38.9812 107.23C39.1106 107.447 38.938 107.664 38.5497 107.664C38.0752 107.664 37.9026 107.881 38.0752 108.315C38.2046 108.662 38.1183 108.965 37.9026 108.965C37.6438 108.965 37.4712 110.484 37.4712 112.436V115.907L40.6205 115.994C42.3031 115.994 48.1703 116.08 53.563 116.08L63.3994 116.124L63.3131 111.872C63.2699 108.618 63.1405 107.664 62.6659 107.664C61.5874 107.664 62.0188 106.839 63.1836 106.709C64.6505 106.536 65.5996 105.234 64.6505 104.627C64.219 104.367 64.1759 104.193 64.5642 104.193ZM65.5133 55.6019H61.2423C58.8695 55.6019 56.7124 55.5585 56.3673 55.4717C56.0653 55.385 54.7279 55.4284 53.4336 55.6019L51.0608 55.8622L52.5708 56.5564C53.3905 56.9468 54.7279 57.3807 55.5044 57.5542C56.281 57.7278 57.187 58.2918 57.5321 58.8124C57.8772 59.333 58.8263 60.0272 59.646 60.2875C61.3717 60.9382 62.666 62.5435 63.1405 64.5826C63.3562 65.7106 63.6582 66.0143 64.4779 66.0143H65.5133V60.8081V55.6019ZM74.2711 56.5564C72.8905 56.2961 70.9492 55.949 69.9569 55.8188L68.1018 55.5151V60.7647C68.1018 65.1466 68.1881 66.0143 68.7489 66.0143C69.0941 66.0143 69.3961 65.7106 69.3961 65.3635C69.3961 63.845 70.8197 61.2419 71.7688 60.9816C72.2865 60.8515 72.9337 60.2875 73.1925 59.7235C73.4945 59.0727 74.2279 58.5087 75.0476 58.2918C77.291 57.7278 76.989 57.077 74.2711 56.5564ZM86.135 63.9752L86.0056 58.8558L84.0642 58.3785C81.3894 57.7278 78.5421 57.3807 78.2832 57.6844C78.1538 57.8145 78.8009 58.4653 79.7501 59.1595C80.656 59.8536 81.562 60.8081 81.6914 61.2419C81.864 61.7192 82.1229 62.1096 82.3386 62.1096C83.072 62.1096 84.1937 64.4958 84.4525 66.6217C84.6251 68.2703 84.9271 68.8777 85.4879 68.9644C86.1782 69.0946 86.2213 68.7041 86.135 63.9752ZM85.7036 50.2656C76.6007 44.6689 74.4868 43.3674 70.9492 41.1114C66.937 38.595 64.6505 37.8141 67.0233 39.8098C69.6118 41.979 88.249 52.8687 88.6373 52.4348C88.7667 52.3047 87.4293 51.3502 85.7036 50.2656ZM33.7179 104.497C34.365 104.583 35.3141 104.583 35.8749 104.497C36.3927 104.41 35.8749 104.323 34.667 104.323C33.5022 104.323 33.0276 104.41 33.7179 104.497ZM20.3439 117.642C20.3439 119.204 20.4302 119.812 20.5165 119.031C20.6028 118.293 20.6028 116.992 20.5165 116.211C20.4302 115.473 20.3439 116.08 20.3439 117.642ZM25.0032 115.733C25.0032 116.211 25.1327 116.341 25.2621 115.994C25.3915 115.69 25.3484 115.3 25.2189 115.169C25.0895 114.996 24.9601 115.256 25.0032 115.733ZM27.1603 115.733C27.1603 116.211 27.2897 116.341 27.4192 115.994C27.5486 115.69 27.5055 115.3 27.376 115.169C27.2466 114.996 27.1172 115.256 27.1603 115.733ZM25.0895 118.51C25.0895 119.595 25.1758 120.028 25.2621 119.464C25.3484 118.944 25.3484 118.076 25.2621 117.512C25.1758 116.992 25.0895 117.425 25.0895 118.51ZM27.2466 118.51C27.2466 119.595 27.3329 120.028 27.4192 119.464C27.5055 118.944 27.5055 118.076 27.4192 117.512C27.3329 116.992 27.2466 117.425 27.2466 118.51ZM78.3264 115.994C78.4558 115.69 78.4127 115.3 78.2832 115.169C78.1538 114.996 78.0244 115.256 78.0675 115.733C78.0675 116.211 78.197 116.341 78.3264 115.994ZM84.7114 107.23C84.8408 107.447 85.6605 107.664 86.4802 107.664C87.2999 107.664 87.947 107.447 87.947 107.23C87.947 106.97 87.1704 106.796 86.1782 106.796C85.1428 106.796 84.5388 106.97 84.7114 107.23Z" fill="#191919"/>
</g>
<defs>
<clipPath id="clip0_24512_93808">
<rect width="107" height="125" fill="white" transform="translate(-3)"/>
</clipPath>
</defs>
</svg>
