<svg width="24" height="24" viewBox="0 0 24 24" fill="none" xmlns="http://www.w3.org/2000/svg">
<path d="M16.8913 14.2574C16.2923 13.8581 15.7932 13.4588 15.3939 12.8599C14.3957 11.0631 13.7967 9.96502 11.9001 9.96502C10.0034 9.96502 9.30467 11.2627 8.30643 13.1594C8.00696 13.7583 7.50785 14.0578 6.90891 14.4571C6.21014 14.9562 5.41155 15.4553 5.11208 16.4535C5.01226 16.753 5.01226 17.352 5.01226 17.6514C5.01226 19.3484 6.21014 20.6461 7.80732 20.6461C8.50608 20.6461 9.30467 20.3467 10.1033 20.147C10.802 19.9474 11.5008 19.6479 12.0997 19.6479C12.6987 19.6479 13.3974 19.8475 14.0962 20.147C14.8948 20.3467 15.5935 20.6461 16.3921 20.6461C17.9893 20.6461 19.1872 19.3484 19.1872 17.6514C19.1872 17.352 19.0874 16.753 18.9875 16.4535C18.4884 15.3555 17.6898 14.7565 16.8913 14.2574ZM16.2923 18.5498C15.893 18.5498 15.2941 18.3502 14.6951 18.1505C13.8965 17.8511 12.9981 17.5516 12.0997 17.5516C11.2013 17.5516 10.3029 17.8511 9.50432 18.1505C8.90538 18.3502 8.30643 18.5498 7.90714 18.5498C7.50785 18.5498 7.20838 18.2504 7.20838 17.6514C7.20838 17.4518 7.20838 17.1523 7.3082 17.0525C7.40802 16.753 7.70749 16.4535 8.30643 16.1541C9.0052 15.7548 9.80379 15.1558 10.4027 14.1576C11.401 12.261 11.7004 12.0613 12.1995 12.0613C12.7985 12.0613 12.7985 12.0613 13.7967 13.8581C14.3957 14.8564 15.1943 15.4553 15.893 15.9544C16.3921 16.3537 16.8913 16.6532 16.9911 17.0525C16.9911 17.1523 17.0909 17.4518 17.0909 17.6514C16.8913 18.1505 16.6916 18.5498 16.2923 18.5498ZM20.1854 7.26979C19.886 7.16996 19.6863 7.16996 19.3868 7.07014C18.189 7.07014 17.0909 8.06837 16.492 9.4659C15.7932 11.2627 16.1925 13.1594 17.59 13.6585C17.8895 13.7583 18.0891 13.8581 18.3886 13.8581C19.5865 13.8581 20.6845 12.8599 21.2835 11.4624C21.9822 9.66555 21.4831 7.86873 20.1854 7.26979ZM19.287 10.7636C18.9875 11.5622 18.4884 11.8617 18.3886 11.8617C18.2888 11.7618 18.0891 11.1629 18.3886 10.2645C18.6881 9.56573 19.0874 9.16643 19.287 9.16643C19.4867 9.36608 19.5865 9.96502 19.287 10.7636ZM9.60414 10.1647C9.70396 10.1647 9.80379 10.1647 9.90361 10.1647C10.5026 10.0648 11.1015 9.76537 11.5008 9.26626C11.7004 8.86696 11.9001 8.36785 11.9999 7.96855C12.0997 8.46767 12.2994 8.86696 12.5988 9.16643C12.9981 9.66555 13.4973 10.0648 14.196 10.0648C14.2958 10.0648 14.3957 10.0648 14.4955 10.0648C15.893 10.0648 17.0909 8.76714 17.3904 7.07014C17.59 5.97208 17.2905 4.97385 16.7914 4.27508C16.3921 3.77597 15.893 3.37667 15.1943 3.37667C13.7967 3.17702 12.3992 4.37491 12.0997 6.17173C11.8003 4.47473 10.6024 3.37667 9.30467 3.37667C9.20485 3.37667 9.10502 3.37667 9.0052 3.37667C8.30643 3.4765 7.70749 3.77597 7.3082 4.27508C6.80908 4.97385 6.60944 6.0719 6.70926 7.16996C7.00873 8.86696 8.20661 10.1647 9.60414 10.1647ZM13.9964 6.67085C14.0962 5.87226 14.5953 5.37314 14.795 5.37314L14.8948 5.47296C15.0944 5.67261 15.1943 6.17173 15.0944 6.77067C14.9946 7.56926 14.4955 8.06838 14.2958 8.06838C14.2958 8.06838 14.196 7.96855 14.0962 7.96855C14.0962 7.7689 13.8965 7.26979 13.9964 6.67085ZM9.0052 5.57279C9.10502 5.47296 9.10502 5.47296 9.20485 5.47296C9.40449 5.47296 9.90361 5.87226 10.0034 6.77067C10.1033 7.26979 9.90361 7.7689 9.80379 7.96855C9.70396 7.96855 9.70396 8.06838 9.60414 8.06838C9.40449 8.06838 8.90538 7.66908 8.80555 6.77067C8.70573 6.17173 8.90538 5.77243 9.0052 5.57279ZM6.40979 13.7583C7.70749 13.1594 8.20661 11.3625 7.50785 9.56573C6.80908 7.7689 5.21191 6.67085 3.81438 7.26979C2.51667 7.86873 2.01756 9.66555 2.71632 11.5622C3.31526 12.9597 4.51314 13.958 5.6112 13.958C5.91067 13.958 6.21014 13.8581 6.40979 13.7583ZM4.71279 10.7636C4.41332 9.96502 4.51314 9.26626 4.61297 9.26626C4.71279 9.26626 5.21191 9.56573 5.51138 10.3643C5.81085 11.1629 5.71102 11.7618 5.6112 11.8617C5.41155 11.8617 5.01226 11.4624 4.71279 10.7636Z" fill="black"/>
</svg>
