<svg width="24" height="24" viewBox="0 0 24 24" fill="none" xmlns="http://www.w3.org/2000/svg">
<path d="M20.3999 3.60002C18.6999 2.00002 16.0999 2.00002 14.3999 3.60002L13.2999 4.70002L2.6999 15.3C2.4999 15.5 2.3999 15.8 2.3999 16V20.5C2.3999 21.1 2.8999 21.6 3.4999 21.6H7.9999C8.2999 21.6 8.4999 21.5 8.6999 21.3L20.3999 9.60002C21.9999 7.90002 21.9999 5.30002 20.3999 3.60002ZM7.4999 19.5H4.4999V16.5L13.9999 7.00002L16.9999 10L7.4999 19.5ZM18.8999 8.10002L18.4999 8.50002L15.4999 5.50002L15.8999 5.10002C16.6999 4.30002 17.9999 4.30002 18.8999 5.10002C19.7999 5.90002 19.6999 7.30002 18.8999 8.10002Z" fill="black"/>
</svg>
