<svg width="24" height="24" viewBox="0 0 24 24" fill="none" xmlns="http://www.w3.org/2000/svg">
<path fill-rule="evenodd" clip-rule="evenodd" d="M20.3668 3.63314C18.7226 1.98898 16.0569 1.98898 14.4128 3.63314L13.3064 4.73953C13.3036 4.74222 13.3009 4.74492 13.2982 4.74764C13.2955 4.75036 13.2928 4.75309 13.2901 4.75583L2.70967 15.3362C2.51133 15.5346 2.3999 15.8036 2.3999 16.0841V20.5424C2.3999 21.1265 2.87342 21.6 3.45753 21.6H7.91585C8.19635 21.6 8.46536 21.4886 8.6637 21.2903L20.3668 9.58717C22.0109 7.94301 22.0109 5.2773 20.3668 3.63314ZM14.0461 6.99125L4.51516 16.5222V19.4848H7.47776L17.0087 9.95385L14.0461 6.99125ZM18.5044 8.45814L18.8711 8.09146C19.6892 7.27336 19.6892 5.94696 18.8711 5.12885C18.053 4.31075 16.7266 4.31075 15.9085 5.12885L15.5418 5.49554L18.5044 8.45814Z" fill="black"/>
</svg>
