<svg width="67" height="69" viewBox="0 0 67 69" fill="none" xmlns="http://www.w3.org/2000/svg">
<g clip-path="url(#clip0_5641_38517)">
<path d="M64.7 60.9C64.4 60 63.8 59.7 63.8 59.4C61.7 57.7 58.9 56.6 56.2 55.6C56.1 55.5 56.1 55.4 56 55.4C56 55.4 56 55.3 55.9 55.3C55.9 55.3 55.9 55.3 55.9 55.2C55.9 55.1 55.7 54.9 55.5 54.7C53.5 53.1 51 51.9 48.5 51C48.4 50.8 48.2 50.5 48.1 50.3C47.8 48.2 48.1 46.5 48.1 44.7C49 44.1 50.7 40.9 51 38.2C51.9 38.2 53.1 37.3 53.4 34.4C53.7 32.9 52.8 31.8 52.2 31.8C53.7 27.7 56.3 15.9 47.5 14.8C47 13.9 45.9 13.3 44.5 12.9C44.5 12.8 44.5 12.7 44.5 12.6C44.3 10.5 43.8 8.40001 42.5 6.80001C41.3 5.20001 39.5 4.00001 37 3.60001C36.3 2.70001 35.3 2.00001 34.1 1.60001C33 1.00001 31.4 0.700012 29.7 0.700012C26.3 0.800012 23.5 1.50001 21.4 2.80001C19.2 4.10001 17.7 5.80001 16.8 8.00001C15 12.1 15.3 17.6 16.7 23.2C15.9 23.9 15.2 25.1 15.5 26.8C15.8 29.7 16.9 31.4 18.3 31.8C18.5 33.2 19.1 34.8 19.7 36C20 36.7 20.4 37.4 20.8 37.9C21.1 38.3 21.5 38.7 21.8 39V44.7C21.4 45.7 20.5 46.5 19.3 47.3C18 48.1 16.4 48.7 14.7 49.3C14.5 49.4 14.3 49.4 14.2 49.5C10.9 50.7 7 52.1 4.4 55C4.2 55 4.2 55 4.1 55.1L3.4 56.4C2.9 57.6 2.3 59.3 1.8 60.7C1.6 61.4 1.3 62.2 1.2 62.7C1.1 63 1.1 63.3 0.999996 63.5C0.999996 63.7 0.899996 64 0.999996 64.3C1.1 64.8 1.6 65 1.7 65C4.2 65.7 9.1 66.2 14.5 66.5C15.3 66.5 16.1 66.6 17 66.6C17 66.7 17 66.8 17 66.8C21.1 68 34 68.6 42.3 68.6C50.5 68.6 56.4 68.6 66.4 66.5C66.7 66.7 65.2 62.9 64.7 60.9ZM14.7 64.9C9.7 64.6 5.4 64.2 2.9 63.6C2.9 63.5 2.9 63.4 3 63.4C3.1 62.9 3.3 62.2 3.6 61.5C4 60 4.6 58.3 5.1 57.2L5.7 56C7.9 53.5 11.4 52.2 14.8 51C14.9 51 15.1 50.9 15.2 50.9C17 50.3 18.7 49.6 20.2 48.7C21.7 47.8 22.9 46.7 23.5 45.1C23.6 45 23.6 44.8 23.6 44.7V38.6C23.6 38 23.2 37.7 22.9 37.5C22.8 37.4 22.5 37.2 22.2 36.8C21.9 36.4 21.6 35.8 21.3 35.2C20.7 33.9 20.2 32.4 20 31.1C19.9 30.5 19.4 30.1 19 30.1C18.7 30 17.6 29.5 17.3 26.6C17.1 25.5 17.6 24.9 18 24.6C18.4 24.3 18.7 23.8 18.5 23.3C17.1 17.7 16.8 12.6 18.4 8.90001C19.2 7.10001 20.4 5.60001 22.2 4.60001C24 3.50001 26.4 2.90001 29.6 2.80001C31.1 2.80001 32.5 3.00001 33.6 3.40001C34.7 3.80001 35.4 4.30001 35.8 4.90001C36 5.00001 36.3 5.20001 36.7 5.30001C38.9 5.60001 40.3 6.60001 41.2 7.80001C42.1 9.00001 42.6 10.6 42.8 12.4C42.4 12.4 41.9 12.3 41.5 12.3C29.7 12.6 28.3 21.4 30.9 31.4C30.3 31.7 29.4 32.6 29.7 34C30 36.9 31.2 37.8 32.1 37.8C32.4 40.4 34.2 44 35.3 44.3C35.3 46.4 35.3 47.8 35.3 49.9C33.5 54.6 24.1 54.3 19.7 59.3C19.7 59.3 19.4 59.9 19.1 60.5C18.6 61.7 17.9 63.5 17.4 65C16.5 65 15.6 64.9 14.7 64.9Z" fill="url(#paint0_diamond_5641_38517)"/>
</g>
<defs>
<radialGradient id="paint0_diamond_5641_38517" cx="0" cy="0" r="1" gradientUnits="userSpaceOnUse" gradientTransform="translate(5.7719 11.7776) rotate(43.1256) scale(83.1223 239.635)">
<stop stop-color="#E32900"/>
<stop offset="0.472959" stop-color="#C6E216"/>
<stop offset="1" stop-color="#D808FA"/>
</radialGradient>
<clipPath id="clip0_5641_38517">
<rect width="67" height="69" fill="white"/>
</clipPath>
</defs>
</svg>
