<svg width="64" height="64" viewBox="0 0 64 64" fill="none" xmlns="http://www.w3.org/2000/svg">
<g filter="url(#filter0_bii_10555_47620)">
<path d="M46.3375 25.2522H38.7471V17.6618C38.7471 14.8787 36.47 12.6016 33.6869 12.6016H30.3134C27.5302 12.6016 25.2531 14.8787 25.2531 17.6618V25.2522H17.6628C14.8796 25.2522 12.6025 27.5293 12.6025 30.3124V33.6859C12.6025 36.469 14.8796 38.7461 17.6628 38.7461H25.2531V46.3365C25.2531 49.1196 27.5302 51.3967 30.3134 51.3967H33.6869C36.47 51.3967 38.7471 49.1196 38.7471 46.3365V38.7461H46.3375C49.1206 38.7461 51.3977 36.469 51.3977 33.6859V30.3124C51.3977 27.5293 49.2049 25.2522 46.3375 25.2522Z" fill="#E74424"/>
</g>
<path d="M29.4699 39.3361C29.3855 39.3361 29.3855 39.3361 29.4699 39.3361C29.2169 39.3361 28.9639 39.0831 28.9639 38.9144L27.9518 27.0229L25.253 34.1072C25.1687 34.2759 25 34.4446 24.747 34.4446H11.506C11.253 34.4446 11 34.1916 11 33.9385C11 33.6855 11.253 33.4325 11.506 33.4325H24.4096L27.7831 24.5771C27.8675 24.3241 28.1205 24.2397 28.2892 24.2397C28.5422 24.2397 28.7108 24.4928 28.7108 24.6614L29.6386 35.794L31.3253 29.3843C31.4096 29.1313 31.5783 28.9626 31.8313 29.047C32.0843 29.047 32.253 29.2156 32.3373 29.4687L33.2651 33.6855L34.7831 26.5169C34.8675 26.2638 35.0361 26.0952 35.2892 26.0952C35.5422 26.0952 35.7108 26.2638 35.7952 26.5169L37.2289 36.047L37.9879 33.6855C38.0723 33.5169 38.241 33.3482 38.494 33.3482H52.494C52.747 33.3482 53 33.6012 53 33.8542C53 34.1072 52.747 34.3602 52.494 34.3602H38.8313L37.4819 38.4084C37.4819 38.6614 37.2289 38.7458 36.9759 38.7458C36.7229 38.7458 36.5542 38.5771 36.5542 38.3241L35.2048 29.4687L33.7711 36.1313C33.6867 36.3843 33.5181 36.553 33.2651 36.553C33.012 36.553 32.8434 36.3843 32.759 36.1313L31.747 31.6614L29.8916 38.9988C29.8916 39.1675 29.6386 39.3361 29.4699 39.3361Z" fill="white"/>
<defs>
<filter id="filter0_bii_10555_47620" x="9.08693" y="11.1367" width="43.7759" height="41.7251" filterUnits="userSpaceOnUse" color-interpolation-filters="sRGB">
<feFlood flood-opacity="0" result="BackgroundImageFix"/>
<feGaussianBlur in="BackgroundImageFix" stdDeviation="0.732418"/>
<feComposite in2="SourceAlpha" operator="in" result="effect1_backgroundBlur_10555_47620"/>
<feBlend mode="normal" in="SourceGraphic" in2="effect1_backgroundBlur_10555_47620" result="shape"/>
<feColorMatrix in="SourceAlpha" type="matrix" values="0 0 0 0 0 0 0 0 0 0 0 0 0 0 0 0 0 0 127 0" result="hardAlpha"/>
<feOffset dx="-3.51561" dy="1.17187"/>
<feGaussianBlur stdDeviation="2.34374"/>
<feComposite in2="hardAlpha" operator="arithmetic" k2="-1" k3="1"/>
<feColorMatrix type="matrix" values="0 0 0 0 1 0 0 0 0 1 0 0 0 0 1 0 0 0 0.5 0"/>
<feBlend mode="normal" in2="shape" result="effect2_innerShadow_10555_47620"/>
<feColorMatrix in="SourceAlpha" type="matrix" values="0 0 0 0 0 0 0 0 0 0 0 0 0 0 0 0 0 0 127 0" result="hardAlpha"/>
<feOffset dx="0.878902" dy="-0.878902"/>
<feGaussianBlur stdDeviation="1.7578"/>
<feComposite in2="hardAlpha" operator="arithmetic" k2="-1" k3="1"/>
<feColorMatrix type="matrix" values="0 0 0 0 0 0 0 0 0 0 0 0 0 0 0 0 0 0 0.5 0"/>
<feBlend mode="normal" in2="effect2_innerShadow_10555_47620" result="effect3_innerShadow_10555_47620"/>
</filter>
</defs>
</svg>
