<svg width="25" height="24" viewBox="0 0 25 24" fill="none" xmlns="http://www.w3.org/2000/svg">
<path d="M15.0999 7.70002C15.0999 7.10002 15.5999 6.70002 16.0999 6.70002C16.6999 6.70002 17.0999 7.20002 17.0999 7.70002C17.0999 8.20002 16.5999 8.70002 16.0999 8.70002C15.4999 8.80002 15.0999 8.30002 15.0999 7.70002ZM22.4999 6.40002V17.5C22.4999 19.7 20.6999 21.6 18.3999 21.6H7.29993C5.09993 21.6 3.29993 19.8 3.29993 17.5V6.40002C3.29993 4.20002 5.09993 2.40002 7.29993 2.40002H18.3999C20.6999 2.40002 22.4999 4.20002 22.4999 6.40002ZM5.39993 6.40002V12.6L7.89993 10.2C8.59993 9.60002 9.39993 9.20002 10.1999 9.20002C11.0999 9.20002 11.8999 9.60002 12.4999 10.2L14.9999 12.7L15.2999 12.4C15.9999 11.8 16.7999 11.4 17.5999 11.4C18.4999 11.4 19.2999 11.8 19.8999 12.4L20.1999 12.7V6.40002C20.1999 5.30002 19.2999 4.40002 18.1999 4.40002H7.29993C6.29993 4.50002 5.39993 5.40002 5.39993 6.40002ZM20.3999 17.5V15.6L18.5999 13.8C18.2999 13.5 17.9999 13.4 17.6999 13.4C17.4999 13.4 17.1999 13.5 16.7999 13.8L16.4999 14.1L17.8999 15.5C18.2999 15.9 18.2999 16.6 17.8999 17C17.4999 17.4 16.7999 17.4 16.3999 17L11.0999 11.7C10.7999 11.4 10.4999 11.3 10.1999 11.3C9.89993 11.3 9.69993 11.4 9.29993 11.7L5.29993 15.7V17.6C5.29993 18.7 6.19993 19.6 7.29993 19.6H18.3999C19.4999 19.5 20.3999 18.6 20.3999 17.5Z" fill="black"/>
</svg>
