<svg width="54" height="54" viewBox="0 0 54 54" fill="none" xmlns="http://www.w3.org/2000/svg">
<g id="chart-pie">
<g id="Vector" filter="url(#filter0_d_7247_40891)">
<path fill-rule="evenodd" clip-rule="evenodd" d="M22.2237 5.32775C23.3305 5.21178 24.4395 5.53616 25.3098 6.23216C26.1938 6.93912 26.758 7.97068 26.8761 9.09662C26.8845 9.17703 26.8887 9.25783 26.8887 9.33868V24.2202C26.8887 25.2862 27.7535 26.1518 28.8219 26.1518H43.2832C45.7383 26.1518 47.73 28.1417 47.73 30.5979C47.73 30.7744 47.7099 30.9502 47.67 31.1221C45.2763 41.444 35.7037 48.4724 25.1364 47.6687C14.5691 46.865 6.17012 38.4698 5.36604 27.9045C4.56287 17.3511 11.578 7.79185 21.8831 5.38579C21.936 5.37272 21.9898 5.36144 22.0442 5.35201C22.1042 5.34153 22.1641 5.33347 22.2237 5.32775ZM22.2483 10.081C14.5498 12.2218 9.38177 19.5205 9.99305 27.5524C10.6231 35.8313 17.2049 42.4117 25.4883 43.0417C33.5241 43.6528 40.8246 38.4862 42.9664 30.7922H28.8219C25.1922 30.7922 22.2483 27.8506 22.2483 24.2202V10.081Z" fill="black"/>
<path fill-rule="evenodd" clip-rule="evenodd" d="M33.8994 6.10644C33.7608 6.05375 33.6158 6.01397 33.466 5.98855C33.1948 5.94188 32.923 5.94496 32.6619 5.99248C32.321 6.05378 32.0059 6.18954 31.7342 6.38232C31.4623 6.57452 31.2298 6.82641 31.0588 7.12737C30.9271 7.35809 30.8338 7.6136 30.7878 7.88516C30.7622 8.03388 30.7515 8.18275 30.755 8.32995V17.8426C30.755 20.2989 32.7467 22.2888 35.2018 22.2888H44.7718C45.5246 22.2888 46.2305 21.9236 46.6655 21.3092C47.1004 20.6949 47.2103 19.9077 46.9602 19.1977C44.8071 13.085 40.006 8.27413 33.8994 6.10644ZM35.3954 11.9199V17.6484H41.1266C39.7122 15.3012 37.7437 13.3336 35.3954 11.9199Z" fill="black"/>
</g>
</g>
<defs>
<filter id="filter0_d_7247_40891" x="3.30353" y="5.30469" width="46.4265" height="46.4258" filterUnits="userSpaceOnUse" color-interpolation-filters="sRGB">
<feFlood flood-opacity="0" result="BackgroundImageFix"/>
<feColorMatrix in="SourceAlpha" type="matrix" values="0 0 0 0 0 0 0 0 0 0 0 0 0 0 0 0 0 0 127 0" result="hardAlpha"/>
<feOffset dy="2"/>
<feGaussianBlur stdDeviation="1"/>
<feComposite in2="hardAlpha" operator="out"/>
<feColorMatrix type="matrix" values="0 0 0 0 1 0 0 0 0 1 0 0 0 0 1 0 0 0 0.2 0"/>
<feBlend mode="normal" in2="BackgroundImageFix" result="effect1_dropShadow_7247_40891"/>
<feBlend mode="normal" in="SourceGraphic" in2="effect1_dropShadow_7247_40891" result="shape"/>
</filter>
</defs>
</svg>
