<svg width="24" height="24" viewBox="0 0 24 24" fill="none" xmlns="http://www.w3.org/2000/svg">
<path d="M21.3 8.7999L15.8 3.2999L15.2 2.6999C14.8 2.2999 14.1 2.2999 13.7 2.6999C13.4 2.9999 13.3 3.5999 13.5 3.9999L9.99996 7.4999L5.79996 9.0999C5.69996 9.0999 5.59996 9.1999 5.49996 9.2999L3.79996 10.9999C3.39996 11.3999 3.39996 12.0999 3.79996 12.4999L6.89996 15.5999L2.69996 19.7999C2.29996 20.1999 2.29996 20.8999 2.69996 21.2999C3.09996 21.6999 3.79996 21.6999 4.19996 21.2999L8.39996 17.0999L11.5 20.1999C11.9 20.5999 12.6 20.5999 13 20.1999L14.7 18.4999C14.8 18.3999 14.9 18.2999 14.9 18.0999L16.5 13.8999L20 10.3999C20.4 10.5999 20.9 10.5999 21.3 10.1999C21.7 9.8999 21.7 9.1999 21.3 8.7999ZM14.8 12.5999C14.7 12.6999 14.6 12.7999 14.6 12.9999L13 17.1999L12.3 17.9999L5.99996 11.6999L6.79996 10.9999L11 9.3999C11.1 9.2999 11.3 9.2999 11.4 9.1999L15 5.4999L18.5 8.9999L14.8 12.5999Z" fill="black"/>
</svg>
