<svg width="24" height="24" viewBox="0 0 24 24" fill="none" xmlns="http://www.w3.org/2000/svg">
<path d="M21.7 20.3L15.5 14.1L3.70002 2.3C3.30002 1.9 2.60002 1.9 2.20002 2.3C1.80002 2.7 1.80002 3.4 2.20002 3.8L7.20002 8.8L6.60002 9C6.50002 9.1 6.40002 9.2 6.30002 9.3L4.80002 10.8C4.40002 11.2 4.40002 11.9 4.80002 12.3L7.50002 15L3.70002 18.8C3.30002 19.2 3.30002 19.9 3.70002 20.3C4.10002 20.7 4.80002 20.7 5.20002 20.3L9.00002 16.5L11.8 19.3C12.2 19.7 12.9 19.7 13.3 19.3L14.8 17.8C14.9 17.7 15 17.6 15 17.4L15.2 16.7L20.2 21.7C20.6 22.1 21.3 22.1 21.7 21.7C22.2 21.3 22.2 20.7 21.7 20.3ZM13.1 16.4L12.5 17L9.70002 14.2L7.00002 11.5L7.60002 10.9L8.90002 10.4L13.6 15.1L13.1 16.4ZM11 8.5C10.6 8.1 10.6 7.4 11 7L13.6 4.4C13.4 4 13.5 3.5 13.8 3.2C14.2 2.8 14.9 2.8 15.3 3.2L20.8 8.7C21.2 9.1 21.2 9.8 20.8 10.2C20.5 10.5 20 10.6 19.6 10.4L17 13C16.6 13.4 15.9 13.4 15.5 13C15.1 12.6 15.1 11.9 15.5 11.5L18 9L15 6L12.5 8.5C12.1 8.9 11.4 8.9 11 8.5Z" fill="black"/>
</svg>
