<svg width="24" height="24" viewBox="0 0 24 24" fill="none" xmlns="http://www.w3.org/2000/svg">
<path d="M17.9 13.0555L16 9.23563V4.4105C16.6 4.4105 17 3.90788 17 3.40526C17 2.80212 16.5 2.40002 16 2.40002H15H9H8C7.4 2.40002 7 2.90264 7 3.40526C7 4.0084 7.4 4.4105 8 4.4105V9.23563L6.1 13.0555C6 13.156 6 13.3571 6 13.5581V15.5686C6 16.1718 6.5 16.5738 7 16.5738H11V20.5948C11 21.1979 11.5 21.6 12 21.6C12.6 21.6 13 21.0974 13 20.5948V16.5738H17C17.6 16.5738 18 16.0712 18 15.5686V13.5581C18 13.3571 17.9 13.156 17.9 13.0555ZM15.9 14.4629H11.9H7.9V13.7592L9.8 9.93929C9.9 9.83877 9.9 9.63772 9.9 9.43667V4.4105H13.9V9.43667C13.9 9.63772 13.9 9.73824 14 9.93929L15.9 13.7592V14.4629Z" fill="black"/>
</svg>
