<svg width="24" height="10" viewBox="0 0 24 10" fill="none" xmlns="http://www.w3.org/2000/svg">
<path d="M5.486 7.156C4.914 7.156 4.42433 7.05633 4.017 6.857C3.61833 6.649 3.29333 6.38033 3.042 6.051C2.79067 5.713 2.60433 5.34467 2.483 4.946C2.36167 4.54733 2.301 4.15733 2.301 3.776C2.301 3.29933 2.35733 2.85733 2.47 2.45C2.59133 2.04267 2.77767 1.68733 3.029 1.384C3.28033 1.072 3.60533 0.829333 4.004 0.656C4.41133 0.482666 4.90533 0.396 5.486 0.396C6.136 0.396 6.721 0.539 7.241 0.825C7.761 1.111 8.17267 1.50967 8.476 2.021C8.788 2.52367 8.944 3.10867 8.944 3.776C8.944 4.46067 8.788 5.05867 8.476 5.57C8.164 6.07267 7.748 6.46267 7.228 6.74C6.708 7.01733 6.12733 7.156 5.486 7.156ZM4.94 5.843C5.39933 5.843 5.798 5.75633 6.136 5.583C6.48267 5.40967 6.747 5.17133 6.929 4.868C7.11967 4.556 7.215 4.192 7.215 3.776C7.215 3.152 7.01567 2.64933 6.617 2.268C6.227 1.88667 5.668 1.696 4.94 1.696C4.48067 1.696 4.06033 1.77833 3.679 1.943C3.30633 2.10767 3.01167 2.346 2.795 2.658C2.57833 2.96133 2.47 3.334 2.47 3.776C2.47 4.192 2.56967 4.556 2.769 4.868C2.96833 5.17133 3.25433 5.40967 3.627 5.583C3.99967 5.75633 4.43733 5.843 4.94 5.843ZM0.78 0.539H2.392L2.47 2.255V9.6H0.78V0.539ZM10.1872 0.539H11.8772V7H10.1872V0.539ZM14.3602 1.93C13.8749 1.93 13.4546 2.02533 13.0992 2.216C12.7439 2.398 12.4579 2.62333 12.2412 2.892C12.0246 3.16067 11.8729 3.42067 11.7862 3.672L11.7732 2.957C11.7819 2.853 11.8166 2.70133 11.8772 2.502C11.9379 2.294 12.0289 2.073 12.1502 1.839C12.2716 1.59633 12.4319 1.36667 12.6312 1.15C12.8306 0.924666 13.0732 0.742667 13.3592 0.604C13.6452 0.465333 13.9789 0.396 14.3602 0.396V1.93ZM19.214 7.156C18.3993 7.156 17.68 7.026 17.056 6.766C16.4407 6.506 15.9597 6.129 15.613 5.635C15.2663 5.13233 15.093 4.517 15.093 3.789C15.093 3.061 15.2663 2.44567 15.613 1.943C15.9597 1.43167 16.4407 1.046 17.056 0.786C17.68 0.526 18.3993 0.396 19.214 0.396C20.0287 0.396 20.7393 0.526 21.346 0.786C21.9613 1.046 22.4423 1.43167 22.789 1.943C23.1357 2.44567 23.309 3.061 23.309 3.789C23.309 4.517 23.1357 5.13233 22.789 5.635C22.4423 6.129 21.9613 6.506 21.346 6.766C20.7393 7.026 20.0287 7.156 19.214 7.156ZM19.214 5.856C19.6647 5.856 20.0677 5.778 20.423 5.622C20.787 5.45733 21.073 5.22333 21.281 4.92C21.489 4.608 21.593 4.231 21.593 3.789C21.593 3.347 21.489 2.97 21.281 2.658C21.073 2.33733 20.7913 2.09467 20.436 1.93C20.0807 1.76533 19.6733 1.683 19.214 1.683C18.7633 1.683 18.356 1.76533 17.992 1.93C17.628 2.09467 17.3377 2.333 17.121 2.645C16.913 2.957 16.809 3.33833 16.809 3.789C16.809 4.231 16.913 4.608 17.121 4.92C17.329 5.22333 17.615 5.45733 17.979 5.622C18.343 5.778 18.7547 5.856 19.214 5.856Z" fill="url(#paint0_diamond_381_8070)"/>
<defs>
<radialGradient id="paint0_diamond_381_8070" cx="0" cy="0" r="1" gradientUnits="userSpaceOnUse" gradientTransform="translate(9 18) rotate(-80.8376) scale(26.3765 393.035)">
<stop offset="0.276042" stop-color="#C6E216"/>
<stop offset="0.614583" stop-color="#E32900"/>
<stop offset="1" stop-color="#D808FA"/>
</radialGradient>
</defs>
</svg>
