<svg width="25" height="24" viewBox="0 0 25 24" fill="none" xmlns="http://www.w3.org/2000/svg">
<path d="M12.4192 12.7893C10.7236 12.7789 9.10035 12.1018 7.90131 10.9048C6.70228 9.70783 6.02402 8.08741 6.01352 6.39467C6.01352 4.6987 6.6884 3.07219 7.88971 1.87296C9.09102 0.673722 10.7203 0 12.4192 0C14.1181 0 15.7475 0.673722 16.9488 1.87296C18.1501 3.07219 18.825 4.6987 18.825 6.39467C18.8145 8.08741 18.1362 9.70783 16.9372 10.9048C15.7381 12.1018 14.1149 12.7789 12.4192 12.7893ZM12.4192 1.59867C11.1507 1.61674 9.9392 2.12784 9.04212 3.02337C8.14503 3.91891 7.63305 5.12832 7.61495 6.39467C7.63305 7.66102 8.14503 8.87043 9.04212 9.76597C9.9392 10.6615 11.1507 11.1726 12.4192 11.1907C13.6878 11.1726 14.8993 10.6615 15.7964 9.76597C16.6934 8.87043 17.2054 7.66102 17.2235 6.39467C17.2054 5.12832 16.6934 3.91891 15.7964 3.02337C14.8993 2.12784 13.6878 1.61674 12.4192 1.59867ZM18.6148 15.587C19.5165 15.5896 20.3805 15.9484 21.0182 16.5849C21.6558 17.2215 22.0152 18.084 22.0178 18.9842C22.0178 19.8852 21.6593 20.7492 21.0211 21.3863C20.3829 22.0234 19.5173 22.3813 18.6148 22.3813H6.22371C5.77505 22.3849 5.33026 22.2983 4.91585 22.1266C4.50144 21.955 4.12588 21.7018 3.81155 21.3822C3.4929 21.0714 3.24008 20.6999 3.06814 20.2897C2.89619 19.8794 2.80863 19.4389 2.81066 18.9942C2.81331 18.0949 3.17301 17.2334 3.81092 16.5985C4.44882 15.9635 5.31289 15.607 6.2137 15.607H18.6148M18.6148 14.0083H6.22371C4.89644 14.0083 3.62353 14.5347 2.68501 15.4716C1.74649 16.4085 1.21924 17.6792 1.21924 19.0042C1.21924 20.3291 1.74649 21.5999 2.68501 22.5368C3.62353 23.4737 4.89644 24 6.22371 24H18.6148C19.272 24 19.9227 23.8708 20.5299 23.6197C21.1371 23.3687 21.6888 23.0007 22.1535 22.5368C22.6182 22.0728 22.9868 21.5221 23.2383 20.916C23.4898 20.3099 23.6192 19.6602 23.6192 19.0042C23.6192 18.3481 23.4898 17.6985 23.2383 17.0923C22.9868 16.4862 22.6182 15.9355 22.1535 15.4716C21.6888 15.0077 21.1371 14.6397 20.5299 14.3886C19.9227 14.1375 19.272 14.0083 18.6148 14.0083Z" fill="white"/>
</svg>
