<svg width="25" height="25" viewBox="0 0 25 25" fill="none" xmlns="http://www.w3.org/2000/svg">
<path d="M11.8506 5.05514C10.8442 5.05514 9.83776 5.45771 9.33454 6.26286C8.83132 6.96737 9.13325 7.97381 8.3281 8.47703C7.62359 8.98025 6.61716 8.57767 6.41587 7.67188C6.21458 6.76608 6.7178 5.659 7.22102 4.95449C9.13325 2.23711 13.8635 1.83453 16.4803 3.74676C18.0906 4.95449 18.7951 6.86672 18.2918 8.8796C18.0906 9.7854 17.5873 10.5905 16.8828 11.1944C16.1783 11.8989 15.1719 12.1002 14.568 12.8047C13.8635 13.5092 13.6622 14.5157 13.6622 15.5221C13.6622 16.4279 13.0584 17.6356 11.8506 17.0318C10.1397 16.2266 11.6493 12.7041 12.3539 11.597C13.4609 10.0873 16.4803 9.58411 15.8764 7.16866C15.4738 5.15578 13.4609 5.05514 11.8506 5.05514ZM12.4545 19.3466C13.159 19.3466 13.6622 19.9504 13.6622 20.5543C13.6622 21.2588 13.0584 21.762 12.4545 21.762C11.75 21.762 11.2468 21.1581 11.2468 20.5543C11.2468 19.9504 11.75 19.3466 12.4545 19.3466Z" fill="black"/>
</svg>
