<?xml version="1.0" encoding="utf-8"?>
<!-- Generator: Adobe Illustrator 22.0.0, SVG Export Plug-In . SVG Version: 6.00 Build 0)  -->
<svg version="1.1" id="Слой_1" xmlns="http://www.w3.org/2000/svg" xmlns:xlink="http://www.w3.org/1999/xlink" x="0px" y="0px"
	 viewBox="0 0 24 24" style="enable-background:new 0 0 24 24;" xml:space="preserve">
<style type="text/css">
	.st0{fill:#2E3436;}
</style>
<path class="st0" d="M13.2,3c-2.4,0-4.6,1.5-5.5,3.7C7.3,6.6,7,6.6,6.6,6.6c-2.3,0-4.2,1.9-4.2,4.2S4.3,15,6.6,15h12
	c1.7,0,3-1.3,3-3c0-1.4-1-2.7-2.4-2.9c0,0,0,0,0-0.1C19.2,5.7,16.5,3,13.2,3L13.2,3z M7.9,16.2c-0.6,0-1.1,0.3-1.3,0.9L6,19.5
	c-0.2,0.6,0.2,1.3,0.9,1.5c0.6,0.2,1.3-0.2,1.5-0.9L9,17.7c0.2-0.6-0.2-1.3-0.9-1.5C8,16.2,8,16.2,7.9,16.2z M12.1,16.2
	c-0.6,0-1.1,0.3-1.3,0.9l-0.6,2.4c-0.2,0.6,0.2,1.3,0.9,1.5c0.6,0.2,1.3-0.2,1.5-0.9l0.6-2.4c0.2-0.6-0.2-1.3-0.9-1.5
	C12.2,16.2,12.2,16.2,12.1,16.2L12.1,16.2z M16.3,16.2c-0.6,0-1.1,0.3-1.3,0.9l-0.6,2.4c-0.2,0.6,0.2,1.3,0.9,1.5
	c0.6,0.2,1.3-0.2,1.5-0.9l0.6-2.4c0.2-0.6-0.2-1.3-0.9-1.5C16.4,16.2,16.4,16.2,16.3,16.2L16.3,16.2z"/>
</svg>
