<svg width="24" height="24" viewBox="0 0 24 24" fill="none" xmlns="http://www.w3.org/2000/svg">
<path d="M12.0001 14.4039C14.1001 14.4039 15.8001 12.7039 15.8001 10.6039V6.20393C15.8001 4.10393 14.1001 2.40393 12.0001 2.40393C9.9001 2.40393 8.2001 4.10393 8.2001 6.20393V10.7039C8.2001 12.7039 9.9001 14.4039 12.0001 14.4039ZM10.4001 6.20393C10.4001 5.30393 11.1001 4.60393 12.0001 4.60393C12.9001 4.60393 13.6001 5.30393 13.6001 6.20393V10.7039C13.6001 11.6039 12.9001 12.3039 12.0001 12.3039C11.1001 12.3039 10.4001 11.6039 10.4001 10.7039V6.20393ZM13.1001 17.9039V19.4039H15.6001C16.2001 19.4039 16.7001 19.9039 16.7001 20.5039C16.7001 21.1039 16.2001 21.6039 15.6001 21.6039H8.4001C7.8001 21.6039 7.3001 21.1039 7.3001 20.5039C7.3001 19.9039 7.8001 19.4039 8.4001 19.4039H10.9001V17.9039C7.4001 17.4039 4.6001 14.3039 4.6001 10.6039C4.6001 10.0039 5.1001 9.50393 5.7001 9.50393C6.3001 9.50393 6.8001 10.0039 6.8001 10.6039C6.8001 13.5039 9.1001 15.8039 12.0001 15.8039C14.9001 15.8039 17.2001 13.5039 17.2001 10.6039C17.2001 10.0039 17.7001 9.50393 18.3001 9.50393C18.9001 9.50393 19.4001 10.0039 19.4001 10.6039C19.4001 14.3039 16.6001 17.4039 13.1001 17.9039Z" fill="black"/>
</svg>
