<svg width="24" height="24" viewBox="0 0 24 24" fill="none" xmlns="http://www.w3.org/2000/svg">
<path fill-rule="evenodd" clip-rule="evenodd" d="M4.50012 5.91967C6.58316 3.40161 9.85178 2.04527 13.2179 2.4803C17.5586 3.04131 20.9877 6.44256 21.5901 10.7847C21.6699 11.36 21.269 11.8912 20.6947 11.9712C20.1203 12.0511 19.5899 11.6495 19.5101 11.0742C19.038 7.67148 16.3508 5.00606 12.9491 4.56642C10.1068 4.19908 7.35319 5.46159 5.75498 7.7367H7.72512C8.30502 7.7367 8.77512 8.20756 8.77512 8.7884C8.77512 9.36925 8.30502 9.84011 7.72512 9.84011H4.01142C3.99323 9.84059 3.97499 9.84059 3.95672 9.84011H3.45012C2.87022 9.84011 2.40012 9.36925 2.40012 8.7884V4.50646C2.40012 3.92562 2.87022 3.45476 3.45012 3.45476C4.03002 3.45476 4.50012 3.92562 4.50012 4.50646V5.91967Z" fill="black"/>
<path fill-rule="evenodd" clip-rule="evenodd" d="M3.30559 12.0287C3.87997 11.9487 4.41031 12.3503 4.49013 12.9256C4.96225 16.3283 7.64945 18.9937 11.0511 19.4334C13.8934 19.8007 16.6471 18.5382 18.2453 16.2631H16.2751C15.6952 16.2631 15.2251 15.7922 15.2251 15.2114C15.2251 14.6305 15.6952 14.1597 16.2751 14.1597H19.9895C20.0072 14.1592 20.025 14.1592 20.0428 14.1597H20.5501C21.13 14.1597 21.6001 14.6305 21.6001 15.2114V19.4933C21.6001 20.0742 21.13 20.545 20.5501 20.545C19.9702 20.545 19.5001 20.0742 19.5001 19.4933V18.0801C17.4171 20.5982 14.1485 21.9545 10.7824 21.5195C6.44162 20.9585 3.01257 17.5572 2.41012 13.2151C2.3303 12.6398 2.73121 12.1086 3.30559 12.0287Z" fill="black"/>
</svg>
