<svg width="20" height="21" viewBox="0 0 20 21" fill="none" xmlns="http://www.w3.org/2000/svg">
<rect y="0.454498" width="20" height="20" rx="10" fill="#F94C07"/>
<path d="M8.24174 11.6508C8.20095 11.6543 8.16026 11.656 8.11947 11.656C8.00788 11.656 7.89935 11.6398 7.79307 11.6151L5.33396 14.0854C5.21325 14.2064 5.21325 14.4031 5.33396 14.5242L5.9704 15.1637C6.0911 15.2848 6.28666 15.2848 6.40703 15.1637L9.36256 12.1953L8.81483 11.6017L8.24174 11.6508Z" fill="white"/>
<path d="M14.7132 7.69326C14.5978 7.57739 14.411 7.57739 14.2956 7.69326L12.702 9.29405C12.5512 9.44536 12.307 9.44536 12.1562 9.29405C12.0061 9.14285 12.0061 8.89769 12.1562 8.74654L13.7419 7.15396C13.8617 7.0335 13.8617 6.83822 13.7419 6.71748C13.6216 6.59718 13.4272 6.59718 13.3074 6.71748L11.7224 8.3099C11.5716 8.46137 11.3276 8.46137 11.1768 8.3099C11.0263 8.15876 11.0263 7.91343 11.1768 7.76241L12.7701 6.16178C12.8858 6.04573 12.8858 5.85776 12.7701 5.74155C12.6547 5.62548 12.4676 5.62548 12.3518 5.74155L10.5592 7.54242C10.1282 7.97565 9.99202 8.58376 10.1316 9.1371L11.3333 10.3443C11.8841 10.484 12.4898 10.3472 12.9203 9.91431L14.7132 8.11354C14.8289 7.99749 14.8289 7.80931 14.7132 7.69326Z" fill="white"/>
<path d="M6.00547 5.9043C5.94404 5.84258 5.86097 5.80873 5.77566 5.80873C5.75751 5.80873 5.73926 5.81028 5.72145 5.81328C5.61766 5.83092 5.52861 5.89784 5.48286 5.9931C4.95776 7.08338 5.17721 8.38797 6.02961 9.24427L7.55459 10.7759C7.70504 10.9273 7.90848 11.011 8.11947 11.011C8.14203 11.011 8.16465 11.0101 8.18721 11.0082L9.0726 10.9323L12.9334 15.1161C12.9934 15.1812 13.0773 15.2189 13.1658 15.2207C13.1676 15.2207 13.1695 15.2207 13.1714 15.2207C13.2579 15.2207 13.3407 15.1864 13.4022 15.1251L14.0634 14.4607C14.1245 14.3995 14.1586 14.3164 14.1586 14.2298C14.1586 14.1432 14.1245 14.06 14.0636 13.9988L6.00547 5.9043Z" fill="white"/>
</svg>
