<svg width="11" height="11" viewBox="0 0 11 11" fill="none" xmlns="http://www.w3.org/2000/svg">
<g clip-path="url(#clip0_9709_37562)">
<path d="M0 9.74797C0 10.0763 0.265076 10.3414 0.593454 10.3414H10.4065C10.7349 10.3414 11 10.0763 11 9.74797C11 9.64378 10.9723 9.54092 10.9209 9.45124L6.01367 0.952977C5.90816 0.769666 5.71167 0.65625 5.50066 0.65625C5.28965 0.65625 5.09315 0.769666 4.98633 0.952977L0.0791272 9.45124C0.0276945 9.54224 0 9.64378 0 9.74797Z" fill="#FFCC00"/>
<path d="M10.4065 10.3414H0.593454C0.266395 10.3414 0 10.075 0 9.74797C0 9.64378 0.0276945 9.54092 0.0791272 9.45124L4.98633 0.952977C5.09184 0.769666 5.28833 0.65625 5.50066 0.65625C5.71167 0.65625 5.90948 0.769666 6.01499 0.952977L10.9222 9.45124C10.9736 9.54092 11.0013 9.64378 11.0013 9.74797C11 10.075 10.7336 10.3414 10.4065 10.3414ZM5.50066 0.682626C5.29889 0.682626 5.1103 0.790766 5.01007 0.966165L0.102865 9.46443C0.0527515 9.55147 0.0263757 9.64906 0.0263757 9.74797C0.0263757 10.0605 0.280902 10.315 0.593454 10.315H10.4065C10.7191 10.315 10.9736 10.0605 10.9736 9.74797C10.9736 9.64906 10.9472 9.55015 10.8971 9.46443L5.99125 0.966165C5.8897 0.790766 5.70243 0.682626 5.50066 0.682626Z" fill="black"/>
<path d="M0.131866 9.7489C0.131866 10.0034 0.338916 10.2105 0.593442 10.2105H10.4065C10.6611 10.2105 10.8681 10.0034 10.8681 9.7489C10.8681 9.66846 10.847 9.58801 10.8061 9.51811L5.90024 1.01985C5.81716 0.877421 5.6655 0.789062 5.50065 0.789062C5.3358 0.789062 5.18282 0.877421 5.10106 1.01985L0.193849 9.51811C0.152967 9.58801 0.131866 9.66846 0.131866 9.7489ZM1.23437 9.30315C1.23437 9.27941 1.24097 9.25699 1.25152 9.23721L5.38459 2.07752C5.40833 2.03663 5.45185 2.01158 5.49933 2.01158C5.54681 2.01158 5.59033 2.03663 5.61406 2.07752L9.74714 9.23721C9.75901 9.25699 9.76429 9.27941 9.76429 9.30315C9.76429 9.37568 9.70494 9.43503 9.63241 9.43503H1.36625C1.29372 9.43503 1.23437 9.37568 1.23437 9.30315Z" fill="#FF0000"/>
<path d="M5.61409 4.48538C5.61409 4.26514 5.74861 4.09766 5.97016 4.09766C6.3658 4.09766 6.62824 4.49857 6.62824 4.75705C6.62824 5.0696 6.37371 5.30039 6.14556 5.30039C5.91741 5.30039 5.61409 4.82563 5.61409 4.48538ZM7.58436 8.19513L6.44493 7.53705C6.40009 7.60563 6.3236 7.64651 6.24183 7.64651C6.23656 7.64651 6.23128 7.64651 6.22733 7.64651V8.85848C6.22733 9.00882 6.106 9.13147 5.95434 9.13147C5.804 9.13147 5.68135 9.01014 5.68135 8.85848V7.51727L4.38894 6.77084C4.34146 6.74446 4.31377 6.69435 4.31377 6.64028C4.31377 6.6139 4.32036 6.58753 4.33355 6.56511L4.43905 6.3818L4.09617 6.18398L4.0355 6.28948C3.99198 6.36465 3.91286 6.41081 3.82582 6.41081C3.69262 6.41081 3.58316 6.30267 3.58316 6.16815C3.58316 6.12595 3.59371 6.08375 3.61613 6.04682L4.25442 4.94036C4.2808 4.89288 4.33091 4.86519 4.38498 4.86519H5.34506C5.38594 4.86519 5.42682 4.88233 5.45452 4.91267L5.94247 5.42699C5.95961 5.44546 5.9728 5.46788 5.9794 5.49161L6.47658 7.34847L7.7347 8.07512C8.00901 7.77707 8.05121 7.55156 8.27672 7.29571L9.33703 9.13278H6.3025C6.89068 8.33624 7.13597 8.49713 7.58436 8.19513ZM5.03646 5.34655H4.57884L4.18716 6.0244L4.53005 6.22222L5.03646 5.34655ZM5.87126 6.9581L5.61673 6.00726L5.26857 6.60995L5.87126 6.9581ZM4.95734 7.23769L4.34542 6.88425L4.42718 7.55024L3.75065 8.72132C3.72691 8.7622 3.71372 8.80968 3.71372 8.85716C3.71372 9.0075 3.83505 9.13015 3.98671 9.13015C4.0843 9.13015 4.17398 9.07871 4.22277 8.99431L4.98107 7.67816C4.99426 7.65574 5.00086 7.62937 5.00086 7.60299C5.00086 7.5964 5.00086 7.59112 4.99954 7.58453L4.95734 7.23769Z" fill="black"/>
</g>
<defs>
<clipPath id="clip0_9709_37562">
<rect width="11" height="9.68517" fill="white" transform="translate(0 0.65625)"/>
</clipPath>
</defs>
</svg>
