<svg width="60" height="60" viewBox="0 0 60 60" fill="none" xmlns="http://www.w3.org/2000/svg">
<path d="M26.4201 8.61178L26.0614 4.78551C26.0461 4.62315 25.8175 4.60227 25.7731 4.75919L24.0393 10.8918C24.0175 10.9689 24.0614 11.0494 24.1381 11.0727L25.6009 11.5179C25.657 11.535 25.6976 11.5837 25.7043 11.6419L26.1216 15.248C26.1402 15.4087 26.3668 15.4262 26.4098 15.2702L28.0472 9.3304C28.0687 9.25269 28.0236 9.17219 27.9462 9.14982L26.5258 8.7395C26.4677 8.7227 26.4257 8.67204 26.4201 8.61178Z" fill="url(#paint0_linear_1996_23462)"/>
<g filter="url(#filter0_bii_1996_23462)">
<path d="M35.8999 45.9204L35.8999 47.2726C33.6011 49.639 22.3101 49.1657 20.6875 47.2726L20.6875 45.3119C20.6875 44.2977 20.4846 44.0273 19.4705 43.2159C18.4563 42.4046 17.8478 42.2018 16.2252 39.0241C14.927 36.4819 15.6342 31.7271 15.6843 28.612C15.7344 25.497 14.5875 16.9108 15.1609 14.1386C15.7344 11.3664 18.4563 11.434 19.4705 12.3805C20.4846 13.3271 20.2946 19.8134 20.4846 19.8903C21.3636 17.3887 25.6906 17.3887 26.6372 19.0113C27.7866 15.9689 32.8574 16.2393 33.0602 19.9579C34.1921 17.857 34.6653 9 37.843 9C40.277 9.05409 40.9306 11.2762 40.9531 12.3805C41.0207 13.3947 39.8714 22.3869 39.7361 23.6715C39.6009 24.9561 39.348 26.1055 39.348 28.4768C39.4832 30.6404 38.8071 33.48 42.4581 33.6828C46.1091 33.8857 49.6248 35.4407 51.3827 37.7395C53.1406 40.0382 52.5321 41.2552 51.7884 42.4046C51.0446 43.554 48.6107 42.4722 47.7317 41.7961C46.8528 41.12 44.6892 40.4439 42.7961 40.3087C40.903 40.1735 39.1452 42.4722 38.4691 43.4864C37.793 44.5005 37.0492 44.9738 36.4407 45.3119C35.9539 45.5823 35.8773 45.8302 35.8999 45.9204Z" fill="url(#paint1_linear_1996_23462)"/>
</g>
<g filter="url(#filter1_d_1996_23462)">
<g filter="url(#filter2_ii_1996_23462)">
<path d="M26.7051 27.5303L26.6375 19.0114C26.6375 19.0114 25.3529 17.1859 22.3104 18.2001C21.2962 18.6057 20.9582 19.0114 20.4849 19.8903C19.4031 21.8993 20.4173 26.5838 20.6201 27.3951C20.823 28.2064 21.4991 30.0995 23.933 30.4376C25.8802 30.708 26.5924 28.6121 26.7051 27.5303Z" fill="white" fill-opacity="0.01"/>
</g>
<g filter="url(#filter3_ii_1996_23462)">
<path d="M33.1956 26.5839L33.0603 19.9581C33.0603 18.4705 31.7487 16.8615 29.7474 16.9156C27.7461 16.9697 26.8402 18.3805 26.6373 19.0791C26.6599 21.3553 26.7049 26.1647 26.7049 27.1924C26.7049 28.477 26.9078 30.6405 30.0179 30.911C32.5059 31.1273 33.173 28.1164 33.1956 26.5839Z" fill="white" fill-opacity="0.01"/>
</g>
</g>
<g filter="url(#filter4_bii_1996_23462)">
<path d="M36.4408 45.9204C36.4408 45.7041 36.1704 45.6049 36.0351 45.5824C36.0351 47.0698 20.6875 47.2726 20.6875 45.5148C20.1466 45.5148 19.6057 45.7176 19.6057 46.0557L19.6057 54.0686C19.6057 54.6542 19.8593 55.1987 20.4232 55.3565C23.0643 56.0958 30.8924 56.3032 34.9796 55.4148C35.8854 55.2179 36.4408 54.3772 36.4408 53.4503L36.4408 45.9204Z" fill="#D808FA"/>
</g>
<g filter="url(#filter5_f_1996_23462)">
<path d="M18.8341 34.4844C18.4841 35.591 18.4925 37.7477 19.4885 38.621C20.4845 39.4943 23.036 41.7548 24.4553 41.8661C25.8746 41.9774 27.5706 40.6376 27.5336 38.9815C27.4966 37.3254 25.3471 32.5086 23.8702 31.9146C22.3933 31.3205 20.9637 31.7959 20.4305 32.041C19.8974 32.2861 19.1841 33.3779 18.8341 34.4844Z" fill="url(#paint2_radial_1996_23462)" fill-opacity="0.32"/>
</g>
<g filter="url(#filter6_f_1996_23462)">
<path d="M30.4394 37.9303C31.0343 38.9268 32.6524 40.3527 33.9668 40.1879C35.2811 40.0231 38.6656 39.6165 39.6913 38.6292C40.717 37.642 40.8415 35.4842 39.5787 34.4121C38.3159 33.34 33.2871 31.7486 31.8622 32.4584C30.4373 33.1681 29.8434 34.5527 29.6726 35.1141C29.5019 35.6755 29.8445 36.9338 30.4394 37.9303Z" fill="url(#paint3_radial_1996_23462)" fill-opacity="0.32"/>
</g>
<path d="M26.7048 27.5303L26.6372 19.0114C26.6372 19.0114 25.3526 17.1859 22.3101 18.2001C21.296 18.6057 20.9579 19.0114 20.4847 19.8903C19.4029 21.8993 20.417 26.5838 20.6199 27.3951C20.8227 28.2064 21.4988 30.0995 23.9328 30.4376C25.88 30.708 26.5921 28.6121 26.7048 27.5303Z" fill="url(#paint4_linear_1996_23462)"/>
<path d="M33.1956 26.5839L33.0603 19.9581C33.0603 18.4705 31.7487 16.8615 29.7474 16.9156C27.7461 16.9697 26.8402 18.3805 26.6373 19.0791C26.6599 21.3553 26.7049 26.1647 26.7049 27.1924C26.7049 28.477 26.9078 30.6405 30.0179 30.911C32.5059 31.1273 33.173 28.1164 33.1956 26.5839Z" fill="url(#paint5_linear_1996_23462)"/>
<g filter="url(#filter7_bii_1996_23462)">
<path d="M41.8823 31.9672L40.5476 19.3639C40.4907 18.8259 39.7387 18.7491 39.5741 19.2645L33.1593 39.351C33.0725 39.6226 33.2302 39.9117 33.5055 39.9859L38.8938 41.4377C39.089 41.4903 39.2333 41.6552 39.2595 41.8557L40.8127 53.7397C40.8822 54.2714 41.6264 54.3356 41.7859 53.8235L47.8435 34.3707C47.9286 34.0974 47.7673 33.8086 47.49 33.7377L42.2556 32.399C42.0532 32.3472 41.9043 32.175 41.8823 31.9672Z" fill="white" fill-opacity="0.5"/>
</g>
<defs>
<filter id="filter0_bii_1996_23462" x="11.7547" y="6" width="43.7705" height="45.8748" filterUnits="userSpaceOnUse" color-interpolation-filters="sRGB">
<feFlood flood-opacity="0" result="BackgroundImageFix"/>
<feGaussianBlur in="BackgroundImageFix" stdDeviation="1.5"/>
<feComposite in2="SourceAlpha" operator="in" result="effect1_backgroundBlur_1996_23462"/>
<feBlend mode="normal" in="SourceGraphic" in2="effect1_backgroundBlur_1996_23462" result="shape"/>
<feColorMatrix in="SourceAlpha" type="matrix" values="0 0 0 0 0 0 0 0 0 0 0 0 0 0 0 0 0 0 127 0" result="hardAlpha"/>
<feOffset dx="-3.24531" dy="1.08177"/>
<feGaussianBlur stdDeviation="2.16354"/>
<feComposite in2="hardAlpha" operator="arithmetic" k2="-1" k3="1"/>
<feColorMatrix type="matrix" values="0 0 0 0 1 0 0 0 0 1 0 0 0 0 1 0 0 0 0.5 0"/>
<feBlend mode="normal" in2="shape" result="effect2_innerShadow_1996_23462"/>
<feColorMatrix in="SourceAlpha" type="matrix" values="0 0 0 0 0 0 0 0 0 0 0 0 0 0 0 0 0 0 127 0" result="hardAlpha"/>
<feOffset dx="0.811328" dy="-0.811328"/>
<feGaussianBlur stdDeviation="1.62266"/>
<feComposite in2="hardAlpha" operator="arithmetic" k2="-1" k3="1"/>
<feColorMatrix type="matrix" values="0 0 0 0 0 0 0 0 0 0 0 0 0 0 0 0 0 0 0.5 0"/>
<feBlend mode="normal" in2="effect2_innerShadow_1996_23462" result="effect3_innerShadow_1996_23462"/>
</filter>
<filter id="filter1_d_1996_23462" x="18.3714" y="15.2916" width="17.5286" height="18.3349" filterUnits="userSpaceOnUse" color-interpolation-filters="sRGB">
<feFlood flood-opacity="0" result="BackgroundImageFix"/>
<feColorMatrix in="SourceAlpha" type="matrix" values="0 0 0 0 0 0 0 0 0 0 0 0 0 0 0 0 0 0 127 0" result="hardAlpha"/>
<feOffset dx="0.540885" dy="0.540885"/>
<feGaussianBlur stdDeviation="1.08177"/>
<feComposite in2="hardAlpha" operator="out"/>
<feColorMatrix type="matrix" values="0 0 0 0 0 0 0 0 0 0 0 0 0 0 0 0 0 0 0.12 0"/>
<feBlend mode="normal" in2="BackgroundImageFix" result="effect1_dropShadow_1996_23462"/>
<feBlend mode="normal" in="SourceGraphic" in2="effect1_dropShadow_1996_23462" result="shape"/>
</filter>
<filter id="filter2_ii_1996_23462" x="19.1827" y="17.082" width="10.7677" height="15.0021" filterUnits="userSpaceOnUse" color-interpolation-filters="sRGB">
<feFlood flood-opacity="0" result="BackgroundImageFix"/>
<feBlend mode="normal" in="SourceGraphic" in2="BackgroundImageFix" result="shape"/>
<feColorMatrix in="SourceAlpha" type="matrix" values="0 0 0 0 0 0 0 0 0 0 0 0 0 0 0 0 0 0 127 0" result="hardAlpha"/>
<feOffset dx="-0.811328" dy="1.62266"/>
<feGaussianBlur stdDeviation="1.62266"/>
<feComposite in2="hardAlpha" operator="arithmetic" k2="-1" k3="1"/>
<feColorMatrix type="matrix" values="0 0 0 0 1 0 0 0 0 1 0 0 0 0 1 0 0 0 0.32 0"/>
<feBlend mode="normal" in2="shape" result="effect1_innerShadow_1996_23462"/>
<feColorMatrix in="SourceAlpha" type="matrix" values="0 0 0 0 0 0 0 0 0 0 0 0 0 0 0 0 0 0 127 0" result="hardAlpha"/>
<feOffset dx="4.32708" dy="-0.811328"/>
<feGaussianBlur stdDeviation="1.62266"/>
<feComposite in2="hardAlpha" operator="arithmetic" k2="-1" k3="1"/>
<feColorMatrix type="matrix" values="0 0 0 0 0 0 0 0 0 0 0 0 0 0 0 0 0 0 0.32 0"/>
<feBlend mode="normal" in2="effect1_innerShadow_1996_23462" result="effect2_innerShadow_1996_23462"/>
</filter>
<filter id="filter3_ii_1996_23462" x="25.826" y="16.1029" width="10.6149" height="16.4418" filterUnits="userSpaceOnUse" color-interpolation-filters="sRGB">
<feFlood flood-opacity="0" result="BackgroundImageFix"/>
<feBlend mode="normal" in="SourceGraphic" in2="BackgroundImageFix" result="shape"/>
<feColorMatrix in="SourceAlpha" type="matrix" values="0 0 0 0 0 0 0 0 0 0 0 0 0 0 0 0 0 0 127 0" result="hardAlpha"/>
<feOffset dx="-0.811328" dy="1.62266"/>
<feGaussianBlur stdDeviation="1.62266"/>
<feComposite in2="hardAlpha" operator="arithmetic" k2="-1" k3="1"/>
<feColorMatrix type="matrix" values="0 0 0 0 1 0 0 0 0 1 0 0 0 0 1 0 0 0 0.32 0"/>
<feBlend mode="normal" in2="shape" result="effect1_innerShadow_1996_23462"/>
<feColorMatrix in="SourceAlpha" type="matrix" values="0 0 0 0 0 0 0 0 0 0 0 0 0 0 0 0 0 0 127 0" result="hardAlpha"/>
<feOffset dx="4.32708" dy="-0.811328"/>
<feGaussianBlur stdDeviation="1.62266"/>
<feComposite in2="hardAlpha" operator="arithmetic" k2="-1" k3="1"/>
<feColorMatrix type="matrix" values="0 0 0 0 0 0 0 0 0 0 0 0 0 0 0 0 0 0 0.32 0"/>
<feBlend mode="normal" in2="effect1_innerShadow_1996_23462" result="effect2_innerShadow_1996_23462"/>
</filter>
<filter id="filter4_bii_1996_23462" x="16.3604" y="42.5148" width="23.0804" height="16.4853" filterUnits="userSpaceOnUse" color-interpolation-filters="sRGB">
<feFlood flood-opacity="0" result="BackgroundImageFix"/>
<feGaussianBlur in="BackgroundImageFix" stdDeviation="1.5"/>
<feComposite in2="SourceAlpha" operator="in" result="effect1_backgroundBlur_1996_23462"/>
<feBlend mode="normal" in="SourceGraphic" in2="effect1_backgroundBlur_1996_23462" result="shape"/>
<feColorMatrix in="SourceAlpha" type="matrix" values="0 0 0 0 0 0 0 0 0 0 0 0 0 0 0 0 0 0 127 0" result="hardAlpha"/>
<feOffset dx="-3.24531" dy="1.08177"/>
<feGaussianBlur stdDeviation="2.16354"/>
<feComposite in2="hardAlpha" operator="arithmetic" k2="-1" k3="1"/>
<feColorMatrix type="matrix" values="0 0 0 0 1 0 0 0 0 1 0 0 0 0 1 0 0 0 0.5 0"/>
<feBlend mode="normal" in2="shape" result="effect2_innerShadow_1996_23462"/>
<feColorMatrix in="SourceAlpha" type="matrix" values="0 0 0 0 0 0 0 0 0 0 0 0 0 0 0 0 0 0 127 0" result="hardAlpha"/>
<feOffset dx="0.811328" dy="-0.811328"/>
<feGaussianBlur stdDeviation="1.62266"/>
<feComposite in2="hardAlpha" operator="arithmetic" k2="-1" k3="1"/>
<feColorMatrix type="matrix" values="0 0 0 0 0 0 0 0 0 0 0 0 0 0 0 0 0 0 0.5 0"/>
<feBlend mode="normal" in2="effect2_innerShadow_1996_23462" result="effect3_innerShadow_1996_23462"/>
</filter>
<filter id="filter5_f_1996_23462" x="17.002" y="30.0055" width="12.1549" height="13.4898" filterUnits="userSpaceOnUse" color-interpolation-filters="sRGB">
<feFlood flood-opacity="0" result="BackgroundImageFix"/>
<feBlend mode="normal" in="SourceGraphic" in2="BackgroundImageFix" result="shape"/>
<feGaussianBlur stdDeviation="0.811328" result="effect1_foregroundBlur_1996_23462"/>
</filter>
<filter id="filter6_f_1996_23462" x="28.0061" y="30.6593" width="14.1097" height="11.1643" filterUnits="userSpaceOnUse" color-interpolation-filters="sRGB">
<feFlood flood-opacity="0" result="BackgroundImageFix"/>
<feBlend mode="normal" in="SourceGraphic" in2="BackgroundImageFix" result="shape"/>
<feGaussianBlur stdDeviation="0.811328" result="effect1_foregroundBlur_1996_23462"/>
</filter>
<filter id="filter7_bii_1996_23462" x="30.1354" y="15.9164" width="20.7308" height="41.2585" filterUnits="userSpaceOnUse" color-interpolation-filters="sRGB">
<feFlood flood-opacity="0" result="BackgroundImageFix"/>
<feGaussianBlur in="BackgroundImageFix" stdDeviation="1.5"/>
<feComposite in2="SourceAlpha" operator="in" result="effect1_backgroundBlur_1996_23462"/>
<feBlend mode="normal" in="SourceGraphic" in2="effect1_backgroundBlur_1996_23462" result="shape"/>
<feColorMatrix in="SourceAlpha" type="matrix" values="0 0 0 0 0 0 0 0 0 0 0 0 0 0 0 0 0 0 127 0" result="hardAlpha"/>
<feOffset dx="0.5" dy="-0.5"/>
<feGaussianBlur stdDeviation="0.6"/>
<feComposite in2="hardAlpha" operator="arithmetic" k2="-1" k3="1"/>
<feColorMatrix type="matrix" values="0 0 0 0 0 0 0 0 0 0 0 0 0 0 0 0 0 0 0.4 0"/>
<feBlend mode="normal" in2="shape" result="effect2_innerShadow_1996_23462"/>
<feColorMatrix in="SourceAlpha" type="matrix" values="0 0 0 0 0 0 0 0 0 0 0 0 0 0 0 0 0 0 127 0" result="hardAlpha"/>
<feOffset dx="-0.5" dy="0.5"/>
<feGaussianBlur stdDeviation="0.6"/>
<feComposite in2="hardAlpha" operator="arithmetic" k2="-1" k3="1"/>
<feColorMatrix type="matrix" values="0 0 0 0 1 0 0 0 0 1 0 0 0 0 1 0 0 0 0.6 0"/>
<feBlend mode="normal" in2="effect2_innerShadow_1996_23462" result="effect3_innerShadow_1996_23462"/>
</filter>
<linearGradient id="paint0_linear_1996_23462" x1="24.6994" y1="6.65031" x2="28.7457" y2="7.83903" gradientUnits="userSpaceOnUse">
<stop stop-color="#E32900"/>
<stop offset="0.494792" stop-color="#C6E216"/>
<stop offset="1" stop-color="#D808FA"/>
</linearGradient>
<linearGradient id="paint1_linear_1996_23462" x1="15.8879" y1="19.1924" x2="46.0726" y2="47.2013" gradientUnits="userSpaceOnUse">
<stop stop-color="#E32900"/>
<stop offset="0.494792" stop-color="#C6E216"/>
<stop offset="1" stop-color="#D808FA"/>
</linearGradient>
<radialGradient id="paint2_radial_1996_23462" cx="0" cy="0" r="1" gradientUnits="userSpaceOnUse" gradientTransform="translate(23.3997 36.5865) rotate(122.415) scale(5.20646 6.46609)">
<stop stop-color="white"/>
<stop offset="1" stop-color="white" stop-opacity="0"/>
</radialGradient>
<radialGradient id="paint3_radial_1996_23462" cx="0" cy="0" r="1" gradientUnits="userSpaceOnUse" gradientTransform="translate(35.0429 35.9125) rotate(74.025) scale(5.20646 6.46609)">
<stop stop-color="white"/>
<stop offset="1" stop-color="white" stop-opacity="0"/>
</radialGradient>
<linearGradient id="paint4_linear_1996_23462" x1="26.4845" y1="19.0064" x2="23.2722" y2="25.0278" gradientUnits="userSpaceOnUse">
<stop stop-color="white" stop-opacity="0.16"/>
<stop offset="1" stop-color="white" stop-opacity="0"/>
</linearGradient>
<linearGradient id="paint5_linear_1996_23462" x1="32.7048" y1="18.4655" x2="29.3566" y2="24.8135" gradientUnits="userSpaceOnUse">
<stop stop-color="white" stop-opacity="0.16"/>
<stop offset="1" stop-color="white" stop-opacity="0"/>
</linearGradient>
</defs>
</svg>
