<svg width="54" height="54" viewBox="0 0 54 54" fill="none" xmlns="http://www.w3.org/2000/svg">
<g id="rocket">
<g id="Vector" filter="url(#filter0_d_7247_40876)">
<path fill-rule="evenodd" clip-rule="evenodd" d="M38.2206 5.30618C38.2627 5.30388 38.3048 5.30273 38.347 5.30273C43.529 5.30273 47.7298 9.50359 47.7298 14.6856C47.7298 14.7277 47.7287 14.7699 47.7264 14.8119C47.2366 23.7949 41.6726 31.6618 33.4774 35.1552C32.8261 40.2152 29.8515 44.723 25.3804 47.3006C24.7048 47.6901 23.8788 47.7142 23.1816 47.3646C22.4845 47.0151 22.0096 46.3387 21.9176 45.5644C21.0192 38.0043 15.0693 32.0405 7.51601 31.1207C7.34618 31.1042 7.17672 31.0687 7.01074 31.0134C6.41702 30.8169 5.93906 30.391 5.66766 29.8509C5.39733 29.3105 5.34195 28.6729 5.53958 28.0797C5.59532 27.9112 5.66954 27.7521 5.75961 27.6043C8.34172 23.1599 12.8355 20.2041 17.8774 19.5551C21.3708 11.36 29.2377 5.79596 38.2206 5.30618ZM11.8332 27.3216C18.4457 29.3863 23.6463 34.5868 25.711 41.1994C27.685 39.1286 28.8684 36.3787 28.9653 33.4428C28.9969 32.4868 29.612 31.6481 30.5143 31.3307C37.6917 28.8058 42.6481 22.2181 43.0891 14.6268C43.0578 12.0543 40.9783 9.97476 38.4058 9.94348C30.8144 10.3845 24.2268 15.3408 21.7019 22.5182C21.3844 23.4206 20.5458 24.0356 19.5897 24.0672C16.6539 24.1642 13.904 25.3476 11.8332 27.3216Z" fill="black"/>
<path fill-rule="evenodd" clip-rule="evenodd" d="M16.8255 30.0245C17.4555 31.1404 17.0616 32.5557 15.9457 33.1856C12.3184 35.2335 10.0811 39.0099 9.94998 43.083C14.0231 42.9518 17.7995 40.7146 19.8473 37.0872C20.4773 35.9714 21.8926 35.5775 23.0084 36.2074C24.1243 36.8374 24.5182 38.2527 23.8882 39.3685C20.5937 45.2041 14.0878 48.457 7.44267 47.5913C6.39903 47.4553 5.57763 46.6339 5.44167 45.5903C4.57592 38.9451 7.82885 32.4393 13.6644 29.1447C14.7803 28.5148 16.1956 28.9087 16.8255 30.0245Z" fill="black"/>
<path fill-rule="evenodd" clip-rule="evenodd" d="M33.6052 19.3847C33.6052 19.3847 33.6045 19.3887 33.6045 19.3941C33.6045 19.3995 33.6052 19.4034 33.6052 19.4034L33.6062 19.4066C33.6062 19.4066 33.6097 19.4134 33.6144 19.4181C33.6192 19.4229 33.626 19.4264 33.626 19.4264L33.6292 19.4274C33.6292 19.4274 33.6331 19.4281 33.6385 19.4281C33.6439 19.4281 33.6478 19.4274 33.6478 19.4274L33.651 19.4264C33.651 19.4264 33.6578 19.4229 33.6626 19.4181C33.6673 19.4134 33.6708 19.4066 33.6708 19.4066L33.6718 19.4034C33.6718 19.4034 33.6725 19.3995 33.6725 19.3941C33.6725 19.3887 33.6718 19.3847 33.6718 19.3847L33.6708 19.3815C33.6708 19.3815 33.6673 19.3748 33.6626 19.37C33.6578 19.3652 33.651 19.3617 33.651 19.3617L33.6478 19.3608C33.6478 19.3608 33.6439 19.36 33.6385 19.36C33.6331 19.36 33.6292 19.3608 33.6292 19.3608L33.626 19.3617C33.626 19.3617 33.6192 19.3652 33.6144 19.37C33.6097 19.3748 33.6062 19.3815 33.6062 19.3815L33.6052 19.3847ZM28.9641 19.3941C28.9641 16.8124 31.0569 14.7196 33.6385 14.7196C36.2201 14.7196 38.3129 16.8124 38.3129 19.3941C38.3129 21.9757 36.2201 24.0685 33.6385 24.0685C31.0569 24.0685 28.9641 21.9757 28.9641 19.3941Z" fill="black"/>
</g>
</g>
<defs>
<filter id="filter0_d_7247_40876" x="3.30334" y="5.30273" width="46.4265" height="46.4277" filterUnits="userSpaceOnUse" color-interpolation-filters="sRGB">
<feFlood flood-opacity="0" result="BackgroundImageFix"/>
<feColorMatrix in="SourceAlpha" type="matrix" values="0 0 0 0 0 0 0 0 0 0 0 0 0 0 0 0 0 0 127 0" result="hardAlpha"/>
<feOffset dy="2"/>
<feGaussianBlur stdDeviation="1"/>
<feComposite in2="hardAlpha" operator="out"/>
<feColorMatrix type="matrix" values="0 0 0 0 1 0 0 0 0 1 0 0 0 0 1 0 0 0 0.4 0"/>
<feBlend mode="normal" in2="BackgroundImageFix" result="effect1_dropShadow_7247_40876"/>
<feBlend mode="normal" in="SourceGraphic" in2="effect1_dropShadow_7247_40876" result="shape"/>
</filter>
</defs>
</svg>
