<svg width="24" height="24" viewBox="0 0 24 24" fill="none" xmlns="http://www.w3.org/2000/svg">
<path d="M3.42841 18.1178V8.47098C3.42841 7.06693 3.97022 5.72039 4.93464 4.72758C5.89907 3.73477 7.20711 3.17701 8.57102 3.17701C9.93492 3.17701 11.243 3.73477 12.2074 4.72758C13.1718 5.72039 13.7136 7.06693 13.7136 8.47098V16.706C13.7136 17.4861 14.0146 18.2341 14.5504 18.7857C15.0862 19.3373 15.8129 19.6471 16.5706 19.6471C17.3284 19.6471 18.055 19.3373 18.5908 18.7857C19.1266 18.2341 19.4276 17.4861 19.4276 16.706V6.8592C18.6648 6.58167 18.0219 6.03546 17.6125 5.31712C17.203 4.59878 17.0535 3.75456 17.1902 2.93368C17.327 2.1128 17.7413 1.36813 18.3598 0.831287C18.9784 0.294444 19.7614 0 20.5704 0C21.3795 0 22.1625 0.294444 22.781 0.831287C23.3996 1.36813 23.8139 2.1128 23.9506 2.93368C24.0874 3.75456 23.9379 4.59878 23.5284 5.31712C23.119 6.03546 22.4761 6.58167 21.7132 6.8592V16.706C21.7132 18.1101 21.1714 19.4566 20.207 20.4494C19.2426 21.4422 17.9345 22 16.5706 22C15.2067 22 13.8987 21.4422 12.9343 20.4494C11.9698 19.4566 11.428 18.1101 11.428 16.706V8.47098C11.428 7.69095 11.127 6.94287 10.5912 6.39131C10.0554 5.83975 9.32874 5.52988 8.57102 5.52988C7.81329 5.52988 7.0866 5.83975 6.55081 6.39131C6.01502 6.94287 5.71401 7.69095 5.71401 8.47098V18.1178H9.14242L4.57121 24L0 18.1178H3.42841ZM20.5704 4.70632C20.8735 4.70632 21.1642 4.58238 21.3785 4.36175C21.5928 4.14113 21.7132 3.84189 21.7132 3.52988C21.7132 3.21787 21.5928 2.91864 21.3785 2.69802C21.1642 2.47739 20.8735 2.35345 20.5704 2.35345C20.2674 2.35345 19.9767 2.47739 19.7624 2.69802C19.548 2.91864 19.4276 3.21787 19.4276 3.52988C19.4276 3.84189 19.548 4.14113 19.7624 4.36175C19.9767 4.58238 20.2674 4.70632 20.5704 4.70632Z" fill="black"/>
</svg>
