<svg width="24" height="24" viewBox="0 0 24 24" fill="none" xmlns="http://www.w3.org/2000/svg">
<path d="M18.8 2.3999C17.3 2.3999 16.1 3.5999 16.1 5.0999C16.1 6.1999 16.7 7.0999 17.7 7.5999V17.2999C17.7 18.3999 16.8 19.3999 15.6 19.3999C14.5 19.3999 13.5 18.4999 13.5 17.2999V6.7999C13.5 4.3999 11.6 2.4999 9.2 2.4999C6.8 2.4999 4.9 4.3999 4.9 6.7999V17.0999H2.5L6 21.5999L9.5 17.0999H7.1V6.7999C7.1 5.6999 8 4.6999 9.2 4.6999C10.3 4.6999 11.3 5.5999 11.3 6.7999V17.2999C11.3 19.6999 13.2 21.5999 15.6 21.5999C18 21.5999 19.9 19.6999 19.9 17.2999V7.5999C20.8 7.1999 21.5 6.1999 21.5 5.0999C21.5 3.5999 20.3 2.3999 18.8 2.3999ZM18.8 6.0999C18.3 6.0999 17.8 5.6999 17.8 5.0999C17.8 4.4999 18.2 4.0999 18.8 4.0999C19.3 4.0999 19.8 4.4999 19.8 5.0999C19.8 5.6999 19.4 6.0999 18.8 6.0999Z" fill="black"/>
</svg>
