<svg width="243" height="243" viewBox="0 0 243 243" fill="none" xmlns="http://www.w3.org/2000/svg">
<g filter="url(#filter0_ii_3707_30586)">
<rect width="71.4976" height="32.3288" transform="matrix(0.708422 0.705789 -0.708422 0.705789 60.7129 23.9235)" fill="url(#paint0_linear_3707_30586)"/>
</g>
<g filter="url(#filter1_ii_3707_30586)">
<path fill-rule="evenodd" clip-rule="evenodd" d="M59.9829 27.7089C60.3904 27.3029 61.051 27.3029 61.4585 27.7089L74.7624 40.9633C75.1699 41.3692 75.1699 42.0275 74.7624 42.4335L70.4002 46.7794C69.9927 47.1854 69.3321 47.1854 68.9246 46.7794L55.6207 33.525C55.2132 33.119 55.2132 32.4608 55.6207 32.0548L59.9829 27.7089ZM52.9774 34.6883C53.3849 34.2823 54.0456 34.2823 54.4531 34.6883L67.757 47.9427C68.1645 48.3487 68.1645 49.0069 67.757 49.4129L63.3948 53.7588C62.9873 54.1648 62.3266 54.1648 61.9191 53.7588L48.6152 40.5044C48.2077 40.0984 48.2077 39.4402 48.6152 39.0342L52.9774 34.6883ZM47.4475 41.6678C47.04 41.2618 46.3793 41.2618 45.9718 41.6678L41.6096 46.0138C41.2021 46.4197 41.2021 47.078 41.6096 47.484L54.9135 60.7384C55.321 61.1444 55.9817 61.1444 56.3892 60.7384L60.7514 56.3924C61.1589 55.9864 61.1589 55.3282 60.7514 54.9222L47.4475 41.6678ZM76.3834 44.0484C76.7909 43.6424 77.4516 43.6424 77.8591 44.0484L91.1629 57.3028C91.5704 57.7088 91.5704 58.367 91.1629 58.773L86.8008 63.119C86.3933 63.525 85.7326 63.525 85.3251 63.119L72.0212 49.8646C71.6137 49.4586 71.6137 48.8004 72.0212 48.3944L76.3834 44.0484ZM70.8536 51.0278C70.4461 50.6219 69.7854 50.6219 69.3779 51.0278L65.0157 55.3738C64.6082 55.7798 64.6082 56.438 65.0157 56.844L78.3196 70.0984C78.7271 70.5044 79.3878 70.5044 79.7953 70.0984L84.1575 65.7524C84.565 65.3465 84.5649 64.6882 84.1575 64.2823L70.8536 51.0278ZM62.3724 58.0073C62.7799 57.6013 63.4406 57.6013 63.8481 58.0073L77.152 71.2617C77.5595 71.6677 77.5595 72.3259 77.152 72.7319L72.7898 77.0779C72.3823 77.4838 71.7216 77.4838 71.3141 77.0779L58.0102 63.8234C57.6027 63.4175 57.6027 62.7592 58.0102 62.3533L62.3724 58.0073ZM94.2597 60.3881C93.8522 59.9821 93.1915 59.9821 92.784 60.3881L88.4218 64.734C88.0143 65.14 88.0143 65.7982 88.4218 66.2042L101.726 79.4586C102.133 79.8646 102.794 79.8646 103.201 79.4586L107.564 75.1127C107.971 74.7067 107.971 74.0485 107.564 73.6425L94.2597 60.3881ZM85.7785 67.3675C86.186 66.9615 86.8467 66.9615 87.2542 67.3675L100.558 80.6219C100.966 81.0279 100.966 81.6861 100.558 82.0921L96.1959 86.4381C95.7884 86.8441 95.1277 86.8441 94.7202 86.4381L81.4163 73.1837C81.0088 72.7777 81.0088 72.1194 81.4163 71.7135L85.7785 67.3675ZM80.2487 74.3469C79.8412 73.941 79.1805 73.941 78.773 74.3469L74.4109 78.6929C74.0034 79.0989 74.0034 79.7571 74.4109 80.1631L87.7147 93.4175C88.1222 93.8235 88.7829 93.8235 89.1904 93.4175L93.5526 89.0715C93.9601 88.6656 93.9601 88.0073 93.5526 87.6014L80.2487 74.3469Z" fill="white" fill-opacity="0.01"/>
</g>
<g filter="url(#filter2_ii_3707_30586)">
<path fill-rule="evenodd" clip-rule="evenodd" d="M143.572 68.5917C145.919 66.2529 149.725 66.2529 152.073 68.5917L172.582 89.0241C174.929 91.3629 174.929 95.1548 172.582 97.4935L170.725 99.3434L141.715 70.4415L143.572 68.5917ZM147.268 90.9934L140.448 84.1996C135.362 79.1323 127.116 79.1323 122.03 84.1996L112.005 94.1872L101.746 83.967L98.5406 87.1608L108.799 97.381L98.1329 108.007C93.0466 113.075 93.0466 121.291 98.1329 126.358L104.952 133.152L99.7841 138.3C85.8284 125.724 68.839 121.862 60.8492 129.822C60.1031 130.566 59.4605 131.387 58.9188 132.277C68.1716 130.561 81.4404 135.869 92.8317 146.524L85.2224 154.105L85.97 154.85C83.8606 152.765 80.4546 152.77 78.3518 154.865C76.2437 156.966 76.2437 160.371 78.3518 162.471C80.4599 164.572 83.8778 164.572 85.9859 162.471C88.0887 160.376 88.094 156.983 86.0018 154.881L86.7492 155.626L94.3833 148.02L94.4394 148.076C106.171 159.764 112.102 173.809 110.297 183.465C111.191 182.925 112.015 182.285 112.761 181.541C120.875 173.458 116.752 156.128 103.658 142.106L108.799 136.984L116.259 144.417C121.345 149.484 129.592 149.484 134.678 144.417L145.344 133.79L155.603 144.011L158.808 140.817L148.55 130.597L158.575 120.609C163.661 115.542 163.661 107.326 158.575 102.259L151.114 94.826L158.652 87.316L154.806 83.4834L147.268 90.9934Z" fill="url(#paint1_linear_3707_30586)"/>
</g>
<g filter="url(#filter3_ii_3707_30586)">
<path fill-rule="evenodd" clip-rule="evenodd" d="M125.362 85.9898C128.608 82.756 133.871 82.756 137.116 85.9898L156.778 105.579C160.024 108.812 160.024 114.055 156.778 117.289C156.129 117.936 155.077 117.936 154.427 117.289L125.362 88.332C124.713 87.6852 124.713 86.6366 125.362 85.9898ZM120.846 90.4888C121.629 89.7092 122.898 89.7092 123.68 90.4888L152.262 118.965C153.045 119.745 153.045 121.009 152.262 121.788L135.862 138.128C135.079 138.907 133.811 138.907 133.028 138.128L104.446 109.652C103.663 108.872 103.663 107.608 104.446 106.828L120.846 90.4888ZM102.281 111.327C101.632 110.681 100.579 110.681 99.93 111.327C96.6841 114.561 96.6841 119.804 99.93 123.038L119.592 142.627C122.838 145.861 128.1 145.861 131.346 142.627C131.995 141.98 131.995 140.931 131.346 140.285L102.281 111.327Z" fill="white" fill-opacity="0.01"/>
</g>
<g filter="url(#filter4_ii_3707_30586)">
<rect width="71.4976" height="32.3288" transform="matrix(0.708422 0.705789 -0.708422 0.705789 168.425 131.235)" fill="url(#paint2_linear_3707_30586)"/>
</g>
<g filter="url(#filter5_ii_3707_30586)">
<path fill-rule="evenodd" clip-rule="evenodd" d="M167.695 135.021C168.103 134.615 168.763 134.615 169.171 135.021L182.475 148.275C182.882 148.681 182.882 149.339 182.475 149.745L178.113 154.091C177.705 154.497 177.044 154.497 176.637 154.091L163.333 140.837C162.926 140.431 162.926 139.773 163.333 139.367L167.695 135.021ZM160.69 142C161.097 141.594 161.758 141.594 162.165 142L175.469 155.255C175.877 155.661 175.877 156.319 175.469 156.725L171.107 161.071C170.7 161.477 170.039 161.477 169.632 161.071L156.328 147.816C155.92 147.41 155.92 146.752 156.328 146.346L160.69 142ZM155.16 148.98C154.752 148.574 154.092 148.574 153.684 148.98L149.322 153.326C148.915 153.732 148.915 154.39 149.322 154.796L162.626 168.05C163.033 168.456 163.694 168.456 164.102 168.05L168.464 163.704C168.871 163.298 168.871 162.64 168.464 162.234L155.16 148.98ZM184.096 151.36C184.503 150.954 185.164 150.954 185.571 151.36L198.875 164.615C199.283 165.021 199.283 165.679 198.875 166.085L194.513 170.431C194.106 170.837 193.445 170.837 193.037 170.431L179.734 157.177C179.326 156.771 179.326 156.112 179.734 155.706L184.096 151.36ZM178.566 158.34C178.158 157.934 177.498 157.934 177.09 158.34L172.728 162.686C172.321 163.092 172.321 163.75 172.728 164.156L186.032 177.41C186.439 177.816 187.1 177.816 187.508 177.41L191.87 173.064C192.277 172.658 192.277 172 191.87 171.594L178.566 158.34ZM170.085 165.319C170.492 164.913 171.153 164.913 171.56 165.319L184.864 178.574C185.272 178.98 185.272 179.638 184.864 180.044L180.502 184.39C180.095 184.796 179.434 184.796 179.027 184.39L165.723 171.135C165.315 170.729 165.315 170.071 165.723 169.665L170.085 165.319ZM201.972 167.7C201.565 167.294 200.904 167.294 200.496 167.7L196.134 172.046C195.727 172.452 195.727 173.11 196.134 173.516L209.438 186.771C209.846 187.177 210.506 187.177 210.914 186.771L215.276 182.425C215.683 182.019 215.683 181.36 215.276 180.954L201.972 167.7ZM193.491 174.68C193.898 174.274 194.559 174.274 194.967 174.68L208.27 187.934C208.678 188.34 208.678 188.998 208.27 189.404L203.908 193.75C203.501 194.156 202.84 194.156 202.433 193.75L189.129 180.496C188.721 180.09 188.721 179.431 189.129 179.025L193.491 174.68ZM187.961 181.659C187.554 181.253 186.893 181.253 186.485 181.659L182.123 186.005C181.716 186.411 181.716 187.069 182.123 187.475L195.427 200.73C195.835 201.136 196.495 201.136 196.903 200.73L201.265 196.384C201.672 195.978 201.672 195.319 201.265 194.913L187.961 181.659Z" fill="white" fill-opacity="0.01"/>
</g>
<g filter="url(#filter6_ii_3707_30586)">
<path d="M228.859 80.0722L230.627 74.7628C230.774 74.321 230.455 73.8628 229.989 73.8453L219.788 73.4632C219.083 73.4369 218.783 74.3469 219.366 74.7406L227.8 80.432C228.185 80.6917 228.713 80.5124 228.859 80.0722Z" fill="url(#paint3_diamond_3707_30586)"/>
<path d="M233.62 67.7538L220.051 68.1338C219.36 68.1532 219.062 67.2682 219.626 66.8668L230.488 59.129C230.865 58.8606 231.394 59.0229 231.554 59.4558L234.26 66.8136C234.425 67.2621 234.1 67.7404 233.62 67.7538Z" fill="url(#paint4_diamond_3707_30586)"/>
<path d="M224.699 55.8357L215.958 62.5598C215.411 62.9806 214.649 62.4441 214.864 61.79L218.143 51.8296C218.283 51.4042 218.782 51.2171 219.168 51.4455L224.631 54.6817C225.056 54.9336 225.091 55.534 224.699 55.8357Z" fill="url(#paint5_diamond_3707_30586)"/>
</g>
<defs>
<filter id="filter0_ii_3707_30586" x="37.3105" y="23.4235" width="74.5527" height="74.2794" filterUnits="userSpaceOnUse" color-interpolation-filters="sRGB">
<feFlood flood-opacity="0" result="BackgroundImageFix"/>
<feBlend mode="normal" in="SourceGraphic" in2="BackgroundImageFix" result="shape"/>
<feColorMatrix in="SourceAlpha" type="matrix" values="0 0 0 0 0 0 0 0 0 0 0 0 0 0 0 0 0 0 127 0" result="hardAlpha"/>
<feOffset dx="0.5" dy="-0.5"/>
<feGaussianBlur stdDeviation="0.6"/>
<feComposite in2="hardAlpha" operator="arithmetic" k2="-1" k3="1"/>
<feColorMatrix type="matrix" values="0 0 0 0 0 0 0 0 0 0 0 0 0 0 0 0 0 0 0.4 0"/>
<feBlend mode="normal" in2="shape" result="effect1_innerShadow_3707_30586"/>
<feColorMatrix in="SourceAlpha" type="matrix" values="0 0 0 0 0 0 0 0 0 0 0 0 0 0 0 0 0 0 127 0" result="hardAlpha"/>
<feOffset dx="-0.5" dy="0.5"/>
<feGaussianBlur stdDeviation="0.6"/>
<feComposite in2="hardAlpha" operator="arithmetic" k2="-1" k3="1"/>
<feColorMatrix type="matrix" values="0 0 0 0 1 0 0 0 0 1 0 0 0 0 1 0 0 0 0.6 0"/>
<feBlend mode="normal" in2="effect1_innerShadow_3707_30586" result="effect2_innerShadow_3707_30586"/>
</filter>
<filter id="filter1_ii_3707_30586" x="40.7834" y="26.8837" width="67.6065" height="67.3591" filterUnits="userSpaceOnUse" color-interpolation-filters="sRGB">
<feFlood flood-opacity="0" result="BackgroundImageFix"/>
<feBlend mode="normal" in="SourceGraphic" in2="BackgroundImageFix" result="shape"/>
<feColorMatrix in="SourceAlpha" type="matrix" values="0 0 0 0 0 0 0 0 0 0 0 0 0 0 0 0 0 0 127 0" result="hardAlpha"/>
<feOffset dx="-0.520761" dy="0.520761"/>
<feGaussianBlur stdDeviation="0.624914"/>
<feComposite in2="hardAlpha" operator="arithmetic" k2="-1" k3="1"/>
<feColorMatrix type="matrix" values="0 0 0 0 0 0 0 0 0 0 0 0 0 0 0 0 0 0 0.4 0"/>
<feBlend mode="normal" in2="shape" result="effect1_innerShadow_3707_30586"/>
<feColorMatrix in="SourceAlpha" type="matrix" values="0 0 0 0 0 0 0 0 0 0 0 0 0 0 0 0 0 0 127 0" result="hardAlpha"/>
<feOffset dx="0.520761" dy="-0.520761"/>
<feGaussianBlur stdDeviation="0.624914"/>
<feComposite in2="hardAlpha" operator="arithmetic" k2="-1" k3="1"/>
<feColorMatrix type="matrix" values="0 0 0 0 1 0 0 0 0 1 0 0 0 0 1 0 0 0 0.6 0"/>
<feBlend mode="normal" in2="effect1_innerShadow_3707_30586" result="effect2_innerShadow_3707_30586"/>
</filter>
<filter id="filter2_ii_3707_30586" x="58.4189" y="66.3375" width="116.423" height="117.627" filterUnits="userSpaceOnUse" color-interpolation-filters="sRGB">
<feFlood flood-opacity="0" result="BackgroundImageFix"/>
<feBlend mode="normal" in="SourceGraphic" in2="BackgroundImageFix" result="shape"/>
<feColorMatrix in="SourceAlpha" type="matrix" values="0 0 0 0 0 0 0 0 0 0 0 0 0 0 0 0 0 0 127 0" result="hardAlpha"/>
<feOffset dx="0.5" dy="-0.5"/>
<feGaussianBlur stdDeviation="0.6"/>
<feComposite in2="hardAlpha" operator="arithmetic" k2="-1" k3="1"/>
<feColorMatrix type="matrix" values="0 0 0 0 0 0 0 0 0 0 0 0 0 0 0 0 0 0 0.4 0"/>
<feBlend mode="normal" in2="shape" result="effect1_innerShadow_3707_30586"/>
<feColorMatrix in="SourceAlpha" type="matrix" values="0 0 0 0 0 0 0 0 0 0 0 0 0 0 0 0 0 0 127 0" result="hardAlpha"/>
<feOffset dx="-0.5" dy="0.5"/>
<feGaussianBlur stdDeviation="0.6"/>
<feComposite in2="hardAlpha" operator="arithmetic" k2="-1" k3="1"/>
<feColorMatrix type="matrix" values="0 0 0 0 1 0 0 0 0 1 0 0 0 0 1 0 0 0 0.6 0"/>
<feBlend mode="normal" in2="effect1_innerShadow_3707_30586" result="effect2_innerShadow_3707_30586"/>
</filter>
<filter id="filter3_ii_3707_30586" x="96.9748" y="83.0437" width="62.7583" height="62.5292" filterUnits="userSpaceOnUse" color-interpolation-filters="sRGB">
<feFlood flood-opacity="0" result="BackgroundImageFix"/>
<feBlend mode="normal" in="SourceGraphic" in2="BackgroundImageFix" result="shape"/>
<feColorMatrix in="SourceAlpha" type="matrix" values="0 0 0 0 0 0 0 0 0 0 0 0 0 0 0 0 0 0 127 0" result="hardAlpha"/>
<feOffset dx="-0.520761" dy="0.520761"/>
<feGaussianBlur stdDeviation="0.624914"/>
<feComposite in2="hardAlpha" operator="arithmetic" k2="-1" k3="1"/>
<feColorMatrix type="matrix" values="0 0 0 0 0 0 0 0 0 0 0 0 0 0 0 0 0 0 0.4 0"/>
<feBlend mode="normal" in2="shape" result="effect1_innerShadow_3707_30586"/>
<feColorMatrix in="SourceAlpha" type="matrix" values="0 0 0 0 0 0 0 0 0 0 0 0 0 0 0 0 0 0 127 0" result="hardAlpha"/>
<feOffset dx="0.520761" dy="-0.520761"/>
<feGaussianBlur stdDeviation="0.624914"/>
<feComposite in2="hardAlpha" operator="arithmetic" k2="-1" k3="1"/>
<feColorMatrix type="matrix" values="0 0 0 0 1 0 0 0 0 1 0 0 0 0 1 0 0 0 0.6 0"/>
<feBlend mode="normal" in2="effect1_innerShadow_3707_30586" result="effect2_innerShadow_3707_30586"/>
</filter>
<filter id="filter4_ii_3707_30586" x="145.023" y="130.735" width="74.5527" height="74.2794" filterUnits="userSpaceOnUse" color-interpolation-filters="sRGB">
<feFlood flood-opacity="0" result="BackgroundImageFix"/>
<feBlend mode="normal" in="SourceGraphic" in2="BackgroundImageFix" result="shape"/>
<feColorMatrix in="SourceAlpha" type="matrix" values="0 0 0 0 0 0 0 0 0 0 0 0 0 0 0 0 0 0 127 0" result="hardAlpha"/>
<feOffset dx="0.5" dy="-0.5"/>
<feGaussianBlur stdDeviation="0.6"/>
<feComposite in2="hardAlpha" operator="arithmetic" k2="-1" k3="1"/>
<feColorMatrix type="matrix" values="0 0 0 0 0 0 0 0 0 0 0 0 0 0 0 0 0 0 0.4 0"/>
<feBlend mode="normal" in2="shape" result="effect1_innerShadow_3707_30586"/>
<feColorMatrix in="SourceAlpha" type="matrix" values="0 0 0 0 0 0 0 0 0 0 0 0 0 0 0 0 0 0 127 0" result="hardAlpha"/>
<feOffset dx="-0.5" dy="0.5"/>
<feGaussianBlur stdDeviation="0.6"/>
<feComposite in2="hardAlpha" operator="arithmetic" k2="-1" k3="1"/>
<feColorMatrix type="matrix" values="0 0 0 0 1 0 0 0 0 1 0 0 0 0 1 0 0 0 0.6 0"/>
<feBlend mode="normal" in2="effect1_innerShadow_3707_30586" result="effect2_innerShadow_3707_30586"/>
</filter>
<filter id="filter5_ii_3707_30586" x="148.496" y="134.196" width="67.6065" height="67.3591" filterUnits="userSpaceOnUse" color-interpolation-filters="sRGB">
<feFlood flood-opacity="0" result="BackgroundImageFix"/>
<feBlend mode="normal" in="SourceGraphic" in2="BackgroundImageFix" result="shape"/>
<feColorMatrix in="SourceAlpha" type="matrix" values="0 0 0 0 0 0 0 0 0 0 0 0 0 0 0 0 0 0 127 0" result="hardAlpha"/>
<feOffset dx="-0.520761" dy="0.520761"/>
<feGaussianBlur stdDeviation="0.624914"/>
<feComposite in2="hardAlpha" operator="arithmetic" k2="-1" k3="1"/>
<feColorMatrix type="matrix" values="0 0 0 0 0 0 0 0 0 0 0 0 0 0 0 0 0 0 0.4 0"/>
<feBlend mode="normal" in2="shape" result="effect1_innerShadow_3707_30586"/>
<feColorMatrix in="SourceAlpha" type="matrix" values="0 0 0 0 0 0 0 0 0 0 0 0 0 0 0 0 0 0 127 0" result="hardAlpha"/>
<feOffset dx="0.520761" dy="-0.520761"/>
<feGaussianBlur stdDeviation="0.624914"/>
<feComposite in2="hardAlpha" operator="arithmetic" k2="-1" k3="1"/>
<feColorMatrix type="matrix" values="0 0 0 0 1 0 0 0 0 1 0 0 0 0 1 0 0 0 0.6 0"/>
<feBlend mode="normal" in2="effect1_innerShadow_3707_30586" result="effect2_innerShadow_3707_30586"/>
</filter>
<filter id="filter6_ii_3707_30586" x="214.327" y="50.8473" width="20.4771" height="30.2051" filterUnits="userSpaceOnUse" color-interpolation-filters="sRGB">
<feFlood flood-opacity="0" result="BackgroundImageFix"/>
<feBlend mode="normal" in="SourceGraphic" in2="BackgroundImageFix" result="shape"/>
<feColorMatrix in="SourceAlpha" type="matrix" values="0 0 0 0 0 0 0 0 0 0 0 0 0 0 0 0 0 0 127 0" result="hardAlpha"/>
<feOffset dx="-0.5" dy="0.5"/>
<feGaussianBlur stdDeviation="0.6"/>
<feComposite in2="hardAlpha" operator="arithmetic" k2="-1" k3="1"/>
<feColorMatrix type="matrix" values="0 0 0 0 0 0 0 0 0 0 0 0 0 0 0 0 0 0 0.4 0"/>
<feBlend mode="normal" in2="shape" result="effect1_innerShadow_3707_30586"/>
<feColorMatrix in="SourceAlpha" type="matrix" values="0 0 0 0 0 0 0 0 0 0 0 0 0 0 0 0 0 0 127 0" result="hardAlpha"/>
<feOffset dx="0.5" dy="-0.5"/>
<feGaussianBlur stdDeviation="0.6"/>
<feComposite in2="hardAlpha" operator="arithmetic" k2="-1" k3="1"/>
<feColorMatrix type="matrix" values="0 0 0 0 1 0 0 0 0 1 0 0 0 0 1 0 0 0 0.6 0"/>
<feBlend mode="normal" in2="effect1_innerShadow_3707_30586" result="effect2_innerShadow_3707_30586"/>
</filter>
<linearGradient id="paint0_linear_3707_30586" x1="0" y1="0" x2="24.2732" y2="53.682" gradientUnits="userSpaceOnUse">
<stop stop-color="#E32900"/>
<stop offset="0.494792" stop-color="#C6E216"/>
<stop offset="1" stop-color="#D808FA"/>
</linearGradient>
<linearGradient id="paint1_linear_3707_30586" x1="134.626" y1="51.2096" x2="159.469" y2="181.883" gradientUnits="userSpaceOnUse">
<stop stop-color="#E32900"/>
<stop offset="0.494792" stop-color="#C6E216"/>
<stop offset="1" stop-color="#D808FA"/>
</linearGradient>
<linearGradient id="paint2_linear_3707_30586" x1="0" y1="0" x2="24.2732" y2="53.682" gradientUnits="userSpaceOnUse">
<stop stop-color="#E32900"/>
<stop offset="0.494792" stop-color="#C6E216"/>
<stop offset="1" stop-color="#D808FA"/>
</linearGradient>
<radialGradient id="paint3_diamond_3707_30586" cx="0" cy="0" r="1" gradientUnits="userSpaceOnUse" gradientTransform="translate(234.972 62.5684) rotate(167.299) scale(27.7966 79.8988)">
<stop stop-color="#E32900"/>
<stop offset="0.472959" stop-color="#C6E216"/>
<stop offset="1" stop-color="#D808FA"/>
</radialGradient>
<radialGradient id="paint4_diamond_3707_30586" cx="0" cy="0" r="1" gradientUnits="userSpaceOnUse" gradientTransform="translate(234.972 62.5684) rotate(167.299) scale(27.7966 79.8988)">
<stop stop-color="#E32900"/>
<stop offset="0.472959" stop-color="#C6E216"/>
<stop offset="1" stop-color="#D808FA"/>
</radialGradient>
<radialGradient id="paint5_diamond_3707_30586" cx="0" cy="0" r="1" gradientUnits="userSpaceOnUse" gradientTransform="translate(234.972 62.5684) rotate(167.299) scale(27.7966 79.8988)">
<stop stop-color="#E32900"/>
<stop offset="0.472959" stop-color="#C6E216"/>
<stop offset="1" stop-color="#D808FA"/>
</radialGradient>
</defs>
</svg>
