<svg width="25" height="25" viewBox="0 0 25 25" fill="none" xmlns="http://www.w3.org/2000/svg">
<path fill-rule="evenodd" clip-rule="evenodd" d="M17.0317 18.287C15.5374 19.4584 13.6546 20.1568 11.6087 20.1568C6.75001 20.1568 2.81128 16.2181 2.81128 11.3594C2.81128 6.50077 6.75001 2.56204 11.6087 2.56204C16.4673 2.56204 20.4061 6.50077 20.4061 11.3594C20.4061 13.4054 19.7077 15.2882 18.5362 16.7825L21.6997 19.9459C22.1151 20.3614 22.1151 21.035 21.6997 21.4505C21.2842 21.8659 20.6106 21.8659 20.1951 21.4505L17.0317 18.287ZM18.2783 11.3594C18.2783 15.043 15.2922 18.0291 11.6087 18.0291C7.92513 18.0291 4.93902 15.043 4.93902 11.3594C4.93902 7.67589 7.92513 4.68978 11.6087 4.68978C15.2922 4.68978 18.2783 7.67589 18.2783 11.3594Z" fill="black"/>
</svg>
