<?xml version="1.0" encoding="utf-8"?>
<!-- Generator: Adobe Illustrator 22.0.0, SVG Export Plug-In . SVG Version: 6.00 Build 0)  -->
<svg version="1.1" id="Слой_1" xmlns="http://www.w3.org/2000/svg" xmlns:xlink="http://www.w3.org/1999/xlink" x="0px" y="0px"
	 viewBox="0 0 24 24" style="enable-background:new 0 0 24 24;" xml:space="preserve">
<path d="M21.3,19.8l-3.2-3.2c1.2-1.5,1.9-3.4,1.9-5.4c0-4.9-3.9-8.8-8.8-8.8s-8.8,3.9-8.8,8.8c0,4.9,3.9,8.8,8.8,8.8
	c2,0,3.9-0.7,5.4-1.9l3.2,3.2c0.4,0.4,1.1,0.4,1.5,0C21.7,20.9,21.7,20.2,21.3,19.8z M11.2,17.9c-3.7,0-6.7-3-6.7-6.7
	c0-3.7,3-6.7,6.7-6.7c3.7,0,6.7,3,6.7,6.7C17.9,14.9,14.9,17.9,11.2,17.9z"/>
</svg>
