<svg width="25" height="25" viewBox="0 0 25 25" fill="none" xmlns="http://www.w3.org/2000/svg">
<path d="M24.249 22.6865L18.8915 17.3265L18.8115 17.2465C20.4108 15.4065 21.2904 13.0865 21.2904 10.5265C21.2904 4.76647 16.6525 0.126465 10.8952 0.126465C5.13786 0.126465 0.5 4.84647 0.5 10.5265C0.5 16.2865 5.13786 20.8465 10.8952 20.8465C13.454 20.8465 15.8529 19.8865 17.6921 18.3665C17.6921 18.3665 17.6921 18.4465 17.772 18.4465L23.2095 23.8865C23.3694 24.0465 23.6093 24.1265 23.7693 24.1265C24.0092 24.1265 24.1691 24.0465 24.329 23.8865C24.5689 23.4865 24.5689 23.0065 24.249 22.6865ZM10.8952 19.2465C6.01745 19.2465 2.09926 15.4065 2.09926 10.5265C2.09926 5.72647 6.01745 1.80646 10.8952 1.80646C15.773 1.80646 19.6911 5.72647 19.6911 10.5265C19.6911 15.4065 15.773 19.2465 10.8952 19.2465ZM10.8952 3.32646C14.8934 3.32646 18.0919 6.52647 18.0919 10.5265C18.0919 14.5265 14.8934 17.7265 10.8952 17.7265C6.89705 17.7265 3.69852 14.5265 3.69852 10.5265C3.69852 6.52647 6.89705 3.32646 10.8952 3.32646Z" fill="black"/>
</svg>
