<svg width="25" height="24" viewBox="0 0 25 24" fill="none" xmlns="http://www.w3.org/2000/svg">
<path d="M16.5436 2.67153C12.6715 -1.20634 6.43012 -0.560044 3.20336 2.67154C-0.153726 6.03357 -0.640314 12.1822 3.20336 16.0316C7.07544 19.9095 13.0858 19.4945 16.5435 16.0316C20.1846 12.385 20.4157 6.54945 16.5436 2.67153ZM9.87353 16.8644C7.95163 16.8644 6.02965 16.1318 4.56654 14.6664C1.64023 11.7358 1.64023 6.96727 4.56654 4.03659C7.49269 1.10606 12.254 1.1059 15.1805 4.03659C18.1067 6.96727 18.1067 11.7358 15.1805 14.6664C13.7173 16.1318 11.7954 16.8644 9.87353 16.8644Z" fill="black"/>
<path d="M24.332 21.3081L18.8666 15.8348C18.8634 15.8316 18.8598 15.8291 18.8566 15.8261C18.5246 16.3114 18.1441 16.7732 17.714 17.204C17.2838 17.6348 16.8227 18.0159 16.338 18.3484C16.3411 18.3516 16.3436 18.3553 16.3468 18.3585L21.8122 23.8318C21.9198 23.9395 22.0657 24 22.2178 24C22.3699 24 22.5157 23.9395 22.6234 23.8318L24.332 22.1206C24.556 21.8962 24.556 21.5325 24.332 21.3081Z" fill="black"/>
<path d="M12.271 11.4075L11.8148 11.2673L10.1351 12.1822C9.97194 12.2711 9.77497 12.2711 9.61195 12.1822L7.93216 11.2673L7.47595 11.4075C6.92094 11.5954 6.54859 12.1149 6.54859 12.702V14.9033C7.5232 15.4908 8.66449 15.8291 9.88488 15.8291C11.0959 15.8291 12.2287 15.4955 13.1983 14.9164V12.7019C13.1983 12.1149 12.826 11.5954 12.271 11.4075Z" fill="black"/>
<path d="M9.87353 9.50789C8.50398 9.50789 7.38974 8.39199 7.38974 7.02039C7.38974 5.64878 8.50398 4.53288 9.87353 4.53288C11.2431 4.53288 12.3573 5.64878 12.3573 7.02039C12.3573 8.39199 11.243 9.50789 9.87353 9.50789Z" fill="black"/>
</svg>
