<svg width="25" height="24" viewBox="0 0 25 24" fill="none" xmlns="http://www.w3.org/2000/svg">
<g clip-path="url(#clip0_1082_56013)">
<path d="M24.2775 22.695L18.5032 16.923C20.2269 14.9115 21.1053 12.3094 20.954 9.6632C20.8027 7.01696 19.6334 4.53232 17.6917 2.73089C15.75 0.929459 13.1868 -0.0486628 10.5402 0.00186448C7.89369 0.0523918 5.3696 1.12764 3.49787 3.00188C1.62613 4.87611 0.552322 7.40358 0.501862 10.0537C0.451402 12.7038 1.42822 15.2704 3.22725 17.2147C5.02627 19.159 7.50759 20.3298 10.1503 20.4813C12.793 20.6328 15.3916 19.7533 17.4004 18.0272L23.1647 23.7992C23.3476 23.9106 23.5532 23.9792 23.7662 24C23.9522 23.9966 24.1305 23.9252 24.2675 23.7992C24.4145 23.6539 24.4981 23.4561 24.5 23.2492C24.5018 23.0423 24.4219 22.8431 24.2775 22.695ZM10.7339 18.8905C9.01888 18.8905 7.34233 18.3813 5.91632 17.4272C4.4903 16.4731 3.37885 15.117 2.72253 13.5303C2.06621 11.9437 1.89448 10.1978 2.22907 8.51348C2.56366 6.82913 3.38954 5.28195 4.60227 4.0676C5.815 2.85325 7.36011 2.02627 9.04221 1.69123C10.7243 1.35619 12.4679 1.52815 14.0524 2.18535C15.6369 2.84255 16.9912 3.95548 17.944 5.38341C18.8968 6.81133 19.4054 8.49011 19.4054 10.2075C19.4028 12.5095 18.4883 14.7166 16.8627 16.3444C15.237 17.9722 13.0329 18.8879 10.7339 18.8905Z" fill="black"/>
</g>
<defs>
<clipPath id="clip0_1082_56013">
<rect width="24" height="24" fill="white" transform="translate(0.5)"/>
</clipPath>
</defs>
</svg>
