<svg width="24" height="24" viewBox="0 0 24 24" fill="none" xmlns="http://www.w3.org/2000/svg">
<path d="M21.5719 11.7609C21.5438 11.639 21.5016 11.5219 21.4313 11.4187C21.4313 11.4187 21.4219 11.4094 21.4219 11.4C21.3516 11.3015 21.2625 11.2078 21.1641 11.1422C21.1547 11.1234 21.136 11.114 21.1125 11.1C21.061 11.0719 21.0141 11.039 20.9625 11.0203L4.63127 3.35155C4.60314 3.34217 4.57033 3.3328 4.54221 3.32342C3.96096 3.10311 3.31408 3.24374 2.87346 3.68436C2.43283 4.12499 2.29221 4.76249 2.49377 5.34374L4.71096 12L2.48908 18.6609C2.28752 19.2422 2.42814 19.8797 2.86877 20.3203C3.30939 20.7609 3.96096 20.9015 4.53752 20.6812C4.56564 20.6719 4.59846 20.6625 4.62658 20.6531L20.9578 12.9844C21.0094 12.9656 21.0469 12.9422 21.0891 12.914C21.0985 12.914 21.1078 12.9047 21.1172 12.8953C21.225 12.825 21.3188 12.7359 21.3891 12.6469C21.4078 12.6187 21.4313 12.5859 21.45 12.5578C21.5016 12.4687 21.5391 12.3656 21.5719 12.2578C21.5906 12.1781 21.6 12.089 21.6 12.0094C21.6 11.9297 21.5906 11.8406 21.5719 11.7609ZM4.91721 18.1406L6.60939 13.0687H15.7313L4.91721 18.1406ZM6.60939 10.9312L4.91721 5.85936L15.7266 10.9312H6.60939Z" fill="black"/>
</svg>
