<?xml version="1.0" encoding="utf-8"?>
<!-- Generator: Adobe Illustrator 22.0.0, SVG Export Plug-In . SVG Version: 6.00 Build 0)  -->
<svg version="1.1" id="Слой_1" xmlns="http://www.w3.org/2000/svg" xmlns:xlink="http://www.w3.org/1999/xlink" x="0px" y="0px"
	 viewBox="0 0 24 24" style="enable-background:new 0 0 24 24;" xml:space="preserve">
<path d="M21.6,11.8c0-0.1-0.1-0.2-0.1-0.3c0,0,0,0,0,0c-0.1-0.1-0.2-0.2-0.3-0.3c0,0,0,0-0.1,0c0,0-0.1-0.1-0.1-0.1L4.6,3.4
	c0,0-0.1,0-0.1,0C4,3.1,3.3,3.2,2.9,3.7C2.4,4.1,2.3,4.8,2.5,5.3L4.7,12l-2.2,6.7c-0.2,0.6-0.1,1.2,0.4,1.7c0.4,0.4,1.1,0.6,1.7,0.4
	c0,0,0.1,0,0.1,0L21,13c0,0,0.1,0,0.1-0.1c0,0,0,0,0,0c0.1-0.1,0.2-0.2,0.3-0.3c0,0,0-0.1,0.1-0.1c0.1-0.1,0.1-0.2,0.1-0.3
	c0-0.1,0-0.2,0-0.3C21.6,11.9,21.6,11.8,21.6,11.8z M15.7,10.9H6.6L4.9,5.9L15.7,10.9z M4.9,18.1l1.7-5.1h9.1L4.9,18.1z"/>
</svg>
