<svg width="24" height="24" viewBox="0 0 24 24" fill="none" xmlns="http://www.w3.org/2000/svg">
<path fill-rule="evenodd" clip-rule="evenodd" d="M21.111 11.1011C21.0635 11.0703 21.0134 11.0431 20.9611 11.02L4.62603 3.35254C4.59915 3.33992 4.57177 3.32843 4.54394 3.31809C3.96104 3.10155 3.3054 3.24462 2.86571 3.68431C2.43146 4.11856 2.28653 4.76343 2.49161 5.34085L4.71135 12.0001L2.49161 18.6593C2.28653 19.2367 2.43146 19.8816 2.86571 20.3158C3.3054 20.7555 3.96104 20.8986 4.54394 20.6821C4.57177 20.6717 4.59915 20.6602 4.62603 20.6476L20.9642 12.9787C21.0061 12.96 21.0465 12.9387 21.0854 12.9151C21.0982 12.9073 21.1109 12.8992 21.1234 12.8909C21.2289 12.8207 21.3187 12.7338 21.3909 12.6356C21.4105 12.609 21.4288 12.5816 21.4457 12.5534C21.5015 12.4612 21.5437 12.3599 21.5697 12.2523C21.5901 12.1687 21.5999 12.0841 21.5999 12.0003C21.6 11.9193 21.5908 11.8377 21.5719 11.7568C21.5439 11.6363 21.4956 11.5236 21.4307 11.4226C21.4265 11.4159 21.4221 11.4092 21.4177 11.4027C21.3478 11.2984 21.2616 11.2095 21.1643 11.1379C21.1468 11.1251 21.1291 11.1128 21.111 11.1011ZM15.7269 10.9292L4.92133 5.85712L6.612 10.9292H15.7269ZM6.61203 13.0709H15.7271L4.92133 18.143L6.61203 13.0709Z" fill="black"/>
</svg>
