<svg width="25" height="25" viewBox="0 0 25 25" fill="none" xmlns="http://www.w3.org/2000/svg">
<path fill-rule="evenodd" clip-rule="evenodd" d="M21.5223 11.2631C21.4748 11.2322 21.4247 11.2051 21.3724 11.182L5.03735 3.5145C5.01047 3.50188 4.98308 3.49039 4.95525 3.48005C4.37235 3.2635 3.71672 3.40658 3.27702 3.84627C2.84278 4.28052 2.69785 4.92539 2.90292 5.5028L5.12267 12.162L2.90292 18.8213C2.69785 19.3987 2.84278 20.0435 3.27702 20.4778C3.71672 20.9175 4.37235 21.0606 4.95525 20.844C4.98308 20.8337 5.01047 20.8222 5.03735 20.8096L21.3755 13.1406C21.4174 13.122 21.4578 13.1007 21.4967 13.077C21.5095 13.0692 21.5222 13.0612 21.5347 13.0528C21.6402 12.9826 21.73 12.8958 21.8023 12.7975C21.8218 12.771 21.8401 12.7435 21.8571 12.7154C21.9128 12.6232 21.9551 12.5219 21.981 12.4143C22.0014 12.3306 22.0113 12.2461 22.0112 12.1622C22.0113 12.0813 22.0021 11.9996 21.9832 11.9188C21.9552 11.7983 21.9069 11.6856 21.8421 11.5845C21.8378 11.5778 21.8334 11.5712 21.829 11.5646C21.7591 11.4603 21.673 11.3715 21.5756 11.2998C21.5582 11.287 21.5404 11.2748 21.5223 11.2631ZM16.1383 11.0911L5.33264 6.01908L7.02332 11.0911H16.1383ZM7.02334 13.2329H16.1384L5.33264 18.305L7.02334 13.2329Z" fill="black"/>
</svg>
