<svg width="25" height="25" viewBox="0 0 25 25" fill="none" xmlns="http://www.w3.org/2000/svg">
<g clip-path="url(#clip0_1114_56952)">
<path d="M22.3076 9.56579H21.5109C21.3117 8.76245 21.013 8.05952 20.6146 7.35659L21.013 6.75408C21.7101 6.05115 21.7101 4.94655 21.013 4.24362L19.9175 3.13902C19.2204 2.43609 18.125 2.53651 17.3283 3.13902L16.7308 3.74153C16.0337 3.33985 15.237 3.0386 14.5399 2.83776V1.934C14.6395 0.929812 13.8428 0.126465 12.847 0.126465H11.2536C10.2578 0.126465 9.46109 0.929812 9.46109 1.934V2.73734C8.66441 2.93818 7.96732 3.23944 7.27022 3.64111L6.67271 3.13902C6.0752 2.33567 4.68101 2.33567 4.18308 3.13902L3.08765 4.24362C2.39055 4.94655 2.39055 6.05115 3.08765 6.75408L3.68516 7.35659C3.18723 8.05952 2.88848 8.76245 2.68931 9.56579H1.89263C0.896778 9.56579 0.100098 10.3691 0.100098 11.3733V12.98C0.100098 13.9842 0.896778 14.7876 1.89263 14.7876H2.68931C2.88848 15.5909 3.18723 16.2938 3.58557 16.9968L3.08765 17.5993C2.39055 18.3022 2.39055 19.4068 3.08765 20.1097L4.18308 21.2143C4.88018 21.9173 5.97562 21.8168 6.7723 21.2143L7.36981 20.6118C8.0669 21.0135 8.86358 21.3147 9.56068 21.5156V22.3189C9.56068 23.3231 10.3574 24.1265 11.3532 24.1265H12.9466C13.9424 24.1265 14.7391 23.3231 14.7391 22.3189V21.5156C15.5358 21.3147 16.2329 21.0135 16.93 20.6118L17.5275 21.2143C18.2246 21.9173 19.32 21.8168 20.1167 21.2143L21.2121 20.1097C21.9092 19.4068 21.9092 18.3022 21.2121 17.5993L20.6146 16.9968C21.013 16.2938 21.3117 15.4905 21.5109 14.7876H22.3076C23.3034 14.7876 24.1001 13.9842 24.1001 12.98V11.3733C24.1001 10.3691 23.3034 9.56579 22.3076 9.56579ZM12.0503 17.0972C9.36151 17.0972 7.17064 14.888 7.17064 12.1767C7.17064 9.46538 9.36151 7.25617 12.0503 7.25617C14.7391 7.25617 16.93 9.46538 16.93 12.1767C16.93 14.888 14.7391 17.0972 12.0503 17.0972Z" fill="black"/>
</g>
<defs>
<clipPath id="clip0_1114_56952">
<rect width="24" height="24" fill="white" transform="translate(0.100098 0.126465)"/>
</clipPath>
</defs>
</svg>
