<svg width="25" height="25" viewBox="0 0 25 25" fill="none" xmlns="http://www.w3.org/2000/svg">
<g clip-path="url(#clip0_1114_56951)">
<path d="M12.7972 1.72983C12.8669 1.72983 12.9067 1.72983 12.9067 1.72983C12.9018 1.78316 12.9018 1.83683 12.9067 1.89016V2.79204C12.898 3.14452 13.0043 3.49017 13.2093 3.7761C13.4144 4.06204 13.7068 4.27251 14.042 4.37533C14.6856 4.53685 15.3075 4.77573 15.8943 5.08682C16.197 5.26144 16.5485 5.33057 16.8943 5.28345C17.2401 5.23634 17.5607 5.07562 17.8063 4.82627L18.3042 4.32523C18.4154 4.25525 18.5419 4.21395 18.6727 4.20498C18.7225 4.20498 18.7324 4.20498 18.7424 4.20498L19.8378 5.30727C19.8564 5.32127 19.8715 5.33943 19.8818 5.3603C19.8922 5.38117 19.8976 5.40419 19.8976 5.42752C19.8976 5.45086 19.8922 5.47387 19.8818 5.49475C19.8715 5.51562 19.8564 5.53377 19.8378 5.54777C19.761 5.61854 19.694 5.69944 19.6387 5.78827L19.2403 6.38953C19.0711 6.63864 18.9756 6.931 18.965 7.23258C18.9544 7.53416 19.0292 7.83257 19.1806 8.09307C19.5044 8.6589 19.7522 9.26544 19.9175 9.89683C20.004 10.243 20.2027 10.5502 20.4823 10.7699C20.7619 10.9895 21.1064 11.109 21.4611 11.1093H22.2578C22.2843 11.1079 22.3108 11.1121 22.3356 11.1217C22.3605 11.1312 22.383 11.1459 22.4018 11.1648C22.4206 11.1837 22.4352 11.2064 22.4447 11.2314C22.4542 11.2564 22.4584 11.2831 22.4569 11.3098V12.9131C22.4584 12.9398 22.4542 12.9665 22.4447 12.9915C22.4352 13.0164 22.4206 13.0391 22.4018 13.058C22.383 13.0769 22.3605 13.0917 22.3356 13.1012C22.3108 13.1108 22.2843 13.115 22.2578 13.1135H21.4611C21.115 13.1148 20.7787 13.2287 20.5022 13.4382C20.2258 13.6477 20.0242 13.9416 19.9275 14.2759C19.7535 14.9219 19.5028 15.5443 19.1806 16.1298C18.9919 16.4405 18.9148 16.8069 18.9619 17.1679C19.009 17.5289 19.1775 17.8628 19.4395 18.1139L20.037 18.7152C20.054 18.7302 20.0675 18.7487 20.0768 18.7695C20.0861 18.7902 20.091 18.8127 20.091 18.8354C20.091 18.8582 20.0861 18.8807 20.0768 18.9014C20.0675 18.9221 20.054 18.9406 20.037 18.9557L19.0412 19.9578C18.93 20.0277 18.8035 20.069 18.6727 20.078C18.6727 20.078 18.6129 20.078 18.603 20.078L18.0055 19.4768C17.7598 19.2274 17.4392 19.0667 17.0935 19.0196C16.7477 18.9725 16.3962 19.0416 16.0934 19.2162C15.5311 19.542 14.9284 19.7914 14.3009 19.9578C13.9569 20.0448 13.6516 20.2448 13.4333 20.5261C13.2151 20.8075 13.0963 21.1541 13.0959 21.511V22.3127C13.0974 22.3394 13.0932 22.3661 13.0837 22.391C13.0742 22.416 13.0596 22.4387 13.0408 22.4576C13.022 22.4765 12.9995 22.4912 12.9747 22.5008C12.9498 22.5103 12.9233 22.5145 12.8968 22.5131H11.3034C11.2769 22.5145 11.2503 22.5103 11.2255 22.5008C11.2007 22.4912 11.1782 22.4765 11.1594 22.4576C11.1406 22.4387 11.126 22.416 11.1165 22.391C11.107 22.3661 11.1028 22.3394 11.1042 22.3127V21.511C11.103 21.1628 10.9898 20.8243 10.7816 20.5462C10.5734 20.268 10.2813 20.0651 9.94907 19.9678C9.2916 19.7831 8.6594 19.5172 8.06691 19.1761C7.76421 19.0015 7.41267 18.9324 7.0669 18.9795C6.72114 19.0266 6.40053 19.1873 6.15488 19.4367L5.65696 19.9377C5.54584 20.0077 5.41928 20.049 5.2885 20.058C5.2885 20.058 5.22874 20.058 5.21879 20.058L4.12335 18.9557C4.1064 18.9406 4.09282 18.9221 4.08352 18.9014C4.07422 18.8807 4.06941 18.8582 4.06941 18.8354C4.06941 18.8127 4.07422 18.7902 4.08352 18.7695C4.09282 18.7487 4.1064 18.7302 4.12335 18.7152C4.16162 18.6834 4.19516 18.6463 4.22294 18.6049L4.72086 18.0037C4.92838 17.754 5.05489 17.4462 5.08338 17.122C5.11186 16.7977 5.04096 16.4724 4.8802 16.1899C4.5564 15.6241 4.30859 15.0176 4.14327 14.3862C4.05681 14.04 3.85804 13.7328 3.57844 13.5131C3.29884 13.2935 2.95441 13.174 2.5997 13.1736H1.80303C1.77649 13.1751 1.74995 13.1709 1.72514 13.1613C1.70032 13.1518 1.67779 13.1371 1.659 13.1182C1.64021 13.0992 1.62559 13.0766 1.61609 13.0516C1.60659 13.0266 1.60242 12.9999 1.60386 12.9732V11.3699C1.60242 11.3432 1.60659 11.3165 1.61609 11.2915C1.62559 11.2665 1.64021 11.2439 1.659 11.225C1.67779 11.2061 1.70032 11.1913 1.72514 11.1818C1.74995 11.1722 1.77649 11.168 1.80303 11.1695H2.5997C2.96389 11.1771 3.31967 11.0589 3.60778 10.8347C3.8959 10.6104 4.09895 10.2935 4.1831 9.93691C4.32309 9.33913 4.57671 8.77426 4.92999 8.27345C5.15089 7.96552 5.25522 7.58833 5.22418 7.20984C5.19314 6.83135 5.02877 6.47647 4.7607 6.20915L4.16319 5.6079C4.14463 5.5939 4.12958 5.57574 4.11921 5.55487C4.10883 5.534 4.10344 5.51098 4.10344 5.48765C4.10344 5.46431 4.10883 5.4413 4.11921 5.42043C4.12958 5.39956 4.14463 5.3814 4.16319 5.3674L5.25862 4.26511L5.36816 4.14486C5.43351 4.22569 5.50692 4.29956 5.58725 4.36531L6.18476 4.86636C6.43295 5.07517 6.73874 5.20248 7.061 5.23114C7.38325 5.25981 7.7065 5.18846 7.98724 5.02669C8.54955 4.70086 9.15231 4.45151 9.77977 4.28515C10.1367 4.21186 10.4578 4.01774 10.6898 3.73511C10.9217 3.45249 11.0504 3.09843 11.0545 2.73191V1.93025C11.053 1.90355 11.0572 1.87684 11.0667 1.85187C11.0762 1.8269 11.0908 1.80422 11.1096 1.78532C11.1284 1.76641 11.1509 1.7517 11.1757 1.74214C11.2006 1.73258 11.2271 1.72838 11.2536 1.72983H12.847M12.847 0.126493H11.2536C11.0179 0.125164 10.7842 0.170912 10.5661 0.261088C10.348 0.351265 10.1499 0.484078 9.98317 0.651837C9.81646 0.819596 9.68447 1.01897 9.59486 1.23841C9.50524 1.45785 9.45978 1.693 9.4611 1.93025V2.73191C8.6924 2.92767 7.95488 3.23127 7.27023 3.63379L6.67272 3.13275C6.51982 2.93701 6.3224 2.78112 6.09709 2.67823C5.87179 2.57533 5.6252 2.52844 5.37812 2.54152C5.13944 2.5372 4.90297 2.58829 4.68709 2.69083C4.47121 2.79336 4.28171 2.94458 4.13331 3.13275L3.08767 4.23504C2.92206 4.39832 2.7905 4.59321 2.70068 4.8083C2.61086 5.02339 2.5646 5.25434 2.5646 5.48765C2.5646 5.72095 2.61086 5.95191 2.70068 6.167C2.7905 6.38209 2.92206 6.57698 3.08767 6.74026L3.68518 7.34151C3.21386 8.00418 2.87559 8.75304 2.68933 9.54609H1.89265C1.65689 9.54477 1.4232 9.59051 1.20512 9.68069C0.987047 9.77087 0.788915 9.90368 0.6222 10.0714C0.455485 10.2392 0.323498 10.4386 0.233883 10.658C0.144268 10.8775 0.0988048 11.1126 0.100126 11.3498V12.9532C0.0988048 13.1904 0.144268 13.4256 0.233883 13.645C0.323498 13.8645 0.455485 14.0638 0.6222 14.2316C0.788915 14.3994 0.987047 14.5322 1.20512 14.6223C1.4232 14.7125 1.65689 14.7583 1.89265 14.7569H2.68933C2.88387 15.5305 3.18558 16.2726 3.58559 16.9615L3.08767 17.5628C2.91434 17.7268 2.77621 17.9247 2.68179 18.1444C2.58737 18.3642 2.53866 18.601 2.53866 18.8404C2.53866 19.0798 2.58737 19.3167 2.68179 19.5364C2.77621 19.7562 2.91434 19.9541 3.08767 20.1181L4.1831 21.2204C4.33972 21.3782 4.52612 21.503 4.73134 21.5873C4.93656 21.6716 5.15646 21.7138 5.37812 21.7114C5.88297 21.7014 6.37142 21.5293 6.77231 21.2204L7.36982 20.6191C8.06268 21.0047 8.79796 21.3073 9.56068 21.521V22.3227C9.55936 22.5599 9.60483 22.7951 9.69444 23.0145C9.78406 23.234 9.91604 23.4333 10.0828 23.6011C10.2495 23.7689 10.4476 23.9017 10.6657 23.9918C10.8838 24.082 11.1174 24.1278 11.3532 24.1264H12.9466C13.1823 24.1278 13.416 24.082 13.6341 23.9918C13.8522 23.9017 14.0503 23.7689 14.217 23.6011C14.3837 23.4333 14.5157 23.234 14.6053 23.0145C14.695 22.7951 14.7404 22.5599 14.7391 22.3227V21.521C15.5078 21.3253 16.2453 21.0217 16.93 20.6191L17.5275 21.2204C17.6841 21.3782 17.8705 21.503 18.0757 21.5873C18.2809 21.6716 18.5008 21.7138 18.7225 21.7114C19.2273 21.7014 19.7158 21.5293 20.1167 21.2204L21.2121 20.1181C21.3777 19.9548 21.5093 19.7599 21.5991 19.5448C21.6889 19.3298 21.7352 19.0988 21.7352 18.8655C21.7352 18.6322 21.6889 18.4012 21.5991 18.1861C21.5093 17.9711 21.3777 17.7762 21.2121 17.6129L20.6146 17.0116C20.9977 16.3144 21.2985 15.5745 21.5109 14.807H22.3075C22.5433 14.8084 22.777 14.7626 22.9951 14.6724C23.2132 14.5823 23.4113 14.4495 23.578 14.2817C23.7447 14.1139 23.8767 13.9146 23.9663 13.6951C24.0559 13.4757 24.1014 13.2405 24.1001 13.0033V11.4C24.1014 11.1627 24.0559 10.9276 23.9663 10.7081C23.8767 10.4887 23.7447 10.2893 23.578 10.1215C23.4113 9.95378 23.2132 9.82097 22.9951 9.73079C22.777 9.64062 22.5433 9.59487 22.3075 9.5962H21.5109C21.3163 8.82268 21.0146 8.08055 20.6146 7.39161L21.0129 6.79036C21.1785 6.62708 21.3101 6.43219 21.3999 6.2171C21.4898 6.00202 21.536 5.77106 21.536 5.53775C21.536 5.30445 21.4898 5.07349 21.3999 4.8584C21.3101 4.64332 21.1785 4.44843 21.0129 4.28515L19.9175 3.18285C19.7609 3.025 19.5745 2.90024 19.3693 2.81592C19.164 2.73159 18.9441 2.68941 18.7225 2.69183C18.2176 2.70188 17.7292 2.87392 17.3283 3.18285L16.7308 3.7841C16.0379 3.39859 15.3026 3.09591 14.5399 2.88223V1.98035C14.5613 1.74664 14.5329 1.51103 14.4568 1.2892C14.3806 1.06737 14.2584 0.864389 14.0983 0.693762C13.9381 0.523136 13.7437 0.38877 13.528 0.299601C13.3122 0.210431 13.0801 0.168501 12.847 0.176597V0.126493ZM12.0503 8.84464C12.7003 8.84464 13.3356 9.03858 13.8761 9.40195C14.4165 9.76531 14.8377 10.2818 15.0864 10.886C15.3352 11.4903 15.4003 12.1552 15.2735 12.7967C15.1467 13.4381 14.8337 14.0274 14.3741 14.4898C13.9145 14.9523 13.3289 15.2673 12.6914 15.3949C12.054 15.5225 11.3932 15.457 10.7927 15.2067C10.1922 14.9564 9.67895 14.5325 9.31785 13.9887C8.95674 13.4449 8.76401 12.8056 8.76401 12.1515C8.76401 11.7173 8.84901 11.2872 9.01416 10.886C9.17931 10.4848 9.42138 10.1203 9.72654 9.8132C10.3428 9.19304 11.1787 8.84464 12.0503 8.84464ZM12.0503 7.2413C11.0852 7.2413 10.1418 7.52928 9.33931 8.06882C8.53686 8.60836 7.91142 9.37523 7.54209 10.2725C7.17276 11.1697 7.07613 12.157 7.26441 13.1095C7.45269 14.0619 7.91743 14.9369 8.59987 15.6236C9.2823 16.3103 10.1518 16.7779 11.0983 16.9674C12.0449 17.1568 13.026 17.0596 13.9177 16.688C14.8093 16.3163 15.5714 15.687 16.1076 14.8795C16.6438 14.072 16.93 13.1227 16.93 12.1515C16.9273 10.8501 16.4124 9.60266 15.4978 8.68239C14.5833 7.76212 13.3437 7.24395 12.0503 7.2413Z" fill="black"/>
</g>
<defs>
<clipPath id="clip0_1114_56951">
<rect width="24" height="24" fill="white" transform="translate(0.100098 0.126465)"/>
</clipPath>
</defs>
</svg>
