<svg width="24" height="24" viewBox="0 0 24 24" fill="none" xmlns="http://www.w3.org/2000/svg">
<path d="M21.5999 17.6999C21.5999 19.8999 19.8092 21.5999 17.7201 21.5999C15.631 21.5999 13.8403 19.8999 13.8403 17.6999C13.8403 17.4999 13.8403 17.1999 13.9398 16.9999L9.26415 14.5999C8.4683 15.3999 7.47348 15.8999 6.2797 15.8999C4.19058 15.8999 2.3999 14.1999 2.3999 11.9999C2.3999 9.8999 4.19058 8.0999 6.2797 8.0999C7.47348 8.0999 8.4683 8.5999 9.26415 9.3999L13.9398 6.9999C13.9398 6.7999 13.8403 6.4999 13.8403 6.2999C13.8403 4.1999 15.631 2.3999 17.7201 2.3999C19.8092 2.3999 21.5999 4.1999 21.5999 6.2999C21.5999 8.4999 19.8092 10.1999 17.7201 10.1999C16.5263 10.1999 15.5315 9.6999 14.8351 8.8999L10.1595 11.2999C10.1595 11.4999 10.259 11.7999 10.259 11.9999C10.259 12.2999 10.259 12.4999 10.1595 12.6999L14.8351 15.0999C15.5315 14.2999 16.5263 13.7999 17.7201 13.7999C19.8092 13.7999 21.5999 15.4999 21.5999 17.6999Z" fill="black"/>
</svg>
