<svg width="273" height="334" viewBox="0 0 273 334" fill="none" xmlns="http://www.w3.org/2000/svg">
<mask id="mask0_14278_33290" style="mask-type:alpha" maskUnits="userSpaceOnUse" x="0" y="0" width="273" height="334">
<rect x="0.342285" y="0.838135" width="272.409" height="332.361" fill="url(#paint0_linear_14278_33290)"/>
</mask>
<g mask="url(#mask0_14278_33290)">
<path d="M269.342 -115.361C269.342 -189.037 209.351 -249.195 135.926 -249.195C62.2504 -249.195 2.34229 -189.037 2.34229 -115.361V197.196C2.34229 197.946 2.34229 198.614 2.34229 199.365C2.34229 273.457 61.9167 333.199 135.842 333.199C209.768 333.199 269.342 273.04 269.342 199.365V-113.109C269.342 -113.943 269.342 -114.61 269.342 -115.361ZM235.634 163.07C234.215 164.488 232.546 165.99 230.377 167.241C225.12 170.329 216.026 175.585 201.007 176.67C194.499 177.171 181.9 176.42 178.229 169.244C176.727 166.24 175.725 162.569 175.725 157.312V128.193C175.725 90.5624 165.963 62.7777 111.979 62.7777V46.1737C108.058 59.4402 76.1845 80.2162 76.1845 80.2162C76.1845 80.2162 108.391 100.909 111.896 114.259V97.4043C130.753 97.4043 142.017 100.909 142.017 129.027V160.984C142.017 168.41 143.101 174.667 145.521 179.59C156.535 198.948 181.649 200.032 187.907 199.615C213.94 197.946 228.041 188.351 235.3 173.833V199.866C235.3 255.018 190.494 299.991 135.425 299.991C80.3563 300.074 35.467 255.101 35.467 199.949C35.467 199.198 35.467 159.565 35.467 159.565C48.6501 151.221 74.6826 151.138 84.2779 154.642C88.4498 156.061 91.7038 158.147 93.3726 160.984C95.1248 163.737 95.8757 167.325 95.8757 171.497V197.196C95.8757 234.826 105.638 262.611 159.622 262.611V279.465C163.46 266.115 195.333 245.422 195.333 245.422C195.333 245.422 163.126 225.064 159.622 212.047V229.319C140.765 229.319 129.501 225.815 129.501 197.696V157.646C129.501 151.639 128.083 146.716 125.997 142.544C123.494 138.372 120.406 135.452 116.234 133.032C112.396 130.529 99.547 125.773 86.5307 126.357C69.2592 127.108 49.9017 131.28 36.051 149.97V-114.777C36.051 -120.785 36.802 -126.709 37.8032 -132.383C46.147 -179.191 86.8645 -214.986 136.176 -214.986C185.237 -214.986 225.538 -179.191 233.881 -132.466C234.966 -126.876 235.634 -120.868 235.634 -114.861V163.07Z" fill="url(#paint1_radial_14278_33290)"/>
</g>
<defs>
<linearGradient id="paint0_linear_14278_33290" x1="128.313" y1="-34.7479" x2="132.355" y2="385.479" gradientUnits="userSpaceOnUse">
<stop stop-color="#D9D9D9"/>
<stop offset="1" stop-color="#D9D9D9" stop-opacity="0"/>
</linearGradient>
<radialGradient id="paint1_radial_14278_33290" cx="0" cy="0" r="1" gradientUnits="userSpaceOnUse" gradientTransform="translate(1.91725 59.3172) rotate(45.6909) scale(382.764 616.787)">
<stop stop-color="#E32900"/>
<stop offset="0.6017" stop-color="#C6E216"/>
<stop offset="1" stop-color="#D808FA"/>
</radialGradient>
</defs>
</svg>
