<svg width="253" height="322" viewBox="0 0 253 322" fill="none" xmlns="http://www.w3.org/2000/svg">
<mask id="mask0_14278_33293" style="mask-type:alpha" maskUnits="userSpaceOnUse" x="0" y="0" width="253" height="322">
<rect x="0.976318" y="0.5" width="252" height="321" fill="url(#paint0_linear_14278_33293)"/>
</mask>
<g mask="url(#mask0_14278_33293)">
<path d="M252.281 126.58C252.281 57.1198 195.851 0.5 126.667 0.5C57.3285 0.5 0.976318 57.1198 0.976318 126.58V193.409C0.976318 194.106 0.976318 194.724 0.976318 195.42C0.976318 265.267 57.0193 321.5 126.59 321.5C196.16 321.5 252.203 264.88 252.203 195.42V128.591C252.281 127.894 252.281 127.276 252.281 126.58ZM220.587 161.309C219.273 162.624 217.65 163.939 215.64 165.254C214.944 165.564 214.635 165.95 214.017 166.26C213.012 166.956 212.007 167.575 211.079 167.884C208.451 169.199 205.436 170.514 202.499 171.829C198.247 173.144 193.3 174.149 187.966 174.149C182.324 174.149 177.763 173.453 174.439 172.834C170.806 171.829 168.178 169.895 166.554 167.188C164.931 164.481 164.235 160.923 164.235 155.972V128.513C164.235 93.0872 155.036 66.9431 104.25 66.9431V51.1639C100.54 63.6945 70.5469 83.2639 70.5469 83.2639C70.5469 83.2639 100.849 102.756 104.173 115.364V99.5072C121.952 99.5072 132.542 102.833 132.542 129.287V159.376C132.542 166.337 133.547 172.293 135.866 176.934C138.185 181.575 141.122 185.21 145.451 187.84C149.393 190.47 154.032 192.481 159.288 193.796C164.544 195.111 169.878 195.807 175.753 195.807C181.628 195.807 186.962 195.111 191.6 193.796C192.295 193.487 192.914 193.487 193.609 193.1C197.552 191.785 201.185 190.083 204.2 188.459C207.833 186.139 211.157 183.818 213.398 181.188C215.408 179.177 216.722 177.243 218.036 175.542C218.346 174.846 219.041 174.227 219.351 173.531C219.66 172.834 220.046 172.216 220.355 171.52V196.039C220.355 248.018 178.149 290.328 126.358 290.328C74.4892 290.406 32.2831 248.018 32.2831 196.117C32.2831 195.42 32.2831 194.802 32.2831 194.106V193.796V158.061C33.5972 157.365 34.9113 156.746 36.9211 156.05C37.6168 155.74 37.926 155.74 38.5444 155.353C39.5493 155.044 40.8634 154.657 42.1775 154.348C44.4966 153.652 46.8156 153.342 49.1346 152.724C53.0769 152.027 57.0193 151.409 61.3481 151.409C68.6144 151.409 74.18 152.105 78.1996 153.42C82.142 154.735 85.1567 156.746 86.78 159.376C88.4033 162.006 89.099 165.332 89.099 169.276V193.409C89.099 228.835 98.2978 254.98 149.084 254.98V270.836C152.717 258.228 182.71 238.736 182.71 238.736C182.71 238.736 152.408 219.553 149.084 207.332V223.576C131.305 223.576 120.715 220.25 120.715 193.796V156.05C120.715 150.403 119.401 145.762 117.391 141.817C115.072 137.873 112.135 135.165 108.192 132.845C104.559 130.524 99.9211 128.9 95.3604 127.894C90.4131 126.889 85.4659 126.58 80.2094 126.58C72.3248 126.58 65.3677 127.585 59.4156 129.596C59.1064 129.673 58.8745 129.751 58.7199 129.828C52.7677 131.839 47.8205 134.547 43.8782 137.563C39.9358 140.58 36.9211 143.21 34.6794 146.149C33.9837 147.154 33.3653 148.16 32.6696 148.779V126.966C32.6696 121.32 33.3653 115.751 34.2929 110.414C42.1775 66.3243 80.4413 32.6 126.899 32.6C173.047 32.6 211.002 66.3243 218.887 110.336C219.892 115.596 220.51 121.242 220.51 126.889L220.587 161.309Z" fill="white"/>
</g>
<defs>
<linearGradient id="paint0_linear_14278_33293" x1="214.67" y1="-8.35385" x2="126.976" y2="321.5" gradientUnits="userSpaceOnUse">
<stop stop-color="#D9D9D9"/>
<stop offset="0.937992" stop-color="#D9D9D9" stop-opacity="0"/>
</linearGradient>
</defs>
</svg>
