<svg width="24" height="24" viewBox="0 0 24 24" fill="none" xmlns="http://www.w3.org/2000/svg">
<path d="M12.2089 1.59928L16.7689 19.721L6.15893 22.3898L1.59893 4.26806L12.2089 1.59928ZM12.2089 1.16033e-05C12.0775 0.00188849 11.9466 0.0186546 11.8189 0.0499888L1.20893 2.71877C0.79809 2.82256 0.445217 3.08501 0.227745 3.44855C0.0102731 3.81209 -0.0540345 4.24701 0.0489331 4.65788L4.60893 22.7796C4.69416 23.1257 4.89334 23.4332 5.17446 23.6525C5.45557 23.8719 5.8023 23.9904 6.15893 23.989C6.28852 24.0037 6.41934 24.0037 6.54893 23.989L17.1589 21.3203C17.5698 21.2165 17.9226 20.954 18.1401 20.5905C18.3576 20.2269 18.4219 19.792 18.3189 19.3811L13.7589 1.20946C13.6737 0.86332 13.4745 0.555872 13.1934 0.33652C12.9123 0.117168 12.5656 -0.00135005 12.2089 1.16033e-05ZM22.2089 2.46888H15.3589L15.7589 4.06815H22.1789C22.2373 4.06815 22.2932 4.09132 22.3345 4.13256C22.3758 4.1738 22.3989 4.22973 22.3989 4.28805V21.1004C22.3989 21.1587 22.3758 21.2146 22.3345 21.2559C22.2932 21.2971 22.2373 21.3203 22.1789 21.3203H19.5989C19.3723 21.6794 19.0129 21.9345 18.5989 22.0299L15.0689 22.9195H22.1489C22.3905 22.9235 22.6303 22.8794 22.8546 22.7898C23.0789 22.7001 23.2831 22.5668 23.4553 22.3974C23.6275 22.2281 23.7642 22.0262 23.8576 21.8035C23.9509 21.5808 23.999 21.3418 23.9989 21.1004V4.28805C24.0003 4.04878 23.9541 3.81163 23.8631 3.59032C23.7721 3.36901 23.6381 3.16794 23.4688 2.99875C23.2996 2.82956 23.0984 2.69561 22.877 2.60466C22.6556 2.51371 22.4183 2.46756 22.1789 2.46888H22.2089Z" fill="black"/>
</svg>
