<?xml version="1.0" encoding="utf-8"?>
<!-- Generator: Adobe Illustrator 22.0.0, SVG Export Plug-In . SVG Version: 6.00 Build 0)  -->
<svg version="1.1" id="Слой_1" xmlns="http://www.w3.org/2000/svg" xmlns:xlink="http://www.w3.org/1999/xlink" x="0px" y="0px"
	 viewBox="0 0 24 24" style="enable-background:new 0 0 24 24;" xml:space="preserve">
<path d="M20.6,13c-0.3,0.6-1.1,1.4-2.2,2c-1,0.5-2.7,0.5-3.9,0c-1.1-0.5-1.8-1.1-1.9-3.2V9c0-2.5-1-2.8-2.6-2.8v1.5
	c-0.3-1.2-3.1-3-3.1-3s2.7-1.8,3.1-3v1.5c4.6,0,5.5,2.4,5.5,5.7v2.6c0,0.7,0.2,1.3,0.9,1.6c1.2,0.4,2,0.2,3-0.3c0.9-0.4-0.2,0.1,0,0
	c0.1,0,1.1-0.7,1.3-0.8L20.6,13z M3.4,11.7c0.1-0.1,0.4-0.2,0.5-0.2c1.1-0.4,2.3-0.8,3.6-0.3c0.8,0.3,1,1,1,1.6V15
	c0,3.3,0.8,5.7,5.5,5.7v1.5c0.3-1.2,3.1-3,3.1-3s-2.8-1.8-3.1-2.9v1.5c-1.6,0-2.6-0.3-2.6-2.8v-3.5c0-0.5-0.1-1.4-0.8-2
	C10.2,9.1,9,8.9,8.4,8.8c-1.1-0.1-2,0-2.7,0.3c-1.5,0.6-2.3,1.7-2.4,1.7V11.7z"/>
</svg>
