<svg width="276" height="129" viewBox="0 0 276 129" fill="none" xmlns="http://www.w3.org/2000/svg">
<g clip-path="url(#clip0_3282_28815)">
<path d="M145.801 50.6675C145.801 22.7537 123.112 0 95.2947 0C67.4149 0 44.7568 22.7537 44.7568 50.6675V77.5243C44.7568 77.8041 44.7568 78.0528 44.7568 78.3325C44.7568 106.402 67.2906 129 95.2636 129C123.237 129 145.77 106.246 145.77 78.3325V51.4757C145.801 51.1959 145.801 50.9472 145.801 50.6675ZM133.058 64.6243C132.53 65.1528 131.877 65.6812 131.069 66.2096C130.789 66.334 130.665 66.4894 130.416 66.6137C130.012 66.8935 129.608 67.1422 129.235 67.2665C128.178 67.7949 126.966 68.3234 125.785 68.8518C124.076 69.3802 122.087 69.7843 119.942 69.7843C117.673 69.7843 115.839 69.5046 114.503 69.2559C113.042 68.8518 111.985 68.0747 111.333 66.9867C110.68 65.8988 110.4 64.4689 110.4 62.4795V51.4446C110.4 37.208 106.701 26.7014 86.2812 26.7014V20.3602C84.7893 25.3959 72.7298 33.2602 72.7298 33.2602C72.7298 33.2602 84.9136 41.0935 86.2501 46.1602V39.788C93.3987 39.788 97.6568 41.1246 97.6568 51.7554V63.8472C97.6568 66.6448 98.0609 69.0383 98.9933 70.9034C99.9257 72.7684 101.107 74.2294 102.847 75.2863C104.433 76.3431 106.297 77.1513 108.411 77.6798C110.524 78.2082 112.669 78.488 115.031 78.488C117.393 78.488 119.538 78.2082 121.403 77.6798C121.683 77.5554 121.931 77.5554 122.211 77.4C123.796 76.8716 125.257 76.1877 126.469 75.5349C127.93 74.6024 129.266 73.6699 130.168 72.613C130.976 71.8048 131.504 71.0277 132.033 70.3439C132.157 70.0641 132.437 69.8154 132.561 69.5357C132.685 69.2559 132.841 69.0072 132.965 68.7275V78.5812C132.965 99.4699 115.995 116.473 95.1703 116.473C74.3149 116.504 57.3447 99.4699 57.3447 78.6123C57.3447 78.3325 57.3447 78.0839 57.3447 77.8041V77.6798V63.3188C57.8731 63.039 58.4014 62.7904 59.2095 62.5106C59.4893 62.3863 59.6136 62.3863 59.8622 62.2308C60.2663 62.1065 60.7947 61.9511 61.323 61.8267C62.2555 61.547 63.1879 61.4227 64.1203 61.174C65.7055 60.8942 67.2906 60.6455 69.0312 60.6455C71.9528 60.6455 74.1906 60.9253 75.8068 61.4537C77.392 61.9822 78.6041 62.7904 79.2568 63.8472C79.9095 64.9041 80.1893 66.2407 80.1893 67.826V77.5243C80.1893 91.761 83.8879 102.267 104.308 102.267V108.64C105.769 103.573 117.828 95.7398 117.828 95.7398C117.828 95.7398 105.645 88.0308 104.308 83.1195V89.6472C97.1595 89.6472 92.9014 88.3106 92.9014 77.6798V62.5106C92.9014 60.2414 92.373 58.3764 91.5649 56.7911C90.6325 55.2058 89.4514 54.1178 87.8663 53.1853C86.4055 52.2528 84.5406 51.6 82.7068 51.1959C80.7176 50.7918 78.7285 50.6675 76.6149 50.6675C73.4447 50.6675 70.6474 51.0716 68.2541 51.8798C68.1298 51.9108 68.0366 51.9419 67.9744 51.973C65.5812 52.7812 63.592 53.8692 62.0068 55.0814C60.4217 56.2937 59.2095 57.3506 58.3082 58.5318C58.0285 58.9359 57.7798 59.34 57.5001 59.5887V50.8229C57.5001 48.5537 57.7798 46.3157 58.1528 44.1708C61.323 26.4528 76.7082 12.9 95.3879 12.9C113.943 12.9 129.204 26.4528 132.374 44.1398C132.778 46.2535 133.027 48.5226 133.027 50.7918L133.058 64.6243Z" fill="white"/>
<path d="M38.6027 64.2829C37.6703 62.9527 36.0851 61.9009 33.8473 61.0966C31.6405 60.2923 28.5946 59.7664 24.7405 59.5498L17.5297 59.0549C15.9135 58.9311 14.8257 58.7455 14.2351 58.4362C13.6757 58.0959 13.3959 57.6319 13.3959 56.9822C13.3959 56.2088 13.8622 55.5901 14.7946 55.1571C15.727 54.724 17.1257 54.4765 18.9905 54.4765C20.5135 54.4765 21.7878 54.6312 22.7824 54.9714C23.777 55.2808 24.5851 55.683 25.1757 56.2398C25.7662 56.7657 26.1703 57.3844 26.3568 58.065H39.3487C39.1 55.8376 38.0743 53.8887 36.3338 52.2182C34.6243 50.5168 32.3243 49.1866 29.4649 48.2585C26.6054 47.3305 23.3108 46.8665 19.6122 46.8665C15.8514 46.8665 12.5568 47.2686 9.75946 48.1039C6.96216 48.8772 4.78649 50.0837 3.20135 51.7233C1.6473 53.3628 0.839189 55.4045 0.839189 57.8484C0.839189 59.7045 1.33649 61.3131 2.36216 62.7052C3.35676 64.0354 5.03513 65.1182 7.33513 65.9225C9.63514 66.7268 12.7743 67.2836 16.6905 67.5311L22.1297 67.9332C24.1189 68.0879 25.5176 68.3354 26.3257 68.6447C27.1959 68.9541 27.6 69.4491 27.6 70.1606C27.6 70.9649 27.0716 71.6145 25.9838 72.0476C24.927 72.4498 23.4041 72.6663 21.3838 72.6663C19.7365 72.6663 18.3378 72.5116 17.1878 72.2332C16.0689 71.9239 15.1676 71.5217 14.4527 70.9649C13.7378 70.408 13.2716 69.7275 12.9919 68.9541H0C0.124324 71.3052 1.02568 73.3469 2.73514 75.1411C4.47568 76.9353 6.9 78.2965 9.94595 79.2555C13.0541 80.2145 16.6284 80.7094 20.7 80.7094C24.6473 80.7094 28.0662 80.2763 30.9257 79.4411C33.8473 78.5749 36.0851 77.3066 37.6392 75.6051C39.2554 73.8728 40.0324 71.7073 40.0324 69.1397C40.0635 67.2527 39.5662 65.6131 38.6027 64.2829Z" fill="white"/>
<path d="M170.73 47.1448C171.6 46.3405 173.216 45.9074 175.641 45.9074C176.946 45.9074 178.189 46.0002 179.339 46.1858C180.489 46.3714 181.639 46.6189 182.82 46.9592V37.7096C181.297 37.3074 179.868 36.9981 178.5 36.8125C177.195 36.5959 175.734 36.4722 174.149 36.4722C170.388 36.4722 167.187 37.0599 164.576 38.2045C161.965 39.3182 159.976 40.9887 158.639 43.216C157.334 45.3815 156.65 48.0109 156.619 51.1663H150.185V60.5087H156.619V80.2762H169.424V60.5087H181.95V51.1663H169.424V50.7642C169.424 49.1246 169.86 47.9181 170.73 47.1448Z" fill="white"/>
<path d="M207.779 36.4104C204.111 36.4104 201.034 36.9982 198.485 38.1428C195.999 39.2564 194.072 40.896 192.766 43.0924C191.461 45.2578 190.839 47.9182 190.808 51.1046H184.375V60.447H190.808V80.2145H203.614V60.447H214.679V51.1046H203.614V50.1456C203.614 48.6298 204.049 47.5161 204.888 46.8665C205.758 46.1549 207.219 45.8147 209.302 45.8147C210.389 45.8147 211.415 45.9075 212.379 46.0931C213.342 46.2787 214.306 46.5262 215.238 46.8665V37.6169C213.995 37.2147 212.783 36.9054 211.602 36.7198C210.483 36.5032 209.208 36.4104 207.779 36.4104Z" fill="white"/>
<path d="M232.706 37.3385H219.9V80.2145H232.706V37.3385Z" fill="white"/>
<path d="M261.362 72.3569C258.814 72.3569 256.7 72.0167 254.991 71.367C253.281 70.6555 251.976 69.6656 251.137 68.3663C250.888 67.9951 250.701 67.562 250.515 67.1289H275.753C275.753 63.1074 275.007 59.6426 273.515 56.6729C272.054 53.7031 269.941 51.4139 267.206 49.8362C264.439 48.1966 261.114 47.3923 257.197 47.3923C253.468 47.3923 250.08 48.1038 247.065 49.4959C244.081 50.8571 241.719 52.806 239.947 55.3426C238.238 57.8793 237.368 60.7872 237.368 64.1282C237.368 67.5311 238.269 70.5318 240.041 73.0994C241.843 75.667 244.268 77.6468 247.376 79.0699C250.484 80.4929 253.996 81.1734 257.943 81.1734C260.989 81.1734 264.035 80.7403 267.019 79.9051C270.003 79.008 272.645 77.7396 274.914 76.131V68.6757C272.987 69.9131 270.842 70.8411 268.48 71.4598C266.18 72.0476 263.787 72.3569 261.362 72.3569ZM253.25 56.7347C254.369 56.0542 255.706 55.7448 257.291 55.7448C258.72 55.7448 259.933 56.0232 260.927 56.5801C261.984 57.1369 262.792 57.9412 263.383 59.0239C263.724 59.5498 263.973 60.1685 264.191 60.8491H250.266C250.391 60.3851 250.546 59.952 250.764 59.5189C251.354 58.3124 252.193 57.3844 253.25 56.7347Z" fill="white"/>
</g>
<defs>
<clipPath id="clip0_3282_28815">
<rect width="276" height="129" fill="white"/>
</clipPath>
</defs>
</svg>
