<svg width="24" height="25" viewBox="0 0 24 25" fill="none" xmlns="http://www.w3.org/2000/svg">
<path d="M17.1589 21.3621L6.54893 24.0765C6.34535 24.1287 6.13341 24.1402 5.92537 24.1101C5.71733 24.0801 5.51732 24.0092 5.33691 23.9016C5.15649 23.7939 4.99926 23.6517 4.87431 23.483C4.74935 23.3143 4.65916 23.1226 4.60893 22.9189L0.0489331 4.77685C-0.0540345 4.36664 0.0102731 3.93243 0.227745 3.56949C0.445217 3.20654 0.79809 2.94452 1.20893 2.8409L11.8189 0.176475C12.0225 0.124225 12.2345 0.112777 12.4425 0.142792C12.6505 0.172807 12.8505 0.24369 13.031 0.351341C13.2114 0.458991 13.3686 0.601272 13.4936 0.769951C13.6185 0.938631 13.7087 1.13036 13.7589 1.33405L18.3189 19.4262C18.4219 19.8364 18.3576 20.2706 18.1401 20.6335C17.9226 20.9965 17.5698 21.2585 17.1589 21.3621ZM22.1589 2.59142H15.3589L15.7589 4.18808H22.1889C22.2455 4.19065 22.299 4.21491 22.3381 4.25581C22.3772 4.2967 22.399 4.35108 22.3989 4.40762V21.1925C22.399 21.249 22.3772 21.3034 22.3381 21.3443C22.299 21.3852 22.2455 21.4095 22.1889 21.412H19.5989C19.3723 21.7706 19.0129 22.0253 18.5989 22.1205L15.0689 23.0087H22.1589C22.3996 23.0113 22.6384 22.9663 22.8616 22.8762C23.0847 22.7861 23.2877 22.6528 23.4588 22.4838C23.6299 22.3149 23.7658 22.1138 23.8585 21.8922C23.9512 21.6705 23.9989 21.4327 23.9989 21.1925V4.40762C24.0003 4.16959 23.9544 3.93364 23.864 3.71334C23.7737 3.49305 23.6406 3.29276 23.4723 3.12397C23.3041 2.95519 23.1042 2.82125 22.8839 2.72986C22.6637 2.63847 22.4275 2.59142 22.1889 2.59142H22.1589Z" fill="black"/>
</svg>
