<svg width="60" height="60" viewBox="0 0 60 60" fill="none" xmlns="http://www.w3.org/2000/svg">
<g filter="url(#filter0_ii_1997_32713)">
<path d="M36.7502 40.5085C36.1007 39.8532 35.4506 38.542 36.7502 36.5758C38.0494 34.6093 39.9982 35.9205 41.2974 34.6095C42.5966 33.2984 45.8446 27.3995 49.0926 31.3322C50.3918 33.2984 52.3404 32.6427 53.6396 33.2984C56.8876 35.2647 56.8876 39.1974 52.9902 43.1303C51.6908 50.34 45.1948 45.7519 42.5966 43.1303C39.9984 40.5087 39.3482 42.4746 36.7502 40.5085Z" fill="#D9D9D9"/>
</g>
<g filter="url(#filter1_ii_1997_32713)">
<path d="M23.2498 49.5085C23.8993 48.8532 24.5494 47.542 23.2498 45.5758C21.9506 43.6093 20.0018 44.9205 18.7026 43.6095C17.4034 42.2984 14.1554 36.3995 10.9074 40.3322C9.60816 42.2984 7.65958 41.6427 6.36037 42.2984C3.11237 44.2647 3.11237 48.1974 7.00976 52.1303C8.30918 59.34 14.8052 54.7519 17.4034 52.1303C20.0016 49.5087 20.6518 51.4746 23.2498 49.5085Z" fill="#D9D9D9"/>
</g>
<g filter="url(#filter2_bii_1997_32713)">
<path d="M18.1439 16.7786C18.3642 16.6465 18.6901 16.2985 18.232 15.9637C17.6594 15.5452 14.0543 12.0874 15.6992 7.21995C17.3441 2.35252 25.0005 3.54184 26.4252 7.21995C27.8498 10.8981 27.5484 14.5321 23.584 17.131C23.0554 17.4173 23.2275 17.6596 23.584 17.9239C25.0596 19.0031 29.6408 20.721 29.6408 20.721L32.2176 19.0692C32.0121 18.7902 31.7948 18.1177 32.57 17.6596C33.3453 17.2015 34.5963 17.3219 35.1249 17.4394C35.3892 17.5128 35.953 18.0032 36.094 19.3775C36.2349 20.7519 35.7416 21.2129 35.4773 21.2716C35.2203 21.3377 34.5522 21.4566 33.9356 21.4038C33.3189 21.3509 33.2087 21.1762 33.2308 21.0954C33.1427 21.0661 32.9356 21.047 32.8123 21.2056C32.6581 21.4038 30.742 23.386 29.2223 23.4521C28.0065 23.5049 25.368 22.505 24.2007 21.9984C23.9804 22.2481 23.6721 23.4609 24.2007 26.3153C24.6653 28.8244 24.7556 29.5545 24.7407 29.6396C25.6052 29.5343 27.5213 29.9247 28.3633 32.328C29.2091 34.7419 30.1547 36.6668 30.5217 37.3276C31.1017 36.9018 32.5216 36.2043 33.5611 36.821C34.6007 37.4377 34.9267 38.2746 35.0368 38.9354C35.1469 39.5961 30.1385 42.7236 29.3985 42.8998C28.4735 43.12 27.6365 42.9218 27.4163 42.7897C27.196 42.6575 26.8657 42.0849 26.8216 41.6664C26.7776 41.2479 26.6895 40.0366 26.1389 39.0235C25.6984 38.213 24.7366 36.1896 24.3108 35.2793C23.2844 35.4849 22.7198 35.489 21.7339 35.2793L21.6679 37.3276C22.1744 37.3276 23.2845 37.6051 23.6721 38.7151C24.0597 39.8252 24.0832 40.4551 24.0465 40.6313C23.9951 40.9102 23.5267 41.7281 22.0643 42.7676C20.6019 43.8072 18.8854 43.7147 18.21 43.5385C17.7915 43.4724 16.9722 42.8778 17.0427 41.0277C17.1132 39.1776 17.1161 36.6448 17.1088 35.6096C15.9488 35.4114 13.739 34.2397 14.1795 31.1387C14.62 28.0376 15.0238 24.8837 15.1706 23.6943C15.0311 23.6356 14.6861 23.5534 14.4218 23.6943C14.1575 23.8353 13.5922 24.1936 13.3426 24.3551C12.9241 24.5093 11.9638 24.6943 11.4705 24.2009C10.8538 23.5842 10.6996 23.0777 10.9199 22.505C11.0961 22.0469 11.6393 21.4772 11.8889 21.2496C11.8743 20.8311 11.9594 19.8312 12.4175 19.1793C12.8756 18.5274 13.1957 18.0414 13.2985 17.8798C13.4527 17.6963 13.8579 17.3777 14.2456 17.5715C14.6332 17.7653 14.5833 18.269 14.5099 18.4965L14.1354 19.4216C14.6273 18.8122 16.1177 17.4305 18.1439 16.7786Z" fill="#DFA100" fill-opacity="0.5"/>
</g>
<g filter="url(#filter3_f_1997_32713)">
<ellipse cx="23.7429" cy="6.98178" rx="1.18655" ry="0.47772" transform="rotate(42.0424 23.7429 6.98178)" fill="white"/>
</g>
<g filter="url(#filter4_f_1997_32713)">
<path d="M15.8186 30.7864C17.3747 29.7502 18.4421 29.646 20.7081 30.3459" stroke="url(#paint0_linear_1997_32713)" stroke-opacity="0.14" stroke-width="0.264295"/>
</g>
<g filter="url(#filter5_f_1997_32713)">
<path d="M21.4955 31.3271C22.7711 29.9604 23.7858 29.6131 26.152 29.7721" stroke="url(#paint1_linear_1997_32713)" stroke-opacity="0.14" stroke-width="0.176197"/>
</g>
<g filter="url(#filter6_f_1997_32713)">
<path d="M14.1285 19.3995C13.5313 19.4283 13.2526 19.389 12.7629 19.3114C13.4295 19.2199 13.8006 19.1604 14.3928 18.8269L14.1285 19.3995Z" fill="url(#paint2_linear_1997_32713)" fill-opacity="0.24"/>
</g>
<g filter="url(#filter7_di_1997_32713)">
<path d="M16.2647 19.9723C16.0533 19.426 14.7817 19.3776 14.1724 19.4216L15.1855 23.6724C15.2149 23.7091 15.3617 23.7385 15.7141 23.5623C16.1546 23.342 16.3528 22.6813 16.4849 21.9545C16.6171 21.2277 16.529 20.655 16.2647 19.9723Z" fill="#D9D9D9" fill-opacity="0.01" shape-rendering="crispEdges"/>
</g>
<g filter="url(#filter8_di_1997_32713)">
<path d="M32.6557 19.0297C32.5147 19.893 32.9641 20.7843 33.2063 21.122C33.4417 21.5449 34.7727 21.4304 35.4088 21.3202C35.3794 20.0795 35.1709 17.5893 34.5718 17.554C33.9728 17.5188 33.4559 17.7009 33.2724 17.7963C33.1256 17.8477 32.7967 18.1663 32.6557 19.0297Z" fill="#D9D9D9" fill-opacity="0.01" shape-rendering="crispEdges"/>
</g>
<g filter="url(#filter9_f_1997_32713)">
<path d="M18.7096 16.228C19.2287 16.9464 20.9246 18.1086 23.555 17.0098" stroke="url(#paint3_linear_1997_32713)" stroke-width="0.0440492"/>
</g>
<g filter="url(#filter10_f_1997_32713)">
<path d="M21.6608 37.3276C20.8679 37.2689 19.0531 37.6712 18.1368 39.7503" stroke="url(#paint4_linear_1997_32713)" stroke-opacity="0.5" stroke-width="0.0440492"/>
</g>
<g filter="url(#filter11_f_1997_32713)">
<path d="M30.6398 37.2871C30.1081 37.3598 28.966 37.8786 28.6512 39.3723" stroke="url(#paint5_linear_1997_32713)" stroke-opacity="0.5" stroke-width="0.0440492"/>
</g>
<g filter="url(#filter12_f_1997_32713)">
<path d="M29.6558 20.6784C29.439 20.9891 29.1617 21.8302 29.7863 22.7084" stroke="url(#paint6_linear_1997_32713)" stroke-opacity="0.5" stroke-width="0.0440492"/>
</g>
<g filter="url(#filter13_ii_1997_32713)">
<path d="M9.23608 53.8618L14.5296 23.6807L14.2165 23.8264L13.9531 23.9806L8.99294 53.8228C8.88331 53.8471 8.83973 53.8701 8.81955 53.9586C7.64003 54.0186 8.36544 54.3647 8.87559 54.5302L8.70187 55.7014L8.90097 55.7413L9.11827 54.5472C9.40437 54.5338 9.96694 54.4677 9.92839 54.3099C9.88019 54.1126 9.50447 54.0544 9.37189 54.0352C9.35206 53.9298 9.27309 53.8757 9.23608 53.8618Z" fill="#D808FA"/>
<path d="M14.3652 18.9919C14.2111 19.2066 14.3512 19.374 14.4405 19.4309L15.4328 19.4762L15.5397 19.3197C15.5959 19.2011 15.6861 18.9466 15.5965 18.878C15.5069 18.8093 15.0576 18.7424 14.8441 18.7175C14.7487 18.7195 14.5194 18.7772 14.3652 18.9919Z" fill="#D808FA"/>
</g>
<g filter="url(#filter14_ii_1997_32713)">
<path d="M33.4016 17.1531C33.5074 17.3293 33.5338 17.5789 33.5338 17.6817C33.71 17.5496 34.1285 17.5276 34.4588 17.5055C34.7892 17.4835 34.8553 17.3514 34.8553 17.3073C34.8553 17.2633 34.8553 16.9109 34.2166 16.7787C33.7056 16.673 33.4604 16.764 33.4016 16.8228C33.3576 16.8595 33.2959 16.9769 33.4016 17.1531Z" fill="#D808FA"/>
<path d="M33.3576 50.0579L33.6422 21.3598C33.8184 21.4259 34.011 21.4259 34.1285 21.4259L33.5778 50.0579C33.6714 50.0864 33.708 50.1143 33.71 50.212C34.5249 50.3442 34.3927 50.5865 33.5778 50.6085L33.5118 51.93H33.3576L33.3356 50.6085C32.5206 50.6305 32.3885 50.2781 33.2034 50.212C33.2034 50.146 33.2474 50.0579 33.3576 50.0579Z" fill="#D808FA"/>
</g>
<g filter="url(#filter15_f_1997_32713)">
<line x1="18.1057" y1="43.3312" x2="21.982" y2="39.4548" stroke="url(#paint7_linear_1997_32713)" stroke-width="0.0880983"/>
</g>
<g filter="url(#filter16_f_1997_32713)">
<line x1="28.6411" y1="42.2564" x2="33.2681" y2="39.3166" stroke="url(#paint8_linear_1997_32713)" stroke-width="0.0880983"/>
</g>
<g filter="url(#filter17_ii_1997_32713)">
<path d="M14.0641 49.5072H12.3021C12.1435 49.4015 12.3682 49.1842 12.5003 49.0887C15.6058 45.9466 22.4158 39.0499 24.8121 36.6008C27.2083 34.1517 28.5709 31.8068 28.9527 30.9405C29.217 30.1182 29.8469 28.3548 30.2521 27.8791C30.6574 27.4033 31.6691 27.3138 32.1242 27.3284C32.528 27.3064 33.3972 27.3549 33.6439 27.7249C33.9523 28.1874 33.7761 28.9362 33.5338 29.8833C33.34 30.6409 31.0157 33.1503 29.8777 34.3102C25.0543 39.0235 15.3195 48.5425 14.9671 48.9125C14.6147 49.2825 14.2182 49.4632 14.0641 49.5072Z" fill="#C6E216"/>
</g>
<g filter="url(#filter18_ii_1997_32713)">
<path d="M19.1955 49.375H17.9622C17.6098 49.375 17.7272 49.0667 17.83 48.9125C23.6688 45.399 35.3107 38.0762 36.5289 37.3276C38.3106 36.2327 44.122 32.2964 45.7792 30.8964C47.5056 29.4379 48.9728 27.2183 49.3912 26.5576C49.8097 25.8968 52.0562 24.8397 52.4086 26.5576C52.761 28.2755 49.4353 30.6762 49.3252 30.7643C49.2371 30.8347 46.7336 32.5556 45.4929 33.4072C37.4686 38.3114 21.2482 48.2518 20.5611 48.7804C19.8739 49.309 19.3644 49.3971 19.1955 49.375Z" fill="#C6E216"/>
</g>
<defs>
<filter id="filter0_ii_1997_32713" x="34" y="28" width="24" height="21" filterUnits="userSpaceOnUse" color-interpolation-filters="sRGB">
<feFlood flood-opacity="0" result="BackgroundImageFix"/>
<feBlend mode="normal" in="SourceGraphic" in2="BackgroundImageFix" result="shape"/>
<feColorMatrix in="SourceAlpha" type="matrix" values="0 0 0 0 0 0 0 0 0 0 0 0 0 0 0 0 0 0 127 0" result="hardAlpha"/>
<feOffset dx="2" dy="-2"/>
<feGaussianBlur stdDeviation="1.5"/>
<feComposite in2="hardAlpha" operator="arithmetic" k2="-1" k3="1"/>
<feColorMatrix type="matrix" values="0 0 0 0 0 0 0 0 0 0 0 0 0 0 0 0 0 0 0.4 0"/>
<feBlend mode="normal" in2="shape" result="effect1_innerShadow_1997_32713"/>
<feColorMatrix in="SourceAlpha" type="matrix" values="0 0 0 0 0 0 0 0 0 0 0 0 0 0 0 0 0 0 127 0" result="hardAlpha"/>
<feOffset dx="-2" dy="2"/>
<feGaussianBlur stdDeviation="1.5"/>
<feComposite in2="hardAlpha" operator="arithmetic" k2="-1" k3="1"/>
<feColorMatrix type="matrix" values="0 0 0 0 1 0 0 0 0 1 0 0 0 0 1 0 0 0 0.6 0"/>
<feBlend mode="normal" in2="effect1_innerShadow_1997_32713" result="effect2_innerShadow_1997_32713"/>
</filter>
<filter id="filter1_ii_1997_32713" x="2" y="37" width="24" height="21" filterUnits="userSpaceOnUse" color-interpolation-filters="sRGB">
<feFlood flood-opacity="0" result="BackgroundImageFix"/>
<feBlend mode="normal" in="SourceGraphic" in2="BackgroundImageFix" result="shape"/>
<feColorMatrix in="SourceAlpha" type="matrix" values="0 0 0 0 0 0 0 0 0 0 0 0 0 0 0 0 0 0 127 0" result="hardAlpha"/>
<feOffset dx="2" dy="-2"/>
<feGaussianBlur stdDeviation="1.5"/>
<feComposite in2="hardAlpha" operator="arithmetic" k2="-1" k3="1"/>
<feColorMatrix type="matrix" values="0 0 0 0 0 0 0 0 0 0 0 0 0 0 0 0 0 0 0.4 0"/>
<feBlend mode="normal" in2="shape" result="effect1_innerShadow_1997_32713"/>
<feColorMatrix in="SourceAlpha" type="matrix" values="0 0 0 0 0 0 0 0 0 0 0 0 0 0 0 0 0 0 127 0" result="hardAlpha"/>
<feOffset dx="-2" dy="2"/>
<feGaussianBlur stdDeviation="1.5"/>
<feComposite in2="hardAlpha" operator="arithmetic" k2="-1" k3="1"/>
<feColorMatrix type="matrix" values="0 0 0 0 1 0 0 0 0 1 0 0 0 0 1 0 0 0 0.6 0"/>
<feBlend mode="normal" in2="effect1_innerShadow_1997_32713" result="effect2_innerShadow_1997_32713"/>
</filter>
<filter id="filter2_bii_1997_32713" x="9.06805" y="2.23803" width="28.8075" height="43.1719" filterUnits="userSpaceOnUse" color-interpolation-filters="sRGB">
<feFlood flood-opacity="0" result="BackgroundImageFix"/>
<feGaussianBlur in="BackgroundImageFix" stdDeviation="0.878391"/>
<feComposite in2="SourceAlpha" operator="in" result="effect1_backgroundBlur_1997_32713"/>
<feBlend mode="normal" in="SourceGraphic" in2="effect1_backgroundBlur_1997_32713" result="shape"/>
<feColorMatrix in="SourceAlpha" type="matrix" values="0 0 0 0 0 0 0 0 0 0 0 0 0 0 0 0 0 0 127 0" result="hardAlpha"/>
<feOffset dx="-1.05718" dy="1.76197"/>
<feGaussianBlur stdDeviation="1.54172"/>
<feComposite in2="hardAlpha" operator="arithmetic" k2="-1" k3="1"/>
<feColorMatrix type="matrix" values="0 0 0 0 1 0 0 0 0 1 0 0 0 0 1 0 0 0 0.32 0"/>
<feBlend mode="normal" in2="shape" result="effect2_innerShadow_1997_32713"/>
<feColorMatrix in="SourceAlpha" type="matrix" values="0 0 0 0 0 0 0 0 0 0 0 0 0 0 0 0 0 0 127 0" result="hardAlpha"/>
<feOffset dx="1.05718" dy="-1.76197"/>
<feGaussianBlur stdDeviation="1.54172"/>
<feComposite in2="hardAlpha" operator="arithmetic" k2="-1" k3="1"/>
<feColorMatrix type="matrix" values="0 0 0 0 0 0 0 0 0 0 0 0 0 0 0 0 0 0 0.24 0"/>
<feBlend mode="normal" in2="effect2_innerShadow_1997_32713" result="effect3_innerShadow_1997_32713"/>
</filter>
<filter id="filter3_f_1997_32713" x="21.5718" y="4.87795" width="4.34224" height="4.2076" filterUnits="userSpaceOnUse" color-interpolation-filters="sRGB">
<feFlood flood-opacity="0" result="BackgroundImageFix"/>
<feBlend mode="normal" in="SourceGraphic" in2="BackgroundImageFix" result="shape"/>
<feGaussianBlur stdDeviation="0.616688" result="effect1_foregroundBlur_1997_32713"/>
</filter>
<filter id="filter4_f_1997_32713" x="15.6132" y="29.6347" width="5.266" height="1.39381" filterUnits="userSpaceOnUse" color-interpolation-filters="sRGB">
<feFlood flood-opacity="0" result="BackgroundImageFix"/>
<feBlend mode="normal" in="SourceGraphic" in2="BackgroundImageFix" result="shape"/>
<feGaussianBlur stdDeviation="0.0660738" result="effect1_foregroundBlur_1997_32713"/>
</filter>
<filter id="filter5_f_1997_32713" x="21.299" y="29.5162" width="4.9911" height="2.00319" filterUnits="userSpaceOnUse" color-interpolation-filters="sRGB">
<feFlood flood-opacity="0" result="BackgroundImageFix"/>
<feBlend mode="normal" in="SourceGraphic" in2="BackgroundImageFix" result="shape"/>
<feGaussianBlur stdDeviation="0.0660738" result="effect1_foregroundBlur_1997_32713"/>
</filter>
<filter id="filter6_f_1997_32713" x="12.6748" y="18.7388" width="1.80596" height="0.758228" filterUnits="userSpaceOnUse" color-interpolation-filters="sRGB">
<feFlood flood-opacity="0" result="BackgroundImageFix"/>
<feBlend mode="normal" in="SourceGraphic" in2="BackgroundImageFix" result="shape"/>
<feGaussianBlur stdDeviation="0.0440492" result="effect1_foregroundBlur_1997_32713"/>
</filter>
<filter id="filter7_di_1997_32713" x="13.9962" y="19.233" width="2.98998" height="4.81961" filterUnits="userSpaceOnUse" color-interpolation-filters="sRGB">
<feFlood flood-opacity="0" result="BackgroundImageFix"/>
<feColorMatrix in="SourceAlpha" type="matrix" values="0 0 0 0 0 0 0 0 0 0 0 0 0 0 0 0 0 0 127 0" result="hardAlpha"/>
<feOffset dx="0.176197" dy="0.0880983"/>
<feGaussianBlur stdDeviation="0.132148"/>
<feComposite in2="hardAlpha" operator="out"/>
<feColorMatrix type="matrix" values="0 0 0 0 0 0 0 0 0 0 0 0 0 0 0 0 0 0 0.08 0"/>
<feBlend mode="normal" in2="BackgroundImageFix" result="effect1_dropShadow_1997_32713"/>
<feBlend mode="normal" in="SourceGraphic" in2="effect1_dropShadow_1997_32713" result="shape"/>
<feColorMatrix in="SourceAlpha" type="matrix" values="0 0 0 0 0 0 0 0 0 0 0 0 0 0 0 0 0 0 127 0" result="hardAlpha"/>
<feOffset dx="-0.176197"/>
<feGaussianBlur stdDeviation="0.0880983"/>
<feComposite in2="hardAlpha" operator="arithmetic" k2="-1" k3="1"/>
<feColorMatrix type="matrix" values="0 0 0 0 1 0 0 0 0 1 0 0 0 0 1 0 0 0 0.12 0"/>
<feBlend mode="normal" in2="shape" result="effect2_innerShadow_1997_32713"/>
</filter>
<filter id="filter8_di_1997_32713" x="32.1003" y="17.2853" width="3.48469" height="4.57747" filterUnits="userSpaceOnUse" color-interpolation-filters="sRGB">
<feFlood flood-opacity="0" result="BackgroundImageFix"/>
<feColorMatrix in="SourceAlpha" type="matrix" values="0 0 0 0 0 0 0 0 0 0 0 0 0 0 0 0 0 0 127 0" result="hardAlpha"/>
<feOffset dx="-0.176197" dy="0.0880983"/>
<feGaussianBlur stdDeviation="0.176197"/>
<feComposite in2="hardAlpha" operator="out"/>
<feColorMatrix type="matrix" values="0 0 0 0 0 0 0 0 0 0 0 0 0 0 0 0 0 0 0.08 0"/>
<feBlend mode="normal" in2="BackgroundImageFix" result="effect1_dropShadow_1997_32713"/>
<feBlend mode="normal" in="SourceGraphic" in2="effect1_dropShadow_1997_32713" result="shape"/>
<feColorMatrix in="SourceAlpha" type="matrix" values="0 0 0 0 0 0 0 0 0 0 0 0 0 0 0 0 0 0 127 0" result="hardAlpha"/>
<feOffset dx="0.264295" dy="-0.0880983"/>
<feGaussianBlur stdDeviation="0.0880983"/>
<feComposite in2="hardAlpha" operator="arithmetic" k2="-1" k3="1"/>
<feColorMatrix type="matrix" values="0 0 0 0 0 0 0 0 0 0 0 0 0 0 0 0 0 0 0.12 0"/>
<feBlend mode="normal" in2="shape" result="effect2_innerShadow_1997_32713"/>
</filter>
<filter id="filter9_f_1997_32713" x="18.3394" y="15.8627" width="5.57649" height="1.9731" filterUnits="userSpaceOnUse" color-interpolation-filters="sRGB">
<feFlood flood-opacity="0" result="BackgroundImageFix"/>
<feBlend mode="normal" in="SourceGraphic" in2="BackgroundImageFix" result="shape"/>
<feGaussianBlur stdDeviation="0.176197" result="effect1_foregroundBlur_1997_32713"/>
</filter>
<filter id="filter10_f_1997_32713" x="17.9405" y="37.1241" width="3.89805" height="2.81126" filterUnits="userSpaceOnUse" color-interpolation-filters="sRGB">
<feFlood flood-opacity="0" result="BackgroundImageFix"/>
<feBlend mode="normal" in="SourceGraphic" in2="BackgroundImageFix" result="shape"/>
<feGaussianBlur stdDeviation="0.0880983" result="effect1_foregroundBlur_1997_32713"/>
</filter>
<filter id="filter11_f_1997_32713" x="28.4534" y="37.0891" width="2.36558" height="2.46397" filterUnits="userSpaceOnUse" color-interpolation-filters="sRGB">
<feFlood flood-opacity="0" result="BackgroundImageFix"/>
<feBlend mode="normal" in="SourceGraphic" in2="BackgroundImageFix" result="shape"/>
<feGaussianBlur stdDeviation="0.0880983" result="effect1_foregroundBlur_1997_32713"/>
</filter>
<filter id="filter12_f_1997_32713" x="29.205" y="20.4896" width="0.775489" height="2.40781" filterUnits="userSpaceOnUse" color-interpolation-filters="sRGB">
<feFlood flood-opacity="0" result="BackgroundImageFix"/>
<feBlend mode="normal" in="SourceGraphic" in2="BackgroundImageFix" result="shape"/>
<feGaussianBlur stdDeviation="0.0880983" result="effect1_foregroundBlur_1997_32713"/>
</filter>
<filter id="filter13_ii_1997_32713" x="7.91844" y="18.4532" width="7.98025" height="37.5524" filterUnits="userSpaceOnUse" color-interpolation-filters="sRGB">
<feFlood flood-opacity="0" result="BackgroundImageFix"/>
<feBlend mode="normal" in="SourceGraphic" in2="BackgroundImageFix" result="shape"/>
<feColorMatrix in="SourceAlpha" type="matrix" values="0 0 0 0 0 0 0 0 0 0 0 0 0 0 0 0 0 0 127 0" result="hardAlpha"/>
<feOffset dx="0.264295" dy="-0.264295"/>
<feGaussianBlur stdDeviation="0.264295"/>
<feComposite in2="hardAlpha" operator="arithmetic" k2="-1" k3="1"/>
<feColorMatrix type="matrix" values="0 0 0 0 0 0 0 0 0 0 0 0 0 0 0 0 0 0 0.32 0"/>
<feBlend mode="normal" in2="shape" result="effect1_innerShadow_1997_32713"/>
<feColorMatrix in="SourceAlpha" type="matrix" values="0 0 0 0 0 0 0 0 0 0 0 0 0 0 0 0 0 0 127 0" result="hardAlpha"/>
<feOffset dx="-0.264295" dy="0.264295"/>
<feGaussianBlur stdDeviation="0.264295"/>
<feComposite in2="hardAlpha" operator="arithmetic" k2="-1" k3="1"/>
<feColorMatrix type="matrix" values="0 0 0 0 1 0 0 0 0 1 0 0 0 0 1 0 0 0 0.5 0"/>
<feBlend mode="normal" in2="effect1_innerShadow_1997_32713" result="effect2_innerShadow_1997_32713"/>
</filter>
<filter id="filter14_ii_1997_32713" x="32.39" y="16.4658" width="2.72952" height="35.7284" filterUnits="userSpaceOnUse" color-interpolation-filters="sRGB">
<feFlood flood-opacity="0" result="BackgroundImageFix"/>
<feBlend mode="normal" in="SourceGraphic" in2="BackgroundImageFix" result="shape"/>
<feColorMatrix in="SourceAlpha" type="matrix" values="0 0 0 0 0 0 0 0 0 0 0 0 0 0 0 0 0 0 127 0" result="hardAlpha"/>
<feOffset dx="0.264295" dy="-0.264295"/>
<feGaussianBlur stdDeviation="0.264295"/>
<feComposite in2="hardAlpha" operator="arithmetic" k2="-1" k3="1"/>
<feColorMatrix type="matrix" values="0 0 0 0 0 0 0 0 0 0 0 0 0 0 0 0 0 0 0.32 0"/>
<feBlend mode="normal" in2="shape" result="effect1_innerShadow_1997_32713"/>
<feColorMatrix in="SourceAlpha" type="matrix" values="0 0 0 0 0 0 0 0 0 0 0 0 0 0 0 0 0 0 127 0" result="hardAlpha"/>
<feOffset dx="-0.264295" dy="0.264295"/>
<feGaussianBlur stdDeviation="0.264295"/>
<feComposite in2="hardAlpha" operator="arithmetic" k2="-1" k3="1"/>
<feColorMatrix type="matrix" values="0 0 0 0 1 0 0 0 0 1 0 0 0 0 1 0 0 0 0.5 0"/>
<feBlend mode="normal" in2="effect1_innerShadow_1997_32713" result="effect2_innerShadow_1997_32713"/>
</filter>
<filter id="filter15_f_1997_32713" x="17.8103" y="39.1594" width="4.46719" height="4.46719" filterUnits="userSpaceOnUse" color-interpolation-filters="sRGB">
<feFlood flood-opacity="0" result="BackgroundImageFix"/>
<feBlend mode="normal" in="SourceGraphic" in2="BackgroundImageFix" result="shape"/>
<feGaussianBlur stdDeviation="0.132148" result="effect1_foregroundBlur_1997_32713"/>
</filter>
<filter id="filter16_f_1997_32713" x="28.3531" y="39.0151" width="5.20291" height="3.54275" filterUnits="userSpaceOnUse" color-interpolation-filters="sRGB">
<feFlood flood-opacity="0" result="BackgroundImageFix"/>
<feBlend mode="normal" in="SourceGraphic" in2="BackgroundImageFix" result="shape"/>
<feGaussianBlur stdDeviation="0.132148" result="effect1_foregroundBlur_1997_32713"/>
</filter>
<filter id="filter17_ii_1997_32713" x="11.9833" y="27.0597" width="22.0895" height="22.7118" filterUnits="userSpaceOnUse" color-interpolation-filters="sRGB">
<feFlood flood-opacity="0" result="BackgroundImageFix"/>
<feBlend mode="normal" in="SourceGraphic" in2="BackgroundImageFix" result="shape"/>
<feColorMatrix in="SourceAlpha" type="matrix" values="0 0 0 0 0 0 0 0 0 0 0 0 0 0 0 0 0 0 127 0" result="hardAlpha"/>
<feOffset dx="0.264295" dy="-0.264295"/>
<feGaussianBlur stdDeviation="0.264295"/>
<feComposite in2="hardAlpha" operator="arithmetic" k2="-1" k3="1"/>
<feColorMatrix type="matrix" values="0 0 0 0 0 0 0 0 0 0 0 0 0 0 0 0 0 0 0.32 0"/>
<feBlend mode="normal" in2="shape" result="effect1_innerShadow_1997_32713"/>
<feColorMatrix in="SourceAlpha" type="matrix" values="0 0 0 0 0 0 0 0 0 0 0 0 0 0 0 0 0 0 127 0" result="hardAlpha"/>
<feOffset dx="-0.264295" dy="0.264295"/>
<feGaussianBlur stdDeviation="0.264295"/>
<feComposite in2="hardAlpha" operator="arithmetic" k2="-1" k3="1"/>
<feColorMatrix type="matrix" values="0 0 0 0 1 0 0 0 0 1 0 0 0 0 1 0 0 0 0.5 0"/>
<feBlend mode="normal" in2="effect1_innerShadow_1997_32713" result="effect2_innerShadow_1997_32713"/>
</filter>
<filter id="filter18_ii_1997_32713" x="17.461" y="25.3608" width="35.2379" height="24.2815" filterUnits="userSpaceOnUse" color-interpolation-filters="sRGB">
<feFlood flood-opacity="0" result="BackgroundImageFix"/>
<feBlend mode="normal" in="SourceGraphic" in2="BackgroundImageFix" result="shape"/>
<feColorMatrix in="SourceAlpha" type="matrix" values="0 0 0 0 0 0 0 0 0 0 0 0 0 0 0 0 0 0 127 0" result="hardAlpha"/>
<feOffset dx="0.264295" dy="-0.264295"/>
<feGaussianBlur stdDeviation="0.264295"/>
<feComposite in2="hardAlpha" operator="arithmetic" k2="-1" k3="1"/>
<feColorMatrix type="matrix" values="0 0 0 0 0 0 0 0 0 0 0 0 0 0 0 0 0 0 0.32 0"/>
<feBlend mode="normal" in2="shape" result="effect1_innerShadow_1997_32713"/>
<feColorMatrix in="SourceAlpha" type="matrix" values="0 0 0 0 0 0 0 0 0 0 0 0 0 0 0 0 0 0 127 0" result="hardAlpha"/>
<feOffset dx="-0.264295" dy="0.264295"/>
<feGaussianBlur stdDeviation="0.264295"/>
<feComposite in2="hardAlpha" operator="arithmetic" k2="-1" k3="1"/>
<feColorMatrix type="matrix" values="0 0 0 0 1 0 0 0 0 1 0 0 0 0 1 0 0 0 0.5 0"/>
<feBlend mode="normal" in2="effect1_innerShadow_1997_32713" result="effect2_innerShadow_1997_32713"/>
</filter>
<linearGradient id="paint0_linear_1997_32713" x1="20.7101" y1="30.3017" x2="15.7766" y2="30.8083" gradientUnits="userSpaceOnUse">
<stop offset="0.158721" stop-opacity="0"/>
<stop offset="0.531827" stop-opacity="0.32"/>
<stop offset="0.692567"/>
<stop offset="0.852375" stop-opacity="0.32"/>
<stop offset="1" stop-opacity="0"/>
</linearGradient>
<linearGradient id="paint1_linear_1997_32713" x1="26.1438" y1="29.7287" x2="21.4597" y2="31.3581" gradientUnits="userSpaceOnUse">
<stop offset="0.158721" stop-opacity="0"/>
<stop offset="0.462876" stop-opacity="0.32"/>
<stop offset="0.692567"/>
<stop offset="0.847382" stop-opacity="0.32"/>
<stop offset="1" stop-opacity="0"/>
</linearGradient>
<linearGradient id="paint2_linear_1997_32713" x1="14.1505" y1="19.4216" x2="14.0404" y2="19.0251" gradientUnits="userSpaceOnUse">
<stop/>
<stop offset="1" stop-opacity="0"/>
</linearGradient>
<linearGradient id="paint3_linear_1997_32713" x1="18.7096" y1="16.228" x2="23.9294" y2="16.8447" gradientUnits="userSpaceOnUse">
<stop stop-opacity="0"/>
<stop offset="0.520072"/>
<stop offset="1" stop-opacity="0"/>
</linearGradient>
<linearGradient id="paint4_linear_1997_32713" x1="18.1368" y1="37.3223" x2="21.9787" y2="37.49" gradientUnits="userSpaceOnUse">
<stop stop-opacity="0"/>
<stop offset="0.520072"/>
<stop offset="1" stop-opacity="0"/>
</linearGradient>
<linearGradient id="paint5_linear_1997_32713" x1="28.3124" y1="37.7781" x2="30.8726" y2="37.3503" gradientUnits="userSpaceOnUse">
<stop stop-opacity="0"/>
<stop offset="0.520072"/>
<stop offset="1" stop-opacity="0"/>
</linearGradient>
<linearGradient id="paint6_linear_1997_32713" x1="28.7968" y1="22.1213" x2="29.8" y2="20.5878" gradientUnits="userSpaceOnUse">
<stop stop-opacity="0"/>
<stop offset="0.520072"/>
<stop offset="1" stop-opacity="0"/>
</linearGradient>
<linearGradient id="paint7_linear_1997_32713" x1="18.4605" y1="44.0383" x2="22.8859" y2="39.609" gradientUnits="userSpaceOnUse">
<stop stop-opacity="0"/>
<stop offset="0.551091"/>
<stop offset="1" stop-opacity="0"/>
</linearGradient>
<linearGradient id="paint8_linear_1997_32713" x1="28.8334" y1="43.0238" x2="34.1168" y2="39.6638" gradientUnits="userSpaceOnUse">
<stop stop-opacity="0"/>
<stop offset="0.551091"/>
<stop offset="1" stop-opacity="0"/>
</linearGradient>
</defs>
</svg>
