<svg width="17" height="17" viewBox="0 0 17 17" fill="none" xmlns="http://www.w3.org/2000/svg">
<path d="M8.71213 16.4141C13.1304 16.4141 16.7121 12.8323 16.7121 8.41406C16.7121 3.99578 13.1304 0.414062 8.71213 0.414062C4.29385 0.414062 0.712128 3.99578 0.712128 8.41406C0.712128 12.8323 4.29385 16.4141 8.71213 16.4141Z" fill="#FFDD67"/>
<path d="M5.64541 8.30729C6.38179 8.30729 6.97874 7.71034 6.97874 6.97396C6.97874 6.23758 6.38179 5.64062 5.64541 5.64062C4.90903 5.64062 4.31207 6.23758 4.31207 6.97396C4.31207 7.71034 4.90903 8.30729 5.64541 8.30729Z" fill="#664E27"/>
<path d="M11.7788 8.30729C12.5152 8.30729 13.1121 7.71034 13.1121 6.97396C13.1121 6.23758 12.5152 5.64062 11.7788 5.64062C11.0424 5.64062 10.4455 6.23758 10.4455 6.97396C10.4455 7.71034 11.0424 8.30729 11.7788 8.30729Z" fill="#664E27"/>
<path d="M12.072 10.6258C9.91201 12.1458 7.51201 12.1192 5.35201 10.6258C5.08534 10.4392 4.87201 10.7592 5.03201 11.0525C5.69868 12.1192 7.00534 13.1058 8.71201 13.1058C10.4187 13.1058 11.7253 12.1458 12.392 11.0525C12.552 10.7592 12.3387 10.4392 12.072 10.6258Z" fill="#664E27"/>
</svg>
