<?xml version="1.0" standalone="no"?>
<!DOCTYPE svg PUBLIC "-//W3C//DTD SVG 20010904//EN"
 "http://www.w3.org/TR/2001/REC-SVG-20010904/DTD/svg10.dtd">
<svg version="1.0" xmlns="http://www.w3.org/2000/svg"
 width="24.000000pt" height="24.000000pt" viewBox="0 0 24.000000 24.000000"
 preserveAspectRatio="xMidYMid meet">

<g transform="translate(0.000000,24.000000) scale(0.100000,-0.100000)"
fill="#000000" stroke="none">
<path d="M118 229 c-10 -5 -20 -25 -24 -44 -3 -20 -12 -35 -20 -35 -8 0 -14
-9 -14 -20 0 -11 7 -20 15 -20 12 0 15 -13 15 -55 0 -52 1 -55 25 -55 24 0 25
3 25 55 0 48 2 55 20 55 13 0 20 7 20 20 0 13 -7 20 -20 20 -14 0 -20 7 -20
21 0 12 8 23 20 26 28 8 26 43 -2 43 -13 0 -31 -5 -40 -11z"/>
</g>
</svg>
