<?xml version="1.0" standalone="no"?>
<!DOCTYPE svg PUBLIC "-//W3C//DTD SVG 20010904//EN"
 "http://www.w3.org/TR/2001/REC-SVG-20010904/DTD/svg10.dtd">
<svg version="1.0" xmlns="http://www.w3.org/2000/svg"
 width="24.000000pt" height="24.000000pt" viewBox="0 0 24.000000 24.000000"
 preserveAspectRatio="xMidYMid meet">

<g transform="translate(0.000000,24.000000) scale(0.100000,-0.100000)"
fill="#000000" stroke="none">
<path d="M12 228 c-16 -16 -16 -200 0 -216 16 -16 200 -16 216 0 16 16 16 200
0 216 -16 16 -200 16 -216 0z m208 -108 l0 -100 -30 0 c-27 0 -30 3 -30 34 0
21 6 36 15 40 8 3 15 10 15 16 0 5 -7 10 -15 10 -19 0 -19 29 0 36 19 8 20 34
1 34 -21 0 -46 -28 -46 -51 0 -10 -7 -19 -15 -19 -8 0 -15 -5 -15 -10 0 -6 7
-13 15 -16 9 -4 15 -19 15 -40 l0 -34 -55 0 -55 0 0 100 0 100 100 0 100 0 0
-100z"/>
</g>
</svg>
