<svg width="24" height="24" viewBox="0 0 24 24" fill="none" xmlns="http://www.w3.org/2000/svg">
<path fill-rule="evenodd" clip-rule="evenodd" d="M21.5786 3.3475C21.8239 3.56377 21.9282 3.89883 21.8489 4.21614L17.8489 20.2161C17.7724 20.522 17.5374 20.763 17.2336 20.8472C16.9298 20.9313 16.6042 20.8455 16.3813 20.6226L12.0947 16.336L9.7 19.5289C9.50473 19.7893 9.18109 19.9198 8.85985 19.8676C8.5386 19.8155 8.27282 19.5894 8.16991 19.2806L6.28452 13.6245L2.60869 11.7865C2.29914 11.6318 2.1099 11.3091 2.12595 10.9634C2.14199 10.6176 2.3603 10.3139 2.68286 10.1884L20.6829 3.18842C20.9877 3.06987 21.3332 3.13123 21.5786 3.3475ZM12.6294 14.3958C12.6229 14.3892 12.6163 14.3826 12.6096 14.3761L12.2374 14.0039L15.6187 10.6226C15.9604 10.2809 15.9604 9.72691 15.6187 9.3852C15.277 9.04349 14.723 9.04349 14.3813 9.3852L10.3813 13.3852C10.0396 13.7269 10.0396 14.2809 10.3813 14.6226L10.8447 15.086L9.302 17.1429L7.8301 12.7272C7.75672 12.5071 7.59888 12.3251 7.39132 12.2213L5.15676 11.104L19.741 5.43239L16.5259 18.2924L12.6294 14.3958Z" fill="black"/>
</svg>
