<svg width="24" height="24" viewBox="0 0 24 24" fill="none" xmlns="http://www.w3.org/2000/svg">
<path fill-rule="evenodd" clip-rule="evenodd" d="M15.0209 3.34297C15.5299 3.25597 16.0989 3.22697 16.6349 3.31797C17.5897 3.47924 18.4743 3.9226 19.1749 4.59097C19.6309 4.60097 20.0799 4.51097 20.4769 4.38297C20.8606 4.25784 21.2289 4.08977 21.5749 3.88197L21.5839 3.87597C21.7279 3.78002 21.9007 3.73682 22.0729 3.75369C22.2451 3.77055 22.4062 3.84645 22.5288 3.96851C22.6515 4.09057 22.7281 4.25129 22.7458 4.42342C22.7635 4.59555 22.7212 4.76851 22.6259 4.91297C22.4189 5.22797 22.1299 5.78997 21.8069 6.41997L21.6519 6.72097C21.4669 7.08097 21.2769 7.44497 21.0999 7.75697C20.9889 7.95297 20.8699 8.15197 20.7499 8.32397V8.59797C20.7622 10.2366 20.448 11.8613 19.8257 13.3772C19.2033 14.8931 18.2853 16.2699 17.1251 17.4271C15.9649 18.5844 14.5859 19.499 13.0684 20.1176C11.551 20.7362 9.92552 21.0463 8.28691 21.03C5.91236 21.0321 3.58777 20.348 1.59291 19.06C1.45033 18.9677 1.34326 18.8299 1.28923 18.6689C1.23519 18.5079 1.23739 18.3333 1.29546 18.1737C1.35353 18.0142 1.46403 17.879 1.60889 17.7904C1.75376 17.7018 1.9244 17.665 2.09291 17.686C3.47078 17.8507 4.86729 17.6284 6.12591 17.044C5.51184 16.7648 4.96264 16.3608 4.51328 15.8577C4.06392 15.3547 3.72426 14.7635 3.51591 14.122C3.47621 13.9991 3.46889 13.8682 3.49464 13.7417C3.52039 13.6152 3.57835 13.4975 3.66291 13.4L3.67291 13.39C3.1653 12.9377 2.75848 12.3838 2.47887 11.7641C2.19926 11.1444 2.05311 10.4728 2.04991 9.79297V9.74097C2.04984 9.57632 2.10395 9.41622 2.20389 9.28538C2.30383 9.15454 2.44405 9.06021 2.60291 9.01697C2.26429 8.34131 2.0886 7.59573 2.08991 6.83997C2.08934 5.98314 2.31346 5.14114 2.73991 4.39797C2.8005 4.29247 2.88584 4.20329 2.98858 4.13813C3.09131 4.07297 3.20835 4.03378 3.32961 4.02394C3.45087 4.01409 3.5727 4.0339 3.6846 4.08164C3.7965 4.12938 3.8951 4.20362 3.97191 4.29797C5.7211 6.4529 8.2271 7.85863 10.9779 8.22797C10.954 7.32815 11.181 6.43944 11.6335 5.6613C12.086 4.88316 12.7461 4.24629 13.5399 3.82197C13.9419 3.60797 14.4739 3.43697 15.0219 3.34297H15.0209ZM3.74291 10.891C3.9371 11.4375 4.26985 11.9242 4.7086 12.3036C5.14735 12.6829 5.67707 12.9418 6.24591 13.055C6.4098 13.0876 6.55809 13.1741 6.66725 13.3006C6.77641 13.4271 6.84019 13.5865 6.84846 13.7534C6.85673 13.9203 6.80902 14.0852 6.7129 14.2219C6.61679 14.3586 6.47777 14.4593 6.31791 14.508C6.04591 14.591 5.76691 14.648 5.48391 14.681C5.79116 15.0773 6.18327 15.3998 6.63146 15.6247C7.07965 15.8497 7.57253 15.9714 8.07391 15.981C8.22857 15.9839 8.37854 16.0345 8.50328 16.126C8.62802 16.2175 8.72143 16.3453 8.7707 16.4919C8.81998 16.6385 8.82272 16.7968 8.77853 16.945C8.73435 17.0933 8.64542 17.2242 8.52391 17.32C7.48116 18.1404 6.26938 18.7193 4.97591 19.015C6.04678 19.3577 7.16453 19.5315 8.28891 19.53H8.29791C9.73792 19.5452 11.1665 19.2732 12.5002 18.73C13.834 18.1868 15.0461 17.3833 16.0657 16.3663C17.0854 15.3494 17.8921 14.1394 18.4388 12.8072C18.9856 11.4749 19.2613 10.047 19.2499 8.60697V8.07197C19.2498 7.88986 19.3159 7.71391 19.4359 7.57697C19.5059 7.49797 19.6259 7.31597 19.7959 7.01697C19.9559 6.73497 20.1339 6.39497 20.3189 6.03597L20.3519 5.96997C19.8295 6.08752 19.2917 6.12027 18.7589 6.06697C18.5788 6.04734 18.4118 5.96315 18.2889 5.82997C17.786 5.28465 17.1163 4.92167 16.3849 4.79797C16.016 4.74578 15.6411 4.75423 15.2749 4.82297C14.918 4.87852 14.5715 4.98741 14.2469 5.14597C13.5926 5.49557 13.0728 6.05249 12.7691 6.72936C12.4654 7.40623 12.395 8.16476 12.5689 8.88597C12.5963 8.99937 12.5968 9.1176 12.5705 9.23125C12.5441 9.3449 12.4917 9.45085 12.4172 9.54065C12.3427 9.63046 12.2483 9.70165 12.1415 9.74858C12.0347 9.79551 11.9184 9.81687 11.8019 9.81097C8.7295 9.65556 5.82477 8.36271 3.65291 6.18397C3.61072 6.40041 3.58962 6.62045 3.58991 6.84097V6.84297C3.58879 7.39371 3.72387 7.93619 3.98314 8.4221C4.24241 8.908 4.61781 9.32225 5.07591 9.62797C5.21044 9.71851 5.312 9.85022 5.36536 10.0033C5.41873 10.1565 5.42103 10.3228 5.37192 10.4773C5.32281 10.6319 5.22493 10.7663 5.09296 10.8605C4.96099 10.9548 4.80203 11.0037 4.63991 11C4.33812 10.9916 4.03779 10.9558 3.74291 10.891Z" fill="black"/>
</svg>
