<svg width="24" height="24" viewBox="0 0 24 24" fill="none" xmlns="http://www.w3.org/2000/svg">
<path fill-rule="evenodd" clip-rule="evenodd" d="M17.2803 5.83508C14.1653 3.17812 9.55996 3.25401 6.53414 6.01215C3.50832 8.7703 3.00742 13.3489 5.36531 16.6961C5.54105 16.9455 5.57413 17.2686 5.45258 17.5485L4.4522 19.8524L7.89646 19.2385C8.07936 19.206 8.26789 19.2324 8.43475 19.3141C12.1119 21.1145 16.5542 19.8977 18.8005 16.4747C21.0469 13.0517 20.3954 8.49203 17.2803 5.83508ZM2.89812 21.8693C2.98821 21.8798 3.0783 21.8761 3.16537 21.8593L7.92909 21.0103C12.345 23.015 17.587 21.5135 20.2636 17.4348C22.9938 13.2746 22.202 7.73283 18.416 4.50362C14.63 1.2744 9.03276 1.36663 5.35523 4.71883C1.80129 7.95838 1.11329 13.2643 3.65748 17.2888L2.20218 20.6404C2.16567 20.7212 2.14122 20.808 2.13069 20.8981C2.11797 21.0063 2.12591 21.1146 2.15242 21.2176C2.1835 21.3392 2.23922 21.4489 2.31317 21.5424C2.45569 21.7225 2.66595 21.8421 2.89812 21.8693Z" fill="black"/>
<path fill-rule="evenodd" clip-rule="evenodd" d="M8.12498 8.99997C8.12498 8.24058 8.74059 7.62497 9.49998 7.62497C10.2594 7.62497 10.875 8.24058 10.875 8.99997V9.99997C10.875 10.5566 10.5442 11.036 10.0685 11.2523C10.473 12.5232 11.4767 13.5269 12.7477 13.9314C12.964 13.4557 13.4433 13.125 14 13.125H15C15.7594 13.125 16.375 13.7406 16.375 14.5C16.375 15.2594 15.7594 15.875 15 15.875H14C10.7553 15.875 8.12498 13.2446 8.12498 9.99997V8.99997Z" fill="black"/>
</svg>
