<svg width="24" height="24" viewBox="0 0 24 24" fill="none" xmlns="http://www.w3.org/2000/svg">
<path d="M18.4147 4.46941C14.6147 1.26941 9.01475 1.36941 5.41475 4.66941C1.81475 7.96941 1.11475 13.2694 3.71475 17.2694L2.21475 20.6694C2.21475 20.7694 2.11475 20.8694 2.11475 20.9694C2.11475 21.0694 2.11475 21.1694 2.11475 21.2694C2.11475 21.3694 2.21475 21.4694 2.31475 21.5694C2.51475 21.7694 2.71475 21.8694 2.91475 21.8694C3.01475 21.8694 3.11475 21.8694 3.21475 21.8694L7.91475 20.9694C12.3147 22.9694 17.6147 21.4694 20.2147 17.3694C23.0147 13.2694 22.2147 7.66941 18.4147 4.46941ZM18.8147 16.4694C16.5147 19.8694 12.1147 21.0694 8.41475 19.2694C8.21475 19.1694 8.11475 19.1694 7.91475 19.1694L4.41475 19.7694L5.41475 17.4694C5.51475 17.1694 5.51475 16.8694 5.31475 16.6694C3.01475 13.2694 3.51475 8.76941 6.51475 5.96941C9.51475 3.16941 14.1147 3.16941 17.3147 5.76941C20.4147 8.46941 21.0147 12.9694 18.8147 16.4694ZM16.4147 14.4694C16.4147 15.2694 15.8147 15.8694 15.0147 15.8694H14.0147C10.8147 15.8694 8.11475 13.2694 8.11475 9.96941V8.96941C8.11475 8.16941 8.71475 7.56941 9.51475 7.56941C10.3147 7.56941 10.9147 8.16941 10.9147 8.96941V9.96941C10.9147 10.5694 10.6147 10.9694 10.1147 11.2694C10.5147 12.5694 11.5147 13.5694 12.8147 13.9694C13.0147 13.4694 13.5147 13.1694 14.1147 13.1694H15.1147C15.8147 13.0694 16.4147 13.6694 16.4147 14.4694Z" fill="black"/>
</svg>
