<svg width="24" height="24" viewBox="0 0 24 24" fill="none" xmlns="http://www.w3.org/2000/svg">
<path d="M21.5499 3.35385C21.2499 3.15385 20.9499 3.05385 20.6499 3.15385L2.6499 10.1539C2.3499 10.2539 2.1499 10.5539 2.1499 10.9539C2.1499 11.2539 2.3499 11.6539 2.6499 11.7539L6.3499 13.5539L8.2499 19.2539C8.3499 19.5539 8.6499 19.7539 8.9499 19.8539C9.2499 19.9539 9.5499 19.7539 9.7499 19.5539L12.1499 16.3539L16.4499 20.6539C16.6499 20.8539 16.9499 20.9539 17.2499 20.8539C17.5499 20.7539 17.7499 20.5539 17.8499 20.2539L21.8499 4.25385C21.8499 3.95385 21.7499 3.65385 21.5499 3.35385ZM16.4499 18.3539L12.5499 14.4539L12.1499 14.0539L15.5499 10.6539C15.8499 10.3539 15.8499 9.75385 15.5499 9.45385C15.2499 9.05385 14.6499 9.05385 14.3499 9.45385L10.3499 13.4539C10.0499 13.7539 10.0499 14.3539 10.3499 14.6539L10.8499 15.1539L9.3499 17.1539L7.8499 12.7539C7.7499 12.5539 7.6499 12.3539 7.4499 12.2539L5.2499 11.1539L19.8499 5.45385L16.4499 18.3539Z" fill="black"/>
</svg>
