<svg width="25" height="25" viewBox="0 0 25 25" fill="none" xmlns="http://www.w3.org/2000/svg">
<g clip-path="url(#clip0_50_728)">
<path d="M24.2399 16.4829C24.0509 15.9384 23.774 15.4285 23.4202 14.9735C23.0511 14.5041 22.6008 14.1046 22.0908 13.794C21.4576 13.4237 20.7517 13.1952 20.0216 13.1243C19.6625 13.1063 19.3051 13.0628 18.952 12.9944C18.6735 12.9199 18.4097 12.7982 18.1724 12.6345C17.6185 12.233 17.1862 11.6865 16.9229 11.0551C16.6926 10.5061 16.6233 9.90285 16.723 9.31586C16.7927 9.00674 16.8932 8.70537 17.0228 8.41623C17.1594 8.09036 17.2763 7.75656 17.3727 7.41664C17.5621 6.76783 17.6065 6.08531 17.5026 5.41745C17.3882 4.64368 17.0938 3.90757 16.643 3.26833C16.2624 2.71507 15.7725 2.24561 15.2036 1.8889C14.6831 1.56922 14.1063 1.35207 13.5043 1.24916L12.7546 1.12921H12.5047C12.4448 1.12425 12.3846 1.12425 12.3248 1.12921C11.9882 1.15916 11.6542 1.2126 11.3252 1.28914C11.0044 1.36109 10.6926 1.46837 10.3955 1.60901C9.7816 1.8759 9.22752 2.26341 8.76621 2.74855C8.28933 3.27774 7.92841 3.90083 7.70664 4.5778C7.45585 5.32032 7.38729 6.11227 7.50673 6.88685C7.64754 7.51765 7.84838 8.13354 8.10648 8.7261C8.20357 8.97313 8.26744 9.23195 8.2964 9.49578C8.34155 9.79061 8.34155 10.0906 8.2964 10.3854C8.14657 11.0439 7.81395 11.6468 7.33679 12.1247C7.1147 12.3653 6.85469 12.5679 6.56711 12.7245C6.43428 12.7973 6.29338 12.8543 6.14728 12.8944C5.96376 12.9431 5.77653 12.9765 5.58751 12.9944C5.23765 12.9944 4.8778 12.9944 4.52794 13.1143C4.23595 13.1739 3.95113 13.2643 3.67829 13.3842C3.08378 13.6133 2.5378 13.9524 2.06895 14.3838C1.13117 15.282 0.573144 16.5054 0.509589 17.8024C0.468399 18.4604 0.560189 19.1199 0.779479 19.7416C0.996544 20.3688 1.33635 20.9464 1.77907 21.4409C2.22304 21.9433 2.76354 22.3512 3.36842 22.6404C3.9921 22.9435 4.67429 23.1072 5.3676 23.1202C6.11992 23.1383 6.8671 22.9916 7.5567 22.6904C8.21651 22.3854 8.80548 21.9463 9.286 21.4009C9.53589 21.101 9.7658 20.7812 10.0057 20.4713C10.1444 20.2978 10.302 20.1402 10.4755 20.0015C11.0454 19.5544 11.7504 19.3147 12.4747 19.3218C13.119 19.321 13.7464 19.5278 14.264 19.9115C14.7842 20.4039 15.2623 20.9388 15.6934 21.5109C16.1294 21.9946 16.6557 22.3885 17.2427 22.6704C17.9005 22.9634 18.6119 23.1166 19.3319 23.1202C19.724 23.1423 20.1173 23.1121 20.5014 23.0302C21.3315 22.8468 22.1026 22.4591 22.745 21.9023C23.3873 21.3455 23.8805 20.6372 24.1799 19.8415C24.3848 19.2912 24.493 18.7095 24.4998 18.1223C24.5051 17.5651 24.4173 17.0111 24.2399 16.4829ZM5.50754 19.4317C5.21099 19.4317 4.9211 19.3438 4.67453 19.179C4.42796 19.0143 4.23578 18.7801 4.12229 18.5061C4.00881 18.2321 3.97911 17.9307 4.03697 17.6398C4.09482 17.349 4.23762 17.0818 4.44732 16.8721C4.65701 16.6624 4.92418 16.5196 5.21503 16.4618C5.50588 16.4039 5.80736 16.4336 6.08133 16.5471C6.35531 16.6606 6.58948 16.8527 6.75424 17.0993C6.91899 17.3459 7.00693 17.6358 7.00693 17.9323C7.00693 18.33 6.84896 18.7114 6.56777 18.9926C6.28658 19.2737 5.90521 19.4317 5.50754 19.4317ZM12.5047 15.0035C12.2081 15.0035 11.9182 14.9156 11.6717 14.7508C11.4251 14.5861 11.2329 14.3519 11.1194 14.0779C11.0059 13.804 10.9762 13.5025 11.0341 13.2116C11.092 12.9208 11.2348 12.6536 11.4445 12.4439C11.6541 12.2342 11.9213 12.0914 12.2122 12.0336C12.503 11.9757 12.8045 12.0054 13.0785 12.1189C13.3524 12.2324 13.5866 12.4246 13.7514 12.6711C13.9161 12.9177 14.0041 13.2076 14.0041 13.5041C14.0041 13.9018 13.8461 14.2832 13.5649 14.5644C13.2837 14.8456 12.9023 15.0035 12.5047 15.0035ZM12.5047 7.40664C12.2081 7.40664 11.9182 7.3187 11.6717 7.15395C11.4251 6.98919 11.2329 6.75502 11.1194 6.48104C11.0059 6.20707 10.9762 5.90559 11.0341 5.61474C11.092 5.32388 11.2348 5.05672 11.4445 4.84703C11.6541 4.63733 11.9213 4.49453 12.2122 4.43668C12.503 4.37882 12.8045 4.40852 13.0785 4.522C13.3524 4.63549 13.5866 4.82767 13.7514 5.07424C13.9161 5.32081 14.0041 5.6107 14.0041 5.90725C14.0041 6.10416 13.9653 6.29913 13.8899 6.48104C13.8146 6.66296 13.7041 6.82825 13.5649 6.96748C13.4257 7.10671 13.2604 7.21715 13.0785 7.29251C12.8966 7.36786 12.7016 7.40664 12.5047 7.40664ZM19.5018 19.4017C19.2053 19.4017 18.9154 19.3138 18.6688 19.149C18.4222 18.9843 18.2301 18.7501 18.1166 18.4761C18.0031 18.2022 17.9734 17.9007 18.0312 17.6098C18.0891 17.319 18.2319 17.0518 18.4416 16.8421C18.6513 16.6324 18.9184 16.4896 19.2093 16.4318C19.5002 16.3739 19.8016 16.4036 20.0756 16.5171C20.3496 16.6306 20.5838 16.8228 20.7485 17.0693C20.9133 17.3159 21.0012 17.6058 21.0012 17.9023C21.0052 18.1018 20.9694 18.3 20.8958 18.4853C20.8222 18.6707 20.7124 18.8396 20.5728 18.982C20.4332 19.1244 20.2665 19.2376 20.0826 19.3148C19.8987 19.392 19.7013 19.4318 19.5018 19.4317V19.4017Z" fill="black"/>
</g>
<defs>
<clipPath id="clip0_50_728">
<rect width="24" height="24" fill="white" transform="translate(0.5 0.126465)"/>
</clipPath>
</defs>
</svg>
