<svg width="25" height="24" viewBox="0 0 25 24" fill="none" xmlns="http://www.w3.org/2000/svg">
<g clip-path="url(#clip0_50_727)">
<path d="M19.5468 16.4848C19.8439 16.4848 20.1343 16.5726 20.3812 16.737C20.6282 16.9015 20.8207 17.1352 20.9344 17.4087C21.0481 17.6821 21.0778 17.9831 21.0198 18.2734C20.9619 18.5637 20.8189 18.8303 20.6088 19.0396C20.3988 19.2489 20.1312 19.3915 19.8398 19.4492C19.5485 19.507 19.2465 19.4773 18.9721 19.3641C18.6977 19.2508 18.4631 19.059 18.2981 18.8129C18.1331 18.5667 18.045 18.2774 18.045 17.9814C18.045 17.5845 18.2032 17.2038 18.4849 16.9231C18.7665 16.6425 19.1485 16.4848 19.5468 16.4848ZM3.9875 18.0113C3.99348 18.3043 4.08562 18.589 4.25249 18.8302C4.41935 19.0715 4.65361 19.2586 4.9262 19.3684C5.19879 19.4782 5.49773 19.5058 5.78595 19.4479C6.07417 19.39 6.33899 19.249 6.54757 19.0425C6.75615 18.836 6.89931 18.5731 6.95931 18.2863C7.01931 17.9994 6.99351 17.7014 6.8851 17.429C6.77669 17.1567 6.59044 16.922 6.34945 16.7542C6.10846 16.5863 5.82333 16.4927 5.52941 16.4848C5.32629 16.4794 5.12416 16.515 4.93528 16.5897C4.7464 16.6644 4.57469 16.7764 4.43054 16.9192C4.28638 17.0619 4.17279 17.2322 4.09664 17.42C4.02049 17.6077 3.98336 17.8089 3.9875 18.0113ZM11.1464 13.6014C11.1464 13.8973 11.2345 14.1867 11.3995 14.4328C11.5645 14.6789 11.7991 14.8708 12.0735 14.984C12.348 15.0973 12.6499 15.1269 12.9413 15.0692C13.2326 15.0114 13.5002 14.8689 13.7102 14.6596C13.9203 14.4503 14.0633 14.1836 14.1213 13.8933C14.1792 13.603 14.1495 13.3021 14.0358 13.0286C13.9221 12.7552 13.7296 12.5214 13.4827 12.357C13.2357 12.1925 12.9453 12.1048 12.6483 12.1048C12.2551 12.1047 11.8776 12.2582 11.5968 12.5325C11.316 12.8067 11.1543 13.1797 11.1464 13.5714V13.6014ZM11.1464 6.01859C11.1464 6.31459 11.2345 6.60394 11.3995 6.85006C11.5645 7.09617 11.7991 7.28799 12.0735 7.40127C12.348 7.51454 12.6499 7.54418 12.9413 7.48643C13.2326 7.42868 13.5002 7.28615 13.7102 7.07684C13.9203 6.86754 14.0633 6.60087 14.1213 6.31056C14.1792 6.02025 14.1495 5.71933 14.0358 5.44587C13.9221 5.1724 13.7296 4.93866 13.4827 4.77421C13.2357 4.60977 12.9453 4.52199 12.6483 4.52199C12.4493 4.52198 12.2524 4.56134 12.0689 4.63779C11.8853 4.71425 11.7189 4.82627 11.5791 4.96737C11.4394 5.10846 11.3292 5.27581 11.2549 5.45969C11.1806 5.64358 11.1437 5.84034 11.1464 6.03855V6.01859ZM12.5882 2.66621C11.8938 2.6508 11.2107 2.84314 10.6271 3.2184C10.0435 3.59366 9.58616 4.13461 9.31412 4.77143C8.99393 5.75971 9.07295 6.83345 9.53439 7.76462C9.83669 8.46826 9.96968 9.23258 9.92274 9.99656C9.8758 10.7605 9.65024 11.503 9.26405 12.1646C8.86802 12.8347 8.31323 13.3979 7.6482 13.805C6.98318 14.212 6.2282 14.4504 5.44931 14.4993L4.86859 14.6091C4.22207 14.7511 3.62994 15.0748 3.1623 15.5418C2.69467 16.0088 2.37111 16.5996 2.22995 17.2441C2.08878 17.8887 2.13592 18.5601 2.36578 19.1788C2.59563 19.7975 2.99859 20.3376 3.52692 20.7351C4.09811 21.1806 4.80409 21.4198 5.52941 21.4136C6.11545 21.3914 6.68915 21.2393 7.20875 20.9683C7.72836 20.6973 8.1808 20.3143 8.53315 19.8471C8.98494 19.1944 9.58086 18.6536 10.2751 18.2661C10.9694 17.8787 11.7436 17.655 12.5381 17.6122H13.1088C13.8021 17.7226 14.465 17.9746 15.056 18.3523C15.647 18.73 16.1533 19.2254 16.5431 19.8072C16.6933 19.9769 16.8335 20.1465 16.9937 20.3161C17.3217 20.6621 17.7176 20.9371 18.1568 21.1242C18.5961 21.3113 19.0692 21.4064 19.5468 21.4036C20.0427 21.4061 20.5332 21.3012 20.9844 21.0962C21.4356 20.8912 21.8368 20.591 22.1601 20.2163C22.5003 19.8048 22.7406 19.3207 22.8621 18.8015C22.9837 18.2823 22.9833 17.7421 22.861 17.2231C22.7496 16.7037 22.5177 16.2175 22.1838 15.8034C21.85 15.3893 21.4235 15.0589 20.9386 14.8385C20.5517 14.6908 20.1482 14.5903 19.7371 14.5392C18.4508 14.4441 17.2486 13.8665 16.3729 12.9229C15.7416 12.1584 15.3429 11.2298 15.2241 10.2469C15.1052 9.26391 15.271 8.26757 15.7021 7.37551C15.89 6.89526 15.9764 6.38148 15.9557 5.8664C15.935 5.35133 15.8078 4.84607 15.5819 4.38231C15.3961 3.99513 15.1308 3.65116 14.8031 3.37272C14.4754 3.09428 14.0926 2.88756 13.6795 2.76599C13.3265 2.65467 12.9585 2.59748 12.5882 2.59637M12.5882 1C13.1212 1.00144 13.651 1.08215 14.1601 1.23946C14.8104 1.45983 15.4082 1.81119 15.9164 2.27168C16.4246 2.73217 16.8322 3.29193 17.1139 3.91614C17.3957 4.54036 17.5455 5.21567 17.5541 5.90006C17.5627 6.58445 17.4299 7.26328 17.1639 7.89433C16.6432 9.3111 16.483 10.6082 17.5443 11.8853C18.6057 13.1623 20.1776 12.7633 21.5493 13.3818C22.2566 13.7111 22.8789 14.1974 23.3686 14.8033C23.8582 15.4092 24.2022 16.1188 24.3743 16.8776C24.5463 17.6365 24.5417 18.4245 24.361 19.1813C24.1803 19.9381 23.8281 20.6437 23.3315 21.244C22.8647 21.7908 22.2848 22.2308 21.6316 22.5339C20.9785 22.8369 20.2673 22.9959 19.5468 23C18.8509 23.0018 18.1621 22.8611 17.5231 22.5864C16.884 22.3118 16.3085 21.9092 15.8322 21.4036C14.9411 20.4059 14.3604 19.4081 12.9286 19.2286H12.5381C11.976 19.2576 11.4291 19.4205 10.9431 19.7034C10.457 19.9864 10.0461 20.3812 9.74465 20.8549C9.23741 21.5097 8.58891 22.0424 7.84714 22.4137C7.10537 22.785 6.2893 22.9854 5.45932 23C4.39819 22.9964 3.36756 22.6459 2.52568 22.0023C1.7465 21.4197 1.15239 20.6256 0.814511 19.7151C0.476637 18.8047 0.409327 17.8165 0.620645 16.8689C0.831962 15.9213 1.31295 15.0545 2.00598 14.3723C2.69901 13.6902 3.57471 13.2216 4.52817 13.0227C5.96996 12.7233 7.04129 12.7533 7.87232 11.3365C8.13361 10.8799 8.28416 10.3687 8.31198 9.84386C8.33979 9.31896 8.2441 8.79486 8.03252 8.31337C7.42777 7.01521 7.35591 5.53297 7.83227 4.18276C8.21099 3.2404 8.86919 2.4356 9.71899 1.87581C10.5688 1.31602 11.5697 1.02789 12.5882 1.04989V1Z" fill="black"/>
</g>
<defs>
<clipPath id="clip0_50_727">
<rect width="24" height="24" fill="white" transform="translate(0.5)"/>
</clipPath>
</defs>
</svg>
