<svg width="60" height="60" viewBox="0 0 60 60" fill="none" xmlns="http://www.w3.org/2000/svg">
<g clip-path="url(#clip0_1996_23844)">
<g filter="url(#filter0_ii_1996_23844)">
<circle cx="24.1637" cy="29.5" r="20.1637" fill="url(#paint0_linear_1996_23844)"/>
</g>
<g filter="url(#filter1_d_1996_23844)">
<g filter="url(#filter2_bii_1996_23844)">
<circle cx="35.8363" cy="29.5" r="20.1637" fill="#E4C600" fill-opacity="0.5"/>
</g>
<g filter="url(#filter3_ii_1996_23844)">
<path d="M35.7094 47C45.625 47 49.0807 39.9284 50.2502 35.8369C50.6684 34.3739 49.4458 33.1064 47.9408 33.3308C43.5118 33.9914 39.8267 35.1675 35.7094 35.1538C31.7843 35.1408 28.2281 33.9459 23.9282 33.3076C22.4687 33.091 21.2644 34.2955 21.6065 35.7308C22.5772 39.8048 25.7075 47 35.7094 47Z" fill="white" fill-opacity="0.01"/>
</g>
<g filter="url(#filter4_ii_1996_23844)">
<path d="M24.9507 35.8824C23.9708 35.0843 23.5347 34.5349 23.6715 33.5864C23.7228 33.2309 24.0554 33 24.4146 33H47.5793C47.996 33 48.3605 33.3119 48.3521 33.7284C48.3327 34.6877 47.948 35.1929 47.17 35.8824C47.17 35.8824 43.7516 38.7647 35.7755 38.7647C27.7993 38.7647 24.9507 35.8824 24.9507 35.8824Z" fill="#D9D9D9"/>
</g>
<g filter="url(#filter5_f_1996_23844)">
<ellipse cx="46.1937" cy="22.2651" rx="3.81281" ry="6.44352" transform="rotate(-33.2662 46.1937 22.2651)" fill="white"/>
</g>
</g>
<g filter="url(#filter6_ii_1996_23844)">
<path d="M24.4315 20.8576L21.3107 21.6829C20.6597 21.8551 20.3615 22.6084 20.7182 23.1795L21.8835 25.0451C22.0246 25.271 22.0698 25.5438 22.009 25.803L21.3298 28.702C21.1499 29.4699 21.8882 30.1341 22.6329 29.8743L25.4373 28.896C25.676 28.8127 25.9373 28.8229 26.1688 28.9245L28.4054 29.9068C29.0362 30.1838 29.7517 29.7549 29.8045 29.0679L30.029 26.1529C30.0502 25.8773 30.1845 25.6228 30.4 25.4498L32.8795 23.4594C33.4981 22.9628 33.32 21.9782 32.5666 21.7298L30.1453 20.9317C29.8611 20.838 29.6337 20.6219 29.5257 20.3428L28.809 18.4898C28.5426 17.8012 27.6474 17.6288 27.1444 18.1693L24.9079 20.5721C24.7792 20.7104 24.6141 20.8093 24.4315 20.8576Z" fill="#C6E216"/>
</g>
<g filter="url(#filter7_ii_1996_23844)">
<path d="M47.2846 20.8518L50.6284 21.687C51.2979 21.8542 51.6008 22.6332 51.2201 23.2088L50.0145 25.0317C49.8602 25.2651 49.8107 25.5525 49.878 25.8241L50.5956 28.7166C50.785 29.4802 50.0593 30.1534 49.3121 29.9072L46.2025 28.8827C45.9749 28.8077 45.7279 28.8169 45.5065 28.9087L43.0016 29.9477C42.3749 30.2076 41.6769 29.7814 41.6218 29.1052L41.3822 26.1665C41.3591 25.883 41.2163 25.6228 40.9897 25.4509L38.3907 23.4805C37.7425 22.989 37.9209 21.9706 38.6976 21.7288L41.2837 20.9237C41.5684 20.835 41.7988 20.6239 41.9118 20.3479L42.7088 18.402C42.9807 17.738 43.8428 17.568 44.3464 18.079L46.8147 20.5835C46.9437 20.7144 47.1063 20.8073 47.2846 20.8518Z" fill="#C6E216"/>
</g>
<g filter="url(#filter8_f_1996_23844)">
<ellipse cx="46.7549" cy="22.6261" rx="0.938256" ry="2.8709" transform="rotate(-47.7012 46.7549 22.6261)" fill="white"/>
</g>
<g filter="url(#filter9_f_1996_23844)">
<ellipse cx="28.41" cy="22.3122" rx="0.938256" ry="2.40454" transform="rotate(-47.7012 28.41 22.3122)" fill="white"/>
</g>
<g filter="url(#filter10_ii_1996_23844)">
<path d="M42.4792 44.3084C37.9438 45.2636 35.0655 45.212 30.5765 44.2608C30.0805 44.1557 29.604 43.9359 29.2298 43.5938C25.5777 40.2561 30.6878 39.4429 36.3366 40.3388C42.4514 39.8979 47.0008 39.8709 44.1072 43.3653C43.6963 43.8615 43.1097 44.1756 42.4792 44.3084Z" fill="#E32900"/>
</g>
</g>
<defs>
<filter id="filter0_ii_1996_23844" x="3.05679" y="8.39309" width="42.2138" height="42.2139" filterUnits="userSpaceOnUse" color-interpolation-filters="sRGB">
<feFlood flood-opacity="0" result="BackgroundImageFix"/>
<feBlend mode="normal" in="SourceGraphic" in2="BackgroundImageFix" result="shape"/>
<feColorMatrix in="SourceAlpha" type="matrix" values="0 0 0 0 0 0 0 0 0 0 0 0 0 0 0 0 0 0 127 0" result="hardAlpha"/>
<feOffset dx="0.943209" dy="-0.943209"/>
<feGaussianBlur stdDeviation="0.943209"/>
<feComposite in2="hardAlpha" operator="arithmetic" k2="-1" k3="1"/>
<feColorMatrix type="matrix" values="0 0 0 0 0 0 0 0 0 0 0 0 0 0 0 0 0 0 0.32 0"/>
<feBlend mode="normal" in2="shape" result="effect1_innerShadow_1996_23844"/>
<feColorMatrix in="SourceAlpha" type="matrix" values="0 0 0 0 0 0 0 0 0 0 0 0 0 0 0 0 0 0 127 0" result="hardAlpha"/>
<feOffset dx="-0.943209" dy="0.943209"/>
<feGaussianBlur stdDeviation="0.943209"/>
<feComposite in2="hardAlpha" operator="arithmetic" k2="-1" k3="1"/>
<feColorMatrix type="matrix" values="0 0 0 0 1 0 0 0 0 1 0 0 0 0 1 0 0 0 0.5 0"/>
<feBlend mode="normal" in2="effect1_innerShadow_1996_23844" result="effect2_innerShadow_1996_23844"/>
</filter>
<filter id="filter1_d_1996_23844" x="-2.32739" y="-6.6637" width="68.3274" height="68.3275" filterUnits="userSpaceOnUse" color-interpolation-filters="sRGB">
<feFlood flood-opacity="0" result="BackgroundImageFix"/>
<feColorMatrix in="SourceAlpha" type="matrix" values="0 0 0 0 0 0 0 0 0 0 0 0 0 0 0 0 0 0 127 0" result="hardAlpha"/>
<feOffset dx="-4" dy="-2"/>
<feGaussianBlur stdDeviation="7"/>
<feComposite in2="hardAlpha" operator="out"/>
<feColorMatrix type="matrix" values="0 0 0 0 0 0 0 0 0 0 0 0 0 0 0 0 0 0 0.2 0"/>
<feBlend mode="normal" in2="BackgroundImageFix" result="effect1_dropShadow_1996_23844"/>
<feBlend mode="normal" in="SourceGraphic" in2="effect1_dropShadow_1996_23844" result="shape"/>
</filter>
<filter id="filter2_bii_1996_23844" x="11.6726" y="2.79672" width="48.3274" height="53.4066" filterUnits="userSpaceOnUse" color-interpolation-filters="sRGB">
<feFlood flood-opacity="0" result="BackgroundImageFix"/>
<feGaussianBlur in="BackgroundImageFix" stdDeviation="2"/>
<feComposite in2="SourceAlpha" operator="in" result="effect1_backgroundBlur_1996_23844"/>
<feBlend mode="normal" in="SourceGraphic" in2="effect1_backgroundBlur_1996_23844" result="shape"/>
<feColorMatrix in="SourceAlpha" type="matrix" values="0 0 0 0 0 0 0 0 0 0 0 0 0 0 0 0 0 0 127 0" result="hardAlpha"/>
<feOffset dy="6.53959"/>
<feGaussianBlur stdDeviation="6.53959"/>
<feComposite in2="hardAlpha" operator="arithmetic" k2="-1" k3="1"/>
<feColorMatrix type="matrix" values="0 0 0 0 1 0 0 0 0 1 0 0 0 0 1 0 0 0 0.32 0"/>
<feBlend mode="normal" in2="shape" result="effect2_innerShadow_1996_23844"/>
<feColorMatrix in="SourceAlpha" type="matrix" values="0 0 0 0 0 0 0 0 0 0 0 0 0 0 0 0 0 0 127 0" result="hardAlpha"/>
<feOffset dy="-6.53959"/>
<feGaussianBlur stdDeviation="6.53959"/>
<feComposite in2="hardAlpha" operator="arithmetic" k2="-1" k3="1"/>
<feColorMatrix type="matrix" values="0 0 0 0 0 0 0 0 0 0 0 0 0 0 0 0 0 0 0.24 0"/>
<feBlend mode="normal" in2="effect2_innerShadow_1996_23844" result="effect3_innerShadow_1996_23844"/>
</filter>
<filter id="filter3_ii_1996_23844" x="20.5479" y="32.2823" width="30.7854" height="15.7177" filterUnits="userSpaceOnUse" color-interpolation-filters="sRGB">
<feFlood flood-opacity="0" result="BackgroundImageFix"/>
<feBlend mode="normal" in="SourceGraphic" in2="BackgroundImageFix" result="shape"/>
<feColorMatrix in="SourceAlpha" type="matrix" values="0 0 0 0 0 0 0 0 0 0 0 0 0 0 0 0 0 0 127 0" result="hardAlpha"/>
<feOffset dx="-1" dy="1"/>
<feGaussianBlur stdDeviation="1"/>
<feComposite in2="hardAlpha" operator="arithmetic" k2="-1" k3="1"/>
<feColorMatrix type="matrix" values="0 0 0 0 0 0 0 0 0 0 0 0 0 0 0 0 0 0 0.32 0"/>
<feBlend mode="normal" in2="shape" result="effect1_innerShadow_1996_23844"/>
<feColorMatrix in="SourceAlpha" type="matrix" values="0 0 0 0 0 0 0 0 0 0 0 0 0 0 0 0 0 0 127 0" result="hardAlpha"/>
<feOffset dx="1" dy="-1"/>
<feGaussianBlur stdDeviation="1"/>
<feComposite in2="hardAlpha" operator="arithmetic" k2="-1" k3="1"/>
<feColorMatrix type="matrix" values="0 0 0 0 1 0 0 0 0 1 0 0 0 0 1 0 0 0 0.5 0"/>
<feBlend mode="normal" in2="effect1_innerShadow_1996_23844" result="effect2_innerShadow_1996_23844"/>
</filter>
<filter id="filter4_ii_1996_23844" x="22.8234" y="32.1765" width="26.3523" height="7.41177" filterUnits="userSpaceOnUse" color-interpolation-filters="sRGB">
<feFlood flood-opacity="0" result="BackgroundImageFix"/>
<feBlend mode="normal" in="SourceGraphic" in2="BackgroundImageFix" result="shape"/>
<feColorMatrix in="SourceAlpha" type="matrix" values="0 0 0 0 0 0 0 0 0 0 0 0 0 0 0 0 0 0 127 0" result="hardAlpha"/>
<feOffset dx="0.823529" dy="-0.823529"/>
<feGaussianBlur stdDeviation="0.823529"/>
<feComposite in2="hardAlpha" operator="arithmetic" k2="-1" k3="1"/>
<feColorMatrix type="matrix" values="0 0 0 0 0 0 0 0 0 0 0 0 0 0 0 0 0 0 0.32 0"/>
<feBlend mode="normal" in2="shape" result="effect1_innerShadow_1996_23844"/>
<feColorMatrix in="SourceAlpha" type="matrix" values="0 0 0 0 0 0 0 0 0 0 0 0 0 0 0 0 0 0 127 0" result="hardAlpha"/>
<feOffset dx="-0.823529" dy="0.823529"/>
<feGaussianBlur stdDeviation="0.823529"/>
<feComposite in2="hardAlpha" operator="arithmetic" k2="-1" k3="1"/>
<feColorMatrix type="matrix" values="0 0 0 0 1 0 0 0 0 1 0 0 0 0 1 0 0 0 0.5 0"/>
<feBlend mode="normal" in2="effect1_innerShadow_1996_23844" result="effect2_innerShadow_1996_23844"/>
</filter>
<filter id="filter5_f_1996_23844" x="35.7746" y="10.8249" width="20.8382" height="22.8803" filterUnits="userSpaceOnUse" color-interpolation-filters="sRGB">
<feFlood flood-opacity="0" result="BackgroundImageFix"/>
<feBlend mode="normal" in="SourceGraphic" in2="BackgroundImageFix" result="shape"/>
<feGaussianBlur stdDeviation="2.82963" result="effect1_foregroundBlur_1996_23844"/>
</filter>
<filter id="filter6_ii_1996_23844" x="18.5658" y="15.8503" width="16.6881" height="16.1417" filterUnits="userSpaceOnUse" color-interpolation-filters="sRGB">
<feFlood flood-opacity="0" result="BackgroundImageFix"/>
<feBlend mode="normal" in="SourceGraphic" in2="BackgroundImageFix" result="shape"/>
<feColorMatrix in="SourceAlpha" type="matrix" values="0 0 0 0 0 0 0 0 0 0 0 0 0 0 0 0 0 0 127 0" result="hardAlpha"/>
<feOffset dx="2" dy="-2"/>
<feGaussianBlur stdDeviation="2"/>
<feComposite in2="hardAlpha" operator="arithmetic" k2="-1" k3="1"/>
<feColorMatrix type="matrix" values="0 0 0 0 0 0 0 0 0 0 0 0 0 0 0 0 0 0 0.4 0"/>
<feBlend mode="normal" in2="shape" result="effect1_innerShadow_1996_23844"/>
<feColorMatrix in="SourceAlpha" type="matrix" values="0 0 0 0 0 0 0 0 0 0 0 0 0 0 0 0 0 0 127 0" result="hardAlpha"/>
<feOffset dx="-2" dy="2"/>
<feGaussianBlur stdDeviation="2"/>
<feComposite in2="hardAlpha" operator="arithmetic" k2="-1" k3="1"/>
<feColorMatrix type="matrix" values="0 0 0 0 1 0 0 0 0 1 0 0 0 0 1 0 0 0 0.6 0"/>
<feBlend mode="normal" in2="effect1_innerShadow_1996_23844" result="effect2_innerShadow_1996_23844"/>
</filter>
<filter id="filter7_ii_1996_23844" x="35.9945" y="15.7807" width="17.3922" height="16.2441" filterUnits="userSpaceOnUse" color-interpolation-filters="sRGB">
<feFlood flood-opacity="0" result="BackgroundImageFix"/>
<feBlend mode="normal" in="SourceGraphic" in2="BackgroundImageFix" result="shape"/>
<feColorMatrix in="SourceAlpha" type="matrix" values="0 0 0 0 0 0 0 0 0 0 0 0 0 0 0 0 0 0 127 0" result="hardAlpha"/>
<feOffset dx="2" dy="-2"/>
<feGaussianBlur stdDeviation="2"/>
<feComposite in2="hardAlpha" operator="arithmetic" k2="-1" k3="1"/>
<feColorMatrix type="matrix" values="0 0 0 0 0 0 0 0 0 0 0 0 0 0 0 0 0 0 0.4 0"/>
<feBlend mode="normal" in2="shape" result="effect1_innerShadow_1996_23844"/>
<feColorMatrix in="SourceAlpha" type="matrix" values="0 0 0 0 0 0 0 0 0 0 0 0 0 0 0 0 0 0 127 0" result="hardAlpha"/>
<feOffset dx="-2" dy="2"/>
<feGaussianBlur stdDeviation="2"/>
<feComposite in2="hardAlpha" operator="arithmetic" k2="-1" k3="1"/>
<feColorMatrix type="matrix" values="0 0 0 0 1 0 0 0 0 1 0 0 0 0 1 0 0 0 0.6 0"/>
<feBlend mode="normal" in2="effect1_innerShadow_1996_23844" result="effect2_innerShadow_1996_23844"/>
</filter>
<filter id="filter8_f_1996_23844" x="42.5389" y="18.5726" width="8.43188" height="8.10699" filterUnits="userSpaceOnUse" color-interpolation-filters="sRGB">
<feFlood flood-opacity="0" result="BackgroundImageFix"/>
<feBlend mode="normal" in="SourceGraphic" in2="BackgroundImageFix" result="shape"/>
<feGaussianBlur stdDeviation="1" result="effect1_foregroundBlur_1996_23844"/>
</filter>
<filter id="filter9_f_1996_23844" x="24.5222" y="18.551" width="7.77551" height="7.52246" filterUnits="userSpaceOnUse" color-interpolation-filters="sRGB">
<feFlood flood-opacity="0" result="BackgroundImageFix"/>
<feBlend mode="normal" in="SourceGraphic" in2="BackgroundImageFix" result="shape"/>
<feGaussianBlur stdDeviation="1" result="effect1_foregroundBlur_1996_23844"/>
</filter>
<filter id="filter10_ii_1996_23844" x="26" y="38" width="21" height="9" filterUnits="userSpaceOnUse" color-interpolation-filters="sRGB">
<feFlood flood-opacity="0" result="BackgroundImageFix"/>
<feBlend mode="normal" in="SourceGraphic" in2="BackgroundImageFix" result="shape"/>
<feColorMatrix in="SourceAlpha" type="matrix" values="0 0 0 0 0 0 0 0 0 0 0 0 0 0 0 0 0 0 127 0" result="hardAlpha"/>
<feOffset dx="2" dy="-2"/>
<feGaussianBlur stdDeviation="1.5"/>
<feComposite in2="hardAlpha" operator="arithmetic" k2="-1" k3="1"/>
<feColorMatrix type="matrix" values="0 0 0 0 0 0 0 0 0 0 0 0 0 0 0 0 0 0 0.4 0"/>
<feBlend mode="normal" in2="shape" result="effect1_innerShadow_1996_23844"/>
<feColorMatrix in="SourceAlpha" type="matrix" values="0 0 0 0 0 0 0 0 0 0 0 0 0 0 0 0 0 0 127 0" result="hardAlpha"/>
<feOffset dx="-2" dy="2"/>
<feGaussianBlur stdDeviation="1.5"/>
<feComposite in2="hardAlpha" operator="arithmetic" k2="-1" k3="1"/>
<feColorMatrix type="matrix" values="0 0 0 0 1 0 0 0 0 1 0 0 0 0 1 0 0 0 0.6 0"/>
<feBlend mode="normal" in2="effect1_innerShadow_1996_23844" result="effect2_innerShadow_1996_23844"/>
</filter>
<linearGradient id="paint0_linear_1996_23844" x1="4" y1="9.3363" x2="44.3274" y2="49.6637" gradientUnits="userSpaceOnUse">
<stop stop-color="#E32900"/>
<stop offset="0.494792" stop-color="#C6E216"/>
<stop offset="1" stop-color="#D808FA"/>
</linearGradient>
<clipPath id="clip0_1996_23844">
<rect width="60" height="60" fill="white"/>
</clipPath>
</defs>
</svg>
