<svg width="24" height="24" viewBox="0 0 24 24" fill="none" xmlns="http://www.w3.org/2000/svg">
<path fill-rule="evenodd" clip-rule="evenodd" d="M12.2253 19.4468C11.9567 19.2987 11.6356 19.2986 11.3668 19.4464L6.86048 21.925C6.18436 22.2969 5.39413 21.6962 5.52328 20.9086L6.38414 15.6587C6.43546 15.3457 6.33616 15.0263 6.11864 14.8048L2.4685 11.0878C1.92082 10.5301 2.22274 9.55749 2.97914 9.4428L8.01467 8.67935C8.31498 8.63382 8.57462 8.43655 8.70892 8.15188L10.9623 3.37533C11.3003 2.65875 12.2771 2.65874 12.6152 3.37533L14.8685 8.15188C15.0028 8.43655 15.2625 8.63382 15.5628 8.67935L20.5983 9.4428C21.3547 9.55749 21.6566 10.5301 21.1089 11.0878L17.4588 14.8048C17.2413 15.0263 17.142 15.3457 17.1933 15.6587L18.0538 20.9064C18.183 21.6944 17.392 22.295 16.7158 21.9223L12.2253 19.4468Z" fill="black"/>
</svg>
