<svg width="24" height="24" viewBox="0 0 24 24" fill="none" xmlns="http://www.w3.org/2000/svg">
<path fill-rule="evenodd" clip-rule="evenodd" d="M3 5.625C3 4.17525 4.17525 3 5.625 3H18.375C19.8247 3 21 4.17525 21 5.625V18.375C21 19.8247 19.8247 21 18.375 21H5.625C4.17525 21 3 19.8247 3 18.375V5.625ZM5.625 5.25C5.41789 5.25 5.25 5.41789 5.25 5.625V18.375C5.25 18.5821 5.41789 18.75 5.625 18.75H18.375C18.5821 18.75 18.75 18.5821 18.75 18.375V5.625C18.75 5.41789 18.5821 5.25 18.375 5.25H5.625Z" fill="black"/>
</svg>
