<svg width="24" height="24" viewBox="0 0 24 24" fill="none" xmlns="http://www.w3.org/2000/svg">
<path fill-rule="evenodd" clip-rule="evenodd" d="M12 9.18524C10.4455 9.18524 9.18537 10.4454 9.18537 11.9999C9.18537 13.5544 10.4455 14.8146 12 14.8146C13.5545 14.8146 14.8147 13.5544 14.8147 11.9999C14.8147 10.4454 13.5545 9.18524 12 9.18524ZM7.17489 11.9999C7.17489 9.33506 9.33518 7.17477 12 7.17477C14.6649 7.17477 16.8252 9.33506 16.8252 11.9999C16.8252 14.6648 14.6649 16.825 12 16.825C9.33518 16.825 7.17489 14.6648 7.17489 11.9999Z" fill="black"/>
<path fill-rule="evenodd" clip-rule="evenodd" d="M12 2.3999C12.5552 2.3999 13.0053 2.84996 13.0053 3.40514V4.36011C13.0053 4.91529 12.5552 5.36535 12 5.36535C11.4448 5.36535 10.9948 4.91529 10.9948 4.36011V3.40514C10.9948 2.84996 11.4448 2.3999 12 2.3999ZM5.17734 5.17721C5.56991 4.78465 6.20639 4.78465 6.59895 5.17721L7.26744 5.8457C7.66001 6.23827 7.66001 6.87475 7.26744 7.26731C6.87487 7.65988 6.23839 7.65988 5.84582 7.26731L5.17734 6.59883C4.78477 6.20626 4.78477 5.56978 5.17734 5.17721ZM18.8227 5.17721C19.2153 5.56978 19.2153 6.20626 18.8227 6.59883L18.1542 7.26731C17.7617 7.65988 17.1252 7.65988 16.7326 7.26731C16.34 6.87475 16.34 6.23827 16.7326 5.8457L17.4011 5.17721C17.7937 4.78465 18.4301 4.78465 18.8227 5.17721ZM2.40002 11.9999C2.40002 11.4447 2.85008 10.9947 3.40526 10.9947H4.36023C4.91541 10.9947 5.36547 11.4447 5.36547 11.9999C5.36547 12.5551 4.91541 13.0051 4.36023 13.0051H3.40526C2.85008 13.0051 2.40002 12.5551 2.40002 11.9999ZM18.6346 11.9999C18.6346 11.4447 19.0846 10.9947 19.6398 10.9947H20.5948C21.15 10.9947 21.6 11.4447 21.6 11.9999C21.6 12.5551 21.15 13.0051 20.5948 13.0051H19.6398C19.0846 13.0051 18.6346 12.5551 18.6346 11.9999ZM7.26744 16.7325C7.66001 17.1251 7.66001 17.7615 7.26744 18.1541L6.59895 18.8226C6.20639 19.2152 5.56991 19.2152 5.17734 18.8226C4.78477 18.43 4.78477 17.7935 5.17734 17.401L5.84582 16.7325C6.23839 16.3399 6.87487 16.3399 7.26744 16.7325ZM16.7326 16.7325C17.1252 16.3399 17.7617 16.3399 18.1542 16.7325L18.8227 17.401C19.2153 17.7935 19.2153 18.43 18.8227 18.8226C18.4301 19.2152 17.7937 19.2152 17.4011 18.8226L16.7326 18.1541C16.34 17.7615 16.34 17.1251 16.7326 16.7325ZM12 18.6345C12.5552 18.6345 13.0053 19.0845 13.0053 19.6397V20.5947C13.0053 21.1498 12.5552 21.5999 12 21.5999C11.4448 21.5999 10.9948 21.1498 10.9948 20.5947V19.6397C10.9948 19.0845 11.4448 18.6345 12 18.6345Z" fill="black"/>
</svg>
