<svg width="17" height="17" viewBox="0 0 17 17" fill="none" xmlns="http://www.w3.org/2000/svg">
<path d="M8.71213 0.414062C13.1388 0.414062 16.7121 3.9874 16.7121 8.41406C16.7121 12.8407 13.1388 16.4141 8.71213 16.4141C4.28546 16.4141 0.712128 12.8407 0.712128 8.41406C0.712128 3.9874 4.28546 0.414062 8.71213 0.414062Z" fill="#FFDD67"/>
<path d="M9.72546 5.34824C9.13879 5.64157 8.25879 5.64157 7.67212 5.34824C7.05879 5.02824 6.28546 4.8149 5.35212 4.7349C4.44546 4.6549 2.55212 4.6549 1.61879 5.00157C1.51212 5.02824 1.40546 5.08157 1.29879 5.1349C1.27212 5.16157 1.24546 5.18824 1.24546 5.2949V5.42824C1.24546 5.6949 1.21879 5.58824 1.40546 5.6949C1.77879 5.90824 1.99212 6.46824 2.09879 7.24157C2.25879 8.36157 2.81879 9.08157 3.69879 9.40157C4.52546 9.72157 5.45879 9.6949 6.28546 9.3749C6.73879 9.18824 7.13879 8.92157 7.45879 8.44157C8.01879 7.64157 7.83212 7.1349 8.12546 6.44157C8.36546 5.82824 9.05879 5.82824 9.32546 6.44157C9.61879 7.1349 9.43212 7.64157 9.99212 8.44157C10.3121 8.8949 10.7121 9.18824 11.1655 9.3749C11.9921 9.6949 12.9255 9.72157 13.7521 9.40157C14.6588 9.0549 15.1921 8.36157 15.3521 7.24157C15.4588 6.46824 15.6721 5.90824 16.0455 5.6949C16.2321 5.58824 16.2055 5.6949 16.2055 5.42824V5.2949C16.2055 5.18824 16.2055 5.16157 16.1255 5.1349C16.0188 5.08157 15.9121 5.02824 15.8055 5.00157C14.8455 4.6549 12.9521 4.6549 12.0721 4.7349C11.1388 4.8149 10.3655 5.02824 9.72546 5.34824Z" fill="#494949"/>
<path d="M12.0722 11.161C9.91221 12.681 7.51221 12.6543 5.35221 11.161C5.08554 10.9743 4.87221 11.2943 5.03221 11.5877C5.69888 12.6543 7.00554 13.641 8.71221 13.641C10.4189 13.641 11.7255 12.681 12.3922 11.5877C12.5522 11.2943 12.3389 10.9743 12.0722 11.161Z" fill="#664E27"/>
</svg>
