<?xml version="1.0" encoding="utf-8"?>
<!-- Generator: Adobe Illustrator 22.0.0, SVG Export Plug-In . SVG Version: 6.00 Build 0)  -->
<svg version="1.1" id="Слой_1" xmlns="http://www.w3.org/2000/svg" xmlns:xlink="http://www.w3.org/1999/xlink" x="0px" y="0px"
	 viewBox="0 0 24 24" style="enable-background:new 0 0 24 24;" xml:space="preserve">
<style type="text/css">
	.st0{fill:#2E3436;}
</style>
<path class="st0" d="M11.4,2.4c-0.3,0-0.6,0.3-0.6,0.6v2.4c0,0.3,0.3,0.6,0.6,0.6h1.2c0.3,0,0.6-0.3,0.6-0.6V3
	c0-0.3-0.3-0.6-0.6-0.6H11.4z M6.1,4.6c-0.2,0-0.3,0.1-0.4,0.2L4.8,5.6c-0.2,0.2-0.2,0.6,0,0.8l1.7,1.7c0.2,0.2,0.6,0.2,0.8,0
	l0.8-0.8c0.2-0.2,0.2-0.6,0-0.8L6.5,4.8C6.4,4.7,6.2,4.6,6.1,4.6L6.1,4.6z M17.9,4.6c-0.2,0-0.3,0.1-0.4,0.2l-1.7,1.7
	c-0.2,0.2-0.2,0.6,0,0.8l0.8,0.8c0.2,0.2,0.6,0.2,0.8,0l1.7-1.7c0.2-0.2,0.2-0.6,0-0.8l-0.9-0.9C18.2,4.7,18.1,4.6,17.9,4.6
	L17.9,4.6z M12,7.2c-2.6,0-4.8,2.2-4.8,4.8c0,2.6,2.2,4.8,4.8,4.8s4.8-2.2,4.8-4.8C16.8,9.4,14.6,7.2,12,7.2L12,7.2z M3,10.8
	c-0.3,0-0.6,0.3-0.6,0.6v1.2c0,0.3,0.3,0.6,0.6,0.6h2.4c0.3,0,0.6-0.3,0.6-0.6v-1.2c0-0.3-0.3-0.6-0.6-0.6H3z M18.6,10.8
	c-0.3,0-0.6,0.3-0.6,0.6v1.2c0,0.3,0.3,0.6,0.6,0.6H21c0.3,0,0.6-0.3,0.6-0.6v-1.2c0-0.3-0.3-0.6-0.6-0.6H18.6z M6.9,15.6
	c-0.2,0-0.3,0.1-0.4,0.2l-1.7,1.7c-0.2,0.2-0.2,0.6,0,0.8l0.9,0.9c0.2,0.2,0.6,0.2,0.8,0l1.7-1.7c0.2-0.2,0.2-0.6,0-0.8l-0.8-0.8
	C7.2,15.7,7.1,15.6,6.9,15.6L6.9,15.6z M17.1,15.6c-0.2,0-0.3,0.1-0.4,0.2l-0.8,0.8c-0.2,0.2-0.2,0.6,0,0.8l1.7,1.7
	c0.2,0.2,0.6,0.2,0.8,0l0.9-0.9c0.2-0.2,0.2-0.6,0-0.8l-1.7-1.7C17.4,15.7,17.2,15.6,17.1,15.6L17.1,15.6z M11.4,18
	c-0.3,0-0.6,0.3-0.6,0.6V21c0,0.3,0.3,0.6,0.6,0.6h1.2c0.3,0,0.6-0.3,0.6-0.6v-2.4c0-0.3-0.3-0.6-0.6-0.6H11.4z"/>
</svg>
