<svg width="54" height="54" viewBox="0 0 54 54" fill="none" xmlns="http://www.w3.org/2000/svg">
<g id="swimming">
<g id="Vector" filter="url(#filter0_d_7647_5792)">
<path d="M34.9337 23.6319C37.3703 23.6319 39.3639 21.6383 39.3639 19.2017C39.3639 16.7651 37.3703 14.7715 34.9337 14.7715C32.4971 14.7715 30.5035 16.7651 30.5035 19.2017C30.5035 21.6383 32.4971 23.6319 34.9337 23.6319ZM11.8966 24.2964C11.2321 23.1889 11.8966 21.8598 13.0042 21.1953L21.4216 16.9866C22.3076 16.5436 23.1936 16.7651 24.0797 17.2081L31.3895 23.4104C32.2755 24.2964 32.4971 25.6255 31.8325 26.5115L28.7314 30.7202C28.0669 31.8277 26.5163 32.0493 25.4087 31.1632C24.3012 30.4987 24.0797 28.9481 24.9657 27.8406L26.7378 25.404L22.3076 21.4168L15.2193 24.9609C13.8902 26.0685 12.3397 25.6255 11.8966 24.2964ZM46.4522 37.587C45.5661 38.03 44.4586 38.2515 43.351 38.2515C40.9144 38.2515 38.6993 37.144 37.1488 35.1504C36.7057 34.4859 35.8197 34.0428 34.9337 34.0428C34.0476 34.0428 33.1616 34.4859 32.7186 35.1504C31.3895 37.144 28.9529 38.2515 26.5163 38.2515C24.0797 38.2515 21.8646 37.144 20.314 35.1504C19.871 34.4859 18.985 34.0428 18.0989 34.0428C17.2129 34.0428 16.3268 34.4859 15.8838 35.1504C14.5548 37.144 12.1181 38.2515 9.68154 38.2515C8.57399 38.2515 7.46644 38.03 6.5804 37.587C5.47285 36.9225 5.02983 35.5934 5.47285 34.4859C6.13738 33.3783 7.46644 32.9353 8.57399 33.3783C9.01701 33.5998 9.23852 33.5998 9.68154 33.5998C10.5676 33.5998 11.4536 33.1568 11.8966 32.4923C13.2257 30.4987 15.6623 29.3911 18.0989 29.3911C20.5355 29.3911 22.7506 30.4987 24.3012 32.4923C24.7442 33.1568 25.6303 33.5998 26.5163 33.5998C27.4023 33.5998 28.2884 33.1568 28.7314 32.4923C30.0604 30.4987 32.4971 29.3911 34.9337 29.3911C37.3703 29.3911 39.5854 30.4987 41.1359 32.4923C41.579 33.1568 42.465 33.5998 43.351 33.5998C43.7941 33.5998 44.2371 33.5998 44.4586 33.3783C45.5661 32.7138 46.8952 33.3783 47.5597 34.4859C48.0027 35.5934 47.5597 36.9225 46.4522 37.587Z" fill="black"/>
</g>
</g>
<defs>
<filter id="filter0_d_7647_5792" x="3.30309" y="14.7715" width="46.4264" height="27.4805" filterUnits="userSpaceOnUse" color-interpolation-filters="sRGB">
<feFlood flood-opacity="0" result="BackgroundImageFix"/>
<feColorMatrix in="SourceAlpha" type="matrix" values="0 0 0 0 0 0 0 0 0 0 0 0 0 0 0 0 0 0 127 0" result="hardAlpha"/>
<feOffset dy="2"/>
<feGaussianBlur stdDeviation="1"/>
<feComposite in2="hardAlpha" operator="out"/>
<feColorMatrix type="matrix" values="0 0 0 0 1 0 0 0 0 1 0 0 0 0 1 0 0 0 0.4 0"/>
<feBlend mode="normal" in2="BackgroundImageFix" result="effect1_dropShadow_7647_5792"/>
<feBlend mode="normal" in="SourceGraphic" in2="effect1_dropShadow_7647_5792" result="shape"/>
</filter>
</defs>
</svg>
