<svg width="24" height="24" viewBox="0 0 24 24" fill="none" xmlns="http://www.w3.org/2000/svg">
<path fill-rule="evenodd" clip-rule="evenodd" d="M2.40002 5.4499C2.40002 3.76544 3.76555 2.3999 5.45002 2.3999H18.55C20.2345 2.3999 21.6 3.76543 21.6 5.4499V18.5499C21.6 20.2344 20.2345 21.5999 18.55 21.5999H5.45003C3.76556 21.5999 2.40002 20.2344 2.40002 18.5499V5.4499ZM5.45002 4.4999C4.92535 4.4999 4.50002 4.92523 4.50002 5.4499V18.5499C4.50002 19.0746 4.92535 19.4999 5.45003 19.4999H18.55C19.0747 19.4999 19.5 19.0746 19.5 18.5499V5.4499C19.5 4.92523 19.0747 4.4999 18.55 4.4999H5.45002Z" fill="black"/>
<path fill-rule="evenodd" clip-rule="evenodd" d="M2.40002 9.8624C2.40002 9.2825 2.87013 8.8124 3.45002 8.8124H20.55C21.1299 8.8124 21.6 9.2825 21.6 9.8624C21.6 10.4423 21.1299 10.9124 20.55 10.9124H3.45002C2.87013 10.9124 2.40002 10.4423 2.40002 9.8624Z" fill="black"/>
<path fill-rule="evenodd" clip-rule="evenodd" d="M9.86252 2.3999C10.4424 2.3999 10.9125 2.87 10.9125 3.4499V20.5499C10.9125 21.1298 10.4424 21.5999 9.86252 21.5999C9.28263 21.5999 8.81252 21.1298 8.81252 20.5499V3.4499C8.81252 2.87 9.28263 2.3999 9.86252 2.3999Z" fill="black"/>
</svg>
