<svg width="24" height="24" viewBox="0 0 24 24" fill="none" xmlns="http://www.w3.org/2000/svg">
<path d="M4.53324 10.9334L6.13324 6.13336H17.8666L19.4666 10.9334M17.8666 16.2667C17.4422 16.2667 17.0353 16.0981 16.7352 15.7981C16.4351 15.498 16.2666 15.091 16.2666 14.6667C16.2666 14.2423 16.4351 13.8354 16.7352 13.5353C17.0353 13.2353 17.4422 13.0667 17.8666 13.0667C18.2909 13.0667 18.6979 13.2353 18.9979 13.5353C19.298 13.8354 19.4666 14.2423 19.4666 14.6667C19.4666 15.091 19.298 15.498 18.9979 15.7981C18.6979 16.0981 18.2909 16.2667 17.8666 16.2667ZM6.13324 16.2667C5.70889 16.2667 5.30192 16.0981 5.00186 15.7981C4.70181 15.498 4.53324 15.091 4.53324 14.6667C4.53324 14.2423 4.70181 13.8354 5.00186 13.5353C5.30192 13.2353 5.70889 13.0667 6.13324 13.0667C6.55758 13.0667 6.96455 13.2353 7.26461 13.5353C7.56467 13.8354 7.73324 14.2423 7.73324 14.6667C7.73324 15.091 7.56467 15.498 7.26461 15.7981C6.96455 16.0981 6.55758 16.2667 6.13324 16.2667ZM19.3812 5.60002C19.1679 4.98136 18.5706 4.53336 17.8666 4.53336H15.1999V2.40002H8.7999V4.53336H6.13324C5.42924 4.53336 4.8319 4.98136 4.61857 5.60002L2.3999 12V20.5334C2.3999 20.8163 2.51228 21.0876 2.71232 21.2876C2.91236 21.4876 3.18367 21.6 3.46657 21.6H4.53324C4.81613 21.6 5.08744 21.4876 5.28748 21.2876C5.48752 21.0876 5.5999 20.8163 5.5999 20.5334V19.4667H18.3999V20.5334C18.3999 20.8163 18.5123 21.0876 18.7123 21.2876C18.9124 21.4876 19.1837 21.6 19.4666 21.6H20.5332C20.8161 21.6 21.0874 21.4876 21.2875 21.2876C21.4875 21.0876 21.5999 20.8163 21.5999 20.5334V12L19.3812 5.60002Z" fill="black"/>
</svg>
