<svg width="24" height="24" viewBox="0 0 24 24" fill="none" xmlns="http://www.w3.org/2000/svg">
<path d="M21.0961 8.08596C20.0926 6.58075 17.9853 6.38005 16.6808 7.58422C15.9784 6.98214 15.0752 6.4804 14.1721 6.17936C14.2724 2.56684 9.05436 2.56684 9.15471 6.17936C8.45228 6.38005 7.85019 6.78144 7.24811 7.18283C6.74637 5.67762 5.84324 4.67414 4.33803 4.47345C3.2342 4.3731 2.13038 5.07553 2.63212 6.2797C2.83281 6.88179 3.53524 7.18283 3.53524 7.88527C3.4349 8.5877 2.83281 9.29013 2.63212 9.89222C2.13038 11.1967 2.43142 12.9026 3.63559 13.6051C3.63559 15.311 4.03698 17.0169 5.04046 18.5221C3.93664 19.0239 4.43837 20.4287 5.5422 20.5291C5.84324 20.5291 6.24463 20.5291 6.64602 20.5291C8.35193 20.5291 9.95749 20.5291 11.6634 20.5291C13.3693 20.5291 14.9749 20.5291 16.6808 20.5291C16.9818 20.5291 17.3832 20.5291 17.7846 20.5291C18.7881 20.4287 19.3902 19.0239 18.2863 18.5221C19.4905 16.7159 19.8919 14.6086 19.5909 12.5013C21.3971 11.8992 22.1999 9.69152 21.0961 8.08596ZM17.6843 13.9061C17.6843 15.4113 17.1825 16.8162 16.2794 17.92H6.94706C5.84324 16.5152 5.3415 14.6086 5.64254 12.9026H17.5839C17.6843 13.2037 17.6843 13.5047 17.6843 13.9061ZM6.34498 10.8957C8.55263 6.58075 14.7742 6.58075 16.9818 10.8957H6.34498ZM10.961 5.07553C11.5631 4.47345 12.6669 4.87484 12.6669 5.77797C11.9644 5.67762 11.3624 5.67762 10.6599 5.77797C10.6599 5.47692 10.7603 5.17588 10.961 5.07553ZM4.33803 6.07901C5.3415 6.2797 5.64255 7.28318 5.94359 8.08596C5.04046 9.08944 4.33803 10.1933 3.93664 11.5981C3.63559 10.5947 4.43837 9.79187 4.73942 8.98909C5.14081 7.88527 5.04046 6.88179 4.33803 6.07901ZM19.8919 10.394C19.6912 10.695 19.3902 10.8957 19.0891 11.0964C18.7881 10.1933 18.2863 9.39048 17.6843 8.68805C18.8884 7.58422 20.5943 8.98909 19.8919 10.394Z" fill="black"/>
</svg>
