<svg width="11" height="17" viewBox="0 0 11 17" fill="none" xmlns="http://www.w3.org/2000/svg">
<path d="M5.59644 7.09432C5.59644 7.09432 6.77142 7.33466 5.81008 5.33185C5.11577 3.88983 5.19588 2.20747 5.81008 1.32623C6.82483 -0.08909 8.77423 0.36488 8.5606 1.19271C7.86629 3.99664 9.44184 4.85117 10.243 6.61365C11.0708 8.40282 10.9907 10.9664 10.6168 13.2363C10.3765 14.6516 9.76229 16.4141 7.54584 16.4141H4.47487L5.59644 7.09432Z" fill="#FFDD67"/>
<path d="M7.1986 16.0145C9.41504 16.0145 9.89572 14.252 10.1361 12.8367C10.5099 10.5668 10.5633 8.75094 9.84231 6.90835C9.04118 4.90554 8.21336 4.85213 8.21336 0.899922C8.21336 0.712993 8.10654 0.579473 7.99972 0.472656C8.37358 0.606177 8.58721 0.81981 8.58721 1.14026C8.58721 4.10442 9.41504 4.82543 10.2162 6.61461C11.0707 8.40378 10.9906 10.9674 10.6167 13.2372C10.3764 14.6525 9.7622 16.415 7.54575 16.415H4.47478V16.0145H7.1986Z" fill="#EBA352"/>
<path d="M1.80454 9.41701H5.59652C6.93173 9.41701 6.93173 7.09375 5.59652 7.09375H1.80454C0.469329 7.09375 0.469329 9.41701 1.80454 9.41701Z" fill="#FFDD67"/>
<path d="M1.51051 9.04436H5.3025C6.21044 9.04436 6.47748 7.9762 6.18373 7.30859C6.90474 7.86938 6.69111 9.44492 5.62295 9.44492H1.80426C1.37699 9.44492 1.08324 9.20459 0.923019 8.85743C1.08324 8.96425 1.27017 9.04436 1.51051 9.04436Z" fill="#EBA352"/>
<path d="M1.40394 11.7686H5.94365C7.54589 11.7686 7.54589 9.44531 5.94365 9.44531H1.37724C-0.198305 9.44531 -0.198305 11.7686 1.40394 11.7686Z" fill="#FFDD67"/>
<path d="M1.03041 11.3647H5.59682C6.66498 11.3647 7.01214 10.2965 6.63828 9.62891C7.49281 10.1897 7.25247 11.7652 5.94397 11.7652H1.37757C0.870188 11.7652 0.523034 11.5249 0.336105 11.1777C0.523034 11.2846 0.763372 11.3647 1.03041 11.3647Z" fill="#EBA352"/>
<path d="M1.83117 14.0928H5.67657C7.01177 14.0928 7.01177 11.7695 5.67657 11.7695H1.83117C0.46926 11.7695 0.46926 14.0928 1.83117 14.0928Z" fill="#FFDD67"/>
<path d="M1.51066 13.6883H5.38276C6.2907 13.6883 6.58445 12.6201 6.264 11.9258C6.98501 12.4866 6.79808 14.0621 5.67651 14.0621H1.83111C1.40385 14.0621 1.1101 13.8218 0.949875 13.4746C1.0834 13.6348 1.29703 13.6883 1.51066 13.6883Z" fill="#EBA352"/>
<path d="M2.23159 16.4131H4.71507C6.15709 16.4131 6.15709 14.0898 4.71507 14.0898H2.23159C0.789564 14.0898 0.789564 16.4131 2.23159 16.4131Z" fill="#FFDD67"/>
<path d="M1.91124 16.0398H4.39472C5.35607 16.0398 5.67652 14.9717 5.32937 14.2773C6.10379 14.8381 5.89015 16.4137 4.71517 16.4137H2.23169C1.75101 16.4137 1.45727 16.1733 1.29704 15.8262C1.45727 15.9597 1.6709 16.0398 1.91124 16.0398Z" fill="#EBA352"/>
</svg>
