<svg width="24" height="24" viewBox="0 0 24 24" fill="none" xmlns="http://www.w3.org/2000/svg">
<path fill-rule="evenodd" clip-rule="evenodd" d="M13.5076 5.01491C12.9817 5.01491 12.5553 5.44129 12.5553 5.96726V6.97224C12.5553 9.41382 10.832 11.4529 8.53534 11.9395V17.0221C8.53534 18.1031 9.41167 18.9794 10.4927 18.9794H17.5276C17.5575 18.9794 17.5874 18.9807 17.6172 18.9832C17.6899 18.9894 17.8258 18.9703 18.0085 18.7877C18.1946 18.6015 18.3907 18.274 18.5041 17.8014L19.4811 12.9164C19.4378 12.4306 19.0296 12.0498 18.5326 12.0498H15.5176C14.9335 12.0498 14.46 11.5763 14.46 10.9922V5.96726C14.46 5.44129 14.0336 5.01491 13.5076 5.01491ZM8.09079 20.3113C8.76417 20.8039 9.59447 21.0947 10.4927 21.0947H17.4883C19.1414 21.2039 20.2268 19.7206 20.5672 18.2685C20.5699 18.2572 20.5724 18.2459 20.5746 18.2345L21.5796 13.2096C21.5933 13.1413 21.6001 13.0718 21.6001 13.0022C21.6001 11.308 20.2267 9.93455 18.5326 9.93455H16.5752V5.96726C16.5752 4.27307 15.2018 2.89966 13.5076 2.89966C11.8134 2.89966 10.44 4.27307 10.44 5.96726V6.97224C10.44 8.60828 9.11376 9.93455 7.47771 9.93455H4.46276C3.32361 9.93455 2.40015 10.858 2.40015 11.9972V19.0321C2.40015 20.1712 3.32361 21.0947 4.46276 21.0947H6.47273C7.12862 21.0947 7.71301 20.7885 8.09079 20.3113ZM6.42009 12.0498H4.5154V18.9794H6.42009V12.0498Z" fill="black"/>
</svg>
