<svg width="24" height="24" viewBox="0 0 24 24" fill="none" xmlns="http://www.w3.org/2000/svg">
<path d="M18.5913 21.6C17.789 21.6 16.9867 21.3003 16.3849 20.7008L11.2701 15.6049C8.86312 16.4043 6.15528 15.8048 4.35005 14.0062C2.34424 12.0079 1.84278 8.9104 3.04627 6.41245C3.14656 6.11269 3.44743 5.91286 3.84859 5.81294C4.14947 5.71302 4.55063 5.91286 4.75121 6.11269L7.75993 9.11024H9.0637V7.71138L6.05499 4.71384C5.75412 4.514 5.65382 4.21425 5.75412 3.81457C5.85441 3.4149 6.05499 3.21506 6.35586 3.01523C8.86312 1.81621 11.9721 2.41572 13.9779 4.41408C15.7832 6.21261 16.3849 8.9104 15.5826 11.3084L20.6974 16.4043C21.2992 17.0038 21.6 17.7032 21.6 18.6025C21.6 19.5017 21.2992 20.2012 20.6974 20.8007C20.0957 21.3003 19.3936 21.6 18.5913 21.6ZM11.4707 13.3068C11.7715 13.3068 11.9721 13.4067 12.1727 13.6066L17.789 19.202C18.1901 19.6017 18.7919 19.6017 19.0928 19.202C19.2933 19.0022 19.3936 18.8023 19.3936 18.5026C19.3936 18.2028 19.2933 18.003 19.0928 17.8031L13.4765 12.2077C13.1756 11.908 13.0753 11.4084 13.2759 11.0087C14.0782 9.21016 13.7774 7.21179 12.3733 5.81294C11.3704 4.81375 10.0666 4.41408 8.66254 4.514L10.6684 6.51237C10.9692 6.7122 11.1698 7.01196 11.1698 7.31171V10.1094C11.1698 10.7089 10.6684 11.1086 10.1669 11.1086H7.25847C6.9576 11.1086 6.75702 11.0087 6.55644 10.8089L4.55063 8.81049C4.45034 10.1094 4.8515 11.5083 5.85441 12.5075C7.25847 13.9063 9.36458 14.2061 11.0695 13.4067C11.1698 13.3068 11.3704 13.3068 11.4707 13.3068Z" fill="black"/>
</svg>
