<svg width="25" height="25" viewBox="0 0 25 25" fill="none" xmlns="http://www.w3.org/2000/svg">
<path d="M10.5211 10.1227C11.1179 10.1227 11.6154 10.6201 11.6154 11.217V16.8874C11.6154 17.4843 11.1179 17.9817 10.5211 17.9817C9.92416 17.9817 9.42675 17.4843 9.42675 16.8874V11.217C9.42675 10.6201 9.92416 10.1227 10.5211 10.1227ZM14.3014 10.1227C14.8983 10.1227 15.3957 10.6201 15.3957 11.217V16.8874C15.3957 17.4843 14.8983 17.9817 14.3014 17.9817C13.7045 17.9817 13.2071 17.4843 13.2071 16.8874V11.217C13.2071 10.6201 13.7045 10.1227 14.3014 10.1227ZM19.9718 6.34235H16.291V4.55168C16.291 3.45738 15.3957 2.56204 14.3014 2.56204H10.5211C9.42675 2.56204 8.53142 3.45738 8.53142 4.55168V6.34235H4.85059C4.2537 6.34235 3.75629 6.83976 3.75629 7.43665C3.75629 8.03355 4.2537 8.43147 4.75111 8.53095L5.64644 18.8771C5.64644 20.4688 6.93971 21.762 8.6309 21.762H16.1915C17.7832 21.762 19.0765 20.4688 19.176 18.8771L20.0713 8.53095C20.6682 8.53095 21.0661 8.03355 21.0661 7.43665C21.0661 6.83976 20.5687 6.34235 19.9718 6.34235ZM10.6205 4.65116H14.2019V6.34235H10.6205V4.65116ZM16.9874 18.6781C16.9874 19.275 16.5894 19.5734 16.1915 19.5734H8.6309C8.13349 19.5734 7.83504 19.1755 7.83504 18.7776V18.6781L6.93971 8.43147H17.8827L16.9874 18.6781Z" fill="black"/>
</svg>
