<svg width="24" height="24" viewBox="0 0 24 24" fill="none" xmlns="http://www.w3.org/2000/svg">
<path d="M10.4226 5.87694C10.0682 5.89078 9.71451 5.83612 9.38079 5.71594L9.14106 5.63294L8.67958 5.87294C8.07226 6.19194 8.05028 6.17294 8.31199 5.61394L8.49978 5.20494L8.36893 5.04394C8.14484 4.79296 8.02762 4.46424 8.04229 4.12794C8.0228 3.93818 8.05743 3.74679 8.14218 3.57594C8.33379 3.25625 8.59691 2.98546 8.91081 2.78486C9.22471 2.58427 9.58084 2.45935 9.95115 2.41994C10.359 2.38051 10.7704 2.3997 11.1728 2.47694C11.5889 2.58997 11.9754 2.79232 12.3055 3.06994C12.5401 3.26264 12.7036 3.52833 12.7701 3.82477C12.8365 4.12121 12.802 4.43137 12.6721 4.70594C12.4418 5.09011 12.1097 5.40291 11.7126 5.60961C11.3155 5.81631 10.869 5.90884 10.4226 5.87694ZM5.7179 7.09294C5.98993 6.9158 6.20581 6.66464 6.3402 6.36894C6.48432 6.01073 6.48665 5.61101 6.34673 5.25114C6.2068 4.89128 5.93514 4.59833 5.58705 4.43194C5.40227 4.33677 5.19505 4.2939 4.98772 4.30794C4.82343 4.29456 4.65806 4.30841 4.49827 4.34894C4.29998 4.41629 4.1172 4.52277 3.96073 4.66207C3.80426 4.80136 3.67728 4.97066 3.58729 5.15994C3.48219 5.35536 3.44063 5.57874 3.46843 5.79894C3.44024 6.01859 3.48109 6.24159 3.58529 6.43694C3.67562 6.6264 3.80425 6.79503 3.96303 6.93216C4.12182 7.06929 4.30731 7.17194 4.50776 7.2336C4.70821 7.29526 4.91927 7.31459 5.12757 7.29038C5.33588 7.26617 5.53689 7.19894 5.7179 7.09294ZM17.9282 6.79294C18.0744 6.96848 18.2612 7.10574 18.4723 7.19286C18.6834 7.27997 18.9125 7.31432 19.1398 7.29294C19.4099 7.28156 19.6716 7.19556 19.8958 7.04448C20.1201 6.89339 20.2982 6.68312 20.4104 6.43694C20.5142 6.24146 20.5547 6.01849 20.5263 5.79894C20.5547 5.57939 20.5142 5.35642 20.4104 5.16094C20.2574 4.84279 20.001 4.5861 19.6832 4.43294C19.4985 4.33777 19.2912 4.2949 19.0839 4.30894C18.9193 4.29545 18.7536 4.3093 18.5935 4.34994C18.3791 4.42334 18.1831 4.54241 18.0191 4.69894C17.8583 4.84714 17.733 5.02978 17.6526 5.23324C17.5722 5.4367 17.5387 5.65571 17.5546 5.87394C17.5636 6.2155 17.6964 6.54213 17.9282 6.79294ZM16.1402 8.51894C16.1487 8.3526 16.124 8.18624 16.0673 8.02963C16.0107 7.87301 15.9234 7.7293 15.8106 7.60694L15.6757 7.44594L15.8665 7.05894C16.0503 6.68794 16.0763 6.54494 15.9664 6.55294C15.8009 6.62011 15.6403 6.69897 15.4859 6.78894L15.0554 7.02494L14.8117 6.93894C14.4272 6.80482 14.0189 6.75238 13.613 6.78494C13.2152 6.78582 12.8229 6.87819 12.4663 7.05494C12.1633 7.16638 11.8998 7.36461 11.7085 7.62493C11.5172 7.88525 11.4066 8.19616 11.3905 8.51894C11.3905 9.53994 12.5452 10.3279 13.9287 10.2529C14.3473 10.2464 14.7583 10.1398 15.1273 9.94194C15.5173 9.76124 15.8366 9.45638 16.0353 9.07494C16.1207 8.9028 16.157 8.7104 16.1402 8.51894ZM7.09536 12.5989L6.09648 11.7399L5.69693 10.6809C5.47617 10.0959 5.29737 9.61194 5.30736 9.60794C5.31735 9.60394 5.57007 9.94594 5.87373 10.3739C6.09416 10.7177 6.3503 11.0371 6.63787 11.3269L6.85163 11.5029L6.86262 10.1299C6.87061 8.75994 6.87061 8.75594 6.7847 8.56394C6.68236 8.33237 6.49958 8.14583 6.27028 8.03894C6.11346 7.96394 6.03055 7.95994 5.01469 7.95294C4.41536 7.95294 3.86398 7.95994 3.78907 7.97894C3.57339 8.04307 3.38152 8.16974 3.23768 8.34294C2.98497 8.63194 2.99995 8.24894 2.99995 14.8879C2.99995 21.5049 2.98497 21.0659 3.21771 21.3139C3.39355 21.48 3.62097 21.5806 3.86198 21.5989C4.04304 21.5906 4.2177 21.5294 4.36434 21.4227C4.51099 21.3161 4.62319 21.1687 4.68706 20.9989C4.71003 20.9209 4.736 19.5169 4.75099 17.5539L4.77296 14.2439H5.13755L5.14454 17.6139L5.15553 20.9879L5.26841 21.1719C5.33534 21.2833 5.42654 21.378 5.5352 21.4491C5.64386 21.5201 5.76716 21.5657 5.89588 21.5823C6.02461 21.599 6.15543 21.5863 6.27855 21.5452C6.40168 21.504 6.51393 21.4356 6.6069 21.3449C6.89858 21.0449 6.8806 21.2849 6.89158 18.0649L6.90257 15.1859L6.76073 15.0919C6.59192 14.9869 4.39838 13.1099 4.30449 12.9919C4.25906 12.9269 4.22527 12.8545 4.2046 12.7779C4.16564 12.6479 3.89894 10.3319 3.89894 10.1739C4.07043 10.526 4.21989 10.8883 4.34644 11.2589C4.59017 11.8969 4.81491 12.4749 4.84588 12.5389C4.90182 12.6389 6.98947 14.4719 7.16927 14.5689C7.34579 14.6486 7.54593 14.6581 7.72918 14.5955C7.91242 14.5329 8.06505 14.403 8.15617 14.2319C8.23604 14.0254 8.23604 13.7965 8.15617 13.5899C7.83542 13.226 7.48015 12.8941 7.09536 12.5989ZM20.9998 14.8919C20.9998 9.64494 20.9928 8.83094 20.9438 8.66594C20.8485 8.39978 20.6572 8.17897 20.4074 8.04694C20.2356 7.96394 20.2017 7.95994 19.1448 7.95294C18.7347 7.94093 18.3243 7.95094 17.9152 7.98294C17.7622 8.01768 17.6198 8.08854 17.4997 8.18961C17.3796 8.29068 17.2854 8.41902 17.225 8.56394C17.1391 8.75594 17.1391 8.76394 17.1461 10.1299L17.1521 11.4989L17.3658 11.3229C17.6535 11.033 17.91 10.7136 18.131 10.3699C18.4306 9.94194 18.6893 9.59594 18.6973 9.60394C18.7053 9.61194 18.5285 10.0919 18.3068 10.6769L17.9072 11.7359L16.9083 12.5949C15.8246 13.5219 15.7756 13.5819 15.7796 13.9279C15.7743 14.0301 15.7941 14.1321 15.8373 14.2248C15.8805 14.3176 15.9458 14.3983 16.0273 14.4599C16.1476 14.5706 16.3032 14.6352 16.4664 14.6421C16.6296 14.6491 16.7901 14.598 16.9193 14.4979C17.2909 14.2239 19.1169 12.6249 19.1578 12.5279C19.1878 12.4709 19.4085 11.8969 19.6573 11.2589C19.7835 10.8884 19.9326 10.526 20.1038 10.1739C20.1038 10.3319 19.8371 12.6479 19.8041 12.7789C19.7838 12.8557 19.75 12.9281 19.7042 12.9929C19.6143 13.1089 17.4218 14.9819 17.249 15.0929L17.1061 15.1869L17.1181 18.0659C17.1291 21.2859 17.1101 21.0419 17.4028 21.3459C17.4959 21.4364 17.6081 21.5047 17.7312 21.5457C17.8543 21.5867 17.9851 21.5994 18.1137 21.5827C18.2424 21.5661 18.3657 21.5206 18.4743 21.4497C18.583 21.3787 18.6742 21.2841 18.7413 21.1729L18.8532 20.9889L18.8652 17.6149L18.8721 14.2449H19.2357L19.2587 17.5549C19.2737 19.5179 19.2997 20.9219 19.3216 20.9999C19.3857 21.1696 19.498 21.3168 19.6446 21.4234C19.7912 21.53 19.9657 21.5914 20.1467 21.5999C20.388 21.5816 20.6158 21.481 20.792 21.3149C21.0097 21.0659 20.9948 21.5049 20.9948 14.8879L20.9998 14.8919Z" fill="black"/>
</svg>
