<svg width="48" height="48" viewBox="0 0 48 48" fill="none" xmlns="http://www.w3.org/2000/svg">
<g id="unique-marker">
<path id="Vector" d="M24 9.1998C18.6 9.1998 14.4 13.5998 14.4 18.7998C14.4 24.1998 18.8 28.3998 24 28.3998C29.2 28.3998 33.6 23.9998 33.6 18.7998C33.6 13.3998 29.4 9.1998 24 9.1998ZM24 22.5998C22 22.5998 20.2 20.9998 20.2 18.7998C20.2 16.7998 21.8 14.9998 24 14.9998C26.2 14.9998 27.8 16.5998 27.8 18.7998C27.8 20.7998 26 22.5998 24 22.5998ZM38 18.7998C38 10.9998 31.8 4.7998 24 4.7998C16.2 4.7998 10 10.9998 10 18.7998C10 25.7998 15.2 31.5998 21.8 32.5998C21.8 32.5998 21.8 32.5998 21.8 32.7998V40.9998C21.8 42.1998 22.8 43.1998 24 43.1998C25.2 43.1998 26.2 42.1998 26.2 40.9998V32.7998C26.2 32.7998 26.2 32.7998 26.2 32.5998C32.8 31.5998 38 25.7998 38 18.7998ZM24 30.5998C17.4 30.5998 12.2 25.1998 12.2 18.7998C12.2 12.1998 17.6 6.9998 24 6.9998C30.4 6.9998 35.8 12.3998 35.8 18.7998C35.8 25.3998 30.6 30.5998 24 30.5998Z" fill="url(#paint0_diamond_5069_38072)"/>
</g>
<defs>
<radialGradient id="paint0_diamond_5069_38072" cx="0" cy="0" r="1" gradientUnits="userSpaceOnUse" gradientTransform="translate(20.5 59.9998) rotate(-85.5169) scale(62.6878 463.046)">
<stop offset="0.276042" stop-color="#C6E216"/>
<stop offset="0.614583" stop-color="#E32900"/>
<stop offset="1" stop-color="#D808FA"/>
</radialGradient>
</defs>
</svg>
