<svg width="26" height="16" viewBox="0 0 26 16" fill="none" xmlns="http://www.w3.org/2000/svg">
<g clip-path="url(#clip0_8532_5049)">
<path d="M-3 -4H29V20H-3V-4Z" fill="#012169"/>
<path d="M0.75 -4L12.95 5.05L25.1 -4H29V-0.9L17 8.05L29 16.95V20H25L13 11.05L1.05 20H-3V17L8.95 8.1L-3 -0.8V-4H0.75Z" fill="white"/>
<path d="M18.2 10.05L29 18V20L15.45 10.05H18.2ZM9 11.05L9.3 12.8L-0.3 20H-3L9 11.05ZM29 -4V-3.85L16.55 5.55L16.65 3.35L26.5 -4H29ZM-3 -4L8.95 4.8H5.95L-3 -1.9V-4Z" fill="#C8102E"/>
<path d="M9.05 -4V20H17.05V-4H9.05ZM-3 4V12H29V4H-3Z" fill="white"/>
<path d="M-3 5.65V10.45H29V5.65H-3ZM10.65 -4V20H15.45V-4H10.65Z" fill="#C8102E"/>
</g>
<defs>
<clipPath id="clip0_8532_5049">
<rect width="32" height="24" fill="white" transform="translate(-3 -4)"/>
</clipPath>
</defs>
</svg>
