<svg width="24" height="24" viewBox="0 0 24 24" fill="none" xmlns="http://www.w3.org/2000/svg">
<path fill-rule="evenodd" clip-rule="evenodd" d="M13.1576 4.60734C14.8793 2.88561 17.6708 2.88561 19.3925 4.60734C21.1142 6.32906 21.1142 9.12053 19.3925 10.8423L15.596 14.6387C14.7735 15.476 13.6489 15.9478 12.475 15.9478C11.2992 15.9478 10.1729 15.4745 9.35002 14.6346C8.94418 14.2204 8.95096 13.5556 9.36518 13.1498C9.77939 12.744 10.4442 12.7507 10.85 13.165C11.2779 13.6017 11.8636 13.8478 12.475 13.8478C13.0864 13.8478 13.6721 13.6017 14.1 13.165L14.1075 13.1573L17.9076 9.35733C18.8092 8.45571 18.8092 6.99389 17.9076 6.09226C17.0059 5.19063 15.5441 5.19063 14.6425 6.09226L14.1675 6.56726C13.7574 6.97731 13.0926 6.97731 12.6826 6.56726C12.2725 6.15721 12.2725 5.49239 12.6826 5.08233L13.1576 4.60734Z" fill="black"/>
<path fill-rule="evenodd" clip-rule="evenodd" d="M8.40404 9.36094C9.22658 8.52364 10.3511 8.05189 11.525 8.05189C12.7008 8.05189 13.8271 8.52517 14.65 9.36503C15.0559 9.77924 15.0491 10.444 14.6349 10.8499C14.2207 11.2557 13.5559 11.2489 13.15 10.8347C12.7221 10.398 12.1365 10.1519 11.525 10.1519C10.9136 10.1519 10.3279 10.398 9.90004 10.8347L9.89254 10.8424L6.0925 14.6423C5.19087 15.544 5.19087 17.0058 6.0925 17.9074C6.99412 18.809 8.45595 18.809 9.35757 17.9074L9.83257 17.4324C10.2426 17.0224 10.9074 17.0224 11.3175 17.4324C11.7275 17.8425 11.7275 18.5073 11.3175 18.9173L10.8425 19.3923C9.12077 21.1141 6.3293 21.1141 4.60757 19.3923C2.88585 17.6706 2.88585 14.8791 4.60757 13.1574L8.40404 9.36094Z" fill="black"/>
<path fill-rule="evenodd" clip-rule="evenodd" d="M15.8 17.5999C16.3799 17.5999 16.85 18.07 16.85 18.6499V20.5499C16.85 21.1298 16.3799 21.5999 15.8 21.5999C15.2201 21.5999 14.75 21.1298 14.75 20.5499V18.6499C14.75 18.07 15.2201 17.5999 15.8 17.5999Z" fill="black"/>
<path fill-rule="evenodd" clip-rule="evenodd" d="M17.6 15.7999C17.6 15.22 18.0701 14.7499 18.65 14.7499H20.55C21.1299 14.7499 21.6 15.22 21.6 15.7999C21.6 16.3798 21.1299 16.8499 20.55 16.8499H18.65C18.0701 16.8499 17.6 16.3798 17.6 15.7999Z" fill="black"/>
<path fill-rule="evenodd" clip-rule="evenodd" d="M2.40002 8.1999C2.40002 7.62 2.87013 7.1499 3.45002 7.1499H5.35002C5.92992 7.1499 6.40002 7.62 6.40002 8.1999C6.40002 8.7798 5.92992 9.2499 5.35002 9.2499H3.45002C2.87013 9.2499 2.40002 8.7798 2.40002 8.1999Z" fill="black"/>
<path fill-rule="evenodd" clip-rule="evenodd" d="M8.20002 2.3999C8.77992 2.3999 9.25002 2.87 9.25002 3.4499V5.3499C9.25002 5.9298 8.77992 6.3999 8.20002 6.3999C7.62013 6.3999 7.15002 5.9298 7.15002 5.3499V3.4499C7.15002 2.87 7.62013 2.3999 8.20002 2.3999Z" fill="black"/>
</svg>
