<svg width="1235" height="650" viewBox="0 0 1235 650" fill="none" xmlns="http://www.w3.org/2000/svg">
<g clip-path="url(#clip0_15120_65867)">
<path d="M0 0H1235V650H0" fill="#B31942"/>
<path d="M0 75H1235ZM1235 175H0ZM0 275H1235ZM1235 375H0ZM0 475H1235ZM1235 575H0Z" fill="black"/>
<path fill-rule="evenodd" clip-rule="evenodd" d="M1235 100H0V50H1235V100ZM0 150H1235V200H0V150ZM1235 300H0V250H1235V300ZM0 350H1235V400H0V350ZM1235 500H0V450H1235V500ZM0 550H1235V600H0V550Z" fill="white"/>
<path d="M0 0H494V350H0" fill="#0A3161"/>
<path d="M41.1666 15L52.9223 51.1803L22.1455 28.8196H60.1878L29.4109 51.1803L41.1666 15Z" fill="white"/>
<path d="M41.1666 85L52.9223 121.18L22.1455 98.8197H60.1878L29.4109 121.18L41.1666 85Z" fill="white"/>
<path d="M41.1666 155L52.9223 191.18L22.1455 168.82H60.1878L29.4109 191.18L41.1666 155Z" fill="white"/>
<path d="M41.1666 225L52.9223 261.18L22.1455 238.82H60.1878L29.4109 261.18L41.1666 225Z" fill="white"/>
<path d="M41.1666 295L52.9223 331.18L22.1455 308.82H60.1878L29.4109 331.18L41.1666 295Z" fill="white"/>
<path d="M82.3334 50L94.0891 86.1803L63.3123 63.8197H101.355L70.5777 86.1803L82.3334 50Z" fill="white"/>
<path d="M82.3334 120L94.0891 156.18L63.3123 133.82H101.355L70.5777 156.18L82.3334 120Z" fill="white"/>
<path d="M82.3334 190L94.0891 226.18L63.3123 203.82H101.355L70.5777 226.18L82.3334 190Z" fill="white"/>
<path d="M82.3334 260L94.0891 296.18L63.3123 273.82H101.355L70.5777 296.18L82.3334 260Z" fill="white"/>
<path d="M123.5 15L135.256 51.1803L104.479 28.8196H142.521L111.744 51.1803L123.5 15Z" fill="white"/>
<path d="M123.5 85L135.256 121.18L104.479 98.8197H142.521L111.744 121.18L123.5 85Z" fill="white"/>
<path d="M123.5 155L135.256 191.18L104.479 168.82H142.521L111.744 191.18L123.5 155Z" fill="white"/>
<path d="M123.5 225L135.256 261.18L104.479 238.82H142.521L111.744 261.18L123.5 225Z" fill="white"/>
<path d="M123.5 295L135.256 331.18L104.479 308.82H142.521L111.744 331.18L123.5 295Z" fill="white"/>
<path d="M164.667 50L176.422 86.1803L145.646 63.8197H183.688L152.911 86.1803L164.667 50Z" fill="white"/>
<path d="M164.667 120L176.422 156.18L145.646 133.82H183.688L152.911 156.18L164.667 120Z" fill="white"/>
<path d="M164.667 190L176.422 226.18L145.646 203.82H183.688L152.911 226.18L164.667 190Z" fill="white"/>
<path d="M164.667 260L176.422 296.18L145.646 273.82H183.688L152.911 296.18L164.667 260Z" fill="white"/>
<path d="M205.833 15L217.589 51.1803L186.812 28.8196H224.855L194.078 51.1803L205.833 15Z" fill="white"/>
<path d="M205.833 85L217.589 121.18L186.812 98.8197H224.855L194.078 121.18L205.833 85Z" fill="white"/>
<path d="M205.833 155L217.589 191.18L186.812 168.82H224.855L194.078 191.18L205.833 155Z" fill="white"/>
<path d="M205.833 225L217.589 261.18L186.812 238.82H224.855L194.078 261.18L205.833 225Z" fill="white"/>
<path d="M205.833 295L217.589 331.18L186.812 308.82H224.855L194.078 331.18L205.833 295Z" fill="white"/>
<path d="M247 50L258.756 86.1803L227.979 63.8197H266.021L235.244 86.1803L247 50Z" fill="white"/>
<path d="M247 120L258.756 156.18L227.979 133.82H266.021L235.244 156.18L247 120Z" fill="white"/>
<path d="M247 190L258.756 226.18L227.979 203.82H266.021L235.244 226.18L247 190Z" fill="white"/>
<path d="M247 260L258.756 296.18L227.979 273.82H266.021L235.244 296.18L247 260Z" fill="white"/>
<path d="M288.167 15L299.922 51.1803L269.146 28.8196H307.188L276.411 51.1803L288.167 15Z" fill="white"/>
<path d="M288.167 85L299.922 121.18L269.146 98.8197H307.188L276.411 121.18L288.167 85Z" fill="white"/>
<path d="M288.167 155L299.922 191.18L269.146 168.82H307.188L276.411 191.18L288.167 155Z" fill="white"/>
<path d="M288.167 225L299.922 261.18L269.146 238.82H307.188L276.411 261.18L288.167 225Z" fill="white"/>
<path d="M288.167 295L299.922 331.18L269.146 308.82H307.188L276.411 331.18L288.167 295Z" fill="white"/>
<path d="M329.333 50L341.089 86.1803L310.312 63.8197H348.355L317.578 86.1803L329.333 50Z" fill="white"/>
<path d="M329.333 120L341.089 156.18L310.312 133.82H348.355L317.578 156.18L329.333 120Z" fill="white"/>
<path d="M329.333 190L341.089 226.18L310.312 203.82H348.355L317.578 226.18L329.333 190Z" fill="white"/>
<path d="M329.333 260L341.089 296.18L310.312 273.82H348.355L317.578 296.18L329.333 260Z" fill="white"/>
<path d="M370.5 15L382.256 51.1803L351.479 28.8196H389.521L358.744 51.1803L370.5 15Z" fill="white"/>
<path d="M370.5 85L382.256 121.18L351.479 98.8197H389.521L358.744 121.18L370.5 85Z" fill="white"/>
<path d="M370.5 155L382.256 191.18L351.479 168.82H389.521L358.744 191.18L370.5 155Z" fill="white"/>
<path d="M370.5 225L382.256 261.18L351.479 238.82H389.521L358.744 261.18L370.5 225Z" fill="white"/>
<path d="M370.5 295L382.256 331.18L351.479 308.82H389.521L358.744 331.18L370.5 295Z" fill="white"/>
<path d="M411.667 50L423.423 86.1803L392.646 63.8197H430.688L399.911 86.1803L411.667 50Z" fill="white"/>
<path d="M411.667 120L423.423 156.18L392.646 133.82H430.688L399.911 156.18L411.667 120Z" fill="white"/>
<path d="M411.667 190L423.423 226.18L392.646 203.82H430.688L399.911 226.18L411.667 190Z" fill="white"/>
<path d="M411.667 260L423.423 296.18L392.646 273.82H430.688L399.911 296.18L411.667 260Z" fill="white"/>
<path d="M452.833 15L464.589 51.1803L433.812 28.8196H471.855L441.078 51.1803L452.833 15Z" fill="white"/>
<path d="M452.833 85L464.589 121.18L433.812 98.8197H471.855L441.078 121.18L452.833 85Z" fill="white"/>
<path d="M452.833 155L464.589 191.18L433.812 168.82H471.855L441.078 191.18L452.833 155Z" fill="white"/>
<path d="M452.833 225L464.589 261.18L433.812 238.82H471.855L441.078 261.18L452.833 225Z" fill="white"/>
<path d="M452.833 295L464.589 331.18L433.812 308.82H471.855L441.078 331.18L452.833 295Z" fill="white"/>
</g>
<defs>
<clipPath id="clip0_15120_65867">
<rect width="1235" height="650" fill="white"/>
</clipPath>
</defs>
</svg>
