<svg width="25" height="25" viewBox="0 0 25 25" fill="none" xmlns="http://www.w3.org/2000/svg">
<path d="M12.4112 14.162C10.2112 14.162 8.51122 12.362 8.51122 10.262C8.51122 8.16201 10.2112 6.36201 12.4112 6.36201C14.6112 6.36201 16.3112 8.16201 16.3112 10.262C16.3112 12.362 14.6112 14.162 12.4112 14.162ZM12.4112 8.46201C11.4112 8.46201 10.6112 9.26201 10.6112 10.262C10.6112 11.262 11.4112 12.062 12.4112 12.062C13.4112 12.062 14.2112 11.262 14.2112 10.262C14.2112 9.26201 13.4112 8.46201 12.4112 8.46201ZM22.0112 12.162C22.0112 6.86201 17.7112 2.56201 12.4112 2.56201C7.11122 2.56201 2.81122 6.86201 2.81122 12.162C2.81122 15.062 4.11122 17.662 6.21122 19.462C7.91122 20.862 10.0112 21.762 12.4112 21.762C14.7112 21.762 16.9112 20.862 18.6112 19.462L18.7112 19.362C20.7112 17.662 22.0112 15.062 22.0112 12.162ZM4.91122 12.162C4.91122 8.06201 8.31122 4.66201 12.4112 4.66201C16.5112 4.66201 19.9112 8.06201 19.9112 12.162C19.9112 13.962 19.3112 15.562 18.2112 16.862C17.3112 15.662 15.9112 14.862 14.3112 14.862H10.5112C8.91122 14.862 7.51122 15.662 6.61122 16.862C5.51122 15.562 4.91122 13.962 4.91122 12.162ZM8.21122 18.362C8.71122 17.562 9.61122 17.062 10.5112 17.062H14.3112C15.3112 17.062 16.1112 17.562 16.6112 18.362C15.4112 19.162 14.0112 19.662 12.4112 19.662C10.8112 19.662 9.41122 19.162 8.21122 18.362Z" fill="black"/>
</svg>
