<svg width="24" height="24" viewBox="0 0 24 24" fill="none" xmlns="http://www.w3.org/2000/svg">
<g id="view">
<path id="Vector (Stroke)" fill-rule="evenodd" clip-rule="evenodd" d="M4.66019 12.0337C6.76161 15.4613 9.21665 16.9762 11.9999 16.9762C14.7832 16.9762 17.2382 15.4613 19.3396 12.0337C17.2382 8.60603 14.7832 7.09109 11.9999 7.09109C9.21665 7.09109 6.76161 8.60603 4.66019 12.0337ZM2.53767 11.5149C4.93252 7.32415 8.07625 5 11.9999 5C15.9236 5 19.0673 7.32415 21.4621 11.5149C21.6458 11.8364 21.6458 12.231 21.4621 12.5524C19.0673 16.7432 15.9236 19.0673 11.9999 19.0673C8.07625 19.0673 4.93252 16.7432 2.53767 12.5524C2.35398 12.231 2.35398 11.8364 2.53767 11.5149ZM11.9999 11.3683C11.6324 11.3683 11.3346 11.6662 11.3346 12.0337C11.3346 12.4011 11.6324 12.699 11.9999 12.699C12.3674 12.699 12.6652 12.4011 12.6652 12.0337C12.6652 11.6662 12.3674 11.3683 11.9999 11.3683ZM9.24347 12.0337C9.24347 10.5113 10.4776 9.27723 11.9999 9.27723C13.5222 9.27723 14.7563 10.5113 14.7563 12.0337C14.7563 13.556 13.5222 14.7901 11.9999 14.7901C10.4776 14.7901 9.24347 13.556 9.24347 12.0337Z" fill="black"/>
</g>
</svg>
