<svg width="24" height="24" viewBox="0 0 24 24" fill="none" xmlns="http://www.w3.org/2000/svg">
<path d="M14.8999 7.1999V16.7999C14.8999 17.1999 14.5999 17.4999 14.1999 17.4999C13.7999 17.4999 13.4999 17.1999 13.4999 16.7999V7.1999C13.4999 6.7999 13.7999 6.4999 14.1999 6.4999C14.5999 6.4999 14.8999 6.7999 14.8999 7.1999ZM9.7999 7.9999C9.3999 7.9999 9.0999 8.2999 9.0999 8.6999V15.2999C9.0999 15.6999 9.3999 15.9999 9.7999 15.9999C10.1999 15.9999 10.4999 15.6999 10.4999 15.3999V8.6999C10.4999 8.2999 10.1999 7.9999 9.7999 7.9999ZM5.2999 9.7999C4.8999 9.7999 4.5999 10.0999 4.5999 10.4999V13.4999C4.5999 13.8999 4.8999 14.1999 5.2999 14.1999C5.6999 14.1999 6.0999 13.8999 5.9999 13.4999V10.4999C5.9999 10.0999 5.6999 9.7999 5.2999 9.7999ZM3.0999 10.5999C2.6999 10.5999 2.3999 10.8999 2.3999 11.2999V12.7999C2.3999 13.1999 2.6999 13.4999 3.0999 13.4999C3.4999 13.4999 3.7999 13.0999 3.7999 12.7999V11.2999C3.7999 10.8999 3.4999 10.5999 3.0999 10.5999ZM11.9999 5.3999C11.5999 5.3999 11.2999 5.6999 11.2999 6.0999V17.8999C11.2999 18.2999 11.5999 18.5999 11.9999 18.5999C12.3999 18.5999 12.6999 18.2999 12.6999 17.8999V6.0999C12.6999 5.6999 12.3999 5.3999 11.9999 5.3999ZM7.5999 9.4999C7.1999 9.4999 6.8999 9.7999 6.8999 10.1999V13.8999C6.8999 14.2999 7.1999 14.5999 7.5999 14.5999C7.9999 14.5999 8.2999 14.1999 8.2999 13.8999V10.1999C8.2999 9.7999 7.9999 9.4999 7.5999 9.4999ZM18.6999 9.4999C18.2999 9.4999 17.9999 9.7999 17.9999 10.1999V13.1999C17.9999 13.5999 18.2999 13.8999 18.6999 13.8999C19.0999 13.8999 19.3999 13.5999 19.3999 13.1999V10.1999C19.3999 9.7999 19.0999 9.4999 18.6999 9.4999ZM16.3999 8.3999C15.9999 8.3999 15.6999 8.6999 15.6999 9.0999V14.2999C15.6999 14.6999 15.9999 14.9999 16.3999 14.9999C16.7999 14.9999 17.1999 14.6999 17.0999 14.2999V9.0999C17.0999 8.6999 16.7999 8.3999 16.3999 8.3999ZM20.8999 10.2999C20.4999 10.2999 20.1999 10.5999 20.1999 10.9999V12.4999C20.1999 12.8999 20.4999 13.1999 20.8999 13.1999C21.2999 13.1999 21.5999 12.8999 21.5999 12.4999V10.9999C21.5999 10.5999 21.2999 10.2999 20.8999 10.2999Z" fill="black"/>
</svg>
