<svg width="24" height="24" viewBox="0 0 24 24" fill="none" xmlns="http://www.w3.org/2000/svg">
<path fill-rule="evenodd" clip-rule="evenodd" d="M13.5327 7.16474C13.8807 6.70082 14.5388 6.6068 15.0027 6.95474C16.4603 8.04796 17.3182 9.76365 17.3182 11.5857C17.3182 13.4077 16.4603 15.1234 15.0027 16.2166C14.5388 16.5645 13.8807 16.4705 13.5327 16.0066C13.1848 15.5427 13.2788 14.8845 13.7427 14.5366C14.6715 13.84 15.2182 12.7467 15.2182 11.5857C15.2182 10.4246 14.6715 9.33136 13.7427 8.63474C13.2788 8.2868 13.1848 7.62866 13.5327 7.16474Z" fill="black"/>
<path fill-rule="evenodd" clip-rule="evenodd" d="M16.1149 4.29158C16.4794 3.84055 17.1405 3.77039 17.5915 4.13488C19.8421 5.9536 21.15 8.69211 21.15 11.5857C21.15 14.4792 19.8421 17.2177 17.5915 19.0365C17.1405 19.4009 16.4794 19.3308 16.1149 18.8798C15.7504 18.4287 15.8205 17.7676 16.2716 17.4031C18.0288 15.9831 19.05 13.8449 19.05 11.5857C19.05 9.32643 18.0288 7.18824 16.2716 5.76822C15.8205 5.40373 15.7504 4.74262 16.1149 4.29158Z" fill="black"/>
<path fill-rule="evenodd" clip-rule="evenodd" d="M9.5318 5.7105V17.4615L6.67859 13.7931C6.6667 13.7775 6.65438 13.7622 6.64165 13.7473C6.54561 13.6347 6.43033 13.5471 6.30445 13.4857C6.17874 13.4241 6.03891 13.3869 5.89113 13.3803C5.87156 13.3793 5.85195 13.379 5.83233 13.3792H4.04995V9.79279H5.84314C6.16716 9.79279 6.47303 9.64319 6.67196 9.38743L9.5318 5.7105ZM5.32961 15.4792H3.94768C2.84437 15.4792 1.94995 14.5848 1.94995 13.4814V9.69052C1.94995 8.5872 2.84437 7.69279 3.94768 7.69279H5.32961L8.28408 3.89419C8.71691 3.17235 9.59769 2.84019 10.4061 3.10966C11.2181 3.38032 11.7243 4.18037 11.6318 5.02163V18.1503C11.7243 18.9916 11.2181 19.7916 10.4061 20.0623C9.59769 20.3318 8.71691 19.9996 8.28408 19.2778L5.32961 15.4792ZM9.54659 18.3957C9.54648 18.3951 9.54636 18.3944 9.54625 18.3937L9.54659 18.3957Z" fill="black"/>
</svg>
