<svg width="24" height="24" viewBox="0 0 24 24" fill="none" xmlns="http://www.w3.org/2000/svg">
<path fill-rule="evenodd" clip-rule="evenodd" d="M9.99701 5.62309L6.84642 9.67385C6.64749 9.92962 6.34162 10.0792 6.0176 10.0792H4.04995V14.0145H6.00678C6.0264 14.0143 6.04601 14.0147 6.06559 14.0156C6.21337 14.0222 6.3532 14.0594 6.47891 14.121C6.60479 14.1824 6.72007 14.27 6.8161 14.3827C6.82883 14.3975 6.84115 14.4128 6.85304 14.4284L9.99701 18.4706V5.62309ZM5.50406 16.1145H4.00583C2.8704 16.1145 1.94995 15.1941 1.94995 14.0586V10.0351C1.94995 8.89967 2.8704 7.97922 4.00583 7.97922H5.50406L8.66158 3.91955C9.10484 3.17687 10.0097 2.83475 10.8401 3.11156C11.6741 3.38955 12.1937 4.212 12.097 5.07615V19.0176C12.1937 19.8817 11.6741 20.7042 10.8401 20.9822C10.0097 21.259 9.10485 20.9169 8.66158 20.1742L5.50406 16.1145Z" fill="black"/>
<path fill-rule="evenodd" clip-rule="evenodd" d="M15.334 9.2923C15.744 8.88225 16.4088 8.88225 16.8189 9.2923L18.0882 10.5616L19.3575 9.2923C19.7675 8.88225 20.4324 8.88225 20.8424 9.2923C21.2525 9.70235 21.2525 10.3672 20.8424 10.7772L19.5731 12.0465L20.8424 13.3158C21.2525 13.7259 21.2525 14.3907 20.8424 14.8008C20.4324 15.2108 19.7675 15.2108 19.3575 14.8008L18.0882 13.5315L16.8189 14.8008C16.4088 15.2108 15.744 15.2108 15.334 14.8008C14.9239 14.3907 14.9239 13.7259 15.334 13.3158L16.6033 12.0465L15.334 10.7772C14.9239 10.3672 14.9239 9.70235 15.334 9.2923Z" fill="black"/>
</svg>
