<svg width="24" height="24" viewBox="0 0 24 24" fill="none" xmlns="http://www.w3.org/2000/svg">
<path fill-rule="evenodd" clip-rule="evenodd" d="M13.533 7.1645C13.8809 6.70058 14.539 6.60656 15.003 6.9545C16.4606 8.04771 17.3184 9.7634 17.3184 11.5854C17.3184 13.4074 16.4606 15.1231 15.003 16.2163C14.539 16.5643 13.8809 16.4703 13.533 16.0063C13.185 15.5424 13.279 14.8843 13.743 14.5363C14.6718 13.8397 15.2184 12.7465 15.2184 11.5854C15.2184 10.4244 14.6718 9.33112 13.743 8.6345C13.279 8.28656 13.185 7.62842 13.533 7.1645Z" fill="url(#paint0_diamond_4223_20069)"/>
<path fill-rule="evenodd" clip-rule="evenodd" d="M16.1151 4.29134C16.4796 3.84031 17.1407 3.77015 17.5918 4.13464C19.8423 5.95335 21.1502 8.69187 21.1502 11.5854C21.1502 14.479 19.8423 17.2175 17.5918 19.0362C17.1407 19.4007 16.4796 19.3305 16.1151 18.8795C15.7506 18.4285 15.8208 17.7674 16.2718 17.4029C18.029 15.9829 19.0502 13.8447 19.0502 11.5854C19.0502 9.32618 18.029 7.18799 16.2718 5.76797C15.8208 5.40348 15.7506 4.74237 16.1151 4.29134Z" fill="url(#paint1_diamond_4223_20069)"/>
<path fill-rule="evenodd" clip-rule="evenodd" d="M9.53204 5.71025V17.4612L6.67883 13.7928C6.66694 13.7772 6.65462 13.762 6.64189 13.7471C6.54586 13.6344 6.43057 13.5469 6.30469 13.4854C6.17898 13.4239 6.03916 13.3867 5.89138 13.38C5.8718 13.3791 5.85219 13.3787 5.83257 13.3789H4.0502V9.79255H5.84339C6.16741 9.79255 6.47328 9.64295 6.67221 9.38718L9.53204 5.71025ZM5.32985 15.4789H3.94793C2.84461 15.4789 1.9502 14.5845 1.9502 13.4812V9.69028C1.9502 8.58696 2.84461 7.69255 3.94793 7.69255H5.32985L8.28432 3.89394C8.71715 3.1721 9.59794 2.83994 10.4063 3.10941C11.2183 3.38007 11.7245 4.18013 11.632 5.02138V18.1501C11.7245 18.9914 11.2183 19.7914 10.4063 20.0621C9.59794 20.3315 8.71715 19.9994 8.28432 19.2775L5.32985 15.4789ZM9.54683 18.3955C9.54672 18.3948 9.54661 18.3941 9.5465 18.3935L9.54683 18.3955Z" fill="url(#paint2_diamond_4223_20069)"/>
<defs>
<radialGradient id="paint0_diamond_4223_20069" cx="0" cy="0" r="1" gradientUnits="userSpaceOnUse" gradientTransform="translate(3.36236 5.81247) rotate(38.8798) scale(22.8499 64.5151)">
<stop stop-color="#E32900"/>
<stop offset="0.472959" stop-color="#C6E216"/>
<stop offset="1" stop-color="#D808FA"/>
</radialGradient>
<radialGradient id="paint1_diamond_4223_20069" cx="0" cy="0" r="1" gradientUnits="userSpaceOnUse" gradientTransform="translate(3.36236 5.81247) rotate(38.8798) scale(22.8499 64.5151)">
<stop stop-color="#E32900"/>
<stop offset="0.472959" stop-color="#C6E216"/>
<stop offset="1" stop-color="#D808FA"/>
</radialGradient>
<radialGradient id="paint2_diamond_4223_20069" cx="0" cy="0" r="1" gradientUnits="userSpaceOnUse" gradientTransform="translate(3.36236 5.81247) rotate(38.8798) scale(22.8499 64.5151)">
<stop stop-color="#E32900"/>
<stop offset="0.472959" stop-color="#C6E216"/>
<stop offset="1" stop-color="#D808FA"/>
</radialGradient>
</defs>
</svg>
