<?xml version="1.0" encoding="utf-8"?>
<!-- Generator: Adobe Illustrator 22.0.0, SVG Export Plug-In . SVG Version: 6.00 Build 0)  -->
<svg version="1.1" id="Слой_1" xmlns="http://www.w3.org/2000/svg" xmlns:xlink="http://www.w3.org/1999/xlink" x="0px" y="0px"
	 viewBox="0 0 24 24" style="enable-background:new 0 0 24 24;" xml:space="preserve">
<path d="M20.5,10.9L20.5,10.9l0-2.1c0-1.2-1-2.1-2.1-2.1h0V4.5c0-1.2-1-2.1-2.1-2.1H5.6c-1.8,0-3.2,1.4-3.2,3.2v12.8
	c0,1.8,1.4,3.2,3.2,3.2h12.8c1.2,0,2.1-1,2.1-2.1v-2.1h0c0.6,0,1.1-0.5,1.1-1.1V12C21.6,11.4,21.1,10.9,20.5,10.9z M5.6,4.5h10.7
	l0,0c0,0,0,0,0,0c0,0,0,0,0,0c0,0,0,0,0,0c0,0,0,0,0,0v2.1H5.6C5,6.7,4.5,6.2,4.5,5.6S5,4.5,5.6,4.5z M18.4,19.5
	C18.4,19.5,18.4,19.5,18.4,19.5C18.4,19.5,18.4,19.5,18.4,19.5C18.4,19.5,18.4,19.5,18.4,19.5C18.4,19.5,18.4,19.5,18.4,19.5
	l-12.8,0c-0.6,0-1.1-0.5-1.1-1.1V8.6c0.3,0.1,0.7,0.2,1.1,0.2h12.8c0,0,0,0,0,0c0,0,0,0,0,0l0,0c0,0,0,0,0,0c0,0,0,0,0,0v2.1h-2.1
	c-1.8,0-3.2,1.4-3.2,3.2c0,1.8,1.4,3.2,3.2,3.2h2.1V19.5z M19.5,15.2h-3.2c-0.6,0-1.1-0.5-1.1-1.1c0-0.6,0.5-1.1,1.1-1.1h3.2
	c0,0,0,0,0,0s0,0,0,0h0V15.2z"/>
</svg>
