<svg width="25" height="25" viewBox="0 0 25 25" fill="none" xmlns="http://www.w3.org/2000/svg">
<path d="M16.5253 21.1971C14.6849 21.1971 12.8432 20.4571 11.4416 18.9786C9.70546 17.1466 6.88453 17.1481 5.15247 18.9786C4.61627 19.5448 3.74955 19.5448 3.21334 18.9786C2.67714 18.4123 2.67714 17.4971 3.21334 16.9308C6.01507 13.9722 10.5763 13.9722 13.3808 16.9308C15.1155 18.7613 17.9365 18.7599 19.6699 16.9308C20.2061 16.3646 21.0728 16.3646 21.609 16.9308C22.1452 17.4971 22.1452 18.4123 21.609 18.9786C20.2089 20.4571 18.3671 21.1971 16.5253 21.1971ZM16.5253 15.4045C14.6849 15.4045 12.8432 14.6645 11.4416 13.1859C9.70546 11.354 6.88453 11.3554 5.15247 13.1859C4.61627 13.7521 3.74955 13.7521 3.21334 13.1859C2.67714 12.6197 2.67714 11.7044 3.21334 11.1382C6.01507 8.17957 10.5763 8.17957 13.3808 11.1382C15.1155 12.9687 17.9365 12.9672 19.6699 11.1382C20.2061 10.5719 21.0728 10.5719 21.609 11.1382C22.1452 11.7044 22.1452 12.6197 21.609 13.1859C20.2089 14.6645 18.3671 15.4045 16.5253 15.4045ZM16.5253 9.61181C14.6849 9.61181 12.8432 8.8718 11.4416 7.39322C9.70546 5.56129 6.88453 5.56274 5.15247 7.39322C4.61627 7.95945 3.74955 7.95945 3.21334 7.39322C2.67714 6.82699 2.67714 5.91174 3.21334 5.34551C6.01507 2.38835 10.5763 2.38546 13.3808 5.34551C15.1155 7.17599 17.9365 7.17454 19.6699 5.34551C20.2061 4.77928 21.0728 4.77928 21.609 5.34551C22.1452 5.91174 22.1452 6.82699 21.609 7.39322C20.2089 8.8718 18.3671 9.61181 16.5253 9.61181Z" fill="black"/>
</svg>
