<svg width="20" height="21" viewBox="0 0 20 21" fill="none" xmlns="http://www.w3.org/2000/svg">
<rect y="0.454498" width="20" height="20" rx="10" fill="#0785F9"/>
<g clip-path="url(#clip0_489_12113)">
<path d="M14.2 6.19073C14.2 7.01916 13.5284 7.69073 12.7 7.69073C11.8716 7.69073 11.2 7.01916 11.2 6.19073C11.2 5.36231 11.8716 4.69073 12.7 4.69073C13.5284 4.69073 14.2 5.36231 14.2 6.19073Z" fill="white"/>
<path d="M8.2 7.09073C7.684 6.57473 7.18 6.31073 6.466 6.22673C6.094 6.17873 5.8 5.87873 5.8 5.50073V5.44673C5.8 5.02673 6.16 4.68473 6.58 4.72073C7.624 4.81073 8.332 5.13473 9.088 5.89073L12.94 9.73673C12.85 9.78473 12.766 9.83273 12.694 9.87473C12.472 10.0127 12.334 10.0907 12.004 10.0907C11.6772 10.0907 11.5387 10.0084 11.3205 9.87858L11.314 9.87473C11.044 9.71273 10.672 9.49073 10.006 9.49073C9.34609 9.49073 8.97482 9.70869 8.69959 9.87028L8.692 9.87473C8.47 10.0127 8.338 10.0907 8.002 10.0907C7.666 10.0907 7.534 10.0127 7.312 9.87473C7.29964 9.86767 7.28705 9.86044 7.27422 9.85306C7.15623 9.78525 7.01776 9.70567 6.85 9.64073L8.8 7.69073L8.2 7.09073Z" fill="white"/>
<path d="M15.31 14.0747C15.418 14.1467 15.508 14.2007 15.61 14.2367C15.838 14.3147 16 14.5067 16 14.7527V14.8247C16 15.2267 15.598 15.5027 15.22 15.3707C14.998 15.2927 14.83 15.1907 14.692 15.1067L14.6855 15.1029C14.4673 14.9731 14.3288 14.8907 14.002 14.8907C13.666 14.8907 13.534 14.9687 13.312 15.1067L13.2973 15.1153C13.023 15.2765 12.6583 15.4907 12.004 15.4907C11.338 15.4907 10.966 15.2687 10.696 15.1067L10.6895 15.1029C10.4713 14.9731 10.3328 14.8907 10.006 14.8907C9.67 14.8907 9.538 14.9687 9.316 15.1067L9.30841 15.1112C9.03318 15.2728 8.66191 15.4907 8.002 15.4907C7.336 15.4907 6.964 15.2687 6.694 15.1067C6.472 14.9687 6.334 14.8907 6.004 14.8907C5.674 14.8907 5.536 14.9687 5.314 15.1007C5.30443 15.1063 5.29476 15.112 5.28497 15.1177C5.14743 15.1982 4.98725 15.2919 4.78 15.3647C4.396 15.4967 4 15.2207 4 14.8187V14.7467C4 14.5067 4.162 14.3147 4.39 14.2367C4.492 14.1947 4.582 14.1407 4.69 14.0747L4.69759 14.0703C4.97282 13.9087 5.34409 13.6907 6.004 13.6907C6.67 13.6907 7.042 13.9127 7.312 14.0747C7.534 14.2127 7.666 14.2907 8.002 14.2907C8.338 14.2907 8.47 14.2127 8.692 14.0747L8.69959 14.0703C8.97482 13.9087 9.34609 13.6907 10.006 13.6907C10.672 13.6907 11.044 13.9127 11.314 14.0747L11.3205 14.0786C11.5387 14.2084 11.6772 14.2907 12.004 14.2907C12.334 14.2907 12.472 14.2127 12.694 14.0747C12.964 13.9127 13.336 13.6907 14.002 13.6907C14.668 13.6907 15.04 13.9127 15.31 14.0747Z" fill="white"/>
<path d="M5.3008 12.4177C5.13647 12.5117 4.93735 12.6257 4.666 12.7007C4.33 12.7967 4 12.5327 4 12.1847V12.0467C4 11.8067 4.162 11.6147 4.39 11.5367C4.492 11.4947 4.582 11.4407 4.69 11.3747C4.96 11.2127 5.332 10.9907 5.998 10.9907C6.664 10.9907 7.036 11.2127 7.306 11.3747L7.31247 11.3786C7.53071 11.5084 7.66922 11.5907 7.996 11.5907C8.332 11.5907 8.464 11.5127 8.686 11.3747C8.956 11.2127 9.328 10.9907 9.994 10.9907C10.66 10.9907 11.032 11.2127 11.302 11.3747L11.3085 11.3786C11.5267 11.5084 11.6652 11.5907 11.992 11.5907C12.322 11.5907 12.46 11.5127 12.682 11.3747C12.952 11.2127 13.324 10.9907 13.99 10.9907C14.656 10.9907 15.028 11.2127 15.298 11.3747C15.3062 11.3795 15.3142 11.3841 15.3221 11.3887C15.4249 11.4484 15.5093 11.4973 15.604 11.5307C15.826 11.6147 15.988 11.8067 15.988 12.0467V12.1187C15.9871 12.2124 15.9637 12.3045 15.9198 12.3873C15.876 12.4702 15.813 12.5413 15.736 12.5947C15.6591 12.6482 15.5704 12.6824 15.4775 12.6946C15.3846 12.7068 15.2901 12.6965 15.202 12.6647C14.992 12.5867 14.83 12.4907 14.692 12.4067L14.6855 12.4029C14.4673 12.2731 14.3288 12.1907 14.002 12.1907C13.666 12.1907 13.534 12.2687 13.312 12.4067C13.042 12.5687 12.67 12.7907 12.004 12.7907C11.338 12.7907 10.966 12.5687 10.696 12.4067L10.6895 12.4029C10.4713 12.2731 10.3328 12.1907 10.006 12.1907C9.67 12.1907 9.538 12.2687 9.316 12.4067C9.046 12.5687 8.674 12.7907 8.008 12.7907C7.342 12.7907 6.97 12.5687 6.7 12.4067L6.69353 12.4029C6.47529 12.2731 6.33678 12.1907 6.01 12.1907C5.68 12.1907 5.542 12.2687 5.32 12.4067C5.31365 12.4104 5.30725 12.414 5.3008 12.4177Z" fill="white"/>
</g>
<defs>
<clipPath id="clip0_489_12113">
<rect width="12" height="12" fill="white" transform="translate(4 4.09073)"/>
</clipPath>
</defs>
</svg>
