<?xml version="1.0" encoding="utf-8"?>
<!-- Generator: Adobe Illustrator 22.0.0, SVG Export Plug-In . SVG Version: 6.00 Build 0)  -->
<svg version="1.1" id="Слой_1" xmlns="http://www.w3.org/2000/svg" xmlns:xlink="http://www.w3.org/1999/xlink" x="0px" y="0px"
	 viewBox="0 0 24 24" style="enable-background:new 0 0 24 24;" xml:space="preserve">
<style type="text/css">
	.st0{fill:#2E3436;}
</style>
<path class="st0" d="M7.2,3.6C6.5,3.6,6,4.1,6,4.8S6.5,6,7.2,6h1.2c0.1,0,0.2,0,0.3,0.1C8.9,6.2,9,6.5,8.9,6.8
	C8.9,7,8.6,7.2,8.4,7.2h-6v2.4h6c1.3,0,2.5-0.9,2.9-2.2C11.6,6.1,11,4.7,9.9,4C9.5,3.8,9.1,3.7,8.6,3.6c0,0,0,0,0,0
	c-0.1,0-0.1,0-0.2,0L7.2,3.6z M17.4,4.8c-1.9,0-3.7,1.4-4.1,3.3c-0.1,0.7,0.3,1.3,0.9,1.4c0.6,0.1,1.3-0.3,1.4-0.9
	c0.2-0.9,1.1-1.5,2-1.4c1,0.1,1.6,1,1.5,1.9s-0.8,1.7-1.8,1.7h-15v2.4h15c2.2,0,4-1.7,4.2-3.9c0.2-2.2-1.4-4.1-3.6-4.5
	C17.8,4.8,17.6,4.8,17.4,4.8L17.4,4.8z M2.4,14.4v2.4h12c0.3,0,0.6,0.3,0.6,0.6S14.7,18,14.4,18h-1.2c-0.7,0-1.2,0.5-1.2,1.2
	s0.5,1.2,1.2,1.2h1.2c1.6,0,3-1.4,3-3s-1.4-3-3-3H2.4z"/>
</svg>
