<svg width="25" height="25" viewBox="0 0 25 25" fill="none" xmlns="http://www.w3.org/2000/svg">
<path d="M21.6597 4.6106C22.1283 4.14197 22.1283 3.38217 21.6597 2.91354C21.1911 2.44492 20.4313 2.44492 19.9627 2.91354L12.4112 10.465L4.85972 2.91354C4.39109 2.44492 3.63129 2.44492 3.16266 2.91354C2.69403 3.38217 2.69403 4.14197 3.16266 4.6106L10.7141 12.1621L3.16266 19.7135C2.69403 20.1822 2.69403 20.942 3.16266 21.4106C3.63129 21.8792 4.39109 21.8792 4.85972 21.4106L12.4112 13.8591L19.9627 21.4106C20.4313 21.8792 21.1911 21.8792 21.6597 21.4106C22.1283 20.942 22.1283 20.1822 21.6597 19.7135L14.1082 12.1621L21.6597 4.6106Z" fill="black"/>
</svg>
