<svg width="60" height="60" viewBox="0 0 60 60" fill="none" xmlns="http://www.w3.org/2000/svg">
<g clip-path="url(#clip0_1997_32715)">
<g filter="url(#filter0_ii_1997_32715)">
<path d="M12.4998 13.8643L10.8032 14.9345C10.7283 14.9844 10.6499 15.0058 10.5682 14.9987C10.4864 14.9915 10.4149 14.963 10.3535 14.9131C10.2922 14.8631 10.2445 14.8006 10.2105 14.7256C10.1764 14.6505 10.1696 14.5668 10.19 14.4743L10.6397 12.4517L9.13731 11.0927C9.06918 11.0285 9.02666 10.9553 9.00976 10.8731C8.99286 10.7909 8.99791 10.7107 9.02489 10.6325C9.05214 10.554 9.09302 10.4898 9.14753 10.4399C9.20204 10.39 9.27699 10.3579 9.37238 10.3436L11.3551 10.1617L12.1217 8.25683C12.1557 8.17122 12.2086 8.10701 12.2803 8.06421C12.352 8.0214 12.4251 8 12.4998 8C12.5748 8 12.648 8.0214 12.7194 8.06421C12.7908 8.10701 12.8436 8.17122 12.878 8.25683L13.6445 10.1617L15.6273 10.3436C15.7227 10.3579 15.7976 10.39 15.8521 10.4399C15.9066 10.4898 15.9475 10.554 15.9748 10.6325C16.002 10.711 16.0072 10.7913 15.9903 10.8735C15.9734 10.9557 15.9307 11.0288 15.8623 11.0927L14.3599 12.4517L14.8096 14.4743C14.8301 14.567 14.8233 14.6509 14.7892 14.726C14.7551 14.801 14.7074 14.8634 14.6461 14.9131C14.5848 14.963 14.5132 14.9915 14.4315 14.9987C14.3497 15.0058 14.2714 14.9844 14.1964 14.9345L12.4998 13.8643Z" fill="url(#paint0_linear_1997_32715)"/>
</g>
<g filter="url(#filter1_ii_1997_32715)">
<circle cx="16" cy="44" r="9" fill="url(#paint1_linear_1997_32715)"/>
</g>
<g filter="url(#filter2_ii_1997_32715)">
<circle cx="45.5" cy="44.5" r="2.5" fill="url(#paint2_linear_1997_32715)"/>
</g>
<g filter="url(#filter3_d_1997_32715)">
<g filter="url(#filter4_bii_1997_32715)">
<path fill-rule="evenodd" clip-rule="evenodd" d="M30.5209 4C25.4002 4 21.249 8.46074 21.249 13.9633C21.249 17.8229 23.2913 21.1698 26.2778 22.8245C26.9484 23.1081 28.2831 23.8324 28.2579 24.461C28.2328 25.0896 27.1579 25.582 26.6236 25.7496C26.3363 25.8101 25.8981 25.9506 25.4366 26.164C25.439 26.167 25.4415 26.1701 25.444 26.1731C25.4207 26.1737 25.3972 26.1791 25.3736 26.1896C25.3226 26.2123 25.2735 26.2336 25.2258 26.2543C24.745 26.4629 24.4084 26.6089 23.6764 27.4782C22.8681 28.4381 22.7703 29.3167 22.6488 30.4078C22.6192 30.6744 22.5881 30.9536 22.5449 31.2498C22.3249 32.7585 22.4747 33.4814 22.8833 34.11C23.2066 34.6073 25.2573 34.5923 26.2754 34.521C26.2762 34.5307 26.277 34.5403 26.2778 34.55V36.0901C26.2778 36.6558 26.2223 36.9073 26.0578 37.0016C26.0091 37.0295 25.7183 37.1305 25.317 37.2698C24.3651 37.6003 22.7913 38.1467 22.3491 38.4474C22.2795 38.4947 22.2089 38.5422 22.1378 38.5902C21.4054 39.0838 20.6101 39.6198 20.1804 40.3646C19.709 41.1818 19.3632 41.8732 19.7718 42.9104C20.1804 43.9476 21.469 44.9534 21.7833 45.0791C21.8204 45.0939 21.8836 45.1214 21.9689 45.1585C22.6075 45.4359 24.4795 46.2494 25.8378 46.3049C27.0699 46.3552 27.1893 47.3316 27.095 47.8135L26.9693 49.5736C27.0322 49.9089 27.3653 50.6674 28.1951 51.0194C29.0248 51.3714 29.4837 51.3546 29.6094 51.3023C29.6513 51.1975 29.7414 50.9062 29.7666 50.5794C29.798 50.1708 30.0495 51.2394 30.018 51.7423C30.0049 51.9519 29.9591 52.1233 29.91 52.3065C29.8414 52.5629 29.7666 52.8425 29.7666 53.2823C29.7666 53.8858 29.599 54.2462 29.5151 54.351C29.4313 54.5815 29.314 55.1493 29.5151 55.5767C29.7163 56.0042 31.359 56.0272 32.1553 55.9853C32.6791 56.0063 33.8211 55.979 34.1982 55.7025C34.6697 55.3567 34.6697 54.3195 34.1982 53.9109C33.7268 53.5024 33.6325 53.3766 33.5382 53.1566C33.463 52.9813 33.328 52.3867 33.2604 52.0889C33.2431 52.013 33.2303 51.9564 33.2239 51.9309C33.1925 51.8051 33.161 50.6737 33.5382 49.605C33.9154 48.5364 35.424 43.0047 35.5812 40.7103C35.7069 38.8748 35.6964 35.7758 35.6754 34.4557C35.6744 34.4352 35.6733 34.4147 35.6722 34.3942C36.1177 34.4139 37.1304 34.4148 37.844 34.2671C38.7041 34.0892 38.8366 32.9037 38.9016 32.3216C38.9055 32.2869 38.9091 32.2543 38.9126 32.2242C38.9755 31.6899 38.5983 30.1498 38.0326 28.7354C37.4669 27.3211 36.6182 26.7868 36.0211 26.4725C35.9894 26.4558 35.9595 26.4453 35.9311 26.4405C35.9424 26.4284 35.9539 26.4167 35.9656 26.4053C35.6627 26.2823 35.3265 26.1891 34.9525 26.1268C34.0474 25.9759 33.2972 25.4353 33.0353 25.1839C32.8048 24.9324 32.5261 24.285 33.2553 23.7067C33.9845 23.1283 34.5649 22.8776 34.764 22.8245C37.7506 21.1698 39.7928 17.8229 39.7928 13.9633C39.7928 8.46074 35.6416 4 30.5209 4ZM35.4151 29.9003C35.437 30.5168 35.4774 31.196 35.5234 31.928L36.3668 31.8156L35.4868 30.1498C35.4655 30.0886 35.44 30.003 35.4151 29.9003ZM26.1551 32.287C26.1385 31.7232 26.1307 31.185 26.1233 30.6767C26.1149 30.1009 26.1071 29.5635 26.0877 29.0704C26.0535 29.4453 25.9834 29.8067 25.8692 30.1184C25.316 31.627 25.031 32.1299 24.9577 32.1927L26.0892 32.287H26.1551ZM26.4033 42.7847L25.6176 42.1561C26.2043 41.9465 27.5914 41.5212 28.4463 41.496C29.3012 41.4709 29.5149 41.8418 29.5149 42.0303L29.6092 42.6589C29.473 42.5856 29.0498 42.4201 28.4463 42.3446C27.8428 42.2692 27.1681 42.6485 26.9062 42.8475L26.4033 42.7847Z" fill="#DFA100" fill-opacity="0.5"/>
</g>
<g filter="url(#filter5_f_1997_32715)">
<path d="M26.2972 36.3102V34.5187C26.6937 34.5187 28.5229 33.9655 28.6738 34.1415C28.8624 34.3615 29.2395 37.2217 28.9566 37.6302C28.6738 38.0388 26.0651 39.9246 24.1793 40.3332C22.6706 40.6601 22.7037 38.4998 22.8399 38.2274C22.8923 38.1855 23.2049 38.0703 24.1793 37.6931C25.1536 37.3159 25.6565 37.1588 26.0022 37.0331C26.2788 36.9325 26.2972 36.5302 26.2972 36.3102Z" fill="url(#paint3_radial_1997_32715)" fill-opacity="0.12"/>
</g>
<g filter="url(#filter6_f_1997_32715)">
<path d="M22.3628 41.9047C23.5661 42.1342 24.3694 42.1652 25.9533 42.1041" stroke="url(#paint4_linear_1997_32715)" stroke-opacity="0.5" stroke-width="0.0628601" stroke-linecap="round"/>
</g>
<g filter="url(#filter7_f_1997_32715)">
<path d="M30.8003 24.7675C30.7383 27.4366 30.6987 29.139 30.6992 32.5602" stroke="url(#paint5_linear_1997_32715)" stroke-opacity="0.12" stroke-width="0.0628601" stroke-linecap="round"/>
</g>
<g filter="url(#filter8_f_1997_32715)">
<path d="M30.1825 39.5787C29.7801 40.5091 29.2815 41.3493 29.0824 41.6531C29.0824 41.7579 29.1264 42.1057 29.3024 42.6589C29.5224 43.3504 29.3024 45.9905 29.491 46.3362C29.6796 46.6819 29.5853 46.5248 30.4025 44.7018C31.2196 42.8789 31.1568 40.4274 31.0311 39.7045C30.9053 38.9816 30.6853 38.4158 30.1825 39.5787Z" fill="url(#paint6_radial_1997_32715)" fill-opacity="0.12"/>
</g>
<g filter="url(#filter9_f_1997_32715)">
<path d="M30.8055 52.1195C30.3026 51.9937 29.9883 50.8937 29.894 50.3594C29.9359 50.7156 30.0135 51.5474 29.9883 52.0252C29.9569 52.6223 29.894 52.6538 29.7997 52.9681C29.7243 53.2195 29.8312 53.6805 29.894 53.8795C30.2607 53.6805 31.1764 53.2321 31.9056 53.0309C32.6347 52.8298 33.3409 53.1147 33.6028 53.2824L33.3199 52.3709L33.1628 51.428C33.1209 51.5747 32.9742 51.9183 32.7227 52.1195C32.4084 52.3709 31.4341 52.2766 30.8055 52.1195Z" fill="url(#paint7_radial_1997_32715)" fill-opacity="0.12"/>
</g>
<g filter="url(#filter10_d_1997_32715)">
<path d="M27.8545 32.3185L25.096 32.2557C24.129 32.8214 24.9703 34.3301 26.4401 34.5501L28.5774 34.1415C29.4889 33.89 30.2746 33.5129 30.7461 32.7586C30.8404 33.45 32.7576 33.9529 33.2919 34.1415C33.7193 34.2924 35.1253 34.3929 35.7749 34.4244C37.7309 34.2986 37.6994 32.2557 36.5051 31.8471C36.5365 31.8471 35.404 32.0042 34.4234 32.13C33.1976 32.2871 32.9462 31.5957 32.3804 30.8728C31.9278 30.2944 31.6471 27.0069 31.5632 25.4354V25.0582C31.5632 24.901 31.3747 24.7439 31.1547 24.7439C30.9786 24.7439 30.8089 24.8696 30.7461 24.9325C30.6727 24.8696 30.4946 24.7439 30.3689 24.7439C30.2118 24.7439 29.9603 24.9325 29.9917 25.4354C30.0232 25.9382 29.5831 29.427 29.2688 30.8728C29.0174 32.0294 28.2212 32.3185 27.8545 32.3185Z" fill="url(#paint8_radial_1997_32715)" shape-rendering="crispEdges"/>
</g>
<path d="M27.8545 32.3185L25.096 32.2557C24.129 32.8214 24.9703 34.3301 26.4401 34.5501L28.5774 34.1415C29.4889 33.89 30.2746 33.5129 30.7461 32.7586C30.8404 33.45 32.7576 33.9529 33.2919 34.1415C33.7193 34.2924 35.1253 34.3929 35.7749 34.4244C37.7309 34.2986 37.6994 32.2557 36.5051 31.8471C36.5365 31.8471 35.404 32.0042 34.4234 32.13C33.1976 32.2871 32.9462 31.5957 32.3804 30.8728C31.9278 30.2944 31.6471 27.0069 31.5632 25.4354V25.0582C31.5632 24.901 31.3747 24.7439 31.1547 24.7439C30.9786 24.7439 30.8089 24.8696 30.7461 24.9325C30.6727 24.8696 30.4946 24.7439 30.3689 24.7439C30.2118 24.7439 29.9603 24.9325 29.9917 25.4354C30.0232 25.9382 29.5831 29.427 29.2688 30.8728C29.0174 32.0294 28.2212 32.3185 27.8545 32.3185Z" fill="url(#paint9_radial_1997_32715)"/>
<path d="M27.8545 32.3185L25.096 32.2557C24.129 32.8214 24.9703 34.3301 26.4401 34.5501L28.5774 34.1415C29.4889 33.89 30.2746 33.5129 30.7461 32.7586C30.8404 33.45 32.7576 33.9529 33.2919 34.1415C33.7193 34.2924 35.1253 34.3929 35.7749 34.4244C37.7309 34.2986 37.6994 32.2557 36.5051 31.8471C36.5365 31.8471 35.404 32.0042 34.4234 32.13C33.1976 32.2871 32.9462 31.5957 32.3804 30.8728C31.9278 30.2944 31.6471 27.0069 31.5632 25.4354V25.0582C31.5632 24.901 31.3747 24.7439 31.1547 24.7439C30.9786 24.7439 30.8089 24.8696 30.7461 24.9325C30.6727 24.8696 30.4946 24.7439 30.3689 24.7439C30.2118 24.7439 29.9603 24.9325 29.9917 25.4354C30.0232 25.9382 29.5831 29.427 29.2688 30.8728C29.0174 32.0294 28.2212 32.3185 27.8545 32.3185Z" fill="url(#paint10_radial_1997_32715)"/>
<g filter="url(#filter11_f_1997_32715)">
<path d="M35.5568 31.9118L35.4569 29.9298L35.3368 29.0183L34.4253 32.0985L35.5568 31.9118Z" fill="url(#paint11_linear_1997_32715)" fill-opacity="0.12"/>
</g>
<g filter="url(#filter12_f_1997_32715)">
<path d="M37.1913 31.8156H36.3427C36.0807 31.2498 35.538 30.0806 35.4626 29.9298C35.3683 29.7412 35.3055 28.924 35.3683 28.5469C35.4312 28.1697 35.4312 27.6354 35.4626 27.5411C35.4878 27.4657 36.1226 27.803 36.4369 27.9811C36.7198 28.1907 37.3736 28.8486 37.7256 29.8041C38.0776 30.7595 37.516 31.5432 37.1913 31.8156Z" fill="url(#paint12_radial_1997_32715)" fill-opacity="0.12"/>
</g>
<g filter="url(#filter13_f_1997_32715)">
<ellipse cx="34.1831" cy="7.63589" rx="2.31191" ry="0.911472" transform="rotate(35.3573 34.1831 7.63589)" fill="white"/>
</g>
<g filter="url(#filter14_f_1997_32715)">
<ellipse cx="34.2915" cy="40.9373" rx="3.15681" ry="0.469208" transform="rotate(93.9099 34.2915 40.9373)" fill="white"/>
</g>
<g filter="url(#filter15_f_1997_32715)">
<ellipse cx="31.5976" cy="28.8574" rx="1.60293" ry="0.0868467" transform="rotate(85.1708 31.5976 28.8574)" fill="white"/>
</g>
<g filter="url(#filter16_f_1997_32715)">
<ellipse cx="37.0025" cy="28.1342" rx="0.95577" ry="0.167906" transform="rotate(54.5374 37.0025 28.1342)" fill="white"/>
</g>
<g filter="url(#filter17_f_1997_32715)">
<ellipse cx="31.3138" cy="25.0554" rx="0.184374" ry="0.0613529" transform="rotate(54.5374 31.3138 25.0554)" fill="white"/>
</g>
<g filter="url(#filter18_f_1997_32715)">
<ellipse cx="32.3015" cy="53.9552" rx="0.95577" ry="0.167906" transform="rotate(-0.125945 32.3015 53.9552)" fill="white" fill-opacity="0.5"/>
</g>
<g filter="url(#filter19_f_1997_32715)">
<ellipse cx="26.2584" cy="32.6052" rx="1.62133" ry="0.128844" transform="rotate(2.15026 26.2584 32.6052)" fill="white" fill-opacity="0.5"/>
</g>
<g filter="url(#filter20_f_1997_32715)">
<ellipse cx="34.4111" cy="32.3769" rx="1.6042" ry="0.126592" transform="rotate(3.84458 34.4111 32.3769)" fill="white" fill-opacity="0.5"/>
</g>
<path d="M26.0337 46.305C25.8828 46.305 25.1327 46.2002 24.7765 46.1478C24.8393 45.4249 26.9137 45.4249 28.1709 45.4249C29.1767 45.4249 28.5062 46.8078 28.0452 47.4993C27.6995 48.0546 27.0269 48.8948 27.1023 47.8136C27.1966 46.4621 26.2223 46.305 26.0337 46.305Z" fill="url(#paint13_radial_1997_32715)" fill-opacity="0.2"/>
<g filter="url(#filter21_f_1997_32715)">
<path d="M29.5223 42.5961C29.5223 43.2875 29.5223 44.9345 29.5223 45.9905C29.5223 47.3106 29.9624 47.782 29.8995 48.3792C29.8492 48.8569 29.7738 49.9193 29.7423 50.3907" stroke="url(#paint14_linear_1997_32715)" stroke-width="0.0628601"/>
</g>
</g>
<g filter="url(#filter22_ii_1997_32715)">
<rect x="42" y="11.6569" width="8" height="8" rx="2" transform="rotate(-45 42 11.6569)" fill="url(#paint15_linear_1997_32715)"/>
</g>
</g>
<defs>
<filter id="filter0_ii_1997_32715" x="8.5" y="7.5" width="8" height="8" filterUnits="userSpaceOnUse" color-interpolation-filters="sRGB">
<feFlood flood-opacity="0" result="BackgroundImageFix"/>
<feBlend mode="normal" in="SourceGraphic" in2="BackgroundImageFix" result="shape"/>
<feColorMatrix in="SourceAlpha" type="matrix" values="0 0 0 0 0 0 0 0 0 0 0 0 0 0 0 0 0 0 127 0" result="hardAlpha"/>
<feOffset dx="0.5" dy="-0.5"/>
<feGaussianBlur stdDeviation="0.6"/>
<feComposite in2="hardAlpha" operator="arithmetic" k2="-1" k3="1"/>
<feColorMatrix type="matrix" values="0 0 0 0 0 0 0 0 0 0 0 0 0 0 0 0 0 0 0.4 0"/>
<feBlend mode="normal" in2="shape" result="effect1_innerShadow_1997_32715"/>
<feColorMatrix in="SourceAlpha" type="matrix" values="0 0 0 0 0 0 0 0 0 0 0 0 0 0 0 0 0 0 127 0" result="hardAlpha"/>
<feOffset dx="-0.5" dy="0.5"/>
<feGaussianBlur stdDeviation="0.6"/>
<feComposite in2="hardAlpha" operator="arithmetic" k2="-1" k3="1"/>
<feColorMatrix type="matrix" values="0 0 0 0 1 0 0 0 0 1 0 0 0 0 1 0 0 0 0.6 0"/>
<feBlend mode="normal" in2="effect1_innerShadow_1997_32715" result="effect2_innerShadow_1997_32715"/>
</filter>
<filter id="filter1_ii_1997_32715" x="6.5" y="34.5" width="19" height="19" filterUnits="userSpaceOnUse" color-interpolation-filters="sRGB">
<feFlood flood-opacity="0" result="BackgroundImageFix"/>
<feBlend mode="normal" in="SourceGraphic" in2="BackgroundImageFix" result="shape"/>
<feColorMatrix in="SourceAlpha" type="matrix" values="0 0 0 0 0 0 0 0 0 0 0 0 0 0 0 0 0 0 127 0" result="hardAlpha"/>
<feOffset dx="0.5" dy="-0.5"/>
<feGaussianBlur stdDeviation="0.6"/>
<feComposite in2="hardAlpha" operator="arithmetic" k2="-1" k3="1"/>
<feColorMatrix type="matrix" values="0 0 0 0 0 0 0 0 0 0 0 0 0 0 0 0 0 0 0.4 0"/>
<feBlend mode="normal" in2="shape" result="effect1_innerShadow_1997_32715"/>
<feColorMatrix in="SourceAlpha" type="matrix" values="0 0 0 0 0 0 0 0 0 0 0 0 0 0 0 0 0 0 127 0" result="hardAlpha"/>
<feOffset dx="-0.5" dy="0.5"/>
<feGaussianBlur stdDeviation="0.6"/>
<feComposite in2="hardAlpha" operator="arithmetic" k2="-1" k3="1"/>
<feColorMatrix type="matrix" values="0 0 0 0 1 0 0 0 0 1 0 0 0 0 1 0 0 0 0.6 0"/>
<feBlend mode="normal" in2="effect1_innerShadow_1997_32715" result="effect2_innerShadow_1997_32715"/>
</filter>
<filter id="filter2_ii_1997_32715" x="42.5" y="41.5" width="6" height="6" filterUnits="userSpaceOnUse" color-interpolation-filters="sRGB">
<feFlood flood-opacity="0" result="BackgroundImageFix"/>
<feBlend mode="normal" in="SourceGraphic" in2="BackgroundImageFix" result="shape"/>
<feColorMatrix in="SourceAlpha" type="matrix" values="0 0 0 0 0 0 0 0 0 0 0 0 0 0 0 0 0 0 127 0" result="hardAlpha"/>
<feOffset dx="0.5" dy="-0.5"/>
<feGaussianBlur stdDeviation="0.6"/>
<feComposite in2="hardAlpha" operator="arithmetic" k2="-1" k3="1"/>
<feColorMatrix type="matrix" values="0 0 0 0 0 0 0 0 0 0 0 0 0 0 0 0 0 0 0.4 0"/>
<feBlend mode="normal" in2="shape" result="effect1_innerShadow_1997_32715"/>
<feColorMatrix in="SourceAlpha" type="matrix" values="0 0 0 0 0 0 0 0 0 0 0 0 0 0 0 0 0 0 127 0" result="hardAlpha"/>
<feOffset dx="-0.5" dy="0.5"/>
<feGaussianBlur stdDeviation="0.6"/>
<feComposite in2="hardAlpha" operator="arithmetic" k2="-1" k3="1"/>
<feColorMatrix type="matrix" values="0 0 0 0 1 0 0 0 0 1 0 0 0 0 1 0 0 0 0.6 0"/>
<feBlend mode="normal" in2="effect1_innerShadow_1997_32715" result="effect2_innerShadow_1997_32715"/>
</filter>
<filter id="filter3_d_1997_32715" x="7.59058" y="-8" width="44.2021" height="76" filterUnits="userSpaceOnUse" color-interpolation-filters="sRGB">
<feFlood flood-opacity="0" result="BackgroundImageFix"/>
<feColorMatrix in="SourceAlpha" type="matrix" values="0 0 0 0 0 0 0 0 0 0 0 0 0 0 0 0 0 0 127 0" result="hardAlpha"/>
<feOffset/>
<feGaussianBlur stdDeviation="6"/>
<feComposite in2="hardAlpha" operator="out"/>
<feColorMatrix type="matrix" values="0 0 0 0 0 0 0 0 0 0 0 0 0 0 0 0 0 0 0.32 0"/>
<feBlend mode="normal" in2="BackgroundImageFix" result="effect1_dropShadow_1997_32715"/>
<feBlend mode="normal" in="SourceGraphic" in2="effect1_dropShadow_1997_32715" result="shape"/>
</filter>
<filter id="filter4_bii_1997_32715" x="17.0836" y="1.48559" width="25.2162" height="57.0288" filterUnits="userSpaceOnUse" color-interpolation-filters="sRGB">
<feFlood flood-opacity="0" result="BackgroundImageFix"/>
<feGaussianBlur in="BackgroundImageFix" stdDeviation="1.2535"/>
<feComposite in2="SourceAlpha" operator="in" result="effect1_backgroundBlur_1997_32715"/>
<feBlend mode="normal" in="SourceGraphic" in2="effect1_backgroundBlur_1997_32715" result="shape"/>
<feColorMatrix in="SourceAlpha" type="matrix" values="0 0 0 0 0 0 0 0 0 0 0 0 0 0 0 0 0 0 127 0" result="hardAlpha"/>
<feOffset dx="-1.2572" dy="2.51441"/>
<feGaussianBlur stdDeviation="1.5"/>
<feComposite in2="hardAlpha" operator="arithmetic" k2="-1" k3="1"/>
<feColorMatrix type="matrix" values="0 0 0 0 1 0 0 0 0 1 0 0 0 0 1 0 0 0 0.4 0"/>
<feBlend mode="normal" in2="shape" result="effect2_innerShadow_1997_32715"/>
<feColorMatrix in="SourceAlpha" type="matrix" values="0 0 0 0 0 0 0 0 0 0 0 0 0 0 0 0 0 0 127 0" result="hardAlpha"/>
<feOffset dx="1.2572" dy="-2.51441"/>
<feGaussianBlur stdDeviation="1.5"/>
<feComposite in2="hardAlpha" operator="arithmetic" k2="-1" k3="1"/>
<feColorMatrix type="matrix" values="0 0 0 0 0 0 0 0 0 0 0 0 0 0 0 0 0 0 0.32 0"/>
<feBlend mode="normal" in2="effect2_innerShadow_1997_32715" result="effect3_innerShadow_1997_32715"/>
</filter>
<filter id="filter5_f_1997_32715" x="22.5281" y="33.8555" width="6.78169" height="6.76277" filterUnits="userSpaceOnUse" color-interpolation-filters="sRGB">
<feFlood flood-opacity="0" result="BackgroundImageFix"/>
<feBlend mode="normal" in="SourceGraphic" in2="BackgroundImageFix" result="shape"/>
<feGaussianBlur stdDeviation="0.12572" result="effect1_foregroundBlur_1997_32715"/>
</filter>
<filter id="filter6_f_1997_32715" x="22.0799" y="41.6217" width="4.15632" height="0.792554" filterUnits="userSpaceOnUse" color-interpolation-filters="sRGB">
<feFlood flood-opacity="0" result="BackgroundImageFix"/>
<feBlend mode="normal" in="SourceGraphic" in2="BackgroundImageFix" result="shape"/>
<feGaussianBlur stdDeviation="0.12572" result="effect1_foregroundBlur_1997_32715"/>
</filter>
<filter id="filter7_f_1997_32715" x="30.4793" y="24.5475" width="0.540979" height="8.23263" filterUnits="userSpaceOnUse" color-interpolation-filters="sRGB">
<feFlood flood-opacity="0" result="BackgroundImageFix"/>
<feBlend mode="normal" in="SourceGraphic" in2="BackgroundImageFix" result="shape"/>
<feGaussianBlur stdDeviation="0.0942902" result="effect1_foregroundBlur_1997_32715"/>
</filter>
<filter id="filter8_f_1997_32715" x="28.5795" y="38.4089" width="3.02908" height="8.57754" filterUnits="userSpaceOnUse" color-interpolation-filters="sRGB">
<feFlood flood-opacity="0" result="BackgroundImageFix"/>
<feBlend mode="normal" in="SourceGraphic" in2="BackgroundImageFix" result="shape"/>
<feGaussianBlur stdDeviation="0.251441" result="effect1_foregroundBlur_1997_32715"/>
</filter>
<filter id="filter9_f_1997_32715" x="29.5224" y="50.1079" width="4.33186" height="4.02302" filterUnits="userSpaceOnUse" color-interpolation-filters="sRGB">
<feFlood flood-opacity="0" result="BackgroundImageFix"/>
<feBlend mode="normal" in="SourceGraphic" in2="BackgroundImageFix" result="shape"/>
<feGaussianBlur stdDeviation="0.12572" result="effect1_foregroundBlur_1997_32715"/>
</filter>
<filter id="filter10_d_1997_32715" x="20.682" y="24.7439" width="20.6541" height="17.8062" filterUnits="userSpaceOnUse" color-interpolation-filters="sRGB">
<feFlood flood-opacity="0" result="BackgroundImageFix"/>
<feColorMatrix in="SourceAlpha" type="matrix" values="0 0 0 0 0 0 0 0 0 0 0 0 0 0 0 0 0 0 127 0" result="hardAlpha"/>
<feOffset dy="4"/>
<feGaussianBlur stdDeviation="2"/>
<feComposite in2="hardAlpha" operator="out"/>
<feColorMatrix type="matrix" values="0 0 0 0 0 0 0 0 0 0 0 0 0 0 0 0 0 0 0.25 0"/>
<feBlend mode="normal" in2="BackgroundImageFix" result="effect1_dropShadow_1997_32715"/>
<feBlend mode="normal" in="SourceGraphic" in2="effect1_dropShadow_1997_32715" result="shape"/>
</filter>
<filter id="filter11_f_1997_32715" x="34.1739" y="28.7669" width="1.63435" height="3.58308" filterUnits="userSpaceOnUse" color-interpolation-filters="sRGB">
<feFlood flood-opacity="0" result="BackgroundImageFix"/>
<feBlend mode="normal" in="SourceGraphic" in2="BackgroundImageFix" result="shape"/>
<feGaussianBlur stdDeviation="0.12572" result="effect1_foregroundBlur_1997_32715"/>
</filter>
<filter id="filter12_f_1997_32715" x="34.9659" y="27.1531" width="3.24883" height="5.0396" filterUnits="userSpaceOnUse" color-interpolation-filters="sRGB">
<feFlood flood-opacity="0" result="BackgroundImageFix"/>
<feBlend mode="normal" in="SourceGraphic" in2="BackgroundImageFix" result="shape"/>
<feGaussianBlur stdDeviation="0.18858" result="effect1_foregroundBlur_1997_32715"/>
</filter>
<filter id="filter13_f_1997_32715" x="30.2132" y="4.09358" width="7.9398" height="7.08457" filterUnits="userSpaceOnUse" color-interpolation-filters="sRGB">
<feFlood flood-opacity="0" result="BackgroundImageFix"/>
<feBlend mode="normal" in="SourceGraphic" in2="BackgroundImageFix" result="shape"/>
<feGaussianBlur stdDeviation="1.00576" result="effect1_foregroundBlur_1997_32715"/>
</filter>
<filter id="filter14_f_1997_32715" x="32.5189" y="36.5305" width="3.54517" height="8.8136" filterUnits="userSpaceOnUse" color-interpolation-filters="sRGB">
<feFlood flood-opacity="0" result="BackgroundImageFix"/>
<feBlend mode="normal" in="SourceGraphic" in2="BackgroundImageFix" result="shape"/>
<feGaussianBlur stdDeviation="0.628601" result="effect1_foregroundBlur_1997_32715"/>
</filter>
<filter id="filter15_f_1997_32715" x="31.0601" y="26.883" width="1.075" height="3.94878" filterUnits="userSpaceOnUse" color-interpolation-filters="sRGB">
<feFlood flood-opacity="0" result="BackgroundImageFix"/>
<feBlend mode="normal" in="SourceGraphic" in2="BackgroundImageFix" result="shape"/>
<feGaussianBlur stdDeviation="0.18858" result="effect1_foregroundBlur_1997_32715"/>
</filter>
<filter id="filter16_f_1997_32715" x="35.9283" y="26.8467" width="2.14834" height="2.57498" filterUnits="userSpaceOnUse" color-interpolation-filters="sRGB">
<feFlood flood-opacity="0" result="BackgroundImageFix"/>
<feBlend mode="normal" in="SourceGraphic" in2="BackgroundImageFix" result="shape"/>
<feGaussianBlur stdDeviation="0.251441" result="effect1_foregroundBlur_1997_32715"/>
</filter>
<filter id="filter17_f_1997_32715" x="30.9442" y="24.6496" width="0.739087" height="0.811597" filterUnits="userSpaceOnUse" color-interpolation-filters="sRGB">
<feFlood flood-opacity="0" result="BackgroundImageFix"/>
<feBlend mode="normal" in="SourceGraphic" in2="BackgroundImageFix" result="shape"/>
<feGaussianBlur stdDeviation="0.12572" result="effect1_foregroundBlur_1997_32715"/>
</filter>
<filter id="filter18_f_1997_32715" x="30.8428" y="53.2845" width="2.91726" height="1.34158" filterUnits="userSpaceOnUse" color-interpolation-filters="sRGB">
<feFlood flood-opacity="0" result="BackgroundImageFix"/>
<feBlend mode="normal" in="SourceGraphic" in2="BackgroundImageFix" result="shape"/>
<feGaussianBlur stdDeviation="0.251441" result="effect1_foregroundBlur_1997_32715"/>
</filter>
<filter id="filter19_f_1997_32715" x="24.1353" y="31.9599" width="4.24624" height="1.29067" filterUnits="userSpaceOnUse" color-interpolation-filters="sRGB">
<feFlood flood-opacity="0" result="BackgroundImageFix"/>
<feBlend mode="normal" in="SourceGraphic" in2="BackgroundImageFix" result="shape"/>
<feGaussianBlur stdDeviation="0.251441" result="effect1_foregroundBlur_1997_32715"/>
</filter>
<filter id="filter20_f_1997_32715" x="32.3075" y="31.7082" width="4.20706" height="1.33755" filterUnits="userSpaceOnUse" color-interpolation-filters="sRGB">
<feFlood flood-opacity="0" result="BackgroundImageFix"/>
<feBlend mode="normal" in="SourceGraphic" in2="BackgroundImageFix" result="shape"/>
<feGaussianBlur stdDeviation="0.251441" result="effect1_foregroundBlur_1997_32715"/>
</filter>
<filter id="filter21_f_1997_32715" x="29.2395" y="42.3446" width="0.948926" height="8.29963" filterUnits="userSpaceOnUse" color-interpolation-filters="sRGB">
<feFlood flood-opacity="0" result="BackgroundImageFix"/>
<feBlend mode="normal" in="SourceGraphic" in2="BackgroundImageFix" result="shape"/>
<feGaussianBlur stdDeviation="0.12572" result="effect1_foregroundBlur_1997_32715"/>
</filter>
<filter id="filter22_ii_1997_32715" x="42.3284" y="6.32849" width="10.6569" height="10.6567" filterUnits="userSpaceOnUse" color-interpolation-filters="sRGB">
<feFlood flood-opacity="0" result="BackgroundImageFix"/>
<feBlend mode="normal" in="SourceGraphic" in2="BackgroundImageFix" result="shape"/>
<feColorMatrix in="SourceAlpha" type="matrix" values="0 0 0 0 0 0 0 0 0 0 0 0 0 0 0 0 0 0 127 0" result="hardAlpha"/>
<feOffset dx="0.5" dy="-0.5"/>
<feGaussianBlur stdDeviation="0.6"/>
<feComposite in2="hardAlpha" operator="arithmetic" k2="-1" k3="1"/>
<feColorMatrix type="matrix" values="0 0 0 0 0 0 0 0 0 0 0 0 0 0 0 0 0 0 0.4 0"/>
<feBlend mode="normal" in2="shape" result="effect1_innerShadow_1997_32715"/>
<feColorMatrix in="SourceAlpha" type="matrix" values="0 0 0 0 0 0 0 0 0 0 0 0 0 0 0 0 0 0 127 0" result="hardAlpha"/>
<feOffset dx="-0.5" dy="0.5"/>
<feGaussianBlur stdDeviation="0.6"/>
<feComposite in2="hardAlpha" operator="arithmetic" k2="-1" k3="1"/>
<feColorMatrix type="matrix" values="0 0 0 0 1 0 0 0 0 1 0 0 0 0 1 0 0 0 0.6 0"/>
<feBlend mode="normal" in2="effect1_innerShadow_1997_32715" result="effect2_innerShadow_1997_32715"/>
</filter>
<linearGradient id="paint0_linear_1997_32715" x1="10.5" y1="9" x2="15" y2="13.5" gradientUnits="userSpaceOnUse">
<stop stop-color="#E32900"/>
<stop offset="0.494792" stop-color="#C6E216"/>
<stop offset="1" stop-color="#D808FA"/>
</linearGradient>
<linearGradient id="paint1_linear_1997_32715" x1="9.54348" y1="37.3478" x2="22.8478" y2="50.2609" gradientUnits="userSpaceOnUse">
<stop stop-color="#E32900"/>
<stop offset="0.494792" stop-color="#C6E216"/>
<stop offset="1" stop-color="#D808FA"/>
</linearGradient>
<linearGradient id="paint2_linear_1997_32715" x1="43.7065" y1="42.6522" x2="47.4022" y2="46.2391" gradientUnits="userSpaceOnUse">
<stop stop-color="#E32900"/>
<stop offset="0.494792" stop-color="#C6E216"/>
<stop offset="1" stop-color="#D808FA"/>
</linearGradient>
<radialGradient id="paint3_radial_1997_32715" cx="0" cy="0" r="1" gradientUnits="userSpaceOnUse" gradientTransform="translate(26.1594 36.9074) rotate(121.31) scale(3.56839 2.06397)">
<stop offset="0.116373"/>
<stop offset="0.408159" stop-opacity="0.368105"/>
<stop offset="0.669694" stop-opacity="0.107132"/>
<stop offset="1" stop-opacity="0"/>
</radialGradient>
<linearGradient id="paint4_linear_1997_32715" x1="26.0501" y1="42.1061" x2="22.262" y2="41.8341" gradientUnits="userSpaceOnUse">
<stop stop-opacity="0"/>
<stop offset="0.484653"/>
<stop offset="1" stop-opacity="0"/>
</linearGradient>
<linearGradient id="paint5_linear_1997_32715" x1="30.7027" y1="32.7701" x2="30.9697" y2="24.5441" gradientUnits="userSpaceOnUse">
<stop stop-opacity="0.24"/>
<stop offset="0.484653"/>
<stop offset="1" stop-opacity="0.24"/>
</linearGradient>
<radialGradient id="paint6_radial_1997_32715" cx="0" cy="0" r="1" gradientUnits="userSpaceOnUse" gradientTransform="translate(30.094 42.6976) rotate(97.8923) scale(3.70512 0.99006)">
<stop/>
<stop offset="0.470328" stop-opacity="0.343749"/>
<stop offset="1" stop-opacity="0"/>
</radialGradient>
<radialGradient id="paint7_radial_1997_32715" cx="0" cy="0" r="1" gradientUnits="userSpaceOnUse" gradientTransform="translate(31.8113 53.0624) rotate(-89.132) scale(2.07462 2.25662)">
<stop/>
<stop offset="0.247735" stop-opacity="0.537653"/>
<stop offset="1" stop-opacity="0"/>
</radialGradient>
<radialGradient id="paint8_radial_1997_32715" cx="0" cy="0" r="1" gradientUnits="userSpaceOnUse" gradientTransform="translate(31.9738 28.3269) rotate(74.8091) scale(4.91778 1.23914)">
<stop stop-color="white" stop-opacity="0.32"/>
<stop offset="1" stop-color="white" stop-opacity="0"/>
</radialGradient>
<radialGradient id="paint9_radial_1997_32715" cx="0" cy="0" r="1" gradientUnits="userSpaceOnUse" gradientTransform="translate(29.0508 29.647) rotate(104.133) scale(4.50515 1.35665)">
<stop stop-opacity="0.24"/>
<stop offset="1" stop-opacity="0"/>
</radialGradient>
<radialGradient id="paint10_radial_1997_32715" cx="0" cy="0" r="1" gradientUnits="userSpaceOnUse" gradientTransform="translate(30.8109 34.3301) rotate(-1.10703) scale(6.50724 2.73771)">
<stop stop-opacity="0.24"/>
<stop offset="0.808242" stop-opacity="0"/>
</radialGradient>
<linearGradient id="paint11_linear_1997_32715" x1="35.5568" y1="30.8727" x2="34.8943" y2="30.7324" gradientUnits="userSpaceOnUse">
<stop/>
<stop offset="1" stop-opacity="0"/>
</linearGradient>
<radialGradient id="paint12_radial_1997_32715" cx="0" cy="0" r="1" gradientUnits="userSpaceOnUse" gradientTransform="translate(36.3427 31.5013) rotate(-98.3508) scale(3.46259 1.28464)">
<stop/>
<stop offset="0.38366" stop-opacity="0.372418"/>
<stop offset="1" stop-opacity="0"/>
</radialGradient>
<radialGradient id="paint13_radial_1997_32715" cx="0" cy="0" r="1" gradientUnits="userSpaceOnUse" gradientTransform="translate(26.7357 46.8811) rotate(90) scale(1.45622 1.08883)">
<stop/>
<stop offset="0.449225" stop-opacity="0.337737"/>
<stop offset="1" stop-opacity="0"/>
</radialGradient>
<linearGradient id="paint14_linear_1997_32715" x1="29.714" y1="42.5961" x2="29.714" y2="50.3907" gradientUnits="userSpaceOnUse">
<stop stop-opacity="0.12"/>
<stop offset="0.514701" stop-opacity="0.485299"/>
<stop offset="1" stop-opacity="0.12"/>
</linearGradient>
<linearGradient id="paint15_linear_1997_32715" x1="46.3535" y1="11.7677" x2="46.3535" y2="20.253" gradientUnits="userSpaceOnUse">
<stop stop-color="#E32900"/>
<stop offset="0.494792" stop-color="#C6E216"/>
<stop offset="1" stop-color="#D808FA"/>
</linearGradient>
<clipPath id="clip0_1997_32715">
<rect width="60" height="60" fill="white"/>
</clipPath>
</defs>
</svg>
