<svg width="20" height="20" viewBox="0 0 20 20" fill="none" xmlns="http://www.w3.org/2000/svg">
<rect width="20" height="20" rx="10" fill="#55A042"/>
<path d="M9.55745 6.11358C9.09753 5.65358 8.48597 5.40024 7.8355 5.40024C7.18503 5.40024 6.57351 5.65358 6.11355 6.11349C5.65359 6.57349 5.40029 7.18501 5.40029 7.83552C5.40029 8.48594 5.65359 9.09749 6.11351 9.55745C6.58822 10.0322 7.21198 10.2695 7.8355 10.2696C8.45914 10.2697 9.08266 10.0323 9.55749 9.55745C10.507 8.60792 10.507 7.06303 9.55745 6.11358Z" fill="white"/>
<path d="M10.5476 5.12339C9.82319 4.39899 8.85999 4 7.8355 4C6.81101 4 5.84785 4.39899 5.12344 5.12339C4.39895 5.84784 4 6.81099 4 7.83552C4 8.86 4.39899 9.82319 5.12344 10.5476C5.87104 11.2952 6.85343 11.6691 7.83554 11.6692C8.81785 11.6693 9.7998 11.2954 10.5477 10.5476C12.0431 9.05212 12.0431 6.61887 10.5476 5.12339ZM7.8355 10.8247C7.06964 10.8247 6.30381 10.5332 5.72078 9.95026C5.15597 9.38541 4.84485 8.63438 4.84485 7.83556C4.84485 7.03673 5.15593 6.28574 5.72082 5.72085C6.28567 5.15596 7.03667 4.84485 7.8355 4.84485C8.63429 4.84485 9.38533 5.15596 9.95018 5.72081C11.1162 6.88683 11.1162 8.78412 9.95022 9.95018C9.36715 10.5332 8.60132 10.8247 7.8355 10.8247Z" fill="white"/>
<path d="M15.6997 14.2493L11.5798 10.1294C11.403 10.4181 11.19 10.6906 10.9403 10.9403C10.6907 11.1899 10.4181 11.4029 10.1294 11.5798L14.2492 15.6996C14.4429 15.8933 14.7005 16 14.9745 16C15.2484 16 15.5059 15.8933 15.6996 15.6996C15.8933 15.5059 16 15.2483 16 14.9744C16 14.7005 15.8933 14.4429 15.6997 14.2493Z" fill="white"/>
</svg>
