<svg width="25" height="25" viewBox="0 0 25 25" fill="none" xmlns="http://www.w3.org/2000/svg">
<path d="M19.2612 3.46204H5.46123C3.96123 3.46204 2.76123 4.76204 2.76123 6.16204V6.66204C2.76123 7.86204 3.56123 8.86204 4.66123 9.26204V17.862C4.66123 19.462 5.96123 20.862 7.66123 20.862H17.1612C18.7612 20.862 20.1612 19.562 20.1612 17.862V9.26204C21.2612 8.96204 22.0612 7.96204 22.0612 6.66204V6.16204C21.9612 4.76204 20.7612 3.46204 19.2612 3.46204ZM4.86123 6.16204C4.86123 5.86204 5.16123 5.56204 5.46123 5.56204H19.2612C19.5612 5.56204 19.8612 5.86204 19.8612 6.16204V6.66204C19.8612 6.96204 19.5612 7.26204 19.2612 7.26204H5.46123C5.16123 7.26204 4.86123 6.96204 4.86123 6.66204V6.16204ZM17.0612 18.662H7.66123C7.16123 18.662 6.86123 18.262 6.86123 17.862V9.46204H18.0612V17.862C17.9612 18.362 17.5612 18.662 17.0612 18.662ZM9.36123 12.162C9.36123 11.562 9.86123 11.062 10.4612 11.062H14.2612C14.8612 11.062 15.3612 11.562 15.3612 12.162C15.3612 12.762 14.8612 13.262 14.2612 13.262H10.4612C9.86123 13.262 9.36123 12.762 9.36123 12.162Z" fill="black"/>
</svg>
