<svg width="25" height="25" viewBox="0 0 25 25" fill="none" xmlns="http://www.w3.org/2000/svg">
<path d="M9.65981 6.51352C10.1284 6.98215 10.1284 7.74195 9.65981 8.21058L6.90834 10.962H20.8113C21.474 10.962 22.0113 11.4993 22.0113 12.162C22.0113 12.8248 21.474 13.362 20.8113 13.362H6.90834L9.65981 16.1135C10.1284 16.5821 10.1284 17.3419 9.65981 17.8106C9.19118 18.2792 8.43138 18.2792 7.96275 17.8106L3.16275 13.0106C2.92844 12.7763 2.81128 12.4692 2.81128 12.162C2.81128 11.9993 2.84366 11.8442 2.90233 11.7027C2.96089 11.5612 3.0477 11.4286 3.16275 11.3135L7.96275 6.51352C8.43138 6.04489 9.19118 6.04489 9.65981 6.51352Z" fill="black"/>
</svg>
