<svg width="20" height="20" viewBox="0 0 20 20" fill="none" xmlns="http://www.w3.org/2000/svg">
<rect width="20" height="20" rx="10" fill="#F90707"/>
<path d="M15.89 11.5765L15.8282 11.4837L15.777 11.583C15.4429 12.231 14.3321 12.6182 13.4512 12.6182C12.3296 12.6182 6.79176 12.4462 6.07082 12.4043C5.9283 12.3956 5.77944 12.3916 5.60231 12.3916C5.49245 12.3916 5.39042 12.393 5.29176 12.3943C5.20606 12.3955 5.1252 12.3966 5.04922 12.3966C4.81216 12.3966 4.61723 12.3319 4.47492 12.2846C4.3827 12.2539 4.30984 12.2297 4.24951 12.2297C4.20299 12.2297 4.16529 12.2444 4.13747 12.2732C4.10104 12.3109 4.08469 12.3695 4.08599 12.4576C4.09703 13.2195 4.4922 13.2784 5.04925 13.2784C5.12575 13.2784 5.2072 13.2773 5.29353 13.2761C5.39174 13.2748 5.49332 13.2734 5.60231 13.2734C5.77677 13.2734 5.92317 13.2773 6.06315 13.2858C6.78497 13.3278 12.3284 13.5 13.4512 13.5C14.0211 13.5 14.6511 13.3455 15.1364 13.0868C15.6949 12.7891 16.0024 12.3884 16.0024 11.9586C16.0024 11.817 15.9646 11.6884 15.89 11.5765Z" fill="white"/>
<path d="M4.97438 12.0307C5.05033 12.0307 5.13112 12.0296 5.21679 12.0285C5.31424 12.0271 5.41504 12.0258 5.52319 12.0258C5.69662 12.0258 5.84183 12.0297 5.98042 12.0382C6.69655 12.0801 12.197 12.2523 13.3112 12.2523C13.8768 12.2523 14.5021 12.0978 14.9837 11.839C15.5379 11.5413 15.8431 11.1407 15.8431 10.711C15.8431 10.0878 15.1466 9.88652 14.4092 9.67341C14.0071 9.55723 13.5914 9.4371 13.2401 9.24485C13.0818 9.15807 12.8406 9.0323 12.5465 8.88199C12.547 8.87331 12.5478 8.86468 12.5478 8.85589C12.5478 8.5993 12.3434 8.39058 12.092 8.39058C11.9792 8.39058 11.876 8.43286 11.7964 8.50243C11.6899 8.44899 11.5807 8.3943 11.4696 8.33877C11.4597 8.09111 11.2598 7.89261 11.0148 7.89261C10.9158 7.89261 10.8244 7.92532 10.7496 7.98023C10.65 7.9308 10.5502 7.88134 10.4508 7.83207C10.4529 7.81395 10.4543 7.79561 10.4543 7.77692C10.4543 7.52036 10.2498 7.31164 9.9985 7.31164C9.87236 7.31164 9.75808 7.36425 9.67547 7.44904C8.70389 6.97011 7.90734 6.58112 7.83596 6.54627C7.79248 6.51599 7.74401 6.5 7.69535 6.5C7.61689 6.5 7.54147 6.53894 7.49352 6.60431L6.95684 7.33899C6.88493 7.43841 6.85669 7.53862 6.87288 7.63691C6.90495 7.83167 7.10176 7.96963 7.25989 8.08046C7.32284 8.12461 7.41646 8.19022 7.43149 8.22206C7.43128 8.22228 7.43105 8.22252 7.43083 8.22274C7.34337 8.31003 7.06264 8.43995 6.64763 8.43995C6.40774 8.43995 6.15495 8.39317 5.91659 8.30458C5.62493 8.19617 5.50441 7.89873 5.40759 7.65973C5.32663 7.45982 5.25667 7.28721 5.10126 7.28721C4.98337 7.28721 4.84695 7.39518 4.64444 7.6491C3.95609 8.54224 3.98827 9.90688 4.01178 10.9033C4.01429 11.01 4.01672 11.1126 4.01812 11.2099C4.02906 11.9719 4.42135 12.0307 4.97438 12.0307ZM10.7436 9.26211C10.7436 9.26211 10.8319 9.17291 10.9411 9.20626C11.036 9.23528 11.2606 9.29703 11.398 9.33187C11.5155 9.36167 11.4094 9.45595 11.4094 9.45595L9.62576 11.1225C9.62433 11.1236 9.55179 11.1911 9.44171 11.1911C9.26401 11.1911 8.9195 11.1897 8.77912 11.1897C8.66244 11.1897 8.75926 11.0892 8.75926 11.0892C8.75926 11.0892 10.7434 9.26211 10.7436 9.26211ZM9.38555 8.86875C9.38602 8.86832 9.52321 8.73019 9.68839 8.78356C9.77213 8.81061 9.96867 8.86042 10.094 8.89623C10.2012 8.92684 10.0876 9.03972 10.0875 9.03983L7.8796 11.0832C7.87807 11.0844 7.82701 11.1786 7.65493 11.1786C7.46074 11.1786 7.09019 11.1876 6.93858 11.1876C6.85289 11.1876 6.92907 11.0936 6.92899 11.0936L9.38555 8.86875Z" fill="white"/>
</svg>
