<svg width="25" height="25" viewBox="0 0 25 25" fill="none" xmlns="http://www.w3.org/2000/svg">
<path d="M21.0861 10.8903H20.4762V8.66885C20.4762 7.50704 19.5488 6.56194 18.4079 6.56194C17.267 6.56194 16.3395 7.50704 16.3395 8.66885V9.36023C16.3395 9.72616 16.6305 10.0228 16.99 10.0228C17.3496 10.0228 17.6405 9.72616 17.6405 9.36023V8.66885C17.6405 8.23785 17.9849 7.88718 18.4079 7.88718C18.831 7.88718 19.1754 8.23785 19.1754 8.66885V10.8903H3.73609C3.22525 10.8903 2.81116 11.3121 2.81116 11.8327C2.81116 12.3533 3.22525 12.7752 3.73609 12.7752H3.86561C4.14445 13.8701 4.93027 15.1292 6.51215 16.0588L6.07117 16.7318C5.87179 17.0362 5.95309 17.4478 6.25158 17.6507C6.36212 17.726 6.48794 17.7619 6.61196 17.7619C6.82211 17.7619 7.02805 17.6584 7.15368 17.4669L7.70386 16.6263C8.91851 17.0941 10.457 17.3944 12.4112 17.3944C14.3678 17.3944 15.9057 17.0951 17.1197 16.6285L17.6685 17.4669C17.7943 17.6584 18.0001 17.7619 18.2104 17.7619C18.3344 17.7619 18.46 17.726 18.5705 17.6507C18.8692 17.4478 18.9505 17.0362 18.7509 16.7318L18.3127 16.0623C19.8971 15.1329 20.6802 13.8714 20.9579 12.7752H21.0862C21.5969 12.7752 22.0112 12.3533 22.0112 11.8327C22.011 11.3121 21.5968 10.8903 21.0861 10.8903Z" fill="black"/>
</svg>
