<svg width="25" height="25" viewBox="0 0 25 25" fill="none" xmlns="http://www.w3.org/2000/svg">
<path d="M19.3389 14.9192C18.9371 14.6179 18.5354 14.417 18.0332 14.1156C17.9327 11.5041 17.2296 8.69171 14.819 7.2855C16.1247 5.37707 14.7185 2.6651 12.4083 2.56466C10.0981 2.46422 8.49103 5.27663 9.79679 7.2855C7.38615 8.59126 6.68305 11.6046 6.58261 14.2161C6.18083 14.417 5.67862 14.7183 5.37729 15.0196C3.66975 16.3254 4.67418 18.9369 6.68305 19.2383H9.09369C10.1986 22.6533 14.7185 22.5529 15.9238 19.2383C16.8278 19.2383 17.9327 19.4391 18.7363 19.1378C20.4438 18.5352 20.946 16.0241 19.3389 14.9192ZM12.4083 20.1423C11.7052 20.1423 11.203 19.7405 10.9017 19.2383H13.915C13.6136 19.7405 13.011 20.1423 12.4083 20.1423ZM12.4083 4.57353C13.7141 4.57353 13.7141 6.5824 12.4083 6.5824C11.1026 6.5824 11.1026 4.57353 12.4083 4.57353ZM18.234 16.9281C18.0332 17.3298 17.0287 17.1289 16.7274 17.1289C15.4216 17.1289 14.1159 17.1289 12.8101 17.1289C10.8012 17.1289 8.79236 17.1289 6.78349 17.1289C6.68305 17.1289 6.58261 17.0285 6.48216 16.9281C6.48216 16.3254 8.1897 15.6223 8.69192 15.321C8.59147 12.9103 8.99325 8.79215 12.2074 8.59126C15.6225 8.39038 16.1247 12.8099 16.1247 15.2205C16.4261 15.5219 18.4349 16.4258 18.234 16.9281Z" fill="black"/>
</svg>
