<svg width="25" height="25" viewBox="0 0 25 25" fill="none" xmlns="http://www.w3.org/2000/svg">
<path d="M12.3615 17.4843C10.1729 17.4843 8.48168 15.6936 8.48168 13.6045C8.48168 11.4159 10.2724 9.72473 12.3615 9.72473C14.5501 9.72473 16.2413 11.5154 16.2413 13.6045C16.2413 15.7931 14.5501 17.4843 12.3615 17.4843ZM12.3615 11.8139C11.3667 11.8139 10.5708 12.6097 10.5708 13.6045C10.5708 14.5993 11.3667 15.3952 12.3615 15.3952C13.3563 15.3952 14.1522 14.5993 14.1522 13.6045C14.1522 12.6097 13.3563 11.8139 12.3615 11.8139ZM20.8174 10.7196C20.2205 10.7196 19.7231 11.217 19.7231 11.8139V18.3797C19.7231 18.8771 19.3252 19.1755 18.9273 19.1755H5.79567C5.29826 19.1755 4.99982 18.7776 4.99982 18.3797V9.82421C4.99982 9.32681 5.39775 9.02836 5.79567 9.02836H7.68583C9.27754 9.02836 10.5708 7.7351 10.5708 6.24287H12.3615C12.9584 6.24287 13.4558 5.74546 13.4558 5.14857C13.4558 4.55168 12.9584 4.05427 12.3615 4.05427H10.4713C9.37702 4.05427 8.48168 4.9496 8.48168 6.0439C8.48168 6.54131 8.08376 6.83976 7.68583 6.83976H5.79567C4.20396 6.83976 2.81122 8.13302 2.81122 9.82421V18.2802C2.81122 19.8719 4.10448 21.2646 5.79567 21.2646H19.0268C20.6185 21.2646 22.0112 19.9714 22.0112 18.2802V11.7144C21.9117 11.1175 21.4143 10.7196 20.8174 10.7196ZM20.8174 5.94442H19.0268V4.15375C19.0268 3.55686 18.5294 3.05945 17.9325 3.05945C17.3356 3.05945 16.8382 3.55686 16.8382 4.15375V5.94442H15.0475C14.4506 5.94442 13.9532 6.44183 13.9532 7.03872C13.9532 7.63561 14.4506 8.13302 15.0475 8.13302H16.8382V9.9237C16.8382 10.5206 17.3356 11.018 17.9325 11.018C18.5294 11.018 19.0268 10.5206 19.0268 9.9237V8.03354H20.8174C21.4143 8.03354 21.9117 7.53613 21.9117 6.93924C21.9117 6.34235 21.4143 5.94442 20.8174 5.94442Z" fill="black"/>
</svg>
