<svg width="25" height="25" viewBox="0 0 25 25" fill="none" xmlns="http://www.w3.org/2000/svg">
<path d="M5.58619 10.3619H5.21119C5.05206 10.3619 4.89945 10.4251 4.78692 10.5377C4.6744 10.6502 4.61119 10.8028 4.61119 10.9619V11.5619C4.61119 11.7211 4.6744 11.8737 4.78692 11.9862C4.89945 12.0987 5.05206 12.1619 5.21119 12.1619H5.80894C5.80372 13.7802 5.60301 15.3918 5.21119 16.9619H10.0112C9.61936 15.3918 9.41866 13.7802 9.41344 12.1619H10.0112C10.1703 12.1619 10.3229 12.0987 10.4355 11.9862C10.548 11.8737 10.6112 11.7211 10.6112 11.5619V10.9619C10.6112 10.8028 10.548 10.6502 10.4355 10.5377C10.3229 10.4251 10.1703 10.3619 10.0112 10.3619H9.63619L10.9071 6.97269C10.9411 6.88185 10.9527 6.78411 10.9407 6.68783C10.9287 6.59156 10.8936 6.49962 10.8383 6.41991C10.783 6.3402 10.7092 6.27509 10.6232 6.23016C10.5372 6.18523 10.4416 6.16182 10.3446 6.16194H8.21119V4.96194H9.11119C9.19075 4.96194 9.26706 4.93033 9.32332 4.87407C9.37958 4.81781 9.41119 4.7415 9.41119 4.66194V4.06194C9.41119 3.98237 9.37958 3.90606 9.32332 3.8498C9.26706 3.79354 9.19075 3.76194 9.11119 3.76194H8.21119V2.86194C8.21119 2.78237 8.17958 2.70606 8.12332 2.6498C8.06706 2.59354 7.99075 2.56194 7.91119 2.56194H7.31119C7.23162 2.56194 7.15532 2.59354 7.09906 2.6498C7.0428 2.70606 7.01119 2.78237 7.01119 2.86194V3.76194H6.11119C6.03162 3.76194 5.95532 3.79354 5.89906 3.8498C5.84279 3.90606 5.81119 3.98237 5.81119 4.06194V4.66194C5.81119 4.7415 5.84279 4.81781 5.89906 4.87407C5.95532 4.93033 6.03162 4.96194 6.11119 4.96194H7.01119V6.16194H4.87706C4.78005 6.16182 4.68445 6.18523 4.59846 6.23016C4.51247 6.27509 4.43867 6.3402 4.38336 6.41991C4.32806 6.49962 4.29291 6.59156 4.28093 6.68783C4.26894 6.78411 4.28049 6.88185 4.31456 6.97269L5.58619 10.3619ZM12.0797 19.7962L11.2112 19.3619V18.7619C11.2112 18.6028 11.148 18.4502 11.0355 18.3377C10.9229 18.2252 10.7703 18.1619 10.6112 18.1619H4.61119C4.45206 18.1619 4.29945 18.2252 4.18692 18.3377C4.0744 18.4502 4.01119 18.6028 4.01119 18.7619V19.3619L3.14306 19.7962C3.04337 19.846 2.95951 19.9226 2.90089 20.0174C2.84227 20.1121 2.81121 20.2214 2.81119 20.3328V21.1619C2.81119 21.3211 2.8744 21.4737 2.98692 21.5862C3.09945 21.6987 3.25206 21.7619 3.41119 21.7619H11.8112C11.9703 21.7619 12.1229 21.6987 12.2355 21.5862C12.348 21.4737 12.4112 21.3211 12.4112 21.1619V20.3328C12.4112 20.2214 12.3802 20.1122 12.3216 20.0174C12.2631 19.9226 12.1793 19.846 12.0797 19.7962ZM15.5586 13.8794L15.4352 16.9619H20.1872L20.0638 13.8791L20.9863 13.0994C21.1196 12.9867 21.2267 12.8462 21.3 12.6877C21.3734 12.5293 21.4114 12.3568 21.4112 12.1822V9.98694C21.4112 9.92726 21.3875 9.87003 21.3453 9.82784C21.3031 9.78564 21.2459 9.76194 21.1862 9.76194H20.1969C20.1373 9.76194 20.08 9.78564 20.0378 9.82784C19.9956 9.87003 19.9719 9.92726 19.9719 9.98694V10.9619H19.0453V9.98694C19.0453 9.92726 19.0216 9.87003 18.9794 9.82784C18.9372 9.78564 18.88 9.76194 18.8203 9.76194H16.8024C16.7428 9.76194 16.6855 9.78564 16.6433 9.82784C16.6011 9.87003 16.5774 9.92726 16.5774 9.98694V10.9619H15.6508V9.98694C15.6508 9.92726 15.6271 9.87003 15.5849 9.82784C15.5427 9.78564 15.4855 9.76194 15.4258 9.76194H14.4362C14.3765 9.76194 14.3193 9.78564 14.2771 9.82784C14.2349 9.87003 14.2112 9.92726 14.2112 9.98694V12.1844C14.2115 12.3587 14.2497 12.5309 14.3233 12.6889C14.3969 12.8469 14.504 12.987 14.6372 13.0994L15.5586 13.8794ZM17.2112 13.9619C17.2112 13.8028 17.2744 13.6502 17.3869 13.5377C17.4994 13.4251 17.6521 13.3619 17.8112 13.3619C17.9703 13.3619 18.1229 13.4251 18.2355 13.5377C18.348 13.6502 18.4112 13.8028 18.4112 13.9619V15.1619H17.2112V13.9619ZM21.6797 19.7962L20.8112 19.3619V18.7619C20.8112 18.6028 20.748 18.4502 20.6355 18.3377C20.5229 18.2252 20.3703 18.1619 20.2112 18.1619H15.4112C15.2521 18.1619 15.0994 18.2252 14.9869 18.3377C14.8744 18.4502 14.8112 18.6028 14.8112 18.7619V19.3619L13.9431 19.7962C13.8434 19.846 13.7595 19.9226 13.7009 20.0174C13.6423 20.1121 13.6112 20.2214 13.6112 20.3328V21.1619C13.6112 21.3211 13.6744 21.4737 13.7869 21.5862C13.8994 21.6987 14.0521 21.7619 14.2112 21.7619H21.4112C21.5703 21.7619 21.7229 21.6987 21.8355 21.5862C21.948 21.4737 22.0112 21.3211 22.0112 21.1619V20.3328C22.0112 20.2214 21.9802 20.1122 21.9216 20.0174C21.8631 19.9226 21.7793 19.846 21.6797 19.7962Z" fill="black"/>
</svg>
