<svg width="25" height="25" viewBox="0 0 25 25" fill="none" xmlns="http://www.w3.org/2000/svg">
<path d="M12.8061 9.0662L21.5941 13.8597C21.982 14.0712 22.1249 14.5572 21.9134 14.9451C21.7018 15.3329 21.2158 15.4759 20.828 15.2643L12.4112 10.6733L3.9944 15.2643C3.60653 15.4759 3.12059 15.3329 2.90902 14.9451C2.69745 14.5572 2.84038 14.0712 3.22825 13.8597L12.0163 9.0662C12.0394 9.05309 12.0632 9.04115 12.0875 9.03044C12.1921 8.98399 12.3023 8.96182 12.4112 8.96191C12.5201 8.96182 12.6302 8.98399 12.7349 9.03044C12.7592 9.04115 12.7829 9.05309 12.8061 9.0662Z" fill="black"/>
</svg>
