<svg width="60" height="60" viewBox="0 0 60 60" fill="none" xmlns="http://www.w3.org/2000/svg">
<g filter="url(#filter0_ii_1995_23339)">
<path d="M11.9691 55.3324V55.5C11.9691 55.7761 12.193 56 12.4691 56H34.3551C34.6313 56 34.8551 55.7761 34.8551 55.5V55.3417C34.8551 55.051 34.6071 54.8222 34.317 54.8394C30.8508 55.0459 28.6059 54.6554 24.6825 53.0507C24.4956 52.9743 24.373 52.7915 24.373 52.5895V44.6744C24.373 44.4105 24.5842 44.1921 24.8472 44.1714C37.8377 43.1445 41.5381 34.3471 34.4578 16.3209C34.3829 16.1303 34.1966 16 33.9917 16H12.8342C12.6285 16 12.4421 16.1298 12.3679 16.3216C5.96791 32.8557 8.4972 43.5988 21.6072 44.1879C21.8782 44.2 22.1019 44.4215 22.1019 44.6927V52.6041C22.1019 52.7986 21.9886 52.976 21.8115 53.0567C18.4939 54.5681 16.3292 55.0015 12.4987 54.8303C12.2118 54.8175 11.9691 55.0452 11.9691 55.3324Z" fill="url(#paint0_linear_1995_23339)"/>
</g>
<g filter="url(#filter1_bii_1995_23339)">
<path d="M20.9691 55.3324V55.5C20.9691 55.7761 21.193 56 21.4691 56H43.3551C43.6313 56 43.8551 55.7761 43.8551 55.5V55.3417C43.8551 55.051 43.6071 54.8222 43.317 54.8394C39.8508 55.0459 37.6059 54.6554 33.6825 53.0507C33.4956 52.9743 33.373 52.7915 33.373 52.5895V44.6744C33.373 44.4105 33.5842 44.1921 33.8472 44.1714C46.8377 43.1445 50.5381 34.3471 43.4578 16.3209C43.3829 16.1303 43.1966 16 42.9917 16H21.8342C21.6285 16 21.4421 16.1298 21.3679 16.3216C14.9679 32.8557 17.4972 43.5988 30.6072 44.1879C30.8782 44.2 31.1019 44.4215 31.1019 44.6927V52.6041C31.1019 52.7986 30.9886 52.976 30.8115 53.0567C27.4939 54.5681 25.3292 55.0015 21.4987 54.8303C21.2118 54.8175 20.9691 55.0452 20.9691 55.3324Z" fill="#FFB47E" fill-opacity="0.5"/>
</g>
<g filter="url(#filter2_ii_1995_23339)">
<path d="M39.6949 11.7225L43.0492 14.1305C43.4387 14.4102 43.2494 15.0247 42.77 15.0365L38.7305 15.1367C38.4475 15.1438 38.2133 14.9141 38.2276 14.6313C38.2815 13.5685 38.4797 12.8424 38.9783 11.8851C39.1152 11.6223 39.4541 11.5496 39.6949 11.7225Z" fill="#EEA958"/>
<path d="M40.3415 10.841L43.8043 14.1356C44.1075 14.4241 44.6097 14.2347 44.647 13.8179L45.0955 8.80011C45.1218 8.50528 44.8869 8.25094 44.5912 8.26491C42.7409 8.35235 41.6712 8.80149 40.3273 10.1425C40.133 10.3363 40.1427 10.6519 40.3415 10.841Z" fill="#EEA958"/>
<path d="M46.3493 8.8876L45.1044 13.837C45.002 14.2442 45.4168 14.5887 45.7983 14.4132L50.5702 12.2177C50.8288 12.0987 50.9369 11.7868 50.7975 11.5386C49.8513 9.85288 48.8968 9.10205 46.9582 8.53307C46.6919 8.45492 46.417 8.61847 46.3493 8.8876Z" fill="#EEA958"/>
<path d="M51.0007 13.349L46.3792 14.77C45.9426 14.9043 45.8998 15.5055 46.313 15.7002L50.7267 17.7804C50.9815 17.9005 51.2867 17.7869 51.3896 17.5247C51.9214 16.1689 51.9953 15.1969 51.6198 13.6912C51.5521 13.4199 51.2679 13.2669 51.0007 13.349Z" fill="#EEA958"/>
<path d="M50.1661 18.777L45.9713 16.1515C45.5807 15.9071 45.0954 16.2762 45.2267 16.7178L46.6231 21.4154C46.7024 21.6821 46.985 21.8341 47.2478 21.7426C48.6399 21.258 49.4263 20.6934 50.3092 19.4728C50.4742 19.2446 50.4049 18.9264 50.1661 18.777Z" fill="#EEA958"/>
<path d="M36.8274 15.1496H36.4999C36.2238 15.1496 35.9986 14.9255 36.0131 14.6498C36.2851 9.46654 40.7689 5.1317 46.9146 6.14919C49.5695 6.59922 53.8469 9.89936 53.9944 14.6996C54.1362 18.8817 51.5516 22.7866 47.6823 23.8817C47.4215 23.9555 47.1487 23.7921 47.1013 23.5252C47.0751 23.3772 47.0664 23.2511 47.0636 23.0389C47.0605 22.8103 47.2179 22.612 47.4367 22.5456C51.2816 21.3783 52.667 17.9026 52.667 14.8496C52.6669 11.6995 50.307 7.79927 45.2922 7.34924C40.5063 6.91974 37.601 11.1356 37.3458 14.6507C37.3258 14.9261 37.1036 15.1496 36.8274 15.1496Z" fill="#EEA958"/>
</g>
<g filter="url(#filter3_f_1995_23339)">
<path d="M41.3 23.4024C42.236 25.5677 41.9441 28.376 41.5553 28.5391C41.1665 28.7021 40.736 26.5677 39.8 24.4024C38.8641 22.2371 37.7771 20.8608 38.1659 20.6977C38.5547 20.5346 40.3641 21.2371 41.3 23.4024Z" fill="white"/>
</g>
<defs>
<filter id="filter0_ii_1995_23339" x="8.5" y="15.5" width="30" height="41" filterUnits="userSpaceOnUse" color-interpolation-filters="sRGB">
<feFlood flood-opacity="0" result="BackgroundImageFix"/>
<feBlend mode="normal" in="SourceGraphic" in2="BackgroundImageFix" result="shape"/>
<feColorMatrix in="SourceAlpha" type="matrix" values="0 0 0 0 0 0 0 0 0 0 0 0 0 0 0 0 0 0 127 0" result="hardAlpha"/>
<feOffset dx="0.5" dy="-0.5"/>
<feGaussianBlur stdDeviation="0.6"/>
<feComposite in2="hardAlpha" operator="arithmetic" k2="-1" k3="1"/>
<feColorMatrix type="matrix" values="0 0 0 0 0 0 0 0 0 0 0 0 0 0 0 0 0 0 0.4 0"/>
<feBlend mode="normal" in2="shape" result="effect1_innerShadow_1995_23339"/>
<feColorMatrix in="SourceAlpha" type="matrix" values="0 0 0 0 0 0 0 0 0 0 0 0 0 0 0 0 0 0 127 0" result="hardAlpha"/>
<feOffset dx="-0.5" dy="0.5"/>
<feGaussianBlur stdDeviation="0.6"/>
<feComposite in2="hardAlpha" operator="arithmetic" k2="-1" k3="1"/>
<feColorMatrix type="matrix" values="0 0 0 0 1 0 0 0 0 1 0 0 0 0 1 0 0 0 0.6 0"/>
<feBlend mode="normal" in2="effect1_innerShadow_1995_23339" result="effect2_innerShadow_1995_23339"/>
</filter>
<filter id="filter1_bii_1995_23339" x="14" y="9.46041" width="37" height="53.0792" filterUnits="userSpaceOnUse" color-interpolation-filters="sRGB">
<feFlood flood-opacity="0" result="BackgroundImageFix"/>
<feGaussianBlur in="BackgroundImageFix" stdDeviation="2"/>
<feComposite in2="SourceAlpha" operator="in" result="effect1_backgroundBlur_1995_23339"/>
<feBlend mode="normal" in="SourceGraphic" in2="effect1_backgroundBlur_1995_23339" result="shape"/>
<feColorMatrix in="SourceAlpha" type="matrix" values="0 0 0 0 0 0 0 0 0 0 0 0 0 0 0 0 0 0 127 0" result="hardAlpha"/>
<feOffset dy="6.53959"/>
<feGaussianBlur stdDeviation="6.53959"/>
<feComposite in2="hardAlpha" operator="arithmetic" k2="-1" k3="1"/>
<feColorMatrix type="matrix" values="0 0 0 0 1 0 0 0 0 1 0 0 0 0 1 0 0 0 0.32 0"/>
<feBlend mode="normal" in2="shape" result="effect2_innerShadow_1995_23339"/>
<feColorMatrix in="SourceAlpha" type="matrix" values="0 0 0 0 0 0 0 0 0 0 0 0 0 0 0 0 0 0 127 0" result="hardAlpha"/>
<feOffset dy="-6.53959"/>
<feGaussianBlur stdDeviation="6.53959"/>
<feComposite in2="hardAlpha" operator="arithmetic" k2="-1" k3="1"/>
<feColorMatrix type="matrix" values="0 0 0 0 0 0 0 0 0 0 0 0 0 0 0 0 0 0 0.24 0"/>
<feBlend mode="normal" in2="effect2_innerShadow_1995_23339" result="effect3_innerShadow_1995_23339"/>
</filter>
<filter id="filter2_ii_1995_23339" x="35.5125" y="5.5" width="18.9875" height="18.8995" filterUnits="userSpaceOnUse" color-interpolation-filters="sRGB">
<feFlood flood-opacity="0" result="BackgroundImageFix"/>
<feBlend mode="normal" in="SourceGraphic" in2="BackgroundImageFix" result="shape"/>
<feColorMatrix in="SourceAlpha" type="matrix" values="0 0 0 0 0 0 0 0 0 0 0 0 0 0 0 0 0 0 127 0" result="hardAlpha"/>
<feOffset dx="0.5" dy="-0.5"/>
<feGaussianBlur stdDeviation="0.6"/>
<feComposite in2="hardAlpha" operator="arithmetic" k2="-1" k3="1"/>
<feColorMatrix type="matrix" values="0 0 0 0 0 0 0 0 0 0 0 0 0 0 0 0 0 0 0.4 0"/>
<feBlend mode="normal" in2="shape" result="effect1_innerShadow_1995_23339"/>
<feColorMatrix in="SourceAlpha" type="matrix" values="0 0 0 0 0 0 0 0 0 0 0 0 0 0 0 0 0 0 127 0" result="hardAlpha"/>
<feOffset dx="-0.5" dy="0.5"/>
<feGaussianBlur stdDeviation="0.6"/>
<feComposite in2="hardAlpha" operator="arithmetic" k2="-1" k3="1"/>
<feColorMatrix type="matrix" values="0 0 0 0 1 0 0 0 0 1 0 0 0 0 1 0 0 0 0.6 0"/>
<feBlend mode="normal" in2="effect1_innerShadow_1995_23339" result="effect2_innerShadow_1995_23339"/>
</filter>
<filter id="filter3_f_1995_23339" x="36.0848" y="18.6751" width="7.83972" height="11.8727" filterUnits="userSpaceOnUse" color-interpolation-filters="sRGB">
<feFlood flood-opacity="0" result="BackgroundImageFix"/>
<feBlend mode="normal" in="SourceGraphic" in2="BackgroundImageFix" result="shape"/>
<feGaussianBlur stdDeviation="1" result="effect1_foregroundBlur_1995_23339"/>
</filter>
<linearGradient id="paint0_linear_1995_23339" x1="9" y1="16" x2="47.0172" y2="43.5625" gradientUnits="userSpaceOnUse">
<stop stop-color="#E32900"/>
<stop offset="0.494792" stop-color="#C6E216"/>
<stop offset="1" stop-color="#D808FA"/>
</linearGradient>
</defs>
</svg>
