<svg width="25" height="25" viewBox="0 0 25 25" fill="none" xmlns="http://www.w3.org/2000/svg">
<g clip-path="url(#clip0_1114_56950)">
<path d="M19.2807 12.1266C19.2833 12.5415 19.1217 12.9406 18.8315 13.2366C18.5352 13.5274 18.1381 13.6922 17.7233 13.6966C17.4147 13.6969 17.1127 13.6065 16.8548 13.4366C16.5972 13.2611 16.396 13.0144 16.2758 12.7266C16.1566 12.4423 16.1253 12.1288 16.1859 11.8266C16.2439 11.5207 16.3919 11.2393 16.6109 11.0184C16.8298 10.7975 17.1098 10.6473 17.4147 10.5871C17.7195 10.5269 18.0354 10.5594 18.3217 10.6805C18.608 10.8016 18.8516 11.0057 19.0211 11.2666C19.1905 11.5213 19.2808 11.8205 19.2807 12.1266ZM13.8099 11.2666C13.6407 11.0081 13.3982 10.8062 13.1136 10.6868C12.829 10.5674 12.5152 10.536 12.2126 10.5966C11.9085 10.6538 11.6295 10.804 11.414 11.0266C11.1953 11.245 11.046 11.5233 10.9847 11.8266C10.9241 12.1288 10.9554 12.4423 11.0746 12.7266C11.1945 13.0117 11.3916 13.2576 11.6436 13.4366C11.8799 13.5941 12.1545 13.6845 12.438 13.6979C12.7216 13.7113 13.0034 13.6474 13.2535 13.5129C13.5036 13.3784 13.7126 13.1784 13.858 12.9342C14.0035 12.6901 14.08 12.4109 14.0795 12.1266C14.0744 11.8291 13.9805 11.5401 13.8099 11.2966V11.2666ZM8.63869 11.2666C8.46633 11.0101 8.22224 10.8104 7.93702 10.6924C7.6518 10.5743 7.33814 10.5433 7.03537 10.6031C6.73259 10.6629 6.45418 10.8109 6.23504 11.0285C6.0159 11.2462 5.86577 11.5238 5.80349 11.8266C5.74283 12.1288 5.77413 12.4423 5.89334 12.7266C6.01357 13.0144 6.21474 13.2611 6.47236 13.4366C6.7753 13.6443 7.14179 13.7382 7.50711 13.7016C7.87243 13.665 8.2131 13.5003 8.46898 13.2366C8.61094 13.0897 8.72207 12.9157 8.7958 12.7251C8.86953 12.5344 8.90437 12.3309 8.89825 12.1266C8.89259 11.8307 8.80252 11.5427 8.63869 11.2966V11.2666ZM12.5121 1.72656H11.7734C9.28022 1.94148 6.93975 3.01999 5.15459 4.77656C3.39836 6.54961 2.33564 8.89509 2.15965 11.3866C1.94948 13.8936 2.67909 16.3892 4.20619 18.3866C5.71927 20.389 7.90284 21.7773 10.3558 22.2966H10.4057C11.0914 22.4669 11.7957 22.5509 12.5022 22.5466C14.2831 22.5468 16.0361 22.1035 17.6035 21.2566L18.1326 20.9566L18.7316 21.0966L22.2856 21.9066L21.3971 18.2566L21.2573 17.6466L21.5568 17.0966C22.7922 14.927 23.1959 12.3808 22.6924 9.93458C22.189 7.48836 20.8128 5.30976 18.8215 3.80656C16.9994 2.4458 14.7849 1.71572 12.5121 1.72656ZM12.5121 0.126557C15.1294 0.112113 17.6804 0.950996 19.7798 2.51656C22.0765 4.25256 23.6656 6.76509 24.2514 9.5868C24.8371 12.4085 24.3798 15.3473 22.9645 17.8566L24.4919 24.0266L18.4221 22.6366C16.6077 23.6208 14.5756 24.1331 12.5121 24.1266C11.6743 24.1314 10.8391 24.0307 10.0263 23.8266C7.20951 23.2324 4.70045 21.642 2.9583 19.3466C1.18126 17.0496 0.316981 14.1745 0.532404 11.2766C0.752714 8.38473 1.99927 5.66746 4.04646 3.61656C6.11335 1.59283 8.82248 0.358038 11.7035 0.126557H12.5121Z" fill="black"/>
</g>
<defs>
<clipPath id="clip0_1114_56950">
<rect width="24" height="24" fill="white" transform="translate(0.5 0.126526)"/>
</clipPath>
</defs>
</svg>
