<svg width="25" height="25" viewBox="0 0 25 25" fill="none" xmlns="http://www.w3.org/2000/svg">
<g clip-path="url(#clip0_1114_56953)">
<path d="M24.2441 9.58657C23.6487 6.7686 22.0614 4.25918 19.772 2.51657C17.6754 0.953068 15.1285 0.114295 12.5148 0.126567H11.7162C8.83192 0.355767 6.1191 1.59072 4.04979 3.61657C2.00276 5.66747 0.7563 8.38474 0.536007 11.2766C0.309277 14.1694 1.1591 17.044 2.92179 19.3466C4.67123 21.6481 7.19172 23.239 10.0192 23.8266C10.8352 24.0315 11.6737 24.1323 12.5148 24.1266C14.5646 24.1264 16.582 23.6143 18.3844 22.6366L24.4936 24.0266L23.0063 17.8566C24.3954 15.3377 24.8347 12.4027 24.2441 9.58657ZM8.44203 13.2666C8.18617 13.5303 7.84552 13.695 7.48023 13.7316C7.11493 13.7682 6.74848 13.6743 6.44556 13.4666C6.18796 13.2911 5.98681 13.0444 5.86658 12.7566C5.74738 12.4723 5.71608 12.1588 5.77674 11.8566C5.83472 11.5507 5.9827 11.2693 6.20165 11.0484C6.4206 10.8275 6.70051 10.6773 7.00538 10.6171C7.31024 10.5569 7.62612 10.5894 7.91238 10.7105C8.19864 10.8316 8.4422 11.0357 8.61173 11.2966C8.7811 11.5513 8.8714 11.8505 8.87127 12.1566C8.87738 12.3609 8.84255 12.5645 8.76882 12.7551C8.6951 12.9458 8.58398 13.1197 8.44203 13.2666ZM13.6229 13.2666C13.365 13.5268 13.0247 13.6891 12.6605 13.7256C12.2962 13.7621 11.9306 13.6705 11.6264 13.4666C11.3744 13.2877 11.1773 13.0417 11.0574 12.7566C10.9382 12.4723 10.9069 12.1588 10.9676 11.8566C11.0288 11.5534 11.1782 11.275 11.3968 11.0566C11.6122 10.834 11.8912 10.6838 12.1954 10.6266C12.498 10.566 12.8117 10.5974 13.0963 10.7168C13.3809 10.8362 13.6234 11.0381 13.7926 11.2966C13.9689 11.5485 14.063 11.8489 14.0621 12.1566C14.0673 12.5701 13.9095 12.969 13.6229 13.2666ZM18.8336 13.2666C18.5374 13.5574 18.1404 13.7222 17.7256 13.7266C17.417 13.7269 17.115 13.6365 16.8571 13.4666C16.5995 13.2911 16.3984 13.0444 16.2782 12.7566C16.159 12.4723 16.1277 12.1588 16.1883 11.8566C16.2463 11.5507 16.3943 11.2693 16.6132 11.0484C16.8322 10.8275 17.1121 10.6773 17.417 10.6171C17.7218 10.5569 18.0377 10.5894 18.324 10.7105C18.6102 10.8316 18.8538 11.0357 19.0233 11.2966C19.2282 11.6002 19.3213 11.9658 19.2866 12.3307C19.252 12.6955 19.0919 13.037 18.8336 13.2966V13.2666Z" fill="black"/>
</g>
<defs>
<clipPath id="clip0_1114_56953">
<rect width="24" height="24" fill="white" transform="translate(0.5 0.126556)"/>
</clipPath>
</defs>
</svg>
