<svg width="25" height="25" viewBox="0 0 25 25" fill="none" xmlns="http://www.w3.org/2000/svg">
<path d="M12.4613 4.80011L19.7995 12.0623L12.4613 19.3245L5.12305 12.0623L12.4613 4.80011ZM12.4613 2.51202C12.0592 2.51202 11.6571 2.71099 11.3555 3.00943L3.31362 10.968C2.71048 11.5649 2.71048 12.5597 3.31362 13.2561L11.3555 21.2146C11.6571 21.5131 12.0592 21.712 12.4613 21.712C12.8634 21.712 13.2655 21.5131 13.567 21.2146L21.6089 13.2561C22.2121 12.6592 22.2121 11.5649 21.6089 10.968L13.567 3.00943C13.2655 2.71099 12.8634 2.51202 12.4613 2.51202ZM13.2655 12.8581C13.7681 12.3607 13.7681 11.6644 13.2655 11.1669C12.7628 10.6695 12.0592 10.6695 11.5566 11.1669C11.0539 11.6644 11.0539 12.3607 11.5566 12.8581C12.0592 13.3555 12.8634 13.3555 13.2655 12.8581ZM13.2655 8.97834C13.7681 8.48094 13.7681 7.78456 13.2655 7.28715C12.7628 6.78974 12.0592 6.78974 11.5566 7.28715C11.0539 7.78456 11.0539 8.48094 11.5566 8.97834C12.0592 9.37627 12.8634 9.37627 13.2655 8.97834ZM17.2864 12.8581C17.789 12.3607 17.789 11.6644 17.2864 11.1669C16.7838 10.6695 16.0801 10.6695 15.5775 11.1669C15.0749 11.6644 15.0749 12.3607 15.5775 12.8581C16.0801 13.3555 16.8843 13.3555 17.2864 12.8581ZM9.34504 12.8581C9.84765 12.3607 9.84765 11.6644 9.34504 11.1669C8.84242 10.6695 8.13875 10.6695 7.63614 11.1669C7.13352 11.6644 7.13352 12.3607 7.63614 12.8581C8.03823 13.3555 8.84242 13.3555 9.34504 12.8581ZM13.2655 16.8374C13.7681 16.34 13.7681 15.6436 13.2655 15.1462C12.7628 14.6488 12.0592 14.6488 11.5566 15.1462C11.0539 15.6436 11.0539 16.34 11.5566 16.8374C12.0592 17.3348 12.8634 17.3348 13.2655 16.8374Z" fill="black"/>
</svg>
