<svg width="25" height="25" viewBox="0 0 25 25" fill="none" xmlns="http://www.w3.org/2000/svg">
<g clip-path="url(#clip0_1114_56955)">
<path d="M22.5247 5.46655C22.4912 5.38321 22.4399 5.30815 22.3744 5.24655L17.362 0.386545C17.3044 0.327848 17.2364 0.280369 17.1615 0.246545C17.0458 0.176999 16.9152 0.135869 16.7805 0.126545H9.76319C9.39983 0.121254 9.03899 0.187416 8.70127 0.321252C8.36355 0.455088 8.05556 0.653977 7.79491 0.90656C7.53425 1.15914 7.32603 1.46047 7.18213 1.79334C7.03823 2.1262 6.96148 2.48409 6.95625 2.84655V5.46655H5.21194C4.48678 5.4504 3.78466 5.72102 3.25879 6.21936C2.73292 6.71771 2.426 7.4033 2.405 8.12654V21.4565C2.42339 22.1815 2.72918 22.8697 3.25533 23.3702C3.78149 23.8707 4.48509 24.1427 5.21194 24.1265H15.2367C15.9636 24.1427 16.6672 23.8707 17.1933 23.3702C17.7195 22.8697 18.0253 22.1815 18.0437 21.4565V19.1865H19.788C20.521 19.1946 21.2275 18.9131 21.7534 18.4036C22.2792 17.894 22.5817 17.1977 22.5949 16.4665V5.76655C22.5968 5.66229 22.5726 5.55921 22.5247 5.46655ZM17.5825 2.77655L19.8581 4.98655H17.783C17.7315 4.98661 17.682 4.96692 17.6447 4.93155C17.6073 4.89617 17.5851 4.84784 17.5825 4.79655V2.77655ZM20.9909 16.4665C20.9857 16.7804 20.8563 17.0795 20.631 17.2986C20.4056 17.5178 20.1026 17.6392 19.788 17.6365H9.76319C9.607 17.6392 9.45184 17.611 9.30666 17.5535C9.16147 17.496 9.02914 17.4104 8.9173 17.3016C8.80545 17.1928 8.71632 17.063 8.65503 16.9197C8.59374 16.7764 8.56151 16.6224 8.56021 16.4665V2.84655C8.56151 2.69073 8.59374 2.53672 8.65503 2.39339C8.71632 2.25007 8.80545 2.12027 8.9173 2.01149C9.02914 1.90272 9.16147 1.81711 9.30666 1.75962C9.45184 1.70214 9.607 1.6739 9.76319 1.67655H15.9785V4.79655C15.9865 5.2669 16.1807 5.71499 16.5188 6.04291C16.857 6.37083 17.3115 6.5519 17.783 6.54655H20.9909V16.4665Z" fill="black"/>
</g>
<defs>
<clipPath id="clip0_1114_56955">
<rect width="24" height="24" fill="white" transform="translate(0.5 0.126556)"/>
</clipPath>
</defs>
</svg>
