<svg width="25" height="25" viewBox="0 0 25 25" fill="none" xmlns="http://www.w3.org/2000/svg">
<g clip-path="url(#clip0_1114_56948)">
<path d="M23.0495 5.47959C23.0124 5.398 22.9615 5.3234 22.8991 5.25905L17.8868 0.387067C17.8274 0.325889 17.7556 0.278049 17.6763 0.246722C17.581 0.206759 17.4788 0.186306 17.3755 0.186574H10.3583C9.99491 0.18127 9.63407 0.247595 9.29636 0.381761C8.95864 0.515927 8.65066 0.715307 8.39001 0.968512C8.12935 1.22172 7.92113 1.52379 7.77724 1.85748C7.63334 2.19116 7.55659 2.54993 7.55136 2.91328V5.47959H5.7369C5.01175 5.46341 4.30963 5.7347 3.78377 6.23427C3.25791 6.73384 2.95099 7.42113 2.92999 8.14615V21.509C2.94839 22.2358 3.25417 22.9257 3.78031 23.4274C4.30646 23.9291 5.01006 24.2018 5.7369 24.1856H15.7616C16.4884 24.2018 17.192 23.9291 17.7181 23.4274C18.2443 22.9257 18.5501 22.2358 18.5685 21.509V19.2334H20.3127C21.0458 19.2415 21.7523 18.9593 22.2781 18.4485C22.804 17.9377 23.1065 17.2397 23.1196 16.5067V5.78033C23.1155 5.67655 23.0917 5.57451 23.0495 5.47959ZM18.1073 2.79298L20.3729 4.99841H18.3078C18.282 4.99977 18.2561 4.99585 18.2318 4.98689C18.2076 4.97793 18.1854 4.96412 18.1666 4.94629C18.1478 4.92847 18.1329 4.90701 18.1227 4.88322C18.1125 4.85943 18.1073 4.83382 18.1073 4.80794V2.79298ZM16.9645 21.509C16.9619 21.6639 16.9287 21.8168 16.8667 21.9587C16.8047 22.1007 16.7152 22.229 16.6033 22.3362C16.4915 22.4434 16.3595 22.5273 16.215 22.5832C16.0705 22.6391 15.9164 22.6658 15.7616 22.6619H5.7369C5.58203 22.6658 5.42791 22.6391 5.28343 22.5832C5.13895 22.5273 5.00698 22.4434 4.89513 22.3362C4.78329 22.229 4.69378 22.1007 4.63179 21.9587C4.56979 21.8168 4.53653 21.6639 4.53394 21.509V8.14615C4.53784 7.99211 4.57205 7.84035 4.63463 7.69953C4.6972 7.55872 4.78691 7.43162 4.89862 7.32549C5.01034 7.21936 5.14187 7.13628 5.28571 7.08101C5.42954 7.02573 5.58286 6.99934 5.7369 7.00334H7.48119V16.4967C7.48641 16.86 7.56317 17.2188 7.70707 17.5525C7.85096 17.8862 8.05918 18.1883 8.31984 18.4415C8.58049 18.6947 8.88847 18.894 9.22618 19.0282C9.5639 19.1624 9.92474 19.2287 10.2881 19.2234H16.9645V21.509ZM21.5157 16.4967C21.5104 16.8113 21.381 17.1111 21.1557 17.3308C20.9304 17.5505 20.6274 17.6723 20.3127 17.6696H10.2881C10.1319 17.6722 9.97675 17.6439 9.83157 17.5863C9.68638 17.5287 9.55405 17.4428 9.44221 17.3338C9.33037 17.2248 9.24123 17.0946 9.17994 16.951C9.11866 16.8073 9.08643 16.6529 9.08513 16.4967V2.85313C9.08774 2.69778 9.12093 2.54447 9.1828 2.40195C9.24467 2.25943 9.33402 2.1305 9.44573 2.02251C9.55744 1.91453 9.68932 1.8296 9.83386 1.7726C9.97839 1.71559 10.1327 1.68762 10.2881 1.69027H16.5034V4.80794C16.5113 5.27945 16.7055 5.72865 17.0437 6.05738C17.3818 6.38611 17.8363 6.56762 18.3078 6.56226H21.5157V16.4967Z" fill="black"/>
</g>
<defs>
<clipPath id="clip0_1114_56948">
<rect width="24" height="24" fill="white" transform="translate(0.5 0.126526)"/>
</clipPath>
</defs>
</svg>
