<svg width="25" height="25" viewBox="0 0 25 25" fill="none" xmlns="http://www.w3.org/2000/svg">
<path d="M21.153 2.58609C20.3532 2.38615 19.9533 3.48582 19.4535 3.98567C18.6537 4.78543 17.754 5.48522 16.7543 5.8851C14.1551 6.8848 12.3556 4.18561 10.2562 3.18591C7.95693 2.18621 5.65762 2.98597 4.0581 4.68546C3.45828 5.38525 2.85846 6.08504 2.95843 7.08474C3.45828 9.68396 4.0581 12.1832 4.65792 14.7824C4.95783 16.182 5.35771 17.6816 5.65762 19.1811C5.75759 19.7809 5.85756 20.5807 6.0575 21.0805C6.55735 22.2802 8.15687 21.7803 8.0569 20.4807C7.95693 19.9809 7.85696 19.381 7.65702 18.7812C7.35711 17.3816 7.0572 15.9821 6.75729 14.5825C8.0569 12.883 9.85636 11.9833 11.9557 12.6831C13.9551 13.2829 15.9545 13.7827 17.854 12.5831C19.3535 11.6834 20.2532 10.0838 20.8531 8.48432C21.2529 7.58459 22.7525 2.98597 21.153 2.58609ZM15.8546 11.2835C14.355 11.5834 12.8555 10.6837 11.3559 10.4837C9.45648 10.1838 7.65702 10.8836 6.25744 12.1832L5.0578 6.78483C5.65762 5.8851 6.65732 4.98537 7.85696 4.78543C9.15657 4.58549 10.3562 5.58519 11.3559 6.38495C12.4556 7.18471 13.5552 7.98447 14.9548 8.18441C16.5543 8.38435 18.0539 7.78453 19.2535 6.8848C18.6537 9.28408 17.3541 10.9836 15.8546 11.2835Z" fill="black"/>
</svg>
