<svg width="20" height="20" viewBox="0 0 20 20" fill="none" xmlns="http://www.w3.org/2000/svg">
<rect width="20" height="20" rx="10" fill="#965101"/>
<path d="M13.8571 4C14.1868 4 14.4585 4.25736 14.4957 4.58892L14.5 4.66667V15.3333C14.5 15.7015 14.2122 16 13.8571 16C13.5275 16 13.2557 15.7426 13.2186 15.4111L13.2143 15.3333V12H12.5714C12.2417 12 11.97 11.7426 11.9329 11.4111L11.9286 11.3333V7.33333C11.9286 5.86057 12.8929 4 13.8571 4ZM10 4C10.3297 4 10.6014 4.25736 10.6385 4.58892L10.6429 4.66667V8C10.6429 9.24238 9.8236 10.2863 8.71477 10.5825L8.71429 15.3333C8.71429 15.7015 8.42647 16 8.07143 16C7.74175 16 7.47003 15.7426 7.4329 15.4111L7.42857 15.3333L7.42873 10.5827C6.36065 10.2977 5.56111 9.31893 5.50335 8.13722L5.5 8V4.66667C5.5 4.29848 5.78782 4 6.14286 4C6.47254 4 6.74425 4.25736 6.78139 4.58892L6.78571 4.66667V8C6.78571 8.4935 7.04425 8.92438 7.42852 9.15493L7.42857 4.66667C7.42857 4.29848 7.71639 4 8.07143 4C8.40111 4 8.67283 4.25736 8.70996 4.58892L8.71429 4.66667L8.71498 9.15454C9.06937 8.94164 9.31667 8.5583 9.35262 8.11265L9.35714 8V4.66667C9.35714 4.29848 9.64496 4 10 4Z" fill="white"/>
</svg>
