<svg width="25" height="25" viewBox="0 0 25 25" fill="none" xmlns="http://www.w3.org/2000/svg">
<path d="M20.2518 5.31031C18.3326 3.39106 14.9739 3.23113 12.5749 4.8305C10.2558 2.67135 6.65717 2.75131 4.41805 4.99044C3.29849 6.11 2.73871 7.6294 2.81867 9.30875C2.89864 10.9081 3.61836 12.5075 4.65795 13.5471L5.13777 14.0269C5.0578 14.5867 5.2977 15.0665 5.69755 15.4663C6.01742 15.8662 6.41726 16.0261 6.81711 16.0261C6.81711 16.426 7.05701 16.8258 7.37689 17.1457C7.69676 17.4656 8.09661 17.6255 8.49645 17.7055C8.49645 18.1053 8.73636 18.5051 9.05623 18.825C9.37611 19.1449 9.77595 19.3048 10.1758 19.3848C10.1758 19.7846 10.4157 20.1845 10.7356 20.5044C11.1354 20.9042 11.5353 21.0641 12.0151 21.0641C12.4949 21.0641 12.8947 20.9042 13.2946 20.5044L14.4941 19.3048C14.734 19.0649 14.8939 18.745 14.9739 18.5051C15.5337 18.5851 16.0935 18.4252 16.4933 18.0253C16.8132 17.7055 16.9731 17.3056 17.0531 16.9058C17.4529 16.9058 17.8528 16.6659 18.1727 16.346C18.4925 16.0261 18.6525 15.6263 18.7324 15.2264C19.1323 15.2264 19.5321 14.9865 19.852 14.6666C20.1719 14.3468 20.3318 13.9469 20.4118 13.4671C21.4514 12.3476 22.0112 10.9081 22.0112 9.38871C22.0112 7.86931 21.3714 6.42987 20.2518 5.31031ZM7.37689 14.6666C7.29692 14.7466 7.13698 14.8266 6.97705 14.8266C6.81711 14.8266 6.65717 14.7466 6.5772 14.6666C6.3373 14.4267 6.3373 14.1069 6.5772 13.867L7.77673 12.6674C7.8567 12.5875 8.01664 12.5075 8.17658 12.5075C8.33651 12.5075 8.49645 12.5875 8.57642 12.6674C8.81633 12.9073 8.81633 13.2272 8.57642 13.4671L7.37689 14.6666ZM9.05623 16.346C8.97626 16.426 8.81633 16.5059 8.65639 16.5059C8.49645 16.5059 8.33651 16.426 8.25654 16.346C8.01664 16.1061 8.01664 15.7862 8.25654 15.5463L9.45607 14.3468C9.53604 14.2668 9.69598 14.1868 9.85592 14.1868C10.0159 14.1868 10.1758 14.2668 10.2558 14.3468C10.3357 14.4267 10.4157 14.5867 10.4157 14.7466C10.4157 14.9066 10.3357 14.9865 10.2558 15.1465L9.05623 16.346ZM10.7356 18.0253C10.6556 18.1053 10.4957 18.1853 10.3357 18.1853C10.1758 18.1853 10.0159 18.1053 9.93589 18.0253C9.69598 17.7854 9.69598 17.4656 9.93589 17.2256L11.1354 16.0261C11.2154 15.9461 11.3753 15.8662 11.5353 15.8662C11.6952 15.8662 11.8551 15.9461 11.9351 16.0261C12.175 16.266 12.175 16.5859 11.9351 16.8258L10.7356 18.0253ZM13.6144 18.5051L12.4149 19.7047C12.175 19.9446 11.8551 19.8646 11.6152 19.7047C11.3753 19.4648 11.3753 19.1449 11.6152 18.905L12.8148 17.7055C12.8947 17.6255 13.0547 17.5455 13.2146 17.5455C13.3745 17.5455 13.5345 17.6255 13.6144 17.7055C13.7744 17.9454 13.7744 18.3452 13.6144 18.5051ZM18.9723 13.787C18.8924 13.867 18.7324 13.9469 18.5725 13.9469C18.4126 13.9469 18.2526 13.867 18.1727 13.787L18.0927 13.707L14.654 10.2684C14.4141 10.0285 14.0143 10.0285 13.7744 10.2684C13.5345 10.5083 13.5345 10.9081 13.7744 11.148L17.293 14.6666C17.5329 14.9066 17.4529 15.2264 17.293 15.4663C17.0531 15.7062 16.7332 15.7062 16.4933 15.4663L12.9747 11.9477C12.7348 11.7078 12.3349 11.7078 12.095 11.9477C11.8551 12.1876 11.8551 12.5875 12.095 12.8274L15.5337 16.266L15.6137 16.346C15.6936 16.426 15.7736 16.5859 15.7736 16.7458C15.7736 16.9058 15.6936 17.0657 15.6137 17.1457C15.3738 17.3856 15.0539 17.3856 14.814 17.1457C14.734 17.0657 14.734 17.0657 14.654 17.0657C14.5741 16.9857 14.5741 16.9058 14.4941 16.8258C14.1742 16.5059 13.7744 16.346 13.3745 16.266C13.3745 15.8662 13.1346 15.4663 12.8148 15.1465C12.4949 14.8266 12.095 14.6666 11.6952 14.5867C11.6952 14.1868 11.4553 13.787 11.1354 13.4671C10.8155 13.1472 10.4157 12.9873 9.93589 12.9073C9.93589 12.5075 9.69598 12.1076 9.37611 11.7878C9.05623 11.4679 8.57642 11.228 8.09661 11.228C7.61679 11.228 7.13698 11.3879 6.81711 11.7878L5.69755 12.9073L5.53761 12.7474C4.65795 11.8677 4.09817 10.5882 4.0182 9.30875C4.0182 7.94928 4.49802 6.74975 5.2977 5.87009C7.05701 4.19075 9.77595 4.11078 11.6152 5.71016L7.8567 9.46868L8.33651 9.94849C8.89629 10.5083 9.69598 10.8282 10.4957 10.8282C11.2954 10.8282 12.095 10.5083 12.7348 9.86853L14.3342 8.26915L19.0523 12.9873C19.2123 13.2272 19.1323 13.5471 18.9723 13.787ZM19.852 12.1076L14.654 6.90969C14.5741 6.82972 14.5741 6.82972 14.4941 6.82972C14.2542 6.66978 13.9343 6.66978 13.6944 6.90969L11.7752 8.98887C11.4553 9.38871 10.9755 9.54865 10.4957 9.54865C10.2558 9.54865 10.0159 9.46868 9.77595 9.38871L12.6548 6.50984C14.5741 4.59059 17.6928 4.51063 19.4522 6.18997C20.3318 7.06962 20.8116 8.18918 20.8116 9.46868C20.7317 10.4283 20.4118 11.3879 19.852 12.1076Z" fill="black"/>
</svg>
