<svg width="25" height="25" viewBox="0 0 25 25" fill="none" xmlns="http://www.w3.org/2000/svg">
<path d="M12.4684 19.8421L11.8656 19.4581C9.85624 18.1141 7.74643 16.6741 5.7371 15.1381C4.12963 13.8901 3.22542 12.5461 2.92402 11.1061C2.42169 8.61006 3.62729 6.11406 5.93803 4.96206L6.04561 4.92075C6.84934 4.53675 7.5455 4.48206 8.24877 4.48206C9.75577 4.48206 11.2628 5.15406 12.3679 6.11406C14.3772 4.38606 17.1903 3.90606 19.5011 5.34606C20.8071 6.11406 21.6109 7.36206 21.9123 8.70606C22.2137 10.2421 21.8118 11.8741 20.9076 13.2181C19.6015 15.1381 13.674 19.0741 13.0712 19.4581L12.4684 19.8421ZM6.84223 6.78606C5.4357 7.55406 4.63196 9.09005 5.03383 10.6261C5.33523 11.6821 5.93803 12.5461 7.14363 13.6021C8.85157 14.9461 10.66 16.1941 12.4684 17.4421C14.8796 15.8101 18.3959 13.2181 19.1997 12.1621C19.8025 11.2021 20.1039 10.1461 19.9029 9.18606C19.702 8.32206 19.1997 7.65006 18.3959 7.07406C17.7931 6.78606 17.1903 6.59406 16.688 6.59406C15.4824 6.59406 14.1763 7.26606 13.1716 8.32206L12.3679 9.28206L11.5642 8.22606C10.7604 7.17006 9.45437 6.49806 8.24877 6.49806C7.8469 6.49806 7.44503 6.59406 6.84223 6.78606Z" fill="black"/>
</svg>
