<svg width="25" height="24" viewBox="0 0 25 24" fill="none" xmlns="http://www.w3.org/2000/svg">
<path d="M22.6704 9.99964L14.2804 0.659642C13.8236 0.23582 13.2235 0.000305176 12.6004 0.000305176C11.9773 0.000305176 11.3772 0.23582 10.9204 0.659642L2.53041 9.99964C2.29595 10.2109 2.11015 10.4705 1.98583 10.7605C1.86152 11.0506 1.80167 11.3642 1.81041 11.6796V22.3996C1.81041 22.824 1.97898 23.231 2.27904 23.531C2.57909 23.8311 2.98606 23.9996 3.41041 23.9996H8.28041C8.70475 23.9996 9.11172 23.8311 9.41178 23.531C9.71184 23.231 9.88041 22.824 9.88041 22.3996V17.0496C9.87752 16.9964 9.88589 16.9431 9.90497 16.8932C9.92405 16.8434 9.95341 16.7981 9.99115 16.7604C10.0289 16.7226 10.0741 16.6933 10.124 16.6742C10.1738 16.6551 10.2271 16.6468 10.2804 16.6496H14.9204C14.9737 16.6468 15.027 16.6551 15.0768 16.6742C15.1267 16.6933 15.1719 16.7226 15.2097 16.7604C15.2474 16.7981 15.2768 16.8434 15.2958 16.8932C15.3149 16.9431 15.3233 16.9964 15.3204 17.0496V22.3996C15.3204 22.824 15.489 23.231 15.789 23.531C16.0891 23.8311 16.4961 23.9996 16.9204 23.9996H21.7904C22.0005 23.9996 22.2086 23.9583 22.4027 23.8778C22.5968 23.7974 22.7732 23.6796 22.9218 23.531C23.0704 23.3824 23.1882 23.2061 23.2686 23.0119C23.349 22.8178 23.3904 22.6098 23.3904 22.3996V11.6896C23.393 11.3736 23.3303 11.0604 23.2065 10.7696C23.0826 10.4789 22.9001 10.2168 22.6704 9.99964Z" fill="white"/>
</svg>
