<svg width="25" height="25" viewBox="0 0 25 25" fill="none" xmlns="http://www.w3.org/2000/svg">
<path d="M18.7554 5.47103C17.291 5.47103 16.0997 6.64553 16.0997 8.0892V11.5801C16.0997 12.0613 15.7026 12.4528 15.2144 12.4528H13.8819C13.9801 12.1797 14.0341 11.886 14.0341 11.5801C14.0341 10.91 13.7772 10.2982 13.3557 9.83467C13.7772 9.3711 14.0341 8.75929 14.0341 8.08924C14.0341 7.78331 13.9801 7.48969 13.8819 7.2165H14.0341C14.523 7.2165 14.9194 6.82575 14.9194 6.34377C14.9194 5.86178 14.523 5.47103 14.0341 5.47103H13.5711L14.2658 3.75882C14.375 3.48995 14.3417 3.18526 14.1769 2.94537C14.0123 2.7056 13.7377 2.56194 13.444 2.56194H9.3128C9.01904 2.56194 8.7444 2.7056 8.57978 2.94533C8.41507 3.18515 8.38183 3.48987 8.49088 3.75878L9.1856 5.47099H8.72265C8.23375 5.47099 7.83739 5.86174 7.83739 6.34373C7.83739 6.82572 8.23375 7.21646 8.72265 7.21646H8.87491C8.77666 7.48961 8.72265 7.78328 8.72265 8.0892C8.72265 8.75929 8.97955 9.37106 9.40105 9.83463C8.97955 10.2982 8.72265 10.91 8.72265 11.5801C8.72265 11.886 8.77666 12.1796 8.87491 12.4528H7.54233C7.05343 12.4528 6.65708 12.8436 6.65708 13.3255C6.65708 13.8075 7.05343 14.1983 7.54233 14.1983H7.69673C7.047 14.9958 6.65711 16.0073 6.65711 17.1074C6.65711 18.2075 7.04704 19.219 7.69673 20.0165H4.29645C3.80755 20.0165 3.41119 20.4072 3.41119 20.8892C3.41119 21.3712 3.80755 21.7619 4.29645 21.7619H18.4603C18.9492 21.7619 19.3456 21.3712 19.3456 20.8892C19.3456 20.4072 18.9492 20.0165 18.4603 20.0165H15.0601C15.7098 19.219 16.0997 18.2075 16.0997 17.1074C16.0997 16.0073 15.7097 14.9958 15.0601 14.1983H15.2144C16.6788 14.1983 17.8702 13.0238 17.8702 11.5801V8.0892C17.8702 7.60796 18.2673 7.21646 18.7554 7.21646C19.2436 7.21646 19.6407 7.60796 19.6407 8.0892V17.1074C19.6407 17.5894 20.037 17.9801 20.5259 17.9801C21.0148 17.9801 21.4112 17.5894 21.4112 17.1074V8.0892C21.4112 6.64553 20.2198 5.47103 18.7554 5.47103Z" fill="black"/>
</svg>
