<svg width="60" height="60" viewBox="0 0 60 60" fill="none" xmlns="http://www.w3.org/2000/svg">
<g filter="url(#filter0_bii_1996_23461)">
<path d="M33.9074 46.601L33.9074 47.795C31.8775 49.8846 21.9075 49.4666 20.4747 47.795L20.4747 46.0637C20.4747 45.1682 20.2956 44.9294 19.4001 44.213C18.5046 43.4966 17.9673 43.3175 16.5344 40.5115C15.3882 38.2668 15.7384 33.4469 16.0568 31.3176C15.4598 30.044 14.5882 26.9953 15.8777 24.9893C17.1673 22.9834 19.3603 23.2381 20.2956 23.6162C21.0717 21.4073 24.8925 21.4073 25.7284 22.8401C26.7433 20.1536 31.2208 20.3924 31.3999 23.6759C32.3994 21.8208 32.8173 14 35.6232 14C37.7724 14.0478 38.3496 16.0099 38.3695 16.985C38.4292 17.8806 37.4142 25.8208 37.2948 26.9551C37.1754 28.0894 36.9521 29.1043 36.9521 31.1982C37.0715 33.1086 36.4745 35.6161 39.6983 35.7952C42.9222 35.9743 46.0266 37.3474 47.5788 39.3772C49.1311 41.407 48.5938 42.4817 47.9371 43.4966C47.2803 44.5115 45.1311 43.5563 44.355 42.9593C43.5789 42.3623 41.6685 41.7652 39.9968 41.6458C38.3252 41.5264 36.773 43.5563 36.176 44.4518C35.579 45.3473 34.9223 45.7652 34.385 46.0637C33.9551 46.3025 33.8875 46.5214 33.9074 46.601Z" fill="url(#paint0_linear_1996_23461)"/>
</g>
<g filter="url(#filter1_d_1996_23461)">
<g filter="url(#filter2_ii_1996_23461)">
<path d="M15.3999 26.0639C16.4506 22.9595 19.1014 23.1386 20.2954 23.6162C19.2548 25.6037 20.3135 30.0188 20.5939 30.8997C19.8775 33.228 16.7133 32.5713 16.0566 31.3176C15.3999 30.0639 14.9223 27.5564 15.3999 26.0639Z" fill="white" fill-opacity="0.01"/>
</g>
<g filter="url(#filter3_ii_1996_23461)">
<path d="M25.7881 30.3624L25.7284 22.8401C25.7284 22.8401 24.5941 21.2282 21.9075 22.1237C21.012 22.4819 20.7135 22.8401 20.2956 23.6162C19.3404 25.3902 20.2359 29.5266 20.415 30.243C20.5941 30.9594 21.1911 32.631 23.3404 32.9296C25.0597 33.1684 25.6886 31.3176 25.7881 30.3624Z" fill="white" fill-opacity="0.01"/>
</g>
<g filter="url(#filter4_ii_1996_23461)">
<path d="M31.5193 29.5267L31.3999 23.676C31.3999 22.3625 30.2417 20.9417 28.4745 20.9895C26.7074 21.0372 25.9074 22.283 25.7283 22.8999C25.7482 24.9098 25.788 29.1565 25.788 30.064C25.788 31.1983 25.9671 33.1087 28.7133 33.3475C30.9103 33.5386 31.4994 30.8799 31.5193 29.5267Z" fill="white" fill-opacity="0.01"/>
</g>
</g>
<path d="M15.4001 26.0639C16.4509 22.9595 19.1016 23.1386 20.2956 23.6162C19.2551 25.6037 20.3137 30.0188 20.5941 30.8997C19.8777 33.228 16.7136 32.5713 16.0569 31.3176C15.4002 30.0639 14.9225 27.5564 15.4001 26.0639Z" fill="url(#paint1_linear_1996_23461)"/>
<g filter="url(#filter5_bii_1996_23461)">
<path d="M34.3851 46.6009C34.3851 46.4099 34.1463 46.3223 34.0269 46.3024C34.0269 47.6159 20.4748 47.795 20.4748 46.2427C19.9972 46.2427 19.5196 46.4218 19.5196 46.7203L19.5196 53.7959C19.5196 54.3129 19.7436 54.7937 20.2415 54.9331C22.5735 55.5859 29.4858 55.769 33.0949 54.9845C33.8947 54.8107 34.3851 54.0684 34.3851 53.2499L34.3851 46.6009Z" fill="#D808FA"/>
</g>
<g filter="url(#filter6_f_1996_23461)">
<path d="M18.8383 36.503C18.5292 37.4801 18.5366 39.3844 19.4161 40.1556C20.2956 40.9267 22.5486 42.9227 23.8018 43.021C25.0551 43.1193 26.5526 41.9363 26.52 40.4739C26.4874 39.0115 24.5893 34.7583 23.2852 34.2338C21.9811 33.7092 20.7187 34.129 20.2479 34.3454C19.7772 34.5619 19.1473 35.5259 18.8383 36.503Z" fill="url(#paint2_radial_1996_23461)" fill-opacity="0.32"/>
</g>
<g filter="url(#filter7_f_1996_23461)">
<path d="M29.0857 39.5456C29.611 40.4256 31.0398 41.6847 32.2004 41.5391C33.361 41.3936 36.3495 41.0346 37.2552 40.1629C38.1609 39.2911 38.2708 37.3858 37.1558 36.4391C36.0407 35.4924 31.6002 34.0872 30.342 34.7139C29.0838 35.3406 28.5594 36.5632 28.4086 37.0589C28.2578 37.5546 28.5603 38.6657 29.0857 39.5456Z" fill="url(#paint3_radial_1996_23461)" fill-opacity="0.32"/>
</g>
<path d="M25.7881 30.3624L25.7284 22.8401C25.7284 22.8401 24.5941 21.2282 21.9075 22.1237C21.012 22.4819 20.7135 22.8401 20.2956 23.6162C19.3404 25.3902 20.2359 29.5266 20.415 30.243C20.5941 30.9594 21.1911 32.631 23.3404 32.9296C25.0597 33.1684 25.6886 31.3176 25.7881 30.3624Z" fill="url(#paint4_linear_1996_23461)"/>
<path d="M31.5193 29.5267L31.3999 23.676C31.3999 22.3625 30.2417 20.9417 28.4745 20.9895C26.7074 21.0372 25.9074 22.283 25.7283 22.8999C25.7482 24.9098 25.788 29.1565 25.788 30.064C25.788 31.1983 25.9671 33.1087 28.7133 33.3475C30.9103 33.5386 31.4994 30.8799 31.5193 29.5267Z" fill="url(#paint5_linear_1996_23461)"/>
<g filter="url(#filter8_ii_1996_23461)">
<path d="M36.4998 9.86432L34.8032 10.9345C34.7283 10.9844 34.6499 11.0058 34.5682 10.9987C34.4864 10.9915 34.4149 10.963 34.3535 10.9131C34.2922 10.8631 34.2445 10.8006 34.2105 10.7256C34.1764 10.6505 34.1696 10.5668 34.19 10.4743L34.6397 8.45175L33.1373 7.09268C33.0692 7.02847 33.0267 6.95528 33.0098 6.87309C32.9929 6.7909 32.9979 6.71072 33.0249 6.63252C33.0521 6.55405 33.093 6.48984 33.1475 6.4399C33.202 6.38996 33.277 6.35786 33.3724 6.34359L35.3551 6.16167L36.1217 4.25683C36.1557 4.17122 36.2086 4.10701 36.2803 4.06421C36.352 4.0214 36.4251 4 36.4998 4C36.5748 4 36.648 4.0214 36.7194 4.06421C36.7908 4.10701 36.8436 4.17122 36.878 4.25683L37.6445 6.16167L39.6273 6.34359C39.7227 6.35786 39.7976 6.38996 39.8521 6.4399C39.9066 6.48984 39.9475 6.55405 39.9748 6.63252C40.002 6.711 40.0072 6.79133 39.9903 6.87352C39.9734 6.9557 39.9307 7.02876 39.8623 7.09268L38.3599 8.45175L38.8096 10.4743C38.8301 10.567 38.8233 10.6509 38.7892 10.726C38.7551 10.801 38.7074 10.8634 38.6461 10.9131C38.5848 10.963 38.5132 10.9915 38.4315 10.9987C38.3497 11.0058 38.2714 10.9844 38.1964 10.9345L36.4998 9.86432Z" fill="url(#paint6_linear_1996_23461)"/>
</g>
<g filter="url(#filter9_bii_1996_23461)">
<path d="M37.9993 51.4573L31.213 55.7378C30.9132 55.9376 30.5997 56.0232 30.2727 55.9946C29.9456 55.9661 29.6594 55.852 29.4142 55.6522C29.1689 55.4525 28.9781 55.2025 28.8418 54.9023C28.7055 54.6021 28.6783 54.267 28.7601 53.8972L30.5588 45.807L24.5492 40.3707C24.2767 40.1139 24.1066 39.8211 24.039 39.4924C23.9715 39.1636 23.9916 38.8429 24.0995 38.5301C24.2086 38.2162 24.3721 37.9594 24.5901 37.7596C24.8082 37.5598 25.108 37.4314 25.4895 37.3744L33.4206 36.6467L36.4867 29.0273C36.623 28.6849 36.8344 28.4281 37.1212 28.2568C37.4079 28.0856 37.7006 28 37.9993 28C38.2991 28 38.5918 28.0856 38.8774 28.2568C39.1631 28.4281 39.3746 28.6849 39.5119 29.0273L42.578 36.6467L50.5091 37.3744C50.8906 37.4314 51.1904 37.5598 51.4085 37.7596C51.6265 37.9594 51.79 38.2162 51.8991 38.5301C52.0081 38.844 52.0288 39.1653 51.9612 39.4941C51.8936 39.8228 51.723 40.115 51.4494 40.3707L45.4398 45.807L47.2386 53.8972C47.3203 54.2682 47.2931 54.6038 47.1568 54.904C47.0205 55.2042 46.8297 55.4536 46.5844 55.6522C46.3392 55.852 46.053 55.9661 45.7259 55.9946C45.3989 56.0232 45.0855 55.9376 44.7857 55.7378L37.9993 51.4573Z" fill="white" fill-opacity="0.5"/>
</g>
<defs>
<filter id="filter0_bii_1996_23461" x="12.2102" y="11" width="39.3774" height="41.2098" filterUnits="userSpaceOnUse" color-interpolation-filters="sRGB">
<feFlood flood-opacity="0" result="BackgroundImageFix"/>
<feGaussianBlur in="BackgroundImageFix" stdDeviation="1.5"/>
<feComposite in2="SourceAlpha" operator="in" result="effect1_backgroundBlur_1996_23461"/>
<feBlend mode="normal" in="SourceGraphic" in2="effect1_backgroundBlur_1996_23461" result="shape"/>
<feColorMatrix in="SourceAlpha" type="matrix" values="0 0 0 0 0 0 0 0 0 0 0 0 0 0 0 0 0 0 127 0" result="hardAlpha"/>
<feOffset dx="-2.86564" dy="0.955213"/>
<feGaussianBlur stdDeviation="1.91043"/>
<feComposite in2="hardAlpha" operator="arithmetic" k2="-1" k3="1"/>
<feColorMatrix type="matrix" values="0 0 0 0 1 0 0 0 0 1 0 0 0 0 1 0 0 0 0.5 0"/>
<feBlend mode="normal" in2="shape" result="effect2_innerShadow_1996_23461"/>
<feColorMatrix in="SourceAlpha" type="matrix" values="0 0 0 0 0 0 0 0 0 0 0 0 0 0 0 0 0 0 127 0" result="hardAlpha"/>
<feOffset dx="0.71641" dy="-0.71641"/>
<feGaussianBlur stdDeviation="1.43282"/>
<feComposite in2="hardAlpha" operator="arithmetic" k2="-1" k3="1"/>
<feColorMatrix type="matrix" values="0 0 0 0 0 0 0 0 0 0 0 0 0 0 0 0 0 0 0.5 0"/>
<feBlend mode="normal" in2="effect2_innerShadow_1996_23461" result="effect3_innerShadow_1996_23461"/>
</filter>
<filter id="filter1_d_1996_23461" x="13.7735" y="19.5555" width="20.1338" height="16.1899" filterUnits="userSpaceOnUse" color-interpolation-filters="sRGB">
<feFlood flood-opacity="0" result="BackgroundImageFix"/>
<feColorMatrix in="SourceAlpha" type="matrix" values="0 0 0 0 0 0 0 0 0 0 0 0 0 0 0 0 0 0 127 0" result="hardAlpha"/>
<feOffset dx="0.477606" dy="0.477606"/>
<feGaussianBlur stdDeviation="0.955213"/>
<feComposite in2="hardAlpha" operator="out"/>
<feColorMatrix type="matrix" values="0 0 0 0 0 0 0 0 0 0 0 0 0 0 0 0 0 0 0.12 0"/>
<feBlend mode="normal" in2="BackgroundImageFix" result="effect1_dropShadow_1996_23461"/>
<feBlend mode="normal" in="SourceGraphic" in2="effect1_dropShadow_1996_23461" result="shape"/>
</filter>
<filter id="filter2_ii_1996_23461" x="14.4899" y="22.6306" width="8.96962" height="11.2556" filterUnits="userSpaceOnUse" color-interpolation-filters="sRGB">
<feFlood flood-opacity="0" result="BackgroundImageFix"/>
<feBlend mode="normal" in="SourceGraphic" in2="BackgroundImageFix" result="shape"/>
<feColorMatrix in="SourceAlpha" type="matrix" values="0 0 0 0 0 0 0 0 0 0 0 0 0 0 0 0 0 0 127 0" result="hardAlpha"/>
<feOffset dx="-0.71641" dy="1.43282"/>
<feGaussianBlur stdDeviation="1.43282"/>
<feComposite in2="hardAlpha" operator="arithmetic" k2="-1" k3="1"/>
<feColorMatrix type="matrix" values="0 0 0 0 1 0 0 0 0 1 0 0 0 0 1 0 0 0 0.32 0"/>
<feBlend mode="normal" in2="shape" result="effect1_innerShadow_1996_23461"/>
<feColorMatrix in="SourceAlpha" type="matrix" values="0 0 0 0 0 0 0 0 0 0 0 0 0 0 0 0 0 0 127 0" result="hardAlpha"/>
<feOffset dx="3.82085" dy="-0.71641"/>
<feGaussianBlur stdDeviation="1.43282"/>
<feComposite in2="hardAlpha" operator="arithmetic" k2="-1" k3="1"/>
<feColorMatrix type="matrix" values="0 0 0 0 0 0 0 0 0 0 0 0 0 0 0 0 0 0 0.32 0"/>
<feBlend mode="normal" in2="effect1_innerShadow_1996_23461" result="effect2_innerShadow_1996_23461"/>
</filter>
<filter id="filter3_ii_1996_23461" x="19.1458" y="21.1364" width="9.50795" height="13.247" filterUnits="userSpaceOnUse" color-interpolation-filters="sRGB">
<feFlood flood-opacity="0" result="BackgroundImageFix"/>
<feBlend mode="normal" in="SourceGraphic" in2="BackgroundImageFix" result="shape"/>
<feColorMatrix in="SourceAlpha" type="matrix" values="0 0 0 0 0 0 0 0 0 0 0 0 0 0 0 0 0 0 127 0" result="hardAlpha"/>
<feOffset dx="-0.71641" dy="1.43282"/>
<feGaussianBlur stdDeviation="1.43282"/>
<feComposite in2="hardAlpha" operator="arithmetic" k2="-1" k3="1"/>
<feColorMatrix type="matrix" values="0 0 0 0 1 0 0 0 0 1 0 0 0 0 1 0 0 0 0.32 0"/>
<feBlend mode="normal" in2="shape" result="effect1_innerShadow_1996_23461"/>
<feColorMatrix in="SourceAlpha" type="matrix" values="0 0 0 0 0 0 0 0 0 0 0 0 0 0 0 0 0 0 127 0" result="hardAlpha"/>
<feOffset dx="3.82085" dy="-0.71641"/>
<feGaussianBlur stdDeviation="1.43282"/>
<feComposite in2="hardAlpha" operator="arithmetic" k2="-1" k3="1"/>
<feColorMatrix type="matrix" values="0 0 0 0 0 0 0 0 0 0 0 0 0 0 0 0 0 0 0.32 0"/>
<feBlend mode="normal" in2="effect1_innerShadow_1996_23461" result="effect2_innerShadow_1996_23461"/>
</filter>
<filter id="filter4_ii_1996_23461" x="25.0119" y="20.2719" width="9.37306" height="14.5182" filterUnits="userSpaceOnUse" color-interpolation-filters="sRGB">
<feFlood flood-opacity="0" result="BackgroundImageFix"/>
<feBlend mode="normal" in="SourceGraphic" in2="BackgroundImageFix" result="shape"/>
<feColorMatrix in="SourceAlpha" type="matrix" values="0 0 0 0 0 0 0 0 0 0 0 0 0 0 0 0 0 0 127 0" result="hardAlpha"/>
<feOffset dx="-0.71641" dy="1.43282"/>
<feGaussianBlur stdDeviation="1.43282"/>
<feComposite in2="hardAlpha" operator="arithmetic" k2="-1" k3="1"/>
<feColorMatrix type="matrix" values="0 0 0 0 1 0 0 0 0 1 0 0 0 0 1 0 0 0 0.32 0"/>
<feBlend mode="normal" in2="shape" result="effect1_innerShadow_1996_23461"/>
<feColorMatrix in="SourceAlpha" type="matrix" values="0 0 0 0 0 0 0 0 0 0 0 0 0 0 0 0 0 0 127 0" result="hardAlpha"/>
<feOffset dx="3.82085" dy="-0.71641"/>
<feGaussianBlur stdDeviation="1.43282"/>
<feComposite in2="hardAlpha" operator="arithmetic" k2="-1" k3="1"/>
<feColorMatrix type="matrix" values="0 0 0 0 0 0 0 0 0 0 0 0 0 0 0 0 0 0 0.32 0"/>
<feBlend mode="normal" in2="effect1_innerShadow_1996_23461" result="effect2_innerShadow_1996_23461"/>
</filter>
<filter id="filter5_bii_1996_23461" x="16.5197" y="43.2427" width="20.8655" height="15.2586" filterUnits="userSpaceOnUse" color-interpolation-filters="sRGB">
<feFlood flood-opacity="0" result="BackgroundImageFix"/>
<feGaussianBlur in="BackgroundImageFix" stdDeviation="1.5"/>
<feComposite in2="SourceAlpha" operator="in" result="effect1_backgroundBlur_1996_23461"/>
<feBlend mode="normal" in="SourceGraphic" in2="effect1_backgroundBlur_1996_23461" result="shape"/>
<feColorMatrix in="SourceAlpha" type="matrix" values="0 0 0 0 0 0 0 0 0 0 0 0 0 0 0 0 0 0 127 0" result="hardAlpha"/>
<feOffset dx="-2.86564" dy="0.955213"/>
<feGaussianBlur stdDeviation="1.91043"/>
<feComposite in2="hardAlpha" operator="arithmetic" k2="-1" k3="1"/>
<feColorMatrix type="matrix" values="0 0 0 0 1 0 0 0 0 1 0 0 0 0 1 0 0 0 0.5 0"/>
<feBlend mode="normal" in2="shape" result="effect2_innerShadow_1996_23461"/>
<feColorMatrix in="SourceAlpha" type="matrix" values="0 0 0 0 0 0 0 0 0 0 0 0 0 0 0 0 0 0 127 0" result="hardAlpha"/>
<feOffset dx="0.71641" dy="-0.71641"/>
<feGaussianBlur stdDeviation="1.43282"/>
<feComposite in2="hardAlpha" operator="arithmetic" k2="-1" k3="1"/>
<feColorMatrix type="matrix" values="0 0 0 0 0 0 0 0 0 0 0 0 0 0 0 0 0 0 0.5 0"/>
<feBlend mode="normal" in2="effect2_innerShadow_1996_23461" result="effect3_innerShadow_1996_23461"/>
</filter>
<filter id="filter6_f_1996_23461" x="17.2205" y="32.548" width="10.7328" height="11.9116" filterUnits="userSpaceOnUse" color-interpolation-filters="sRGB">
<feFlood flood-opacity="0" result="BackgroundImageFix"/>
<feBlend mode="normal" in="SourceGraphic" in2="BackgroundImageFix" result="shape"/>
<feGaussianBlur stdDeviation="0.71641" result="effect1_foregroundBlur_1996_23461"/>
</filter>
<filter id="filter7_f_1996_23461" x="26.9371" y="33.1253" width="12.459" height="9.85819" filterUnits="userSpaceOnUse" color-interpolation-filters="sRGB">
<feFlood flood-opacity="0" result="BackgroundImageFix"/>
<feBlend mode="normal" in="SourceGraphic" in2="BackgroundImageFix" result="shape"/>
<feGaussianBlur stdDeviation="0.71641" result="effect1_foregroundBlur_1996_23461"/>
</filter>
<filter id="filter8_ii_1996_23461" x="32.5" y="3.5" width="8" height="8" filterUnits="userSpaceOnUse" color-interpolation-filters="sRGB">
<feFlood flood-opacity="0" result="BackgroundImageFix"/>
<feBlend mode="normal" in="SourceGraphic" in2="BackgroundImageFix" result="shape"/>
<feColorMatrix in="SourceAlpha" type="matrix" values="0 0 0 0 0 0 0 0 0 0 0 0 0 0 0 0 0 0 127 0" result="hardAlpha"/>
<feOffset dx="0.5" dy="-0.5"/>
<feGaussianBlur stdDeviation="0.6"/>
<feComposite in2="hardAlpha" operator="arithmetic" k2="-1" k3="1"/>
<feColorMatrix type="matrix" values="0 0 0 0 0 0 0 0 0 0 0 0 0 0 0 0 0 0 0.4 0"/>
<feBlend mode="normal" in2="shape" result="effect1_innerShadow_1996_23461"/>
<feColorMatrix in="SourceAlpha" type="matrix" values="0 0 0 0 0 0 0 0 0 0 0 0 0 0 0 0 0 0 127 0" result="hardAlpha"/>
<feOffset dx="-0.5" dy="0.5"/>
<feGaussianBlur stdDeviation="0.6"/>
<feComposite in2="hardAlpha" operator="arithmetic" k2="-1" k3="1"/>
<feColorMatrix type="matrix" values="0 0 0 0 1 0 0 0 0 1 0 0 0 0 1 0 0 0 0.6 0"/>
<feBlend mode="normal" in2="effect1_innerShadow_1996_23461" result="effect2_innerShadow_1996_23461"/>
</filter>
<filter id="filter9_bii_1996_23461" x="21" y="25" width="34" height="34" filterUnits="userSpaceOnUse" color-interpolation-filters="sRGB">
<feFlood flood-opacity="0" result="BackgroundImageFix"/>
<feGaussianBlur in="BackgroundImageFix" stdDeviation="1.5"/>
<feComposite in2="SourceAlpha" operator="in" result="effect1_backgroundBlur_1996_23461"/>
<feBlend mode="normal" in="SourceGraphic" in2="effect1_backgroundBlur_1996_23461" result="shape"/>
<feColorMatrix in="SourceAlpha" type="matrix" values="0 0 0 0 0 0 0 0 0 0 0 0 0 0 0 0 0 0 127 0" result="hardAlpha"/>
<feOffset dx="0.5" dy="-0.5"/>
<feGaussianBlur stdDeviation="0.6"/>
<feComposite in2="hardAlpha" operator="arithmetic" k2="-1" k3="1"/>
<feColorMatrix type="matrix" values="0 0 0 0 0 0 0 0 0 0 0 0 0 0 0 0 0 0 0.4 0"/>
<feBlend mode="normal" in2="shape" result="effect2_innerShadow_1996_23461"/>
<feColorMatrix in="SourceAlpha" type="matrix" values="0 0 0 0 0 0 0 0 0 0 0 0 0 0 0 0 0 0 127 0" result="hardAlpha"/>
<feOffset dx="-0.5" dy="0.5"/>
<feGaussianBlur stdDeviation="0.6"/>
<feComposite in2="hardAlpha" operator="arithmetic" k2="-1" k3="1"/>
<feColorMatrix type="matrix" values="0 0 0 0 1 0 0 0 0 1 0 0 0 0 1 0 0 0 0.6 0"/>
<feBlend mode="normal" in2="effect2_innerShadow_1996_23461" result="effect3_innerShadow_1996_23461"/>
</filter>
<linearGradient id="paint0_linear_1996_23461" x1="16" y1="23" x2="42.6672" y2="47.9259" gradientUnits="userSpaceOnUse">
<stop stop-color="#E32900"/>
<stop offset="0.494792" stop-color="#C6E216"/>
<stop offset="1" stop-color="#D808FA"/>
</linearGradient>
<linearGradient id="paint1_linear_1996_23461" x1="19.6831" y1="25.164" x2="17.9493" y2="28.2363" gradientUnits="userSpaceOnUse">
<stop stop-color="white" stop-opacity="0.16"/>
<stop offset="1" stop-color="white" stop-opacity="0"/>
</linearGradient>
<radialGradient id="paint2_radial_1996_23461" cx="0" cy="0" r="1" gradientUnits="userSpaceOnUse" gradientTransform="translate(22.8697 38.3591) rotate(122.415) scale(4.59735 5.70961)">
<stop stop-color="white"/>
<stop offset="1" stop-color="white" stop-opacity="0"/>
</radialGradient>
<radialGradient id="paint3_radial_1996_23461" cx="0" cy="0" r="1" gradientUnits="userSpaceOnUse" gradientTransform="translate(33.1506 37.764) rotate(74.025) scale(4.59735 5.70961)">
<stop stop-color="white"/>
<stop offset="1" stop-color="white" stop-opacity="0"/>
</radialGradient>
<linearGradient id="paint4_linear_1996_23461" x1="25.5935" y1="22.8357" x2="22.757" y2="28.1527" gradientUnits="userSpaceOnUse">
<stop stop-color="white" stop-opacity="0.16"/>
<stop offset="1" stop-color="white" stop-opacity="0"/>
</linearGradient>
<linearGradient id="paint5_linear_1996_23461" x1="31.0859" y1="22.3581" x2="28.1295" y2="27.9634" gradientUnits="userSpaceOnUse">
<stop stop-color="white" stop-opacity="0.16"/>
<stop offset="1" stop-color="white" stop-opacity="0"/>
</linearGradient>
<linearGradient id="paint6_linear_1996_23461" x1="34.5" y1="5" x2="39" y2="9.5" gradientUnits="userSpaceOnUse">
<stop stop-color="#E32900"/>
<stop offset="0.494792" stop-color="#C6E216"/>
<stop offset="1" stop-color="#D808FA"/>
</linearGradient>
</defs>
</svg>
