<svg width="25" height="25" viewBox="0 0 25 25" fill="none" xmlns="http://www.w3.org/2000/svg">
<path d="M12.4112 4.66204C8.31116 4.66204 4.91116 8.06204 4.91116 12.162C4.91116 16.262 8.31116 19.662 12.4112 19.662C16.5112 19.662 19.9112 16.262 19.9112 12.162C19.9112 8.06204 16.5112 4.66204 12.4112 4.66204ZM2.81116 12.162C2.81116 6.86204 7.11116 2.56204 12.4112 2.56204C17.7112 2.56204 22.0112 6.86204 22.0112 12.162C22.0112 17.462 17.7112 21.762 12.4112 21.762C7.11116 21.762 2.81116 17.462 2.81116 12.162ZM11.3112 8.36204C11.3112 7.76204 11.8112 7.26204 12.4112 7.26204C13.0112 7.26204 13.5112 7.76204 13.5112 8.36204C13.5112 8.96204 13.0112 9.46204 12.4112 9.46204C11.8112 9.46204 11.3112 8.96204 11.3112 8.36204ZM10.4112 12.162C10.4112 11.562 10.9112 11.062 11.5112 11.062H12.4112C13.0112 11.062 13.5112 11.562 13.5112 12.162V14.862C14.0112 14.962 14.4112 15.362 14.4112 15.962C14.4112 16.562 13.9112 17.062 13.3112 17.062H12.4112C11.8112 17.062 11.3112 16.562 11.3112 15.962V13.262C10.8112 13.162 10.4112 12.662 10.4112 12.162Z" fill="black"/>
</svg>
