<svg width="25" height="25" viewBox="0 0 25 25" fill="none" xmlns="http://www.w3.org/2000/svg">
<path d="M12.4112 2.56194C8.65119 2.56194 5.53119 5.44194 5.53119 8.96194V9.12194C5.53119 10.3219 5.85119 11.4419 6.49119 12.4019L12.4112 21.7619L18.3312 12.4019C18.9712 11.3619 19.2912 10.2419 19.2912 9.12194V8.96194C19.2912 5.44194 16.1712 2.56194 12.4112 2.56194ZM12.4112 10.8819C10.8912 10.8819 9.69119 9.76194 9.69119 8.32194C9.69119 6.88194 10.8912 5.76194 12.4112 5.76194C13.9312 5.76194 15.1312 6.88194 15.1312 8.32194C15.1312 9.76194 13.9312 10.8819 12.4112 10.8819Z" fill="black"/>
</svg>
