<svg width="60" height="60" viewBox="0 0 60 60" fill="none" xmlns="http://www.w3.org/2000/svg">
<g clip-path="url(#clip0_1996_23840)">
<g filter="url(#filter0_ii_1996_23840)">
<circle cx="24.1637" cy="29.5" r="20.1637" fill="url(#paint0_linear_1996_23840)"/>
</g>
<g filter="url(#filter1_d_1996_23840)">
<g filter="url(#filter2_bii_1996_23840)">
<circle cx="35.8363" cy="29.5" r="20.1637" fill="#E4C600" fill-opacity="0.5"/>
</g>
<g filter="url(#filter3_ii_1996_23840)">
<path fill-rule="evenodd" clip-rule="evenodd" d="M45.4649 19.1661C44.9906 18.5851 44.1391 18.4874 43.5631 18.948L43.499 18.9992C41.968 20.2233 40.738 21.2067 39.915 22.0117C39.4964 22.4212 39.1197 22.8441 38.8558 23.2847C38.5885 23.7308 38.3735 24.3019 38.4615 24.9567C38.5508 25.6214 38.9184 26.1264 39.3138 26.4933C39.6978 26.8497 40.1847 27.1486 40.6984 27.4167C41.7064 27.9426 43.1507 28.5149 44.9348 29.2218C44.9623 29.2327 44.9899 29.2437 45.0176 29.2546C45.715 29.531 46.4954 29.1973 46.7606 28.5093C47.0257 27.8214 46.6753 27.0396 45.9779 26.7632C44.0917 26.0158 42.7837 25.4955 41.9194 25.0445C41.5789 24.8669 41.3615 24.7269 41.2275 24.6222C41.3331 24.466 41.5191 24.2452 41.8288 23.9423C42.546 23.2407 43.671 22.3391 45.2807 21.0521C45.8568 20.5915 45.9392 19.7472 45.4649 19.1661ZM41.135 24.7867C41.1351 24.7867 41.1354 24.7859 41.1358 24.7843C41.1352 24.7859 41.135 24.7867 41.135 24.7867Z" fill="#551112"/>
</g>
<g filter="url(#filter4_ii_1996_23840)">
<path fill-rule="evenodd" clip-rule="evenodd" d="M25.5332 19.1784C26.0081 18.5935 26.8608 18.4872 27.4378 18.941L27.502 18.9915C29.0358 20.1976 30.268 21.1665 31.0925 21.9616C31.5119 22.366 31.8892 22.7843 32.1537 23.2213C32.4215 23.6639 32.637 24.2317 32.5491 24.8863C32.4598 25.5506 32.0917 26.0585 31.6959 26.4288C31.3113 26.7885 30.8238 27.0919 30.3093 27.3648C29.2999 27.9002 27.8536 28.4863 26.0668 29.2104C26.0393 29.2215 26.0117 29.2327 25.984 29.2439C25.2855 29.527 24.5039 29.202 24.2381 28.518C23.9723 27.834 24.323 27.05 25.0215 26.767C26.9104 26.0015 28.2203 25.4686 29.0858 25.0096C29.4268 24.8287 29.6445 24.6867 29.7787 24.5809C29.6729 24.426 29.4865 24.2076 29.1763 23.9084C28.4577 23.2155 27.3307 22.3271 25.7181 21.059C25.1411 20.6053 25.0583 19.7633 25.5332 19.1784ZM29.8713 24.7441C29.8713 24.7441 29.871 24.7433 29.8705 24.7417C29.8711 24.7433 29.8713 24.7441 29.8713 24.7441Z" fill="#551112"/>
</g>
<g filter="url(#filter5_ii_1996_23840)">
<path d="M35.7094 47C45.625 47 49.0807 39.9284 50.2502 35.8369C50.6684 34.3739 49.4458 33.1064 47.9408 33.3308C43.5118 33.9914 39.8267 35.1675 35.7094 35.1538C31.7843 35.1408 28.2281 33.9459 23.9282 33.3076C22.4687 33.091 21.2644 34.2955 21.6065 35.7308C22.5772 39.8048 25.7075 47 35.7094 47Z" fill="white" fill-opacity="0.01"/>
</g>
<g filter="url(#filter6_ii_1996_23840)">
<path d="M24.9507 35.8824C23.9708 35.0843 23.5347 34.5349 23.6715 33.5864C23.7228 33.2309 24.0554 33 24.4146 33H47.5793C47.996 33 48.3605 33.3119 48.3521 33.7284C48.3327 34.6877 47.948 35.1929 47.17 35.8824C47.17 35.8824 43.7516 38.7647 35.7755 38.7647C27.7993 38.7647 24.9507 35.8824 24.9507 35.8824Z" fill="#D9D9D9"/>
</g>
<g filter="url(#filter7_f_1996_23840)">
<ellipse cx="46.1937" cy="22.2651" rx="3.81281" ry="6.44352" transform="rotate(-33.2662 46.1937 22.2651)" fill="white"/>
</g>
</g>
<g filter="url(#filter8_bii_1996_23840)">
<path d="M55.3749 34.0723C56.7512 35.8003 56.4662 38.3169 54.7382 39.6932C53.0102 41.0696 50.4936 40.7845 49.1172 39.0565C47.7409 37.3285 45.5339 31.6831 47.2619 30.3068C48.9899 28.9304 53.9985 32.3443 55.3749 34.0723Z" fill="#00A3FF"/>
</g>
<g filter="url(#filter9_f_1996_23840)">
<ellipse cx="51.7867" cy="33.6909" rx="0.938256" ry="3.16909" transform="rotate(-47.7012 51.7867 33.6909)" fill="white"/>
</g>
<g filter="url(#filter10_bii_1996_23840)">
<path d="M15.6251 34.0723C14.2488 35.8003 14.5338 38.3169 16.2618 39.6932C17.9898 41.0696 20.5064 40.7845 21.8828 39.0565C23.2591 37.3285 25.4661 31.6831 23.7381 30.3068C22.0101 28.9304 17.0015 32.3443 15.6251 34.0723Z" fill="#00A3FF"/>
</g>
<g filter="url(#filter11_f_1996_23840)">
<ellipse cx="0.938256" cy="3.16909" rx="0.938256" ry="3.16909" transform="matrix(-0.985115 -0.171897 -0.171897 0.985115 24 30.7302)" fill="white"/>
</g>
</g>
<defs>
<filter id="filter0_ii_1996_23840" x="3.05679" y="8.39309" width="42.2138" height="42.2139" filterUnits="userSpaceOnUse" color-interpolation-filters="sRGB">
<feFlood flood-opacity="0" result="BackgroundImageFix"/>
<feBlend mode="normal" in="SourceGraphic" in2="BackgroundImageFix" result="shape"/>
<feColorMatrix in="SourceAlpha" type="matrix" values="0 0 0 0 0 0 0 0 0 0 0 0 0 0 0 0 0 0 127 0" result="hardAlpha"/>
<feOffset dx="0.943209" dy="-0.943209"/>
<feGaussianBlur stdDeviation="0.943209"/>
<feComposite in2="hardAlpha" operator="arithmetic" k2="-1" k3="1"/>
<feColorMatrix type="matrix" values="0 0 0 0 0 0 0 0 0 0 0 0 0 0 0 0 0 0 0.32 0"/>
<feBlend mode="normal" in2="shape" result="effect1_innerShadow_1996_23840"/>
<feColorMatrix in="SourceAlpha" type="matrix" values="0 0 0 0 0 0 0 0 0 0 0 0 0 0 0 0 0 0 127 0" result="hardAlpha"/>
<feOffset dx="-0.943209" dy="0.943209"/>
<feGaussianBlur stdDeviation="0.943209"/>
<feComposite in2="hardAlpha" operator="arithmetic" k2="-1" k3="1"/>
<feColorMatrix type="matrix" values="0 0 0 0 1 0 0 0 0 1 0 0 0 0 1 0 0 0 0.5 0"/>
<feBlend mode="normal" in2="effect1_innerShadow_1996_23840" result="effect2_innerShadow_1996_23840"/>
</filter>
<filter id="filter1_d_1996_23840" x="-2.32739" y="-6.6637" width="68.3274" height="68.3275" filterUnits="userSpaceOnUse" color-interpolation-filters="sRGB">
<feFlood flood-opacity="0" result="BackgroundImageFix"/>
<feColorMatrix in="SourceAlpha" type="matrix" values="0 0 0 0 0 0 0 0 0 0 0 0 0 0 0 0 0 0 127 0" result="hardAlpha"/>
<feOffset dx="-4" dy="-2"/>
<feGaussianBlur stdDeviation="7"/>
<feComposite in2="hardAlpha" operator="out"/>
<feColorMatrix type="matrix" values="0 0 0 0 0 0 0 0 0 0 0 0 0 0 0 0 0 0 0.2 0"/>
<!--<feBlend mode="normal" in2="BackgroundImageFix" result="effect1_dropShadow_1996_23840"/>-->
<feBlend mode="normal" in="SourceGraphic" in2="effect1_dropShadow_1996_23840" result="shape"/>
</filter>
<filter id="filter2_bii_1996_23840" x="11.6726" y="2.79672" width="48.3274" height="53.4066" filterUnits="userSpaceOnUse" color-interpolation-filters="sRGB">
<feFlood flood-opacity="0" result="BackgroundImageFix"/>
<feGaussianBlur in="BackgroundImageFix" stdDeviation="2"/>
<feComposite in2="SourceAlpha" operator="in" result="effect1_backgroundBlur_1996_23840"/>
<feBlend mode="normal" in="SourceGraphic" in2="effect1_backgroundBlur_1996_23840" result="shape"/>
<feColorMatrix in="SourceAlpha" type="matrix" values="0 0 0 0 0 0 0 0 0 0 0 0 0 0 0 0 0 0 127 0" result="hardAlpha"/>
<feOffset dy="6.53959"/>
<feGaussianBlur stdDeviation="6.53959"/>
<feComposite in2="hardAlpha" operator="arithmetic" k2="-1" k3="1"/>
<feColorMatrix type="matrix" values="0 0 0 0 1 0 0 0 0 1 0 0 0 0 1 0 0 0 0.32 0"/>
<feBlend mode="normal" in2="shape" result="effect2_innerShadow_1996_23840"/>
<feColorMatrix in="SourceAlpha" type="matrix" values="0 0 0 0 0 0 0 0 0 0 0 0 0 0 0 0 0 0 127 0" result="hardAlpha"/>
<feOffset dy="-6.53959"/>
<feGaussianBlur stdDeviation="6.53959"/>
<feComposite in2="hardAlpha" operator="arithmetic" k2="-1" k3="1"/>
<feColorMatrix type="matrix" values="0 0 0 0 0 0 0 0 0 0 0 0 0 0 0 0 0 0 0.24 0"/>
<feBlend mode="normal" in2="effect2_innerShadow_1996_23840" result="effect3_innerShadow_1996_23840"/>
</filter>
<filter id="filter3_ii_1996_23840" x="37.3516" y="17.5676" width="10.5875" height="12.8741" filterUnits="userSpaceOnUse" color-interpolation-filters="sRGB">
<feFlood flood-opacity="0" result="BackgroundImageFix"/>
<feBlend mode="normal" in="SourceGraphic" in2="BackgroundImageFix" result="shape"/>
<feColorMatrix in="SourceAlpha" type="matrix" values="0 0 0 0 0 0 0 0 0 0 0 0 0 0 0 0 0 0 127 0" result="hardAlpha"/>
<feOffset dx="1.08993" dy="-1.08993"/>
<feGaussianBlur stdDeviation="0.544965"/>
<feComposite in2="hardAlpha" operator="arithmetic" k2="-1" k3="1"/>
<feColorMatrix type="matrix" values="0 0 0 0 0 0 0 0 0 0 0 0 0 0 0 0 0 0 0.32 0"/>
<feBlend mode="normal" in2="shape" result="effect1_innerShadow_1996_23840"/>
<feColorMatrix in="SourceAlpha" type="matrix" values="0 0 0 0 0 0 0 0 0 0 0 0 0 0 0 0 0 0 127 0" result="hardAlpha"/>
<feOffset dx="-1.08993" dy="1.08993"/>
<feGaussianBlur stdDeviation="0.544965"/>
<feComposite in2="hardAlpha" operator="arithmetic" k2="-1" k3="1"/>
<feColorMatrix type="matrix" values="0 0 0 0 1 0 0 0 0 1 0 0 0 0 1 0 0 0 0.5 0"/>
<feBlend mode="normal" in2="effect1_innerShadow_1996_23840" result="effect2_innerShadow_1996_23840"/>
</filter>
<filter id="filter4_ii_1996_23840" x="23.0594" y="17.5697" width="10.5995" height="12.8664" filterUnits="userSpaceOnUse" color-interpolation-filters="sRGB">
<feFlood flood-opacity="0" result="BackgroundImageFix"/>
<feBlend mode="normal" in="SourceGraphic" in2="BackgroundImageFix" result="shape"/>
<feColorMatrix in="SourceAlpha" type="matrix" values="0 0 0 0 0 0 0 0 0 0 0 0 0 0 0 0 0 0 127 0" result="hardAlpha"/>
<feOffset dx="1.08993" dy="-1.08993"/>
<feGaussianBlur stdDeviation="0.544965"/>
<feComposite in2="hardAlpha" operator="arithmetic" k2="-1" k3="1"/>
<feColorMatrix type="matrix" values="0 0 0 0 0 0 0 0 0 0 0 0 0 0 0 0 0 0 0.32 0"/>
<feBlend mode="normal" in2="shape" result="effect1_innerShadow_1996_23840"/>
<feColorMatrix in="SourceAlpha" type="matrix" values="0 0 0 0 0 0 0 0 0 0 0 0 0 0 0 0 0 0 127 0" result="hardAlpha"/>
<feOffset dx="-1.08993" dy="1.08993"/>
<feGaussianBlur stdDeviation="0.544965"/>
<feComposite in2="hardAlpha" operator="arithmetic" k2="-1" k3="1"/>
<feColorMatrix type="matrix" values="0 0 0 0 1 0 0 0 0 1 0 0 0 0 1 0 0 0 0.5 0"/>
<feBlend mode="normal" in2="effect1_innerShadow_1996_23840" result="effect2_innerShadow_1996_23840"/>
</filter>
<filter id="filter5_ii_1996_23840" x="20.5479" y="32.2823" width="30.7854" height="15.7177" filterUnits="userSpaceOnUse" color-interpolation-filters="sRGB">
<feFlood flood-opacity="0" result="BackgroundImageFix"/>
<feBlend mode="normal" in="SourceGraphic" in2="BackgroundImageFix" result="shape"/>
<feColorMatrix in="SourceAlpha" type="matrix" values="0 0 0 0 0 0 0 0 0 0 0 0 0 0 0 0 0 0 127 0" result="hardAlpha"/>
<feOffset dx="-1" dy="1"/>
<feGaussianBlur stdDeviation="1"/>
<feComposite in2="hardAlpha" operator="arithmetic" k2="-1" k3="1"/>
<feColorMatrix type="matrix" values="0 0 0 0 0 0 0 0 0 0 0 0 0 0 0 0 0 0 0.32 0"/>
<feBlend mode="normal" in2="shape" result="effect1_innerShadow_1996_23840"/>
<feColorMatrix in="SourceAlpha" type="matrix" values="0 0 0 0 0 0 0 0 0 0 0 0 0 0 0 0 0 0 127 0" result="hardAlpha"/>
<feOffset dx="1" dy="-1"/>
<feGaussianBlur stdDeviation="1"/>
<feComposite in2="hardAlpha" operator="arithmetic" k2="-1" k3="1"/>
<feColorMatrix type="matrix" values="0 0 0 0 1 0 0 0 0 1 0 0 0 0 1 0 0 0 0.5 0"/>
<feBlend mode="normal" in2="effect1_innerShadow_1996_23840" result="effect2_innerShadow_1996_23840"/>
</filter>
<filter id="filter6_ii_1996_23840" x="22.8234" y="32.1765" width="26.3523" height="7.41177" filterUnits="userSpaceOnUse" color-interpolation-filters="sRGB">
<feFlood flood-opacity="0" result="BackgroundImageFix"/>
<feBlend mode="normal" in="SourceGraphic" in2="BackgroundImageFix" result="shape"/>
<feColorMatrix in="SourceAlpha" type="matrix" values="0 0 0 0 0 0 0 0 0 0 0 0 0 0 0 0 0 0 127 0" result="hardAlpha"/>
<feOffset dx="0.823529" dy="-0.823529"/>
<feGaussianBlur stdDeviation="0.823529"/>
<feComposite in2="hardAlpha" operator="arithmetic" k2="-1" k3="1"/>
<feColorMatrix type="matrix" values="0 0 0 0 0 0 0 0 0 0 0 0 0 0 0 0 0 0 0.32 0"/>
<feBlend mode="normal" in2="shape" result="effect1_innerShadow_1996_23840"/>
<feColorMatrix in="SourceAlpha" type="matrix" values="0 0 0 0 0 0 0 0 0 0 0 0 0 0 0 0 0 0 127 0" result="hardAlpha"/>
<feOffset dx="-0.823529" dy="0.823529"/>
<feGaussianBlur stdDeviation="0.823529"/>
<feComposite in2="hardAlpha" operator="arithmetic" k2="-1" k3="1"/>
<feColorMatrix type="matrix" values="0 0 0 0 1 0 0 0 0 1 0 0 0 0 1 0 0 0 0.5 0"/>
<feBlend mode="normal" in2="effect1_innerShadow_1996_23840" result="effect2_innerShadow_1996_23840"/>
</filter>
<filter id="filter7_f_1996_23840" x="35.7746" y="10.8249" width="20.8382" height="22.8803" filterUnits="userSpaceOnUse" color-interpolation-filters="sRGB">
<feFlood flood-opacity="0" result="BackgroundImageFix"/>
<feBlend mode="normal" in="SourceGraphic" in2="BackgroundImageFix" result="shape"/>
<feGaussianBlur stdDeviation="2.82963" result="effect1_foregroundBlur_1996_23840"/>
</filter>
<filter id="filter8_bii_1996_23840" x="41.6283" y="24.9875" width="19.6179" height="20.5771" filterUnits="userSpaceOnUse" color-interpolation-filters="sRGB">
<feFlood flood-opacity="0" result="BackgroundImageFix"/>
<feGaussianBlur in="BackgroundImageFix" stdDeviation="1.5"/>
<feComposite in2="SourceAlpha" operator="in" result="effect1_backgroundBlur_1996_23840"/>
<feBlend mode="normal" in="SourceGraphic" in2="effect1_backgroundBlur_1996_23840" result="shape"/>
<feColorMatrix in="SourceAlpha" type="matrix" values="0 0 0 0 0 0 0 0 0 0 0 0 0 0 0 0 0 0 127 0" result="hardAlpha"/>
<feOffset dx="5" dy="-5"/>
<feGaussianBlur stdDeviation="5"/>
<feComposite in2="hardAlpha" operator="arithmetic" k2="-1" k3="1"/>
<feColorMatrix type="matrix" values="0 0 0 0 0 0 0 0 0 0 0 0 0 0 0 0 0 0 0.32 0"/>
<feBlend mode="normal" in2="shape" result="effect2_innerShadow_1996_23840"/>
<feColorMatrix in="SourceAlpha" type="matrix" values="0 0 0 0 0 0 0 0 0 0 0 0 0 0 0 0 0 0 127 0" result="hardAlpha"/>
<feOffset dx="-5" dy="5"/>
<feGaussianBlur stdDeviation="5"/>
<feComposite in2="hardAlpha" operator="arithmetic" k2="-1" k3="1"/>
<feColorMatrix type="matrix" values="0 0 0 0 1 0 0 0 0 1 0 0 0 0 1 0 0 0 0.5 0"/>
<feBlend mode="normal" in2="effect2_innerShadow_1996_23840" result="effect3_innerShadow_1996_23840"/>
</filter>
<filter id="filter9_f_1996_23840" x="47.3585" y="29.4474" width="8.85632" height="8.48688" filterUnits="userSpaceOnUse" color-interpolation-filters="sRGB">
<feFlood flood-opacity="0" result="BackgroundImageFix"/>
<feBlend mode="normal" in="SourceGraphic" in2="BackgroundImageFix" result="shape"/>
<feGaussianBlur stdDeviation="1" result="effect1_foregroundBlur_1996_23840"/>
</filter>
<filter id="filter10_bii_1996_23840" x="9.75378" y="24.9875" width="19.6179" height="20.5771" filterUnits="userSpaceOnUse" color-interpolation-filters="sRGB">
<feFlood flood-opacity="0" result="BackgroundImageFix"/>
<feGaussianBlur in="BackgroundImageFix" stdDeviation="1.5"/>
<feComposite in2="SourceAlpha" operator="in" result="effect1_backgroundBlur_1996_23840"/>
<feBlend mode="normal" in="SourceGraphic" in2="effect1_backgroundBlur_1996_23840" result="shape"/>
<feColorMatrix in="SourceAlpha" type="matrix" values="0 0 0 0 0 0 0 0 0 0 0 0 0 0 0 0 0 0 127 0" result="hardAlpha"/>
<feOffset dx="5" dy="-5"/>
<feGaussianBlur stdDeviation="5"/>
<feComposite in2="hardAlpha" operator="arithmetic" k2="-1" k3="1"/>
<feColorMatrix type="matrix" values="0 0 0 0 0 0 0 0 0 0 0 0 0 0 0 0 0 0 0.32 0"/>
<feBlend mode="normal" in2="shape" result="effect2_innerShadow_1996_23840"/>
<feColorMatrix in="SourceAlpha" type="matrix" values="0 0 0 0 0 0 0 0 0 0 0 0 0 0 0 0 0 0 127 0" result="hardAlpha"/>
<feOffset dx="-5" dy="5"/>
<feGaussianBlur stdDeviation="5"/>
<feComposite in2="hardAlpha" operator="arithmetic" k2="-1" k3="1"/>
<feColorMatrix type="matrix" values="0 0 0 0 1 0 0 0 0 1 0 0 0 0 1 0 0 0 0.5 0"/>
<feBlend mode="normal" in2="effect2_innerShadow_1996_23840" result="effect3_innerShadow_1996_23840"/>
</filter>
<filter id="filter11_f_1996_23840" x="19.4579" y="28.5647" width="6.14612" height="10.2523" filterUnits="userSpaceOnUse" color-interpolation-filters="sRGB">
<feFlood flood-opacity="0" result="BackgroundImageFix"/>
<feBlend mode="normal" in="SourceGraphic" in2="BackgroundImageFix" result="shape"/>
<feGaussianBlur stdDeviation="1" result="effect1_foregroundBlur_1996_23840"/>
</filter>
<linearGradient id="paint0_linear_1996_23840" x1="4" y1="9.3363" x2="44.3274" y2="49.6637" gradientUnits="userSpaceOnUse">
<stop stop-color="#E32900"/>
<stop offset="0.494792" stop-color="#C6E216"/>
<stop offset="1" stop-color="#D808FA"/>
</linearGradient>
<clipPath id="clip0_1996_23840">
<rect width="60" height="60" fill="white"/>
</clipPath>
</defs>
</svg>
