<svg width="16" height="16" viewBox="0 0 16 16" fill="none" xmlns="http://www.w3.org/2000/svg">
<path d="M12.766 15.5488C12.6809 15.5488 12.6809 15.5488 12.5957 15.5488H6.7234C5.95745 15.5488 5.19149 15.2935 4.68085 14.7829C4.42553 15.2084 3.91489 15.5488 3.31915 15.5488H1.61702C0.765958 15.5488 0 14.868 0 13.9318V7.97437C0 7.12331 0.680851 6.35735 1.61702 6.35735H4.17021C5.61702 6.35735 6.80851 5.16586 6.80851 3.71905V2.86799C6.80851 1.50629 7.91489 0.399902 9.2766 0.399902C10.6383 0.399902 11.7447 1.50629 11.7447 2.86799V6.35735H13.5319C14.8936 6.35735 16 7.46373 16 8.82543C16 8.91054 16 8.91054 16 8.99565L15.1489 13.251C14.8085 14.6127 13.8723 15.5488 12.766 15.5488ZM4.93617 12.2297C4.93617 13.251 5.78723 14.0169 6.7234 14.0169H12.6809C13.1064 14.0169 13.5319 13.5914 13.617 12.9105L14.4681 8.74033C14.4681 8.22969 14.0426 7.80416 13.5319 7.80416H10.9787C10.5532 7.80416 10.2128 7.46373 10.2128 7.0382V2.86799C10.2128 2.35735 9.78723 1.93182 9.2766 1.93182C8.76596 1.93182 8.34043 2.35735 8.34043 2.86799V3.71905C8.34043 5.7616 6.89362 7.46373 4.93617 7.80416V12.2297ZM1.61702 7.88926C1.53191 7.88926 1.53192 7.97437 1.53192 7.97437V13.9318C1.53192 14.0169 1.61702 14.0169 1.61702 14.0169H3.31915C3.40426 14.0169 3.40426 13.9318 3.40426 13.9318V7.88926H1.61702Z" fill="#7E8083"/>
</svg>
