<svg width="60" height="60" viewBox="0 0 60 60" fill="none" xmlns="http://www.w3.org/2000/svg">
<path d="M20 9.94118C22.9177 9.09871 23.9854 7.91001 24.471 4C24.8823 7.27305 25.6912 8.70194 29 9.94118C26.4171 10.6495 25.2496 11.6179 24.471 16C23.7541 12.406 23.0508 10.7503 20 9.94118Z" fill="url(#paint0_linear_1996_23460)"/>
<g filter="url(#filter0_bii_1996_23460)">
<path d="M40.4821 31.01H41.947C44.5104 33.5002 43.9977 45.7316 41.947 47.4894H39.823C38.7243 47.4894 38.4314 47.7091 37.5525 48.8077C36.6736 49.9064 36.4538 50.5655 33.0115 52.3234C30.2576 53.7296 24.3445 53.2999 21.7322 52.9093C20.1697 53.6417 16.4295 54.711 13.9686 53.129C11.5077 51.547 11.8202 48.8566 12.284 47.7091C9.57409 46.757 9.57409 42.0695 11.3319 41.0441C8.03601 39.799 8.32897 34.3059 12.3573 34.0861C11.1854 33.9641 8.85631 33.0608 8.9149 30.424C8.9735 27.7873 11.3807 27.0793 12.577 27.0549C13.6756 26.9817 16.4881 26.8205 18.949 26.762C20.5604 26.762 20.9266 27.0549 21.5857 27.2746C23.9295 27.1282 27.0056 27.8606 27.2254 23.9055C27.4451 19.9505 29.1296 16.1419 31.6199 14.2376C34.1101 12.3333 35.4284 12.9925 36.6735 13.7982C37.9187 14.6038 36.7468 17.2405 36.0144 18.1927C35.282 19.1448 34.5495 21.4885 34.4031 23.5393C34.2566 25.5901 36.7468 27.4944 37.8454 28.2268C38.9441 28.9592 39.4567 29.7649 39.823 30.424C40.1159 30.9514 40.3845 31.0344 40.4821 31.01Z" fill="url(#paint1_linear_1996_23460)"/>
</g>
<g filter="url(#filter1_d_1996_23460)">
<g filter="url(#filter2_ii_1996_23460)">
<path d="M15.2869 53.7149C11.4783 52.4259 11.6981 49.1739 12.284 47.7091C14.7223 48.9857 20.1388 47.6869 21.2195 47.3429C24.0759 48.2218 23.2703 52.1036 21.7322 52.9093C20.1941 53.7149 17.118 54.3009 15.2869 53.7149Z" fill="white" fill-opacity="0.01"/>
</g>
<g filter="url(#filter3_ii_1996_23460)">
<path d="M20.5604 40.9708L11.3319 41.0441C11.3319 41.0441 9.35437 42.4357 10.453 45.7315C10.8925 46.8302 11.3319 47.1964 12.2841 47.7091C14.4604 48.8809 19.535 47.7823 20.4139 47.5626C21.2928 47.3429 23.3436 46.6104 23.7098 43.9737C24.0028 41.8644 21.7323 41.0929 20.5604 40.9708Z" fill="white" fill-opacity="0.01"/>
</g>
<g filter="url(#filter4_ii_1996_23460)">
<path d="M19.5351 33.9397L12.3574 34.0862C10.7459 34.0862 9.0029 35.5071 9.0615 37.675C9.12009 39.843 10.6484 40.8244 11.4052 41.0442C13.871 41.0197 19.081 40.9709 20.1943 40.9709C21.5858 40.9709 23.9296 40.7512 24.2226 37.3821C24.4569 34.6868 21.1952 33.9641 19.5351 33.9397Z" fill="white" fill-opacity="0.01"/>
</g>
<g filter="url(#filter5_ii_1996_23460)">
<path d="M23.49 31.01C24.0174 29.135 22.4402 27.7385 21.5857 27.2747C19.7547 26.3225 16.8983 26.9817 13.8221 26.9817C12.7235 27.0549 8.98815 26.9817 8.9149 30.3508C8.85631 33.0461 11.1854 33.9641 12.3573 34.0862C14.5057 34.0617 18.993 33.9983 19.7547 33.9397C20.7068 33.8664 22.8309 33.3537 23.49 31.01Z" fill="white" fill-opacity="0.01"/>
</g>
</g>
<path d="M15.2869 53.7149C11.4783 52.4259 11.6981 49.1739 12.284 47.7091C14.7223 48.9857 20.1388 47.6869 21.2195 47.3429C24.0759 48.2218 23.2703 52.1036 21.7322 52.9093C20.1941 53.7149 17.118 54.3009 15.2869 53.7149Z" fill="url(#paint2_linear_1996_23460)"/>
<g filter="url(#filter6_bii_1996_23460)">
<path d="M40.4823 30.4241C40.2479 30.4241 40.1405 30.717 40.1161 30.8635C41.7274 30.8635 41.9471 47.4894 40.0428 47.4894C40.0428 48.0754 40.2626 48.6613 40.6288 48.6613H49.3091C49.9435 48.6613 50.5333 48.3866 50.7043 47.7757C51.5052 44.9147 51.7298 36.4346 50.7674 32.007C50.5541 31.0257 49.6434 30.4241 48.6393 30.4241H40.4823Z" fill="#D808FA"/>
</g>
<g filter="url(#filter7_f_1996_23460)">
<path d="M35.2813 46.3806C38.3694 39.1483 28.0446 40.8591 27.7738 38.9366C27.503 37.0141 38.7761 35.7381 40.6677 39.8685C42.5593 43.999 31.4211 55.4209 35.2813 46.3806Z" fill="url(#paint3_radial_1996_23460)" fill-opacity="0.5"/>
</g>
<g filter="url(#filter8_f_1996_23460)">
<path d="M32.9588 43.0372C31.4549 42.1661 28.4513 41.3851 27.1309 42.3868C25.8105 43.3885 22.3955 45.9459 22.0916 47.7894C21.7876 49.6328 23.4751 52.3767 25.7847 52.9358C28.0943 53.4949 35.0261 52.4099 36.0082 50.6672C36.9903 48.9246 36.4785 46.8519 36.1931 46.0541C35.9078 45.2562 34.4627 43.9082 32.9588 43.0372Z" fill="url(#paint4_radial_1996_23460)" fill-opacity="0.16"/>
</g>
<g filter="url(#filter9_f_1996_23460)">
<path d="M25.8667 34.7385C26.205 35.9494 27.4904 37.9003 28.9111 38.1021C30.3319 38.3039 33.9852 38.8421 35.3383 38.1021C36.6913 37.3621 37.4355 35.1421 36.4207 33.6621C35.4059 32.1822 30.6025 29.0876 28.9111 29.424C27.2198 29.7603 26.205 31.0385 25.8667 31.5767C25.5285 32.1149 25.5285 33.5276 25.8667 34.7385Z" fill="url(#paint5_radial_1996_23460)" fill-opacity="0.16"/>
</g>
<path d="M20.5604 40.9708L11.3319 41.0441C11.3319 41.0441 9.35437 42.4357 10.453 45.7315C10.8925 46.8302 11.3319 47.1964 12.2841 47.7091C14.4604 48.8809 19.535 47.7823 20.4139 47.5626C21.2928 47.3429 23.3436 46.6104 23.7098 43.9737C24.0028 41.8644 21.7323 41.0929 20.5604 40.9708Z" fill="url(#paint6_linear_1996_23460)"/>
<path d="M19.5351 33.9397L12.3574 34.0862C10.7459 34.0862 9.0029 35.5071 9.0615 37.675C9.12009 39.843 10.6484 40.8244 11.4052 41.0442C13.871 41.0197 19.081 40.9709 20.1943 40.9709C21.5858 40.9709 23.9296 40.7512 24.2226 37.3821C24.4569 34.6868 21.1952 33.9641 19.5351 33.9397Z" fill="url(#paint7_linear_1996_23460)"/>
<path d="M23.49 31.01C24.0174 29.135 22.4402 27.7385 21.5857 27.2747C19.7547 26.3225 16.8983 26.9817 13.8221 26.9817C12.7235 27.0549 8.98815 26.9817 8.9149 30.3508C8.85631 33.0461 11.1854 33.9641 12.3573 34.0862C14.5057 34.0617 18.993 33.9983 19.7547 33.9397C20.7068 33.8664 22.8309 33.3537 23.49 31.01Z" fill="url(#paint8_linear_1996_23460)"/>
<g filter="url(#filter10_bii_1996_23460)">
<path d="M26.107 35.9948C34.7358 33.4417 38.3246 29.7395 40.0683 19.2421C40.1257 18.8963 40.6779 18.8984 40.7364 19.2441C42.2255 28.0441 45.2506 32.3179 55.0744 35.9733C55.3519 36.0766 55.3349 36.4842 55.0497 36.5635C47.1166 38.7697 43.2729 42.0248 40.6911 54.5237C40.6247 54.8449 40.1525 54.849 40.0813 54.5288C37.7975 44.2662 35.2573 39.2152 26.1116 36.6059C25.8146 36.5212 25.8108 36.0824 26.107 35.9948Z" fill="white" fill-opacity="0.5"/>
</g>
<defs>
<filter id="filter0_bii_1996_23460" x="5.39821" y="11.5352" width="39.7492" height="43.8776" filterUnits="userSpaceOnUse" color-interpolation-filters="sRGB">
<feFlood flood-opacity="0" result="BackgroundImageFix"/>
<feGaussianBlur in="BackgroundImageFix" stdDeviation="0.732418"/>
<feComposite in2="SourceAlpha" operator="in" result="effect1_backgroundBlur_1996_23460"/>
<feBlend mode="normal" in="SourceGraphic" in2="effect1_backgroundBlur_1996_23460" result="shape"/>
<feColorMatrix in="SourceAlpha" type="matrix" values="0 0 0 0 0 0 0 0 0 0 0 0 0 0 0 0 0 0 127 0" result="hardAlpha"/>
<feOffset dx="-3.51561" dy="1.17187"/>
<feGaussianBlur stdDeviation="2.34374"/>
<feComposite in2="hardAlpha" operator="arithmetic" k2="-1" k3="1"/>
<feColorMatrix type="matrix" values="0 0 0 0 1 0 0 0 0 1 0 0 0 0 1 0 0 0 0.5 0"/>
<feBlend mode="normal" in2="shape" result="effect2_innerShadow_1996_23460"/>
<feColorMatrix in="SourceAlpha" type="matrix" values="0 0 0 0 0 0 0 0 0 0 0 0 0 0 0 0 0 0 127 0" result="hardAlpha"/>
<feOffset dx="0.878902" dy="-0.878902"/>
<feGaussianBlur stdDeviation="1.7578"/>
<feComposite in2="hardAlpha" operator="arithmetic" k2="-1" k3="1"/>
<feColorMatrix type="matrix" values="0 0 0 0 0 0 0 0 0 0 0 0 0 0 0 0 0 0 0.5 0"/>
<feBlend mode="normal" in2="effect2_innerShadow_1996_23460" result="effect3_innerShadow_1996_23460"/>
</filter>
<filter id="filter1_d_1996_23460" x="7.15601" y="25.0017" width="20.0082" height="31.8804" filterUnits="userSpaceOnUse" color-interpolation-filters="sRGB">
<feFlood flood-opacity="0" result="BackgroundImageFix"/>
<feColorMatrix in="SourceAlpha" type="matrix" values="0 0 0 0 0 0 0 0 0 0 0 0 0 0 0 0 0 0 127 0" result="hardAlpha"/>
<feOffset dx="0.585935" dy="0.585935"/>
<feGaussianBlur stdDeviation="1.17187"/>
<feComposite in2="hardAlpha" operator="out"/>
<feColorMatrix type="matrix" values="0 0 0 0 0 0 0 0 0 0 0 0 0 0 0 0 0 0 0.12 0"/>
<feBlend mode="normal" in2="BackgroundImageFix" result="effect1_dropShadow_1996_23460"/>
<feBlend mode="normal" in="SourceGraphic" in2="effect1_dropShadow_1996_23460" result="shape"/>
</filter>
<filter id="filter2_ii_1996_23460" x="11.0748" y="46.464" width="15.5664" height="9.2462" filterUnits="userSpaceOnUse" color-interpolation-filters="sRGB">
<feFlood flood-opacity="0" result="BackgroundImageFix"/>
<feBlend mode="normal" in="SourceGraphic" in2="BackgroundImageFix" result="shape"/>
<feColorMatrix in="SourceAlpha" type="matrix" values="0 0 0 0 0 0 0 0 0 0 0 0 0 0 0 0 0 0 127 0" result="hardAlpha"/>
<feOffset dx="-0.878902" dy="1.7578"/>
<feGaussianBlur stdDeviation="1.7578"/>
<feComposite in2="hardAlpha" operator="arithmetic" k2="-1" k3="1"/>
<feColorMatrix type="matrix" values="0 0 0 0 1 0 0 0 0 1 0 0 0 0 1 0 0 0 0.32 0"/>
<feBlend mode="normal" in2="shape" result="effect1_innerShadow_1996_23460"/>
<feColorMatrix in="SourceAlpha" type="matrix" values="0 0 0 0 0 0 0 0 0 0 0 0 0 0 0 0 0 0 127 0" result="hardAlpha"/>
<feOffset dx="4.68748" dy="-0.878902"/>
<feGaussianBlur stdDeviation="1.7578"/>
<feComposite in2="hardAlpha" operator="arithmetic" k2="-1" k3="1"/>
<feColorMatrix type="matrix" values="0 0 0 0 0 0 0 0 0 0 0 0 0 0 0 0 0 0 0.32 0"/>
<feBlend mode="normal" in2="effect1_innerShadow_1996_23460" result="effect2_innerShadow_1996_23460"/>
</filter>
<filter id="filter3_ii_1996_23460" x="9.24183" y="40.0919" width="18.0094" height="9.90666" filterUnits="userSpaceOnUse" color-interpolation-filters="sRGB">
<feFlood flood-opacity="0" result="BackgroundImageFix"/>
<feBlend mode="normal" in="SourceGraphic" in2="BackgroundImageFix" result="shape"/>
<feColorMatrix in="SourceAlpha" type="matrix" values="0 0 0 0 0 0 0 0 0 0 0 0 0 0 0 0 0 0 127 0" result="hardAlpha"/>
<feOffset dx="-0.878902" dy="1.7578"/>
<feGaussianBlur stdDeviation="1.7578"/>
<feComposite in2="hardAlpha" operator="arithmetic" k2="-1" k3="1"/>
<feColorMatrix type="matrix" values="0 0 0 0 1 0 0 0 0 1 0 0 0 0 1 0 0 0 0.32 0"/>
<feBlend mode="normal" in2="shape" result="effect1_innerShadow_1996_23460"/>
<feColorMatrix in="SourceAlpha" type="matrix" values="0 0 0 0 0 0 0 0 0 0 0 0 0 0 0 0 0 0 127 0" result="hardAlpha"/>
<feOffset dx="4.68748" dy="-0.878902"/>
<feGaussianBlur stdDeviation="1.7578"/>
<feComposite in2="hardAlpha" operator="arithmetic" k2="-1" k3="1"/>
<feColorMatrix type="matrix" values="0 0 0 0 0 0 0 0 0 0 0 0 0 0 0 0 0 0 0.32 0"/>
<feBlend mode="normal" in2="effect1_innerShadow_1996_23460" result="effect2_innerShadow_1996_23460"/>
</filter>
<filter id="filter4_ii_1996_23460" x="8.18116" y="33.0608" width="19.5689" height="9.74114" filterUnits="userSpaceOnUse" color-interpolation-filters="sRGB">
<feFlood flood-opacity="0" result="BackgroundImageFix"/>
<feBlend mode="normal" in="SourceGraphic" in2="BackgroundImageFix" result="shape"/>
<feColorMatrix in="SourceAlpha" type="matrix" values="0 0 0 0 0 0 0 0 0 0 0 0 0 0 0 0 0 0 127 0" result="hardAlpha"/>
<feOffset dx="-0.878902" dy="1.7578"/>
<feGaussianBlur stdDeviation="1.7578"/>
<feComposite in2="hardAlpha" operator="arithmetic" k2="-1" k3="1"/>
<feColorMatrix type="matrix" values="0 0 0 0 1 0 0 0 0 1 0 0 0 0 1 0 0 0 0.32 0"/>
<feBlend mode="normal" in2="shape" result="effect1_innerShadow_1996_23460"/>
<feColorMatrix in="SourceAlpha" type="matrix" values="0 0 0 0 0 0 0 0 0 0 0 0 0 0 0 0 0 0 127 0" result="hardAlpha"/>
<feOffset dx="4.68748" dy="-0.878902"/>
<feGaussianBlur stdDeviation="1.7578"/>
<feComposite in2="hardAlpha" operator="arithmetic" k2="-1" k3="1"/>
<feColorMatrix type="matrix" values="0 0 0 0 0 0 0 0 0 0 0 0 0 0 0 0 0 0 0.32 0"/>
<feBlend mode="normal" in2="effect1_innerShadow_1996_23460" result="effect2_innerShadow_1996_23460"/>
</filter>
<filter id="filter5_ii_1996_23460" x="8.03492" y="25.8806" width="19.0763" height="9.96343" filterUnits="userSpaceOnUse" color-interpolation-filters="sRGB">
<feFlood flood-opacity="0" result="BackgroundImageFix"/>
<feBlend mode="normal" in="SourceGraphic" in2="BackgroundImageFix" result="shape"/>
<feColorMatrix in="SourceAlpha" type="matrix" values="0 0 0 0 0 0 0 0 0 0 0 0 0 0 0 0 0 0 127 0" result="hardAlpha"/>
<feOffset dx="-0.878902" dy="1.7578"/>
<feGaussianBlur stdDeviation="1.7578"/>
<feComposite in2="hardAlpha" operator="arithmetic" k2="-1" k3="1"/>
<feColorMatrix type="matrix" values="0 0 0 0 1 0 0 0 0 1 0 0 0 0 1 0 0 0 0.32 0"/>
<feBlend mode="normal" in2="shape" result="effect1_innerShadow_1996_23460"/>
<feColorMatrix in="SourceAlpha" type="matrix" values="0 0 0 0 0 0 0 0 0 0 0 0 0 0 0 0 0 0 127 0" result="hardAlpha"/>
<feOffset dx="4.68748" dy="-0.878902"/>
<feGaussianBlur stdDeviation="1.7578"/>
<feComposite in2="hardAlpha" operator="arithmetic" k2="-1" k3="1"/>
<feColorMatrix type="matrix" values="0 0 0 0 0 0 0 0 0 0 0 0 0 0 0 0 0 0 0.32 0"/>
<feBlend mode="normal" in2="effect1_innerShadow_1996_23460" result="effect2_innerShadow_1996_23460"/>
</filter>
<filter id="filter6_bii_1996_23460" x="36.5272" y="28.9592" width="16.3391" height="21.1669" filterUnits="userSpaceOnUse" color-interpolation-filters="sRGB">
<feFlood flood-opacity="0" result="BackgroundImageFix"/>
<feGaussianBlur in="BackgroundImageFix" stdDeviation="0.732418"/>
<feComposite in2="SourceAlpha" operator="in" result="effect1_backgroundBlur_1996_23460"/>
<feBlend mode="normal" in="SourceGraphic" in2="effect1_backgroundBlur_1996_23460" result="shape"/>
<feColorMatrix in="SourceAlpha" type="matrix" values="0 0 0 0 0 0 0 0 0 0 0 0 0 0 0 0 0 0 127 0" result="hardAlpha"/>
<feOffset dx="-3.51561" dy="1.17187"/>
<feGaussianBlur stdDeviation="2.34374"/>
<feComposite in2="hardAlpha" operator="arithmetic" k2="-1" k3="1"/>
<feColorMatrix type="matrix" values="0 0 0 0 1 0 0 0 0 1 0 0 0 0 1 0 0 0 0.5 0"/>
<feBlend mode="normal" in2="shape" result="effect2_innerShadow_1996_23460"/>
<feColorMatrix in="SourceAlpha" type="matrix" values="0 0 0 0 0 0 0 0 0 0 0 0 0 0 0 0 0 0 127 0" result="hardAlpha"/>
<feOffset dx="0.878902" dy="-0.878902"/>
<feGaussianBlur stdDeviation="1.7578"/>
<feComposite in2="hardAlpha" operator="arithmetic" k2="-1" k3="1"/>
<feColorMatrix type="matrix" values="0 0 0 0 0 0 0 0 0 0 0 0 0 0 0 0 0 0 0.5 0"/>
<feBlend mode="normal" in2="effect2_innerShadow_1996_23460" result="effect3_innerShadow_1996_23460"/>
</filter>
<filter id="filter7_f_1996_23460" x="25.4252" y="34.7871" width="17.8044" height="17.331" filterUnits="userSpaceOnUse" color-interpolation-filters="sRGB">
<feFlood flood-opacity="0" result="BackgroundImageFix"/>
<feBlend mode="normal" in="SourceGraphic" in2="BackgroundImageFix" result="shape"/>
<feGaussianBlur stdDeviation="1.17187" result="effect1_foregroundBlur_1996_23460"/>
</filter>
<filter id="filter8_f_1996_23460" x="19.7124" y="39.5729" width="19.2147" height="15.8545" filterUnits="userSpaceOnUse" color-interpolation-filters="sRGB">
<feFlood flood-opacity="0" result="BackgroundImageFix"/>
<feBlend mode="normal" in="SourceGraphic" in2="BackgroundImageFix" result="shape"/>
<feGaussianBlur stdDeviation="1.17187" result="effect1_foregroundBlur_1996_23460"/>
</filter>
<filter id="filter9_f_1996_23460" x="23.2693" y="27.0549" width="15.9668" height="13.7694" filterUnits="userSpaceOnUse" color-interpolation-filters="sRGB">
<feFlood flood-opacity="0" result="BackgroundImageFix"/>
<feBlend mode="normal" in="SourceGraphic" in2="BackgroundImageFix" result="shape"/>
<feGaussianBlur stdDeviation="1.17187" result="effect1_foregroundBlur_1996_23460"/>
</filter>
<filter id="filter10_bii_1996_23460" x="19.8868" y="12.9838" width="41.3866" height="47.783" filterUnits="userSpaceOnUse" color-interpolation-filters="sRGB">
<feFlood flood-opacity="0" result="BackgroundImageFix"/>
<feGaussianBlur in="BackgroundImageFix" stdDeviation="1.5"/>
<feComposite in2="SourceAlpha" operator="in" result="effect1_backgroundBlur_1996_23460"/>
<feBlend mode="normal" in="SourceGraphic" in2="effect1_backgroundBlur_1996_23460" result="shape"/>
<feColorMatrix in="SourceAlpha" type="matrix" values="0 0 0 0 0 0 0 0 0 0 0 0 0 0 0 0 0 0 127 0" result="hardAlpha"/>
<feOffset dx="6" dy="-6"/>
<feGaussianBlur stdDeviation="6"/>
<feComposite in2="hardAlpha" operator="arithmetic" k2="-1" k3="1"/>
<feColorMatrix type="matrix" values="0 0 0 0 0 0 0 0 0 0 0 0 0 0 0 0 0 0 0.32 0"/>
<feBlend mode="normal" in2="shape" result="effect2_innerShadow_1996_23460"/>
<feColorMatrix in="SourceAlpha" type="matrix" values="0 0 0 0 0 0 0 0 0 0 0 0 0 0 0 0 0 0 127 0" result="hardAlpha"/>
<feOffset dx="-6" dy="6"/>
<feGaussianBlur stdDeviation="6"/>
<feComposite in2="hardAlpha" operator="arithmetic" k2="-1" k3="1"/>
<feColorMatrix type="matrix" values="0 0 0 0 1 0 0 0 0 1 0 0 0 0 1 0 0 0 0.5 0"/>
<feBlend mode="normal" in2="effect2_innerShadow_1996_23460" result="effect3_innerShadow_1996_23460"/>
</filter>
<linearGradient id="paint0_linear_1996_23460" x1="21.9161" y1="8.11765" x2="27.709" y2="10.6714" gradientUnits="userSpaceOnUse">
<stop stop-color="#E32900"/>
<stop offset="0.494792" stop-color="#C6E216"/>
<stop offset="1" stop-color="#D808FA"/>
</linearGradient>
<linearGradient id="paint1_linear_1996_23460" x1="9" y1="25" x2="60.8717" y2="42.4769" gradientUnits="userSpaceOnUse">
<stop stop-color="#E32900"/>
<stop offset="0.494792" stop-color="#C6E216"/>
<stop offset="1" stop-color="#D808FA"/>
</linearGradient>
<linearGradient id="paint2_linear_1996_23460" x1="21.4283" y1="47.8737" x2="18.7017" y2="51.412" gradientUnits="userSpaceOnUse">
<stop stop-color="white" stop-opacity="0.16"/>
<stop offset="1" stop-color="white" stop-opacity="0"/>
</linearGradient>
<radialGradient id="paint3_radial_1996_23460" cx="0" cy="0" r="1" gradientUnits="userSpaceOnUse" gradientTransform="translate(41.2687 42.8595) rotate(-151.474) scale(13.2698 17.9547)">
<stop stop-color="white"/>
<stop offset="1" stop-color="white" stop-opacity="0"/>
</radialGradient>
<radialGradient id="paint4_radial_1996_23460" cx="0" cy="0" r="1" gradientUnits="userSpaceOnUse" gradientTransform="translate(29.553 48.3268) rotate(-137.604) scale(7.8896 8.05212)">
<stop/>
<stop offset="1" stop-opacity="0"/>
</radialGradient>
<radialGradient id="paint5_radial_1996_23460" cx="0" cy="0" r="1" gradientUnits="userSpaceOnUse" gradientTransform="translate(31.2527 33.9396) rotate(89.2559) scale(5.6401 7.00464)">
<stop/>
<stop offset="1" stop-opacity="0"/>
</radialGradient>
<linearGradient id="paint6_linear_1996_23460" x1="21.6671" y1="41.5547" x2="18.7595" y2="45.7353" gradientUnits="userSpaceOnUse">
<stop stop-color="white" stop-opacity="0.16"/>
<stop offset="1" stop-color="white" stop-opacity="0"/>
</linearGradient>
<linearGradient id="paint7_linear_1996_23460" x1="21.9291" y1="34.5103" x2="19.2346" y2="38.9288" gradientUnits="userSpaceOnUse">
<stop stop-color="white" stop-opacity="0.16"/>
<stop offset="1" stop-color="white" stop-opacity="0"/>
</linearGradient>
<linearGradient id="paint8_linear_1996_23460" x1="21.3649" y1="27.3479" x2="18.5085" y2="31.7424" gradientUnits="userSpaceOnUse">
<stop stop-color="white" stop-opacity="0.16"/>
<stop offset="1" stop-color="white" stop-opacity="0"/>
</linearGradient>
</defs>
</svg>
