<svg width="25" height="25" viewBox="0 0 25 25" fill="none" xmlns="http://www.w3.org/2000/svg">
<path d="M12.4112 2.56201C13.0112 2.56201 13.5112 3.06201 13.5112 3.66201V6.46201C13.5112 7.06201 13.0112 7.56201 12.4112 7.56201C11.8112 7.56201 11.3112 7.06201 11.3112 6.46201V3.56201C11.3112 2.96201 11.8112 2.56201 12.4112 2.56201ZM19.2112 5.26201C19.6112 5.76201 19.6112 6.36201 19.2112 6.76201L17.2112 8.76201C16.8112 9.16201 16.1112 9.16201 15.7112 8.76201C15.3112 8.36201 15.3112 7.66201 15.7112 7.26201L17.7112 5.26201C18.1112 4.86201 18.8112 4.86201 19.2112 5.26201ZM17.0112 12.162C17.0112 11.562 17.5112 11.062 18.1112 11.062H20.9112C21.5112 11.062 22.0112 11.562 22.0112 12.162C22.0112 12.762 21.5112 13.262 20.9112 13.262H18.1112C17.5112 13.162 17.0112 12.762 17.0112 12.162ZM15.7112 15.462C16.1112 15.062 16.8112 15.062 17.2112 15.462L19.2112 17.462C19.6112 17.862 19.6112 18.562 19.2112 18.962C18.8112 19.362 18.1112 19.362 17.7112 18.962L15.7112 16.962C15.2112 16.462 15.2112 15.862 15.7112 15.462ZM12.4112 16.762C13.0112 16.762 13.5112 17.262 13.5112 17.862V20.662C13.5112 21.262 13.0112 21.762 12.4112 21.762C11.8112 21.762 11.3112 21.262 11.3112 20.662V17.862C11.3112 17.262 11.8112 16.762 12.4112 16.762ZM9.11116 15.462C9.51116 15.862 9.51116 16.562 9.11116 16.962L7.11116 18.962C6.61116 19.362 6.01116 19.362 5.51116 18.962C5.11116 18.562 5.11116 17.862 5.51116 17.462L7.51116 15.462C8.01116 14.962 8.71116 14.962 9.11116 15.462ZM2.81116 12.162C2.81116 11.562 3.31116 11.062 3.91116 11.062H6.71116C7.31116 11.062 7.81116 11.562 7.81116 12.162C7.81116 12.762 7.31116 13.262 6.71116 13.262H3.81116C3.21116 13.162 2.81116 12.762 2.81116 12.162ZM5.51116 5.26201C5.91116 4.86201 6.61116 4.86201 7.01116 5.26201L9.01116 7.26201C9.41116 7.66201 9.41116 8.36201 9.01116 8.76201C8.61116 9.16201 8.01116 9.26201 7.61116 8.86201L5.61116 6.86201C5.11116 6.36201 5.11116 5.76201 5.51116 5.26201Z" fill="black"/>
</svg>
