<svg width="25" height="25" viewBox="0 0 25 25" fill="none" xmlns="http://www.w3.org/2000/svg">
<path fill-rule="evenodd" clip-rule="evenodd" d="M20.3957 2.63644L3.89783 8.59402C3.86654 8.60532 3.83573 8.61791 3.80549 8.63177C3.19963 8.90941 2.81119 9.51471 2.81119 10.1811C2.81119 10.8388 3.18946 11.4369 3.78164 11.7194L9.82978 14.7434L12.8539 20.7916C13.1363 21.3838 13.7344 21.762 14.3921 21.762C15.0585 21.762 15.6638 21.3736 15.9415 20.7677C15.9553 20.7375 15.9679 20.7067 15.9792 20.6754L21.9368 4.17739C21.9592 4.11679 21.9767 4.05431 21.9891 3.99057C22.0159 3.8535 22.0178 3.71575 21.9976 3.58274C21.9836 3.49068 21.9589 3.40089 21.9244 3.31516C21.8623 3.16024 21.7712 3.02501 21.6595 2.91354C21.5481 2.80198 21.4129 2.71086 21.2581 2.64879C21.1869 2.62019 21.113 2.59835 21.0373 2.58374C20.9008 2.55735 20.7637 2.55549 20.6313 2.57565C20.5506 2.58793 20.4717 2.60839 20.3957 2.63644ZM18.8139 5.75929L6.28014 10.2854L11.2608 12.7757C11.4931 12.8919 11.6814 13.0802 11.7975 13.3124L14.2878 18.2931L18.8139 5.75929Z" fill="black"/>
</svg>
