<svg width="102" height="130" viewBox="0 0 102 130" fill="none" xmlns="http://www.w3.org/2000/svg">
<path d="M101.266 51.2638C101.266 23.5442 78.7318 0.94873 51.1048 0.94873C23.4469 0.94873 0.944054 23.5442 0.944054 51.2638V77.9339C0.944054 78.2117 0.944054 78.4587 0.944054 78.7365C0.944054 106.61 23.3235 129.052 51.1048 129.052C78.8862 129.052 101.266 106.456 101.266 78.7365V52.0664C101.266 51.7886 101.266 51.5417 101.266 51.2638ZM88.6096 65.1236C88.0849 65.6484 87.4367 66.1732 86.6341 66.6979C86.3563 66.8214 86.2328 66.9757 85.9859 67.0992C85.5846 67.377 85.1833 67.624 84.8129 67.7474C83.7633 68.2722 82.5595 68.797 81.3865 69.3217C79.6887 69.8465 77.7132 70.2478 75.5833 70.2478C73.3299 70.2478 71.5087 69.97 70.1813 69.723C68.7305 69.3217 67.681 68.55 67.0328 67.4696C66.3846 66.3892 66.1068 64.9693 66.1068 62.9937V52.0355C66.1068 37.8979 62.4334 27.4645 42.1531 27.4645V21.1674C40.7023 26.1989 28.7254 33.9777 28.7254 33.9777C28.7254 33.9777 40.8257 41.7564 42.1531 46.788V40.46C49.2527 40.46 53.4817 41.7873 53.4817 52.3442V64.3519C53.4817 67.1301 53.883 69.5069 54.809 71.359C55.735 73.2111 56.908 74.6619 58.6367 75.7114C60.2109 76.7609 62.063 77.5635 64.1621 78.0883C66.2611 78.613 68.391 78.8909 70.737 78.8909C73.1138 78.8909 75.2129 78.613 77.065 78.0883C77.3428 77.9648 77.5897 77.9648 77.8675 77.8105C79.4418 77.2857 80.8926 76.6066 82.0965 75.9584C83.5473 75.0323 84.8746 74.1063 85.7698 73.0568C86.5723 72.2542 87.0971 71.4825 87.6219 70.8034C87.7453 70.5256 88.0232 70.2786 88.1466 70.0008C88.2701 69.723 88.4244 69.4761 88.5479 69.1982V78.9835C88.5479 99.7269 71.6939 116.612 51.0122 116.612C30.3305 116.612 13.4148 99.7269 13.4148 79.0143C13.4148 78.7365 13.4148 78.4896 13.4148 78.2118V78.0883V63.8272C13.9395 63.5494 14.4643 63.3024 15.2669 63.0246C15.5447 62.9011 15.6682 62.9011 15.9151 62.7468C16.3164 62.6233 16.8412 62.469 17.3659 62.3455C18.292 62.0677 19.218 61.9442 20.1441 61.6973C21.7183 61.4195 23.2926 61.1725 25.0212 61.1725C27.9228 61.1725 30.1453 61.4503 31.7505 61.9751C33.3248 62.4999 34.5286 63.3024 35.1768 64.3519C35.8251 65.4015 36.1029 66.7288 36.1029 68.3031V77.9339C36.1029 92.0716 39.7762 102.505 60.0566 102.505V108.833C61.5074 103.801 73.4842 96.0227 73.4842 96.0227C73.4842 96.0227 61.3839 88.3674 60.0566 83.4902V89.9725C52.9569 89.9725 48.728 88.6452 48.728 78.0883V63.0246C48.728 60.7712 48.2032 58.9191 47.4006 57.3449C46.4746 55.7706 45.3016 54.6902 43.7273 53.7642C42.2765 52.8381 40.4244 52.1899 38.6032 51.7886C36.6277 51.3873 34.6521 51.2638 32.5531 51.2638C29.4045 51.2638 26.6264 51.6651 24.2495 52.4677C24.126 52.4677 23.9717 52.4677 23.9717 52.5912C21.5949 53.3937 19.6193 54.4433 18.045 55.6163C16.4707 56.8201 15.2669 57.8696 14.3717 59.0426C14.0939 59.4439 13.8469 59.8452 13.5691 60.0921V51.3873C13.5691 49.1339 13.8469 46.9114 14.2174 44.7815C17.3659 27.2175 32.6457 13.759 51.2283 13.759C69.6566 13.759 85.0598 27.2175 88.2392 44.7815C88.6405 46.8806 88.8875 49.1339 88.8875 51.3873V65.1236H88.6096Z" fill="url(#paint0_radial_1711_2687)"/>
<defs>
<radialGradient id="paint0_radial_1711_2687" cx="0" cy="0" r="1" gradientUnits="userSpaceOnUse" gradientTransform="translate(0.769513 26.1132) rotate(45.6909) scale(143.863 231.821)">
<stop stop-color="#E32900"/>
<stop offset="0.6017" stop-color="#C6E216"/>
<stop offset="1" stop-color="#D808FA"/>
</radialGradient>
</defs>
</svg>
