<svg width="25" height="25" viewBox="0 0 25 25" fill="none" xmlns="http://www.w3.org/2000/svg">
<path d="M16.6612 21.7659H9.26118C8.66118 21.7659 8.16118 21.2659 8.16118 20.6659C8.16118 20.0659 8.66118 19.5659 9.26118 19.5659H16.7612C17.8612 19.5659 18.6612 18.6659 18.6612 17.6659V4.66592H9.26118C8.66118 4.66592 8.16118 4.16592 8.16118 3.66592C8.16118 3.16592 8.66118 2.56592 9.26118 2.56592H19.7612C20.3612 2.56592 20.8612 3.06592 20.8612 3.66592V17.7659C20.7612 19.9659 18.9612 21.7659 16.6612 21.7659ZM15.3612 11.1659H7.56118L8.86118 9.86592C9.26118 9.46592 9.26118 8.76592 8.86118 8.36592C8.46118 7.86592 7.76118 7.86592 7.36118 8.36592L4.26118 11.4659C4.26118 11.4659 4.26118 11.4659 4.26118 11.5659C4.16118 11.6659 4.16118 11.7659 4.06118 11.8659C4.06118 11.9659 3.96118 12.0659 3.96118 12.2659C3.96118 12.2659 3.96118 12.2659 3.96118 12.3659C3.96118 12.4659 3.96118 12.5659 4.06118 12.6659C4.16118 12.7659 4.16118 12.8659 4.26118 12.9659L7.36118 16.0659C7.56118 16.2659 7.86118 16.3659 8.06118 16.3659C8.26118 16.3659 8.56118 16.2659 8.76118 16.0659C9.16118 15.6659 9.16118 14.9659 8.76118 14.5659L7.46118 13.2659H15.1612C15.7612 13.2659 16.2612 12.7659 16.2612 12.1659C16.3612 11.5659 15.8612 11.1659 15.3612 11.1659Z" fill="black"/>
</svg>
