<svg width="25" height="25" viewBox="0 0 25 25" fill="none" xmlns="http://www.w3.org/2000/svg">
<path d="M20.1875 4.58143C18.7175 -0.685265 16.6441 5.8441 12.2457 7.31702C7.85039 8.78993 2.8012 4.65652 4.27121 9.91628C5.74016 15.183 11.8287 23.057 16.2239 21.5806C20.6182 20.0962 21.6522 9.8435 20.1875 4.58143ZM10.7504 13.4467C9.65525 14.476 7.58293 13.561 7.58293 13.561C7.14382 13.0088 10.6303 9.29939 11.5854 9.7534C11.5854 9.7534 11.8445 12.4174 10.7504 13.4467ZM16.6378 16.8303C16.1113 16.7506 15.6479 16.8454 15.1593 17.0498C14.6402 17.2774 14.179 17.5535 13.7925 17.9532C13.4019 18.3518 13.0775 18.9121 12.8511 19.6722C12.451 18.9837 12.4647 18.0295 12.829 17.2231C13.2018 16.4121 13.8957 15.8334 14.6097 15.5284C15.3531 15.1853 16.3061 15.183 17.0369 15.6185C17.7603 16.0448 18.2499 16.7668 18.3763 17.5674C17.7466 17.1711 17.1674 16.9031 16.6378 16.8303ZM16.5851 11.2436C15.1478 11.1212 14.2738 8.86618 14.2738 8.86618C14.318 8.13607 19.1745 8.21579 19.5578 9.27744C19.5578 9.27744 18.0225 11.3638 16.5851 11.2436Z" fill="black"/>
</svg>
