<svg width="25" height="25" viewBox="0 0 25 25" fill="none" xmlns="http://www.w3.org/2000/svg">
<path d="M22.0073 21.762L16.503 20.461C13.4006 21.9622 9.59769 21.6619 6.69545 19.6604C3.69313 17.5588 2.29205 13.8559 2.99259 10.2531C3.69313 6.85049 6.09498 4.14841 9.49761 3.04756C12.9002 1.94671 16.4029 2.74732 18.8048 5.14918C21.707 7.95134 22.5077 12.5549 20.7063 16.1577L22.0073 21.762ZM12.3999 4.64879C11.5992 4.64879 10.7986 4.74887 10.0981 5.0491C7.39599 5.84972 5.49452 7.95135 4.99413 10.5534C4.49375 13.3555 5.5946 16.2578 7.89637 17.859C10.1982 19.5603 13.4006 19.7605 15.8025 18.3594L16.1027 18.1592L19.105 18.8598L18.4045 15.7574L18.6046 15.3571C20.2059 12.4548 19.7055 8.75196 17.3036 6.55026C16.0026 5.34933 14.3013 4.64879 12.3999 4.64879ZM8.09653 10.9537C7.49607 10.9537 7.09576 11.4541 7.09576 11.9544C7.09576 12.4548 7.59614 12.9552 8.09653 12.9552C8.59692 12.9552 9.0973 12.4548 9.0973 11.9544C9.0973 11.4541 8.69699 10.9537 8.09653 10.9537ZM12.2998 10.9537C11.6993 10.9537 11.299 11.4541 11.299 11.9544C11.299 12.4548 11.7994 12.9552 12.2998 12.9552C12.8002 12.9552 13.3005 12.4548 13.3005 11.9544C13.3005 11.4541 12.8002 10.9537 12.2998 10.9537ZM16.4029 10.9537C15.8025 10.9537 15.4022 11.4541 15.4022 11.9544C15.4022 12.4548 15.9026 12.9552 16.4029 12.9552C17.0034 12.9552 17.4037 12.4548 17.4037 11.9544C17.4037 11.4541 17.0034 10.9537 16.4029 10.9537Z" fill="black"/>
</svg>
