<svg width="25" height="25" viewBox="0 0 25 25" fill="none" xmlns="http://www.w3.org/2000/svg">
<path d="M14.8113 19.3621C14.8113 20.6621 13.7113 21.7621 12.4113 21.7621C11.1113 21.7621 10.0113 20.6621 10.0113 19.3621C10.0113 18.0621 11.1113 16.9621 12.4113 16.9621C13.7113 16.9621 14.8113 18.0621 14.8113 19.3621ZM12.4113 9.76207C11.1113 9.76207 10.0113 10.8621 10.0113 12.1621C10.0113 13.4621 11.1113 14.5621 12.4113 14.5621C13.7113 14.5621 14.8113 13.4621 14.8113 12.1621C14.8113 10.8621 13.7113 9.76207 12.4113 9.76207ZM12.4113 2.56207C11.1113 2.56207 10.0113 3.66207 10.0113 4.96207C10.0113 6.26207 11.1113 7.36207 12.4113 7.36207C13.7113 7.36207 14.8113 6.26207 14.8113 4.96207C14.8113 3.66207 13.7113 2.56207 12.4113 2.56207Z" fill="black"/>
</svg>
