<svg width="25" height="25" viewBox="0 0 25 25" fill="none" xmlns="http://www.w3.org/2000/svg">
<path fill-rule="evenodd" clip-rule="evenodd" d="M9.21794 3.62355C9.21794 3.03943 9.69145 2.56592 10.2756 2.56592H20.9535C21.5376 2.56592 22.0112 3.03943 22.0112 3.62355V17.5049C22.0112 19.8582 20.1034 21.7659 17.7501 21.7659C15.3968 21.7659 13.4891 19.8582 13.4891 17.5049C13.4891 15.1516 15.3968 13.2439 17.7501 13.2439C18.5326 13.2439 19.2657 13.4548 19.8959 13.8228V8.95236H11.3332V17.5049C11.3332 19.8582 9.42547 21.7659 7.07217 21.7659C4.71888 21.7659 2.81116 19.8582 2.81116 17.5049C2.81116 15.1516 4.71888 13.2439 7.07217 13.2439C7.8546 13.2439 8.58776 13.4548 9.21794 13.8228V3.62355ZM11.3332 6.8371H19.8959V4.68117H11.3332V6.8371ZM17.7501 15.3591C18.9352 15.3591 19.8959 16.3198 19.8959 17.5049C19.8959 18.69 18.9352 19.6507 17.7501 19.6507C16.5651 19.6507 15.6044 18.69 15.6044 17.5049C15.6044 16.3198 16.5651 15.3591 17.7501 15.3591ZM7.07217 15.3591C8.25725 15.3591 9.21794 16.3198 9.21794 17.5049C9.21794 18.69 8.25725 19.6507 7.07217 19.6507C5.8871 19.6507 4.92641 18.69 4.92641 17.5049C4.92641 16.3198 5.8871 15.3591 7.07217 15.3591Z" fill="black"/>
</svg>
