<svg width="60" height="60" viewBox="0 0 60 60" fill="none" xmlns="http://www.w3.org/2000/svg">
<g clip-path="url(#clip0_1995_23043)">
<g filter="url(#filter0_ii_1995_23043)">
<path fill-rule="evenodd" clip-rule="evenodd" d="M18.2691 14.0769C18.2691 15.5712 17.806 16.9572 17.0155 18.0995L23.7263 23.1035C25.8358 20.6167 28.9836 19.0385 32.5 19.0385C38.8513 19.0385 44 24.1872 44 30.5384C44 36.8897 38.8513 42.0384 32.5 42.0384C28.9643 42.0384 25.8012 40.4428 23.6917 37.9323L17.2253 42.7002C17.7206 43.6668 18 44.7623 18 45.9231C18 49.8315 14.8316 53 10.9231 53C7.01464 53 3.84619 49.8315 3.84619 45.9231C3.84619 42.0146 7.01464 38.8461 10.9231 38.8461C13.0348 38.8461 14.9305 39.7711 16.2272 41.2379L22.6605 36.4944C21.6067 34.7572 21 32.7187 21 30.5384C21 28.339 21.6175 26.2838 22.6885 24.5366L15.83 19.4224C14.588 20.501 12.9663 21.1538 11.1922 21.1538C7.28368 21.1538 4.11523 17.9854 4.11523 14.0769C4.11523 10.1684 7.28368 7 11.1922 7C15.1006 7 18.2691 10.1684 18.2691 14.0769Z" fill="url(#paint0_linear_1995_23043)"/>
</g>
<g filter="url(#filter1_ii_1995_23043)">
<path d="M8.69043 14.2287C8.02684 14.8923 7.65404 15.7923 7.65404 16.7308L11.1925 16.7308L14.731 16.7308C14.731 15.7923 14.3582 14.8923 13.6946 14.2287C13.031 13.5651 12.131 13.1923 11.1925 13.1923C10.254 13.1923 9.35402 13.5651 8.69043 14.2287Z" fill="white" fill-opacity="0.01"/>
</g>
<g filter="url(#filter2_ii_1995_23043)">
<path d="M8.4209 46.0748C7.75731 46.7384 7.38451 47.6384 7.38451 48.5769L10.923 48.5769L14.4614 48.5769C14.4614 47.6384 14.0886 46.7384 13.425 46.0748C12.7614 45.4112 11.8614 45.0384 10.923 45.0384C9.98451 45.0384 9.08449 45.4112 8.4209 46.0748Z" fill="white" fill-opacity="0.01"/>
</g>
<g filter="url(#filter3_ii_1995_23043)">
<path d="M27.7468 31.2084C26.7514 32.2038 26.1922 33.5538 26.1922 34.9615L31.4999 34.9615L36.8076 34.9615C36.8076 33.5538 36.2484 32.2038 35.253 31.2084C34.2576 30.213 32.9076 29.6538 31.4999 29.6538C30.0922 29.6538 28.7422 30.213 27.7468 31.2084Z" fill="white" fill-opacity="0.01"/>
</g>
<g filter="url(#filter4_ii_1995_23043)">
<ellipse cx="11.1922" cy="11.4231" rx="1.76923" ry="1.76923" transform="rotate(180 11.1922 11.4231)" fill="white" fill-opacity="0.01"/>
</g>
<g filter="url(#filter5_ii_1995_23043)">
<ellipse cx="10.9232" cy="43.2692" rx="1.76923" ry="1.76923" transform="rotate(180 10.9232 43.2692)" fill="white" fill-opacity="0.01"/>
</g>
<g filter="url(#filter6_ii_1995_23043)">
<ellipse cx="31.5" cy="27" rx="2.65384" ry="2.65385" transform="rotate(180 31.5 27)" fill="white" fill-opacity="0.01"/>
</g>
<g filter="url(#filter7_d_1995_23043)">
<g filter="url(#filter8_bii_1995_23043)">
<mask id="path-8-inside-1_1995_23043" fill="white">
<path fill-rule="evenodd" clip-rule="evenodd" d="M38.5752 35.85C43.5043 35.85 47.5002 31.8541 47.5002 26.925C47.5002 21.9959 43.5043 18 38.5752 18C33.646 18 29.6502 21.9959 29.6502 26.925C29.6502 31.8541 33.646 35.85 38.5752 35.85ZM22 52.8501C22 48.3414 23.7911 44.0174 26.9792 40.8292C30.1673 37.6411 34.4913 35.8501 39 35.8501C43.5087 35.8501 47.8327 37.6411 51.0208 40.8292C54.2089 44.0174 56 48.3414 56 52.8501H22Z"/>
</mask>
<path fill-rule="evenodd" clip-rule="evenodd" d="M38.5752 35.85C43.5043 35.85 47.5002 31.8541 47.5002 26.925C47.5002 21.9959 43.5043 18 38.5752 18C33.646 18 29.6502 21.9959 29.6502 26.925C29.6502 31.8541 33.646 35.85 38.5752 35.85ZM22 52.8501C22 48.3414 23.7911 44.0174 26.9792 40.8292C30.1673 37.6411 34.4913 35.8501 39 35.8501C43.5087 35.8501 47.8327 37.6411 51.0208 40.8292C54.2089 44.0174 56 48.3414 56 52.8501H22Z" fill="#FDDD4B" fill-opacity="0.5"/>
<path d="M26.9792 40.8292L27.1305 40.9805V40.9805L26.9792 40.8292ZM22 52.8501H21.786V53.064H22V52.8501ZM51.0208 40.8292L50.8695 40.9805V40.9805L51.0208 40.8292ZM56 52.8501V53.064H56.214V52.8501H56ZM47.2862 26.925C47.2862 31.736 43.3861 35.636 38.5752 35.636V36.064C43.6225 36.064 47.7141 31.9723 47.7141 26.925H47.2862ZM38.5752 18.214C43.3861 18.214 47.2862 22.114 47.2862 26.925H47.7141C47.7141 21.8777 43.6225 17.786 38.5752 17.786V18.214ZM29.8641 26.925C29.8641 22.114 33.7642 18.214 38.5752 18.214V17.786C33.5279 17.786 29.4362 21.8777 29.4362 26.925H29.8641ZM38.5752 35.636C33.7642 35.636 29.8641 31.736 29.8641 26.925H29.4362C29.4362 31.9723 33.5279 36.064 38.5752 36.064V35.636ZM26.8279 40.678C23.5997 43.9062 21.786 48.2846 21.786 52.8501H22.214C22.214 48.3981 23.9825 44.1285 27.1305 40.9805L26.8279 40.678ZM39 35.6361C34.4346 35.6361 30.0561 37.4497 26.8279 40.678L27.1305 40.9805C30.2785 37.8325 34.5481 36.064 39 36.064V35.6361ZM51.1721 40.678C47.9439 37.4497 43.5654 35.6361 39 35.6361V36.064C43.4519 36.064 47.7215 37.8325 50.8695 40.9805L51.1721 40.678ZM56.214 52.8501C56.214 48.2846 54.4003 43.9062 51.1721 40.678L50.8695 40.9805C54.0175 44.1285 55.786 48.3981 55.786 52.8501H56.214ZM22 53.064H56V52.6361H22V53.064Z" fill="url(#paint1_linear_1995_23043)" fill-opacity="0.5" mask="url(#path-8-inside-1_1995_23043)"/>
<path d="M26.9792 40.8292L27.1305 40.9805V40.9805L26.9792 40.8292ZM22 52.8501H21.786V53.064H22V52.8501ZM51.0208 40.8292L50.8695 40.9805V40.9805L51.0208 40.8292ZM56 52.8501V53.064H56.214V52.8501H56ZM47.2862 26.925C47.2862 31.736 43.3861 35.636 38.5752 35.636V36.064C43.6225 36.064 47.7141 31.9723 47.7141 26.925H47.2862ZM38.5752 18.214C43.3861 18.214 47.2862 22.114 47.2862 26.925H47.7141C47.7141 21.8777 43.6225 17.786 38.5752 17.786V18.214ZM29.8641 26.925C29.8641 22.114 33.7642 18.214 38.5752 18.214V17.786C33.5279 17.786 29.4362 21.8777 29.4362 26.925H29.8641ZM38.5752 35.636C33.7642 35.636 29.8641 31.736 29.8641 26.925H29.4362C29.4362 31.9723 33.5279 36.064 38.5752 36.064V35.636ZM26.8279 40.678C23.5997 43.9062 21.786 48.2846 21.786 52.8501H22.214C22.214 48.3981 23.9825 44.1285 27.1305 40.9805L26.8279 40.678ZM39 35.6361C34.4346 35.6361 30.0561 37.4497 26.8279 40.678L27.1305 40.9805C30.2785 37.8325 34.5481 36.064 39 36.064V35.6361ZM51.1721 40.678C47.9439 37.4497 43.5654 35.6361 39 35.6361V36.064C43.4519 36.064 47.7215 37.8325 50.8695 40.9805L51.1721 40.678ZM56.214 52.8501C56.214 48.2846 54.4003 43.9062 51.1721 40.678L50.8695 40.9805C54.0175 44.1285 55.786 48.3981 55.786 52.8501H56.214ZM22 53.064H56V52.6361H22V53.064Z" fill="url(#paint2_linear_1995_23043)" fill-opacity="0.5" mask="url(#path-8-inside-1_1995_23043)"/>
</g>
<g filter="url(#filter9_f_1995_23043)">
<ellipse cx="43.13" cy="23.5697" rx="1.44837" ry="3.49833" transform="rotate(-33.2662 43.13 23.5697)" fill="white" fill-opacity="0.5"/>
</g>
<g filter="url(#filter10_f_1995_23043)">
<ellipse cx="49.13" cy="43.5697" rx="1.44837" ry="3.49833" transform="rotate(-33.2662 49.13 43.5697)" fill="white" fill-opacity="0.5"/>
</g>
</g>
</g>
<defs>
<filter id="filter0_ii_1995_23043" x="2.96158" y="6.11539" width="41.923" height="47.7692" filterUnits="userSpaceOnUse" color-interpolation-filters="sRGB">
<feFlood flood-opacity="0" result="BackgroundImageFix"/>
<feBlend mode="normal" in="SourceGraphic" in2="BackgroundImageFix" result="shape"/>
<feColorMatrix in="SourceAlpha" type="matrix" values="0 0 0 0 0 0 0 0 0 0 0 0 0 0 0 0 0 0 127 0" result="hardAlpha"/>
<feOffset dx="0.884615" dy="-0.884615"/>
<feGaussianBlur stdDeviation="0.884615"/>
<feComposite in2="hardAlpha" operator="arithmetic" k2="-1" k3="1"/>
<feColorMatrix type="matrix" values="0 0 0 0 0 0 0 0 0 0 0 0 0 0 0 0 0 0 0.32 0"/>
<feBlend mode="normal" in2="shape" result="effect1_innerShadow_1995_23043"/>
<feColorMatrix in="SourceAlpha" type="matrix" values="0 0 0 0 0 0 0 0 0 0 0 0 0 0 0 0 0 0 127 0" result="hardAlpha"/>
<feOffset dx="-0.884615" dy="0.884615"/>
<feGaussianBlur stdDeviation="0.884615"/>
<feComposite in2="hardAlpha" operator="arithmetic" k2="-1" k3="1"/>
<feColorMatrix type="matrix" values="0 0 0 0 1 0 0 0 0 1 0 0 0 0 1 0 0 0 0.5 0"/>
<feBlend mode="normal" in2="effect1_innerShadow_1995_23043" result="effect2_innerShadow_1995_23043"/>
</filter>
<filter id="filter1_ii_1995_23043" x="7.15405" y="12.6923" width="8.0769" height="4.53845" filterUnits="userSpaceOnUse" color-interpolation-filters="sRGB">
<feFlood flood-opacity="0" result="BackgroundImageFix"/>
<feBlend mode="normal" in="SourceGraphic" in2="BackgroundImageFix" result="shape"/>
<feColorMatrix in="SourceAlpha" type="matrix" values="0 0 0 0 0 0 0 0 0 0 0 0 0 0 0 0 0 0 127 0" result="hardAlpha"/>
<feOffset dx="-0.5" dy="0.5"/>
<feGaussianBlur stdDeviation="0.6"/>
<feComposite in2="hardAlpha" operator="arithmetic" k2="-1" k3="1"/>
<feColorMatrix type="matrix" values="0 0 0 0 0 0 0 0 0 0 0 0 0 0 0 0 0 0 0.4 0"/>
<feBlend mode="normal" in2="shape" result="effect1_innerShadow_1995_23043"/>
<feColorMatrix in="SourceAlpha" type="matrix" values="0 0 0 0 0 0 0 0 0 0 0 0 0 0 0 0 0 0 127 0" result="hardAlpha"/>
<feOffset dx="0.5" dy="-0.5"/>
<feGaussianBlur stdDeviation="0.6"/>
<feComposite in2="hardAlpha" operator="arithmetic" k2="-1" k3="1"/>
<feColorMatrix type="matrix" values="0 0 0 0 1 0 0 0 0 1 0 0 0 0 1 0 0 0 0.6 0"/>
<feBlend mode="normal" in2="effect1_innerShadow_1995_23043" result="effect2_innerShadow_1995_23043"/>
</filter>
<filter id="filter2_ii_1995_23043" x="6.88452" y="44.5385" width="8.0769" height="4.53845" filterUnits="userSpaceOnUse" color-interpolation-filters="sRGB">
<feFlood flood-opacity="0" result="BackgroundImageFix"/>
<feBlend mode="normal" in="SourceGraphic" in2="BackgroundImageFix" result="shape"/>
<feColorMatrix in="SourceAlpha" type="matrix" values="0 0 0 0 0 0 0 0 0 0 0 0 0 0 0 0 0 0 127 0" result="hardAlpha"/>
<feOffset dx="-0.5" dy="0.5"/>
<feGaussianBlur stdDeviation="0.6"/>
<feComposite in2="hardAlpha" operator="arithmetic" k2="-1" k3="1"/>
<feColorMatrix type="matrix" values="0 0 0 0 0 0 0 0 0 0 0 0 0 0 0 0 0 0 0.4 0"/>
<feBlend mode="normal" in2="shape" result="effect1_innerShadow_1995_23043"/>
<feColorMatrix in="SourceAlpha" type="matrix" values="0 0 0 0 0 0 0 0 0 0 0 0 0 0 0 0 0 0 127 0" result="hardAlpha"/>
<feOffset dx="0.5" dy="-0.5"/>
<feGaussianBlur stdDeviation="0.6"/>
<feComposite in2="hardAlpha" operator="arithmetic" k2="-1" k3="1"/>
<feColorMatrix type="matrix" values="0 0 0 0 1 0 0 0 0 1 0 0 0 0 1 0 0 0 0.6 0"/>
<feBlend mode="normal" in2="effect1_innerShadow_1995_23043" result="effect2_innerShadow_1995_23043"/>
</filter>
<filter id="filter3_ii_1995_23043" x="25.6923" y="29.1538" width="11.6154" height="6.30769" filterUnits="userSpaceOnUse" color-interpolation-filters="sRGB">
<feFlood flood-opacity="0" result="BackgroundImageFix"/>
<feBlend mode="normal" in="SourceGraphic" in2="BackgroundImageFix" result="shape"/>
<feColorMatrix in="SourceAlpha" type="matrix" values="0 0 0 0 0 0 0 0 0 0 0 0 0 0 0 0 0 0 127 0" result="hardAlpha"/>
<feOffset dx="-0.5" dy="0.5"/>
<feGaussianBlur stdDeviation="0.6"/>
<feComposite in2="hardAlpha" operator="arithmetic" k2="-1" k3="1"/>
<feColorMatrix type="matrix" values="0 0 0 0 0 0 0 0 0 0 0 0 0 0 0 0 0 0 0.4 0"/>
<feBlend mode="normal" in2="shape" result="effect1_innerShadow_1995_23043"/>
<feColorMatrix in="SourceAlpha" type="matrix" values="0 0 0 0 0 0 0 0 0 0 0 0 0 0 0 0 0 0 127 0" result="hardAlpha"/>
<feOffset dx="0.5" dy="-0.5"/>
<feGaussianBlur stdDeviation="0.6"/>
<feComposite in2="hardAlpha" operator="arithmetic" k2="-1" k3="1"/>
<feColorMatrix type="matrix" values="0 0 0 0 1 0 0 0 0 1 0 0 0 0 1 0 0 0 0.6 0"/>
<feBlend mode="normal" in2="effect1_innerShadow_1995_23043" result="effect2_innerShadow_1995_23043"/>
</filter>
<filter id="filter4_ii_1995_23043" x="8.92297" y="9.15384" width="4.53845" height="4.53847" filterUnits="userSpaceOnUse" color-interpolation-filters="sRGB">
<feFlood flood-opacity="0" result="BackgroundImageFix"/>
<feBlend mode="normal" in="SourceGraphic" in2="BackgroundImageFix" result="shape"/>
<feColorMatrix in="SourceAlpha" type="matrix" values="0 0 0 0 0 0 0 0 0 0 0 0 0 0 0 0 0 0 127 0" result="hardAlpha"/>
<feOffset dx="-0.5" dy="0.5"/>
<feGaussianBlur stdDeviation="0.6"/>
<feComposite in2="hardAlpha" operator="arithmetic" k2="-1" k3="1"/>
<feColorMatrix type="matrix" values="0 0 0 0 0 0 0 0 0 0 0 0 0 0 0 0 0 0 0.4 0"/>
<feBlend mode="normal" in2="shape" result="effect1_innerShadow_1995_23043"/>
<feColorMatrix in="SourceAlpha" type="matrix" values="0 0 0 0 0 0 0 0 0 0 0 0 0 0 0 0 0 0 127 0" result="hardAlpha"/>
<feOffset dx="0.5" dy="-0.5"/>
<feGaussianBlur stdDeviation="0.6"/>
<feComposite in2="hardAlpha" operator="arithmetic" k2="-1" k3="1"/>
<feColorMatrix type="matrix" values="0 0 0 0 1 0 0 0 0 1 0 0 0 0 1 0 0 0 0.6 0"/>
<feBlend mode="normal" in2="effect1_innerShadow_1995_23043" result="effect2_innerShadow_1995_23043"/>
</filter>
<filter id="filter5_ii_1995_23043" x="8.65393" y="41" width="4.53845" height="4.53847" filterUnits="userSpaceOnUse" color-interpolation-filters="sRGB">
<feFlood flood-opacity="0" result="BackgroundImageFix"/>
<feBlend mode="normal" in="SourceGraphic" in2="BackgroundImageFix" result="shape"/>
<feColorMatrix in="SourceAlpha" type="matrix" values="0 0 0 0 0 0 0 0 0 0 0 0 0 0 0 0 0 0 127 0" result="hardAlpha"/>
<feOffset dx="-0.5" dy="0.5"/>
<feGaussianBlur stdDeviation="0.6"/>
<feComposite in2="hardAlpha" operator="arithmetic" k2="-1" k3="1"/>
<feColorMatrix type="matrix" values="0 0 0 0 0 0 0 0 0 0 0 0 0 0 0 0 0 0 0.4 0"/>
<feBlend mode="normal" in2="shape" result="effect1_innerShadow_1995_23043"/>
<feColorMatrix in="SourceAlpha" type="matrix" values="0 0 0 0 0 0 0 0 0 0 0 0 0 0 0 0 0 0 127 0" result="hardAlpha"/>
<feOffset dx="0.5" dy="-0.5"/>
<feGaussianBlur stdDeviation="0.6"/>
<feComposite in2="hardAlpha" operator="arithmetic" k2="-1" k3="1"/>
<feColorMatrix type="matrix" values="0 0 0 0 1 0 0 0 0 1 0 0 0 0 1 0 0 0 0.6 0"/>
<feBlend mode="normal" in2="effect1_innerShadow_1995_23043" result="effect2_innerShadow_1995_23043"/>
</filter>
<filter id="filter6_ii_1995_23043" x="28.3461" y="23.8461" width="6.30774" height="6.30769" filterUnits="userSpaceOnUse" color-interpolation-filters="sRGB">
<feFlood flood-opacity="0" result="BackgroundImageFix"/>
<feBlend mode="normal" in="SourceGraphic" in2="BackgroundImageFix" result="shape"/>
<feColorMatrix in="SourceAlpha" type="matrix" values="0 0 0 0 0 0 0 0 0 0 0 0 0 0 0 0 0 0 127 0" result="hardAlpha"/>
<feOffset dx="-0.5" dy="0.5"/>
<feGaussianBlur stdDeviation="0.6"/>
<feComposite in2="hardAlpha" operator="arithmetic" k2="-1" k3="1"/>
<feColorMatrix type="matrix" values="0 0 0 0 0 0 0 0 0 0 0 0 0 0 0 0 0 0 0.4 0"/>
<feBlend mode="normal" in2="shape" result="effect1_innerShadow_1995_23043"/>
<feColorMatrix in="SourceAlpha" type="matrix" values="0 0 0 0 0 0 0 0 0 0 0 0 0 0 0 0 0 0 127 0" result="hardAlpha"/>
<feOffset dx="0.5" dy="-0.5"/>
<feGaussianBlur stdDeviation="0.6"/>
<feComposite in2="hardAlpha" operator="arithmetic" k2="-1" k3="1"/>
<feColorMatrix type="matrix" values="0 0 0 0 1 0 0 0 0 1 0 0 0 0 1 0 0 0 0.6 0"/>
<feBlend mode="normal" in2="effect1_innerShadow_1995_23043" result="effect2_innerShadow_1995_23043"/>
</filter>
<filter id="filter7_d_1995_23043" x="4" y="2" width="62" height="62.85" filterUnits="userSpaceOnUse" color-interpolation-filters="sRGB">
<feFlood flood-opacity="0" result="BackgroundImageFix"/>
<feColorMatrix in="SourceAlpha" type="matrix" values="0 0 0 0 0 0 0 0 0 0 0 0 0 0 0 0 0 0 127 0" result="hardAlpha"/>
<feOffset dx="-4" dy="-2"/>
<feGaussianBlur stdDeviation="7"/>
<feComposite in2="hardAlpha" operator="out"/>
<feColorMatrix type="matrix" values="0 0 0 0 0 0 0 0 0 0 0 0 0 0 0 0 0 0 0.2 0"/>
<feBlend mode="normal" in2="BackgroundImageFix" result="effect1_dropShadow_1995_23043"/>
<feBlend mode="normal" in="SourceGraphic" in2="effect1_dropShadow_1995_23043" result="shape"/>
</filter>
<filter id="filter8_bii_1995_23043" x="19" y="11.4604" width="40" height="47.9292" filterUnits="userSpaceOnUse" color-interpolation-filters="sRGB">
<feFlood flood-opacity="0" result="BackgroundImageFix"/>
<feGaussianBlur in="BackgroundImageFix" stdDeviation="1.5"/>
<feComposite in2="SourceAlpha" operator="in" result="effect1_backgroundBlur_1995_23043"/>
<feBlend mode="normal" in="SourceGraphic" in2="effect1_backgroundBlur_1995_23043" result="shape"/>
<feColorMatrix in="SourceAlpha" type="matrix" values="0 0 0 0 0 0 0 0 0 0 0 0 0 0 0 0 0 0 127 0" result="hardAlpha"/>
<feOffset dy="6.53959"/>
<feGaussianBlur stdDeviation="6.53959"/>
<feComposite in2="hardAlpha" operator="arithmetic" k2="-1" k3="1"/>
<feColorMatrix type="matrix" values="0 0 0 0 1 0 0 0 0 1 0 0 0 0 1 0 0 0 0.32 0"/>
<feBlend mode="normal" in2="shape" result="effect2_innerShadow_1995_23043"/>
<feColorMatrix in="SourceAlpha" type="matrix" values="0 0 0 0 0 0 0 0 0 0 0 0 0 0 0 0 0 0 127 0" result="hardAlpha"/>
<feOffset dy="-6.53959"/>
<feGaussianBlur stdDeviation="6.53959"/>
<feComposite in2="hardAlpha" operator="arithmetic" k2="-1" k3="1"/>
<feColorMatrix type="matrix" values="0 0 0 0 0 0 0 0 0 0 0 0 0 0 0 0 0 0 0.24 0"/>
<feBlend mode="normal" in2="effect2_innerShadow_1995_23043" result="effect3_innerShadow_1995_23043"/>
</filter>
<filter id="filter9_f_1995_23043" x="38.8606" y="18.5379" width="8.53882" height="10.0636" filterUnits="userSpaceOnUse" color-interpolation-filters="sRGB">
<feFlood flood-opacity="0" result="BackgroundImageFix"/>
<feBlend mode="normal" in="SourceGraphic" in2="BackgroundImageFix" result="shape"/>
<feGaussianBlur stdDeviation="1" result="effect1_foregroundBlur_1995_23043"/>
</filter>
<filter id="filter10_f_1995_23043" x="44.8606" y="38.5379" width="8.53882" height="10.0636" filterUnits="userSpaceOnUse" color-interpolation-filters="sRGB">
<feFlood flood-opacity="0" result="BackgroundImageFix"/>
<feBlend mode="normal" in="SourceGraphic" in2="BackgroundImageFix" result="shape"/>
<feGaussianBlur stdDeviation="1" result="effect1_foregroundBlur_1995_23043"/>
</filter>
<linearGradient id="paint0_linear_1995_23043" x1="3.84619" y1="7" x2="49.4245" y2="46.7857" gradientUnits="userSpaceOnUse">
<stop stop-color="#E32900"/>
<stop offset="0.494792" stop-color="#C6E216"/>
<stop offset="1" stop-color="#D808FA"/>
</linearGradient>
<linearGradient id="paint1_linear_1995_23043" x1="44.95" y1="54.5501" x2="26.3426" y2="24.7975" gradientUnits="userSpaceOnUse">
<stop stop-color="white" stop-opacity="0"/>
<stop offset="1" stop-color="white"/>
</linearGradient>
<linearGradient id="paint2_linear_1995_23043" x1="47.925" y1="52.8501" x2="29.8154" y2="37.2402" gradientUnits="userSpaceOnUse">
<stop/>
<stop offset="1" stop-opacity="0"/>
</linearGradient>
<clipPath id="clip0_1995_23043">
<rect width="60" height="60" fill="white"/>
</clipPath>
</defs>
</svg>
