<svg width="60" height="60" viewBox="0 0 60 60" fill="none" xmlns="http://www.w3.org/2000/svg">
<g clip-path="url(#clip0_1995_23040)">
<g filter="url(#filter0_ii_1995_23040)">
<path d="M46.7478 39.0244C48.4124 34.7975 48.7243 30.1637 47.6473 25.7603C47.5841 25.502 47.3212 25.3492 47.0644 25.418L40.6953 27.1246C40.4553 27.1889 40.3053 27.4338 40.3423 27.6795C42.8518 44.3124 25.5963 49.395 16.9556 41.8091C8.32863 34.2353 10.6275 16.6678 27.4628 16.6507C27.7432 16.6504 27.969 16.8943 27.9418 17.1734L27.6472 20.1903C27.6075 20.5967 28.06 20.8649 28.3975 20.6349L36.533 15.0915C36.7571 14.9388 36.8109 14.6312 36.652 14.4115L30.4892 5.89033C30.2493 5.55856 29.731 5.65868 29.6319 6.05595L28.9599 8.74977C28.9013 8.9848 28.6772 9.1391 28.4362 9.11548C23.8999 8.67106 19.3326 9.64543 15.3682 11.9094C11.2811 14.2435 8.05036 17.8252 6.15062 22.1283C4.25089 26.4314 3.78234 31.229 4.81383 35.8162C5.84532 40.4034 8.32246 44.5384 11.8813 47.6136C15.4401 50.6887 19.893 52.542 24.5857 52.901C29.2783 53.26 33.9634 52.1059 37.9524 49.6081C41.9415 47.1104 45.0243 43.4008 46.7478 39.0244Z" fill="url(#paint0_linear_1995_23040)"/>
</g>
<g filter="url(#filter1_d_1995_23040)">
<g filter="url(#filter2_bii_1995_23040)">
<mask id="path-2-inside-1_1995_23040" fill="white">
<path fill-rule="evenodd" clip-rule="evenodd" d="M38.5752 35.85C43.5043 35.85 47.5002 31.8541 47.5002 26.925C47.5002 21.9959 43.5043 18 38.5752 18C33.646 18 29.6502 21.9959 29.6502 26.925C29.6502 31.8541 33.646 35.85 38.5752 35.85ZM22 52.8501C22 48.3414 23.7911 44.0174 26.9792 40.8292C30.1673 37.6411 34.4913 35.8501 39 35.8501C43.5087 35.8501 47.8327 37.6411 51.0208 40.8292C54.2089 44.0174 56 48.3414 56 52.8501H22Z"/>
</mask>
<path fill-rule="evenodd" clip-rule="evenodd" d="M38.5752 35.85C43.5043 35.85 47.5002 31.8541 47.5002 26.925C47.5002 21.9959 43.5043 18 38.5752 18C33.646 18 29.6502 21.9959 29.6502 26.925C29.6502 31.8541 33.646 35.85 38.5752 35.85ZM22 52.8501C22 48.3414 23.7911 44.0174 26.9792 40.8292C30.1673 37.6411 34.4913 35.8501 39 35.8501C43.5087 35.8501 47.8327 37.6411 51.0208 40.8292C54.2089 44.0174 56 48.3414 56 52.8501H22Z" fill="#FDDD4B" fill-opacity="0.5"/>
<path d="M26.9792 40.8292L27.1305 40.9805V40.9805L26.9792 40.8292ZM22 52.8501H21.786V53.064H22V52.8501ZM51.0208 40.8292L50.8695 40.9805V40.9805L51.0208 40.8292ZM56 52.8501V53.064H56.214V52.8501H56ZM47.2862 26.925C47.2862 31.736 43.3861 35.636 38.5752 35.636V36.064C43.6225 36.064 47.7141 31.9723 47.7141 26.925H47.2862ZM38.5752 18.214C43.3861 18.214 47.2862 22.114 47.2862 26.925H47.7141C47.7141 21.8777 43.6225 17.786 38.5752 17.786V18.214ZM29.8641 26.925C29.8641 22.114 33.7642 18.214 38.5752 18.214V17.786C33.5279 17.786 29.4362 21.8777 29.4362 26.925H29.8641ZM38.5752 35.636C33.7642 35.636 29.8641 31.736 29.8641 26.925H29.4362C29.4362 31.9723 33.5279 36.064 38.5752 36.064V35.636ZM26.8279 40.678C23.5997 43.9062 21.786 48.2846 21.786 52.8501H22.214C22.214 48.3981 23.9825 44.1285 27.1305 40.9805L26.8279 40.678ZM39 35.6361C34.4346 35.6361 30.0561 37.4497 26.8279 40.678L27.1305 40.9805C30.2785 37.8325 34.5481 36.064 39 36.064V35.6361ZM51.1721 40.678C47.9439 37.4497 43.5654 35.6361 39 35.6361V36.064C43.4519 36.064 47.7215 37.8325 50.8695 40.9805L51.1721 40.678ZM56.214 52.8501C56.214 48.2846 54.4003 43.9062 51.1721 40.678L50.8695 40.9805C54.0175 44.1285 55.786 48.3981 55.786 52.8501H56.214ZM22 53.064H56V52.6361H22V53.064Z" fill="url(#paint1_linear_1995_23040)" fill-opacity="0.5" mask="url(#path-2-inside-1_1995_23040)"/>
<path d="M26.9792 40.8292L27.1305 40.9805V40.9805L26.9792 40.8292ZM22 52.8501H21.786V53.064H22V52.8501ZM51.0208 40.8292L50.8695 40.9805V40.9805L51.0208 40.8292ZM56 52.8501V53.064H56.214V52.8501H56ZM47.2862 26.925C47.2862 31.736 43.3861 35.636 38.5752 35.636V36.064C43.6225 36.064 47.7141 31.9723 47.7141 26.925H47.2862ZM38.5752 18.214C43.3861 18.214 47.2862 22.114 47.2862 26.925H47.7141C47.7141 21.8777 43.6225 17.786 38.5752 17.786V18.214ZM29.8641 26.925C29.8641 22.114 33.7642 18.214 38.5752 18.214V17.786C33.5279 17.786 29.4362 21.8777 29.4362 26.925H29.8641ZM38.5752 35.636C33.7642 35.636 29.8641 31.736 29.8641 26.925H29.4362C29.4362 31.9723 33.5279 36.064 38.5752 36.064V35.636ZM26.8279 40.678C23.5997 43.9062 21.786 48.2846 21.786 52.8501H22.214C22.214 48.3981 23.9825 44.1285 27.1305 40.9805L26.8279 40.678ZM39 35.6361C34.4346 35.6361 30.0561 37.4497 26.8279 40.678L27.1305 40.9805C30.2785 37.8325 34.5481 36.064 39 36.064V35.6361ZM51.1721 40.678C47.9439 37.4497 43.5654 35.6361 39 35.6361V36.064C43.4519 36.064 47.7215 37.8325 50.8695 40.9805L51.1721 40.678ZM56.214 52.8501C56.214 48.2846 54.4003 43.9062 51.1721 40.678L50.8695 40.9805C54.0175 44.1285 55.786 48.3981 55.786 52.8501H56.214ZM22 53.064H56V52.6361H22V53.064Z" fill="url(#paint2_linear_1995_23040)" fill-opacity="0.5" mask="url(#path-2-inside-1_1995_23040)"/>
</g>
<g filter="url(#filter3_f_1995_23040)">
<ellipse cx="43.13" cy="23.5697" rx="1.44837" ry="3.49833" transform="rotate(-33.2662 43.13 23.5697)" fill="white" fill-opacity="0.5"/>
</g>
<g filter="url(#filter4_f_1995_23040)">
<ellipse cx="49.13" cy="43.5697" rx="1.44837" ry="3.49833" transform="rotate(-33.2662 49.13 43.5697)" fill="white" fill-opacity="0.5"/>
</g>
</g>
</g>
<defs>
<filter id="filter0_ii_1995_23040" x="3.31609" y="4.7278" width="45.9226" height="49.2003" filterUnits="userSpaceOnUse" color-interpolation-filters="sRGB">
<feFlood flood-opacity="0" result="BackgroundImageFix"/>
<feBlend mode="normal" in="SourceGraphic" in2="BackgroundImageFix" result="shape"/>
<feColorMatrix in="SourceAlpha" type="matrix" values="0 0 0 0 0 0 0 0 0 0 0 0 0 0 0 0 0 0 127 0" result="hardAlpha"/>
<feOffset dx="0.962963" dy="-0.962963"/>
<feGaussianBlur stdDeviation="0.962963"/>
<feComposite in2="hardAlpha" operator="arithmetic" k2="-1" k3="1"/>
<feColorMatrix type="matrix" values="0 0 0 0 0 0 0 0 0 0 0 0 0 0 0 0 0 0 0.32 0"/>
<feBlend mode="normal" in2="shape" result="effect1_innerShadow_1995_23040"/>
<feColorMatrix in="SourceAlpha" type="matrix" values="0 0 0 0 0 0 0 0 0 0 0 0 0 0 0 0 0 0 127 0" result="hardAlpha"/>
<feOffset dx="-0.962963" dy="0.962963"/>
<feGaussianBlur stdDeviation="0.962963"/>
<feComposite in2="hardAlpha" operator="arithmetic" k2="-1" k3="1"/>
<feColorMatrix type="matrix" values="0 0 0 0 1 0 0 0 0 1 0 0 0 0 1 0 0 0 0.5 0"/>
<feBlend mode="normal" in2="effect1_innerShadow_1995_23040" result="effect2_innerShadow_1995_23040"/>
</filter>
<filter id="filter1_d_1995_23040" x="4" y="2" width="62" height="62.85" filterUnits="userSpaceOnUse" color-interpolation-filters="sRGB">
<feFlood flood-opacity="0" result="BackgroundImageFix"/>
<feColorMatrix in="SourceAlpha" type="matrix" values="0 0 0 0 0 0 0 0 0 0 0 0 0 0 0 0 0 0 127 0" result="hardAlpha"/>
<feOffset dx="-4" dy="-2"/>
<feGaussianBlur stdDeviation="7"/>
<feComposite in2="hardAlpha" operator="out"/>
<feColorMatrix type="matrix" values="0 0 0 0 0 0 0 0 0 0 0 0 0 0 0 0 0 0 0.2 0"/>
<feBlend mode="normal" in2="BackgroundImageFix" result="effect1_dropShadow_1995_23040"/>
<feBlend mode="normal" in="SourceGraphic" in2="effect1_dropShadow_1995_23040" result="shape"/>
</filter>
<filter id="filter2_bii_1995_23040" x="19" y="11.4604" width="40" height="47.9292" filterUnits="userSpaceOnUse" color-interpolation-filters="sRGB">
<feFlood flood-opacity="0" result="BackgroundImageFix"/>
<feGaussianBlur in="BackgroundImageFix" stdDeviation="1.5"/>
<feComposite in2="SourceAlpha" operator="in" result="effect1_backgroundBlur_1995_23040"/>
<feBlend mode="normal" in="SourceGraphic" in2="effect1_backgroundBlur_1995_23040" result="shape"/>
<feColorMatrix in="SourceAlpha" type="matrix" values="0 0 0 0 0 0 0 0 0 0 0 0 0 0 0 0 0 0 127 0" result="hardAlpha"/>
<feOffset dy="6.53959"/>
<feGaussianBlur stdDeviation="6.53959"/>
<feComposite in2="hardAlpha" operator="arithmetic" k2="-1" k3="1"/>
<feColorMatrix type="matrix" values="0 0 0 0 1 0 0 0 0 1 0 0 0 0 1 0 0 0 0.32 0"/>
<feBlend mode="normal" in2="shape" result="effect2_innerShadow_1995_23040"/>
<feColorMatrix in="SourceAlpha" type="matrix" values="0 0 0 0 0 0 0 0 0 0 0 0 0 0 0 0 0 0 127 0" result="hardAlpha"/>
<feOffset dy="-6.53959"/>
<feGaussianBlur stdDeviation="6.53959"/>
<feComposite in2="hardAlpha" operator="arithmetic" k2="-1" k3="1"/>
<feColorMatrix type="matrix" values="0 0 0 0 0 0 0 0 0 0 0 0 0 0 0 0 0 0 0.24 0"/>
<feBlend mode="normal" in2="effect2_innerShadow_1995_23040" result="effect3_innerShadow_1995_23040"/>
</filter>
<filter id="filter3_f_1995_23040" x="38.8606" y="18.5379" width="8.53882" height="10.0636" filterUnits="userSpaceOnUse" color-interpolation-filters="sRGB">
<feFlood flood-opacity="0" result="BackgroundImageFix"/>
<feBlend mode="normal" in="SourceGraphic" in2="BackgroundImageFix" result="shape"/>
<feGaussianBlur stdDeviation="1" result="effect1_foregroundBlur_1995_23040"/>
</filter>
<filter id="filter4_f_1995_23040" x="44.8606" y="38.5379" width="8.53882" height="10.0636" filterUnits="userSpaceOnUse" color-interpolation-filters="sRGB">
<feFlood flood-opacity="0" result="BackgroundImageFix"/>
<feBlend mode="normal" in="SourceGraphic" in2="BackgroundImageFix" result="shape"/>
<feGaussianBlur stdDeviation="1" result="effect1_foregroundBlur_1995_23040"/>
</filter>
<linearGradient id="paint0_linear_1995_23040" x1="-1.21558" y1="13.3841" x2="54.6366" y2="43.9215" gradientUnits="userSpaceOnUse">
<stop stop-color="#E32900"/>
<stop offset="0.494792" stop-color="#C6E216"/>
<stop offset="1" stop-color="#D808FA"/>
</linearGradient>
<linearGradient id="paint1_linear_1995_23040" x1="44.95" y1="54.5501" x2="26.3426" y2="24.7975" gradientUnits="userSpaceOnUse">
<stop stop-color="white" stop-opacity="0"/>
<stop offset="1" stop-color="white"/>
</linearGradient>
<linearGradient id="paint2_linear_1995_23040" x1="47.925" y1="52.8501" x2="29.8154" y2="37.2402" gradientUnits="userSpaceOnUse">
<stop/>
<stop offset="1" stop-opacity="0"/>
</linearGradient>
<clipPath id="clip0_1995_23040">
<rect width="60" height="60" fill="white"/>
</clipPath>
</defs>
</svg>
