<svg width="60" height="60" viewBox="0 0 60 60" fill="none" xmlns="http://www.w3.org/2000/svg">
<g clip-path="url(#clip0_1997_32714)">
<g filter="url(#filter0_ii_1997_32714)">
<circle cx="15" cy="32" r="9" fill="url(#paint0_linear_1997_32714)"/>
</g>
<g filter="url(#filter1_d_1997_32714)">
<g filter="url(#filter2_bii_1997_32714)">
<path d="M18.5607 4.85654C15.7181 4.11139 13.4206 5.71898 12.6272 6.61592C12.4295 6.70047 12.3422 6.68207 12.2477 6.47793L12.1442 5.06352C12.1442 4.87954 11.9786 4.44257 11.3162 4.16659C10.4883 3.82161 9.55686 4.09759 9.17738 4.23558C8.79791 4.37357 8.03896 4.78754 7.487 5.20152C7.04543 5.53269 6.98103 5.86847 7.00403 5.99496C7.22252 6.8574 7.75608 8.70648 8.14245 9.20324C8.62542 9.8242 9.17738 11.1006 9.52236 12.446C9.86734 13.7914 9.69485 14.4124 10.5228 15.7578C11.1851 16.8341 11.8107 18.4141 12.0407 19.0696C12.7651 20.8865 14.2278 24.6306 14.283 25.0722C14.352 25.6241 14.835 28.246 13.6966 29.9363C12.5582 31.6267 12.2822 33.9381 12.2132 34.5245C12.158 34.9937 12.0752 39.5267 12.0407 41.7345C11.8222 42.6545 11.399 44.8876 11.4542 46.4607C11.5232 48.4271 11.1093 50.1175 10.8333 51.0489C10.5573 51.9803 10.4193 51.3939 9.86734 53.7397C9.42577 55.6164 11.1553 56.0856 12.0752 56.0856L14.1106 56.0166C14.467 56.0166 15.2283 55.7406 15.4215 54.6367C15.6146 53.5327 14.904 52.0608 14.5245 51.4629V49.2205C14.582 48.7836 14.8557 47.6681 15.4905 46.7022C16.1252 45.7363 16.7439 43.4939 16.9739 42.4935C16.9739 42.4935 18.2158 36.2494 18.7332 36.1114C18.9402 36.1114 19.0437 36.6496 19.1817 36.8704C19.3197 37.0912 20.1591 39.4462 20.5616 40.5961C20.7916 40.7801 21.2171 41.4172 21.0791 42.4935C20.9066 43.8389 21.4241 45.4258 21.769 46.2192C22.045 46.854 21.93 47.5187 21.838 47.7716C21.7805 47.7371 21.6034 47.9786 21.3551 49.2205C21.1067 50.4625 22.2405 51.0489 22.8385 51.1869C23.1374 51.2329 23.7837 51.4767 23.9769 52.0838C24.2184 52.8428 24.7013 53.3603 24.7703 53.4637C24.8393 53.5672 25.6673 54.5677 27.2197 54.3262C28.4616 54.133 29.071 53.5097 29.2205 53.2223C29.232 52.8428 29.1446 51.87 28.7031 51.0144C28.1511 49.945 27.1162 49.4275 26.2537 49.0135C25.5638 48.6824 25.3683 47.9786 25.3568 47.6681C25.3223 46.9667 25.3361 45.1498 25.6673 43.4939C25.9984 41.838 25.8973 40.8721 25.8053 40.5961C25.6673 39.8257 25.3292 37.9605 25.0808 36.6634C24.8324 35.3663 23.8389 31.0403 23.7699 30.2813C23.7009 29.5224 23.7906 29.205 23.8734 27.5215C23.9769 25.4171 23.7699 23.3128 23.7699 22.0709C23.7699 20.829 24.9083 18.8971 25.7018 18.0001C26.4952 17.1032 26.9092 16.3443 27.4956 15.4818C28.0821 14.6194 28.4961 13.067 29.1515 12.6185C29.6759 12.2597 30.4049 11.4111 30.7039 11.0316C30.7039 11.0316 30.9454 11.1351 31.0834 11.0316C31.2214 10.9281 31.8424 10.2382 31.9458 9.8932C32.0493 9.54822 31.6411 9.29603 31.2904 9.16875C31.1697 8.59656 30.9247 8.40551 30.3934 8.13382V7.85784C30.3589 7.73134 30.1796 7.44386 29.738 7.30587C29.2964 7.16788 28.7951 7.54736 28.5996 7.75434C28.5421 7.82334 28.2822 8.12002 27.7026 8.75478C26.9782 9.54822 27.0127 10.2727 27.0817 10.5142C27.1369 10.7073 27.1047 10.9856 27.0817 11.1006C27.0127 11.4571 26.6677 12.3218 25.8398 12.929C25.0118 13.5362 24.4368 14.5389 24.2529 14.9644C23.9654 15.4128 23.28 16.4961 22.8385 17.2412C22.3969 17.9864 21.6655 18.8396 21.3551 19.1731L20.6996 18.3796C20.3661 18.1381 20.051 17.2205 21.4586 15.4818C22.8661 13.7431 22.9879 11.1926 22.873 10.1347C22.62 8.68578 21.4034 5.60169 18.5607 4.85654Z" fill="#DFA100" fill-opacity="0.5"/>
</g>
<g filter="url(#filter3_f_1997_32714)">
<ellipse cx="18.6794" cy="7.02391" rx="1.7486" ry="0.668709" transform="rotate(35.3573 18.6794 7.02391)" fill="white"/>
</g>
<g filter="url(#filter4_f_1997_32714)">
<path d="M28.906 8.06482C28.8784 8.45119 28.7335 8.70877 28.6646 8.78927C29.251 8.54778 29.3545 7.99582 29.4235 7.85783C29.4787 7.74744 29.3085 7.69684 29.2165 7.68534C29.1245 7.65084 28.9336 7.67844 28.906 8.06482Z" fill="url(#paint1_radial_1997_32714)" fill-opacity="0.6"/>
</g>
<g filter="url(#filter5_f_1997_32714)">
<path d="M28.9187 9.71326C28.7357 9.7676 28.581 10.0756 28.5265 10.2227C29.1039 10.653 30.2652 11.5202 30.2913 11.5474C30.3175 11.5746 30.5637 11.2643 30.6835 11.1058L31.0103 10.6982C30.9994 10.5624 30.8927 10.3246 30.5528 10.4605C30.1279 10.6303 29.703 9.91705 29.703 9.81515C29.703 9.71325 29.6704 9.71326 29.4416 9.64533C29.2128 9.57739 29.1474 9.64533 28.9187 9.71326Z" fill="url(#paint2_linear_1997_32714)" fill-opacity="0.06"/>
</g>
<g filter="url(#filter6_f_1997_32714)">
<path d="M27.2442 9.41031C27.4098 9.18952 28.0491 9.04233 28.3481 8.99634C28.1791 9.23078 28.249 9.63215 28.3481 9.75529C28.4171 9.78978 28.5137 9.88638 28.3481 9.99677C28.1411 10.1348 27.8651 10.7212 27.6927 11.0662C27.5202 11.4112 26.8647 11.5837 27.0372 11.2387C27.1752 10.9627 27.0947 10.5257 27.0372 10.3417C27.0372 10.1233 27.0786 9.63109 27.2442 9.41031Z" fill="url(#paint3_linear_1997_32714)" fill-opacity="0.12"/>
</g>
<g filter="url(#filter7_f_1997_32714)">
<path d="M29.602 7.32035C29.6174 7.32617 29.6334 7.33375 29.6493 7.34314C30.2631 7.64504 30.2586 7.89985 30.2617 8.10572C30.2881 8.48875 29.9282 9.12492 29.745 9.39513L28.9688 8.90773C29.0139 8.84446 29.2009 8.59589 29.5877 8.10773C29.9364 7.66766 29.7951 7.42914 29.6493 7.34314C29.6339 7.33558 29.6182 7.32798 29.602 7.32035Z" fill="white" fill-opacity="0.32"/>
</g>
<g filter="url(#filter8_f_1997_32714)">
<path d="M30.4196 8.20984C30.4354 8.2181 30.4516 8.22836 30.4675 8.24061C31.0874 8.6465 31.0491 8.92543 31.0252 9.15159C31.0032 9.57491 30.5327 10.2288 30.3001 10.5028L29.53 9.87367C29.5868 9.80979 29.8206 9.55995 30.3006 9.07167C30.7333 8.63151 30.6129 8.35269 30.4675 8.24061C30.4519 8.23043 30.436 8.22017 30.4196 8.20984Z" fill="white" fill-opacity="0.32"/>
</g>
<g filter="url(#filter9_f_1997_32714)">
<path d="M31.1964 9.15728C31.2115 9.16514 31.227 9.17455 31.2423 9.18545C31.836 9.55585 31.8057 9.76454 31.788 9.93445C31.7762 10.2547 31.3458 10.7064 31.1322 10.8921L30.3918 10.3368C30.4442 10.2938 30.6595 10.1265 31.1023 9.80202C31.5015 9.50946 31.3819 9.28519 31.2423 9.18545C31.2274 9.17616 31.2121 9.16678 31.1964 9.15728Z" fill="white" fill-opacity="0.32"/>
</g>
<g filter="url(#filter10_f_1997_32714)">
<path d="M28.5712 8.99632C28.2607 8.99632 28.3987 8.99632 28.1572 9.06531C27.826 9.34129 28.0192 9.75527 28.1572 9.92776C28.1917 9.91626 28.2952 9.87946 28.4332 9.82427C28.6057 9.75527 29.3991 9.75527 29.5371 9.75527C29.6475 9.75527 29.7441 9.68627 29.7786 9.65178C29.8016 9.65178 29.8338 9.58278 29.7786 9.3068C29.7096 8.96182 28.8817 8.99632 28.5712 8.99632Z" fill="white" fill-opacity="0.32"/>
</g>
<g filter="url(#filter11_f_1997_32714)">
<path d="M12.5674 7.89225C12.6226 7.78185 11.8085 7.45528 11.3945 7.30579C10.8771 7.30579 10.3596 8.40971 10.1526 8.5822C9.98701 8.72019 10.2906 9.92761 10.4631 10.5141L12.3949 15.9992C13.5104 17.9081 15.8309 21.7051 16.1897 21.6223C16.6382 21.5188 16.6727 20.2769 16.7072 20.0354C16.7417 19.7939 16.3277 19.242 16.1897 19.104C16.0517 18.966 15.2583 17.5861 15.1548 17.4481C15.0513 17.3101 13.3264 14.8263 13.2229 14.3433C13.1194 13.8603 12.0845 11.4455 12.0155 11.3765C11.9465 11.3075 11.291 10.3761 11.1875 9.65163C11.084 8.92718 11.5325 8.72019 11.6705 8.5822C11.8085 8.44421 12.4984 8.03024 12.5674 7.89225Z" fill="url(#paint4_radial_1997_32714)" fill-opacity="0.12"/>
</g>
<g filter="url(#filter12_f_1997_32714)">
<path d="M12.0155 11.3766C11.9465 11.3076 11.2911 10.3762 11.1876 9.65173L10.4631 10.5142L12.395 15.9993C13.5104 17.9082 15.831 21.7052 16.1897 21.6224C16.6382 21.5189 16.6727 20.277 16.7072 20.0355C16.7417 19.794 16.3277 19.2421 16.1897 19.1041C16.0518 18.9661 15.2583 17.5862 15.1548 17.4482C15.0513 17.3102 13.3264 14.8264 13.2229 14.3434C13.1195 13.8604 12.0845 11.4456 12.0155 11.3766Z" fill="url(#paint5_linear_1997_32714)" fill-opacity="0.12"/>
</g>
<g filter="url(#filter13_if_1997_32714)">
<path d="M8.1038 6.37437C7.85542 5.87761 7.26436 5.84541 6.99988 5.89141C6.99988 5.51193 7.44835 5.20145 7.75883 4.99447C8.06931 4.78748 8.62127 4.477 9.10424 4.27002C9.6562 4.03347 10.2657 4.01704 10.6221 4.02854C10.8981 4.06304 11.3535 4.18032 11.6571 4.37351C11.9606 4.56669 12.0595 4.91397 12.071 5.06346C12.071 5.29345 12.0848 5.82931 12.14 6.13289C12.1952 6.43647 11.6571 6.35138 11.3811 6.27088C11.3811 6.0294 11.3604 5.46364 11.2776 5.13246C11.1741 4.71849 10.6221 4.5115 10.4496 4.37351C10.2772 4.23552 10.0012 4.37351 9.82869 4.37351C9.6562 4.37351 9.55271 4.58049 9.72519 4.75298C9.89768 4.92547 10.3806 5.23595 10.6221 5.64992C10.8636 6.06389 11.0706 7.30581 11.0361 7.58179C11.0016 7.85777 10.1047 7.99576 10.0012 7.96127C9.89768 7.92677 9.86318 6.99533 9.82869 6.61586C9.79419 6.23638 9.6907 6.13289 9.48371 5.78791C9.27672 5.44294 8.69026 5.13246 8.51778 5.06346C8.34529 4.99447 8.00031 5.37394 8.1728 5.54643C8.34529 5.71892 8.62127 5.82241 9.00074 6.20188C9.38022 6.58136 9.51821 7.65079 9.48371 7.68528C9.44921 7.71978 9.00074 8.03026 8.75926 7.75428C8.51778 7.4783 8.41428 6.99533 8.1038 6.37437Z" fill="white" fill-opacity="0.01"/>
</g>
<g filter="url(#filter14_f_1997_32714)">
<path d="M11.8394 6.39587C11.6466 6.32624 11.4153 6.43069 11.1455 6.63958C10.9141 7.09218 11.2611 7.33588 11.6081 7.47514C11.955 7.6144 12.1863 7.82329 12.4176 7.82329C12.649 7.82329 12.649 7.75366 12.8803 7.57959C13.1116 7.40551 12.9574 7.05736 12.8803 6.9181C12.8032 6.77884 12.8417 6.81365 12.4176 6.70921C11.9936 6.60476 12.0321 6.4655 11.8394 6.39587Z" fill="url(#paint6_linear_1997_32714)" fill-opacity="0.32"/>
</g>
<g filter="url(#filter15_f_1997_32714)">
<path d="M13.244 14.309C13.0025 13.3775 11.6571 10.6867 11.5536 10.5832C12.163 10.1232 13.6303 9.2792 14.6239 9.58278C15.8658 9.96225 16.7627 12.4461 17.1767 12.9291C17.5907 13.412 19.0051 14.309 20.2815 14.102C21.5579 13.895 22.2824 13.067 22.1789 13.7225C22.0754 14.378 20.385 16.8618 20.2815 16.6548C20.178 16.4478 18.0736 16.3788 17.8322 16.6548C17.5907 16.9308 17.5217 16.7583 17.3492 17.5172C17.2112 18.1244 17.4067 18.8512 17.5217 19.1386C17.0042 19.1501 15.9279 19.0213 15.7623 18.4142C15.5967 17.807 15.3023 17.5632 15.1758 17.5172C15.0839 17.3793 14.8723 17.0343 14.7619 16.7583C14.6239 16.4133 13.4855 15.2404 13.244 14.309Z" fill="url(#paint7_radial_1997_32714)" fill-opacity="0.24"/>
</g>
<g filter="url(#filter16_f_1997_32714)">
<path d="M19.4191 34.9041C19.0879 35.0697 18.8211 35.778 18.7291 36.1115C18.9101 36.0567 19.7986 38.3884 20.5575 40.5962C21.0114 41.2851 21.1929 41.5457 21.0405 42.4591C20.9812 42.8143 21.0405 44.2185 21.282 44.8739C21.5234 45.5294 21.9719 45.7019 22.0754 45.7019C22.1789 45.7019 22.7309 42.5281 22.6964 42.2866C22.6619 42.0451 21.8684 38.5264 21.8339 38.4574C21.7994 38.3884 21.0405 35.6285 20.592 35.1456C20.1435 34.6626 19.8331 34.6971 19.4191 34.9041Z" fill="url(#paint8_radial_1997_32714)" fill-opacity="0.14"/>
</g>
<g filter="url(#filter17_f_1997_32714)">
<path d="M11.722 51.1616C11.1796 50.9898 10.9098 49.7634 10.8427 49.1717C10.8644 49.5648 10.893 50.4813 10.8332 51.003C10.7583 51.6551 10.6873 51.6852 10.5627 52.0232C10.4631 52.2935 10.5489 52.8058 10.6043 53.0281C11.0195 52.8349 12.053 52.4056 12.8654 52.2346C13.6778 52.0637 14.4321 52.4237 14.7077 52.625L14.4595 51.6073L14.3512 50.5637C14.2954 50.7216 14.1114 51.0881 13.8223 51.2914C13.461 51.5456 12.4 51.3764 11.722 51.1616Z" fill="url(#paint9_radial_1997_32714)" fill-opacity="0.16"/>
</g>
<g filter="url(#filter18_f_1997_32714)">
<path d="M23.8003 49.428C23.3225 49.5596 22.4519 48.9851 22.0689 48.5321C22.3074 48.8445 22.0972 50.0723 22.3514 50.5315C22.6692 51.1056 23.3871 50.6779 23.4916 51.0185C23.5753 51.2911 23.9263 51.6692 24.0914 51.8242C24.2728 51.4564 24.5007 50.7015 24.9732 50.152C25.4458 49.6026 26.7355 49.401 27.0431 49.428L25.8702 48.8066L25.3194 47.5647C25.3699 47.7227 25.4066 48.2869 25.3194 48.5996C25.2103 48.9905 24.3976 49.2635 23.8003 49.428Z" fill="url(#paint10_radial_1997_32714)" fill-opacity="0.16"/>
</g>
<g filter="url(#filter19_f_1997_32714)">
<path d="M22.1444 31.6613C21.896 33.0964 20.408 34.1911 19.6951 34.5591C20.178 34.5591 21.2544 34.4694 21.6959 34.1106C22.2479 33.6622 22.7999 32.5927 23.0758 31.6613C23.2966 30.9161 22.9838 27.993 22.7999 26.6246C22.6849 27.7056 22.3928 30.2262 22.1444 31.6613Z" fill="black" fill-opacity="0.06"/>
</g>
</g>
<g filter="url(#filter20_bii_1997_32714)">
<path d="M53.4483 15.5808C53.4483 18.5222 51.6303 21.1541 48.7688 22.9116C47.0417 23.9362 51.8015 27.5701 51.1144 27.8572C48.5237 28.8374 45.4663 24.438 43.9843 24.7816C42.8178 25.0289 41.5843 25.1615 40.3083 25.1615C33.0513 25.1615 27.1683 20.8721 27.1683 15.5808C27.1683 10.2895 33.0513 6 40.3083 6C47.5653 6 53.4483 10.2895 53.4483 15.5808Z" fill="white" fill-opacity="0.5"/>
</g>
<g filter="url(#filter21_ii_1997_32714)">
<path d="M40.39 17.8719L37.7771 19.423C37.6617 19.4954 37.541 19.5264 37.4151 19.5161C37.2892 19.5057 37.179 19.4644 37.0845 19.392C36.9901 19.3196 36.9166 19.229 36.8642 19.1202C36.8117 19.0115 36.8012 18.89 36.8327 18.756L37.5253 15.8244L35.2115 13.8545C35.1065 13.7614 35.0411 13.6553 35.015 13.5362C34.989 13.417 34.9968 13.3008 35.0383 13.1875C35.0803 13.0737 35.1433 12.9807 35.2272 12.9083C35.3112 12.8359 35.4266 12.7894 35.5735 12.7687L38.6271 12.505L39.8076 9.74398C39.86 9.61988 39.9415 9.52682 40.0519 9.46477C40.1623 9.40273 40.275 9.3717 40.39 9.3717C40.5054 9.3717 40.6181 9.40273 40.7281 9.46477C40.838 9.52682 40.9195 9.61988 40.9723 9.74398L42.1529 12.505L45.2064 12.7687C45.3533 12.7894 45.4688 12.8359 45.5527 12.9083C45.6367 12.9807 45.6996 13.0737 45.7416 13.1875C45.7836 13.3012 45.7915 13.4177 45.7655 13.5368C45.7395 13.6559 45.6738 13.7618 45.5685 13.8545L43.2547 15.8244L43.9472 18.756C43.9787 18.8905 43.9682 19.0121 43.9157 19.1209C43.8633 19.2296 43.7898 19.32 43.6954 19.392C43.6009 19.4644 43.4908 19.5057 43.3648 19.5161C43.2389 19.5264 43.1182 19.4954 43.0028 19.423L40.39 17.8719Z" fill="#D808FA"/>
</g>
<g filter="url(#filter22_ii_1997_32714)">
<path d="M32.7186 31.8643L30.9159 32.9345C30.8363 32.9844 30.7531 33.0058 30.6662 32.9987C30.5793 32.9915 30.5033 32.963 30.4381 32.9131C30.373 32.8631 30.3223 32.8006 30.2861 32.7256C30.2499 32.6505 30.2427 32.5668 30.2644 32.4743L30.7422 30.4517L29.1459 29.0927C29.0735 29.0285 29.0283 28.9553 29.0104 28.8731C28.9924 28.7909 28.9978 28.7107 29.0264 28.6325C29.0554 28.554 29.0988 28.4898 29.1568 28.4399C29.2147 28.39 29.2943 28.3579 29.3957 28.3436L31.5023 28.1617L32.3168 26.2568C32.353 26.1712 32.4092 26.107 32.4853 26.0642C32.5615 26.0214 32.6392 26 32.7186 26C32.7982 26 32.876 26.0214 32.9518 26.0642C33.0277 26.107 33.0839 26.1712 33.1204 26.2568L33.9348 28.1617L36.0415 28.3436C36.1428 28.3579 36.2225 28.39 36.2804 28.4399C36.3383 28.4898 36.3817 28.554 36.4107 28.6325C36.4396 28.711 36.4451 28.7913 36.4272 28.8735C36.4092 28.9557 36.3639 29.0288 36.2912 29.0927L34.6949 30.4517L35.1727 32.4743C35.1945 32.567 35.1872 32.6509 35.151 32.726C35.1148 32.801 35.0641 32.8634 34.999 32.9131C34.9338 32.963 34.8578 32.9915 34.771 32.9987C34.6841 33.0058 34.6008 32.9844 34.5212 32.9345L32.7186 31.8643Z" fill="url(#paint11_linear_1997_32714)"/>
</g>
<g filter="url(#filter23_f_1997_32714)">
<ellipse cx="47.7125" cy="10.7128" rx="1.11034" ry="3.1959" transform="rotate(-59.6835 47.7125 10.7128)" fill="white"/>
</g>
<g filter="url(#filter24_ii_1997_32714)">
<path d="M40.9456 50.3112C41.4253 50.7106 42.1228 50.7106 42.6058 50.3112L42.9038 50.0648C46.9206 46.7564 49.5725 44.5673 49.5837 41.8965C49.5929 39.7074 47.7191 38 45.3251 38C44.4657 38 43.6274 38.2317 42.912 38.6314C42.2572 38.9973 41.3891 38.9973 40.7375 38.6314C40.0254 38.2317 39.189 38 38.3296 38C35.9356 38 34.0475 39.7074 34.0383 41.8965C34.0271 44.5673 36.6606 46.7564 40.6497 50.0648L40.9456 50.3112Z" fill="#E32900"/>
</g>
<g filter="url(#filter25_f_1997_32714)">
<ellipse cx="39.2015" cy="39.7911" rx="0.685489" ry="1.60866" transform="rotate(-73.5651 39.2015 39.7911)" fill="white"/>
</g>
<g filter="url(#filter26_f_1997_32714)">
<ellipse cx="46.5702" cy="39.7911" rx="0.685489" ry="1.60866" transform="rotate(-73.5651 46.5702 39.7911)" fill="white"/>
</g>
</g>
<defs>
<filter id="filter0_ii_1997_32714" x="5.5" y="22.5" width="19" height="19" filterUnits="userSpaceOnUse" color-interpolation-filters="sRGB">
<feFlood flood-opacity="0" result="BackgroundImageFix"/>
<feBlend mode="normal" in="SourceGraphic" in2="BackgroundImageFix" result="shape"/>
<feColorMatrix in="SourceAlpha" type="matrix" values="0 0 0 0 0 0 0 0 0 0 0 0 0 0 0 0 0 0 127 0" result="hardAlpha"/>
<feOffset dx="0.5" dy="-0.5"/>
<feGaussianBlur stdDeviation="0.6"/>
<feComposite in2="hardAlpha" operator="arithmetic" k2="-1" k3="1"/>
<feColorMatrix type="matrix" values="0 0 0 0 0 0 0 0 0 0 0 0 0 0 0 0 0 0 0.4 0"/>
<feBlend mode="normal" in2="shape" result="effect1_innerShadow_1997_32714"/>
<feColorMatrix in="SourceAlpha" type="matrix" values="0 0 0 0 0 0 0 0 0 0 0 0 0 0 0 0 0 0 127 0" result="hardAlpha"/>
<feOffset dx="-0.5" dy="0.5"/>
<feGaussianBlur stdDeviation="0.6"/>
<feComposite in2="hardAlpha" operator="arithmetic" k2="-1" k3="1"/>
<feColorMatrix type="matrix" values="0 0 0 0 1 0 0 0 0 1 0 0 0 0 1 0 0 0 0.6 0"/>
<feBlend mode="normal" in2="effect1_innerShadow_1997_32714" result="effect2_innerShadow_1997_32714"/>
</filter>
<filter id="filter1_d_1997_32714" x="-1.00012" y="-2" width="36.9623" height="64.0856" filterUnits="userSpaceOnUse" color-interpolation-filters="sRGB">
<feFlood flood-opacity="0" result="BackgroundImageFix"/>
<feColorMatrix in="SourceAlpha" type="matrix" values="0 0 0 0 0 0 0 0 0 0 0 0 0 0 0 0 0 0 127 0" result="hardAlpha"/>
<feOffset dx="-2"/>
<feGaussianBlur stdDeviation="3"/>
<feComposite in2="hardAlpha" operator="out"/>
<feColorMatrix type="matrix" values="0 0 0 0 0 0 0 0 0 0 0 0 0 0 0 0 0 0 0.25 0"/>
<feBlend mode="normal" in2="BackgroundImageFix" result="effect1_dropShadow_1997_32714"/>
<feBlend mode="normal" in="SourceGraphic" in2="effect1_dropShadow_1997_32714" result="shape"/>
</filter>
<filter id="filter2_bii_1997_32714" x="4.24831" y="1.24019" width="30.4655" height="57.6052" filterUnits="userSpaceOnUse" color-interpolation-filters="sRGB">
<feFlood flood-opacity="0" result="BackgroundImageFix"/>
<feGaussianBlur in="BackgroundImageFix" stdDeviation="1.37585"/>
<feComposite in2="SourceAlpha" operator="in" result="effect1_backgroundBlur_1997_32714"/>
<feBlend mode="normal" in="SourceGraphic" in2="effect1_backgroundBlur_1997_32714" result="shape"/>
<feColorMatrix in="SourceAlpha" type="matrix" values="0 0 0 0 0 0 0 0 0 0 0 0 0 0 0 0 0 0 127 0" result="hardAlpha"/>
<feOffset dx="-1.65589" dy="2.75981"/>
<feGaussianBlur stdDeviation="2.41484"/>
<feComposite in2="hardAlpha" operator="arithmetic" k2="-1" k3="1"/>
<feColorMatrix type="matrix" values="0 0 0 0 1 0 0 0 0 1 0 0 0 0 1 0 0 0 0.32 0"/>
<feBlend mode="normal" in2="shape" result="effect2_innerShadow_1997_32714"/>
<feColorMatrix in="SourceAlpha" type="matrix" values="0 0 0 0 0 0 0 0 0 0 0 0 0 0 0 0 0 0 127 0" result="hardAlpha"/>
<feOffset dx="1.65589" dy="-2.75981"/>
<feGaussianBlur stdDeviation="2.41484"/>
<feComposite in2="hardAlpha" operator="arithmetic" k2="-1" k3="1"/>
<feColorMatrix type="matrix" values="0 0 0 0 0 0 0 0 0 0 0 0 0 0 0 0 0 0 0.24 0"/>
<feBlend mode="normal" in2="effect2_innerShadow_1997_32714" result="effect3_innerShadow_1997_32714"/>
</filter>
<filter id="filter3_f_1997_32714" x="15.2695" y="3.9424" width="6.81967" height="6.16305" filterUnits="userSpaceOnUse" color-interpolation-filters="sRGB">
<feFlood flood-opacity="0" result="BackgroundImageFix"/>
<feBlend mode="normal" in="SourceGraphic" in2="BackgroundImageFix" result="shape"/>
<feGaussianBlur stdDeviation="0.965935" result="effect1_foregroundBlur_1997_32714"/>
</filter>
<filter id="filter4_f_1997_32714" x="28.5956" y="7.60544" width="0.907766" height="1.25286" filterUnits="userSpaceOnUse" color-interpolation-filters="sRGB">
<feFlood flood-opacity="0" result="BackgroundImageFix"/>
<feBlend mode="normal" in="SourceGraphic" in2="BackgroundImageFix" result="shape"/>
<feGaussianBlur stdDeviation="0.0344977" result="effect1_foregroundBlur_1997_32714"/>
</filter>
<filter id="filter5_f_1997_32714" x="28.2505" y="9.34121" width="3.03585" height="2.48385" filterUnits="userSpaceOnUse" color-interpolation-filters="sRGB">
<feFlood flood-opacity="0" result="BackgroundImageFix"/>
<feBlend mode="normal" in="SourceGraphic" in2="BackgroundImageFix" result="shape"/>
<feGaussianBlur stdDeviation="0.137991" result="effect1_foregroundBlur_1997_32714"/>
</filter>
<filter id="filter6_f_1997_32714" x="26.8016" y="8.78935" width="1.845" height="2.84439" filterUnits="userSpaceOnUse" color-interpolation-filters="sRGB">
<feFlood flood-opacity="0" result="BackgroundImageFix"/>
<feBlend mode="normal" in="SourceGraphic" in2="BackgroundImageFix" result="shape"/>
<feGaussianBlur stdDeviation="0.103493" result="effect1_foregroundBlur_1997_32714"/>
</filter>
<filter id="filter7_f_1997_32714" x="28.7618" y="7.11333" width="1.70828" height="2.4888" filterUnits="userSpaceOnUse" color-interpolation-filters="sRGB">
<feFlood flood-opacity="0" result="BackgroundImageFix"/>
<feBlend mode="normal" in="SourceGraphic" in2="BackgroundImageFix" result="shape"/>
<feGaussianBlur stdDeviation="0.103493" result="effect1_foregroundBlur_1997_32714"/>
</filter>
<filter id="filter8_f_1997_32714" x="29.323" y="8.00285" width="1.91983" height="2.70694" filterUnits="userSpaceOnUse" color-interpolation-filters="sRGB">
<feFlood flood-opacity="0" result="BackgroundImageFix"/>
<feBlend mode="normal" in="SourceGraphic" in2="BackgroundImageFix" result="shape"/>
<feGaussianBlur stdDeviation="0.103493" result="effect1_foregroundBlur_1997_32714"/>
</filter>
<filter id="filter9_f_1997_32714" x="30.1849" y="8.95024" width="1.81729" height="2.14884" filterUnits="userSpaceOnUse" color-interpolation-filters="sRGB">
<feFlood flood-opacity="0" result="BackgroundImageFix"/>
<feBlend mode="normal" in="SourceGraphic" in2="BackgroundImageFix" result="shape"/>
<feGaussianBlur stdDeviation="0.103493" result="effect1_foregroundBlur_1997_32714"/>
</filter>
<filter id="filter10_f_1997_32714" x="27.6984" y="8.71938" width="2.38668" height="1.48434" filterUnits="userSpaceOnUse" color-interpolation-filters="sRGB">
<feFlood flood-opacity="0" result="BackgroundImageFix"/>
<feBlend mode="normal" in="SourceGraphic" in2="BackgroundImageFix" result="shape"/>
<feGaussianBlur stdDeviation="0.137991" result="effect1_foregroundBlur_1997_32714"/>
</filter>
<filter id="filter11_f_1997_32714" x="10.0357" y="7.23679" width="6.74248" height="14.4559" filterUnits="userSpaceOnUse" color-interpolation-filters="sRGB">
<feFlood flood-opacity="0" result="BackgroundImageFix"/>
<feBlend mode="normal" in="SourceGraphic" in2="BackgroundImageFix" result="shape"/>
<feGaussianBlur stdDeviation="0.0344977" result="effect1_foregroundBlur_1997_32714"/>
</filter>
<filter id="filter12_f_1997_32714" x="10.1872" y="9.37575" width="6.79806" height="12.524" filterUnits="userSpaceOnUse" color-interpolation-filters="sRGB">
<feFlood flood-opacity="0" result="BackgroundImageFix"/>
<feBlend mode="normal" in="SourceGraphic" in2="BackgroundImageFix" result="shape"/>
<feGaussianBlur stdDeviation="0.137991" result="effect1_foregroundBlur_1997_32714"/>
</filter>
<filter id="filter13_if_1997_32714" x="6.7239" y="3.7499" width="5.69601" height="4.49251" filterUnits="userSpaceOnUse" color-interpolation-filters="sRGB">
<feFlood flood-opacity="0" result="BackgroundImageFix"/>
<feBlend mode="normal" in="SourceGraphic" in2="BackgroundImageFix" result="shape"/>
<feColorMatrix in="SourceAlpha" type="matrix" values="0 0 0 0 0 0 0 0 0 0 0 0 0 0 0 0 0 0 127 0" result="hardAlpha"/>
<feOffset dx="-0.275981" dy="0.275981"/>
<feGaussianBlur stdDeviation="0.137991"/>
<feComposite in2="hardAlpha" operator="arithmetic" k2="-1" k3="1"/>
<feColorMatrix type="matrix" values="0 0 0 0 1 0 0 0 0 1 0 0 0 0 1 0 0 0 0.34 0"/>
<feBlend mode="normal" in2="shape" result="effect1_innerShadow_1997_32714"/>
<feGaussianBlur stdDeviation="0.137991" result="effect2_foregroundBlur_1997_32714"/>
</filter>
<filter id="filter14_f_1997_32714" x="10.9326" y="6.2364" width="2.20787" height="1.72483" filterUnits="userSpaceOnUse" color-interpolation-filters="sRGB">
<feFlood flood-opacity="0" result="BackgroundImageFix"/>
<feBlend mode="normal" in="SourceGraphic" in2="BackgroundImageFix" result="shape"/>
<feGaussianBlur stdDeviation="0.0689953" result="effect1_foregroundBlur_1997_32714"/>
</filter>
<filter id="filter15_f_1997_32714" x="10.4497" y="8.41451" width="12.8429" height="11.8287" filterUnits="userSpaceOnUse" color-interpolation-filters="sRGB">
<feFlood flood-opacity="0" result="BackgroundImageFix"/>
<feBlend mode="normal" in="SourceGraphic" in2="BackgroundImageFix" result="shape"/>
<feGaussianBlur stdDeviation="0.551963" result="effect1_foregroundBlur_1997_32714"/>
</filter>
<filter id="filter16_f_1997_32714" x="18.3152" y="34.3462" width="4.79669" height="11.7697" filterUnits="userSpaceOnUse" color-interpolation-filters="sRGB">
<feFlood flood-opacity="0" result="BackgroundImageFix"/>
<feBlend mode="normal" in="SourceGraphic" in2="BackgroundImageFix" result="shape"/>
<feGaussianBlur stdDeviation="0.206986" result="effect1_foregroundBlur_1997_32714"/>
</filter>
<filter id="filter17_f_1997_32714" x="10.1029" y="48.7578" width="5.01874" height="4.68427" filterUnits="userSpaceOnUse" color-interpolation-filters="sRGB">
<feFlood flood-opacity="0" result="BackgroundImageFix"/>
<feBlend mode="normal" in="SourceGraphic" in2="BackgroundImageFix" result="shape"/>
<feGaussianBlur stdDeviation="0.206986" result="effect1_foregroundBlur_1997_32714"/>
</filter>
<filter id="filter18_f_1997_32714" x="21.655" y="47.1507" width="5.80207" height="5.08747" filterUnits="userSpaceOnUse" color-interpolation-filters="sRGB">
<feFlood flood-opacity="0" result="BackgroundImageFix"/>
<feBlend mode="normal" in="SourceGraphic" in2="BackgroundImageFix" result="shape"/>
<feGaussianBlur stdDeviation="0.206986" result="effect1_foregroundBlur_1997_32714"/>
</filter>
<filter id="filter19_f_1997_32714" x="18.8671" y="25.7967" width="5.11255" height="9.59034" filterUnits="userSpaceOnUse" color-interpolation-filters="sRGB">
<feFlood flood-opacity="0" result="BackgroundImageFix"/>
<feBlend mode="normal" in="SourceGraphic" in2="BackgroundImageFix" result="shape"/>
<feGaussianBlur stdDeviation="0.413972" result="effect1_foregroundBlur_1997_32714"/>
</filter>
<filter id="filter20_bii_1997_32714" x="22.8199" y="1.65158" width="34.9769" height="30.6968" filterUnits="userSpaceOnUse" color-interpolation-filters="sRGB">
<feFlood flood-opacity="0" result="BackgroundImageFix"/>
<feGaussianBlur in="BackgroundImageFix" stdDeviation="1.44947"/>
<feComposite in2="SourceAlpha" operator="in" result="effect1_backgroundBlur_1997_32714"/>
<feBlend mode="normal" in="SourceGraphic" in2="effect1_backgroundBlur_1997_32714" result="shape"/>
<feColorMatrix in="SourceAlpha" type="matrix" values="0 0 0 0 0 0 0 0 0 0 0 0 0 0 0 0 0 0 127 0" result="hardAlpha"/>
<feOffset dx="4.34842" dy="-4.34842"/>
<feGaussianBlur stdDeviation="4.34842"/>
<feComposite in2="hardAlpha" operator="arithmetic" k2="-1" k3="1"/>
<feColorMatrix type="matrix" values="0 0 0 0 0 0 0 0 0 0 0 0 0 0 0 0 0 0 0.32 0"/>
<feBlend mode="normal" in2="shape" result="effect2_innerShadow_1997_32714"/>
<feColorMatrix in="SourceAlpha" type="matrix" values="0 0 0 0 0 0 0 0 0 0 0 0 0 0 0 0 0 0 127 0" result="hardAlpha"/>
<feOffset dx="-4.34842" dy="4.34842"/>
<feGaussianBlur stdDeviation="4.34842"/>
<feComposite in2="hardAlpha" operator="arithmetic" k2="-1" k3="1"/>
<feColorMatrix type="matrix" values="0 0 0 0 1 0 0 0 0 1 0 0 0 0 1 0 0 0 0.5 0"/>
<feBlend mode="normal" in2="effect2_innerShadow_1997_32714" result="effect3_innerShadow_1997_32714"/>
</filter>
<filter id="filter21_ii_1997_32714" x="33.5505" y="7.92223" width="13.6795" height="13.0453" filterUnits="userSpaceOnUse" color-interpolation-filters="sRGB">
<feFlood flood-opacity="0" result="BackgroundImageFix"/>
<feBlend mode="normal" in="SourceGraphic" in2="BackgroundImageFix" result="shape"/>
<feColorMatrix in="SourceAlpha" type="matrix" values="0 0 0 0 0 0 0 0 0 0 0 0 0 0 0 0 0 0 127 0" result="hardAlpha"/>
<feOffset dx="1.44947" dy="-1.44947"/>
<feGaussianBlur stdDeviation="1.08711"/>
<feComposite in2="hardAlpha" operator="arithmetic" k2="-1" k3="1"/>
<feColorMatrix type="matrix" values="0 0 0 0 0 0 0 0 0 0 0 0 0 0 0 0 0 0 0.4 0"/>
<feBlend mode="normal" in2="shape" result="effect1_innerShadow_1997_32714"/>
<feColorMatrix in="SourceAlpha" type="matrix" values="0 0 0 0 0 0 0 0 0 0 0 0 0 0 0 0 0 0 127 0" result="hardAlpha"/>
<feOffset dx="-1.44947" dy="1.44947"/>
<feGaussianBlur stdDeviation="1.08711"/>
<feComposite in2="hardAlpha" operator="arithmetic" k2="-1" k3="1"/>
<feColorMatrix type="matrix" values="0 0 0 0 1 0 0 0 0 1 0 0 0 0 1 0 0 0 0.6 0"/>
<feBlend mode="normal" in2="effect1_innerShadow_1997_32714" result="effect2_innerShadow_1997_32714"/>
</filter>
<filter id="filter22_ii_1997_32714" x="28.5" y="25.5" width="8.4375" height="8" filterUnits="userSpaceOnUse" color-interpolation-filters="sRGB">
<feFlood flood-opacity="0" result="BackgroundImageFix"/>
<feBlend mode="normal" in="SourceGraphic" in2="BackgroundImageFix" result="shape"/>
<feColorMatrix in="SourceAlpha" type="matrix" values="0 0 0 0 0 0 0 0 0 0 0 0 0 0 0 0 0 0 127 0" result="hardAlpha"/>
<feOffset dx="0.5" dy="-0.5"/>
<feGaussianBlur stdDeviation="0.6"/>
<feComposite in2="hardAlpha" operator="arithmetic" k2="-1" k3="1"/>
<feColorMatrix type="matrix" values="0 0 0 0 0 0 0 0 0 0 0 0 0 0 0 0 0 0 0.4 0"/>
<feBlend mode="normal" in2="shape" result="effect1_innerShadow_1997_32714"/>
<feColorMatrix in="SourceAlpha" type="matrix" values="0 0 0 0 0 0 0 0 0 0 0 0 0 0 0 0 0 0 127 0" result="hardAlpha"/>
<feOffset dx="-0.5" dy="0.5"/>
<feGaussianBlur stdDeviation="0.6"/>
<feComposite in2="hardAlpha" operator="arithmetic" k2="-1" k3="1"/>
<feColorMatrix type="matrix" values="0 0 0 0 1 0 0 0 0 1 0 0 0 0 1 0 0 0 0.6 0"/>
<feBlend mode="normal" in2="effect1_innerShadow_1997_32714" result="effect2_innerShadow_1997_32714"/>
</filter>
<filter id="filter23_f_1997_32714" x="42.7225" y="6.66185" width="9.98001" height="8.10196" filterUnits="userSpaceOnUse" color-interpolation-filters="sRGB">
<feFlood flood-opacity="0" result="BackgroundImageFix"/>
<feBlend mode="normal" in="SourceGraphic" in2="BackgroundImageFix" result="shape"/>
<feGaussianBlur stdDeviation="1.08711" result="effect1_foregroundBlur_1997_32714"/>
</filter>
<filter id="filter24_ii_1997_32714" x="32.0882" y="36.05" width="19.4455" height="16.5107" filterUnits="userSpaceOnUse" color-interpolation-filters="sRGB">
<feFlood flood-opacity="0" result="BackgroundImageFix"/>
<feBlend mode="normal" in="SourceGraphic" in2="BackgroundImageFix" result="shape"/>
<feColorMatrix in="SourceAlpha" type="matrix" values="0 0 0 0 0 0 0 0 0 0 0 0 0 0 0 0 0 0 127 0" result="hardAlpha"/>
<feOffset dx="1.95" dy="-1.95"/>
<feGaussianBlur stdDeviation="1.3"/>
<feComposite in2="hardAlpha" operator="arithmetic" k2="-1" k3="1"/>
<feColorMatrix type="matrix" values="0 0 0 0 0 0 0 0 0 0 0 0 0 0 0 0 0 0 0.4 0"/>
<feBlend mode="normal" in2="shape" result="effect1_innerShadow_1997_32714"/>
<feColorMatrix in="SourceAlpha" type="matrix" values="0 0 0 0 0 0 0 0 0 0 0 0 0 0 0 0 0 0 127 0" result="hardAlpha"/>
<feOffset dx="-1.95" dy="1.95"/>
<feGaussianBlur stdDeviation="1.3"/>
<feComposite in2="hardAlpha" operator="arithmetic" k2="-1" k3="1"/>
<feColorMatrix type="matrix" values="0 0 0 0 1 0 0 0 0 1 0 0 0 0 1 0 0 0 0.6 0"/>
<feBlend mode="normal" in2="effect1_innerShadow_1997_32714" result="effect2_innerShadow_1997_32714"/>
</filter>
<filter id="filter25_f_1997_32714" x="35.98" y="37.325" width="6.44304" height="4.93205" filterUnits="userSpaceOnUse" color-interpolation-filters="sRGB">
<feFlood flood-opacity="0" result="BackgroundImageFix"/>
<feBlend mode="normal" in="SourceGraphic" in2="BackgroundImageFix" result="shape"/>
<feGaussianBlur stdDeviation="0.833142" result="effect1_foregroundBlur_1997_32714"/>
</filter>
<filter id="filter26_f_1997_32714" x="43.3487" y="37.325" width="6.44304" height="4.93205" filterUnits="userSpaceOnUse" color-interpolation-filters="sRGB">
<feFlood flood-opacity="0" result="BackgroundImageFix"/>
<feBlend mode="normal" in="SourceGraphic" in2="BackgroundImageFix" result="shape"/>
<feGaussianBlur stdDeviation="0.833142" result="effect1_foregroundBlur_1997_32714"/>
</filter>
<linearGradient id="paint0_linear_1997_32714" x1="8.54348" y1="25.3478" x2="21.8478" y2="38.2609" gradientUnits="userSpaceOnUse">
<stop stop-color="#E32900"/>
<stop offset="0.494792" stop-color="#C6E216"/>
<stop offset="1" stop-color="#D808FA"/>
</linearGradient>
<radialGradient id="paint1_radial_1997_32714" cx="0" cy="0" r="1" gradientUnits="userSpaceOnUse" gradientTransform="translate(29.2855 7.99582) rotate(125.311) scale(1.01461 0.374418)">
<stop/>
<stop offset="0.387434" stop-opacity="0.317526"/>
<stop offset="1" stop-opacity="0"/>
</radialGradient>
<linearGradient id="paint2_linear_1997_32714" x1="30.0099" y1="10.2036" x2="29.4924" y2="10.9281" gradientUnits="userSpaceOnUse">
<stop/>
<stop offset="1" stop-opacity="0"/>
</linearGradient>
<linearGradient id="paint3_linear_1997_32714" x1="28.3195" y1="9.75529" x2="26.9051" y2="9.96227" gradientUnits="userSpaceOnUse">
<stop/>
<stop offset="1" stop-opacity="0"/>
</linearGradient>
<radialGradient id="paint4_radial_1997_32714" cx="0" cy="0" r="1" gradientUnits="userSpaceOnUse" gradientTransform="translate(11.1397 9.03067) rotate(-79.5625) scale(1.33297 0.750466)">
<stop/>
<stop offset="1" stop-opacity="0"/>
</radialGradient>
<linearGradient id="paint5_linear_1997_32714" x1="13.5546" y1="13.9294" x2="12.7611" y2="14.3779" gradientUnits="userSpaceOnUse">
<stop/>
<stop offset="1" stop-opacity="0"/>
</linearGradient>
<linearGradient id="paint6_linear_1997_32714" x1="12.3042" y1="6.75736" x2="11.7669" y2="7.57549" gradientUnits="userSpaceOnUse">
<stop stop-color="white"/>
<stop offset="1" stop-color="white" stop-opacity="0"/>
</linearGradient>
<radialGradient id="paint7_radial_1997_32714" cx="0" cy="0" r="1" gradientUnits="userSpaceOnUse" gradientTransform="translate(16.1418 16.0338) rotate(9.01932) scale(6.60169 4.57797)">
<stop/>
<stop offset="0.429781" stop-opacity="0.361792"/>
<stop offset="1" stop-opacity="0"/>
</radialGradient>
<radialGradient id="paint8_radial_1997_32714" cx="0" cy="0" r="1" gradientUnits="userSpaceOnUse" gradientTransform="translate(18.7291 36.0425) rotate(71.0754) scale(10.2113 2.77257)">
<stop/>
<stop offset="1" stop-opacity="0"/>
</radialGradient>
<radialGradient id="paint9_radial_1997_32714" cx="0" cy="0" r="1" gradientUnits="userSpaceOnUse" gradientTransform="translate(12.76 52.2627) rotate(-85.595) scale(2.27711 2.47687)">
<stop/>
<stop offset="0.247735" stop-opacity="0.537653"/>
<stop offset="1" stop-opacity="0"/>
</radialGradient>
<radialGradient id="paint10_radial_1997_32714" cx="0" cy="0" r="1" gradientUnits="userSpaceOnUse" gradientTransform="translate(25.1683 50.11) rotate(-120.815) scale(2.27704 2.13626)">
<stop/>
<stop offset="0.247735" stop-opacity="0.537653"/>
<stop offset="1" stop-opacity="0"/>
</radialGradient>
<linearGradient id="paint11_linear_1997_32714" x1="31" y1="27.5" x2="34.6831" y2="32.7234" gradientUnits="userSpaceOnUse">
<stop stop-color="#E32900"/>
<stop offset="0.494792" stop-color="#C6E216"/>
<stop offset="1" stop-color="#D808FA"/>
</linearGradient>
<clipPath id="clip0_1997_32714">
<rect width="60" height="60" fill="white"/>
</clipPath>
</defs>
</svg>
