<svg width="25" height="25" viewBox="0 0 25 25" fill="none" xmlns="http://www.w3.org/2000/svg">
<path fill-rule="evenodd" clip-rule="evenodd" d="M20.7782 3.79516C19.134 2.151 16.4683 2.151 14.8241 3.79516L13.7177 4.90155C13.715 4.90423 13.7123 4.90694 13.7096 4.90966C13.7068 4.91238 13.7041 4.91511 13.7014 4.91785L3.12105 15.4982C2.92271 15.6966 2.81128 15.9656 2.81128 16.2461V20.7044C2.81128 21.2885 3.2848 21.762 3.86891 21.762H8.32722C8.60772 21.762 8.87674 21.6506 9.07508 21.4523L20.7782 9.74919C22.4223 8.10503 22.4223 5.43932 20.7782 3.79516ZM14.4575 7.15327L4.92653 16.6842V19.6468H7.88914L17.4201 10.1159L14.4575 7.15327ZM18.9158 8.62016L19.2824 8.25348C20.1005 7.43538 20.1005 6.10897 19.2824 5.29087C18.4643 4.47277 17.1379 4.47277 16.3198 5.29087L15.9532 5.65756L18.9158 8.62016Z" fill="black"/>
</svg>
