<svg width="25" height="25" viewBox="0 0 25 25" fill="none" xmlns="http://www.w3.org/2000/svg">
<path d="M13.6112 3.76201C13.6112 3.09927 13.0739 2.56201 12.4112 2.56201C11.7484 2.56201 11.2112 3.09927 11.2112 3.76201V10.962H4.01116C3.34842 10.962 2.81116 11.4993 2.81116 12.162C2.81116 12.8248 3.34842 13.362 4.01116 13.362H11.2112V20.562C11.2112 21.2248 11.7484 21.762 12.4112 21.762C13.0739 21.762 13.6112 21.2248 13.6112 20.562V13.362H20.8112C21.4739 13.362 22.0112 12.8248 22.0112 12.162C22.0112 11.4993 21.4739 10.962 20.8112 10.962H13.6112V3.76201Z" fill="black"/>
</svg>
