<svg width="20" height="20" viewBox="0 0 20 20" fill="none" xmlns="http://www.w3.org/2000/svg">
<rect width="20" height="20" rx="10" fill="#17A2B8"/>
<path d="M13.9091 10.162C14.3147 10.0244 14.5083 9.5728 14.3379 9.1548C14.1671 8.7328 13.6967 8.5028 13.2911 8.6408C12.8851 8.7788 12.6911 9.23 12.8619 9.6484C13.0327 10.0664 13.5031 10.3004 13.9087 10.1624L13.9091 10.162ZM8.73789 9.1564C8.90829 9.5744 8.71469 10.026 8.30909 10.164C7.90309 10.2976 7.43269 10.068 7.26189 9.6496C7.09149 9.2316 7.28509 8.776 7.69069 8.642C8.09669 8.504 8.56709 8.734 8.73789 9.1564Z" fill="white"/>
<path d="M15.604 10.05V9.80361H15.6052V9.00201C15.6052 8.98561 15.6072 8.97801 15.6076 8.97601C15.6144 8.96398 15.6224 8.95271 15.6316 8.94241C15.6448 8.92641 15.6604 8.91041 15.6868 8.88401L15.6944 8.87601C15.7992 8.77001 15.9968 8.57041 16 8.20921V8.19961C15.9997 7.98845 15.9158 7.786 15.7666 7.63653C15.6174 7.48707 15.4152 7.40275 15.204 7.40201H11.596C11.552 7.40201 11.5092 7.40561 11.4668 7.41241C11.0986 7.4577 10.7575 7.62899 10.5012 7.89721C10.466 7.93081 10.4332 7.96361 10.4052 7.99161L10.4036 7.99321C10.312 8.08441 10.266 8.12761 10.2144 8.15721C10.1744 8.18001 10.1156 8.20361 10.0012 8.20361C9.8792 8.20361 9.82 8.17961 9.7824 8.15801C9.7324 8.13001 9.6876 8.08801 9.594 7.99361L9.592 7.99161C9.5612 7.96081 9.5252 7.92401 9.4852 7.88641C9.23229 7.62653 8.89887 7.45989 8.5392 7.41361C8.49455 7.40588 8.44932 7.402 8.404 7.40201H4.796C4.352 7.40201 4 7.76601 4 8.20121V8.20201C4 8.56881 4.204 8.77161 4.3112 8.87801L4.3192 8.88601C4.3464 8.91281 4.3628 8.92921 4.3768 8.94521C4.38629 8.95589 4.39461 8.96755 4.4016 8.98001C4.40353 8.98826 4.40434 8.99674 4.404 9.00521V9.05601C4.40234 9.08865 4.40154 9.12133 4.4016 9.15401V10.05C4.4016 11.4172 5.4296 12.598 6.7748 12.598H7.564C8.936 12.598 10 11.396 10 9.99001C10 11.396 11.0616 12.594 12.4348 12.594H13.2248C14.564 12.594 15.604 11.4248 15.604 10.05ZM14.8012 10.046C14.8012 11.006 14.1072 11.804 13.2212 11.804H12.4308C11.5148 11.804 10.8028 10.982 10.8028 9.98601V9.15401C10.806 8.63001 11.1644 8.20201 11.648 8.20201H13.952C14.436 8.20201 14.8012 8.63001 14.8012 9.15401V10.046ZM7.564 11.8036H6.7784C5.8932 11.8036 5.2012 11.01 5.2012 10.05V9.15401C5.2012 8.63001 5.5652 8.20201 6.048 8.20201H8.3532C8.8364 8.20201 9.2024 8.63001 9.2024 9.15401V9.99001C9.2024 10.982 8.4824 11.8036 7.564 11.8036Z" fill="white"/>
</svg>
