<svg width="25" height="24" viewBox="0 0 25 24" fill="none" xmlns="http://www.w3.org/2000/svg">
<path d="M12.3997 12.8C15.9197 12.8 18.7997 9.92 18.7997 6.4C18.7997 2.88 15.9197 0 12.3997 0C8.87971 0 5.99971 2.88 5.99971 6.4C5.99971 9.92 8.87971 12.8 12.3997 12.8ZM12.3997 1.6C15.0397 1.6 17.1997 3.76 17.1997 6.4C17.1997 9.04 15.0397 11.2 12.3997 11.2C9.75971 11.2 7.59971 9.04 7.59971 6.4C7.59971 3.76 9.75971 1.6 12.3997 1.6ZM23.5997 19.2C23.5997 21.84 21.4397 24 18.7997 24H5.99971C3.35971 24 1.19971 21.84 1.19971 19.2C1.19971 16.56 3.35971 14.4 5.99971 14.4H18.7997C21.4397 14.4 23.5997 16.56 23.5997 19.2ZM9.99971 5.6C9.99971 5.12 10.3197 4.8 10.7997 4.8C11.2797 4.8 11.5997 5.12 11.5997 5.6C11.5997 6.08 11.2797 6.4 10.7997 6.4C10.3197 6.4 9.99971 6.08 9.99971 5.6ZM13.1997 5.6C13.1997 5.12 13.5197 4.8 13.9997 4.8C14.4797 4.8 14.7997 5.12 14.7997 5.6C14.7997 6.08 14.4797 6.4 13.9997 6.4C13.5197 6.4 13.1997 6.08 13.1997 5.6ZM9.99971 8.4C9.99971 8 10.3997 7.76 10.7997 7.84C11.2797 7.92 11.8397 8 12.3997 8C12.9597 8 13.5997 7.92 13.9997 7.84C14.3997 7.76 14.7997 8 14.7997 8.4C14.7997 8.64 14.6397 8.88 14.3997 8.96C13.9197 9.04 13.1997 9.28 12.3997 9.28C11.5997 9.28 10.8797 9.12 10.3997 8.96C10.1597 8.88 9.99971 8.64 9.99971 8.4Z" fill="white"/>
</svg>
