<svg width="25" height="25" viewBox="0 0 25 25" fill="none" xmlns="http://www.w3.org/2000/svg">
<path fill-rule="evenodd" clip-rule="evenodd" d="M18.1599 15.6428V9.35293C17.2261 8.92313 16.5777 7.97913 16.5777 6.88371C16.5777 5.38329 17.7941 4.16697 19.2945 4.16697C20.7949 4.16697 22.0112 5.38329 22.0112 6.88371C22.0112 7.97913 21.3629 8.92313 20.429 9.35293V15.6428C20.429 18.0516 18.4763 20.0044 16.0675 20.0044C13.6586 20.0044 11.7059 18.0516 11.7059 15.6428V8.26675C11.7059 7.1111 10.7691 6.17427 9.61343 6.17427C8.45779 6.17427 7.52095 7.1111 7.52095 8.26675V15.8425H9.96164L6.40589 20.4189L2.81122 15.8425H5.25186V8.26675C5.25186 5.85792 7.2046 3.90518 9.61343 3.90518C12.0223 3.90518 13.975 5.85792 13.975 8.26675V15.6428C13.975 16.7984 14.9118 17.7353 16.0675 17.7353C17.2231 17.7353 18.1599 16.7984 18.1599 15.6428ZM20.2658 6.88371C20.2658 7.42013 19.8309 7.85499 19.2945 7.85499C18.7581 7.85499 18.3232 7.42013 18.3232 6.88371C18.3232 6.34728 18.7581 5.91242 19.2945 5.91242C19.8309 5.91242 20.2658 6.34728 20.2658 6.88371Z" fill="black"/>
</svg>
