<svg width="25" height="25" viewBox="0 0 25 25" fill="none" xmlns="http://www.w3.org/2000/svg">
<path d="M6.01122 4.64039C5.41122 4.64039 4.91122 5.13524 4.91122 5.72905V6.81771C4.91122 7.41153 4.41122 7.90637 3.81122 7.90637C3.21122 7.90637 2.81122 7.31256 2.81122 6.81771V5.72905C2.81122 3.94761 4.21122 2.56204 6.01122 2.56204H8.11122C8.71122 2.56204 9.21122 3.05689 9.21122 3.6507C9.21122 4.24452 8.71122 4.64039 8.11122 4.64039H6.01122ZM3.91122 16.3187C4.51122 16.3187 5.01122 16.8136 5.01122 17.4074V18.4961C5.01122 19.0899 5.51122 19.5847 6.11122 19.5847H8.21122C8.81122 19.5847 9.31122 20.0796 9.31122 20.6734C9.31122 21.2672 8.81122 21.762 8.21122 21.762H6.01122C4.21122 21.762 2.81122 20.3765 2.81122 18.595V17.5064C2.81122 16.8136 3.31122 16.3187 3.91122 16.3187ZM15.6112 3.6507C15.6112 3.05689 16.1112 2.56204 16.7112 2.56204H18.8112C20.6112 2.56204 22.0112 3.94761 22.0112 5.72905V6.81771C22.0112 7.41153 21.5112 7.90637 20.9112 7.90637C20.3112 7.90637 19.8112 7.41153 19.8112 6.81771V5.72905C19.8112 5.13524 19.3112 4.64039 18.7112 4.64039H16.6112C16.1112 4.64039 15.6112 4.14555 15.6112 3.6507ZM20.9112 16.3187C21.5112 16.3187 22.0112 16.8136 22.0112 17.4074V18.4961C22.0112 20.2775 20.6112 21.6631 18.8112 21.6631H16.7112C16.1112 21.6631 15.6112 21.1682 15.6112 20.5744C15.6112 19.9806 16.1112 19.4858 16.7112 19.4858H18.8112C19.4112 19.4858 19.9112 18.9909 19.9112 18.3971V17.3084C19.9112 16.8136 20.4112 16.3187 20.9112 16.3187ZM3.91122 12.0631C3.91122 11.4693 4.41122 10.9744 5.01122 10.9744H19.9112C20.5112 10.9744 21.0112 11.4693 21.0112 12.0631C21.0112 12.6569 20.5112 13.1517 19.9112 13.1517H4.91122C4.31122 13.1517 3.91122 12.6569 3.91122 12.0631Z" fill="black"/>
</svg>
