<svg width="25" height="25" viewBox="0 0 25 25" fill="none" xmlns="http://www.w3.org/2000/svg">
<path d="M14.0112 12.2659L13.6112 12.1659L11.9112 13.0659C11.7112 13.1659 11.5112 13.1659 11.4112 13.0659L9.71122 12.1659L9.21122 12.2659C8.61122 12.4659 8.31122 12.9659 8.31122 13.5659V15.7659C9.31122 16.3659 10.4112 16.6659 11.6112 16.6659C12.8112 16.6659 13.9112 16.3659 14.9112 15.7659V13.5659C15.0112 12.9659 14.6112 12.4659 14.0112 12.2659ZM11.6112 10.9659C10.2112 10.9659 9.11122 9.86592 9.11122 8.46592C9.11122 7.06592 10.2112 5.96592 11.6112 5.96592C13.0112 5.96592 14.1112 7.06592 14.1112 8.46592C14.1112 9.76592 13.0112 10.9659 11.6112 10.9659ZM21.7112 19.9659L18.5112 16.7659C19.7112 15.2659 20.4112 13.3659 20.4112 11.3659C20.4112 6.46592 16.5112 2.56592 11.6112 2.56592C6.71122 2.56592 2.81122 6.46592 2.81122 11.3659C2.81122 16.2659 6.71122 20.1659 11.6112 20.1659C13.6112 20.1659 15.5112 19.4659 17.0112 18.2659L20.2112 21.4659C20.6112 21.8659 21.3112 21.8659 21.7112 21.4659C22.1112 21.0659 22.1112 20.3659 21.7112 19.9659ZM11.6112 18.0659C7.91122 18.0659 4.91122 15.0659 4.91122 11.3659C4.91122 7.66592 7.91122 4.66592 11.6112 4.66592C15.3112 4.66592 18.3112 7.66592 18.3112 11.3659C18.3112 15.0659 15.3112 18.0659 11.6112 18.0659Z" fill="black"/>
</svg>
