<svg width="25" height="24" viewBox="0 0 25 24" fill="none" xmlns="http://www.w3.org/2000/svg">
<g clip-path="url(#clip0_65_275)">
<path d="M23.9777 22.695L18.2034 16.923C19.9271 14.9115 20.8055 12.3094 20.6542 9.6632C20.5029 7.01696 19.3336 4.53232 17.3919 2.73089C15.4502 0.929459 12.887 -0.0486628 10.2404 0.00186448C7.59389 0.0523918 5.0698 1.12764 3.19806 3.00188C1.32633 4.87611 0.252517 7.40358 0.202057 10.0537C0.151597 12.7038 1.12841 15.2704 2.92744 17.2147C4.72647 19.159 7.20779 20.3298 9.85049 20.4813C12.4932 20.6328 15.0918 19.7533 17.1006 18.0272L22.8649 23.7992C23.0478 23.9106 23.2534 23.9792 23.4664 24C23.6524 23.9966 23.8306 23.9252 23.9677 23.7992C24.1147 23.6539 24.1983 23.4561 24.2002 23.2492C24.202 23.0423 24.1221 22.8431 23.9777 22.695ZM10.4341 18.8905C8.71907 18.8905 7.04253 18.3813 5.61651 17.4272C4.19049 16.4731 3.07905 15.117 2.42272 13.5303C1.7664 11.9437 1.59468 10.1978 1.92927 8.51348C2.26386 6.82913 3.08974 5.28195 4.30247 4.0676C5.51519 2.85325 7.0603 2.02627 8.74241 1.69123C10.4245 1.35619 12.1681 1.52815 13.7526 2.18535C15.3371 2.84255 16.6914 3.95548 17.6442 5.38341C18.597 6.81133 19.1056 8.49011 19.1056 10.2075C19.103 12.5095 18.1885 14.7166 16.5629 16.3444C14.9372 17.9722 12.7331 18.8879 10.4341 18.8905Z" fill="white"/>
</g>
<defs>
<clipPath id="clip0_65_275">
<rect width="24" height="24" fill="white" transform="translate(0.200195)"/>
</clipPath>
</defs>
</svg>
