<svg width="25" height="24" viewBox="0 0 25 24" fill="none" xmlns="http://www.w3.org/2000/svg">
<path d="M23.9492 22.56L18.5917 17.2L18.5117 17.12C20.111 15.28 20.9906 12.96 20.9906 10.4C20.9906 4.64 16.3527 0 10.5954 0C4.83806 0 0.200195 4.72 0.200195 10.4C0.200195 16.16 4.83806 20.72 10.5954 20.72C13.1542 20.72 15.5531 19.76 17.3923 18.24C17.3923 18.24 17.3923 18.32 17.4722 18.32L22.9097 23.76C23.0696 23.92 23.3095 24 23.4695 24C23.7093 24 23.8693 23.92 24.0292 23.76C24.2691 23.36 24.2691 22.88 23.9492 22.56ZM10.5954 19.12C5.71765 19.12 1.79946 15.28 1.79946 10.4C1.79946 5.6 5.71765 1.68 10.5954 1.68C15.4731 1.68 19.3913 5.6 19.3913 10.4C19.3913 15.28 15.4731 19.12 10.5954 19.12ZM10.5954 3.2C14.5936 3.2 17.7921 6.4 17.7921 10.4C17.7921 14.4 14.5936 17.6 10.5954 17.6C6.59724 17.6 3.39872 14.4 3.39872 10.4C3.39872 6.4 6.59724 3.2 10.5954 3.2Z" fill="white"/>
</svg>
