<svg width="25" height="25" viewBox="0 0 25 25" fill="none" xmlns="http://www.w3.org/2000/svg">
<g clip-path="url(#clip0_1114_56951)">
<path d="M12.7971 1.72989C12.8668 1.72989 12.9066 1.72989 12.9066 1.72989C12.9017 1.78322 12.9017 1.8369 12.9066 1.89022V2.7921C12.8979 3.14458 13.0042 3.49023 13.2092 3.77616C13.4142 4.0621 13.7067 4.27257 14.0419 4.3754C14.6854 4.53691 15.3073 4.77579 15.8942 5.08688C16.1969 5.2615 16.5484 5.33063 16.8942 5.28351C17.2399 5.2364 17.5605 5.07568 17.8062 4.82633L18.3041 4.32529C18.4152 4.25531 18.5418 4.21401 18.6726 4.20504C18.7224 4.20504 18.7323 4.20504 18.7423 4.20504L19.8377 5.30733C19.8563 5.32134 19.8713 5.33949 19.8817 5.36036C19.8921 5.38123 19.8975 5.40425 19.8975 5.42759C19.8975 5.45092 19.8921 5.47394 19.8817 5.49481C19.8713 5.51568 19.8563 5.53383 19.8377 5.54784C19.7609 5.6186 19.6939 5.6995 19.6385 5.78834L19.2402 6.38959C19.071 6.6387 18.9755 6.93106 18.9649 7.23264C18.9543 7.53423 19.0291 7.83263 19.1805 8.09313C19.5043 8.65896 19.7521 9.2655 19.9174 9.89689C20.0038 10.243 20.2026 10.5503 20.4822 10.7699C20.7618 10.9895 21.1062 11.109 21.461 11.1094H22.2576C22.2842 11.108 22.3107 11.1122 22.3355 11.1217C22.3603 11.1313 22.3829 11.146 22.4017 11.1649C22.4204 11.1838 22.4351 11.2065 22.4446 11.2315C22.4541 11.2564 22.4582 11.2831 22.4568 11.3098V12.9132C22.4582 12.9399 22.4541 12.9666 22.4446 12.9915C22.4351 13.0165 22.4204 13.0392 22.4017 13.0581C22.3829 13.077 22.3603 13.0917 22.3355 13.1013C22.3107 13.1108 22.2842 13.115 22.2576 13.1136H21.461C21.1149 13.1148 20.7785 13.2287 20.5021 13.4383C20.2257 13.6478 20.0241 13.9417 19.9273 14.276C19.7534 14.9219 19.5026 15.5444 19.1805 16.1299C18.9918 16.4406 18.9146 16.8069 18.9617 17.1679C19.0089 17.5289 19.1774 17.8628 19.4394 18.114L20.0369 18.7152C20.0538 18.7303 20.0674 18.7488 20.0767 18.7695C20.086 18.7903 20.0908 18.8127 20.0908 18.8355C20.0908 18.8582 20.086 18.8807 20.0767 18.9015C20.0674 18.9222 20.0538 18.9407 20.0369 18.9557L19.041 19.9578C18.9299 20.0278 18.8034 20.0691 18.6726 20.0781C18.6726 20.0781 18.6128 20.0781 18.6029 20.0781L18.0054 19.4768C17.7597 19.2275 17.4391 19.0668 17.0933 19.0196C16.7476 18.9725 16.396 19.0417 16.0933 19.2163C15.531 19.5421 14.9283 19.7915 14.3008 19.9578C13.9568 20.0448 13.6515 20.2448 13.4332 20.5262C13.2149 20.8075 13.0962 21.1541 13.0958 21.5111V22.3127C13.0973 22.3394 13.0931 22.3661 13.0836 22.3911C13.0741 22.4161 13.0595 22.4387 13.0407 22.4577C13.0219 22.4766 12.9994 22.4913 12.9745 22.5008C12.9497 22.5104 12.9232 22.5146 12.8967 22.5131H11.3033C11.2768 22.5146 11.2502 22.5104 11.2254 22.5008C11.2006 22.4913 11.1781 22.4766 11.1593 22.4577C11.1405 22.4387 11.1259 22.4161 11.1164 22.3911C11.1069 22.3661 11.1027 22.3394 11.1041 22.3127V21.5111C11.1029 21.1628 10.9897 20.8244 10.7815 20.5462C10.5733 20.2681 10.2812 20.0652 9.94894 19.9678C9.29148 19.7832 8.65928 19.5173 8.06679 19.1762C7.76409 19.0016 7.41254 18.9324 7.06678 18.9796C6.72102 19.0267 6.40041 19.1874 6.15476 19.4367L5.65684 19.9378C5.54572 20.0078 5.41916 20.0491 5.28837 20.058C5.28837 20.058 5.22862 20.058 5.21866 20.058L4.12323 18.9557C4.10628 18.9407 4.0927 18.9222 4.0834 18.9015C4.0741 18.8807 4.06929 18.8582 4.06929 18.8355C4.06929 18.8127 4.0741 18.7903 4.0834 18.7695C4.0927 18.7488 4.10628 18.7303 4.12323 18.7152C4.1615 18.6835 4.19504 18.6464 4.22282 18.605L4.72074 18.0038C4.92826 17.754 5.05477 17.4463 5.08325 17.122C5.11174 16.7978 5.04083 16.4725 4.88008 16.19C4.55627 15.6242 4.30847 15.0176 4.14315 14.3862C4.05669 14.0401 3.85792 13.7328 3.57832 13.5132C3.29872 13.2936 2.95429 13.1741 2.59958 13.1737H1.8029C1.77637 13.1752 1.74983 13.171 1.72502 13.1614C1.7002 13.1518 1.67767 13.1371 1.65888 13.1182C1.64009 13.0993 1.62547 13.0766 1.61597 13.0517C1.60646 13.0267 1.6023 13 1.60373 12.9733V11.37C1.6023 11.3433 1.60646 11.3165 1.61597 11.2916C1.62547 11.2666 1.64009 11.2439 1.65888 11.225C1.67767 11.2061 1.7002 11.1914 1.72502 11.1818C1.74983 11.1723 1.77637 11.1681 1.8029 11.1695H2.59958C2.96376 11.1772 3.31955 11.059 3.60766 10.8347C3.89578 10.6104 4.09883 10.2936 4.18298 9.93697C4.32297 9.33919 4.57659 8.77432 4.92987 8.27351C5.15076 7.96558 5.25509 7.58839 5.22405 7.2099C5.19301 6.83142 5.02865 6.47653 4.76057 6.20921L4.16306 5.60796C4.14451 5.59396 4.12945 5.5758 4.11908 5.55493C4.10871 5.53406 4.10331 5.51105 4.10331 5.48771C4.10331 5.46438 4.10871 5.44136 4.11908 5.42049C4.12945 5.39962 4.14451 5.38146 4.16306 5.36746L5.2585 4.26517L5.36804 4.14492C5.43338 4.22575 5.5068 4.29962 5.58713 4.36538L6.18464 4.86642C6.43282 5.07523 6.73862 5.20254 7.06088 5.2312C7.38313 5.25987 7.70638 5.18852 7.98712 5.02675C8.54943 4.70092 9.15219 4.45157 9.77965 4.28521C10.1365 4.21192 10.4577 4.0178 10.6897 3.73517C10.9216 3.45255 11.0503 3.09849 11.0543 2.73198V1.93031C11.0529 1.90361 11.0571 1.8769 11.0666 1.85193C11.0761 1.82696 11.0907 1.80428 11.1095 1.78538C11.1283 1.76647 11.1508 1.75176 11.1756 1.7422C11.2004 1.73264 11.227 1.72844 11.2535 1.72989H12.8469M12.8469 0.126554H11.2535C11.0177 0.125225 10.784 0.170973 10.566 0.261149C10.3479 0.351326 10.1498 0.484139 9.98305 0.651898C9.81634 0.819657 9.68435 1.01903 9.59473 1.23847C9.50512 1.45791 9.45966 1.69306 9.46098 1.93031V2.73198C8.69227 2.92773 7.95476 3.23133 7.27011 3.63385L6.6726 3.13281C6.5197 2.93707 6.32228 2.78118 6.09697 2.67829C5.87167 2.57539 5.62508 2.52851 5.378 2.54158C5.13932 2.53726 4.90285 2.58835 4.68697 2.69089C4.47108 2.79342 4.28159 2.94464 4.13319 3.13281L3.08755 4.2351C2.92194 4.39838 2.79037 4.59327 2.70056 4.80836C2.61074 5.02345 2.56447 5.25441 2.56447 5.48771C2.56447 5.72101 2.61074 5.95197 2.70056 6.16706C2.79037 6.38215 2.92194 6.57704 3.08755 6.74032L3.68506 7.34157C3.21374 8.00424 2.87547 8.7531 2.68921 9.54616H1.89253C1.65676 9.54483 1.42308 9.59058 1.205 9.68075C0.986925 9.77093 0.788793 9.90374 0.622078 10.0715C0.455363 10.2393 0.323376 10.4386 0.233761 10.6581C0.144146 10.8775 0.0986827 11.1127 0.100004 11.3499V12.9532C0.0986827 13.1905 0.144146 13.4256 0.233761 13.6451C0.323376 13.8645 0.455363 14.0639 0.622078 14.2317C0.788793 14.3994 0.986925 14.5322 1.205 14.6224C1.42308 14.7126 1.65676 14.7583 1.89253 14.757H2.68921C2.88375 15.5305 3.18546 16.2727 3.58547 16.9616L3.08755 17.5628C2.91422 17.7268 2.77609 17.9248 2.68167 18.1445C2.58725 18.3642 2.53853 18.6011 2.53853 18.8405C2.53853 19.0799 2.58725 19.3168 2.68167 19.5365C2.77609 19.7562 2.91422 19.9542 3.08755 20.1182L4.18298 21.2204C4.3396 21.3783 4.526 21.5031 4.73122 21.5874C4.93644 21.6717 5.15634 21.7139 5.378 21.7115C5.88284 21.7014 6.3713 21.5294 6.77219 21.2204L7.3697 20.6192C8.06256 21.0047 8.79784 21.3074 9.56056 21.5211V22.3227C9.55924 22.56 9.6047 22.7951 9.69432 23.0146C9.78393 23.234 9.91592 23.4334 10.0826 23.6012C10.2494 23.7689 10.4475 23.9017 10.6656 23.9919C10.8836 24.0821 11.1173 24.1278 11.3531 24.1265H12.9464C13.1822 24.1278 13.4159 24.0821 13.634 23.9919C13.8521 23.9017 14.0502 23.7689 14.2169 23.6012C14.3836 23.4334 14.5156 23.234 14.6052 23.0146C14.6948 22.7951 14.7403 22.56 14.739 22.3227V21.5211C15.5077 21.3253 16.2452 21.0217 16.9298 20.6192L17.5273 21.2204C17.684 21.3783 17.8704 21.5031 18.0756 21.5874C18.2808 21.6717 18.5007 21.7139 18.7224 21.7115C19.2272 21.7014 19.7157 21.5294 20.1166 21.2204L21.212 20.1182C21.3776 19.9549 21.5092 19.76 21.599 19.5449C21.6888 19.3298 21.7351 19.0989 21.7351 18.8655C21.7351 18.6322 21.6888 18.4013 21.599 18.1862C21.5092 17.9711 21.3776 17.7762 21.212 17.6129L20.6145 17.0117C20.9976 16.3145 21.2984 15.5746 21.5107 14.8071H22.3074C22.5432 14.8084 22.7769 14.7627 22.995 14.6725C23.213 14.5823 23.4112 14.4495 23.5779 14.2818C23.7446 14.114 23.8766 13.9146 23.9662 13.6952C24.0558 13.4757 24.1013 13.2406 24.0999 13.0034V11.4C24.1013 11.1628 24.0558 10.9276 23.9662 10.7082C23.8766 10.4887 23.7446 10.2894 23.5779 10.1216C23.4112 9.95385 23.213 9.82103 22.995 9.73086C22.7769 9.64068 22.5432 9.59493 22.3074 9.59626H21.5107C21.3162 8.82274 21.0145 8.08061 20.6145 7.39167L21.0128 6.79042C21.1784 6.62714 21.31 6.43225 21.3998 6.21716C21.4896 6.00208 21.5359 5.77112 21.5359 5.53781C21.5359 5.30451 21.4896 5.07355 21.3998 4.85846C21.31 4.64338 21.1784 4.44849 21.0128 4.28521L19.9174 3.18291C19.7608 3.02506 19.5744 2.9003 19.3691 2.81598C19.1639 2.73165 18.944 2.68947 18.7224 2.69189C18.2175 2.70195 17.7291 2.87398 17.3282 3.18291L16.7307 3.78417C16.0378 3.39865 15.3025 3.09597 14.5398 2.88229V1.98041C14.5611 1.7467 14.5328 1.5111 14.4566 1.28926C14.3805 1.06743 14.2583 0.86445 14.0981 0.693824C13.938 0.523197 13.7436 0.388831 13.5278 0.299662C13.3121 0.210492 13.08 0.168562 12.8469 0.176658V0.126554ZM12.0502 8.8447C12.7002 8.8447 13.3355 9.03864 13.876 9.40201C14.4164 9.76537 14.8376 10.2818 15.0863 10.8861C15.3351 11.4903 15.4001 12.1552 15.2733 12.7967C15.1465 13.4382 14.8335 14.0274 14.3739 14.4899C13.9143 14.9524 13.3288 15.2673 12.6913 15.3949C12.0538 15.5225 11.3931 15.457 10.7926 15.2067C10.1921 14.9564 9.67883 14.5326 9.31772 13.9888C8.95662 13.445 8.76388 12.8056 8.76388 12.1516C8.76388 11.7173 8.84889 11.2873 9.01404 10.8861C9.17919 10.4849 9.42126 10.1203 9.72642 9.81326C10.3427 9.1931 11.1786 8.8447 12.0502 8.8447ZM12.0502 7.24136C11.0851 7.24136 10.1416 7.52934 9.33919 8.06888C8.53674 8.60842 7.9113 9.37529 7.54197 10.2725C7.17264 11.1697 7.07601 12.157 7.26429 13.1095C7.45257 14.062 7.91731 14.9369 8.59974 15.6236C9.28218 16.3103 10.1516 16.778 11.0982 16.9674C12.0448 17.1569 13.0259 17.0597 13.9175 16.688C14.8092 16.3164 15.5713 15.687 16.1075 14.8795C16.6437 14.0721 16.9298 13.1227 16.9298 12.1516C16.9272 10.8501 16.4123 9.60273 15.4977 8.68246C14.5832 7.76218 13.3435 7.24401 12.0502 7.24136Z" fill="black"/>
</g>
<defs>
<clipPath id="clip0_1114_56951">
<rect width="24" height="24" fill="white" transform="translate(0.0999756 0.126526)"/>
</clipPath>
</defs>
</svg>
