<svg width="25" height="25" viewBox="0 0 25 25" fill="none" xmlns="http://www.w3.org/2000/svg">
<path d="M13.0112 21.662H11.9112C10.7112 21.662 9.71122 20.762 9.61122 19.562C9.51122 19.562 9.41122 19.462 9.31122 19.462C9.01122 19.662 8.51122 20.062 7.81122 20.062C7.21122 20.062 6.51122 19.862 6.11122 19.362L5.31122 18.562C4.41122 17.662 4.41122 16.362 5.11122 15.462C5.01122 15.362 5.01122 15.262 4.91122 15.062C3.71122 14.962 2.81122 13.962 2.81122 12.762V11.662C2.81122 10.462 3.71122 9.46205 4.91122 9.36205C4.91122 9.26205 5.01122 9.16205 5.11122 8.96205C4.71122 8.56205 4.61122 8.06205 4.61122 7.46205C4.61122 6.86205 4.81122 6.26205 5.31122 5.86205L6.01122 5.16205C6.41122 4.66205 7.01122 4.36205 7.61122 4.36205C8.21122 4.36205 8.71122 4.56205 9.11122 4.96205C9.21122 4.86205 9.41122 4.76205 9.51122 4.76205C9.61122 3.56205 10.6112 2.66205 11.8112 2.66205H12.9112C13.6112 2.66205 14.2112 2.96205 14.6112 3.36205C15.0112 3.76205 15.2112 4.26205 15.2112 4.86205C15.3112 4.86205 15.4112 4.96205 15.5112 4.96205C15.8112 4.76205 16.3112 4.36205 17.0112 4.36205C17.6112 4.36205 18.3112 4.56205 18.7112 5.06205L19.5112 5.86205C19.9112 6.26205 20.2112 6.86205 20.2112 7.46205C20.2112 7.96205 20.0112 8.46205 19.7112 8.86205C19.8112 8.96205 19.8112 9.16205 19.9112 9.26205C21.1112 9.36205 22.0112 10.362 22.0112 11.562V12.662C22.0112 13.862 21.1112 14.862 19.9112 14.962C19.9112 15.062 19.8112 15.162 19.8112 15.262C20.6112 16.162 20.6112 17.562 19.7112 18.462L18.9112 19.262L18.8112 19.362C18.5112 19.562 18.0112 19.962 17.2112 19.962C16.6112 19.962 16.1112 19.762 15.7112 19.362C15.6112 19.362 15.5112 19.462 15.4112 19.462C15.2112 20.762 14.2112 21.662 13.0112 21.662ZM9.01122 17.062C9.21122 17.062 9.41122 17.062 9.51122 17.162C9.91122 17.362 10.3112 17.562 10.8112 17.662C11.3112 17.762 11.6112 18.162 11.6112 18.662V19.262C11.6112 19.362 11.7112 19.462 11.8112 19.462H12.9112C13.0112 19.462 13.1112 19.362 13.1112 19.262V18.662C13.1112 18.162 13.4112 17.762 13.9112 17.662C14.3112 17.562 14.8112 17.362 15.2112 17.162C15.6112 16.962 16.1112 16.962 16.5112 17.362L16.9112 17.762C16.9112 17.762 17.0112 17.762 17.1112 17.762C17.1112 17.762 17.2112 17.762 17.3112 17.662L18.0112 16.962C18.1112 16.862 18.1112 16.762 18.0112 16.662L17.6112 16.262C17.3112 15.962 17.2112 15.362 17.4112 14.962C17.6112 14.562 17.8112 14.162 17.9112 13.662C18.0112 13.162 18.4112 12.862 18.9112 12.862H19.5112C19.6112 12.862 19.7112 12.762 19.7112 12.662V11.562C19.7112 11.462 19.6112 11.362 19.5112 11.362H18.9112C18.4112 11.362 18.0112 11.062 17.9112 10.562C17.8112 10.162 17.6112 9.76205 17.4112 9.26205C17.2112 8.96205 17.2112 8.46205 17.4112 8.16205L17.7112 7.76205C17.7112 7.66205 17.8112 7.66205 17.8112 7.56205L17.9112 7.46205C17.9112 7.36205 17.9112 7.36205 17.8112 7.36205L17.0112 6.56205C17.0112 6.56205 16.9112 6.56205 16.8112 6.56205C16.8112 6.56205 16.7112 6.56205 16.6112 6.66205L16.4112 6.96205C16.1112 7.26205 15.5112 7.36205 15.1112 7.16205C14.7112 6.96205 14.3112 6.76205 13.8112 6.66205C13.3112 6.56205 13.0112 6.16205 13.0112 5.66205V4.96205V4.86205C13.0112 4.76205 12.9112 4.76205 12.8112 4.76205H11.7112C11.6112 4.76205 11.5112 4.86205 11.5112 4.96205V5.56205C11.5112 6.06205 11.2112 6.46205 10.7112 6.56205C10.3112 6.66205 9.91122 6.86205 9.51122 7.06205C9.11122 7.26205 8.61122 7.26205 8.31122 6.96205L7.91122 6.66205C7.81122 6.56205 7.71122 6.56205 7.71122 6.46205C7.71122 6.46205 7.71122 6.46205 7.61122 6.46205L7.51122 6.56205L6.71122 7.36205L6.61122 7.46205C6.61122 7.56205 6.61122 7.56205 6.71122 7.56205L7.11122 7.96205C7.51122 8.36205 7.51122 8.86205 7.21122 9.36205C7.01122 9.76205 6.81122 10.162 6.71122 10.562C6.61122 11.062 6.21122 11.362 5.71122 11.362H5.11122C5.01122 11.362 4.91122 11.462 4.91122 11.562V12.662C4.91122 12.762 5.01122 12.862 5.11122 12.862H5.71122C6.21122 12.862 6.61122 13.162 6.71122 13.662C6.81122 14.062 7.01122 14.562 7.21122 14.962C7.41122 15.362 7.41122 15.862 7.11122 16.162L6.71122 16.562C6.71122 16.562 6.71122 16.562 6.61122 16.662C6.51122 16.762 6.51122 16.862 6.61122 16.962L7.41122 17.762C7.41122 17.762 7.51122 17.762 7.61122 17.762C7.61122 17.762 7.71122 17.762 7.81122 17.662L8.21122 17.262C8.51122 17.162 8.81122 17.062 9.01122 17.062ZM12.4112 10.862C13.1112 10.862 13.8112 11.462 13.8112 12.262C13.8112 12.962 13.2112 13.662 12.4112 13.662C11.7112 13.662 11.0112 13.062 11.0112 12.262C11.0112 11.462 11.6112 10.862 12.4112 10.862ZM12.4112 8.76205C10.5112 8.76205 8.91122 10.362 8.91122 12.262C8.91122 14.162 10.5112 15.762 12.4112 15.762C14.3112 15.762 15.9112 14.162 15.9112 12.262C15.9112 10.362 14.3112 8.76205 12.4112 8.76205Z" fill="black"/>
</svg>
