<svg width="25" height="25" viewBox="0 0 25 25" fill="none" xmlns="http://www.w3.org/2000/svg">
<g clip-path="url(#clip0_1114_56952)">
<path d="M22.3074 9.56589H21.5108C21.3116 8.76254 21.0128 8.05961 20.6145 7.35668L21.0128 6.75417C21.7099 6.05124 21.7099 4.94664 21.0128 4.24371L19.9174 3.13911C19.2203 2.43618 18.1249 2.5366 17.3282 3.13911L16.7307 3.74162C16.0336 3.33995 15.2369 3.03869 14.5398 2.83785V1.93409C14.6394 0.929904 13.8427 0.126556 12.8469 0.126556H11.2535C10.2577 0.126556 9.46097 0.929904 9.46097 1.93409V2.73744C8.66429 2.93827 7.9672 3.23953 7.2701 3.6412L6.67259 3.13911C6.07508 2.33576 4.68089 2.33576 4.18296 3.13911L3.08753 4.24371C2.39043 4.94664 2.39043 6.05124 3.08753 6.75417L3.68504 7.35668C3.18711 8.05961 2.88836 8.76254 2.68919 9.56589H1.89251C0.896656 9.56589 0.0999756 10.3692 0.0999756 11.3734V12.9801C0.0999756 13.9843 0.896656 14.7876 1.89251 14.7876H2.68919C2.88836 15.591 3.18711 16.2939 3.58545 16.9968L3.08753 17.5994C2.39043 18.3023 2.39043 19.4069 3.08753 20.1098L4.18296 21.2144C4.88006 21.9174 5.97549 21.8169 6.77217 21.2144L7.36969 20.6119C8.06678 21.0136 8.86346 21.3148 9.56056 21.5157V22.319C9.56056 23.3232 10.3572 24.1266 11.3531 24.1266H12.9464C13.9423 24.1266 14.739 23.3232 14.739 22.319V21.5157C15.5357 21.3148 16.2328 21.0136 16.9299 20.6119L17.5274 21.2144C18.2245 21.9174 19.3199 21.8169 20.1166 21.2144L21.212 20.1098C21.9091 19.4069 21.9091 18.3023 21.212 17.5994L20.6145 16.9968C21.0128 16.2939 21.3116 15.4906 21.5108 14.7876H22.3074C23.3033 14.7876 24.1 13.9843 24.1 12.9801V11.3734C24.1 10.3692 23.3033 9.56589 22.3074 9.56589ZM12.0502 17.0973C9.36139 17.0973 7.17052 14.8881 7.17052 12.1768C7.17052 9.46547 9.36139 7.25626 12.0502 7.25626C14.739 7.25626 16.9299 9.46547 16.9299 12.1768C16.9299 14.8881 14.739 17.0973 12.0502 17.0973Z" fill="black"/>
</g>
<defs>
<clipPath id="clip0_1114_56952">
<rect width="24" height="24" fill="white" transform="translate(0.0999756 0.126556)"/>
</clipPath>
</defs>
</svg>
