<svg width="276" height="129" viewBox="0 0 276 129" fill="none" xmlns="http://www.w3.org/2000/svg">
<g clip-path="url(#clip0_3282_28762)">
<path d="M145.523 50.6231C145.523 22.7766 122.896 0.0776978 95.1096 0.0776978C67.3231 0.0776978 44.696 22.7766 44.696 50.6231V77.4152C44.696 77.6943 44.696 77.9424 44.696 78.2215C44.696 106.223 67.1987 128.767 95.1096 128.767C123.02 128.767 145.523 106.068 145.523 78.2215V51.4293C145.523 51.1502 145.523 50.9022 145.523 50.6231ZM132.811 64.5463C132.283 65.0735 131.63 65.6006 130.822 66.1278C130.542 66.2518 130.418 66.4069 130.169 66.5309C129.765 66.81 129.361 67.0581 128.988 67.1821C127.931 67.7093 126.75 68.2364 125.538 68.7636C123.828 69.2907 121.839 69.6939 119.726 69.6939C117.488 69.6939 115.623 69.4148 114.287 69.1667C112.826 68.7636 111.769 67.9884 111.116 66.903C110.464 65.8487 110.184 64.3913 110.184 62.4067V51.3983C110.184 37.196 106.485 26.7148 86.096 26.7148V20.3889C84.6352 25.4434 72.6069 33.2578 72.6069 33.2578C72.6069 33.2578 84.7906 41.0722 86.096 46.1267V39.7698C93.2447 39.7698 97.4717 41.1032 97.4717 51.7084V63.7711C97.4717 66.5619 97.8758 68.9496 98.8082 70.8102C99.7406 72.6708 100.922 74.1282 102.631 75.1825C104.216 76.2369 106.081 77.0431 108.195 77.5703C110.308 78.0974 112.422 78.3765 114.815 78.3765C117.208 78.3765 119.322 78.0974 121.156 77.5703C121.435 77.4462 121.684 77.4462 121.964 77.2912C123.549 76.764 125.01 76.0818 126.191 75.4306C127.651 74.5003 128.957 73.5701 129.889 72.5157C130.697 71.7095 131.226 70.9342 131.754 70.252C131.878 69.973 132.158 69.7249 132.283 69.4458C132.407 69.1667 132.562 68.9186 132.687 68.6396V78.4695C132.687 99.3079 115.747 116.27 94.9852 116.27C74.2231 116.27 57.2839 99.2769 57.2839 78.4695C57.2839 78.1905 57.2839 77.9424 57.2839 77.6633V63.2129C57.8123 62.9338 58.3406 62.6857 59.1487 62.4067C59.4285 62.2826 59.5528 62.2826 59.8015 62.1276C60.2055 62.0035 60.7339 61.8485 61.2623 61.7244C62.1947 61.4454 63.1271 61.3213 64.0285 61.0732C65.6136 60.7942 67.1987 60.5461 68.9082 60.5461C71.8298 60.5461 74.0677 60.8252 75.6528 61.3523C77.2379 61.8795 78.419 62.6857 79.1028 63.7401C79.7555 64.7944 80.0352 66.1278 80.0352 67.7093V77.3842C80.0352 91.5865 83.7339 102.068 104.123 102.068V108.456C105.584 103.401 117.612 95.5868 117.612 95.5868C117.612 95.5868 105.428 87.8964 104.123 82.9969V89.5089C96.9744 89.5089 92.7474 88.1755 92.7474 77.5703V62.4377C92.7474 60.174 92.219 58.3134 91.4109 56.7319C90.4785 55.1504 89.2974 54.0651 87.7123 53.1348C86.2514 52.2046 84.4177 51.5534 82.5528 51.1502C80.5636 50.7471 78.5744 50.6231 76.4609 50.6231C73.2906 50.6231 70.4933 51.0262 68.1312 51.8324C68.0069 51.8324 67.8514 51.8324 67.8514 51.9565C65.4582 52.7627 63.5001 53.817 61.8839 54.9954C60.2987 56.2048 59.1177 57.2591 58.1852 58.4375C57.9055 58.8406 57.6569 59.2437 57.3771 59.4918V50.7471C57.3771 48.4834 57.6569 46.2507 58.0298 44.1111C61.2312 26.4667 76.5852 12.9466 95.2339 12.9466C113.758 12.9466 129.237 26.4667 132.407 44.1111C132.811 46.2197 133.06 48.4834 133.06 50.7471V64.5463H132.811Z" fill="white"/>
<path d="M38.6027 64.2829C37.6703 62.9527 36.0851 61.9009 33.8473 61.0966C31.6405 60.2923 28.5946 59.7664 24.7405 59.5498L17.5297 59.0549C15.9135 58.9311 14.8257 58.7455 14.2351 58.4362C13.6757 58.0959 13.3959 57.6319 13.3959 56.9822C13.3959 56.2088 13.8622 55.5901 14.7946 55.1571C15.727 54.724 17.1257 54.4765 18.9905 54.4765C20.5135 54.4765 21.7878 54.6312 22.7824 54.9714C23.777 55.2808 24.5851 55.683 25.1757 56.2398C25.7662 56.7657 26.1703 57.3844 26.3568 58.065H39.3487C39.1 55.8376 38.0743 53.8887 36.3338 52.2182C34.6243 50.5168 32.3243 49.1866 29.4649 48.2585C26.6054 47.3305 23.3108 46.8665 19.6122 46.8665C15.8514 46.8665 12.5568 47.2686 9.75946 48.1039C6.96216 48.8772 4.78649 50.0837 3.20135 51.7233C1.6473 53.3628 0.839189 55.4045 0.839189 57.8484C0.839189 59.7045 1.33649 61.3131 2.36216 62.7052C3.35676 64.0354 5.03513 65.1182 7.33513 65.9225C9.63514 66.7268 12.7743 67.2836 16.6905 67.5311L22.1297 67.9332C24.1189 68.0879 25.5176 68.3354 26.3257 68.6447C27.1959 68.9541 27.6 69.4491 27.6 70.1606C27.6 70.9649 27.0716 71.6145 25.9838 72.0476C24.927 72.4498 23.4041 72.6663 21.3838 72.6663C19.7365 72.6663 18.3378 72.5116 17.1878 72.2332C16.0689 71.9239 15.1676 71.5217 14.4527 70.9649C13.7378 70.408 13.2716 69.7275 12.9919 68.9541H0C0.124324 71.3052 1.02568 73.3469 2.73514 75.1411C4.47568 76.9353 6.9 78.2965 9.94595 79.2555C13.0541 80.2145 16.6284 80.7094 20.7 80.7094C24.6473 80.7094 28.0662 80.2763 30.9257 79.4411C33.8473 78.5749 36.0851 77.3066 37.6392 75.6051C39.2554 73.8728 40.0324 71.7073 40.0324 69.1397C40.0635 67.2527 39.5662 65.6131 38.6027 64.2829Z" fill="white"/>
<path d="M170.73 47.1448C171.6 46.3405 173.216 45.9074 175.641 45.9074C176.946 45.9074 178.189 46.0002 179.339 46.1858C180.489 46.3714 181.639 46.6189 182.82 46.9592V37.7096C181.297 37.3074 179.868 36.9981 178.5 36.8125C177.195 36.5959 175.734 36.4722 174.149 36.4722C170.388 36.4722 167.187 37.0599 164.576 38.2045C161.965 39.3182 159.976 40.9887 158.639 43.216C157.334 45.3815 156.65 48.0109 156.619 51.1663H150.185V60.5087H156.619V80.2762H169.424V60.5087H181.95V51.1663H169.424V50.7642C169.424 49.1246 169.86 47.9181 170.73 47.1448Z" fill="white"/>
<path d="M207.779 36.4103C204.111 36.4103 201.034 36.9981 198.485 38.1427C195.999 39.2564 194.072 40.8959 192.766 43.0923C191.461 45.2578 190.839 47.9182 190.808 51.1045H184.375V60.4469H190.808V80.2144H203.614V60.4469H214.679V51.1045H203.614V50.1455C203.614 48.6297 204.049 47.516 204.888 46.8664C205.758 46.1549 207.219 45.8146 209.302 45.8146C210.389 45.8146 211.415 45.9074 212.379 46.093C213.342 46.2786 214.306 46.5261 215.238 46.8664V37.6168C213.995 37.2147 212.783 36.9053 211.602 36.7197C210.483 36.5031 209.208 36.4103 207.779 36.4103Z" fill="white"/>
<path d="M232.706 37.3384H219.9V80.2145H232.706V37.3384Z" fill="white"/>
<path d="M261.362 72.357C258.814 72.357 256.7 72.0167 254.991 71.3671C253.281 70.6556 251.976 69.6657 251.137 68.3664C250.888 67.9952 250.701 67.5621 250.515 67.129H275.753C275.753 63.1074 275.007 59.6427 273.515 56.6729C272.054 53.7032 269.941 51.414 267.206 49.8363C264.439 48.1967 261.114 47.3924 257.197 47.3924C253.468 47.3924 250.08 48.1039 247.065 49.496C244.081 50.8571 241.719 52.806 239.947 55.3427C238.238 57.8794 237.368 60.7873 237.368 64.1283C237.368 67.5311 238.269 70.5318 240.041 73.0994C241.843 75.6671 244.268 77.6469 247.376 79.0699C250.484 80.4929 253.996 81.1735 257.943 81.1735C260.989 81.1735 264.035 80.7404 267.019 79.9052C270.003 79.008 272.645 77.7397 274.914 76.1311V68.6757C272.987 69.9131 270.842 70.8412 268.48 71.4599C266.18 72.0477 263.787 72.357 261.362 72.357ZM253.25 56.7348C254.369 56.0542 255.706 55.7449 257.291 55.7449C258.72 55.7449 259.933 56.0233 260.927 56.5801C261.984 57.1369 262.792 57.9413 263.383 59.024C263.724 59.5499 263.973 60.1686 264.191 60.8492H250.266C250.391 60.3851 250.546 59.952 250.764 59.5189C251.354 58.3125 252.193 57.3844 253.25 56.7348Z" fill="white"/>
</g>
<defs>
<clipPath id="clip0_3282_28762">
<rect width="276" height="129" fill="white"/>
</clipPath>
</defs>
</svg>
