<svg width="24" height="24" viewBox="0 0 24 24" fill="none" xmlns="http://www.w3.org/2000/svg">
<path d="M17.1589 21.2357L6.54893 23.95C6.34535 24.0022 6.13341 24.0137 5.92537 23.9837C5.71733 23.9537 5.51732 23.8828 5.33691 23.7751C5.15649 23.6675 4.99926 23.5252 4.87431 23.3565C4.74935 23.1878 4.65916 22.9961 4.60893 22.7924L0.0489331 4.65038C-0.0540345 4.24018 0.0102731 3.80597 0.227745 3.44302C0.445217 3.08008 0.79809 2.81805 1.20893 2.71443L11.8189 0.0500104C12.0225 -0.00223941 12.2345 -0.0136878 12.4425 0.0163274C12.6505 0.0463426 12.8505 0.117226 13.031 0.224876C13.2114 0.332526 13.3686 0.474807 13.4936 0.643487C13.6185 0.812167 13.7087 1.0039 13.7589 1.20759L18.3189 19.2997C18.4219 19.7099 18.3576 20.1441 18.1401 20.5071C17.9226 20.87 17.5698 21.1321 17.1589 21.2357ZM22.1589 2.46496H15.3589L15.7589 4.06161H22.1889C22.2455 4.06418 22.299 4.08844 22.3381 4.12934C22.3772 4.17024 22.399 4.22462 22.3989 4.28115V21.066C22.399 21.1226 22.3772 21.1769 22.3381 21.2178C22.299 21.2587 22.2455 21.283 22.1889 21.2856H19.5989C19.3723 21.6441 19.0129 21.8988 18.5989 21.9941L15.0689 22.8822H22.1589C22.3996 22.8849 22.6384 22.8398 22.8616 22.7497C23.0847 22.6597 23.2877 22.5263 23.4588 22.3574C23.6299 22.1885 23.7658 21.9874 23.8585 21.7657C23.9512 21.544 23.9989 21.3062 23.9989 21.066V4.28115C24.0003 4.04312 23.9544 3.80717 23.864 3.58688C23.7737 3.36659 23.6406 3.16629 23.4723 2.99751C23.3041 2.82873 23.1042 2.69479 22.8839 2.60339C22.6637 2.512 22.4275 2.46495 22.1889 2.46496H22.1589Z" fill="white"/>
</svg>
