<svg width="25" height="22" viewBox="0 0 25 22" fill="none" xmlns="http://www.w3.org/2000/svg">
<path d="M24.5402 15.3566C24.3512 14.8121 24.0743 14.3022 23.7205 13.8472C23.3514 13.3778 22.9011 12.9783 22.3911 12.6677C21.7579 12.2973 21.052 12.0688 20.3219 11.998C19.9628 11.9799 19.6053 11.9365 19.2523 11.868C18.9738 11.7936 18.71 11.6718 18.4727 11.5082C17.9188 11.1067 17.4865 10.5602 17.2232 9.9288C16.9929 9.37974 16.9236 8.7765 17.0232 8.18952C17.093 7.8804 17.1935 7.57903 17.3231 7.28988C17.4597 6.96402 17.5765 6.63021 17.673 6.29029C17.8624 5.64149 17.9067 4.95897 17.8029 4.29111C17.6885 3.51734 17.3941 2.78123 16.9433 2.14199C16.5627 1.58873 16.0728 1.11927 15.5039 0.762555C14.9834 0.442875 14.4066 0.225725 13.8046 0.122817L13.0549 0.00286594H12.805C12.7451 -0.00209463 12.6849 -0.00209463 12.625 0.00286594C12.2885 0.0328125 11.9545 0.0862543 11.6255 0.1628C11.3047 0.234748 10.9929 0.342026 10.6958 0.48267C10.0819 0.749561 9.52782 1.13707 9.0665 1.6222C8.58962 2.1514 8.2287 2.77449 8.00694 3.45145C7.75614 4.19398 7.68758 4.98593 7.80702 5.76051C7.94784 6.39131 8.14867 7.0072 8.40677 7.59976C8.50386 7.84678 8.56773 8.10561 8.59669 8.36944C8.64184 8.66427 8.64184 8.96425 8.59669 9.25908C8.44686 9.91759 8.11425 10.5204 7.63709 10.9984C7.41499 11.239 7.15499 11.4416 6.8674 11.5981C6.73458 11.671 6.59367 11.728 6.44757 11.7681C6.26405 11.8167 6.07683 11.8502 5.8878 11.868C5.53795 11.868 5.17809 11.868 4.82824 11.988C4.53624 12.0475 4.25142 12.138 3.97859 12.2579C3.38408 12.4869 2.83809 12.826 2.36924 13.2574C1.43146 14.1557 0.873437 15.379 0.809882 16.676C0.768692 17.334 0.860482 17.9935 1.07977 18.6152C1.29684 19.2424 1.63664 19.8201 2.07936 20.3146C2.52333 20.8169 3.06384 21.2249 3.66871 21.5141C4.29239 21.8172 4.97458 21.9809 5.66789 21.9939C6.42021 22.012 7.16739 21.8653 7.857 21.564C8.5168 21.2591 9.10577 20.8199 9.58629 20.2746C9.83619 19.9747 10.0661 19.6548 10.306 19.3449C10.4447 19.1714 10.6023 19.0139 10.7758 18.8751C11.3457 18.4281 12.0507 18.1884 12.775 18.1954C13.4193 18.1947 14.0467 18.4015 14.5643 18.7852C15.0845 19.2775 15.5626 19.8125 15.9937 20.3845C16.4296 20.8683 16.956 21.2622 17.543 21.544C18.2007 21.8371 18.9122 21.9902 19.6322 21.9939C20.0243 22.016 20.4176 21.9857 20.8017 21.9039C21.6318 21.7205 22.4029 21.3328 23.0453 20.776C23.6876 20.2192 24.1808 19.5108 24.4802 18.7152C24.6851 18.1648 24.7933 17.5832 24.8001 16.9959C24.8054 16.4388 24.7176 15.8847 24.5402 15.3566ZM5.80784 18.3054C5.51129 18.3054 5.22139 18.2174 4.97482 18.0527C4.72825 17.8879 4.53607 17.6538 4.42258 17.3798C4.3091 17.1058 4.27941 16.8043 4.33726 16.5135C4.39511 16.2226 4.53792 15.9555 4.74761 15.7458C4.9573 15.5361 5.22447 15.3933 5.51532 15.3354C5.80617 15.2776 6.10765 15.3073 6.38163 15.4207C6.6556 15.5342 6.88978 15.7264 7.05453 15.973C7.21929 16.2195 7.30722 16.5094 7.30722 16.806C7.30722 17.2036 7.14925 17.585 6.86806 17.8662C6.58687 18.1474 6.2055 18.3054 5.80784 18.3054ZM12.805 13.8772C12.5084 13.8772 12.2185 13.7893 11.972 13.6245C11.7254 13.4597 11.5332 13.2256 11.4197 12.9516C11.3062 12.6776 11.2765 12.3761 11.3344 12.0853C11.3923 11.7944 11.5351 11.5273 11.7447 11.3176C11.9544 11.1079 12.2216 10.9651 12.5125 10.9072C12.8033 10.8494 13.1048 10.8791 13.3788 10.9925C13.6527 11.106 13.8869 11.2982 14.0517 11.5448C14.2164 11.7914 14.3044 12.0813 14.3044 12.3778C14.3044 12.7755 14.1464 13.1568 13.8652 13.438C13.584 13.7192 13.2026 13.8772 12.805 13.8772ZM12.805 6.2803C12.5084 6.2803 12.2185 6.19236 11.972 6.0276C11.7254 5.86285 11.5332 5.62868 11.4197 5.3547C11.3062 5.08072 11.2765 4.77925 11.3344 4.48839C11.3923 4.19754 11.5351 3.93038 11.7447 3.72068C11.9544 3.51099 12.2216 3.36819 12.5125 3.31033C12.8033 3.25248 13.1048 3.28217 13.3788 3.39566C13.6527 3.50914 13.8869 3.70132 14.0517 3.9479C14.2164 4.19447 14.3044 4.48436 14.3044 4.78091C14.3044 4.97781 14.2656 5.17279 14.1902 5.3547C14.1149 5.53661 14.0044 5.70191 13.8652 5.84114C13.726 5.98037 13.5607 6.09081 13.3788 6.16616C13.1968 6.24151 13.0019 6.2803 12.805 6.2803ZM19.8021 18.2754C19.5056 18.2754 19.2157 18.1874 18.9691 18.0227C18.7225 17.8579 18.5303 17.6238 18.4169 17.3498C18.3034 17.0758 18.2737 16.7743 18.3315 16.4835C18.3894 16.1926 18.5322 15.9255 18.7419 15.7158C18.9516 15.5061 19.2187 15.3633 19.5096 15.3054C19.8004 15.2476 20.1019 15.2773 20.3759 15.3907C20.6499 15.5042 20.884 15.6964 21.0488 15.943C21.2136 16.1896 21.3015 16.4795 21.3015 16.776C21.3055 16.9754 21.2696 17.1736 21.1961 17.359C21.1225 17.5444 21.0127 17.7132 20.8731 17.8557C20.7334 17.9981 20.5668 18.1112 20.3829 18.1884C20.199 18.2657 20.0016 18.3054 19.8021 18.3054V18.2754Z" fill="white"/>
</svg>
