<svg width="25" height="24" viewBox="0 0 25 24" fill="none" xmlns="http://www.w3.org/2000/svg">
<g clip-path="url(#clip0_65_290)">
<path d="M19.8471 16.4848C20.1442 16.4848 20.4345 16.5726 20.6815 16.737C20.9285 16.9015 21.121 17.1352 21.2347 17.4087C21.3483 17.6821 21.3781 17.9831 21.3201 18.2734C21.2622 18.5637 21.1192 18.8303 20.9091 19.0396C20.6991 19.2489 20.4315 19.3915 20.1401 19.4492C19.8488 19.507 19.5468 19.4773 19.2724 19.3641C18.998 19.2508 18.7634 19.059 18.5984 18.8129C18.4333 18.5667 18.3453 18.2774 18.3453 17.9814C18.3453 17.5845 18.5035 17.2038 18.7852 16.9231C19.0668 16.6425 19.4488 16.4848 19.8471 16.4848ZM4.28779 18.0113C4.29377 18.3043 4.38591 18.589 4.55278 18.8302C4.71965 19.0715 4.9539 19.2586 5.22649 19.3684C5.49908 19.4782 5.79802 19.5058 6.08624 19.4479C6.37446 19.39 6.63928 19.249 6.84786 19.0425C7.05644 18.836 7.19961 18.5731 7.25961 18.2863C7.31961 17.9994 7.2938 17.7014 7.18539 17.429C7.07698 17.1567 6.89073 16.922 6.64974 16.7542C6.40875 16.5863 6.12362 16.4927 5.8297 16.4848C5.62658 16.4794 5.42446 16.515 5.23557 16.5897C5.04669 16.6644 4.87498 16.7764 4.73083 16.9192C4.58668 17.0619 4.47309 17.2322 4.39693 17.42C4.32078 17.6077 4.28365 17.8089 4.28779 18.0113ZM11.4467 13.6014C11.4467 13.8973 11.5348 14.1867 11.6998 14.4328C11.8648 14.6789 12.0994 14.8708 12.3738 14.984C12.6482 15.0973 12.9502 15.1269 13.2416 15.0692C13.5329 15.0114 13.8005 14.8689 14.0105 14.6596C14.2206 14.4503 14.3636 14.1836 14.4216 13.8933C14.4795 13.603 14.4498 13.3021 14.3361 13.0286C14.2224 12.7552 14.0299 12.5214 13.7829 12.357C13.536 12.1925 13.2456 12.1048 12.9486 12.1048C12.5554 12.1047 12.1779 12.2582 11.8971 12.5325C11.6162 12.8067 11.4546 13.1797 11.4467 13.5714V13.6014ZM11.4467 6.01859C11.4467 6.31459 11.5348 6.60394 11.6998 6.85006C11.8648 7.09617 12.0994 7.28799 12.3738 7.40127C12.6482 7.51454 12.9502 7.54418 13.2416 7.48643C13.5329 7.42868 13.8005 7.28615 14.0105 7.07684C14.2206 6.86754 14.3636 6.60087 14.4216 6.31056C14.4795 6.02025 14.4498 5.71933 14.3361 5.44587C14.2224 5.1724 14.0299 4.93866 13.7829 4.77421C13.536 4.60977 13.2456 4.52199 12.9486 4.52199C12.7496 4.52198 12.5527 4.56134 12.3692 4.63779C12.1856 4.71425 12.0192 4.82627 11.8794 4.96737C11.7397 5.10846 11.6295 5.27581 11.5552 5.45969C11.4809 5.64358 11.444 5.84034 11.4467 6.03855V6.01859ZM12.8885 2.66621C12.1941 2.6508 11.511 2.84314 10.9274 3.2184C10.3438 3.59366 9.88646 4.13461 9.61441 4.77143C9.29422 5.75971 9.37324 6.83345 9.83468 7.76462C10.137 8.46826 10.27 9.23258 10.223 9.99656C10.1761 10.7605 9.95053 11.503 9.56435 12.1646C9.16831 12.8347 8.61352 13.3979 7.9485 13.805C7.28347 14.212 6.52849 14.4504 5.74961 14.4993L5.16888 14.6091C4.52236 14.7511 3.93023 15.0748 3.46259 15.5418C2.99496 16.0088 2.67141 16.5996 2.53024 17.2441C2.38908 17.8887 2.43621 18.5601 2.66607 19.1788C2.89593 19.7975 3.29888 20.3376 3.82722 20.7351C4.3984 21.1806 5.10438 21.4198 5.8297 21.4136C6.41574 21.3914 6.98944 21.2393 7.50905 20.9683C8.02865 20.6973 8.48109 20.3143 8.83344 19.8471C9.28523 19.1944 9.88115 18.6536 10.5754 18.2661C11.2697 17.8787 12.0439 17.655 12.8384 17.6122H13.4091C14.1024 17.7226 14.7653 17.9746 15.3563 18.3523C15.9473 18.73 16.4536 19.2254 16.8434 19.8072C16.9936 19.9769 17.1338 20.1465 17.294 20.3161C17.622 20.6621 18.0179 20.9371 18.4571 21.1242C18.8964 21.3113 19.3695 21.4064 19.8471 21.4036C20.343 21.4061 20.8335 21.3012 21.2847 21.0962C21.7359 20.8912 22.137 20.591 22.4604 20.2163C22.8006 19.8048 23.0408 19.3207 23.1624 18.8015C23.284 18.2823 23.2836 17.7421 23.1613 17.2231C23.0498 16.7037 22.818 16.2175 22.4841 15.8034C22.1503 15.3893 21.7238 15.0589 21.2389 14.8385C20.8519 14.6908 20.4485 14.5903 20.0374 14.5392C18.7511 14.4441 17.5489 13.8665 16.6732 12.9229C16.0418 12.1584 15.6432 11.2298 15.5243 10.2469C15.4055 9.26391 15.5713 8.26757 16.0024 7.37551C16.1903 6.89526 16.2767 6.38148 16.256 5.8664C16.2353 5.35133 16.1081 4.84607 15.8822 4.38231C15.6964 3.99513 15.4311 3.65116 15.1034 3.37272C14.7756 3.09428 14.3929 2.88756 13.9798 2.76599C13.6268 2.65467 13.2588 2.59748 12.8885 2.59637M12.8885 1C13.4215 1.00144 13.9513 1.08215 14.4604 1.23946C15.1107 1.45983 15.7085 1.81119 16.2167 2.27168C16.7249 2.73217 17.1325 3.29193 17.4142 3.91614C17.696 4.54036 17.8458 5.21567 17.8544 5.90006C17.863 6.58445 17.7302 7.26328 17.4642 7.89433C16.9435 9.3111 16.7833 10.6082 17.8446 11.8853C18.906 13.1623 20.4779 12.7633 21.8496 13.3818C22.5569 13.7111 23.1792 14.1974 23.6689 14.8033C24.1585 15.4092 24.5025 16.1188 24.6746 16.8776C24.8466 17.6365 24.842 18.4245 24.6613 19.1813C24.4806 19.9381 24.1284 20.6437 23.6318 21.244C23.165 21.7908 22.5851 22.2308 21.9319 22.5339C21.2788 22.8369 20.5676 22.9959 19.8471 23C19.1512 23.0018 18.4624 22.8611 17.8234 22.5864C17.1843 22.3118 16.6088 21.9092 16.1325 21.4036C15.2414 20.4059 14.6607 19.4081 13.2289 19.2286H12.8384C12.2763 19.2576 11.7294 19.4205 11.2434 19.7034C10.7573 19.9864 10.3464 20.3812 10.0449 20.8549C9.5377 21.5097 8.88921 22.0424 8.14743 22.4137C7.40566 22.785 6.58959 22.9854 5.75962 23C4.69849 22.9964 3.66786 22.6459 2.82597 22.0023C2.04679 21.4197 1.45268 20.6256 1.1148 19.7151C0.77693 18.8047 0.70962 17.8165 0.920938 16.8689C1.13226 15.9213 1.61324 15.0545 2.30627 14.3723C2.99931 13.6902 3.875 13.2216 4.82846 13.0227C6.27025 12.7233 7.34158 12.7533 8.17262 11.3365C8.4339 10.8799 8.58446 10.3687 8.61227 9.84386C8.64009 9.31896 8.54439 8.79486 8.33282 8.31337C7.72807 7.01521 7.65621 5.53297 8.13257 4.18276C8.51128 3.2404 9.16948 2.4356 10.0193 1.87581C10.8691 1.31602 11.87 1.02789 12.8885 1.04989V1Z" fill="white"/>
</g>
<defs>
<clipPath id="clip0_65_290">
<rect width="24" height="24" fill="white" transform="translate(0.800293)"/>
</clipPath>
</defs>
</svg>
