<svg width="690" height="690" viewBox="0 0 690 690" fill="none" xmlns="http://www.w3.org/2000/svg">
<path d="M548.656 548.691C661.139 436.195 661.139 253.804 548.656 141.309C436.172 28.8137 253.801 28.8137 141.317 141.309C28.834 253.804 28.834 436.195 141.317 548.691C253.801 661.186 436.172 661.186 548.656 548.691Z" fill="url(#paint0_diamond_2132_23512)"/>
<path d="M646.84 357.316H683.432C687.061 357.316 690 354.377 690 350.748V339.252C690 335.623 687.061 332.684 683.432 332.684H646.856C645.6 332.684 644.557 331.698 644.5 330.434V330.376C644.442 329.12 645.378 328.036 646.626 327.913L683.03 324.358C686.642 324.005 689.278 320.794 688.925 317.181L687.808 305.743C687.455 302.131 684.245 299.495 680.632 299.848L644.245 303.403C642.997 303.526 641.873 302.64 641.692 301.4C641.675 301.277 641.659 301.153 641.634 301.03C641.454 299.79 642.267 298.616 643.498 298.378L679.36 291.267C682.915 290.561 685.23 287.104 684.524 283.549L682.282 272.267C681.576 268.712 678.12 266.396 674.565 267.103L638.736 274.205C637.505 274.451 636.298 273.68 635.994 272.456C635.969 272.341 635.937 272.234 635.912 272.119C635.608 270.904 636.306 269.656 637.505 269.295L672.463 258.703C675.936 257.652 677.898 253.981 676.847 250.516L673.522 239.514C672.471 236.041 668.802 234.078 665.329 235.129L630.378 245.713C629.18 246.074 627.907 245.426 627.48 244.243C627.439 244.128 627.398 244.022 627.357 243.907C626.93 242.724 627.505 241.419 628.663 240.934L662.406 226.967C665.756 225.58 667.348 221.737 665.961 218.387L661.568 207.762C660.181 204.412 656.339 202.819 652.989 204.207L619.246 218.173C618.088 218.658 616.75 218.141 616.208 217.008L616.183 216.95C615.641 215.809 616.093 214.446 617.209 213.855L649.434 196.677C652.636 194.969 653.843 190.995 652.143 187.793L646.741 177.652C645.033 174.45 641.06 173.243 637.858 174.943L605.6 192.137C604.492 192.728 603.121 192.342 602.472 191.258C602.407 191.151 602.341 191.044 602.275 190.938C601.627 189.862 601.93 188.466 602.981 187.768L633.392 167.495C636.413 165.484 637.226 161.403 635.214 158.389L628.835 148.824C626.823 145.802 622.743 144.989 619.73 147.001L589.295 167.29C588.253 167.988 586.849 167.734 586.101 166.732C585.995 166.584 585.88 166.436 585.773 166.288C585.018 165.278 585.19 163.858 586.159 163.061L614.443 139.849C617.25 137.55 617.653 133.412 615.354 130.604L608.063 121.719C605.765 118.911 601.627 118.509 598.819 120.808L570.519 144.028C569.55 144.825 568.13 144.718 567.284 143.782C567.21 143.7 567.128 143.61 567.046 143.528C566.2 142.6 566.225 141.171 567.112 140.276L592.99 114.395C595.551 111.833 595.551 107.67 592.99 105.109L584.862 96.9797C582.3 94.4179 578.138 94.4179 575.576 96.9797L549.698 122.861C548.811 123.747 547.383 123.78 546.455 122.935L546.398 122.885C545.47 122.04 545.371 120.619 546.168 119.658L569.402 91.388C571.709 88.5881 571.299 84.4497 568.499 82.1425L559.624 74.8429C556.824 72.5356 552.686 72.9462 550.379 75.7461L527.145 104.008C526.348 104.977 524.928 105.15 523.918 104.394C523.82 104.32 523.729 104.255 523.631 104.181C522.621 103.434 522.375 102.029 523.073 100.987L543.409 70.5732C545.429 67.5598 544.616 63.4789 541.603 61.459L532.046 55.0627C529.033 53.0428 524.953 53.8557 522.933 56.8691L502.605 87.2497C501.907 88.2925 500.511 88.5963 499.436 87.9476C499.337 87.8901 499.239 87.8326 499.14 87.767C498.065 87.1183 497.679 85.7471 498.27 84.6386L515.519 52.4024C517.227 49.2001 516.028 45.226 512.826 43.5099L502.695 38.0907C499.501 36.3828 495.52 37.5816 493.804 40.7839L476.562 72.9872C475.971 74.0957 474.608 74.5309 473.475 73.9972C473.377 73.9479 473.27 73.8987 473.172 73.8576C472.039 73.3239 471.513 71.9937 471.998 70.8278L485.979 37.0807C487.367 33.7306 485.774 29.8879 482.424 28.5003L471.809 24.0992C468.459 22.7115 464.617 24.2963 463.229 27.6545L449.239 61.3852C448.763 62.5429 447.458 63.1177 446.275 62.6989L446.202 62.6743C445.019 62.2473 444.387 60.9746 444.748 59.7758L455.381 24.8382C456.44 21.3649 454.486 17.7028 451.013 16.6436L440.019 13.2935C436.547 12.2343 432.877 14.1885 431.818 17.6618L421.169 52.6076C420.8 53.8064 419.56 54.5044 418.337 54.2006C418.213 54.1677 418.099 54.1431 417.975 54.1103C416.752 53.8064 415.98 52.5994 416.227 51.3678L423.386 15.5434C424.1 11.988 421.793 8.52299 418.23 7.81685L406.957 5.56703C403.402 4.85268 399.938 7.15998 399.232 10.7235L392.064 46.5808C391.818 47.8124 390.644 48.6253 389.404 48.4447C389.224 48.42 389.043 48.3872 388.854 48.3626C387.606 48.1819 386.728 47.057 386.851 45.809L390.439 9.41797C390.792 5.80515 388.156 2.59466 384.552 2.23338L373.115 1.10029C369.503 0.74722 366.293 3.38293 365.932 6.99576L362.336 43.4196C362.212 44.6758 361.121 45.5955 359.864 45.5298C359.749 45.5216 359.635 45.5216 359.528 45.5134C358.272 45.4559 357.278 44.4295 357.278 43.165V6.56877C357.278 2.93952 354.339 0 350.71 0H339.216C335.587 0 332.648 2.93952 332.648 6.56877V43.1486C332.648 44.4049 331.663 45.4477 330.398 45.5052H330.341C329.085 45.5626 328.001 44.6266 327.878 43.3785L324.323 6.97112C323.97 3.3583 320.76 0.722588 317.147 1.07566L305.711 2.19234C302.098 2.54541 299.463 5.75589 299.816 9.36871L303.371 45.7597C303.494 47.0078 302.607 48.1327 301.368 48.3133C301.244 48.3297 301.121 48.3461 300.998 48.3708C299.758 48.5514 298.584 47.7385 298.346 46.5069L291.236 10.6414C290.53 7.08608 287.074 4.77058 283.519 5.47672L272.238 7.71832C268.683 8.42447 266.368 11.8813 267.074 15.4366L274.176 51.2692C274.422 52.5009 273.65 53.7079 272.427 54.0117C272.312 54.0363 272.205 54.0692 272.09 54.0938C270.875 54.3976 269.627 53.6997 269.266 52.5009L258.675 17.5386C257.624 14.0654 253.954 12.103 250.49 13.154L239.488 16.4876C236.015 17.5386 234.053 21.2089 235.104 24.6822L245.687 59.6362C246.048 60.835 245.399 62.1077 244.217 62.5347C244.102 62.5757 243.995 62.6168 243.881 62.6579C242.698 63.0848 241.393 62.51 240.908 61.3523L226.943 27.6053C225.556 24.2552 221.713 22.6623 218.364 24.0499L207.74 28.4428C204.39 29.8304 202.797 33.6732 204.185 37.0232L218.15 70.7703C218.635 71.928 218.117 73.2664 216.984 73.8083L216.927 73.833C215.786 74.3749 214.423 73.9233 213.832 72.8066L196.656 40.5786C194.948 37.3763 190.975 36.1693 187.773 37.869L177.633 43.2718C174.431 44.9797 173.225 48.9538 174.924 52.156L192.116 84.4169C192.707 85.5254 192.321 86.8966 191.237 87.5453C191.131 87.611 191.024 87.6767 190.917 87.7423C189.842 88.391 188.446 88.0872 187.748 87.0362L167.478 56.6228C165.466 53.6012 161.386 52.7883 158.373 54.8L148.808 61.1799C145.786 63.1916 144.974 67.2724 146.985 70.2858L167.272 100.724C167.97 101.767 167.716 103.171 166.714 103.918C166.566 104.025 166.418 104.14 166.271 104.246C165.261 105.002 163.84 104.829 163.044 103.86L139.834 75.5737C137.535 72.7655 133.397 72.3632 130.59 74.6623L121.706 81.9536C118.898 84.2527 118.496 88.391 120.795 91.1992L144.013 119.502C144.809 120.471 144.703 121.892 143.767 122.737C143.685 122.811 143.594 122.893 143.512 122.976C142.585 123.821 141.156 123.797 140.261 122.91L114.383 97.0289C111.821 94.4671 107.659 94.4671 105.097 97.0289L96.9693 105.158C94.4078 107.72 94.4078 111.883 96.9693 114.444L122.839 140.317C123.734 141.212 123.767 142.649 122.913 143.585L122.88 143.618C122.035 144.554 120.598 144.653 119.629 143.856L91.37 120.627C88.5704 118.32 84.4325 118.731 82.1255 121.53L74.8267 130.407C72.5197 133.206 72.9302 137.345 75.7298 139.652L103.989 162.889C104.958 163.686 105.13 165.106 104.375 166.116C104.301 166.215 104.235 166.305 104.161 166.403C103.414 167.413 102.01 167.66 100.968 166.962L70.5574 146.623C67.5443 144.603 63.4639 145.416 61.4443 148.43L55.0486 157.987C53.0289 161.001 53.8417 165.081 56.8548 167.101L87.2321 187.432C88.2748 188.13 88.5786 189.525 87.93 190.601C87.8725 190.7 87.815 190.798 87.7494 190.897C87.1008 191.972 85.7297 192.358 84.6213 191.767L52.3885 174.516C49.1866 172.808 45.2129 174.007 43.497 177.209L38.0784 187.341C36.3707 190.535 37.5693 194.518 40.7713 196.234L72.9712 213.477C74.0796 214.068 74.5147 215.431 73.9811 216.564C73.9318 216.663 73.8825 216.769 73.8415 216.868C73.3078 218.001 71.9778 218.527 70.812 218.042L37.0685 204.059C33.7188 202.671 29.8765 204.264 28.489 207.614L24.0884 218.231C22.7009 221.581 24.2854 225.424 27.6433 226.811L61.3622 240.721C62.528 241.205 63.1027 242.519 62.684 243.701L62.6676 243.751C62.2406 244.941 60.9599 245.582 59.753 245.212L24.8355 234.579C21.3626 233.52 17.7009 235.474 16.6418 238.947L13.2921 249.942C12.233 253.415 14.187 257.085 17.6599 258.144L52.602 268.794C53.8007 269.164 54.4985 270.403 54.1947 271.627C54.1619 271.75 54.1373 271.865 54.1044 271.988C53.8007 273.212 52.5938 273.983 51.3623 273.737L15.5417 266.577C11.9867 265.863 8.52206 268.17 7.81599 271.734L5.56644 283.007C4.85216 286.563 7.15919 290.028 10.7224 290.734L46.5758 297.902C47.8073 298.148 48.6201 299.322 48.4395 300.562C48.4149 300.743 48.382 300.924 48.3574 301.112C48.1768 302.36 47.052 303.239 45.804 303.116L9.41697 299.528C5.80453 299.175 2.59439 301.81 2.23314 305.415L1.10015 316.853C0.747115 320.466 3.38255 323.676 6.99498 324.037L43.4149 327.634C44.6711 327.757 45.5906 328.849 45.5249 330.105C45.5167 330.22 45.5167 330.335 45.5085 330.442C45.451 331.698 44.4247 332.692 43.1604 332.692H6.56807C2.93921 332.692 0 335.631 0 339.261V350.756C0 354.385 2.93921 357.325 6.56807 357.325H43.144C44.4001 357.325 45.4428 358.31 45.5003 359.574V359.632C45.5577 360.888 44.6218 361.972 43.3739 362.095L6.97035 365.651C3.35792 366.004 0.722485 369.214 1.07552 372.827L2.19208 384.265C2.54511 387.878 5.75527 390.513 9.36771 390.16L45.7548 386.605C47.0027 386.482 48.1275 387.369 48.3081 388.608C48.3246 388.732 48.341 388.855 48.3656 388.978C48.5462 390.218 47.7334 391.392 46.5019 391.63L10.6403 398.741C7.0853 399.447 4.77004 402.904 5.47611 406.459L7.71747 417.741C8.42354 421.296 11.88 423.612 15.4349 422.906L51.2638 415.803C52.4953 415.557 53.7022 416.329 54.0059 417.552C54.0306 417.667 54.0634 417.774 54.088 417.889C54.3918 419.104 53.694 420.352 52.4953 420.713L17.5367 431.305C14.0639 432.356 12.1017 436.027 13.1525 439.492L16.4858 450.494C17.5367 453.968 21.2066 455.93 24.6795 454.879L59.6298 444.295C60.8285 443.934 62.1011 444.583 62.528 445.765C62.569 445.88 62.6101 445.987 62.6511 446.102C63.0781 447.284 62.5034 448.589 61.3457 449.074L27.6023 463.041C24.2526 464.428 22.6598 468.271 24.0473 471.621L28.4397 482.246C29.8272 485.596 33.6696 487.189 37.0193 485.802L70.7709 471.827C71.9285 471.35 73.2586 471.859 73.7922 472.992L73.8251 473.058C74.3669 474.199 73.9154 475.562 72.7988 476.154L40.5742 493.331C37.3723 495.039 36.1654 499.013 37.8649 502.215L43.2671 512.356C44.9748 515.558 48.9485 516.765 52.1504 515.065L84.4078 497.872C85.5162 497.281 86.8873 497.666 87.5359 498.75C87.6016 498.857 87.6673 498.964 87.733 499.071C88.3816 500.146 88.0778 501.542 87.0269 502.24L56.6167 522.513C53.5954 524.524 52.7826 528.605 54.7941 531.619L61.1733 541.185C63.1848 544.206 67.2652 545.019 70.2783 543.007L100.713 522.718C101.756 522.02 103.16 522.275 103.907 523.276C104.014 523.424 104.128 523.572 104.235 523.72C104.991 524.73 104.818 526.15 103.849 526.947L75.5656 550.159C72.7578 552.458 72.3554 556.596 74.6543 559.405L81.9448 568.289C84.2436 571.097 88.3815 571.499 91.1894 569.2L119.49 545.98C120.458 545.183 121.879 545.29 122.724 546.226C122.798 546.308 122.88 546.398 122.962 546.481C123.808 547.408 123.783 548.837 122.897 549.732L97.0186 575.613C94.457 578.175 94.457 582.338 97.0186 584.9L105.147 593.029C107.708 595.59 111.871 595.59 114.432 593.029L140.302 567.156C141.197 566.261 142.634 566.228 143.57 567.082L143.603 567.115C144.539 567.96 144.637 569.397 143.841 570.366L120.614 598.628C118.307 601.428 118.718 605.567 121.517 607.874L130.393 615.174C133.192 617.481 137.33 617.07 139.637 614.27L162.872 586.008C163.668 585.039 165.088 584.867 166.098 585.622C166.197 585.696 166.287 585.762 166.386 585.836C167.395 586.583 167.642 587.987 166.944 589.03L146.607 619.443C144.588 622.457 145.401 626.537 148.414 628.557L157.97 634.954C160.983 636.974 165.064 636.161 167.083 633.147L187.412 602.767C188.109 601.724 189.505 601.42 190.581 602.069C190.679 602.126 190.778 602.184 190.876 602.249C191.952 602.898 192.338 604.269 191.747 605.378L174.497 637.614C172.789 640.816 173.988 644.79 177.19 646.506L187.321 651.926C190.515 653.634 194.497 652.435 196.213 649.233L213.454 617.029C214.045 615.921 215.408 615.485 216.541 616.019C216.639 616.068 216.746 616.118 216.845 616.159C217.978 616.693 218.503 618.023 218.019 619.189L204.037 652.936C202.649 656.286 204.242 660.128 207.592 661.516L218.208 665.917C221.557 667.305 225.4 665.72 226.787 662.362L240.769 628.639C241.253 627.473 242.567 626.899 243.749 627.317L243.798 627.334C244.989 627.761 245.629 629.042 245.26 630.249L234.628 665.17C233.569 668.643 235.523 672.305 238.996 673.365L249.989 676.715C253.462 677.774 257.132 675.82 258.191 672.346L268.839 637.401C269.209 636.202 270.448 635.504 271.672 635.808C271.795 635.841 271.91 635.865 272.033 635.898C273.256 636.202 274.028 637.409 273.782 638.64L266.622 674.465C265.908 678.02 268.215 681.485 271.778 682.191L283.051 684.441C286.606 685.156 290.07 682.848 290.777 679.285L297.944 643.427C298.19 642.196 299.364 641.383 300.604 641.564C300.785 641.588 300.965 641.621 301.154 641.646C302.402 641.826 303.28 642.951 303.157 644.199L299.57 680.582C299.216 684.195 301.852 687.405 305.456 687.767L316.893 688.9C320.505 689.253 323.715 686.617 324.077 683.004L327.673 646.58C327.796 645.324 328.888 644.404 330.144 644.47C330.259 644.478 330.374 644.478 330.48 644.487C331.737 644.544 332.73 645.57 332.73 646.835V683.431C332.73 687.06 335.669 690 339.298 690H350.792C354.421 690 357.36 687.06 357.36 683.431V646.851C357.36 645.595 358.345 644.552 359.61 644.495H359.667C360.923 644.437 362.007 645.373 362.13 646.621L365.685 683.029C366.038 686.642 369.249 689.277 372.861 688.924L384.298 687.808C387.91 687.455 390.545 684.244 390.192 680.631L386.637 644.24C386.514 642.992 387.401 641.867 388.641 641.687C388.764 641.67 388.887 641.654 389.01 641.629C390.25 641.449 391.424 642.261 391.662 643.493L398.772 679.359C399.478 682.914 402.935 685.229 406.489 684.523L417.77 682.282C421.325 681.576 423.64 678.119 422.934 674.563L415.833 638.731C415.586 637.499 416.358 636.292 417.581 635.988C417.696 635.964 417.803 635.931 417.918 635.906C419.133 635.602 420.381 636.3 420.742 637.499L431.333 672.461C432.384 675.935 436.054 677.897 439.519 676.846L450.52 673.521C453.993 672.47 455.955 668.799 454.904 665.326L444.321 630.372C443.96 629.173 444.609 627.901 445.791 627.474C445.906 627.432 446.013 627.391 446.128 627.35C447.31 626.923 448.615 627.498 449.1 628.656L463.065 662.403C464.453 665.753 468.295 667.346 471.645 665.958L482.269 661.565C485.618 660.178 487.211 656.335 485.823 652.985L471.85 619.23C471.374 618.072 471.883 616.742 473.016 616.208L473.081 616.175C474.223 615.633 475.586 616.085 476.177 617.202L493.352 649.43C495.06 652.632 499.034 653.839 502.235 652.139L512.375 646.736C515.577 645.029 516.784 641.054 515.084 637.852L497.892 605.591C497.301 604.483 497.687 603.112 498.771 602.463C498.878 602.397 498.984 602.331 499.091 602.266C500.166 601.617 501.562 601.921 502.26 602.972L522.531 633.385C524.542 636.407 528.623 637.22 531.636 635.208L541.2 628.828C544.222 626.817 545.035 622.736 543.023 619.722L522.736 589.284C522.038 588.242 522.293 586.837 523.294 586.09C523.442 585.984 523.59 585.869 523.738 585.762C524.747 585.006 526.168 585.179 526.964 586.148L550.174 614.435C552.473 617.243 556.611 617.645 559.419 615.346L568.302 608.055C571.11 605.756 571.512 601.617 569.213 598.809L545.995 570.506C545.199 569.537 545.305 568.116 546.241 567.271C546.324 567.197 546.414 567.115 546.496 567.033C547.424 566.187 548.852 566.211 549.747 567.098L575.625 592.979C578.187 595.541 582.349 595.541 584.911 592.979L593.039 584.85C595.601 582.289 595.601 578.126 593.039 575.564L567.169 549.691C566.274 548.796 566.241 547.359 567.095 546.423L567.128 546.39C567.974 545.454 569.41 545.356 570.379 546.152L598.638 569.381C601.438 571.688 605.576 571.278 607.883 568.478L615.181 559.602C617.489 556.802 617.078 552.663 614.278 550.356L586.019 527.119C585.05 526.323 584.878 524.902 585.633 523.892C585.707 523.794 585.773 523.703 585.847 523.605C586.594 522.595 587.998 522.349 589.041 523.046L619.451 543.385C622.464 545.405 626.544 544.592 628.564 541.579L634.96 532.021C636.979 529.008 636.167 524.927 633.153 522.907L602.776 502.577C601.733 501.879 601.43 500.483 602.078 499.407C602.136 499.309 602.193 499.21 602.259 499.111C602.907 498.036 604.279 497.65 605.387 498.241L637.62 515.492C640.822 517.2 644.795 516.001 646.511 512.799L651.93 502.667C653.638 499.473 652.439 495.49 649.237 493.774L617.037 476.531C615.929 475.94 615.494 474.577 616.027 473.444C616.076 473.346 616.126 473.239 616.167 473.14C616.7 472.007 618.03 471.482 619.196 471.966L652.94 485.949C656.289 487.337 660.132 485.744 661.519 482.394L665.92 471.777C667.307 468.427 665.723 464.584 662.365 463.197L628.638 449.205C627.48 448.729 626.906 447.423 627.324 446.241L627.349 446.167C627.776 444.985 629.048 444.353 630.247 444.714L665.181 455.347C668.654 456.406 672.315 454.452 673.375 450.979L676.724 439.984C677.783 436.511 675.829 432.841 672.357 431.782L637.414 421.132C636.216 420.763 635.518 419.523 635.822 418.299C635.854 418.176 635.879 418.061 635.912 417.938C636.216 416.715 637.423 415.943 638.654 416.189L674.475 423.349C678.03 424.063 681.494 421.756 682.2 418.193L684.45 406.919C685.164 403.363 682.857 399.898 679.294 399.192L643.441 392.024C642.209 391.778 641.396 390.604 641.577 389.364C641.602 389.183 641.634 389.003 641.659 388.814C641.84 387.566 642.964 386.687 644.212 386.81L680.591 390.398C684.204 390.751 687.414 388.116 687.775 384.511L688.908 373.073C689.261 369.46 686.626 366.25 683.013 365.889L646.593 362.292C645.337 362.169 644.418 361.077 644.483 359.821C644.492 359.706 644.492 359.591 644.5 359.484C644.557 358.31 645.583 357.316 646.84 357.316ZM614.18 458.73C599.467 493.52 578.4 524.771 551.57 551.604C524.739 578.438 493.5 599.499 458.706 614.221C422.688 629.461 384.429 637.179 344.988 637.179C305.546 637.179 267.287 629.452 231.27 614.221C196.484 599.507 165.236 578.438 138.414 551.604C111.583 524.771 90.5244 493.528 75.8037 458.73C60.5658 422.709 52.8483 384.445 52.8483 345C52.8483 305.555 60.574 267.291 75.8037 231.27C90.5162 196.48 111.583 165.229 138.414 138.404C165.244 111.579 196.484 90.5094 231.27 75.7872C267.287 60.5476 305.546 52.8293 344.988 52.8293C384.429 52.8293 422.688 60.5559 458.706 75.7872C493.492 90.5012 524.739 111.571 551.57 138.404C578.4 165.237 599.459 196.48 614.18 231.27C629.418 267.291 637.135 305.555 637.135 345C637.135 384.445 629.41 422.709 614.18 458.73Z" fill="url(#paint1_diamond_2132_23512)"/>
<defs>
<radialGradient id="paint0_diamond_2132_23512" cx="0" cy="0" r="1" gradientUnits="userSpaceOnUse" gradientTransform="translate(109.25 215.625) rotate(13.5549) scale(711.46 1294.61)">
<stop stop-color="#E32900"/>
<stop offset="0.601687" stop-color="#C6E216"/>
<stop offset="1" stop-color="#D808FA"/>
</radialGradient>
<radialGradient id="paint1_diamond_2132_23512" cx="0" cy="0" r="1" gradientUnits="userSpaceOnUse" gradientTransform="translate(109.25 215.625) rotate(13.5549) scale(711.46 1294.61)">
<stop stop-color="#E32900"/>
<stop offset="0.601687" stop-color="#C6E216"/>
<stop offset="1" stop-color="#D808FA"/>
</radialGradient>
</defs>
</svg>
