<svg width="25" height="25" viewBox="0 0 25 25" fill="none" xmlns="http://www.w3.org/2000/svg">
<path fill-rule="evenodd" clip-rule="evenodd" d="M12.4112 2.9808C12.8138 2.9808 13.1815 3.20936 13.3596 3.57036L15.7533 8.42054L21.1053 9.19619C21.5039 9.25396 21.8351 9.53313 21.9595 9.91622C22.0839 10.2993 21.9799 10.7198 21.6913 11.0007L17.8129 14.776L18.7274 20.1068C18.7955 20.5038 18.6322 20.905 18.3062 21.1416C17.9803 21.3782 17.5482 21.4091 17.1919 21.2213L12.4166 18.705L7.62966 21.2218C7.27332 21.4091 6.84152 21.3779 6.51582 21.1413C6.19012 20.9047 6.02702 20.5036 6.09508 20.1068L7.00955 14.776L3.13117 11.0007C2.84255 10.7198 2.73856 10.2993 2.86296 9.91622C2.98736 9.53313 3.31856 9.25396 3.71718 9.19619L9.06913 8.42054L11.4628 3.57037C11.641 3.20936 12.0086 2.9808 12.4112 2.9808ZM12.4112 6.42821L10.7198 9.85551C10.5657 10.1678 10.2677 10.3842 9.92305 10.4341L6.14425 10.9818L8.88374 13.6484C9.13337 13.8914 9.24733 14.2417 9.18843 14.5851L8.54222 18.3522L11.925 16.5737C12.2335 16.4115 12.602 16.4117 12.9103 16.5741L16.2798 18.3497L15.634 14.5851C15.5751 14.2417 15.6891 13.8914 15.9387 13.6484L18.6782 10.9818L14.8994 10.4341C14.5548 10.3842 14.2568 10.1678 14.1027 9.85551L12.4112 6.42821Z" fill="black"/>
</svg>
