<svg width="25" height="25" viewBox="0 0 25 25" fill="none" xmlns="http://www.w3.org/2000/svg">
<path fill-rule="evenodd" clip-rule="evenodd" d="M12.8479 18.8619C12.5793 18.7203 12.2582 18.7202 11.9894 18.8615L7.48304 21.2307C6.80692 21.5862 6.01669 21.0121 6.14583 20.2592L7.0067 15.2408C7.05802 14.9416 6.95872 14.6363 6.74119 14.4246L3.09106 10.8715C2.54338 10.3384 2.8453 9.40868 3.6017 9.29905L8.63723 8.56927C8.93754 8.52574 9.19718 8.33718 9.33148 8.06506L11.5848 3.49918C11.9229 2.8142 12.8997 2.8142 13.2377 3.49918L15.4911 8.06506C15.6254 8.33718 15.885 8.52574 16.1853 8.56927L21.2209 9.29905C21.9773 9.40868 22.2792 10.3384 21.7315 10.8715L18.0814 14.4246C17.8638 14.6363 17.7645 14.9416 17.8159 15.2408L18.6764 20.257C18.8056 21.0103 18.0145 21.5844 17.3384 21.2282L12.8479 18.8619Z" fill="black"/>
</svg>
