<svg width="12" height="12" viewBox="0 0 12 12" fill="none" xmlns="http://www.w3.org/2000/svg">
<path fill-rule="evenodd" clip-rule="evenodd" d="M6.27289 10.3806C6.105 10.288 5.9043 10.2879 5.73632 10.3803L2.91985 11.9294C2.49728 12.1619 2.00338 11.7865 2.0841 11.2942L2.62214 8.01298C2.65421 7.81736 2.59215 7.61775 2.4562 7.47931L0.174863 5.1562C-0.167439 4.80764 0.0212604 4.19975 0.494014 4.12807L3.64122 3.65091C3.82891 3.62245 3.99119 3.49916 4.07512 3.32124L5.48348 0.335899C5.69476 -0.111966 6.30524 -0.111967 6.51652 0.335898L7.92488 3.32124C8.00881 3.49916 8.17109 3.62245 8.35878 3.65091L11.506 4.12807C11.9787 4.19975 12.1674 4.80763 11.8251 5.1562L9.5438 7.47931C9.40785 7.61775 9.34579 7.81736 9.37786 8.01298L9.91567 11.2928C9.99643 11.7853 9.50203 12.1607 9.07944 11.9278L6.27289 10.3806Z" fill="white"/>
</svg>
