<svg width="25" height="25" viewBox="0 0 25 25" fill="none" xmlns="http://www.w3.org/2000/svg">
<path fill-rule="evenodd" clip-rule="evenodd" d="M3.41125 5.78702C3.41125 4.33727 4.58651 3.16202 6.03625 3.16202H18.7863C20.236 3.16202 21.4113 4.33727 21.4113 5.78702V18.537C21.4113 19.9868 20.236 21.162 18.7863 21.162H6.03625C4.58651 21.162 3.41125 19.9868 3.41125 18.537V5.78702ZM6.03625 5.41202C5.82915 5.41202 5.66125 5.57991 5.66125 5.78702V18.537C5.66125 18.7441 5.82915 18.912 6.03625 18.912H18.7863C18.9934 18.912 19.1613 18.7441 19.1613 18.537V5.78702C19.1613 5.57991 18.9934 5.41202 18.7863 5.41202H6.03625Z" fill="black"/>
</svg>
