<svg width="288" height="130" viewBox="0 0 288 130" fill="none" xmlns="http://www.w3.org/2000/svg">
<g clip-path="url(#clip0_1379_56841)">
<path d="M272.072 70.402C270.096 70.8033 267.596 71.0502 264.695 71.0502C261.793 71.0502 259.416 70.7724 257.718 70.402C256.021 69.8772 254.693 69.229 253.891 68.5499C253.088 67.7473 252.563 66.9756 252.44 66.0496H288.247C288.247 62.3454 287.599 59.5673 285.87 57.4682C284.296 55.3692 281.795 53.7641 278.369 52.838C274.943 51.912 270.59 51.3872 265.188 51.3872C259.786 51.3872 255.033 51.7885 251.236 52.7145C247.408 53.6406 244.507 55.0914 242.408 57.067C240.432 59.0425 239.383 61.8206 239.383 65.1235C239.383 68.5499 240.432 71.2046 242.531 73.3036C244.63 75.2792 247.532 76.73 251.359 77.5325C255.187 78.3351 259.786 78.8599 265.065 78.8599C270.066 78.8599 274.14 78.4586 277.443 77.6869C280.746 76.8843 283.246 75.7113 284.821 74.137C286.518 72.5628 287.599 70.8342 287.846 68.8586H275.468C275.221 69.476 274.048 70.0316 272.072 70.402ZM256.144 60.1229C258.12 59.3203 260.898 58.9499 264.695 58.9499C268.491 58.9499 271.269 59.3512 272.998 60.1229C274.696 60.9255 275.622 61.6972 275.9 62.6232H252.718C252.965 61.8207 254.168 61.0489 256.144 60.1229Z" fill="white"/>
<path d="M234.413 41.4785H221.757V77.9338H234.413V41.4785Z" fill="white"/>
<path d="M205.829 51.2637C205.551 51.7885 205.428 52.5911 205.428 53.6406H217.528V61.5737H205.428V77.9647H192.772V61.5737H184.221V53.6406H192.772V50.9859C192.772 48.8869 193.173 47.1583 193.945 45.7075C194.747 44.2566 196.044 43.2071 197.896 42.528C199.748 41.8798 202.248 41.4785 205.397 41.4785H217.497V49.9364H210.644C209.194 49.9364 208.144 49.9364 207.341 50.2142C206.632 50.3377 206.076 50.739 205.829 51.2637Z" fill="white"/>
<path d="M182.122 53.6406V61.5737H169.868V77.9338H157.212V61.5737H148.661V53.6406H157.212V50.9859C157.212 48.856 157.613 47.1583 158.385 45.7075C159.187 44.2566 160.484 43.2071 162.336 42.528C164.188 41.8798 166.688 41.4785 169.837 41.4785H181.968V49.9364H175.115C173.664 49.9364 172.615 49.9364 171.812 50.2142C171.164 50.3377 170.639 50.739 170.361 51.2637C170.084 51.7885 169.96 52.5911 169.96 53.6406H182.122Z" fill="white"/>
<path d="M40.4373 70.4021C40.4373 72.3777 39.6347 73.9828 37.937 75.2793C36.3627 76.4523 34.1093 77.3783 31.0842 77.9339C28.1826 78.4587 24.6328 78.7365 20.5582 78.7365C17.0084 78.7365 14.1068 78.4896 11.6064 78.0883C9.22958 77.5635 7.25402 77.0388 5.67974 76.2362C4.10547 75.588 2.90161 74.6619 1.85209 73.458C1.04952 72.6555 0.524759 71.7294 0.277814 70.8034C0.0308685 69.8773 0.0308685 69.0748 0.0308685 68.4265H11.6064C12.1312 69.2291 13.0572 69.8773 14.3846 70.2786C15.8354 70.6799 17.8109 70.8034 20.4347 70.8034C22.5338 70.8034 23.9846 70.8034 24.9106 70.5256C25.8367 70.4021 26.4849 70.1243 26.7627 69.723C27.164 69.4452 27.2875 69.0748 27.2875 68.6735C27.2875 68.1487 26.8862 67.7474 26.2379 67.5005C25.5897 67.2227 24.5402 67.0992 22.935 67.0992C21.4842 66.9757 19.3852 66.9757 16.6071 66.9757C14.1068 66.9757 11.7299 66.9757 9.75434 66.6979C7.77878 66.5745 6.08103 66.1732 4.63023 65.6484C3.30289 65.1236 2.1299 64.4445 1.48167 63.5185C0.833441 62.5925 0.432155 61.4195 0.432155 60.0921C0.432155 58.3635 0.956914 56.9127 2.00643 55.7397C3.17942 54.6902 4.63023 53.7642 6.48232 53.0851C8.3344 52.4368 10.4334 52.0355 13.0572 51.7577C15.4341 51.4799 18.0579 51.3564 20.7125 51.3564C25.065 51.3564 28.7383 51.7577 31.5164 52.6838C34.2945 53.6098 36.3936 54.6593 37.69 56.2336C39.0174 57.8079 39.6656 59.5365 39.6656 61.3886H28.3061C27.9048 60.586 27.1331 59.9378 26.0527 59.5365C25.0032 59.1352 23.1511 59.0118 20.5273 59.0118C18.027 59.0118 16.2984 59.1352 15.1254 59.5365C14.0759 59.9378 13.5511 60.4626 13.5511 61.2651C13.5511 61.7899 13.8289 62.1912 14.3537 62.4381C15.0019 62.7159 16.0823 62.8394 17.5023 62.9629C19.0765 63.0863 21.3299 63.0863 24.2315 63.0863C26.2071 63.0863 28.1826 63.2098 30.1582 63.3642C32.1338 63.4876 33.8624 63.7654 35.4367 64.2902C37.0109 64.815 38.2148 65.4941 39.11 66.4201C40.036 67.377 40.5608 68.7044 40.4373 70.4021Z" fill="white"/>
</g>
<defs>
<clipPath id="clip0_1379_56841">
<rect width="288" height="128.103" fill="white" transform="translate(0 0.94873)"/>
</clipPath>
</defs>
</svg>
