<svg width="20" height="20" viewBox="0 0 20 20" fill="none" xmlns="http://www.w3.org/2000/svg">
<rect width="20" height="20" rx="10" fill="#0785F9"/>
<path d="M14.4 10C14.9524 10 16 9.25554 16 8.82143C16 8.38732 15.3524 7.64286 14.8 7.64286C14.44 7.64286 14.0408 8.12568 13.8056 8.58218C13.4312 8.13668 12.9068 7.73007 12.3092 7.38043C12.7292 6.98796 13.3672 6.23564 12.8 5.67857C12 4.89286 10.8 4.5 10 4.5C9.2 4.5 8 6.07143 7.6 6.07143L7.6488 6.08871C5.6044 6.26393 4 7.94693 4 10C4 12.1697 5.7908 13.9286 8 13.9286C8 14.3627 8.6476 15.5 9.2 15.5C9.7524 15.5 10.4 14.7555 10.4 14.3214C10.4 14.1635 10.2604 13.9647 10.0576 13.7754C12.048 13.4611 13.3188 12.6773 13.9408 11.6528C14.1772 12.026 14.502 12.3571 14.8 12.3571C15.3524 12.3571 16 11.6127 16 11.1786C16 10.7445 14.9524 10 14.4 10ZM5.6 9.21429C5.3792 9.21429 5.2 9.03829 5.2 8.82143C5.2 8.60457 5.3792 8.42857 5.6 8.42857C5.8208 8.42857 6 8.60457 6 8.82143C6 9.03829 5.8208 9.21429 5.6 9.21429ZM7.2 9.21429C6.9792 9.21429 6.8 9.03829 6.8 8.82143C6.8 8.60457 6.9792 8.42857 7.2 8.42857C7.4208 8.42857 7.6 8.60457 7.6 8.82143C7.6 9.03829 7.4208 9.21429 7.2 9.21429Z" fill="white"/>
</svg>
