<svg width="25" height="25" viewBox="0 0 25 25" fill="none" xmlns="http://www.w3.org/2000/svg">
<path fill-rule="evenodd" clip-rule="evenodd" d="M13.9188 5.17699C13.3928 5.17699 12.9664 5.60337 12.9664 6.12933V7.13432C12.9664 9.5759 11.2431 11.615 8.94647 12.1016V17.1842C8.94647 18.2652 9.8228 19.1415 10.9038 19.1415H17.9387C17.9686 19.1415 17.9985 19.1428 18.0284 19.1453C18.1011 19.1515 18.2369 19.1324 18.4196 18.9497C18.6058 18.7636 18.8019 18.4361 18.9152 17.9635L19.8922 13.0785C19.8489 12.5927 19.4408 12.2119 18.9437 12.2119H15.9287C15.3446 12.2119 14.8711 11.7384 14.8711 11.1543V6.12933C14.8711 5.60337 14.4447 5.17699 13.9188 5.17699ZM8.50193 20.4734C9.17531 20.966 10.0056 21.2568 10.9038 21.2568H17.8994C19.5525 21.366 20.638 19.8827 20.9784 18.4305C20.981 18.4193 20.9835 18.4079 20.9858 18.3966L21.9907 13.3716C22.0044 13.3034 22.0113 13.2339 22.0113 13.1642C22.0113 11.47 20.6379 10.0966 18.9437 10.0966H16.9864V6.12933C16.9864 4.43515 15.6129 3.06174 13.9188 3.06174C12.2246 3.06174 10.8512 4.43515 10.8512 6.12933V7.13432C10.8512 8.77036 9.52489 10.0966 7.88885 10.0966H4.87389C3.73474 10.0966 2.81128 11.0201 2.81128 12.1592V19.1941C2.81128 20.3333 3.73474 21.2568 4.87389 21.2568H6.88386C7.53975 21.2568 8.12414 20.9506 8.50193 20.4734ZM6.83122 12.2119H4.92653V19.1415H6.83122V12.2119Z" fill="black"/>
</svg>
