<svg width="25" height="25" viewBox="0 0 25 25" fill="none" xmlns="http://www.w3.org/2000/svg">
<path d="M21.7112 17.612C21.8112 17.512 21.9112 17.412 21.9112 17.312C22.0112 17.212 22.0112 17.012 22.0112 16.912V10.312C22.0112 9.71204 21.5112 9.21204 20.9112 9.21204C20.3112 9.21204 19.8112 9.71204 19.8112 10.312V14.412L14.0112 8.61204C13.8112 8.41204 13.5112 8.31204 13.3112 8.31204C13.0112 8.31204 12.8112 8.41204 12.6112 8.61204L9.61122 11.612L4.61122 6.61204C4.21122 6.21204 3.51122 6.21204 3.11122 6.61204C2.71122 7.01204 2.71122 7.71204 3.11122 8.11204L8.81122 13.812C9.01122 14.012 9.31122 14.112 9.61122 14.112C9.91122 14.112 10.1112 14.012 10.3112 13.812L13.3112 10.812L18.3112 15.812H14.2112C13.6112 15.812 13.1112 16.312 13.1112 16.912C13.1112 17.512 13.6112 18.012 14.2112 18.012H20.8112C20.9112 18.012 21.1112 18.012 21.2112 17.912C21.5112 17.812 21.6112 17.712 21.7112 17.612Z" fill="black"/>
</svg>
