<svg width="25" height="25" viewBox="0 0 25 25" fill="none" xmlns="http://www.w3.org/2000/svg">
<path d="M21.932 7.01386C21.8803 6.8882 21.8035 6.77047 21.7014 6.66841C21.4949 6.4619 21.2243 6.35864 20.9536 6.35864C20.9535 6.35864 20.9537 6.35864 20.9536 6.35864H14.3095C13.7254 6.35864 13.2519 6.83216 13.2519 7.41627C13.2519 8.00038 13.7254 8.4739 14.3095 8.4739H18.4003L13.3604 13.5138L10.3116 10.465C10.1133 10.2667 9.84426 10.1553 9.56376 10.1553C9.28326 10.1553 9.01425 10.2667 8.81591 10.465L3.12099 16.1599C2.70796 16.573 2.70796 17.2426 3.12099 17.6557C3.53402 18.0687 4.20367 18.0687 4.6167 17.6557L9.56376 12.7086L12.6125 15.7573C12.8109 15.9557 13.0799 16.0671 13.3604 16.0671C13.6409 16.0671 13.9099 15.9557 14.1082 15.7573L19.896 9.96961V14.0603C19.896 14.6444 20.3695 15.118 20.9536 15.118C21.5377 15.118 22.0112 14.6444 22.0112 14.0603V7.41865C22.0112 7.41121 22.0112 7.40377 22.011 7.39633C22.0085 7.26112 21.9807 7.13211 21.932 7.01386Z" fill="black"/>
</svg>
