<svg width="88" height="56" viewBox="0 0 88 56" fill="none" xmlns="http://www.w3.org/2000/svg">
<path d="M127.322 1.45372C129.271 2.63536 130.582 3.90067 131.191 4.47761C132.017 5.26714 132.792 6.21945 133.506 7.3549C134.096 8.32822 134.594 9.41368 135 10.6214C135.073 10.8244 97.5567 18.2938 97.6192 18.5069C98.0671 19.9686 98.2892 21.5936 98.2959 23.3821C98.3027 25.1705 98.1136 26.8683 97.739 28.4651C97.385 30.072 96.7937 31.4968 95.9445 32.7398C95.0954 33.9929 93.9675 34.9726 92.5403 35.6791C91.0925 36.3959 89.2833 36.7482 87.1128 36.7563L76.6643 36.7921C68.4039 36.823 67.4389 40.0886 67.439 45.5658L72.4281 45.5471C68.5949 46.5776 62.5404 56 62.5404 56C62.5404 56 56.5186 46.7448 52.5641 45.6215L57.543 45.6028C57.546 29.9943 65.5795 27.0782 76.6276 27.0368L86.0474 27.0049C87.5596 26.9993 88.7211 26.751 89.5422 26.2602C90.3632 25.749 90.9363 24.9441 91.2614 23.8556C91.5556 22.7773 91.7047 21.3744 91.6982 19.6673C91.6922 18.0719 129.039 9.34303 128.571 7.98309C128.217 6.99872 127.813 6.106 127.347 5.30496C127.181 4.9804 126.984 4.66612 126.788 4.37217C126.674 4.19984 126.56 4.02752 126.447 3.87551C126.033 3.26735 125.393 2.61939 124.434 2.04376C121.969 0.549042 120.103 -0.693869 111.955 -0.968201C98.9038 -1.40758 103.772 -25 103.772 -25C103.772 -25 99.6098 -1.98097 111.295 -2.02474C117.94 -2.04963 122.631 -1.46547 127.322 1.45372Z" fill="url(#paint0_diamond_389_10124)"/>
<path d="M127.322 1.48948C129.271 2.67111 130.582 3.93643 131.191 4.51337C132.017 5.3029 132.792 6.25521 133.506 7.39066C134.096 8.36398 134.594 9.44944 135 10.6572C135.073 10.8601 97.5567 18.3295 97.6192 18.5427C98.0671 20.0043 98.2892 21.6294 98.2959 23.4178C98.3027 25.2063 98.1136 26.904 97.739 28.5008C97.385 30.1077 96.7937 31.5326 95.9445 32.7755C95.0954 34.0286 93.9675 35.0084 92.5403 35.7149C91.0925 36.4316 89.2833 36.7839 87.1128 36.7921H50.3953C42.135 36.823 41.17 40.0886 41.17 45.5658L46.1591 45.5471C42.326 46.5776 36.2715 56 36.2715 56C36.2715 56 30.2496 46.7448 26.2952 45.6215L31.274 45.6028C31.2771 29.9943 39.3105 27.0782 50.3587 27.0368L86.0474 27.0407C87.5596 27.035 88.7211 26.7868 89.5422 26.2959C90.3632 25.7848 90.9363 24.9798 91.2614 23.8913C91.5556 22.8131 91.7047 21.4102 91.6983 19.703C91.6923 18.1076 129.039 9.37879 128.571 8.01886C128.217 7.03448 127.813 6.14176 127.347 5.34072C127.181 5.01616 126.984 4.70188 126.788 4.40793C126.674 4.2356 126.56 4.06328 126.447 3.91128C126.033 3.30312 125.393 2.65516 124.434 2.07952C121.969 0.584805 120.103 -0.658112 111.955 -0.932444C98.9038 -1.37182 103.772 -24.9642 103.772 -24.9642C103.772 -24.9642 99.6098 -1.94521 111.295 -1.98898C117.94 -2.01387 122.631 -1.42971 127.322 1.48948Z" fill="url(#paint1_diamond_389_10124)"/>
<path d="M127.322 1.48948C129.271 2.67111 130.582 3.93643 131.191 4.51337C132.017 5.3029 132.792 6.25521 133.506 7.39066C134.096 8.36398 134.594 9.44944 135 10.6572C135.073 10.8601 97.5567 18.3295 97.6192 18.5427C98.0671 20.0043 98.2892 21.6294 98.2959 23.4178C98.3027 25.2063 98.1136 26.904 97.739 28.5008C97.385 30.1077 96.7937 31.5326 95.9445 32.7755C95.0954 34.0286 93.9675 35.0084 92.5403 35.7149C91.0925 36.4316 89.2833 36.7839 87.1128 36.7921H24.1002C15.8398 36.823 14.8748 40.0886 14.8748 45.5658L19.864 45.5471C16.0308 46.5776 9.9763 56 9.9763 56C9.9763 56 3.95445 46.7448 0 45.6215L4.97885 45.6028C4.98187 29.9943 13.0154 27.0782 24.0635 27.0368L86.0474 27.0407C87.5596 27.035 88.7211 26.7868 89.5422 26.2959C90.3632 25.7848 90.9363 24.9798 91.2614 23.8913C91.5556 22.8131 91.7047 21.4102 91.6983 19.703C91.6923 18.1076 129.039 9.37879 128.571 8.01886C128.217 7.03448 127.813 6.14176 127.347 5.34072C127.181 5.01616 126.984 4.70188 126.788 4.40793C126.674 4.2356 126.56 4.06328 126.447 3.91128C126.033 3.30312 125.393 2.65516 124.434 2.07952C121.969 0.584805 120.103 -0.658112 111.955 -0.932444C98.9038 -1.37182 103.772 -24.9642 103.772 -24.9642C103.772 -24.9642 99.6098 -1.94521 111.295 -1.98898C117.94 -2.01387 122.631 -1.42971 127.322 1.48948Z" fill="url(#paint2_diamond_389_10124)"/>
<defs>
<radialGradient id="paint0_diamond_389_10124" cx="0" cy="0" r="1" gradientUnits="userSpaceOnUse" gradientTransform="translate(125.071 -11.7852) rotate(151.543) scale(142.259 344.354)">
<stop stop-color="#E32900"/>
<stop offset="0.472959" stop-color="#C6E216"/>
<stop offset="1" stop-color="#D808FA"/>
</radialGradient>
<radialGradient id="paint1_diamond_389_10124" cx="0" cy="0" r="1" gradientUnits="userSpaceOnUse" gradientTransform="translate(125.071 -11.7852) rotate(151.543) scale(142.259 344.354)">
<stop stop-color="#E32900"/>
<stop offset="0.472959" stop-color="#C6E216"/>
<stop offset="1" stop-color="#D808FA"/>
</radialGradient>
<radialGradient id="paint2_diamond_389_10124" cx="0" cy="0" r="1" gradientUnits="userSpaceOnUse" gradientTransform="translate(125.071 -11.7852) rotate(151.543) scale(142.259 344.354)">
<stop stop-color="#E32900"/>
<stop offset="0.472959" stop-color="#C6E216"/>
<stop offset="1" stop-color="#D808FA"/>
</radialGradient>
</defs>
</svg>
