<svg width="113" height="100" viewBox="0 0 113 100" fill="none" xmlns="http://www.w3.org/2000/svg">
<path d="M-43.6129 32.5293C-45.9976 33.9801 -47.6023 35.5336 -48.3477 36.242C-49.3584 37.2114 -50.307 38.3806 -51.1808 39.7747C-51.9029 40.9697 -52.5121 42.3024 -53.0087 43.7852C-53.0977 44.0344 -7.18692 53.2052 -7.26344 53.4669C-7.81149 55.2615 -8.08334 57.2567 -8.09157 59.4525C-8.0998 61.6483 -7.86841 63.7328 -7.40997 65.6933C-6.97675 67.6662 -6.25315 69.4156 -5.21399 70.9417C-4.17488 72.4802 -2.79461 73.6831 -1.048 74.5505C0.723747 75.4305 2.93778 75.8631 5.59401 75.8731L18.3805 75.917C28.4893 75.9549 29.6702 79.9643 29.6702 86.6891L23.5646 86.6662C28.2555 87.9315 35.6648 99.5 35.6648 99.5C35.6648 99.5 43.0342 88.1367 47.8735 86.7575L41.7805 86.7346C41.7768 67.5708 31.9457 63.9905 18.4254 63.9397L6.89777 63.9005C5.04722 63.8936 3.62582 63.5888 2.62096 62.9862C1.6162 62.3586 0.914925 61.3703 0.517086 60.0338C0.156971 58.71 -0.0254059 56.9875 -0.0175514 54.8915C-0.0102081 52.9327 -45.7138 42.2156 -45.141 40.546C-44.7085 39.3374 -44.2134 38.2413 -43.6432 37.2578C-43.4403 36.8593 -43.1996 36.4735 -42.9591 36.1125C-42.8198 35.901 -42.6806 35.6894 -42.5414 35.5028C-42.035 34.7561 -41.2515 33.9605 -40.0781 33.2538C-37.0625 31.4186 -34.7782 29.8926 -24.8065 29.5558C-8.83543 29.0163 -14.7936 0.0500488 -14.7936 0.0500488C-14.7936 0.0500488 -9.69946 28.3123 -23.9994 28.2586C-32.1317 28.228 -37.8715 28.9452 -43.6129 32.5293Z" fill="black"/>
<path d="M-43.6129 32.5732C-45.9976 34.024 -47.6023 35.5776 -48.3477 36.2859C-49.3584 37.2553 -50.307 38.4245 -51.1808 39.8186C-51.9029 41.0136 -52.5121 42.3463 -53.0087 43.8291C-53.0977 44.0783 -7.18692 53.2491 -7.26344 53.5108C-7.81149 55.3054 -8.08334 57.3006 -8.09157 59.4964C-8.0998 61.6922 -7.86841 63.7767 -7.40997 65.7372C-6.97675 67.7101 -6.25315 69.4595 -5.21399 70.9856C-4.17488 72.5241 -2.79461 73.727 -1.048 74.5944C0.723747 75.4744 2.93778 75.907 5.59401 75.917H50.5276C60.6363 75.9549 61.8173 79.9643 61.8172 86.6891L55.7117 86.6662C60.4026 87.9315 67.8119 99.5 67.8119 99.5C67.8119 99.5 75.1812 88.1367 80.0206 86.7575L73.9276 86.7346C73.9239 67.5708 64.0928 63.9905 50.5725 63.9397L6.89777 63.9444C5.04722 63.9375 3.62581 63.6327 2.62096 63.0301C1.6162 62.4025 0.914917 61.4142 0.517082 60.0777C0.156963 58.7539 -0.0254135 57.0314 -0.0175552 54.9354C-0.0102158 52.9766 -45.7138 42.2596 -45.141 40.5899C-44.7085 39.3813 -44.2134 38.2852 -43.6432 37.3017C-43.4403 36.9032 -43.1996 36.5174 -42.9591 36.1564C-42.8198 35.9449 -42.6806 35.7333 -42.5414 35.5467C-42.035 34.8 -41.2515 34.0044 -40.0781 33.2977C-37.0625 31.4625 -34.7782 29.9365 -24.8065 29.5997C-8.83543 29.0602 -14.7936 0.0939545 -14.7936 0.0939545C-14.7936 0.0939545 -9.69946 28.3562 -23.9994 28.3025C-32.1317 28.2719 -37.8715 28.9891 -43.6129 32.5732Z" fill="black"/>
<path d="M-43.6129 32.5732C-45.9976 34.024 -47.6023 35.5776 -48.3477 36.2859C-49.3584 37.2553 -50.307 38.4245 -51.1808 39.8186C-51.9029 41.0136 -52.5121 42.3463 -53.0087 43.8291C-53.0977 44.0783 -7.18692 53.2491 -7.26344 53.5108C-7.81149 55.3054 -8.08334 57.3006 -8.09157 59.4964C-8.0998 61.6922 -7.86841 63.7767 -7.40997 65.7372C-6.97675 67.7101 -6.25315 69.4595 -5.21399 70.9856C-4.17488 72.5241 -2.79461 73.727 -1.048 74.5944C0.723747 75.4744 2.93778 75.907 5.59401 75.917H82.7067C92.8155 75.9549 93.9964 79.9643 93.9964 86.6891L87.8908 86.6662C92.5818 87.9315 99.9911 99.5 99.9911 99.5C99.9911 99.5 107.36 88.1367 112.2 86.7575L106.107 86.7346C106.103 67.5708 96.2719 63.9905 82.7516 63.9397L6.89777 63.9444C5.04722 63.9375 3.62581 63.6327 2.62096 63.0301C1.6162 62.4025 0.914917 61.4142 0.517082 60.0777C0.156963 58.7539 -0.0254135 57.0314 -0.0175552 54.9354C-0.0102158 52.9766 -45.7138 42.2596 -45.141 40.5899C-44.7085 39.3813 -44.2134 38.2852 -43.6432 37.3017C-43.4403 36.9032 -43.1996 36.5174 -42.9591 36.1564C-42.8198 35.9449 -42.6806 35.7333 -42.5414 35.5467C-42.035 34.8 -41.2515 34.0044 -40.0781 33.2977C-37.0625 31.4625 -34.7782 29.9365 -24.8065 29.5997C-8.83543 29.0602 -14.7936 0.0939545 -14.7936 0.0939545C-14.7936 0.0939545 -9.69946 28.3562 -23.9994 28.3025C-32.1317 28.2719 -37.8715 28.9891 -43.6129 32.5732Z" fill="black"/>
</svg>
