<svg width="60" height="60" viewBox="0 0 60 60" fill="none" xmlns="http://www.w3.org/2000/svg">
<g clip-path="url(#clip0_1996_23464)">
<g filter="url(#filter0_bii_1996_23464)">
<path d="M35.327 47.5762L35.327 48.7063C33.4059 50.6839 23.9698 50.2884 22.6137 48.7063L22.6137 47.0677C22.6137 46.2201 22.4442 45.9941 21.5966 45.3161C20.7491 44.638 20.2405 44.4685 18.8844 41.8128C17.7996 39.6883 18.131 35.1265 18.4324 33.1112C17.8674 31.9058 17.0424 29.0203 18.2629 27.1218C19.4834 25.2233 21.5589 25.4644 22.4442 25.8222C23.1787 23.7316 26.795 23.7316 27.586 25.0877C27.7363 24.6899 27.149 16.7522 27.2324 14.63C27.3157 12.5078 31.2441 12.2568 31.5832 15.082C31.9222 17.9073 33.2218 27.965 33.5608 28.0214C33.8998 28.0779 34.8185 17.0032 37.4742 17.0032C39.5083 17.0484 40.0964 18.3405 40.1152 19.2634C40.1717 20.1109 38.6461 27.9087 38.5331 28.9823C38.4201 30.0559 38.2087 31.0164 38.2087 32.9982C38.3217 34.8063 38.3636 35.0279 38.6461 35.48C41.3583 37.0621 40.9628 40.5088 40.2847 41.6954C39.6067 42.882 38.0392 44.6945 37.4742 45.5421C36.9092 46.3896 36.2876 46.7852 35.7791 47.0677C35.3722 47.2937 35.3082 47.5009 35.327 47.5762Z" fill="url(#paint0_linear_1996_23464)"/>
</g>
<g filter="url(#filter1_d_1996_23464)">
<g filter="url(#filter2_ii_1996_23464)">
<path d="M17.811 28.1389C18.8054 25.2007 21.3142 25.3702 22.4443 25.8222C21.4594 27.7033 22.4614 31.882 22.7268 32.7157C22.0488 34.9194 19.0541 34.2978 18.4325 33.1112C17.811 31.9246 17.3589 29.5515 17.811 28.1389Z" fill="white" fill-opacity="0.01"/>
</g>
<g filter="url(#filter3_ii_1996_23464)">
<path d="M27.6428 32.2072L27.5863 25.0877C27.5863 25.0877 26.5127 23.5621 23.9701 24.4097C23.1225 24.7487 22.84 25.0877 22.4445 25.8223C21.5404 27.5012 22.388 31.4162 22.5575 32.0942C22.727 32.7722 23.292 34.3544 25.3262 34.6369C26.9535 34.8629 27.5486 33.1113 27.6428 32.2072Z" fill="white" fill-opacity="0.01"/>
</g>
</g>
<path d="M17.8109 28.1389C18.8053 25.2007 21.3141 25.3702 22.4442 25.8222C21.4593 27.7033 22.4613 31.882 22.7267 32.7157C22.0486 34.9194 19.0539 34.2978 18.4324 33.1112C17.8109 31.9246 17.3588 29.5515 17.8109 28.1389Z" fill="url(#paint1_linear_1996_23464)"/>
<g filter="url(#filter4_bii_1996_23464)">
<path d="M35.7793 47.5762C35.7793 47.3954 35.5533 47.3125 35.4403 47.2937C35.4403 48.5368 22.6139 48.7063 22.6139 47.2372C22.1619 47.2372 21.7098 47.4067 21.7098 47.6892L21.7098 54.3858C21.7098 54.8752 21.9218 55.3302 22.393 55.4622C24.6002 56.08 31.1424 56.2533 34.5581 55.5109C35.3151 55.3463 35.7793 54.6437 35.7793 53.8691L35.7793 47.5762Z" fill="#D808FA"/>
</g>
<g filter="url(#filter5_f_1996_23464)">
<path d="M21.0648 38.019C20.7723 38.9437 20.7792 40.7461 21.6116 41.476C22.444 42.2058 24.5764 44.095 25.7625 44.188C26.9487 44.281 28.366 43.1613 28.3351 41.7772C28.3042 40.3932 26.5078 36.3677 25.2735 35.8713C24.0393 35.3748 22.8445 35.7721 22.3989 35.9769C21.9534 36.1818 21.3573 37.0942 21.0648 38.019Z" fill="url(#paint2_radial_1996_23464)" fill-opacity="0.32"/>
</g>
<g filter="url(#filter6_f_1996_23464)">
<path d="M30.7636 40.8986C31.2609 41.7314 32.6131 42.9231 33.7115 42.7854C34.81 42.6476 37.6385 42.3078 38.4957 41.4828C39.3529 40.6577 39.4569 38.8544 38.4016 37.9584C37.3462 37.0624 33.1435 35.7324 31.9527 36.3256C30.7619 36.9188 30.2655 38.0759 30.1228 38.545C29.9801 39.0142 30.2664 40.0658 30.7636 40.8986Z" fill="url(#paint3_radial_1996_23464)" fill-opacity="0.32"/>
</g>
<path d="M27.6428 32.2072L27.5863 25.0877C27.5863 25.0877 26.5127 23.5621 23.9701 24.4097C23.1225 24.7487 22.84 25.0877 22.4445 25.8223C21.5404 27.5012 22.388 31.4162 22.5575 32.0942C22.727 32.7722 23.292 34.3544 25.3262 34.6369C26.9535 34.8629 27.5486 33.1113 27.6428 32.2072Z" fill="url(#paint4_linear_1996_23464)"/>
<g filter="url(#filter7_ii_1996_23464)">
<path d="M34.622 40.4789C35.3347 42.2419 36.0373 43.1476 38.2947 44.4906C38.4643 44.2081 38.9276 43.5301 39.4248 43.078C40.0464 42.513 41.9234 38.9833 39.7763 36.4406C37.8552 34.463 36.5431 34.6025 32.5313 34.2634C28.5196 33.9244 27.9545 36.9191 29.4801 38.5577C30.7006 39.8686 33.4166 40.3847 34.622 40.4789Z" fill="white" fill-opacity="0.01"/>
</g>
<g filter="url(#filter8_ii_1996_23464)">
<path d="M44.2416 11.5832L43.2622 10.096C43.0085 9.71084 42.4583 9.67191 42.153 10.0175L39.9656 12.4933C39.4965 13.0242 40.0225 13.8361 40.6988 13.625L43.8656 12.6364C44.3099 12.4976 44.4976 11.9719 44.2416 11.5832Z" fill="url(#paint5_linear_1996_23464)"/>
<path d="M40.9208 6.86483L37.8361 10.8491C37.4136 11.3947 36.54 11.0645 36.584 10.3759L36.8954 5.50512C36.9245 5.05049 37.3732 4.74431 37.8071 4.88301L40.5805 5.76953C41.0434 5.91749 41.2183 6.48056 40.9208 6.86483Z" fill="url(#paint6_linear_1996_23464)"/>
<path d="M33.8233 6.81699L33.7252 10.5383C33.7072 11.2219 32.8203 11.4767 32.4422 10.9069L30.486 7.9585C30.2372 7.58361 30.4017 7.07478 30.8228 6.91634L32.877 6.1434C33.3421 5.9684 33.8363 6.32023 33.8233 6.81699Z" fill="url(#paint7_linear_1996_23464)"/>
</g>
<g filter="url(#filter9_bii_1996_23464)">
<path d="M53.6431 49.9392L48.9252 43.5625C48.6496 43.1899 48.0946 43.1832 47.81 43.5489L38.8547 55.0586C38.421 55.616 38.992 56.392 39.6532 56.1438L53.3264 51.0109C53.7616 50.8475 53.9196 50.313 53.6431 49.9392Z" fill="white" fill-opacity="0.5"/>
<path d="M44.0146 35.0464L33.3522 50.7655C32.9646 51.3368 32.0715 51.0615 32.0729 50.3712L32.1091 31.8458C32.11 31.3872 32.5444 31.0533 32.9878 31.1704L43.6141 33.9766C44.0806 34.0998 44.2855 34.647 44.0146 35.0464Z" fill="white" fill-opacity="0.5"/>
<path d="M24.0671 35.5543L24.614 51.0746C24.6381 51.7606 23.7632 52.0679 23.3531 51.5175L14.5237 39.6674C14.2554 39.3072 14.3908 38.7911 14.8014 38.6092L23.0839 34.9389C23.537 34.7381 24.0496 35.0589 24.0671 35.5543Z" fill="white" fill-opacity="0.5"/>
</g>
</g>
<defs>
<filter id="filter0_bii_1996_23464" x="14.6311" y="10" width="29.1509" height="43.0453" filterUnits="userSpaceOnUse" color-interpolation-filters="sRGB">
<feFlood flood-opacity="0" result="BackgroundImageFix"/>
<feGaussianBlur in="BackgroundImageFix" stdDeviation="1.5"/>
<feComposite in2="SourceAlpha" operator="in" result="effect1_backgroundBlur_1996_23464"/>
<feBlend mode="normal" in="SourceGraphic" in2="effect1_backgroundBlur_1996_23464" result="shape"/>
<feColorMatrix in="SourceAlpha" type="matrix" values="0 0 0 0 0 0 0 0 0 0 0 0 0 0 0 0 0 0 127 0" result="hardAlpha"/>
<feOffset dx="-2.71218" dy="0.904061"/>
<feGaussianBlur stdDeviation="1.80812"/>
<feComposite in2="hardAlpha" operator="arithmetic" k2="-1" k3="1"/>
<feColorMatrix type="matrix" values="0 0 0 0 1 0 0 0 0 1 0 0 0 0 1 0 0 0 0.5 0"/>
<feBlend mode="normal" in2="shape" result="effect2_innerShadow_1996_23464"/>
<feColorMatrix in="SourceAlpha" type="matrix" values="0 0 0 0 0 0 0 0 0 0 0 0 0 0 0 0 0 0 127 0" result="hardAlpha"/>
<feOffset dx="0.678046" dy="-0.678046"/>
<feGaussianBlur stdDeviation="1.35609"/>
<feComposite in2="hardAlpha" operator="arithmetic" k2="-1" k3="1"/>
<feColorMatrix type="matrix" values="0 0 0 0 0 0 0 0 0 0 0 0 0 0 0 0 0 0 0.5 0"/>
<feBlend mode="normal" in2="effect2_innerShadow_1996_23464" result="effect3_innerShadow_1996_23464"/>
</filter>
<filter id="filter1_d_1996_23464" x="16.2717" y="22.7972" width="13.6313" height="14.1197" filterUnits="userSpaceOnUse" color-interpolation-filters="sRGB">
<feFlood flood-opacity="0" result="BackgroundImageFix"/>
<feColorMatrix in="SourceAlpha" type="matrix" values="0 0 0 0 0 0 0 0 0 0 0 0 0 0 0 0 0 0 127 0" result="hardAlpha"/>
<feOffset dx="0.452031" dy="0.452031"/>
<feGaussianBlur stdDeviation="0.904061"/>
<feComposite in2="hardAlpha" operator="out"/>
<feColorMatrix type="matrix" values="0 0 0 0 0 0 0 0 0 0 0 0 0 0 0 0 0 0 0.12 0"/>
<feBlend mode="normal" in2="BackgroundImageFix" result="effect1_dropShadow_1996_23464"/>
<feBlend mode="normal" in="SourceGraphic" in2="effect1_dropShadow_1996_23464" result="shape"/>
</filter>
<filter id="filter2_ii_1996_23464" x="16.9498" y="24.8894" width="8.48923" height="10.6529" filterUnits="userSpaceOnUse" color-interpolation-filters="sRGB">
<feFlood flood-opacity="0" result="BackgroundImageFix"/>
<feBlend mode="normal" in="SourceGraphic" in2="BackgroundImageFix" result="shape"/>
<feColorMatrix in="SourceAlpha" type="matrix" values="0 0 0 0 0 0 0 0 0 0 0 0 0 0 0 0 0 0 127 0" result="hardAlpha"/>
<feOffset dx="-0.678046" dy="1.35609"/>
<feGaussianBlur stdDeviation="1.35609"/>
<feComposite in2="hardAlpha" operator="arithmetic" k2="-1" k3="1"/>
<feColorMatrix type="matrix" values="0 0 0 0 1 0 0 0 0 1 0 0 0 0 1 0 0 0 0.32 0"/>
<feBlend mode="normal" in2="shape" result="effect1_innerShadow_1996_23464"/>
<feColorMatrix in="SourceAlpha" type="matrix" values="0 0 0 0 0 0 0 0 0 0 0 0 0 0 0 0 0 0 127 0" result="hardAlpha"/>
<feOffset dx="3.61625" dy="-0.678046"/>
<feGaussianBlur stdDeviation="1.35609"/>
<feComposite in2="hardAlpha" operator="arithmetic" k2="-1" k3="1"/>
<feColorMatrix type="matrix" values="0 0 0 0 0 0 0 0 0 0 0 0 0 0 0 0 0 0 0.32 0"/>
<feBlend mode="normal" in2="effect1_innerShadow_1996_23464" result="effect2_innerShadow_1996_23464"/>
</filter>
<filter id="filter3_ii_1996_23464" x="21.3563" y="23.4753" width="8.99875" height="12.5376" filterUnits="userSpaceOnUse" color-interpolation-filters="sRGB">
<feFlood flood-opacity="0" result="BackgroundImageFix"/>
<feBlend mode="normal" in="SourceGraphic" in2="BackgroundImageFix" result="shape"/>
<feColorMatrix in="SourceAlpha" type="matrix" values="0 0 0 0 0 0 0 0 0 0 0 0 0 0 0 0 0 0 127 0" result="hardAlpha"/>
<feOffset dx="-0.678046" dy="1.35609"/>
<feGaussianBlur stdDeviation="1.35609"/>
<feComposite in2="hardAlpha" operator="arithmetic" k2="-1" k3="1"/>
<feColorMatrix type="matrix" values="0 0 0 0 1 0 0 0 0 1 0 0 0 0 1 0 0 0 0.32 0"/>
<feBlend mode="normal" in2="shape" result="effect1_innerShadow_1996_23464"/>
<feColorMatrix in="SourceAlpha" type="matrix" values="0 0 0 0 0 0 0 0 0 0 0 0 0 0 0 0 0 0 127 0" result="hardAlpha"/>
<feOffset dx="3.61625" dy="-0.678046"/>
<feGaussianBlur stdDeviation="1.35609"/>
<feComposite in2="hardAlpha" operator="arithmetic" k2="-1" k3="1"/>
<feColorMatrix type="matrix" values="0 0 0 0 0 0 0 0 0 0 0 0 0 0 0 0 0 0 0.32 0"/>
<feBlend mode="normal" in2="effect1_innerShadow_1996_23464" result="effect2_innerShadow_1996_23464"/>
</filter>
<filter id="filter4_bii_1996_23464" x="18.7098" y="44.2372" width="20.0695" height="14.7628" filterUnits="userSpaceOnUse" color-interpolation-filters="sRGB">
<feFlood flood-opacity="0" result="BackgroundImageFix"/>
<feGaussianBlur in="BackgroundImageFix" stdDeviation="1.5"/>
<feComposite in2="SourceAlpha" operator="in" result="effect1_backgroundBlur_1996_23464"/>
<feBlend mode="normal" in="SourceGraphic" in2="effect1_backgroundBlur_1996_23464" result="shape"/>
<feColorMatrix in="SourceAlpha" type="matrix" values="0 0 0 0 0 0 0 0 0 0 0 0 0 0 0 0 0 0 127 0" result="hardAlpha"/>
<feOffset dx="-2.71218" dy="0.904061"/>
<feGaussianBlur stdDeviation="1.80812"/>
<feComposite in2="hardAlpha" operator="arithmetic" k2="-1" k3="1"/>
<feColorMatrix type="matrix" values="0 0 0 0 1 0 0 0 0 1 0 0 0 0 1 0 0 0 0.5 0"/>
<feBlend mode="normal" in2="shape" result="effect2_innerShadow_1996_23464"/>
<feColorMatrix in="SourceAlpha" type="matrix" values="0 0 0 0 0 0 0 0 0 0 0 0 0 0 0 0 0 0 127 0" result="hardAlpha"/>
<feOffset dx="0.678046" dy="-0.678046"/>
<feGaussianBlur stdDeviation="1.35609"/>
<feComposite in2="hardAlpha" operator="arithmetic" k2="-1" k3="1"/>
<feColorMatrix type="matrix" values="0 0 0 0 0 0 0 0 0 0 0 0 0 0 0 0 0 0 0.5 0"/>
<feBlend mode="normal" in2="effect2_innerShadow_1996_23464" result="effect3_innerShadow_1996_23464"/>
</filter>
<filter id="filter5_f_1996_23464" x="19.5337" y="34.2757" width="10.1581" height="11.2738" filterUnits="userSpaceOnUse" color-interpolation-filters="sRGB">
<feFlood flood-opacity="0" result="BackgroundImageFix"/>
<feBlend mode="normal" in="SourceGraphic" in2="BackgroundImageFix" result="shape"/>
<feGaussianBlur stdDeviation="0.678046" result="effect1_foregroundBlur_1996_23464"/>
</filter>
<filter id="filter6_f_1996_23464" x="28.7301" y="34.8221" width="11.7919" height="9.33029" filterUnits="userSpaceOnUse" color-interpolation-filters="sRGB">
<feFlood flood-opacity="0" result="BackgroundImageFix"/>
<feBlend mode="normal" in="SourceGraphic" in2="BackgroundImageFix" result="shape"/>
<feGaussianBlur stdDeviation="0.678046" result="effect1_foregroundBlur_1996_23464"/>
</filter>
<filter id="filter7_ii_1996_23464" x="25.9894" y="32.8808" width="15.4671" height="12.5139" filterUnits="userSpaceOnUse" color-interpolation-filters="sRGB">
<feFlood flood-opacity="0" result="BackgroundImageFix"/>
<feBlend mode="normal" in="SourceGraphic" in2="BackgroundImageFix" result="shape"/>
<feColorMatrix in="SourceAlpha" type="matrix" values="0 0 0 0 0 0 0 0 0 0 0 0 0 0 0 0 0 0 127 0" result="hardAlpha"/>
<feOffset dx="-2.71218" dy="0.904061"/>
<feGaussianBlur stdDeviation="1.80812"/>
<feComposite in2="hardAlpha" operator="arithmetic" k2="-1" k3="1"/>
<feColorMatrix type="matrix" values="0 0 0 0 1 0 0 0 0 1 0 0 0 0 1 0 0 0 0.5 0"/>
<feBlend mode="normal" in2="shape" result="effect1_innerShadow_1996_23464"/>
<feColorMatrix in="SourceAlpha" type="matrix" values="0 0 0 0 0 0 0 0 0 0 0 0 0 0 0 0 0 0 127 0" result="hardAlpha"/>
<feOffset dx="0.678046" dy="-1.35609"/>
<feGaussianBlur stdDeviation="1.35609"/>
<feComposite in2="hardAlpha" operator="arithmetic" k2="-1" k3="1"/>
<feColorMatrix type="matrix" values="0 0 0 0 0 0 0 0 0 0 0 0 0 0 0 0 0 0 0.5 0"/>
<feBlend mode="normal" in2="effect1_innerShadow_1996_23464" result="effect2_innerShadow_1996_23464"/>
</filter>
<filter id="filter8_ii_1996_23464" x="29.869" y="4.34937" width="14.9883" height="9.80988" filterUnits="userSpaceOnUse" color-interpolation-filters="sRGB">
<feFlood flood-opacity="0" result="BackgroundImageFix"/>
<feBlend mode="normal" in="SourceGraphic" in2="BackgroundImageFix" result="shape"/>
<feColorMatrix in="SourceAlpha" type="matrix" values="0 0 0 0 0 0 0 0 0 0 0 0 0 0 0 0 0 0 127 0" result="hardAlpha"/>
<feOffset dx="-0.5" dy="0.5"/>
<feGaussianBlur stdDeviation="0.6"/>
<feComposite in2="hardAlpha" operator="arithmetic" k2="-1" k3="1"/>
<feColorMatrix type="matrix" values="0 0 0 0 0 0 0 0 0 0 0 0 0 0 0 0 0 0 0.4 0"/>
<feBlend mode="normal" in2="shape" result="effect1_innerShadow_1996_23464"/>
<feColorMatrix in="SourceAlpha" type="matrix" values="0 0 0 0 0 0 0 0 0 0 0 0 0 0 0 0 0 0 127 0" result="hardAlpha"/>
<feOffset dx="0.5" dy="-0.5"/>
<feGaussianBlur stdDeviation="0.6"/>
<feComposite in2="hardAlpha" operator="arithmetic" k2="-1" k3="1"/>
<feColorMatrix type="matrix" values="0 0 0 0 1 0 0 0 0 1 0 0 0 0 1 0 0 0 0.6 0"/>
<feBlend mode="normal" in2="effect1_innerShadow_1996_23464" result="effect2_innerShadow_1996_23464"/>
</filter>
<filter id="filter9_bii_1996_23464" x="11.3848" y="28.1468" width="45.3959" height="31.0446" filterUnits="userSpaceOnUse" color-interpolation-filters="sRGB">
<feFlood flood-opacity="0" result="BackgroundImageFix"/>
<feGaussianBlur in="BackgroundImageFix" stdDeviation="1.5"/>
<feComposite in2="SourceAlpha" operator="in" result="effect1_backgroundBlur_1996_23464"/>
<feBlend mode="normal" in="SourceGraphic" in2="effect1_backgroundBlur_1996_23464" result="shape"/>
<feColorMatrix in="SourceAlpha" type="matrix" values="0 0 0 0 0 0 0 0 0 0 0 0 0 0 0 0 0 0 127 0" result="hardAlpha"/>
<feOffset dx="-0.5" dy="0.5"/>
<feGaussianBlur stdDeviation="0.6"/>
<feComposite in2="hardAlpha" operator="arithmetic" k2="-1" k3="1"/>
<feColorMatrix type="matrix" values="0 0 0 0 0 0 0 0 0 0 0 0 0 0 0 0 0 0 0.4 0"/>
<feBlend mode="normal" in2="shape" result="effect2_innerShadow_1996_23464"/>
<feColorMatrix in="SourceAlpha" type="matrix" values="0 0 0 0 0 0 0 0 0 0 0 0 0 0 0 0 0 0 127 0" result="hardAlpha"/>
<feOffset dx="0.5" dy="-0.5"/>
<feGaussianBlur stdDeviation="0.6"/>
<feComposite in2="hardAlpha" operator="arithmetic" k2="-1" k3="1"/>
<feColorMatrix type="matrix" values="0 0 0 0 1 0 0 0 0 1 0 0 0 0 1 0 0 0 0.6 0"/>
<feBlend mode="normal" in2="effect2_innerShadow_1996_23464" result="effect3_innerShadow_1996_23464"/>
</filter>
<linearGradient id="paint0_linear_1996_23464" x1="16.5" y1="19" x2="28.8987" y2="53.0458" gradientUnits="userSpaceOnUse">
<stop stop-color="#E32900"/>
<stop offset="0.494792" stop-color="#C6E216"/>
<stop offset="1" stop-color="#D808FA"/>
</linearGradient>
<linearGradient id="paint1_linear_1996_23464" x1="21.8645" y1="27.2872" x2="20.2235" y2="30.1949" gradientUnits="userSpaceOnUse">
<stop stop-color="white" stop-opacity="0.16"/>
<stop offset="1" stop-color="white" stop-opacity="0"/>
</linearGradient>
<radialGradient id="paint2_radial_1996_23464" cx="0" cy="0" r="1" gradientUnits="userSpaceOnUse" gradientTransform="translate(24.8803 39.7757) rotate(122.415) scale(4.35116 5.40386)">
<stop stop-color="white"/>
<stop offset="1" stop-color="white" stop-opacity="0"/>
</radialGradient>
<radialGradient id="paint3_radial_1996_23464" cx="0" cy="0" r="1" gradientUnits="userSpaceOnUse" gradientTransform="translate(34.6109 39.2124) rotate(74.025) scale(4.35116 5.40386)">
<stop stop-color="white"/>
<stop offset="1" stop-color="white" stop-opacity="0"/>
</radialGradient>
<linearGradient id="paint4_linear_1996_23464" x1="27.4587" y1="25.0836" x2="24.7741" y2="30.1158" gradientUnits="userSpaceOnUse">
<stop stop-color="white" stop-opacity="0.16"/>
<stop offset="1" stop-color="white" stop-opacity="0"/>
</linearGradient>
<linearGradient id="paint5_linear_1996_23464" x1="38.9516" y1="5.46039" x2="36.8485" y2="12.4626" gradientUnits="userSpaceOnUse">
<stop stop-color="#E32900"/>
<stop offset="0.494792" stop-color="#C6E216"/>
<stop offset="1" stop-color="#D808FA"/>
</linearGradient>
<linearGradient id="paint6_linear_1996_23464" x1="38.9516" y1="5.46039" x2="36.8485" y2="12.4626" gradientUnits="userSpaceOnUse">
<stop stop-color="#E32900"/>
<stop offset="0.494792" stop-color="#C6E216"/>
<stop offset="1" stop-color="#D808FA"/>
</linearGradient>
<linearGradient id="paint7_linear_1996_23464" x1="38.9516" y1="5.46039" x2="36.8485" y2="12.4626" gradientUnits="userSpaceOnUse">
<stop stop-color="#E32900"/>
<stop offset="0.494792" stop-color="#C6E216"/>
<stop offset="1" stop-color="#D808FA"/>
</linearGradient>
<clipPath id="clip0_1996_23464">
<rect width="60" height="60" fill="white"/>
</clipPath>
</defs>
</svg>
