<svg width="25" height="25" viewBox="0 0 25 25" fill="none" xmlns="http://www.w3.org/2000/svg">
<path d="M21.1112 7.31205C20.5112 6.91205 19.8112 6.91205 19.1112 7.21205L16.3112 8.61205V8.11205C16.3112 6.61205 15.1112 5.41205 13.6112 5.41205H5.51116C4.01116 5.41205 2.81116 6.61205 2.81116 8.11205V16.212C2.81116 17.712 4.01116 18.912 5.51116 18.912H13.6112C15.1112 18.912 16.3112 17.712 16.3112 16.212V15.712L19.1112 17.112C19.7112 17.412 20.5112 17.412 21.1112 17.012C21.7112 16.612 22.0112 16.012 22.0112 15.312V9.01205C22.0112 8.31205 21.6112 7.71205 21.1112 7.31205ZM14.2112 16.312C14.2112 16.612 13.9112 16.912 13.6112 16.912H5.51116C5.21116 16.912 4.91116 16.612 4.91116 16.312V8.11205C4.91116 7.81205 5.21116 7.51205 5.51116 7.51205H13.6112C13.9112 7.51205 14.2112 7.81205 14.2112 8.11205V16.312ZM19.9112 15.212L16.3112 13.412V10.912L19.9112 9.21205V15.212ZM12.5112 12.212C12.5112 12.812 12.0112 13.312 11.4112 13.312H10.6112V14.112C10.6112 14.712 10.1112 15.212 9.51116 15.212C8.91116 15.212 8.41116 14.712 8.41116 14.112V13.312H7.71116C7.11116 13.312 6.61116 12.812 6.61116 12.212C6.61116 11.612 7.11116 11.112 7.71116 11.112H8.51116V10.312C8.51116 9.71205 9.01116 9.21205 9.61116 9.21205C10.2112 9.21205 10.7112 9.71205 10.7112 10.312V11.112H11.5112C12.0112 11.112 12.5112 11.612 12.5112 12.212Z" fill="black"/>
</svg>
