<svg width="25" height="25" viewBox="0 0 25 25" fill="none" xmlns="http://www.w3.org/2000/svg">
<path fill-rule="evenodd" clip-rule="evenodd" d="M6.00438 2.56201C4.24081 2.56201 2.81116 3.99167 2.81116 5.75523V18.5688C2.81116 20.3324 4.24081 21.762 6.00438 21.762H18.8179C19.9918 21.762 20.9434 20.8104 20.9434 19.6366V17.4908H20.9535C21.5377 17.4908 22.0112 17.0173 22.0112 16.4332V12.162C22.0112 11.5779 21.5377 11.1044 20.9535 11.1044H20.9434V8.95862C20.9434 7.78478 19.9918 6.8332 18.8179 6.8332H18.8078V4.68744C18.8078 3.5136 17.8562 2.56201 16.6823 2.56201H6.00438ZM19.88 13.2196C19.8819 13.2196 19.8838 13.2196 19.8857 13.2196C19.8876 13.2196 19.8896 13.2196 19.8915 13.2196H19.8959V15.3756H16.6824C16.087 15.3756 15.6044 14.8929 15.6044 14.2976C15.6044 13.7022 16.087 13.2196 16.6824 13.2196H19.88ZM18.8281 11.1044V8.95862C18.8281 8.95653 18.8279 8.95559 18.8279 8.95545C18.8277 8.95514 18.8273 8.95416 18.8269 8.9535L18.8251 8.95143C18.8234 8.94974 18.822 8.94901 18.8216 8.94882C18.8213 8.94876 18.8199 8.94845 18.8179 8.94845H6.00438C5.62609 8.94845 5.26316 8.88267 4.92641 8.76193V18.5688C4.92641 19.1641 5.40903 19.6468 6.00438 19.6468H18.8179C18.82 19.6468 18.821 19.6466 18.8211 19.6465C18.8216 19.6463 18.8234 19.6455 18.8251 19.6438C18.8268 19.6421 18.8275 19.6407 18.8277 19.6402C18.8278 19.6401 18.8281 19.6387 18.8281 19.6366V17.4908H16.6824C14.9188 17.4908 13.4891 16.0612 13.4891 14.2976C13.4891 12.534 14.9188 11.1044 16.6824 11.1044H18.8281ZM6.00438 6.8332C5.40903 6.8332 4.92641 6.35058 4.92641 5.75523C4.92641 5.15989 5.40903 4.67727 6.00438 4.67727H16.6823L16.6834 4.67729C16.6848 4.67734 16.6859 4.67761 16.686 4.67763C16.6864 4.67782 16.6878 4.67856 16.6895 4.68024C16.6912 4.68193 16.6921 4.68381 16.6923 4.68427C16.6923 4.6844 16.6925 4.68534 16.6925 4.68744V6.8332H6.00438Z" fill="black"/>
</svg>
