<svg width="25" height="25" viewBox="0 0 25 25" fill="none" xmlns="http://www.w3.org/2000/svg">
<path d="M12.3146 8.31208C12.9146 8.31208 13.4146 8.81209 13.4146 9.41209V13.0121C13.4146 13.6121 12.9146 14.1121 12.3146 14.1121C11.7146 14.1121 11.2146 13.6121 11.2146 13.0121V9.41209C11.3146 8.81209 11.8146 8.31208 12.3146 8.31208ZM12.3146 15.5121C12.9146 15.5121 13.4146 16.0121 13.4146 16.6121C13.4146 17.2121 12.9146 17.7121 12.3146 17.7121C11.7146 17.7121 11.2146 17.2121 11.2146 16.6121C11.3146 15.9121 11.8146 15.5121 12.3146 15.5121ZM9.81464 5.01208C10.3146 4.11208 11.3146 3.51208 12.4146 3.51208C13.5146 3.51208 14.5146 4.11208 15.0146 5.01208L21.7146 16.6121C21.7146 16.6121 21.7146 16.7121 21.8146 16.7121C22.2146 17.6121 22.1146 18.6121 21.5146 19.5121C20.9146 20.4121 20.0146 20.8121 19.1146 20.8121H5.71464C5.71464 20.8121 5.71464 20.8121 5.61464 20.8121H5.51464C4.51464 20.8121 3.71464 20.2121 3.21464 19.4121C2.71464 18.6121 2.61464 17.6121 3.01464 16.7121C3.01464 16.7121 3.01464 16.6121 3.11464 16.6121L9.81464 5.01208ZM5.61464 18.8121C5.71464 18.8121 5.71464 18.8121 5.61464 18.8121H18.9146C19.2146 18.8121 19.4146 18.7121 19.6146 18.4121C19.7146 18.2121 19.8146 17.9121 19.7146 17.7121L13.1146 6.11208C12.9146 5.81208 12.6146 5.61208 12.3146 5.61208C12.0146 5.61208 11.7146 5.81208 11.6146 6.01208L4.91464 17.7121C4.81464 17.9121 4.91464 18.2121 5.01464 18.4121C5.11464 18.6121 5.41464 18.7121 5.61464 18.8121Z" fill="black"/>
</svg>
