<svg width="24" height="24" viewBox="0 0 24 24" fill="none" xmlns="http://www.w3.org/2000/svg">
<path fill-rule="evenodd" clip-rule="evenodd" d="M14.7413 9.0641L12 3.2509L9.25897 9.06402L2.90966 10.0294L7.51088 14.7227L6.44724 21.2109L11.9999 18.156L17.5526 21.2109L16.4891 14.7228L21.0902 10.0295L14.7413 9.0641ZM23.9466 9.08402C24.0749 9.49738 23.9679 9.95117 23.6704 10.2545L18.6266 15.3993L19.8074 22.6029C19.8253 22.6849 19.8348 22.7704 19.8348 22.8581C19.8348 23.4882 19.3471 23.9991 18.7452 24C18.571 23.9993 18.3951 23.9572 18.2345 23.8688L11.9999 20.4387L5.76528 23.8688C5.60562 23.9567 5.43126 24 5.25763 24C5.03141 24 4.80627 23.9265 4.6162 23.7819C4.28022 23.5264 4.11197 23.0935 4.18216 22.6651L5.37329 15.3992L0.329545 10.2545C0.0321099 9.95117 -0.0748911 9.49738 0.0534228 9.08395C0.181737 8.67059 0.523252 8.36928 0.934235 8.30678L7.90458 7.24697L11.0216 0.636559C11.2053 0.246798 11.5847 0 12 0C12.4153 0 12.7946 0.246798 12.9784 0.636559L16.0956 7.24705L23.0658 8.30686C23.4767 8.36928 23.8182 8.67059 23.9466 9.08402Z" fill="white"/>
</svg>
